<?xml version="1.0" encoding="utf-8"?>
<!-- Generator: Adobe Illustrator 16.0.0, SVG Export Plug-In . SVG Version: 6.00 Build 0)  -->
<!DOCTYPE svg PUBLIC "-//W3C//DTD SVG 1.1//EN" "http://www.w3.org/Graphics/SVG/1.1/DTD/svg11.dtd">
<svg version="1.1" id="Layer_1" xmlns="http://www.w3.org/2000/svg" xmlns:xlink="http://www.w3.org/1999/xlink" x="0px" y="0px"
	 width="1189.504px" height="345.035px" viewBox="0 0 1189.504 345.035" enable-background="new 0 0 1189.504 345.035"
	 xml:space="preserve">
<g>
	<defs>
		<rect id="SVGID_1_" x="-7214.438" y="-1421.537" width="2902.677" height="5612.599"/>
	</defs>
	<clipPath id="SVGID_2_">
		<use xlink:href="#SVGID_1_"  overflow="visible"/>
	</clipPath>
	
		<linearGradient id="SVGID_3_" gradientUnits="userSpaceOnUse" x1="-4132.9668" y1="1584.4922" x2="-4131.9668" y2="1584.4922" gradientTransform="matrix(3339.9001 6152.9175 6152.9175 -3339.9001 4046972 30720116)">
		<stop  offset="0" style="stop-color:#009776"/>
		<stop  offset="0.0061" style="stop-color:#009776"/>
		<stop  offset="0.0429" style="stop-color:#019474"/>
		<stop  offset="1" style="stop-color:#0C5041"/>
		<stop  offset="1" style="stop-color:#FFF3E9"/>
	</linearGradient>
	<polygon clip-path="url(#SVGID_2_)" fill="url(#SVGID_3_)" points="-4972.381,-2638.561 -1958.531,2913.692 -6553.817,5408.087 
		-9567.667,-144.167 	"/>
</g>
<g>
	<defs>
		<rect id="SVGID_4_" x="-1184.21" y="-3999.989" width="2902.677" height="5612.599"/>
	</defs>
	<clipPath id="SVGID_5_">
		<use xlink:href="#SVGID_4_"  overflow="visible"/>
	</clipPath>
	<path clip-path="url(#SVGID_5_)" fill="#26A084" d="M432.323,1284.747c-5.657-5.665-13.205-8.788-21.259-8.788h-0.015
		c-8.05,0-15.598,3.123-21.262,8.779l-2.568,2.568c-1.849,1.849-1.849,4.843,0,6.69c1.846,1.848,4.846,1.848,6.689,0.005
		l2.569-2.569c3.879-3.877,9.054-6.012,14.581-6.012h0.005c5.521,0,10.697,2.135,14.567,6.012
		c7.747,7.748,7.561,17.793-0.559,29.833l-1.927,2.874l-3.438,4.187c-1.189,1.225-2.226,1.894-2.901,1.894
		c-2.022,0-6.162-4.26-10.169-8.38c-1.215-1.249-2.509-2.578-3.895-3.965l-5.17-5.174l-2.33-2.312l-22.417-22.431
		c-5.669-5.66-13.22-8.779-21.267-8.779h-0.01c-8.059,0.004-15.606,3.127-21.259,8.793c-11.721,11.726-11.721,30.804,0,42.525
		l30.036,30.115c5.869,5.867,13.576,8.797,21.273,8.797c7.701,0,15.394-2.93,21.25-8.788l9.036-8.999
		c1.853-1.844,1.857-4.839,0.014-6.692c-1.839-1.848-4.832-1.857-6.69-0.014l-9.047,9.006c-8.025,8.04-21.1,8.035-29.14,0.005
		l-30.038-30.121c-8.028-8.033-8.038-21.104,0-29.145c3.873-3.881,9.043-6.016,14.564-6.021h0.01c5.52,0,10.699,2.135,14.577,6.012
		l29.915,29.917c1.359,1.349,2.615,2.646,3.799,3.866c6.349,6.523,10.931,11.245,16.943,11.245h0.013
		c3.389,0,6.553-1.552,9.935-5.034l3.965-4.833l2.203-3.243C443.615,1310.676,443.406,1295.827,432.323,1284.747"/>
	<path clip-path="url(#SVGID_5_)" fill="#26A084" d="M373.667,1253.967v17.954c0,2.614,2.121,4.731,4.732,4.731
		c2.609,0,4.729-2.117,4.729-4.731v-17.954c16.685-1.757,29.751-15.922,29.751-33.04c0-0.606-0.042-1.198-0.111-2.167l-0.301-4.428
		l-4.434,0.02c-9.93,0.028-18.829,4.473-24.905,11.431v-13.694c0-2.611-2.12-4.731-4.729-4.731c-2.611,0-4.732,2.12-4.732,4.731
		v13.694c-6.076-6.963-14.975-11.402-24.899-11.431l-4.439,0.36l-0.32,4.398c-0.046,0.602-0.083,1.201-0.083,1.816
		C343.925,1238.045,356.987,1252.21,373.667,1253.967 M403.168,1224.331c-1.423,9.842-8.918,17.761-18.545,19.83
		C386.045,1234.32,393.539,1226.392,403.168,1224.331 M372.175,1244.161c-9.629-2.069-17.118-9.988-18.542-19.826
		C363.262,1226.396,370.75,1234.32,372.175,1244.161"/>
	<path clip-path="url(#SVGID_5_)" fill="#FFFFFF" d="M95.923,1351.086c-2.597,0-4.796,0.887-6.606,2.657
		c-1.802,1.77-2.707,3.919-2.707,6.441c0,2.681,0.887,4.901,2.656,6.676c1.77,1.793,3.969,2.688,6.584,2.688
		c2.643,0,4.874-0.877,6.694-2.633c1.807-1.775,2.708-3.97,2.708-6.588c0-2.6-0.896-4.788-2.694-6.567
		C100.742,1351.978,98.529,1351.086,95.923,1351.086 M99.708,1364.421c-0.947,1.017-2.204,1.524-3.785,1.524
		c-1.57,0-2.827-0.517-3.788-1.542c-0.934-1.018-1.396-2.403-1.396-4.149c0-1.626,0.477-2.953,1.434-3.984
		c0.961-1.025,2.208-1.543,3.751-1.543c1.567,0,2.828,0.518,3.785,1.543c0.946,1.018,1.418,2.374,1.418,4.077
		C101.126,1362.047,100.654,1363.404,99.708,1364.421"/>
	<path clip-path="url(#SVGID_5_)" fill="#FFFFFF" d="M120.411,1361.603c0,2.893-1.136,4.343-3.423,4.343
		c-2.288,0-3.43-1.45-3.43-4.343v-10.03h-4.032v10.122c0,1.599,0.166,2.81,0.499,3.623c0.346,0.905,0.943,1.728,1.773,2.458
		c1.368,1.184,3.096,1.773,5.189,1.773c2.102,0,3.839-0.59,5.202-1.773c0.827-0.73,1.409-1.553,1.741-2.458
		c0.347-1.018,0.519-2.229,0.519-3.623v-10.122h-4.039V1361.603z"/>
	<path clip-path="url(#SVGID_5_)" fill="#FFFFFF" d="M147.615,1351.086c-2.162,0-3.881,0.859-5.146,2.587
		c-1.15-1.728-2.712-2.587-4.686-2.587c-0.887,0-1.621,0.147-2.207,0.454c-0.552,0.285-1.211,0.832-1.991,1.644v-1.611h-4.034
		v17.479h4.034v-9.029c0-1.829,0.263-3.168,0.78-4.021c0.518-0.848,1.35-1.274,2.485-1.274c1.792,0,2.688,1.558,2.688,4.668v9.656
		h4.058v-9.029c0-1.853,0.254-3.195,0.762-4.039c0.509-0.834,1.317-1.256,2.436-1.256c0.95,0,1.644,0.357,2.061,1.063
		c0.407,0.692,0.609,1.877,0.609,3.549v9.712h4.057v-10.803C153.521,1353.469,151.552,1351.086,147.615,1351.086"/>
	<path clip-path="url(#SVGID_5_)" fill="#FFFFFF" d="M176.684,1351.086c-2.168,0-3.883,0.859-5.152,2.587
		c-1.146-1.728-2.707-2.587-4.682-2.587c-0.882,0-1.621,0.147-2.203,0.454c-0.556,0.285-1.22,0.832-1.996,1.644v-1.611h-4.038
		v17.479h4.038v-9.029c0-1.829,0.259-3.168,0.781-4.021c0.522-0.848,1.35-1.274,2.485-1.274c1.797,0,2.694,1.558,2.694,4.668v9.656
		h4.052v-9.029c0-1.853,0.254-3.195,0.762-4.039c0.509-0.834,1.322-1.256,2.431-1.256c0.961,0,1.646,0.357,2.065,1.063
		c0.407,0.692,0.609,1.877,0.609,3.549v9.712h4.053v-10.803C182.583,1353.469,180.619,1351.086,176.684,1351.086"/>
	<path clip-path="url(#SVGID_5_)" fill="#FFFFFF" d="M200.566,1353.6c-1.619-1.673-3.439-2.514-5.473-2.514
		c-2.359,0-4.324,0.873-5.885,2.619c-1.572,1.747-2.352,3.934-2.352,6.549c0,2.669,0.779,4.896,2.352,6.681
		c1.58,1.746,3.575,2.615,5.988,2.615c1.916,0,3.705-0.776,5.369-2.328v1.83h4.056v-17.479h-4.056V1353.6z M199.434,1364.402
		c-0.921,1.026-2.131,1.543-3.627,1.543c-1.396,0-2.561-0.535-3.479-1.599c-0.897-1.055-1.346-2.416-1.346-4.093
		c0-1.563,0.463-2.884,1.381-3.947c0.934-1.054,2.095-1.579,3.479-1.579c1.474,0,2.67,0.521,3.591,1.561
		c0.92,1.068,1.381,2.42,1.381,4.059C200.814,1361.986,200.354,1363.34,199.434,1364.402"/>
	<rect x="209.714" y="1338.739" clip-path="url(#SVGID_5_)" fill="#FFFFFF" width="4.038" height="30.313"/>
	<path clip-path="url(#SVGID_5_)" fill="#FFFFFF" d="M221.984,1364.56c-0.678,0-1.266,0.248-1.757,0.739
		c-0.489,0.489-0.731,1.072-0.731,1.737c0,0.721,0.234,1.319,0.714,1.798c0.481,0.475,1.073,0.715,1.774,0.715
		c0.698,0,1.285-0.24,1.76-0.715c0.496-0.491,0.736-1.087,0.736-1.779c0-0.679-0.24-1.267-0.736-1.756
		C223.256,1364.808,222.67,1364.56,221.984,1364.56"/>
	<path clip-path="url(#SVGID_5_)" fill="#FFFFFF" d="M238.693,1351.086c-2.598,0-4.797,0.887-6.607,2.657
		c-1.803,1.77-2.709,3.919-2.709,6.441c0,2.681,0.888,4.901,2.657,6.676c1.771,1.793,3.968,2.688,6.585,2.688
		c2.641,0,4.874-0.877,6.695-2.633c1.806-1.775,2.705-3.97,2.705-6.588c0-2.6-0.895-4.788-2.692-6.567
		C243.512,1351.978,241.297,1351.086,238.693,1351.086 M242.477,1364.421c-0.947,1.017-2.203,1.524-3.783,1.524
		c-1.572,0-2.83-0.517-3.789-1.542c-0.933-1.018-1.395-2.403-1.395-4.149c0-1.626,0.475-2.953,1.432-3.984
		c0.959-1.025,2.207-1.543,3.752-1.543c1.566,0,2.826,0.518,3.783,1.543c0.947,1.018,1.42,2.374,1.42,4.077
		C243.896,1362.047,243.424,1363.404,242.477,1364.421"/>
	<path clip-path="url(#SVGID_5_)" fill="#FFFFFF" d="M258.302,1351.54c-0.572,0.285-1.23,0.813-1.974,1.593v-1.561h-4.033v17.479
		h4.033v-9.065c0-3.326,1.104-4.984,3.306-4.984c0.727,0,1.478,0.271,2.239,0.827l1.847-3.697c-1.158-0.693-2.272-1.045-3.336-1.045
		C259.588,1351.086,258.888,1351.233,258.302,1351.54"/>
	<path clip-path="url(#SVGID_5_)" fill="#FFFFFF" d="M278.899,1351.572v1.971c-1.461-1.635-3.291-2.457-5.49-2.457
		c-2.514,0-4.533,0.947-6.063,2.837c-1.422,1.784-2.133,3.945-2.133,6.495c0,2.615,0.762,4.802,2.291,6.549
		c1.52,1.724,3.469,2.582,5.851,2.582c2.097,0,3.944-0.817,5.544-2.457v2.439c0,3.627-1.479,5.438-4.433,5.438
		c-1.603,0-2.821-0.546-3.659-1.63c-0.354-0.473-0.613-1.133-0.771-1.997h-4.056c0.24,2.286,1.135,4.075,2.693,5.369
		c1.506,1.256,3.424,1.883,5.761,1.883c2.764,0,4.937-0.912,6.512-2.728c0.836-0.948,1.398-2.076,1.687-3.392
		c0.097-0.477,0.171-1.03,0.222-1.66c0.056-0.628,0.081-1.354,0.081-2.181v-17.062H278.899z M277.826,1364.254
		c-0.901,1.128-2.119,1.691-3.662,1.691c-1.545,0-2.749-0.555-3.627-1.672c-0.8-1.018-1.202-2.319-1.202-3.908
		c0-1.619,0.402-2.93,1.202-3.947c0.887-1.137,2.096-1.71,3.627-1.71c1.436,0,2.614,0.526,3.535,1.563
		c0.909,1.016,1.365,2.374,1.365,4.075C279.064,1361.936,278.647,1363.237,277.826,1364.254"/>
	<path clip-path="url(#SVGID_5_)" fill="#FFFFFF" d="M276.024,1308.005H250.16c-11.001,0-19.951-8.943-19.951-19.95
		c0-11.001,8.95-19.95,19.951-19.95c11.002,0,19.95,8.949,19.95,19.95c0,3.271,2.652,5.915,5.914,5.915
		c3.272,0,5.916-2.644,5.916-5.915c0-17.52-14.255-31.778-31.78-31.778c-17.521,0-31.777,14.259-31.777,31.778
		c0,7.56,2.66,14.494,7.075,19.95h-27.032c-11,0-19.955-8.943-19.955-19.95c0-0.129-0.064-0.23-0.073-0.359
		c-0.759-16.855-14.666-30.338-31.706-30.338c-17.034,0-30.942,13.482-31.705,30.338c-0.008,0.129-0.073,0.23-0.073,0.359
		c0,11.007-8.955,19.95-19.955,19.95h-4.731c-11.002,0-19.955-8.943-19.955-19.95v-71.236c0-3.262-2.644-5.913-5.914-5.913
		c-3.264,0-5.914,2.651-5.914,5.913v71.236c0,17.525,14.259,31.779,31.783,31.779h4.731c10.425,0,19.663-5.063,25.462-12.84
		c5.73,8.395,15.368,13.921,26.271,13.921c10.908,0,20.547-5.526,26.271-13.921c5.799,7.776,15.039,12.84,25.463,12.84h77.599
		c3.272,0,5.916-2.643,5.916-5.914C281.94,1310.657,279.297,1308.005,276.024,1308.005 M146.691,1309.087
		c-11,0-19.95-8.945-19.95-19.951c0-11.001,8.95-19.949,19.95-19.949c11.002,0,19.951,8.948,19.951,19.949
		C166.643,1300.142,157.693,1309.087,146.691,1309.087"/>
	<path clip-path="url(#SVGID_5_)" fill="#FFFFFF" d="M40.396,1210.904c-3.271,0-5.913,2.652-5.913,5.913v71.237
		c0,11.006-8.955,19.951-19.955,19.951H-4.708c-11.001,0-19.95-8.945-19.95-19.951c0-5.867,2.568-11.421,7.059-15.224
		c2.486-2.111,2.797-5.845,0.685-8.334c-2.106-2.491-5.845-2.791-8.335-0.686c-7.144,6.058-11.236,14.893-11.236,24.243
		c0,17.525,14.258,31.779,32.088,31.779h18.926c17.524,0,31.782-14.254,31.782-31.779v-71.237
		C46.31,1213.557,43.658,1210.904,40.396,1210.904"/>
	<path clip-path="url(#SVGID_5_)" fill="#FFFFFF" d="M136.98,1238.086c1.283,0.78,2.726,1.184,4.195,1.184
		c0.637,0,1.283-0.079,1.922-0.232c2.098-0.508,3.877-1.807,4.998-3.654c0.02-0.027,0.028-0.06,0.047-0.092
		c1.248,0.767,2.656,1.279,4.168,1.279c0.633,0,1.275-0.078,1.912-0.23c4.334-1.059,7.004-5.438,5.953-9.772
		c-0.492-2.027-1.738-3.77-3.513-4.897c-1.101-0.711-2.569-0.389-3.267,0.72c-0.702,1.101-0.385,2.56,0.72,3.263
		c0.74,0.473,1.261,1.196,1.465,2.033c0.435,1.797-0.674,3.618-2.476,4.057c-1.797,0.448-3.613-0.675-4.057-2.476
		c-0.31-1.266-1.595-2.048-2.855-1.737c-1.275,0.31-2.053,1.588-1.742,2.854c0.212,0.873,0.07,1.774-0.393,2.541
		c-0.472,0.767-1.207,1.303-2.08,1.516c-0.873,0.212-1.778,0.069-2.541-0.396c-0.767-0.463-1.303-1.202-1.514-2.08
		c-0.205-0.832-0.074-1.709,0.368-2.468c0.656-1.127,0.277-2.577-0.854-3.232c-1.129-0.657-2.578-0.278-3.234,0.854
		c-1.059,1.824-1.373,3.94-0.874,5.966C133.838,1235.185,135.131,1236.964,136.98,1238.086"/>
	<path clip-path="url(#SVGID_5_)" fill="#FFFFFF" d="M521.478,1324.49c-26.979,0-48.93-21.95-48.93-48.93s21.95-48.93,48.93-48.93
		c26.979,0,48.929,21.95,48.929,48.93S548.456,1324.49,521.478,1324.49 M521.478,1232.941c-23.5,0-42.618,19.119-42.618,42.619
		c0,23.499,19.118,42.618,42.618,42.618s42.617-19.119,42.617-42.618C564.095,1252.061,544.978,1232.941,521.478,1232.941"/>
	<path clip-path="url(#SVGID_5_)" fill="#FFFFFF" d="M521.478,1245.109c-13.7,0-25.313,9.096-29.125,21.565h11.72
		c3.242-6.324,9.824-10.664,17.405-10.664c10.779,0,19.551,8.77,19.551,19.55c0,10.781-8.771,19.551-19.551,19.551
		c-7.581,0-14.164-4.341-17.405-10.665h-11.72c3.812,12.469,15.425,21.565,29.125,21.565c16.791,0,30.45-13.66,30.45-30.451
		C551.928,1258.771,538.269,1245.109,521.478,1245.109"/>
</g>
<g>
	<path fill="#FFFFFF" d="M-2925.717-3519.977v-61.214h9.882l9.007,48.884l8.919-48.884h9.969v61.214h-6.559v-51.07l-9.707,51.07
		h-5.772l-9.707-51.07v51.07H-2925.717z"/>
	<path fill="#FFFFFF" d="M-2880.422-3519.977v-61.214h6.821v61.214H-2880.422z"/>
	<path fill="#FFFFFF" d="M-2866.082-3519.977v-61.214h8.745l13.817,43.724v-43.724h6.208v61.214h-7.083l-15.479-49.758v49.758
		H-2866.082z"/>
	<path fill="#FFFFFF" d="M-2829.707-3519.977v-61.214h6.821v61.214H-2829.707z"/>
	<path fill="#FFFFFF" d="M-2817.116-3537.379h6.471v3.936c0,5.421,2.361,8.132,7.083,8.132c4.81,0,7.171-2.711,7.171-8.22
		c0-2.798-0.7-5.247-2.099-7.433c-1.312-2.187-3.76-4.723-7.346-7.696c-4.198-3.41-7.171-6.559-8.833-9.357
		s-2.448-5.946-2.448-9.444c0-9.182,4.984-14.604,13.729-14.604c8.745,0,13.467,5.334,13.467,14.779v2.449h-6.471v-2.886
		c0-5.422-2.361-8.133-6.996-8.133s-6.996,2.624-6.996,7.958c0,2.536,0.7,4.81,2.099,6.908c1.399,2.099,3.935,4.635,7.608,7.608
		c4.198,3.498,7.083,6.646,8.658,9.532c1.661,2.798,2.448,6.034,2.448,9.794c0,9.532-5.072,14.954-13.904,14.954
		c-8.832,0-13.642-5.334-13.642-14.866V-3537.379z"/>
	<path fill="#FFFFFF" d="M-2776.019-3519.977v-55.005h-10.843v-6.209h28.508v6.209h-10.843v55.005H-2776.019z"/>
	<path fill="#FFFFFF" d="M-2753.635-3519.977v-61.214h13.38c9.707,0,13.817,4.373,13.817,13.904v3.76
		c0,6.734-2.361,10.844-7.083,12.331v0.087c4.81,1.224,7.171,5.509,7.171,12.767v10.931c0,3.323,0.262,5.771,0.875,7.433h-6.909
		c-0.524-1.749-0.787-4.197-0.787-7.433v-11.281c0-6.559-2.273-8.92-8.132-8.92h-5.509v27.634H-2753.635z M-2746.813-3553.819h5.509
		c5.509,0,8.045-2.449,8.045-8.395v-4.373c0-5.946-2.011-8.395-7.17-8.395h-6.384V-3553.819z"/>
	<path fill="#FFFFFF" d="M-2711.313-3519.977v-26.847l-12.331-34.367h7.258l8.745,25.535l8.745-25.535h6.733l-12.33,34.367v26.847
		H-2711.313z"/>
	<path fill="#FFFFFF" d="M-2674.851-3534.23v-32.793c0-9.707,4.984-15.042,13.991-15.042c9.095,0,14.079,5.334,14.079,15.042v32.793
		c0,9.707-4.984,15.128-14.079,15.128C-2669.866-3519.102-2674.851-3524.524-2674.851-3534.23z M-2653.601-3533.793v-33.667
		c0-5.597-2.449-8.395-7.259-8.395s-7.17,2.798-7.17,8.395v33.667c0,5.684,2.36,8.482,7.17,8.482
		S-2653.601-3528.109-2653.601-3533.793z"/>
	<path fill="#FFFFFF" d="M-2639.962-3519.977v-61.214h24.311v6.209h-17.489v20.813h14.079v6.209h-14.079v27.983H-2639.962z"/>
	<path fill="#FFFFFF" d="M-2597.466-3519.977v-61.214h13.38c9.182,0,13.816,4.985,13.816,14.866v5.247
		c0,9.882-4.635,14.779-13.816,14.779h-6.559v26.322H-2597.466z M-2590.645-3552.507h6.559c4.897,0,6.996-2.273,6.996-8.22v-6.034
		c0-5.947-2.099-8.22-6.996-8.22h-6.559V-3552.507z"/>
	<path fill="#FFFFFF" d="M-2565.112-3534.23v-46.96h6.821v47.484c0,5.597,2.36,8.395,7.083,8.395s7.083-2.798,7.083-8.395v-47.484
		h6.646v46.96c0,9.794-4.81,15.128-13.817,15.128C-2560.39-3519.102-2565.112-3524.437-2565.112-3534.23z"/>
	<path fill="#FFFFFF" d="M-2530.311-3519.977v-61.214h13.643c9.706,0,13.816,4.373,13.816,13.904v2.536
		c0,6.559-2.273,10.581-6.821,12.243v0.175c5.16,1.487,7.783,5.772,7.783,12.855v5.247c0,9.532-4.723,14.254-14.079,14.254
		H-2530.311z M-2523.489-3555.043h5.771c5.509,0,8.045-2.448,8.045-8.395v-3.148c0-5.946-2.011-8.395-7.171-8.395h-6.646V-3555.043z
		 M-2523.489-3526.186h7.521c4.984,0,7.258-2.361,7.258-8.22v-5.247c0-6.646-2.36-9.182-8.657-9.182h-6.121V-3526.186z"/>
	<path fill="#FFFFFF" d="M-2496.033-3519.977v-61.214h6.821v55.005h17.489v6.209H-2496.033z"/>
	<path fill="#FFFFFF" d="M-2467.003-3519.977v-61.214h6.821v61.214H-2467.003z"/>
	<path fill="#FFFFFF" d="M-2453.362-3533.706v-33.755c0-9.182,4.897-14.604,13.642-14.604c8.745,0,13.643,5.422,13.643,14.604v6.296
		h-6.472v-6.733c0-5.16-2.711-7.958-6.996-7.958s-6.995,2.798-6.995,7.958v34.629c0,5.159,2.71,7.958,6.995,7.958
		s6.996-2.798,6.996-7.958v-8.57h6.472v8.132c0,9.182-4.897,14.604-13.643,14.604
		C-2448.378-3519.102-2453.362-3524.524-2453.362-3533.706z"/>
	<path fill="#FFFFFF" d="M-2406.582-3519.977v-61.214h6.821v26.147h14.517v-26.147h6.82v61.214h-6.82v-28.858h-14.517v28.858
		H-2406.582z"/>
	<path fill="#FFFFFF" d="M-2370.818-3519.977v-61.214h25.098v6.209h-18.276v19.938h14.866v6.209h-14.866v22.649h18.276v6.209
		H-2370.818z"/>
	<path fill="#FFFFFF" d="M-2317.74-3519.977l-2.273-13.03h-14.167l-2.273,13.03h-6.384l11.368-61.214h9.183l11.455,61.214H-2317.74z
		 M-2333.131-3538.953h12.067l-6.121-34.455L-2333.131-3538.953z"/>
	<path fill="#FFFFFF" d="M-2305.938-3519.977v-61.214h6.821v55.005h17.489v6.209H-2305.938z"/>
	<path fill="#FFFFFF" d="M-2276.119-3519.977v-55.005h-10.844v-6.209h28.509v6.209h-10.844v55.005H-2276.119z"/>
	<path fill="#FFFFFF" d="M-2253.647-3519.977v-61.214h6.821v26.147h14.517v-26.147h6.82v61.214h-6.82v-28.858h-14.517v28.858
		H-2253.647z"/>
</g>
<g>
	<path fill="#FFFFFF" d="M-2925.481-3598.148v-75.665h17.619c12.215,0,17.62,5.621,17.62,17.403v4.648
		c0,7.891-2.594,12.863-7.783,14.917v0.216c5.296,1.622,7.891,7.026,7.891,15.998v13.295c0,4.107,0.433,7.134,1.297,9.188h-12.106
		c-0.756-2.162-1.081-5.296-1.081-9.296v-13.836c0-6.918-1.946-9.296-7.458-9.296h-4.107v32.428H-2925.481z M-2913.591-3641.386
		h4.324c4.756,0,7.134-2.27,7.134-7.999v-5.837c0-5.188-2.054-7.783-6.053-7.783h-5.404V-3641.386z"/>
	<path fill="#FFFFFF" d="M-2883-3598.148v-75.665h32.428v10.809h-20.538v19.997h16.322v10.81h-16.322v23.24h20.538v10.81H-2883z"/>
	<path fill="#FFFFFF" d="M-2845.167-3598.148v-75.665h17.511c11.782,0,17.728,6.269,17.728,18.7v7.458
		c0,12.431-5.945,18.7-17.728,18.7h-5.621v30.807H-2845.167z M-2833.276-3639.764h5.621c3.892,0,5.837-1.946,5.837-7.134v-8.972
		c0-5.188-1.945-7.134-5.837-7.134h-5.621V-3639.764z"/>
	<path fill="#FFFFFF" d="M-2804.955-3673.813h11.89v58.586c0,4.864,2.054,7.35,6.053,7.35s6.053-2.486,6.053-7.35v-58.586h11.458
		v57.722c0,12.214-6.161,19.024-17.728,19.024c-11.566,0-17.727-6.81-17.727-19.024V-3673.813z"/>
	<path fill="#FFFFFF" d="M-2762.042-3598.148v-75.665h17.944c12.214,0,17.619,5.621,17.619,17.403v3.026
		c0,7.783-2.594,12.755-7.675,14.809v0.216c5.945,2.054,8.864,7.243,8.864,15.782v6.486c0,11.674-6.27,17.943-18.052,17.943
		H-2762.042z M-2750.151-3643.007h4.648c4.756,0,7.134-2.27,7.134-7.999v-4.216c0-5.188-2.054-7.783-6.053-7.783h-5.729V-3643.007z
		 M-2750.151-3608.958h6.81c4.216,0,6.162-1.945,6.162-7.458v-6.594c0-6.918-2.162-9.188-7.675-9.188h-5.296V-3608.958z"/>
	<path fill="#FFFFFF" d="M-2719.344-3598.148v-75.665h11.891v64.855h19.565v10.81H-2719.344z"/>
	<path fill="#FFFFFF" d="M-2683.24-3598.148v-75.665h11.891v75.665H-2683.24z"/>
	<path fill="#FFFFFF" d="M-2664.324-3656.303c0-11.782,6.161-18.592,17.511-18.592s17.511,6.81,17.511,18.592v7.999h-11.241v-8.755
		c0-4.648-1.945-7.026-5.945-7.026c-3.999,0-5.945,2.378-5.945,7.026v42.264c0,4.648,1.946,6.918,5.945,6.918
		c4,0,5.945-2.27,5.945-6.918v-11.025h11.241v10.161c0,11.782-6.161,18.592-17.511,18.592s-17.511-6.81-17.511-18.592V-3656.303z"/>
	<path fill="#FFFFFF" d="M-2607.791-3655.87c0-12.106,6.377-19.024,18.051-19.024c11.675,0,18.052,6.918,18.052,19.024v39.778
		c0,12.106-6.377,19.024-18.052,19.024c-11.674,0-18.051-6.918-18.051-19.024V-3655.87z M-2583.578-3656.627
		c0-4.972-2.054-7.458-6.162-7.458c-4.107,0-6.161,2.486-6.161,7.458v41.292c0,4.973,2.054,7.458,6.161,7.458
		c4.108,0,6.162-2.486,6.162-7.458V-3656.627z"/>
	<path fill="#FFFFFF" d="M-2564.662-3598.148v-75.665h31.455v10.809h-19.564v21.078h15.349v10.81h-15.349v32.968H-2564.662z"/>
	<path fill="#FFFFFF" d="M-2512.237-3598.148v-75.665h11.891v64.855h19.564v10.81H-2512.237z"/>
	<path fill="#FFFFFF" d="M-2476.025-3598.148v-75.665h32.428v10.809h-20.537v19.997h16.322v10.81h-16.322v23.24h20.537v10.81
		H-2476.025z"/>
	<path fill="#FFFFFF" d="M-2438.3-3598.148v-75.665h17.943c12.215,0,17.619,5.621,17.619,17.403v3.026
		c0,7.783-2.594,12.755-7.674,14.809v0.216c5.944,2.054,8.863,7.243,8.863,15.782v6.486c0,11.674-6.27,17.943-18.052,17.943H-2438.3
		z M-2426.409-3643.007h4.647c4.757,0,7.135-2.27,7.135-7.999v-4.216c0-5.188-2.054-7.783-6.054-7.783h-5.729V-3643.007z
		 M-2426.409-3608.958h6.81c4.216,0,6.161-1.945,6.161-7.458v-6.594c0-6.918-2.161-9.188-7.675-9.188h-5.296V-3608.958z"/>
	<path fill="#FFFFFF" d="M-2370.093-3598.148l-2.054-14.809h-13.728l-2.054,14.809h-11.025l12.322-75.665h16.105l12.323,75.665
		H-2370.093z M-2384.361-3623.226h10.701l-5.404-38.157L-2384.361-3623.226z"/>
	<path fill="#FFFFFF" d="M-2353.555-3598.148v-75.665h14.701l11.998,45.291v-45.291h10.593v75.665h-11.998l-14.7-55.236v55.236
		H-2353.555z"/>
	<path fill="#FFFFFF" d="M-2309.236-3655.87c0-12.106,6.377-19.024,18.051-19.024c11.675,0,18.052,6.918,18.052,19.024v39.778
		c0,12.106-6.377,19.024-18.052,19.024c-11.674,0-18.051-6.918-18.051-19.024V-3655.87z M-2285.023-3656.627
		c0-4.972-2.054-7.458-6.162-7.458c-4.107,0-6.161,2.486-6.161,7.458v41.292c0,4.973,2.054,7.458,6.161,7.458
		c4.108,0,6.162-2.486,6.162-7.458V-3656.627z"/>
	<path fill="#FFFFFF" d="M-2266.106-3598.148v-75.665h14.701l11.998,45.291v-45.291h10.593v75.665h-11.998l-14.7-55.236v55.236
		H-2266.106z"/>
</g>
<g>
	<defs>
		<rect id="SVGID_6_" x="-4133.084" y="-4027.541" width="2902.677" height="5612.599"/>
	</defs>
	<clipPath id="SVGID_7_">
		<use xlink:href="#SVGID_6_"  overflow="visible"/>
	</clipPath>
	<path clip-path="url(#SVGID_7_)" fill="#FFFFFF" d="M-2998.896-3651.024c2.465,0.122,4.955,0.245,7.009,0.346
		c3.108,4.14,7.306,6.019,11.721,7.791c-4.12,1.067-8.24,2.135-12.726,3.296c0.347,2.033,0.674,3.844,0.955,5.662
		c0.083,0.536,0.044,1.092,0.044,1.639c0.005,4.479,0.004,4.479,4.558,4.479c2.63,0,5.279-0.19,7.885,0.06
		c2.133,0.204,4.195,1.059,6.325,1.392c2.102,0.329,3.704,1.384,5.084,2.86c0.651,0.696,1.044,1.641,1.722,2.301
		c1.022,0.995,0.087,1.648-0.449,1.943c-2.49,1.371-5.018,2.702-7.638,3.796c-1.329,0.554-3.235,0.133-4.248,0.942
		c-1.448,1.156-2.848,0.713-4.265,0.767c-1.14,0.043-2.236-0.264-3.398-0.658c-2.086-0.708-4.631-0.755-6.682,0.802
		c-1.594,1.211-2.234,5.505-1.452,7.421c1.158,2.839,3.271,3.775,6.121,3.677c1.368-0.048,2.748-0.101,4.108,0.016
		c1.523,0.132,3.033,0.439,4.544,0.699c1.133,0.193,2.251,0.565,3.387,0.623c2.023,0.103,4.056-0.019,6.081,0.048
		c1.053,0.035,2.31-0.52,3.055,0.824c0.077,0.139,0.517,0.066,0.784,0.111c2.748,0.466,5.528,0.799,8.23,1.451
		c1.904,0.459,3.738,1.274,5.536,2.079c0.973,0.436,1.901,1.089,2.644,1.845c0.232,0.237-0.024,1.489-0.368,1.664
		c-1.621,0.824-3.185,1.582-5.147,1.872c-3.684,0.543-7.405,0.795-11.04,1.393c-3.156,0.52-6.233,0.332-9.339,0.467
		c-1.169,0.051-2.386-0.689-3.537-0.585c-2.908,0.263-5.794,0.747-8.17,2.737c-0.761,0.638-1.649,1.177-2.56,1.573
		c-1.524,0.662-2.083,1.93-1.684,3.292c0.37,1.261,1.366,2.14,3.003,2.161c1.687,0.021,3.37,0.624,5.054,0.619
		c1.459-0.005,3.044-0.231,4.352-0.838c3.463-1.607,7.043-2.259,10.808-1.929c1.029,0.091,2.031,0.478,3.05,0.709
		c1.018,0.231,2.034,0.544,3.067,0.633c3.533,0.303,7.119,0.27,10.592,0.886c1.607,0.286,3,1.776,4.49,2.72
		c-0.008,0.248-0.016,0.496-0.025,0.745c-1.126,0.466-2.257,1.339-3.378,1.328c-4.127-0.042-7.611,1.779-11.223,3.334
		c-1.378,0.594-2.344,1.532-3.297,2.629c-1.523,1.75-3.812,2.137-5.787,3.11c-3.113,1.533-6.23,0.466-9.315,0.808
		c-0.931,0.103-2.068,0.442-2.752-0.786c-0.118-0.211-0.836-0.041-1.254-0.142c-1.457-0.355-2.903-0.752-4.354-1.132
		c-1.11-0.291-2.211-0.621-3.332-0.863c-1.437-0.31-2.893-0.535-4.335-0.829c-0.507-0.103-0.99-0.322-1.494-0.444
		c-0.465-0.112-0.967-0.301-1.413-0.224c-2.542,0.442-5.075,0.939-7.605,1.446c-2.204,0.441-4.41,0.883-6.596,1.407
		c-0.695,0.166-1.328,0.593-2.213,1.005c-0.236,1.823-0.234,3.957-0.827,5.91c-1.008,3.314-0.024,6.735-0.718,9.948
		c-1.166,5.41-0.458,10.813-0.46,16.2c-0.001,1.891,1.455,3.825,2.397,5.663c1.268,2.475,2.687,4.872,4.031,7.309
		c0.389,0.706,0.771,1.419,1.102,2.154c0.289,0.64,0.503,1.316,0.766,2.018c-4.101,1.798-8.259,1.436-12.062,0.84
		c-4.965-0.78-10.019-1.054-14.716-0.24c-5.054,0.877-10.08,1.541-15.026,0.973c-6.802-0.782-13.571-0.245-20.344-0.56
		c-2.887-0.133-4.166-2.539-2.895-5.097c1.38-2.775,2.715-5.58,3.903-8.44c0.496-1.196,0.218-2.806,0.905-3.81
		c1.114-1.628-0.295-3.837,1.482-5.159c0.063-0.048,0.054-0.207,0.059-0.315c0.234-5.178,0.544-10.355,0.656-15.536
		c0.038-1.781-0.395-3.576-0.66-5.358c-0.154-1.036-1.51-1.597-2.448-1.206c-1.143,0.475-2.35,0.8-3.536,1.17
		c-1.427,0.446-2.835,1.067-4.297,1.252c-1.727,0.218-3.503,0.051-5.269-0.197c1.516-0.307,3.057-0.522,4.541-0.94
		c2.618-0.737,5.426-0.783,7.79-2.457c2.708-1.918,2.815-5.89,0.037-7.737c-0.366-0.243-0.925-0.266-1.396-0.272
		c-2.246-0.026-4.493-0.034-6.74-0.007c-4.639,0.055-9.109-3.547-11.055-7.343c-2.418-4.713-2.353-9.602-2.215-14.571
		c0.086-3.103,0.401-6.202,0.688-9.296c0.135-1.463,0.371-2.927,0.696-4.359c0.268-1.182,0.733-2.32,1.113-3.477
		c0.647-1.966,1.218-3.962,1.966-5.889c0.819-2.114,1.761-4.184,2.726-6.237c0.984-2.093,2.02-4.163,3.116-6.2
		c0.458-0.85,1.094-1.613,1.707-2.368c1.205-1.482,2.394-2.984,3.693-4.382c2.246-2.417,4.462-4.881,6.898-7.098
		c1.871-1.701,4.054-3.062,6.113-4.553c0.721-0.522,1.474-1.005,2.235-1.467c1.735-1.052,3.435-2.177,5.24-3.095
		c2.684-1.364,5.417-2.576,8.338-3.471c2.258-0.691,4.547-1.046,6.784-1.635c4.382-1.153,8.756-0.485,13.104-0.452
		c2.078,0.015,4.099,1.576,6.233,2.028c1.884,0.399,3.474,1.194,4.884,2.359c1.591,1.315,3.632,2.064,4.66,4.129
		c0.652,1.309,1.937,2.289,2.742,3.543c0.655,1.021,1.014,2.231,1.514,3.352c0.21,0.472,0.516,0.912,0.655,1.401
		c0.683,2.397,1.279,4.809,1.805,7.251c1.007,4.671,0.336,9.299,0.513,13.935c0.075,1.937-0.211,3.973-0.773,5.831
		c-1.013,3.347-2.525,6.545-3.518,9.897c-1.036,3.501-2.964,6.409-5.137,9.241c-1.537,2.003-3.022,4.053-4.403,6.164
		c-0.61,0.932,0.121,4.994,0.8,5.571c1.2,1.022,4.28,1.058,5.936,0.299c2.663-1.221,4.04-3.641,5.889-5.677
		c2.05-2.259,2.677-5.147,4.171-7.63c1.205-2.002,2.149-4.186,2.991-6.373c0.695-1.806,1.039-3.744,1.598-5.606
		c0.408-1.357,0.936-2.677,1.369-4.027c0.335-1.044,0.684-2.095,0.887-3.17c0.312-1.658,0.412-3.358,0.764-5.005
		c1.263-5.914,0.607-11.897,0.596-17.842c-0.006-3.226-0.895-6.427-2.181-9.438
		C-2997.167-3647.52-2998.121-3649.384-2998.896-3651.024 M-3051.437-3641.174c-1.68-0.222-4.18,1.732-4.449,3.609
		c-0.348,2.431-0.687,4.889-0.694,7.336c-0.007,2.337,0.376,4.682,0.661,7.014c0.279,2.287,0.62,4.569,0.995,6.842
		c0.178,1.084,0.419,2.171,0.771,3.209c0.615,1.814,1.382,3.578,2.003,5.39c0.648,1.89,1.193,3.815,1.796,5.721
		c0.637,2.012,1.304,4.016,1.934,6.032c0.531,1.701,0.991,3.425,1.552,5.116c0.711,2.143,1.659,4.221,2.201,6.402
		c0.644,2.592,1.042,5.253,1.404,7.904c0.339,2.481,0.675,4.986,0.693,7.483c0.062,8.298,0.273,16.605-0.657,24.878
		c-0.03,0.27-0.039,0.546-0.098,0.81c-0.426,1.879-0.856,3.757-1.296,5.633c-0.324,1.378-0.618,2.766-1.008,4.126
		c-0.409,1.426-0.903,2.829-1.385,4.233c-0.656,1.913-1.33,3.818-2.006,5.723c-0.469,1.321-1.097,2.609-1.357,3.968
		c-0.091,0.48,0.753,1.645,1.075,1.611c1.635-0.173,3.499-0.249,4.784-1.106c1.409-0.938,2.706-2.187,3.235-4.238
		c0.727-2.824,2.226-5.452,3.43-8.148c0.203-0.453,0.691-0.784,0.872-1.24c0.893-2.253,1.701-4.539,2.592-6.793
		c0.562-1.421,1.343-2.766,1.794-4.216c0.445-1.427,0.597-2.944,0.877-4.421c0.161-0.018,0.322-0.037,0.483-0.055
		c0.695,2.267,1.845,4.505,1.994,6.808c0.334,5.169,0.278,10.379-0.688,15.512c-0.222,1.174-0.576,2.351-1.059,3.443
		c-0.67,1.511-0.401,2.621,1.062,3.438c2.994,1.673,6.725-0.381,7.023-3.798c0.142-1.633,0.33-3.3,0.808-4.856
		c0.704-2.29,1.4-4.549,1.315-6.976c-0.009-0.265,0.066-0.534,0.11-0.801c0.187-1.132,0.328-2.275,0.581-3.393
		c0.255-1.127,0.868-2.221,0.899-3.342c0.111-4.046,0.227-8.108-0.007-12.144c-0.229-3.956,0.768-7.928-0.779-11.913
		c-0.805-2.074,0.103-4.642-0.753-6.971c-0.535-1.457-0.474-3.126-0.733-4.692c-0.464-2.807-1.107-5.593-1.409-8.417
		c-0.24-2.247-0.66-4.354-1.56-6.462c-0.809-1.894-1.125-4.015-1.524-6.063c-0.533-2.729-1.055-5.471-1.364-8.231
		c-0.364-3.252-0.548-6.528-0.708-9.798c-0.102-2.075-0.132-4.166,0.005-6.236c0.235-3.535-0.388-7.055,0.545-10.636
		c0.77-2.958,0.532-6.172,0.824-9.264c0.128-1.363-0.611-2.24-1.471-3.025c-1.022-0.933-2.946-0.193-3.168,1.157
		c-0.246,1.509-0.497,3.018-0.69,4.533c-0.261,2.057-0.455,4.121-0.7,6.179c-0.323,2.705,0.259,5.372-0.788,8.177
		c-0.99,2.654-0.583,5.816-0.876,8.746c-0.135,1.352-0.323,2.734-0.752,4.014c-0.899,2.684-2.005,5.299-2.969,7.962
		c-0.855,2.361-4.09,3.774-5.698,2.288c-1.164-1.076-2.39-2.362-2.906-3.798c-0.826-2.301-1.174-4.79-1.558-7.226
		c-0.297-1.886,0.008-3.772-0.611-5.73c-0.724-2.288-0.741-4.844-0.791-7.29C-3049.729-3631.914-3049.443-3636.7-3051.437-3641.174
		 M-3069.458-3623.608c-1.448,0.101-2.711-0.171-3.081,0.283c-1.053,1.294-2.227,2.807-2.473,4.372
		c-0.55,3.486-0.744,7.057-0.745,10.592c-0.001,3.536,0.316,7.082,0.68,10.604c0.175,1.683,0.756,3.328,1.201,4.978
		c0.329,1.218,0.764,2.407,1.098,3.624c0.32,1.162,0.511,2.363,0.866,3.513c0.614,1.987,1.356,3.935,1.959,5.925
		c0.348,1.151,0.426,2.386,0.813,3.521c0.388,1.137,1.16,2.152,1.495,3.298c0.783,2.689,1.568,5.397,2.046,8.15
		c0.434,2.502,0.569,5.012,1.626,7.418c0.616,1.401,0.711,3.104,0.738,4.676c0.091,5.355,0.279,10.722-0.668,16.036
		c-0.021,0.108,0.002,0.246-0.057,0.319c-1.498,1.852-1.297,4.284-2.174,6.376c-0.93,2.221-1.536,4.55-3.194,6.409
		c-1.203,1.349-1.759,2.889-1.14,4.682c2.79,0.331,4.754-0.477,5.723-2.293c1.41-2.643,2.913-5.239,4.225-7.929
		c0.799-1.641,1.358-3.406,1.94-5.144c0.377-1.126,0.6-2.303,0.893-3.458c0.197,0.035,0.395,0.07,0.592,0.105
		c-0.314,3.341-0.601,6.685-0.962,10.021c-0.1,0.918-0.431,1.811-0.642,2.718c-0.274,1.172-0.19,2.641-0.883,3.449
		c-0.966,1.126-0.729,2.088-0.595,3.349c1.128,0,2.168-0.077,3.191,0.017c1.894,0.174,3.103-0.626,3.65-2.4
		c0.337-1.097,0.475-2.26,0.862-3.336c0.633-1.759,1.587-3.422,2.052-5.217c0.474-1.833,0.526-3.776,0.757-5.671
		c0.033-0.271,0.01-0.549,0.058-0.816c0.443-2.477,1.306-4.956,1.273-7.424c-0.115-8.679,0.757-17.384-0.613-26.038
		c-0.375-2.365-0.497-4.769-0.738-7.155c-0.01-0.108-0.036-0.215-0.068-0.318c-0.515-1.645-1.163-3.261-1.512-4.94
		c-0.387-1.859-0.5-3.774-0.733-5.664c-0.027-0.216-0.033-0.438-0.09-0.646c-0.654-2.353-1.527-4.669-1.911-7.065
		c-0.343-2.131-0.721-4.154-1.59-6.178c-0.855-1.991-1.135-4.241-1.563-6.398c-0.329-1.66-0.41-3.37-0.762-5.024
		c-0.287-1.35-0.86-2.637-1.218-3.976c-0.41-1.533-0.709-3.096-1.081-4.64c-0.257-1.063-0.43-2.176-0.892-3.146
		c-0.208-0.434-1.309-0.947-1.53-0.783c-0.839,0.62-1.887,1.411-2.089,2.31c-0.201,0.901,0.611,1.988,0.805,3.027
		c0.311,1.661,0.463,3.351,0.708,5.025c0.477,3.249,0.981,6.493,1.455,9.743c0.259,1.782,0.549,3.563,0.702,5.354
		c0.286,3.371,0.564,6.746,0.671,10.125c0.035,1.108-0.301,2.312-0.769,3.334c-0.813,1.774-2.524,1.918-4.328,1.325
		c-2.945-0.969-2.662-3.786-3.481-5.777c-0.786-1.909-0.37-4.275-0.691-6.466c-0.675-4.623-0.631-9.355-0.817-14.045
		c-0.078-1.966-0.106-3.947,0.053-5.905C-3070.241-3618.937-3069.825-3621.073-3069.458-3623.608 M-3046.937-3620.302
		c0.198,1.014-0.5,2.691,0.757,4.3c0.889,1.139,0.985,2.864,1.697,4.187c0.299,0.553,1.281,1.035,1.942,1.022
		c0.798-0.016,2.022-0.384,2.296-0.962c0.955-2.019,1.962-4.144,2.246-6.32c0.479-3.667,0.175-7.384-1.379-10.846
		c-0.992-2.21-2.901-2.551-4.539-0.779C-3046.192-3627.238-3047.254-3624.29-3046.937-3620.302 M-3068.323-3595.895
		c0.279,2.015,0.268,3.887,0.867,5.539c0.372,1.027,0.622,2.649,2.518,2.629c2.548-0.027,4.417-1.983,4.02-4.535
		c-0.117-0.758-0.387-1.507-0.687-2.218c-0.528-1.253-1.032-2.535-1.732-3.693c-0.722-1.192-2.158-1.046-3.081-0.654
		C-3067.604-3598.323-3068.693-3597.313-3068.323-3595.895"/>
	<path clip-path="url(#SVGID_7_)" fill="#FFFFFF" d="M-2991.644-3664.77c-0.779,1.206-1.58,1.822-2.725,2.128
		c-2.202,0.591-4.377,1.287-6.577,1.889c-1.271,0.347-2.686,0.365-3.83,0.94c-1.873,0.941-3.171-0.33-4.563-0.929
		c-2.25-0.969-4.301-2.394-6.545-3.38c-1.646-0.723-3.462-1.068-5.211-1.552c-3.025-0.837-6.226-0.957-9.195-1.688
		c-2.432-0.599-4.767-0.746-7.093-0.605c-3.061,0.186-6.085,0.969-9.127,1.483c-1.662,0.281-3.335,0.507-4.992,0.816
		c-1.027,0.19-2.044,0.454-3.048,0.746c-1.437,0.417-2.89,0.809-4.273,1.367c-0.906,0.367-1.701,1.008-2.576,1.544
		c-0.468-2.23-2.257-3.669-4.45-3.668c-2.356,0-4.861-0.503-7.029,0.136c-2.832,0.834-5.586,0.29-8.356,0.553
		c-0.321,0.031-0.65-0.023-1.016-0.039c2.112-3.058,5.167-4.848,8.37-6.272c2.038-0.906,4.373-1.122,6.527-1.798
		c2.752-0.863,5.535-1.32,8.421-1.369c0.963-0.017,1.959-0.415,2.849-0.833c0.236-0.11,0.347-1.057,0.148-1.418
		c-0.724-1.315-1.633-2.528-2.408-3.817c-0.236-0.393-0.263-0.91-0.488-1.755c-1.303,0.269-2.621,0.542-3.939,0.813
		c-0.159,0.033-0.322,0.089-0.48,0.081c-2.292-0.124-4.264,1.014-6.385,1.574c-1.45,0.383-2.961,0.534-4.584,0.814
		c0.024-0.509-0.086-0.943,0.073-1.095c1.846-1.769,3.394-3.88,6.016-4.733c0.98-0.319,1.736-1.264,2.672-1.785
		c2.627-1.463,5.338-2.779,7.931-4.297c2.152-1.26,4.137-2.803,6.283-4.073c1.549-0.917,3.262-1.551,4.861-2.388
		c1.116-0.583,2.156-1.308,3.243-1.947c2.286-1.343,4.761-0.834,6.559,1.066c2.698,2.85,5.531,5.573,8.292,8.364
		c0.704,0.71,1.279,1.566,2.047,2.191c1.774,1.446,3.576,2.872,5.479,4.138c0.791,0.527,1.852,0.695,2.816,0.908
		c2.3,0.51,4.63,0.892,6.917,1.452c0.698,0.171,1.296,0.752,1.939,1.145c-0.203,0.332-0.355,0.901-0.617,0.957
		c-2.463,0.529-5.01,0.761-7.404,1.497c-2.392,0.735-4.654,1.912-6.939,2.97c-1.125,0.521-0.971,1.015,0.046,1.709
		c1.981,1.353,3.905,2.406,6.493,2.28c2.367-0.115,4.794,0.248,7.139,0.691c1.512,0.286,2.909,1.139,4.385,1.663
		c1.44,0.51,2.902,0.971,4.376,1.372c2.609,0.711,5.23,1.376,7.855,2.02C-2993.238-3664.776-2992.676-3664.828-2991.644-3664.77"/>
	<path clip-path="url(#SVGID_7_)" fill="#FFFFFF" d="M-3100.9-3569.358c-0.825,0.042-1.254,0.126-1.667,0.075
		c-1.577-0.197-3.147-0.606-4.724-0.631c-5.199-0.082-10.406,0.112-15.597-0.098c-2.178-0.089-4.314-0.986-6.49-1.4
		c-2.561-0.488-5.151-1.486-7.721-0.077c-0.447,0.245-0.717,0.794-1.132,1.124c-0.255,0.203-0.679,0.414-0.936,0.333
		c-0.242-0.076-0.51-0.528-0.517-0.82c-0.046-1.858-0.37-3.81,0.096-5.544c0.323-1.2,1.597-2.393,2.752-3.059
		c1.407-0.811,3.119-1.399,4.728-1.473c1.802-0.084,3.757,0.211,5.431,0.878c4.201,1.674,8.179,1.752,12.212-0.464
		c2.364-1.299,4.842-2.407,7.325-3.471c1.528-0.656,2.798,0.369,3.184,2.029c0.554,2.379,1.385,4.692,1.981,7.062
		C-3101.532-3573.129-3101.273-3571.318-3100.9-3569.358"/>
	<path clip-path="url(#SVGID_7_)" fill="#FFFFFF" d="M-3099.062-3618.744c-0.518,0.926-0.872,1.546-1.212,2.174
		c-0.075,0.139-0.114,0.302-0.146,0.458c-0.241,1.175-0.436,2.361-0.721,3.524c-0.474,1.933-0.965,3.863-1.53,5.77
		c-0.275,0.927-2.419,1.372-3.802,1.006c-1.16-0.306-2.373-0.65-3.549-0.609c-3.433,0.121-6.892,0.234-10.271,0.779
		c-1.004,0.162-2.354,1.362-3.121,0.701c-1.316-1.133-2.73-0.606-4.551-1.034c0.698-0.89,1.158-1.72,1.835-2.294
		c2.533-2.146,5.38-3.801,8.279-5.432c2.375-1.335,4.844-2.207,7.41-2.897c2.116-0.57,4.339-0.772,6.415-1.444
		c1.185-0.384,2.235-1.134,3.571-0.876C-3100.194-3618.867-3099.929-3618.85-3099.062-3618.744"/>
	<path clip-path="url(#SVGID_7_)" fill="#FFFFFF" d="M-3069.36-3657.853c-1.195,1.006-2.342,1.954-3.468,2.924
		c-2.062,1.775-4.101,3.577-6.18,5.332c-0.254,0.215-0.693,0.295-1.046,0.296c-7.336,0.016-14.672,0.013-22.008,0.002
		c-0.302-0.001-0.604-0.127-0.993-0.215c1.095-2.487,2.805-4.262,5.116-5.373c1.106-0.532,2.364-0.818,3.585-1.026
		c1.931-0.329,3.899-0.436,5.832-0.754c2.112-0.349,4.2-0.838,6.303-1.246c0.425-0.083,0.87-0.052,1.3-0.115
		c1.098-0.16,2.436,0.55,3.196-0.861c2.173,0.223,4.454-0.868,6.54,0.611C-3070.745-3657.966-3070.059-3658.002-3069.36-3657.853"/>
	<path clip-path="url(#SVGID_7_)" fill="#FFFFFF" d="M-3104.935-3590.057c-2.435,0-4.763,0.412-6.879-0.081
		c-5.241-1.22-10.5-0.243-15.732-0.61c-0.204-0.014-0.407-0.052-0.533-0.069c0.028-3.133,2.843-3.238,4.683-4.115
		c2.956-1.41,6.122-2.202,9.463-2.655c2.361-0.321,4.691-0.445,7.04-0.515c2.521-0.077,3.558,1.298,2.861,3.707
		c-0.194,0.669-0.724,1.25-0.868,1.921C-3105.054-3591.757-3104.935-3590.982-3104.935-3590.057"/>
	<path clip-path="url(#SVGID_7_)" fill="#FFFFFF" d="M-3092.596-3632.526c-6.266,0.55-8.785,0.165-10.401-1.731
		c0.81-0.5,1.54-1.183,2.396-1.435c2.337-0.686,4.73-1.18,7.095-1.772c0.955-0.24,1.888-0.578,2.849-0.787
		c0.37-0.08,1.015-0.055,1.135,0.152c0.171,0.298,0.116,0.895-0.085,1.21C-3090.546-3635.422-3091.569-3634.009-3092.596-3632.526"
		/>
</g>
<g>
	<defs>
		<path id="SVGID_8_" d="M-4031.857-3769.549c0,76.61,62.106,138.716,138.717,138.716c76.613,0,138.718-62.106,138.718-138.716
			c0-76.613-62.105-138.719-138.718-138.719C-3969.751-3908.269-4031.857-3846.163-4031.857-3769.549"/>
	</defs>
	<clipPath id="SVGID_9_">
		<use xlink:href="#SVGID_8_"  overflow="visible"/>
	</clipPath>
	
		<linearGradient id="SVGID_10_" gradientUnits="userSpaceOnUse" x1="-4133.084" y1="1585.0586" x2="-4132.084" y2="1585.0586" gradientTransform="matrix(240.7951 137.8912 137.8912 -240.7951 772647 947751.6875)">
		<stop  offset="0" style="stop-color:#146BCA"/>
		<stop  offset="1" style="stop-color:#273E7C"/>
	</linearGradient>
	<polygon clip-path="url(#SVGID_9_)" fill="url(#SVGID_10_)" points="-3963.345,-4027.908 -3634.782,-3839.756 -3822.934,-3511.193 
		-4151.497,-3699.345 	"/>
</g>
<g>
	<defs>
		<rect id="SVGID_11_" x="-4133.084" y="-4027.541" width="2902.677" height="5612.599"/>
	</defs>
	<clipPath id="SVGID_12_">
		<use xlink:href="#SVGID_11_"  overflow="visible"/>
	</clipPath>
	<polygon clip-path="url(#SVGID_12_)" fill="#FFFFFF" points="-3919.129,-3833.105 -3864.862,-3833.105 -3864.862,-3815.016 
		-3899.229,-3815.016 -3899.229,-3781.555 -3871.908,-3781.555 -3871.908,-3763.444 -3899.229,-3763.444 -3899.229,-3724.55 
		-3864.862,-3724.55 -3864.862,-3706.461 -3919.129,-3706.461 	"/>
</g>
<g>
	<defs>
		<path id="SVGID_13_" d="M212.891,17.857c-69.619,0-126.056,56.436-126.056,126.055s56.437,126.057,126.056,126.057h795.35
			c69.618,0,126.056-56.438,126.056-126.057S1077.858,17.857,1008.24,17.857H212.891z"/>
	</defs>
	<clipPath id="SVGID_14_">
		<use xlink:href="#SVGID_13_"  overflow="visible"/>
	</clipPath>
	
		<linearGradient id="SVGID_15_" gradientUnits="userSpaceOnUse" x1="-4132.0103" y1="1589.8291" x2="-4131.0093" y2="1589.8291" gradientTransform="matrix(0 555.9059 555.9059 0 -883184.4375 2296978.25)">
		<stop  offset="0" style="stop-color:#FFFFFF"/>
		<stop  offset="1" style="stop-color:#000000"/>
	</linearGradient>
	<rect x="86.835" y="17.857" clip-path="url(#SVGID_14_)" fill="url(#SVGID_15_)" width="1047.46" height="252.111"/>
</g>
<g>
	<defs>
		<path id="SVGID_16_" d="M945.619-327.076h-611.84H150.271c-69.618,0-126.057,56.436-126.057,126.055S80.652-74.965,150.271-74.965
			h183.509h611.84h183.508c69.619,0,126.057-56.438,126.057-126.057s-56.438-126.055-126.057-126.055H945.619z"/>
	</defs>
	<clipPath id="SVGID_17_">
		<use xlink:href="#SVGID_16_"  overflow="visible"/>
	</clipPath>
	
		<linearGradient id="SVGID_18_" gradientUnits="userSpaceOnUse" x1="-4132.7754" y1="1589.7959" x2="-4131.7754" y2="1589.7959" gradientTransform="matrix(0 817.2244 817.2244 0 -1298579.75 3376942.75)">
		<stop  offset="0" style="stop-color:#FFFFFF"/>
		<stop  offset="1" style="stop-color:#000000"/>
	</linearGradient>
	<rect x="24.214" y="-327.076" clip-path="url(#SVGID_17_)" fill="url(#SVGID_18_)" width="1230.97" height="252.111"/>
</g>
<g>
	<defs>
		<path id="SVGID_19_" d="M554.901,126.278v46.276c0,11.629-5.571,17.201-16.838,17.201v11.629c20.836,0,30.407-9.085,30.407-30.891
			v-44.216H554.901z"/>
	</defs>
	<clipPath id="SVGID_20_">
		<use xlink:href="#SVGID_19_"  overflow="visible"/>
	</clipPath>
	
		<linearGradient id="SVGID_21_" gradientUnits="userSpaceOnUse" x1="-4132.8013" y1="1585.3496" x2="-4131.8428" y2="1585.3496" gradientTransform="matrix(3339.9001 6152.9175 6152.9175 -3339.9001 4047092 30720050)">
		<stop  offset="0" style="stop-color:#009776"/>
		<stop  offset="1" style="stop-color:#0C5041"/>
		<stop  offset="1" style="stop-color:#FFF3E9"/>
	</linearGradient>
	<polygon clip-path="url(#SVGID_20_)" fill="url(#SVGID_21_)" points="561.551,113.53 599.961,184.292 544.983,214.135 
		506.573,143.373 	"/>
</g>
<g>
	<defs>
		<path id="SVGID_22_" d="M580.947,103.142v56.086c0,6.663,1.575,11.872,4.845,15.749c3.514,4.239,8.479,6.3,15.022,6.3h15.869
			v-13.81h-7.995c-5.088,0-8.601-0.729-10.418-2.06c-2.544-1.818-3.877-5.693-3.877-11.631v-50.635H580.947z"/>
	</defs>
	<clipPath id="SVGID_23_">
		<use xlink:href="#SVGID_22_"  overflow="visible"/>
	</clipPath>
	
		<linearGradient id="SVGID_24_" gradientUnits="userSpaceOnUse" x1="-4132.8281" y1="1585.3506" x2="-4131.8281" y2="1585.3506" gradientTransform="matrix(3339.9001 6152.9175 6152.9175 -3339.9001 4047132 30720030)">
		<stop  offset="0" style="stop-color:#009776"/>
		<stop  offset="1" style="stop-color:#0C5041"/>
		<stop  offset="1" style="stop-color:#FFF3E9"/>
	</linearGradient>
	<polygon clip-path="url(#SVGID_23_)" fill="url(#SVGID_24_)" points="608.551,88.158 649.443,163.494 589.08,196.261 
		548.187,120.925 	"/>
</g>
<g>
	<defs>
		<path id="SVGID_25_" d="M611.473,207.806h13.325v-13.568h-13.325V207.806z M634.367,207.806h13.325v-13.568h-13.325V207.806z
			 M634.731,126.278v27.861c0,4.24-0.484,7.39-1.454,9.207c-1.453,2.786-4.24,4.12-8.236,4.12h-12.963v13.81h55.847v-13.81h-22.775
			c2.061-2.303,3.028-6.906,3.028-14.053v-27.136H634.731z"/>
	</defs>
	<clipPath id="SVGID_26_">
		<use xlink:href="#SVGID_25_"  overflow="visible"/>
	</clipPath>
	
		<linearGradient id="SVGID_27_" gradientUnits="userSpaceOnUse" x1="-4132.8516" y1="1585.3516" x2="-4131.8159" y2="1585.3516" gradientTransform="matrix(3339.9001 6152.9175 6152.9175 -3339.9001 4047148 30720020)">
		<stop  offset="0" style="stop-color:#009776"/>
		<stop  offset="1" style="stop-color:#0C5041"/>
		<stop  offset="1" style="stop-color:#FFF3E9"/>
	</linearGradient>
	<polygon clip-path="url(#SVGID_26_)" fill="url(#SVGID_27_)" points="655.076,102.609 702.106,189.251 624.32,231.475 
		577.29,144.834 	"/>
</g>
<g>
	<defs>
		<path id="SVGID_28_" d="M692.758,141.3c6.178-3.271,12.477-4.968,18.654-4.968c6.179,0,12.114,1.575,17.565,4.847
			c-1.696,2.544-3.997,5.21-6.782,7.996c-3.15,3.026-6.058,5.33-8.845,6.661C707.295,148.81,700.39,143.966,692.758,141.3
			 M678.22,134.516v12.841c4.481,1.09,9.329,3.271,14.296,6.541c4.966,3.151,8.479,6.18,10.297,8.964
			c-2.908,1.94-5.814,3.15-8.722,3.756c-2.302,0.607-5.452,0.85-9.449,0.85h-20.11v13.81h20.353c9.086,0,17.929-2.908,26.772-8.722
			c2.059,2.301,4.603,4.238,7.752,5.813c3.756,1.938,7.39,2.908,10.78,2.908h25.804v-13.81h-22.774c-2.907,0-4.724-0.121-5.33-0.242
			c-1.575-0.365-3.149-1.334-4.845-3.03c4.359-3.028,8.964-7.511,13.93-13.567c4.604-5.693,7.511-10.176,8.602-13.446
			c-9.691-8.358-21.199-12.599-34.524-12.599C699.783,124.582,688.761,127.854,678.22,134.516"/>
	</defs>
	<clipPath id="SVGID_29_">
		<use xlink:href="#SVGID_28_"  overflow="visible"/>
	</clipPath>
	
		<linearGradient id="SVGID_30_" gradientUnits="userSpaceOnUse" x1="-4132.8286" y1="1585.3516" x2="-4131.8286" y2="1585.3516" gradientTransform="matrix(3339.9001 6152.9175 6152.9175 -3339.9001 4047212 30719986)">
		<stop  offset="0" style="stop-color:#009776"/>
		<stop  offset="1" style="stop-color:#0C5041"/>
		<stop  offset="1" style="stop-color:#FFF3E9"/>
	</linearGradient>
	<polygon clip-path="url(#SVGID_29_)" fill="url(#SVGID_30_)" points="735.177,86.234 779.763,168.373 685.347,219.624 
		640.761,137.485 	"/>
</g>
<g>
	<defs>
		<path id="SVGID_31_" d="M773.192,103.142v51.604c0,4.36-0.362,7.27-0.969,8.722c-1.332,2.665-4.118,3.999-8.6,3.999h-11.509v13.81
			h14.295c13.566,0,20.351-7.27,20.351-21.926v-56.209H773.192z"/>
	</defs>
	<clipPath id="SVGID_32_">
		<use xlink:href="#SVGID_31_"  overflow="visible"/>
	</clipPath>
	
		<linearGradient id="SVGID_33_" gradientUnits="userSpaceOnUse" x1="-4132.8281" y1="1585.3496" x2="-4131.8281" y2="1585.3496" gradientTransform="matrix(3339.9001 6152.9175 6152.9175 -3339.9001 4047268 30719956)">
		<stop  offset="0" style="stop-color:#009776"/>
		<stop  offset="1" style="stop-color:#0C5041"/>
		<stop  offset="1" style="stop-color:#FFF3E9"/>
	</linearGradient>
	<polygon clip-path="url(#SVGID_32_)" fill="url(#SVGID_33_)" points="778.876,88.616 819.521,163.494 760,195.803 719.355,120.926 
			"/>
</g>
<g>
	<defs>
		<rect id="SVGID_34_" x="799.238" y="103.021" width="13.447" height="78.256"/>
	</defs>
	<clipPath id="SVGID_35_">
		<use xlink:href="#SVGID_34_"  overflow="visible"/>
	</clipPath>
	
		<linearGradient id="SVGID_36_" gradientUnits="userSpaceOnUse" x1="-4132.8286" y1="1585.3496" x2="-4131.8286" y2="1585.3496" gradientTransform="matrix(3339.9001 6152.9175 6152.9175 -3339.9001 4047300 30719940)">
		<stop  offset="0" style="stop-color:#009776"/>
		<stop  offset="1" style="stop-color:#0C5041"/>
		<stop  offset="1" style="stop-color:#FFF3E9"/>
	</linearGradient>
	<polygon clip-path="url(#SVGID_35_)" fill="url(#SVGID_36_)" points="809.625,97.383 845.496,163.467 802.298,186.916 
		766.426,120.831 	"/>
</g>
<g>
	<defs>
		<polygon id="SVGID_37_" points="404.569,133.262 458.814,187.507 513.059,133.262 		"/>
	</defs>
	<clipPath id="SVGID_38_">
		<use xlink:href="#SVGID_37_"  overflow="visible"/>
	</clipPath>
	
		<linearGradient id="SVGID_39_" gradientUnits="userSpaceOnUse" x1="-4132.8286" y1="1585.3486" x2="-4131.8286" y2="1585.3486" gradientTransform="matrix(3339.9001 6152.9175 6152.9175 -3339.9001 4047028 30720084)">
		<stop  offset="0" style="stop-color:#009776"/>
		<stop  offset="1" style="stop-color:#0C5041"/>
		<stop  offset="1" style="stop-color:#FFF3E9"/>
	</linearGradient>
	<polygon clip-path="url(#SVGID_38_)" fill="url(#SVGID_39_)" points="488.367,87.775 535.803,175.162 429.261,232.994 
		381.826,145.607 	"/>
</g>
<g>
	<defs>
		<path id="SVGID_40_" d="M580.814-224.042v55.239c0,17.082-10.177,30.044-24.471,30.044c-14.779,0-24.712-13.326-24.712-30.044
			V-179.1h-13.689v11.873c0,22.773,17.323,41.429,38.401,41.429c13.326,0,25.802-7.511,32.708-20.109h25.196v-13.809h-20.471
			c0.483-2.544,0.726-4.968,0.726-7.511v-56.815H580.814z"/>
	</defs>
	<clipPath id="SVGID_41_">
		<use xlink:href="#SVGID_40_"  overflow="visible"/>
	</clipPath>
	
		<linearGradient id="SVGID_42_" gradientUnits="userSpaceOnUse" x1="-4132.7886" y1="1585.5264" x2="-4131.7886" y2="1585.5264" gradientTransform="matrix(3339.9001 6152.9175 6152.9175 -3339.9001 4046156 30720558)">
		<stop  offset="0" style="stop-color:#009776"/>
		<stop  offset="1" style="stop-color:#0C5041"/>
		<stop  offset="1" style="stop-color:#FFF3E9"/>
	</linearGradient>
	<polygon clip-path="url(#SVGID_41_)" fill="url(#SVGID_42_)" points="592.33,-264.42 655.439,-148.156 539.861,-85.418 
		476.751,-201.682 	"/>
</g>
<g>
	<defs>
		<path id="SVGID_43_" d="M643.684-224.042l-23.863,35.856h27.982c8.844,0,15.869,3.028,20.956,9.207
			c4.36,5.33,6.543,11.752,6.543,19.263h-66.506v13.809h95.458v-13.809h-14.536c-1.091-16.84-7.147-28.59-18.172-35.374
			c-6.421-3.876-13.81-5.814-22.169-5.814h-5.936l16.354-23.138H643.684z"/>
	</defs>
	<clipPath id="SVGID_44_">
		<use xlink:href="#SVGID_43_"  overflow="visible"/>
	</clipPath>
	
		<linearGradient id="SVGID_45_" gradientUnits="userSpaceOnUse" x1="-4132.7886" y1="1585.5293" x2="-4131.7886" y2="1585.5293" gradientTransform="matrix(3339.9001 6152.9175 6152.9175 -3339.9001 4046220 30720526)">
		<stop  offset="0" style="stop-color:#009776"/>
		<stop  offset="1" style="stop-color:#0C5041"/>
		<stop  offset="1" style="stop-color:#FFF3E9"/>
	</linearGradient>
	<polygon clip-path="url(#SVGID_44_)" fill="url(#SVGID_45_)" points="682.528,-264.064 737.014,-163.688 630.521,-105.883 
		576.035,-206.259 	"/>
</g>
<g>
	<defs>
		<path id="SVGID_46_" d="M791.352-200.904v27.863c0,8.843-3.392,13.325-10.297,13.325h-13.204c1.817-1.938,2.787-6.906,2.787-14.78
			v-26.408h-13.688v27.74c0,8.966-3.393,13.448-10.297,13.448h-12.599v-0.729c1.454-2.302,2.18-6.903,2.18-14.052v-26.408h-13.688
			v26.893c0,9.57-3.394,14.296-10.298,14.296h-12.356v13.809h122.836v-13.809h-20.716c2.061-4.363,3.029-9.329,3.029-15.023v-26.165
			H791.352z M745.562-212.049h13.204v-13.446h-13.204V-212.049z M768.457-212.049h13.205v-13.446h-13.205V-212.049z M757.07-231.068
			h13.324v-13.566H757.07V-231.068z"/>
	</defs>
	<clipPath id="SVGID_47_">
		<use xlink:href="#SVGID_46_"  overflow="visible"/>
	</clipPath>
	
		<linearGradient id="SVGID_48_" gradientUnits="userSpaceOnUse" x1="-4132.7886" y1="1585.5293" x2="-4131.7886" y2="1585.5293" gradientTransform="matrix(3339.9001 6152.9175 6152.9175 -3339.9001 4046300 30720480)">
		<stop  offset="0" style="stop-color:#009776"/>
		<stop  offset="1" style="stop-color:#0C5041"/>
		<stop  offset="1" style="stop-color:#FFF3E9"/>
	</linearGradient>
	<polygon clip-path="url(#SVGID_47_)" fill="url(#SVGID_48_)" points="794.771,-296.137 864.122,-168.376 727.848,-94.404 
		658.498,-222.165 	"/>
</g>
<g>
	<defs>
		<path id="SVGID_49_" d="M839.686-224.042v51.606c0,4.359-0.363,7.269-0.968,8.721c-1.334,2.665-4.12,3.999-8.601,3.999h-11.51
			v13.809h14.297c13.566,0,20.351-7.269,20.351-21.925v-56.21H839.686z"/>
	</defs>
	<clipPath id="SVGID_50_">
		<use xlink:href="#SVGID_49_"  overflow="visible"/>
	</clipPath>
	
		<linearGradient id="SVGID_51_" gradientUnits="userSpaceOnUse" x1="-4132.7886" y1="1585.5273" x2="-4131.7886" y2="1585.5273" gradientTransform="matrix(3339.9001 6152.9175 6152.9175 -3339.9001 4046372 30720442)">
		<stop  offset="0" style="stop-color:#009776"/>
		<stop  offset="1" style="stop-color:#0C5041"/>
		<stop  offset="1" style="stop-color:#FFF3E9"/>
	</linearGradient>
	<polygon clip-path="url(#SVGID_50_)" fill="url(#SVGID_51_)" points="845.369,-238.568 886.015,-163.689 826.493,-131.38 
		785.848,-206.259 	"/>
</g>
<g>
	<defs>
		<rect id="SVGID_52_" x="865.73" y="-224.163" width="13.448" height="78.256"/>
	</defs>
	<clipPath id="SVGID_53_">
		<use xlink:href="#SVGID_52_"  overflow="visible"/>
	</clipPath>
	
		<linearGradient id="SVGID_54_" gradientUnits="userSpaceOnUse" x1="-4132.7886" y1="1585.5273" x2="-4131.7886" y2="1585.5273" gradientTransform="matrix(3339.9001 6152.9175 6152.9175 -3339.9001 4046396 30720428)">
		<stop  offset="0" style="stop-color:#009776"/>
		<stop  offset="1" style="stop-color:#0C5041"/>
		<stop  offset="1" style="stop-color:#FFF3E9"/>
	</linearGradient>
	<polygon clip-path="url(#SVGID_53_)" fill="url(#SVGID_54_)" points="876.118,-229.801 911.99,-163.717 868.791,-140.268 
		832.92,-206.353 	"/>
</g>
<g>
	<defs>
		<polygon id="SVGID_55_" points="396.343,-211.672 450.588,-157.427 504.832,-211.672 		"/>
	</defs>
	<clipPath id="SVGID_56_">
		<use xlink:href="#SVGID_55_"  overflow="visible"/>
	</clipPath>
	
		<linearGradient id="SVGID_57_" gradientUnits="userSpaceOnUse" x1="-4132.7886" y1="1585.5254" x2="-4131.7886" y2="1585.5254" gradientTransform="matrix(3339.9001 6152.9175 6152.9175 -3339.9001 4046084 30720598)">
		<stop  offset="0" style="stop-color:#009776"/>
		<stop  offset="1" style="stop-color:#0C5041"/>
		<stop  offset="1" style="stop-color:#FFF3E9"/>
	</linearGradient>
	<polygon clip-path="url(#SVGID_56_)" fill="url(#SVGID_57_)" points="480.141,-257.158 527.575,-169.772 421.033,-111.939 
		373.6,-199.326 	"/>
</g>
<g>
	<defs>
		<rect id="SVGID_58_" x="-1029.539" y="-4169.86" width="2902.677" height="5612.599"/>
	</defs>
	<clipPath id="SVGID_59_">
		<use xlink:href="#SVGID_58_"  overflow="visible"/>
	</clipPath>
	<polygon clip-path="url(#SVGID_59_)" fill="#FFFFFF" points="-230.42,-1726.855 -230.42,-2176.55 -157.828,-2176.55 
		-91.652,-1817.443 -26.137,-2176.55 47.09,-2176.55 47.09,-1726.855 -1.076,-1726.855 -1.076,-2102.029 -72.4,-1726.855 
		-114.785,-1726.855 -186.107,-2102.029 -186.107,-1726.855 	"/>
	<path clip-path="url(#SVGID_59_)" fill="#FFFFFF" d="M261.036-1952.343v71.299H118.414v60.392c0,37.907,16.08,57.183,47.557,57.183
		c32.111,0,48.167-19.276,48.167-57.183v-9.638h46.898v5.147c0,66.811-34.039,104.716-95.724,104.716
		c-61.662,0-95.725-37.906-95.725-104.716v-127.201c0-66.821,33.429-104.081,95.725-104.081
		C226.997-2056.424,261.036-2019.164,261.036-1952.343 M118.414-1920.866h95.09v-35.979c0-37.906-16.057-56.536-48.191-56.536
		c-31.478,0-46.898,18.63-46.898,56.536V-1920.866z"/>
	<path clip-path="url(#SVGID_59_)" fill="#FFFFFF" d="M430.622-1726.856c-2.563-7.71-4.49-22.485-5.124-43.689
		c-14.153,33.417-38.553,50.119-72.592,50.119c-50.121,0-75.18-31.489-75.18-93.797v-149.052c0-62.307,25.059-93.15,75.18-93.15
		c29.549,0,52.021,12.847,66.809,38.553v-158.678h48.167v361.681c0,39.188,2.587,68.103,7.076,88.013H430.622z M419.715-1835.427
		v-105.997c0-46.252-21.204-71.958-52.047-71.958c-27.622,0-41.115,17.996-41.115,53.962v141.342
		c0,36.613,13.493,54.609,41.115,54.609C398.511-1763.469,419.715-1789.175,419.715-1835.427"/>
	<polygon clip-path="url(#SVGID_59_)" fill="#FFFFFF" points="497.455,-1726.855 497.455,-2176.55 547.551,-2176.55 
		547.551,-1772.473 676.045,-1772.473 676.045,-1726.855 	"/>
	<path clip-path="url(#SVGID_59_)" fill="#FFFFFF" d="M872.617-1952.343v71.299H729.995v60.392c0,37.907,16.08,57.183,47.557,57.183
		c32.111,0,48.167-19.276,48.167-57.183v-9.638h46.898v5.147c0,66.811-34.039,104.716-95.725,104.716
		c-61.66,0-95.724-37.906-95.724-104.716v-127.201c0-66.821,33.429-104.081,95.724-104.081
		C838.578-2056.424,872.617-2019.164,872.617-1952.343 M729.995-1920.866h95.09v-35.979c0-37.906-16.056-56.536-48.192-56.536
		c-31.477,0-46.897,18.63-46.897,56.536V-1920.866z"/>
	<path clip-path="url(#SVGID_59_)" fill="#FFFFFF" d="M1083.342-1963.274v149.052c0,62.307-25.059,93.796-75.813,93.796
		c-34.698,0-59.099-17.348-72.592-52.046l-6.418,45.617h-35.332v-449.694h48.167v158.678c14.786-25.706,37.26-38.553,66.175-38.553
		C1058.283-2056.425,1083.342-2025.583,1083.342-1963.274 M1035.151-1959.42c0-35.967-14.128-53.962-41.75-53.962
		c-30.843,0-52.047,25.706-52.047,71.958v105.997c0,46.251,21.204,71.957,52.047,71.957c27.622,0,41.75-17.995,41.75-54.608
		V-1959.42z"/>
	<path clip-path="url(#SVGID_59_)" fill="#FFFFFF" d="M442.972-2815.056h-83.711H15.978c-130.548,0-245.217,98.25-253.401,228.543
		c-8.903,141.743,103.877,259.915,243.73,259.915h269.568c11.877,0,21.503-9.628,21.503-21.504v-40.399
		c0-0.001-0.001-0.001-0.001-0.001H6.307c-108.119,0-194.563-94.577-180.92-205.349c11.395-92.527,95.01-159.303,188.232-159.303
		l345.642,0.002h155.246c0.644,0,1.165,0.522,1.165,1.163v226.536v0.001h39.216c12.519,0,22.665-10.148,22.665-22.667v-203.87
		c0-0.641,0.521-1.163,1.165-1.163h92.201c0.642,0,1.163,0.522,1.163,1.163v226.536c0,0.001,0.002,0.001,0.002,0.001h39.215
		c12.517,0,22.666-10.148,22.666-22.667v-266.937H442.972z"/>
	<path clip-path="url(#SVGID_59_)" fill="#FFFFFF" d="M839.113-2388.502H421.143v-60.782v-77.41v-144.174
		c0-11.875-9.627-21.501-21.502-21.501h-40.38v165.675v77.41v101.184c0,11.876,9.627,21.502,21.501,21.502h458.352
		c122.206,0,223.441-90.329,241.18-207.672h-62.528C1000.788-2451.191,927.136-2388.502,839.113-2388.502"/>
	<path clip-path="url(#SVGID_59_)" fill="#FFFFFF" d="M1019.482-2596.172h62.528c-12.721-122.799-116.794-218.884-242.897-218.884
		h-21.765c-11.875,0-21.502,9.627-21.502,21.503v40.402h43.267C931.036-2753.151,1007.082-2684.723,1019.482-2596.172"/>
	<path clip-path="url(#SVGID_59_)" fill="#FFFFFF" d="M-174.891-1549.511h-64.853v-17.437h13.919c-1.684-3.978-2.6-8.26-2.6-12.849
		c0-8.106,2.6-15.142,7.799-20.802c5.354-5.66,12.084-8.566,20.19-8.566c10.554,0,19.579,5.813,23.862,15.602l-12.237,8.413
		c-1.682-5.507-5.353-8.26-10.86-8.26c-3.823,0-6.883,1.529-9.023,4.741c-1.836,2.602-2.753,5.966-2.753,10.096
		c0,4.895,1.223,8.719,3.823,11.625h32.732V-1549.511z"/>
	<rect x="-158.988" y="-1648.321" clip-path="url(#SVGID_59_)" fill="#FFFFFF" width="16.979" height="98.81"/>
	<path clip-path="url(#SVGID_59_)" fill="#FFFFFF" d="M-61.71-1551.652c0,18.201-11.013,27.379-33.192,27.379v-13.613
		c10.707-0.307,16.062-7.495,16.367-19.426c-2.906,5.201-8.412,7.801-16.214,7.801c-19.731,0-32.885-14.531-32.885-34.874
		c0-20.649,13.612-34.721,32.885-34.721c20.19,0,33.039,14.99,33.039,35.18V-1551.652z M-79.3-1583.62
		c0-11.93-6.424-19.884-16.213-19.884c-9.025,0-14.99,8.718-14.99,19.119c0,10.707,6.424,19.425,15.754,19.425
		C-85.57-1564.96-79.3-1573.524-79.3-1583.62"/>
	<path clip-path="url(#SVGID_59_)" fill="#FFFFFF" d="M51.932-1549.511h-99.269v-17.437h55.37c0-20.037-7.801-31.662-23.249-35.027
		c-4.742-1.07-9.942-1.376-15.449-1.376v-15.602c8.413,0,13.767,0.153,15.907,0.306c2.143,0.153,5.201,0.765,9.178,2.141
		c20.496,6.884,30.744,23.403,30.897,49.559h26.614V-1549.511z"/>
	<path clip-path="url(#SVGID_59_)" fill="#FFFFFF" d="M114.637-1549.511H44.583v-17.437H60.49c5.048,0,8.412-1.683,10.248-5.201
		c1.224-2.294,1.836-6.271,1.836-11.624v-64.394h16.978v63.476c0,9.025-1.224,14.837-3.671,17.743h28.756V-1549.511z"/>
	<path clip-path="url(#SVGID_59_)" fill="#FFFFFF" d="M153.942-1577.196c0,18.508-8.566,27.686-25.697,27.686h-18.048v-17.438
		h14.531c5.658,0,9.177-1.682,10.858-5.047c0.765-1.836,1.224-5.507,1.224-11.013v-65.159h17.132V-1577.196z"/>
	<path clip-path="url(#SVGID_59_)" fill="#FFFFFF" d="M334.576-1566.948v17.437c-18.813,0-24.167-2.906-31.203-13.46
		c-4.895,23.861-25.391,38.851-50.322,38.851c-29.367,0-52.617-22.944-52.617-53.076v-17.131h17.131v15.142
		c0,23.708,13.767,38.545,35.945,38.545c19.885,0,34.874-13.154,34.874-28.755c0-9.483-5.66-16.213-15.448-16.213
		c-0.918,0-1.836,0-2.754,0.152v-15.602h6.73c13.46,0,23.555,6.119,30.285,18.202c6.271,11.471,12.236,15.907,20.955,15.907H334.576
		z M247.086-1490.316h-16.825v-16.979h16.825V-1490.316z M275.994-1490.316h-16.825v-16.979h16.825V-1490.316z"/>
	<path clip-path="url(#SVGID_59_)" fill="#FFFFFF" d="M373.572-1577.196c0,18.508-8.565,27.685-25.696,27.685h-18.05v-17.437h14.531
		c5.66,0,9.178-1.682,10.859-5.048c0.766-1.835,1.225-5.506,1.225-11.012v-35.945h17.131V-1577.196z M373.266-1633.024h-16.672
		v-16.979h16.672V-1633.024z"/>
	<path clip-path="url(#SVGID_59_)" fill="#FFFFFF" d="M434.598-1549.511h-20.037c-8.26,0-14.53-2.6-18.967-7.954
		c-4.13-4.894-6.117-11.471-6.117-19.884v-70.818h16.978v63.935c0,7.495,1.683,12.389,4.896,14.684
		c2.293,1.684,6.729,2.601,13.153,2.601h10.095V-1549.511z"/>
	<path clip-path="url(#SVGID_59_)" fill="#FFFFFF" d="M499.754-1549.511h-70.665v-17.437h15.907c5.048,0,8.413-1.682,10.248-5.201
		c1.224-2.294,1.836-6.271,1.836-11.624v-35.18h16.978v34.262c0,9.024-1.224,14.837-3.671,17.743h29.367V-1549.511z
		 M474.058-1633.024h-16.824v-16.979h16.824V-1633.024z"/>
	<path clip-path="url(#SVGID_59_)" fill="#FFFFFF" d="M565.674-1549.511h-70.665v-17.437h15.907c5.048,0,8.413-1.682,10.248-5.201
		c1.224-2.294,1.835-6.271,1.835-11.624v-35.18h16.978v34.262c0,9.024-1.223,14.837-3.67,17.743h29.367V-1549.511z
		 M539.825-1515.861H523v-17.131h16.825V-1515.861z"/>
	<path clip-path="url(#SVGID_59_)" fill="#FFFFFF" d="M630.982-1549.511h-70.055v-17.437h15.908c5.047,0,8.412-1.683,10.248-5.201
		c1.223-2.294,1.835-6.271,1.835-11.624v-64.394h16.979v63.476c0,9.025-1.225,14.837-3.671,17.743h28.756V-1549.511z"/>
	<path clip-path="url(#SVGID_59_)" fill="#FFFFFF" d="M670.288-1577.196c0,18.508-8.566,27.686-25.697,27.686h-18.048v-17.438
		h14.529c5.66,0,9.179-1.682,10.86-5.047c0.765-1.836,1.224-5.507,1.224-11.013v-65.159h17.132V-1577.196z"/>
	<rect x="686.039" y="-1648.321" clip-path="url(#SVGID_59_)" fill="#FFFFFF" width="16.978" height="98.81"/>
	<path clip-path="url(#SVGID_59_)" fill="#FFFFFF" d="M871.11-1549.511h-31.815c-8.718,15.908-24.473,25.391-41.298,25.391
		c-26.614,0-48.487-23.556-48.487-52.311v-14.99h17.284v13.002c0,21.107,12.543,37.933,31.203,37.933
		c18.049,0,30.897-16.366,30.897-37.933v-69.748h17.283v71.736c0,3.212-0.306,6.271-0.917,9.483h25.85V-1549.511z"/>
	<path clip-path="url(#SVGID_59_)" fill="#FFFFFF" d="M880.127-1516.014h-16.825v-17.131h16.825V-1516.014z M934.579-1549.511
		h-70.513v-17.437h16.366c5.048,0,8.565-1.682,10.401-5.201c1.223-2.294,1.835-6.271,1.835-11.624v-35.18h16.978v34.262
		c0,9.024-1.223,14.837-3.822,17.743h28.755V-1549.511z M909.036-1516.014h-16.825v-17.131h16.825V-1516.014z"/>
	<path clip-path="url(#SVGID_59_)" fill="#FFFFFF" d="M973.885-1577.196c0,18.508-8.566,27.686-25.697,27.686h-18.049v-17.438
		h14.531c5.66,0,9.178-1.682,10.859-5.047c0.766-1.836,1.225-5.507,1.225-11.013v-65.159h17.131V-1577.196z"/>
	<path clip-path="url(#SVGID_59_)" fill="#FFFFFF" d="M1060.914-1549.511H988.26v-17.437h55.369
		c0-20.037-7.801-31.662-23.248-35.027c-4.742-1.07-9.942-1.376-15.449-1.376v-15.602c8.413,0,13.766,0.153,15.908,0.306
		c2.141,0.153,5.199,0.765,9.177,2.141c20.496,6.884,30.744,23.403,30.897,49.559V-1549.511z"/>
	<path clip-path="url(#SVGID_59_)" fill="#FFFFFF" d="M1600.454-1133.52H905.1H-61.502h-695.354
		c-84.364,0-152.756,68.392-152.756,152.757c0,84.364,68.392,152.756,152.756,152.756h695.354H905.1h695.354
		c84.365,0,152.756-68.392,152.756-152.756C1753.21-1065.128,1684.819-1133.52,1600.454-1133.52"/>
	
		<linearGradient id="SVGID_60_" gradientUnits="userSpaceOnUse" x1="-4131.918" y1="1585.1123" x2="-4130.9185" y2="1585.1123" gradientTransform="matrix(2663.8201 0 0 -2663.8201 11005779 4221474)">
		<stop  offset="0" style="stop-color:#009776"/>
		<stop  offset="1" style="stop-color:#0C5041"/>
		<stop  offset="1" style="stop-color:#FFF3E9"/>
	</linearGradient>
	<path clip-path="url(#SVGID_59_)" fill="url(#SVGID_60_)" d="M1600.454-1133.52L1600.454-1133.52H905.1H-61.502h-695.354
		c-84.365,0-152.756,68.392-152.756,152.757s68.392,152.756,152.756,152.756h695.354H905.1h695.354
		c84.365,0,152.756-68.392,152.756-152.756C1753.21-1065.128,1684.818-1133.52,1600.454-1133.52L1600.454-1133.52L1600.454-1133.52
		c84.365,0,152.756,68.392,152.756,152.757s-68.392,152.756-152.756,152.756H905.1H-61.502h-695.354
		c-84.365,0-152.756-68.392-152.756-152.756c0-84.365,68.392-152.757,152.756-152.757h695.354H905.1H1600.454L1600.454-1133.52z"/>
</g>
<g>
	<defs>
		<path id="SVGID_61_" d="M-651.698-167.978c0-28.724,23.337-52.06,52.062-52.06c28.724,0,52.06,23.336,52.06,52.06
			c0,28.726-23.336,52.098-52.06,52.098C-628.361-115.88-651.698-139.252-651.698-167.978 M-639.24-232.564
			c-38.992,23.904-47.23,72.38-24.886,106.765l-63.604,63.604l22.389,22.39l63.605-63.605c29.447,19.135,69.23,15.841,95.063-9.991
			c33.455-33.455,29.187-90.343-12.79-117.831c-12.206-7.986-26.65-12.02-41.08-12.021
			C-614.068-243.254-627.582-239.712-639.24-232.564"/>
	</defs>
	<clipPath id="SVGID_62_">
		<use xlink:href="#SVGID_61_"  overflow="visible"/>
	</clipPath>
	
		<linearGradient id="SVGID_63_" gradientUnits="userSpaceOnUse" x1="-4148.4932" y1="1581.6641" x2="-4147.4932" y2="1581.6641" gradientTransform="matrix(-203.3118 0 0 -203.3118 -843961.9375 321429.375)">
		<stop  offset="0" style="stop-color:#009776"/>
		<stop  offset="0.0061" style="stop-color:#009776"/>
		<stop  offset="0.0429" style="stop-color:#019474"/>
		<stop  offset="1" style="stop-color:#0C5041"/>
		<stop  offset="1" style="stop-color:#FFF3E9"/>
	</linearGradient>
	<rect x="-727.73" y="-243.254" clip-path="url(#SVGID_62_)" fill="url(#SVGID_63_)" width="214.513" height="203.448"/>
</g>
<path fill="#666666" d="M-583.268-504.907v30.093c0,10.235-5.731,16.377-15.865,16.377h-37.154c-21.7,0-32.55-9.622-32.55-28.967
	v-17.503h11.361v17.503c0,6.653,1.944,11.361,5.835,14.022c3.07,2.15,7.779,3.275,14.022,3.275h28.046
	c5.22,0,8.803-0.613,10.747-1.944c2.866-1.843,4.299-5.425,4.299-10.646v-22.211H-583.268z M-630.352-505.01h-11.156v-11.361h11.156
	V-505.01z M-610.903-505.01h-11.157v-11.361h11.157V-505.01z M-542.422-458.438h-13.408c-5.527,0-9.724-1.74-12.691-5.322
	c-2.764-3.275-4.095-7.677-4.095-13.307v-47.391h11.361v42.784c0,5.016,1.126,8.291,3.275,9.826c1.535,1.127,4.504,1.74,8.803,1.74
	h6.755V-458.438z M-517.035-476.964c0,12.385-5.732,18.526-17.196,18.526h-12.078v-11.669h9.724c3.787,0,6.142-1.125,7.268-3.377
	c0.512-1.229,0.818-3.686,0.818-7.37v-24.054h11.465V-476.964z M-517.24-514.323h-11.156v-11.362h11.156V-514.323z M-449.07-458.438
	h-13.92c-1.535,11.259-9.008,16.889-22.313,16.889v-9.007c5.937,0,9.724-2.457,11.361-7.882h-10.952
	c-12.385,0-22.416-10.338-22.416-23.849c0-13.512,9.929-22.724,22.928-22.724c12.488,0,21.29,9.622,21.29,23.03v11.873h14.022
	V-458.438z M-474.557-470.106v-14.022c-0.613-6.039-4.094-10.338-10.031-10.338c-6.755,0-11.054,4.708-11.054,11.566
	c0,7.063,4.811,12.794,10.952,12.794H-474.557z M-371.173-458.438h-80.656v-11.669h56.193c0-6.346-1.843-11.771-5.527-16.274
	c-4.299-5.22-10.235-7.778-17.708-7.778h-23.644l20.164-30.298h13.613l-13.818,19.55h5.016c7.063,0,13.307,1.638,18.731,4.913
	c9.314,5.731,14.432,15.661,15.354,29.888h12.282V-458.438z M-307.297-458.438h-14.637c-4.402,5.937-10.543,8.905-18.527,8.905
	c-7.881,0-13.92-2.969-18.321-8.905h-15.661v-11.669h11.055c-0.102-1.125-0.102-2.252-0.102-3.377
	c0-6.858,2.148-12.488,6.346-16.889c4.299-4.402,9.826-6.653,16.684-6.653c6.858,0,12.386,2.251,16.582,6.857
	s6.346,10.235,6.346,17.094v2.968h10.236V-458.438z M-329.304-473.177c0-3.582-0.921-6.756-2.764-9.314
	c-2.149-2.764-5.118-4.196-8.7-4.196c-3.48,0-6.244,1.33-8.291,4.094c-1.74,2.354-2.661,5.425-2.661,9.008
	c0,7.369,4.504,13.408,11.566,13.408c3.479,0,6.243-1.331,8.188-3.89C-330.225-466.421-329.304-469.492-329.304-473.177z
	 M-281.602-476.964c0,12.385-5.732,18.526-17.195,18.526h-12.078v-11.669h9.724c3.787,0,6.142-1.125,7.267-3.377
	c0.512-1.229,0.819-3.686,0.819-7.37v-43.604h11.464V-476.964z M-259.695-458.438h-11.361v-66.122h11.361V-458.438z
	 M-181.389-459.87c0,12.18-7.37,18.321-22.212,18.321v-9.109c7.165-0.205,10.747-5.016,10.952-12.999
	c-1.944,3.479-5.629,5.22-10.85,5.22c-13.204,0-22.006-9.724-22.006-23.337c0-13.818,9.109-23.235,22.006-23.235
	c13.511,0,22.109,10.031,22.109,23.542V-459.87z M-193.16-481.263c0-7.984-4.299-13.307-10.85-13.307
	c-6.039,0-10.031,5.834-10.031,12.795c0,7.164,4.299,12.999,10.543,12.999C-197.356-468.775-193.16-474.507-193.16-481.263z
	 M-156.616-529.779h-17.708v-4.709h4.095c-0.614-1.944-0.921-3.07-0.921-3.582c0-4.811,3.582-8.291,7.983-8.291
	c2.866,0,5.016,1.535,6.448,4.504l-3.685,1.944c-0.308-1.535-1.331-2.252-2.866-2.252c-2.149,0-3.479,1.945-3.479,3.89
	c0,1.74,0.614,3.071,1.842,3.787h8.291V-529.779z M-159.482-458.438h-11.361v-66.122h11.361V-458.438z M-81.893-458.438h-43.398
	v-11.669h9.314c-1.126-2.661-1.74-5.527-1.74-8.598c0-5.425,1.74-10.133,5.22-13.92c3.583-3.787,8.087-5.732,13.511-5.732
	c7.063,0,13.102,3.89,15.968,10.44l-8.188,5.63c-1.125-3.686-3.582-5.527-7.268-5.527c-2.559,0-4.605,1.023-6.038,3.173
	c-1.229,1.74-1.843,3.992-1.843,6.755c0,3.275,0.818,5.835,2.559,7.779h21.904V-458.438z M-59.883-458.438h-11.361v-66.122h11.361
	V-458.438z M-6.145-459.87c0,12.18-7.369,18.321-22.211,18.321v-9.109c7.165-0.205,10.748-5.016,10.952-12.999
	c-1.944,3.479-5.63,5.22-10.85,5.22c-13.204,0-22.007-9.724-22.007-23.337c0-13.818,9.11-23.235,22.007-23.235
	c13.511,0,22.108,10.031,22.108,23.542V-459.87z M-17.915-481.263c0-7.984-4.299-13.307-10.85-13.307
	c-6.039,0-10.031,5.834-10.031,12.795c0,7.164,4.3,12.999,10.543,12.999C-22.111-468.775-17.915-474.507-17.915-481.263z
	 M69.909-458.438H3.48v-11.669h37.053c0-13.408-5.221-21.188-15.559-23.439c-3.173-0.717-6.652-0.921-10.338-0.921v-10.44
	c5.63,0,9.212,0.103,10.646,0.205c1.433,0.102,3.479,0.512,6.142,1.433c13.715,4.606,20.573,15.661,20.676,33.163h17.81V-458.438z
	 M94.069-476.964c0,12.385-5.731,18.526-17.195,18.526H64.796v-11.669h9.724c3.787,0,6.142-1.125,7.268-3.377
	c0.512-1.229,0.818-3.686,0.818-7.37v-43.604h11.464V-476.964z M115.977-458.438h-11.362v-66.122h11.362V-458.438z M243.925-458.438
	h-5.016c-7.983,0-14.739-2.968-20.368-8.394c-4.197,6.244-10.44,9.417-18.731,9.417c-13.613,0-23.133-10.44-23.133-23.951
	c0-4.504,0.922-8.495,2.866-11.976h-8.393c-7.678,0-12.59,6.756-12.59,17.912v33.982h-11.465v-36.336
	c0-16.48,8.803-27.228,24.055-27.228h28.659c10.235,0,18.731,5.835,21.29,14.739c4.708,16.173,9.109,20.164,17.707,20.164h5.118
	V-458.438z M210.967-480.956c0-7.574-4.504-13.613-11.566-13.613c-6.551,0-10.952,5.527-10.952,13.102
	c0,7.677,4.811,13.512,11.668,13.512C206.36-467.956,210.967-473.177,210.967-480.956z M240.246-470.106h8.394
	c5.834,0,8.7-3.991,8.7-12.078v-22.723h11.566v22.313c0,6.039-0.614,9.929-1.843,11.874v0.613h10.646c5.834,0,8.7-3.787,8.7-11.361
	v-23.439h11.566v22.313c0,6.653-0.819,10.851-2.354,12.487h11.156c5.835,0,8.701-3.787,8.701-11.259v-23.542h11.566v22.109
	c0,14.738-8.189,24.36-19.857,24.36h-66.941V-470.106z M349.568-458.438h-11.361v-66.122h11.361V-458.438z M462.062-458.438h-21.29
	c-5.834,10.646-16.377,16.991-27.637,16.991c-17.81,0-32.446-15.763-32.446-35.006v-10.031h11.566v8.701
	c0,14.125,8.394,25.384,20.88,25.384c12.078,0,20.677-10.952,20.677-25.384v-46.675h11.565v48.005c0,2.149-0.204,4.196-0.613,6.346
	h17.298V-458.438z M529.109-465.603v7.165h-72.059v-11.669h59.674c0-6.346-1.74-11.771-5.323-16.274
	c-4.196-5.22-10.133-7.778-17.604-7.778c-2.56,0-5.426,0.613-8.599,1.944c-3.685,1.535-6.755,3.685-9.212,6.448
	c-1.126-2.149-2.968-5.117-5.527-9.008c3.174-2.968,6.756-5.424,10.952-7.267c4.504-1.944,9.008-2.866,13.511-2.866
	c7.575,0,14.126,1.843,19.652,5.63C524.299-492.829,529.109-481.673,529.109-465.603z M500.348-514.528h-11.26v-11.361h11.26
	V-514.528z M587.354-458.438h-48.618v-11.669h37.053c0-13.408-5.221-21.188-15.559-23.439c-3.173-0.717-6.653-0.921-10.338-0.921
	v-10.44c5.63,0,9.212,0.103,10.646,0.205c1.433,0.102,3.479,0.512,6.141,1.433c13.716,4.606,20.574,15.661,20.676,33.163V-458.438z
	 M612.128-529.779H594.42v-4.709h4.095c-0.614-1.944-0.921-3.07-0.921-3.582c0-4.811,3.582-8.291,7.983-8.291
	c2.866,0,5.016,1.535,6.448,4.504l-3.685,1.944c-0.308-1.535-1.331-2.252-2.866-2.252c-2.149,0-3.479,1.945-3.479,3.89
	c0,1.74,0.614,3.071,1.842,3.787h8.291V-529.779z M609.262-458.438H597.9v-66.122h11.361V-458.438z M668.837-472.358l-11.157-0.613
	l6.756,9.928l-4.811,2.457l-5.016-10.543l-4.708,11.055l-4.606-2.969l6.449-9.826l-11.362,0.717v-5.22l11.259,1.228l-6.551-9.724
	l4.812-3.07l4.708,11.259l4.913-11.259l4.401,2.968l-6.448,9.725l11.361-1.126V-472.358z"/>
<g>
	<defs>
		<rect id="SVGID_64_" x="-156.571" y="171.819" width="11.727" height="11.727"/>
	</defs>
	<clipPath id="SVGID_65_">
		<use xlink:href="#SVGID_64_"  overflow="visible"/>
	</clipPath>
	
		<linearGradient id="SVGID_66_" gradientUnits="userSpaceOnUse" x1="-4130.6733" y1="1585.8418" x2="-4129.6733" y2="1585.8418" gradientTransform="matrix(385.1155 532.4641 532.4641 -385.1155 746025.8125 2810061.5)">
		<stop  offset="0" style="stop-color:#009776"/>
		<stop  offset="0.0061" style="stop-color:#009776"/>
		<stop  offset="0.0429" style="stop-color:#019474"/>
		<stop  offset="1" style="stop-color:#0C5041"/>
		<stop  offset="1" style="stop-color:#FFF3E9"/>
	</linearGradient>
	<polygon clip-path="url(#SVGID_65_)" fill="url(#SVGID_66_)" points="-148.872,166.251 -139.276,179.519 -152.544,189.114 
		-162.14,175.848 	"/>
</g>
<g>
	<defs>
		<rect id="SVGID_67_" x="-229.774" y="104.281" width="18.762" height="18.761"/>
	</defs>
	<clipPath id="SVGID_68_">
		<use xlink:href="#SVGID_67_"  overflow="visible"/>
	</clipPath>
	
		<linearGradient id="SVGID_69_" gradientUnits="userSpaceOnUse" x1="-4130.6777" y1="1585.8418" x2="-4129.6655" y2="1585.8418" gradientTransform="matrix(385.1155 532.4641 532.4641 -385.1155 746010.8125 2810072.75)">
		<stop  offset="0" style="stop-color:#009776"/>
		<stop  offset="0.0061" style="stop-color:#009776"/>
		<stop  offset="0.0429" style="stop-color:#019474"/>
		<stop  offset="1" style="stop-color:#0C5041"/>
		<stop  offset="1" style="stop-color:#FFF3E9"/>
	</linearGradient>
	<polygon clip-path="url(#SVGID_68_)" fill="url(#SVGID_69_)" points="-217.456,95.371 -202.104,116.598 -223.331,131.951 
		-238.684,110.725 	"/>
</g>
<g>
	<defs>
		<path id="SVGID_70_" d="M-163.136,165.254h24.856v24.856h-24.856V165.254z M-222.679,144.089h14.655v14.658h-14.655V144.089z
			 M-208.023,173.52v-14.656h23.802v-14.774h14.658v14.774v3.4v11.256H-208.023v14.657h-14.655V173.52h-14.658v-14.656h14.658
			v14.656H-208.023z M-189.035,104.516h19.229v19.23h19.098v19.229h-19.229v-19.229h-19.098V104.516z M-241.03,93.024h41.273v41.274
			h-41.273V93.024z M-249.707,84.699v60.855h12.312v13.016h-12.312v14.422h12.312v16.181h-12.312v16.182h14.188v-13.366h17.236
			v13.366h49.95v-9.498h35.996v-35.995h-20.285v-16.769h20.285V84.699H-249.707z"/>
	</defs>
	<clipPath id="SVGID_71_">
		<use xlink:href="#SVGID_70_"  overflow="visible"/>
	</clipPath>
	
		<linearGradient id="SVGID_72_" gradientUnits="userSpaceOnUse" x1="-4130.6733" y1="1585.8428" x2="-4129.6733" y2="1585.8428" gradientTransform="matrix(385.1155 532.4641 532.4641 -385.1155 746014.8125 2810069.5)">
		<stop  offset="0" style="stop-color:#009776"/>
		<stop  offset="0.0061" style="stop-color:#009776"/>
		<stop  offset="0.0429" style="stop-color:#019474"/>
		<stop  offset="1" style="stop-color:#0C5041"/>
		<stop  offset="1" style="stop-color:#FFF3E9"/>
	</linearGradient>
	<polygon clip-path="url(#SVGID_71_)" fill="url(#SVGID_72_)" points="-172.647,28.965 -75.042,163.916 -209.396,261.09 
		-307.002,126.139 	"/>
</g>
<g>
	<defs>
		<path id="SVGID_73_" d="M-152.619,49.497v12.569h5.319c20.967,0,38.031,17.054,38.031,38.021v6.439h12.57v-6.439
			c0-27.893-22.697-50.591-50.602-50.591H-152.619z"/>
	</defs>
	<clipPath id="SVGID_74_">
		<use xlink:href="#SVGID_73_"  overflow="visible"/>
	</clipPath>
	
		<linearGradient id="SVGID_75_" gradientUnits="userSpaceOnUse" x1="-4130.6729" y1="1585.8369" x2="-4129.6729" y2="1585.8369" gradientTransform="matrix(385.1155 532.4641 532.4641 -385.1155 746092.8125 2810013.25)">
		<stop  offset="0" style="stop-color:#009776"/>
		<stop  offset="0.0061" style="stop-color:#009776"/>
		<stop  offset="0.0429" style="stop-color:#019474"/>
		<stop  offset="1" style="stop-color:#0C5041"/>
		<stop  offset="1" style="stop-color:#FFF3E9"/>
	</linearGradient>
	<polygon clip-path="url(#SVGID_74_)" fill="url(#SVGID_75_)" points="-115.905,22.942 -69.616,86.94 -133.413,133.083 
		-179.701,69.084 	"/>
</g>
<g>
	<defs>
		<path id="SVGID_76_" d="M-234.952,49.497c-27.893,0-50.591,22.698-50.591,50.591v6.439h12.571v-6.439
			c0-20.968,17.052-38.021,38.02-38.021h5.333V49.497H-234.952z"/>
	</defs>
	<clipPath id="SVGID_77_">
		<use xlink:href="#SVGID_76_"  overflow="visible"/>
	</clipPath>
	
		<linearGradient id="SVGID_78_" gradientUnits="userSpaceOnUse" x1="-4130.6719" y1="1585.8418" x2="-4129.6758" y2="1585.8418" gradientTransform="matrix(385.1155 532.4641 532.4641 -385.1155 746003.8125 2810078.25)">
		<stop  offset="0" style="stop-color:#009776"/>
		<stop  offset="0.0061" style="stop-color:#009776"/>
		<stop  offset="0.0429" style="stop-color:#019474"/>
		<stop  offset="1" style="stop-color:#0C5041"/>
		<stop  offset="1" style="stop-color:#FFF3E9"/>
	</linearGradient>
	<polygon clip-path="url(#SVGID_77_)" fill="url(#SVGID_78_)" points="-248.827,22.94 -202.537,86.94 -266.336,133.084 
		-312.625,69.084 	"/>
</g>
<g>
	<defs>
		<path id="SVGID_79_" d="M-109.269,183.525v4.213c0,20.969-17.064,38.021-38.031,38.021h-5.319v12.57h5.319
			c27.904,0,50.602-22.7,50.602-50.592v-4.213H-109.269z"/>
	</defs>
	<clipPath id="SVGID_80_">
		<use xlink:href="#SVGID_79_"  overflow="visible"/>
	</clipPath>
	
		<linearGradient id="SVGID_81_" gradientUnits="userSpaceOnUse" x1="-4130.6758" y1="1585.8398" x2="-4129.6714" y2="1585.8398" gradientTransform="matrix(385.1155 532.4641 532.4641 -385.1155 746027.8125 2810060.75)">
		<stop  offset="0" style="stop-color:#009776"/>
		<stop  offset="0.0061" style="stop-color:#009776"/>
		<stop  offset="0.0429" style="stop-color:#019474"/>
		<stop  offset="1" style="stop-color:#0C5041"/>
		<stop  offset="1" style="stop-color:#FFF3E9"/>
	</linearGradient>
	<polygon clip-path="url(#SVGID_80_)" fill="url(#SVGID_81_)" points="-115.904,156.972 -70.674,219.508 -133.413,264.885 
		-178.644,202.349 	"/>
</g>
<g>
	<defs>
		<path id="SVGID_82_" d="M-285.543,183.525v4.213c0,27.892,22.698,50.592,50.591,50.592h5.333v-12.57h-5.333
			c-20.968,0-38.02-17.053-38.02-38.021v-4.213H-285.543z"/>
	</defs>
	<clipPath id="SVGID_83_">
		<use xlink:href="#SVGID_82_"  overflow="visible"/>
	</clipPath>
	
		<linearGradient id="SVGID_84_" gradientUnits="userSpaceOnUse" x1="-4130.6753" y1="1585.8457" x2="-4129.6709" y2="1585.8457" gradientTransform="matrix(385.1155 532.4641 532.4641 -385.1155 745937.8125 2810125.25)">
		<stop  offset="0" style="stop-color:#009776"/>
		<stop  offset="0.0061" style="stop-color:#009776"/>
		<stop  offset="0.0429" style="stop-color:#019474"/>
		<stop  offset="1" style="stop-color:#0C5041"/>
		<stop  offset="1" style="stop-color:#FFF3E9"/>
	</linearGradient>
	<polygon clip-path="url(#SVGID_83_)" fill="url(#SVGID_84_)" points="-248.826,156.97 -203.595,219.508 -266.336,264.887 
		-311.567,202.349 	"/>
</g>
<g>
	<defs>
		<rect id="SVGID_85_" x="-848.656" y="-3385.487" width="2902.678" height="5612.599"/>
	</defs>
	<clipPath id="SVGID_86_">
		<use xlink:href="#SVGID_85_"  overflow="visible"/>
	</clipPath>
	<polygon clip-path="url(#SVGID_86_)" fill="#666666" points="-165.758,-243.789 -182.334,-260.365 -237.768,-204.931 
		-293.201,-260.365 -309.775,-243.789 -254.342,-188.354 -309.775,-132.921 -293.201,-116.345 -237.768,-171.779 -182.334,-116.345 
		-165.758,-132.921 -221.191,-188.354 	"/>
</g>
<g>
	<defs>
		<path id="SVGID_87_" d="M-659.678,77.835l41.174,31.548V89.365c32.742,3.807,58.333,31.384,58.333,65.132
			c0,36.338-29.56,65.912-65.897,65.912c-36.339,0-65.912-29.574-65.912-65.912c0-2.654,0.479-5.179,0.783-7.752h-18.568
			c-0.004,0.058-0.002,0.115-0.008,0.174h-4.246v7.578c0,48.489,39.445,87.953,87.938,87.953c48.49,0,87.951-39.464,87.951-87.953
			c0-45.933-35.424-83.691-80.373-87.554V46.286L-659.678,77.835z"/>
	</defs>
	<clipPath id="SVGID_88_">
		<use xlink:href="#SVGID_87_"  overflow="visible"/>
	</clipPath>
	
		<linearGradient id="SVGID_89_" gradientUnits="userSpaceOnUse" x1="-4127.3057" y1="1585.7168" x2="-4126.3057" y2="1585.7168" gradientTransform="matrix(176.2657 189.0988 189.0988 -176.2657 426935.8125 1060031.25)">
		<stop  offset="0" style="stop-color:#009776"/>
		<stop  offset="0.0061" style="stop-color:#009776"/>
		<stop  offset="0.0429" style="stop-color:#019474"/>
		<stop  offset="1" style="stop-color:#0C5041"/>
		<stop  offset="1" style="stop-color:#FFF3E9"/>
	</linearGradient>
	<polygon clip-path="url(#SVGID_88_)" fill="url(#SVGID_89_)" points="-619.905,-41.441 -440.291,151.25 -632.246,330.178 
		-811.859,137.486 	"/>
</g>
<g>
	<defs>
		<rect id="SVGID_90_" x="-636.076" y="108.647" width="12.188" height="45.208"/>
	</defs>
	<clipPath id="SVGID_91_">
		<use xlink:href="#SVGID_90_"  overflow="visible"/>
	</clipPath>
	
		<linearGradient id="SVGID_92_" gradientUnits="userSpaceOnUse" x1="-4127.3042" y1="1585.6895" x2="-4126.3071" y2="1585.6895" gradientTransform="matrix(176.2657 189.0988 189.0988 -176.2657 426945.3125 1060022.375)">
		<stop  offset="0" style="stop-color:#009776"/>
		<stop  offset="0.0061" style="stop-color:#009776"/>
		<stop  offset="0.0429" style="stop-color:#019474"/>
		<stop  offset="1" style="stop-color:#0C5041"/>
		<stop  offset="1" style="stop-color:#FFF3E9"/>
	</linearGradient>
	<polygon clip-path="url(#SVGID_91_)" fill="url(#SVGID_92_)" points="-629.555,102.569 -601.341,132.838 -630.41,159.935 
		-658.625,129.666 	"/>
</g>
<g>
	<defs>
		<rect id="SVGID_93_" x="-629.843" y="149.95" width="66.727" height="7.813"/>
	</defs>
	<clipPath id="SVGID_94_">
		<use xlink:href="#SVGID_93_"  overflow="visible"/>
	</clipPath>
	
		<linearGradient id="SVGID_95_" gradientUnits="userSpaceOnUse" x1="-4127.3042" y1="1585.6914" x2="-4126.3066" y2="1585.6914" gradientTransform="matrix(176.2657 189.0988 189.0988 -176.2657 426951.8125 1060016.25)">
		<stop  offset="0" style="stop-color:#009776"/>
		<stop  offset="0.0061" style="stop-color:#009776"/>
		<stop  offset="0.0429" style="stop-color:#019474"/>
		<stop  offset="1" style="stop-color:#0C5041"/>
		<stop  offset="1" style="stop-color:#FFF3E9"/>
	</linearGradient>
	<polygon clip-path="url(#SVGID_94_)" fill="url(#SVGID_95_)" points="-594.139,116.67 -559.219,154.132 -598.82,191.045 
		-633.74,153.583 	"/>
</g>
<g>
	<defs>
		<path id="SVGID_96_" d="M-639.924,153.855c0,5.492,4.449,9.943,9.94,9.943s9.942-4.451,9.942-9.943
			c0-5.491-4.451-9.942-9.942-9.942S-639.924,148.364-639.924,153.855"/>
	</defs>
	<clipPath id="SVGID_97_">
		<use xlink:href="#SVGID_96_"  overflow="visible"/>
	</clipPath>
	
		<linearGradient id="SVGID_98_" gradientUnits="userSpaceOnUse" x1="-4127.3076" y1="1585.6914" x2="-4126.3032" y2="1585.6914" gradientTransform="matrix(176.2657 189.0988 189.0988 -176.2657 426934.0625 1060032.875)">
		<stop  offset="0" style="stop-color:#009776"/>
		<stop  offset="0.0061" style="stop-color:#009776"/>
		<stop  offset="0.0429" style="stop-color:#019474"/>
		<stop  offset="1" style="stop-color:#0C5041"/>
		<stop  offset="1" style="stop-color:#FFF3E9"/>
	</linearGradient>
	<polygon clip-path="url(#SVGID_97_)" fill="url(#SVGID_98_)" points="-629.285,133.997 -610.123,154.554 -630.68,173.716 
		-649.842,153.158 	"/>
</g>
</svg>
