<?xml version="1.0" encoding="utf-8"?>
<!-- Generator: Adobe Illustrator 16.0.0, SVG Export Plug-In . SVG Version: 6.00 Build 0)  -->
<!DOCTYPE svg PUBLIC "-//W3C//DTD SVG 1.1//EN" "http://www.w3.org/Graphics/SVG/1.1/DTD/svg11.dtd">
<svg version="1.1" id="Layer_1" xmlns="http://www.w3.org/2000/svg" xmlns:xlink="http://www.w3.org/1999/xlink" x="0px" y="0px"
	 width="765.292px" height="395.921px" viewBox="0 0 765.292 395.921" enable-background="new 0 0 765.292 395.921"
	 xml:space="preserve">
<rect x="-3600.24" y="571.875" fill="#FFFFFF" width="3094.32" height="2664.382"/>
<g>
	<defs>
		<polygon id="SVGID_1_" points="1422.996,2824.423 1422.996,2468.495 1480.451,2468.495 1532.828,2752.724 1584.683,2468.495 
			1642.642,2468.495 1642.642,2824.423 1604.518,2824.423 1604.518,2527.476 1548.066,2824.423 1514.519,2824.423 
			1458.067,2527.476 1458.067,2824.423 		"/>
	</defs>
	<clipPath id="SVGID_2_">
		<use xlink:href="#SVGID_1_"  overflow="visible"/>
	</clipPath>
	
		<linearGradient id="SVGID_3_" gradientUnits="userSpaceOnUse" x1="-294.9009" y1="3314.2427" x2="-293.9009" y2="3314.2427" gradientTransform="matrix(-919.8121 1437.7645 1437.7645 919.8121 -5034194 -2622815.25)">
		<stop  offset="0" style="stop-color:#2F6BB3"/>
		<stop  offset="1" style="stop-color:#273E7C"/>
	</linearGradient>
	<polygon clip-path="url(#SVGID_2_)" fill="url(#SVGID_3_)" points="1804.218,2571.863 1578.852,2924.134 1261.419,2721.055 
		1486.785,2368.785 	"/>
</g>
<g>
	<defs>
		<path id="SVGID_4_" d="M1699.094,2642.388c0-30.003,12.206-44.748,37.12-44.748c25.434,0,38.142,14.745,38.142,44.748v28.478
			h-75.262V2642.388z M1660.448,2645.952v100.679c0,52.879,26.962,82.883,75.767,82.883c48.822,0,75.764-30.004,75.764-82.883
			v-4.073h-37.119v7.628c0,30.002-12.708,45.26-38.124,45.26c-24.914,0-37.641-15.258-37.641-45.26v-47.801h112.884v-56.433
			c0-52.888-26.941-82.379-75.764-82.379C1686.907,2563.573,1660.448,2593.064,1660.448,2645.952"/>
	</defs>
	<clipPath id="SVGID_5_">
		<use xlink:href="#SVGID_4_"  overflow="visible"/>
	</clipPath>
	
		<linearGradient id="SVGID_6_" gradientUnits="userSpaceOnUse" x1="-294.9009" y1="3314.2427" x2="-293.9009" y2="3314.2427" gradientTransform="matrix(-919.8121 1437.7645 1437.7645 919.8121 -5034027 -2622707.25)">
		<stop  offset="0" style="stop-color:#2F6BB3"/>
		<stop  offset="1" style="stop-color:#273E7C"/>
	</linearGradient>
	<polygon clip-path="url(#SVGID_5_)" fill="url(#SVGID_6_)" points="1932.703,2640.807 1767.97,2898.301 1539.723,2752.279 
		1704.455,2494.785 	"/>
</g>
<g>
	<defs>
		<path id="SVGID_7_" d="M1863.834,2752.223v-111.871c0-28.469,10.68-42.712,32.543-42.712c24.411,0,41.193,20.347,41.193,56.955
			v83.895c0,36.609-16.782,56.955-41.193,56.955C1874.514,2795.445,1863.834,2781.202,1863.834,2752.223 M1937.571,2468.495v125.592
			c-11.702-20.346-29.491-30.514-52.879-30.514c-39.669,0-59.504,24.411-59.504,73.727v117.975
			c0,49.315,19.835,74.239,59.504,74.239c26.941,0,46.254-13.22,57.457-39.67c0.501,16.784,2.028,28.478,4.056,34.58h35.092
			c-3.555-15.76-5.602-38.645-5.602-69.662v-286.267H1937.571z"/>
	</defs>
	<clipPath id="SVGID_8_">
		<use xlink:href="#SVGID_7_"  overflow="visible"/>
	</clipPath>
	
		<linearGradient id="SVGID_9_" gradientUnits="userSpaceOnUse" x1="-294.9009" y1="3314.2222" x2="-293.9009" y2="3314.2222" gradientTransform="matrix(-919.8121 1437.7645 1437.7645 919.8121 -5033900 -2622627.25)">
		<stop  offset="0" style="stop-color:#2F6BB3"/>
		<stop  offset="1" style="stop-color:#273E7C"/>
	</linearGradient>
	<polygon clip-path="url(#SVGID_8_)" fill="url(#SVGID_9_)" points="2145.182,2573.341 1935.959,2900.378 1661.302,2724.667 
		1870.525,2397.628 	"/>
</g>
<g>
	<defs>
		<polygon id="SVGID_10_" points="1999.103,2468.495 1999.103,2824.423 2140.455,2824.423 2140.455,2788.318 2038.752,2788.318 
			2038.752,2468.495 		"/>
	</defs>
	<clipPath id="SVGID_11_">
		<use xlink:href="#SVGID_10_"  overflow="visible"/>
	</clipPath>
	
		<linearGradient id="SVGID_12_" gradientUnits="userSpaceOnUse" x1="-294.9009" y1="3314.2661" x2="-293.9009" y2="3314.2661" gradientTransform="matrix(1071.6257 1098.4164 1098.4164 -1071.6257 -3323017 3877539.25)">
		<stop  offset="0" style="stop-color:#009676"/>
		<stop  offset="1" style="stop-color:#0D5042"/>
		<stop  offset="1" style="stop-color:#FFF2E9"/>
	</linearGradient>
	<polygon clip-path="url(#SVGID_11_)" fill="url(#SVGID_12_)" points="2071.524,2397.84 2318.365,2650.853 2068.034,2895.079 
		1821.193,2642.066 	"/>
</g>
<g>
	<defs>
		<path id="SVGID_13_" d="M2183.155,2642.388c0-30.003,12.206-44.748,37.121-44.748c25.436,0,38.144,14.745,38.144,44.748v28.478
			h-75.265V2642.388z M2144.51,2645.952v100.679c0,52.879,26.962,82.883,75.766,82.883c48.823,0,75.765-30.004,75.765-82.883v-4.073
			h-37.119v7.628c0,30.002-12.708,45.26-38.124,45.26c-24.914,0-37.643-15.258-37.643-45.26v-47.801h112.886v-56.433
			c0-52.888-26.941-82.379-75.765-82.379C2170.969,2563.573,2144.51,2593.064,2144.51,2645.952"/>
	</defs>
	<clipPath id="SVGID_14_">
		<use xlink:href="#SVGID_13_"  overflow="visible"/>
	</clipPath>
	
		<linearGradient id="SVGID_15_" gradientUnits="userSpaceOnUse" x1="-294.9009" y1="3314.2417" x2="-293.9009" y2="3314.2417" gradientTransform="matrix(1071.6257 1098.4164 1098.4164 -1071.6257 -3322941 3877462.75)">
		<stop  offset="0" style="stop-color:#009676"/>
		<stop  offset="1" style="stop-color:#0D5042"/>
		<stop  offset="1" style="stop-color:#FFF2E9"/>
	</linearGradient>
	<polygon clip-path="url(#SVGID_14_)" fill="url(#SVGID_15_)" points="2222.146,2487.831 2428.97,2699.826 2218.405,2905.255 
		2011.581,2693.26 	"/>
</g>
<g>
	<defs>
		<path id="SVGID_16_" d="M2350.445,2738.49v-83.895c0-36.608,16.783-56.955,41.195-56.955c21.862,0,33.045,14.243,33.045,42.712
			v111.871c0,28.979-11.183,43.222-33.045,43.222C2367.228,2795.445,2350.445,2775.099,2350.445,2738.49 M2312.322,2468.495v355.929
			h27.965l5.08-36.105c10.68,27.463,29.992,41.195,57.455,41.195c40.172,0,60.006-24.924,60.006-74.239v-117.975
			c0-49.315-19.834-73.727-60.006-73.727c-22.886,0-40.673,10.168-52.377,30.514v-125.592H2312.322z"/>
	</defs>
	<clipPath id="SVGID_17_">
		<use xlink:href="#SVGID_16_"  overflow="visible"/>
	</clipPath>
	
		<linearGradient id="SVGID_18_" gradientUnits="userSpaceOnUse" x1="-294.9009" y1="3314.2671" x2="-293.9009" y2="3314.2671" gradientTransform="matrix(1071.6257 1098.4164 1098.4164 -1071.6257 -3322857 3877383)">
		<stop  offset="0" style="stop-color:#009676"/>
		<stop  offset="1" style="stop-color:#0D5042"/>
		<stop  offset="1" style="stop-color:#FFF2E9"/>
	</linearGradient>
	<polygon clip-path="url(#SVGID_17_)" fill="url(#SVGID_18_)" points="2389.433,2393.265 2643.282,2653.46 2385.717,2904.743 
		2131.868,2644.547 	"/>
</g>
<g>
	<defs>
		<path id="SVGID_19_" d="M1961.953,1969.078h-65.477h-268.503c-102.11,0-191.8,76.848-198.2,178.758
			c-6.966,110.866,81.248,203.296,190.637,203.296h210.846c9.29,0,16.82-7.53,16.82-16.818v-31.6c0-0.001-0.002-0.001-0.002-0.001
			H1620.41c-84.567,0-152.18-73.974-141.51-160.617c8.913-72.369,74.313-124.6,147.229-124.6l270.347,0.001h121.429
			c0.505,0,0.911,0.407,0.911,0.91v177.187v0.002h30.673c9.792,0,17.729-7.938,17.729-17.729v-159.459
			c0-0.503,0.407-0.91,0.912-0.91h72.114c0.502,0,0.911,0.407,0.911,0.91v177.187c0,0.002,0.001,0.002,0.001,0.002h30.674
			c9.789,0,17.728-7.938,17.728-17.729v-208.788H1961.953z"/>
	</defs>
	<clipPath id="SVGID_20_">
		<use xlink:href="#SVGID_19_"  overflow="visible"/>
	</clipPath>
	
		<linearGradient id="SVGID_21_" gradientUnits="userSpaceOnUse" x1="-294.9009" y1="3314.2153" x2="-293.9009" y2="3314.2153" gradientTransform="matrix(1071.6257 1098.4164 1098.4164 -1071.6257 -3322853 3877379)">
		<stop  offset="0" style="stop-color:#009676"/>
		<stop  offset="1" style="stop-color:#0D5042"/>
		<stop  offset="1" style="stop-color:#FFF2E9"/>
	</linearGradient>
	<polygon clip-path="url(#SVGID_20_)" fill="url(#SVGID_21_)" points="1815.647,1585.82 2380.526,2164.821 1796.717,2734.39 
		1231.838,2155.389 	"/>
</g>
<g>
	<defs>
		<path id="SVGID_22_" d="M1896.477,2065.038v129.586v60.548v79.143c0,9.289,7.53,16.817,16.818,16.817h358.506
			c95.584,0,174.768-70.651,188.642-162.434h-48.908c-13.278,64.981-70.886,114.015-139.733,114.015h-326.922v-47.541v-60.548
			v-112.767c0-9.289-7.529-16.819-16.818-16.819H1896.477z"/>
	</defs>
	<clipPath id="SVGID_23_">
		<use xlink:href="#SVGID_22_"  overflow="visible"/>
	</clipPath>
	
		<linearGradient id="SVGID_24_" gradientUnits="userSpaceOnUse" x1="-294.9009" y1="3314.2632" x2="-293.9009" y2="3314.2632" gradientTransform="matrix(-919.8121 1437.7645 1437.7645 919.8121 -5033965 -2622667.25)">
		<stop  offset="0" style="stop-color:#2F6BB3"/>
		<stop  offset="1" style="stop-color:#273E7C"/>
	</linearGradient>
	<polygon clip-path="url(#SVGID_23_)" fill="url(#SVGID_24_)" points="2590.317,2148.125 2296.657,2607.147 1766.603,2268.044 
		2060.263,1809.022 	"/>
</g>
<g>
	<defs>
		<path id="SVGID_25_" d="M2254.777,1969.078c-9.289,0-16.817,7.529-16.817,16.818v31.601h33.842
			c71.897,0,131.378,53.523,141.078,122.784h48.907c-9.949-96.049-91.353-171.203-189.985-171.203H2254.777z"/>
	</defs>
	<clipPath id="SVGID_26_">
		<use xlink:href="#SVGID_25_"  overflow="visible"/>
	</clipPath>
	
		<linearGradient id="SVGID_27_" gradientUnits="userSpaceOnUse" x1="-294.9009" y1="3314.2397" x2="-293.9009" y2="3314.2397" gradientTransform="matrix(-919.8121 1437.7645 1437.7645 919.8121 -5033880 -2622611.25)">
		<stop  offset="0" style="stop-color:#2F6BB3"/>
		<stop  offset="1" style="stop-color:#273E7C"/>
	</linearGradient>
	<polygon clip-path="url(#SVGID_26_)" fill="url(#SVGID_27_)" points="2539.504,2018.798 2396.783,2241.888 2160.241,2090.56 
		2302.962,1867.47 	"/>
</g>
<g>
	<defs>
		<polygon id="SVGID_28_" points="1422.996,2890.288 1422.996,2988.014 1461.805,2988.014 1461.805,2978.102 1433.884,2978.102 
			1433.884,2890.288 		"/>
	</defs>
	<clipPath id="SVGID_29_">
		<use xlink:href="#SVGID_28_"  overflow="visible"/>
	</clipPath>
	
		<linearGradient id="SVGID_30_" gradientUnits="userSpaceOnUse" x1="-294.9009" y1="3314.2427" x2="-293.9009" y2="3314.2427" gradientTransform="matrix(-1058.5797 1654.6732 1654.6732 1058.5797 -5793857 -3018834.25)">
		<stop  offset="0" style="stop-color:#2F6BB3"/>
		<stop  offset="1" style="stop-color:#273E7C"/>
	</linearGradient>
	<polygon clip-path="url(#SVGID_29_)" fill="url(#SVGID_30_)" points="1506.168,2918.669 1450.534,3005.632 1378.632,2959.632 
		1434.266,2872.669 	"/>
</g>
<g>
	<defs>
		<path id="SVGID_31_" d="M1473.53,2938.034c0-8.237,3.351-12.286,10.191-12.286c6.981,0,10.471,4.049,10.471,12.286v7.818h-20.662
			V2938.034z M1462.92,2939.01v27.644c0,14.52,7.397,22.756,20.801,22.756s20.802-8.236,20.802-22.756v-1.117h-10.191v2.093
			c0,8.238-3.49,12.427-10.471,12.427c-6.841,0-10.331-4.188-10.331-12.427v-13.122h30.993v-15.497
			c0-14.519-7.398-22.615-20.802-22.615C1470.179,2916.395,1462.92,2924.492,1462.92,2939.01"/>
	</defs>
	<clipPath id="SVGID_32_">
		<use xlink:href="#SVGID_31_"  overflow="visible"/>
	</clipPath>
	
		<linearGradient id="SVGID_33_" gradientUnits="userSpaceOnUse" x1="-294.9009" y1="3314.2417" x2="-293.9009" y2="3314.2417" gradientTransform="matrix(-1058.5797 1654.6732 1654.6732 1058.5797 -5793822 -3018814.25)">
		<stop  offset="0" style="stop-color:#2F6BB3"/>
		<stop  offset="1" style="stop-color:#273E7C"/>
	</linearGradient>
	<polygon clip-path="url(#SVGID_32_)" fill="url(#SVGID_33_)" points="1537.668,2937.6 1492.441,3008.295 1429.775,2968.205 
		1475.002,2897.509 	"/>
</g>
<g>
	<defs>
		<path id="SVGID_34_" d="M1519.458,2964.419v-23.035c0-10.052,4.607-15.637,11.309-15.637c6.003,0,9.074,3.91,9.074,11.729v30.713
			c0,7.958-3.071,11.867-9.074,11.867C1524.066,2980.056,1519.458,2974.472,1519.458,2964.419 M1508.988,2890.288v97.727h7.679
			l1.396-9.912c2.932,7.538,8.237,11.308,15.776,11.308c11.028,0,16.473-6.84,16.473-20.383v-32.389
			c0-13.543-5.444-20.243-16.473-20.243c-6.282,0-11.168,2.792-14.38,8.377v-34.484H1508.988z"/>
	</defs>
	<clipPath id="SVGID_35_">
		<use xlink:href="#SVGID_34_"  overflow="visible"/>
	</clipPath>
	
		<linearGradient id="SVGID_36_" gradientUnits="userSpaceOnUse" x1="-294.9009" y1="3314.2437" x2="-293.9009" y2="3314.2437" gradientTransform="matrix(-1058.5797 1654.6732 1654.6732 1058.5797 -5793798 -3018798.25)">
		<stop  offset="0" style="stop-color:#2F6BB3"/>
		<stop  offset="1" style="stop-color:#273E7C"/>
	</linearGradient>
	<polygon clip-path="url(#SVGID_35_)" fill="url(#SVGID_36_)" points="1595.308,2919.075 1538.31,3008.168 1463.992,2960.623 
		1520.99,2871.529 	"/>
</g>
<g>
	<defs>
		<path id="SVGID_37_" d="M1563.152,2970.563c0-5.864,3.351-10.472,9.911-13.822c5.724-2.931,9.075-5.025,10.192-6.562v14.102
			c0,10.051-4.328,15.914-11.448,15.914C1566.084,2980.195,1563.152,2976.984,1563.152,2970.563 M1554.496,2936.777v1.536h9.912
			v-2.094c0-6.842,3.631-10.751,9.772-10.751c6.004,0,9.075,3.49,9.075,10.472v1.675c0,2.373-0.698,4.329-2.234,5.585
			c-1.535,1.255-5.165,3.21-11.027,5.863c-12.705,6.003-17.451,12.285-17.451,23.035c0,10.609,6.003,17.312,15.635,17.312
			c7.958,0,13.402-3.63,16.334-10.89c0.28,4.887,0.699,7.958,1.117,9.494h9.634c-0.978-4.328-1.536-10.611-1.536-19.126v-31.273
			c0-14.1-6.422-21.22-19.406-21.22C1561.616,2916.395,1554.496,2923.793,1554.496,2936.777"/>
	</defs>
	<clipPath id="SVGID_38_">
		<use xlink:href="#SVGID_37_"  overflow="visible"/>
	</clipPath>
	
		<linearGradient id="SVGID_39_" gradientUnits="userSpaceOnUse" x1="-294.9009" y1="3314.2397" x2="-293.9009" y2="3314.2397" gradientTransform="matrix(-1058.5797 1654.6732 1654.6732 1058.5797 -5793754 -3018770.25)">
		<stop  offset="0" style="stop-color:#2F6BB3"/>
		<stop  offset="1" style="stop-color:#273E7C"/>
	</linearGradient>
	<polygon clip-path="url(#SVGID_38_)" fill="url(#SVGID_39_)" points="1628.408,2937.6 1582.855,3008.802 1519.396,2968.205 
		1564.949,2897.001 	"/>
</g>
<g>
	<defs>
		<path id="SVGID_40_" d="M1609.08,2927.004l-0.141-9.214h-9.074v70.224h10.471v-46.63c0-10.052,4.468-15.637,11.029-15.637
			c5.863,0,8.795,4.049,8.795,12.286v49.98h10.61v-51.376c0-13.543-5.445-20.243-16.194-20.243
			C1617.177,2916.395,1612.011,2919.884,1609.08,2927.004"/>
	</defs>
	<clipPath id="SVGID_41_">
		<use xlink:href="#SVGID_40_"  overflow="visible"/>
	</clipPath>
	
		<linearGradient id="SVGID_42_" gradientUnits="userSpaceOnUse" x1="-294.9009" y1="3314.2427" x2="-293.9009" y2="3314.2427" gradientTransform="matrix(-1058.5797 1654.6732 1654.6732 1058.5797 -5793725 -3018750.25)">
		<stop  offset="0" style="stop-color:#2F6BB3"/>
		<stop  offset="1" style="stop-color:#273E7C"/>
	</linearGradient>
	<polygon clip-path="url(#SVGID_41_)" fill="url(#SVGID_42_)" points="1673.282,2937.195 1628.89,3006.583 1567.353,2967.214 
		1611.745,2897.826 	"/>
</g>
<g>
	<defs>
		<path id="SVGID_43_" d="M1655.844,2938.034c0-8.237,3.351-12.286,10.192-12.286c6.979,0,10.471,4.049,10.471,12.286v7.818h-20.663
			V2938.034z M1645.234,2939.01v27.644c0,14.52,7.4,22.756,20.803,22.756s20.802-8.236,20.802-22.756v-1.117h-10.192v2.093
			c0,8.238-3.49,12.427-10.47,12.427c-6.841,0-10.332-4.188-10.332-12.427v-13.122h30.994v-15.497
			c0-14.519-7.399-22.615-20.802-22.615C1652.494,2916.395,1645.234,2924.492,1645.234,2939.01"/>
	</defs>
	<clipPath id="SVGID_44_">
		<use xlink:href="#SVGID_43_"  overflow="visible"/>
	</clipPath>
	
		<linearGradient id="SVGID_45_" gradientUnits="userSpaceOnUse" x1="-294.9009" y1="3314.2417" x2="-293.9009" y2="3314.2417" gradientTransform="matrix(-1058.5797 1654.6732 1654.6732 1058.5797 -5793692 -3018730.25)">
		<stop  offset="0" style="stop-color:#2F6BB3"/>
		<stop  offset="1" style="stop-color:#273E7C"/>
	</linearGradient>
	<polygon clip-path="url(#SVGID_44_)" fill="url(#SVGID_45_)" points="1719.984,2937.6 1674.755,3008.296 1612.088,2968.205 
		1657.317,2897.508 	"/>
</g>
<g>
	<defs>
		<path id="SVGID_46_" d="M1689.069,2935.102c0,6.143,1.675,10.75,5.584,14.239c1.954,1.816,3.63,3.071,4.886,3.909
			c1.258,0.838,3.352,1.955,6.144,3.49c5.166,2.653,7.818,4.049,10.192,7.54c1.256,1.675,1.953,3.629,1.953,5.724
			c0,6.841-3.211,10.19-9.633,10.19s-9.633-3.629-9.633-10.749v-2.653h-10.191v2.374c0,12.704,7.539,20.243,20.384,20.243
			c12.424,0,19.545-7.399,19.545-19.546c0-6.003-1.676-10.47-5.445-13.82c-3.769-3.489-5.864-4.747-11.029-7.399
			c-5.584-2.792-7.956-4.049-10.61-7.538c-1.256-1.816-1.954-3.91-1.954-6.144c0-6.143,3.77-9.494,8.935-9.494
			c6.003,0,8.936,3.352,8.936,10.192v1.675h9.913v-1.396c0-12.146-7.4-19.545-18.988-19.545
			C1696.189,2916.395,1689.069,2923.515,1689.069,2935.102"/>
	</defs>
	<clipPath id="SVGID_47_">
		<use xlink:href="#SVGID_46_"  overflow="visible"/>
	</clipPath>
	
		<linearGradient id="SVGID_48_" gradientUnits="userSpaceOnUse" x1="-294.9009" y1="3314.2417" x2="-293.9009" y2="3314.2417" gradientTransform="matrix(-1058.5797 1654.6732 1654.6732 1058.5797 -5793662 -3018710.25)">
		<stop  offset="0" style="stop-color:#2F6BB3"/>
		<stop  offset="1" style="stop-color:#273E7C"/>
	</linearGradient>
	<polygon clip-path="url(#SVGID_47_)" fill="url(#SVGID_48_)" points="1761.445,2937.6 1716.703,3007.536 1655.224,2968.205 
		1699.966,2898.269 	"/>
</g>
<g>
	<defs>
		<path id="SVGID_49_" d="M1740.86,2938.034c0-8.237,3.351-12.286,10.191-12.286c6.979,0,10.471,4.049,10.471,12.286v7.818h-20.662
			V2938.034z M1730.25,2939.01v27.644c0,14.52,7.399,22.756,20.802,22.756c13.403,0,20.802-8.236,20.802-22.756v-1.117h-10.191
			v2.093c0,8.238-3.49,12.427-10.471,12.427c-6.841,0-10.331-4.188-10.331-12.427v-13.122h30.993v-15.497
			c0-14.519-7.398-22.615-20.802-22.615C1737.51,2916.395,1730.25,2924.492,1730.25,2939.01"/>
	</defs>
	<clipPath id="SVGID_50_">
		<use xlink:href="#SVGID_49_"  overflow="visible"/>
	</clipPath>
	
		<linearGradient id="SVGID_51_" gradientUnits="userSpaceOnUse" x1="-294.9009" y1="3314.2417" x2="-293.9009" y2="3314.2417" gradientTransform="matrix(-1058.5797 1654.6732 1654.6732 1058.5797 -5793632 -3018690.25)">
		<stop  offset="0" style="stop-color:#2F6BB3"/>
		<stop  offset="1" style="stop-color:#273E7C"/>
	</linearGradient>
	<polygon clip-path="url(#SVGID_50_)" fill="url(#SVGID_51_)" points="1804.999,2937.6 1759.77,3008.296 1697.103,2968.205 
		1742.332,2897.508 	"/>
</g>
<g>
	<defs>
		<polygon id="SVGID_52_" points="1836.487,2890.288 1822.248,2968.329 1807.867,2890.288 1792.092,2890.288 1792.092,2988.014 
			1801.724,2988.014 1801.724,2906.483 1817.222,2988.014 1826.435,2988.014 1841.932,2906.483 1841.932,2988.014 
			1852.403,2988.014 1852.403,2890.288 		"/>
	</defs>
	<clipPath id="SVGID_53_">
		<use xlink:href="#SVGID_52_"  overflow="visible"/>
	</clipPath>
	
		<linearGradient id="SVGID_54_" gradientUnits="userSpaceOnUse" x1="-294.9009" y1="3314.2427" x2="-293.9009" y2="3314.2427" gradientTransform="matrix(-1058.5797 1654.6732 1654.6732 1058.5797 -5793588 -3018662.25)">
		<stop  offset="0" style="stop-color:#2F6BB3"/>
		<stop  offset="1" style="stop-color:#273E7C"/>
	</linearGradient>
	<polygon clip-path="url(#SVGID_53_)" fill="url(#SVGID_54_)" points="1896.766,2918.669 1834.887,3015.392 1747.729,2959.632 
		1809.607,2862.91 	"/>
</g>
<g>
	<defs>
		<path id="SVGID_55_" d="M1867.894,2938.034c0-8.237,3.352-12.286,10.192-12.286c6.979,0,10.471,4.049,10.471,12.286v7.818h-20.663
			V2938.034z M1857.285,2939.01v27.644c0,14.52,7.399,22.756,20.802,22.756s20.802-8.236,20.802-22.756v-1.117h-10.192v2.093
			c0,8.238-3.489,12.427-10.471,12.427c-6.84,0-10.331-4.188-10.331-12.427v-13.122h30.994v-15.497
			c0-14.519-7.399-22.615-20.802-22.615C1864.545,2916.395,1857.285,2924.492,1857.285,2939.01"/>
	</defs>
	<clipPath id="SVGID_56_">
		<use xlink:href="#SVGID_55_"  overflow="visible"/>
	</clipPath>
	
		<linearGradient id="SVGID_57_" gradientUnits="userSpaceOnUse" x1="-294.9009" y1="3314.2427" x2="-293.9009" y2="3314.2427" gradientTransform="matrix(-1058.5797 1654.6732 1654.6732 1058.5797 -5793542 -3018634.25)">
		<stop  offset="0" style="stop-color:#2F6BB3"/>
		<stop  offset="1" style="stop-color:#273E7C"/>
	</linearGradient>
	<polygon clip-path="url(#SVGID_56_)" fill="url(#SVGID_57_)" points="1932.034,2937.6 1886.805,3008.296 1824.138,2968.205 
		1869.367,2897.508 	"/>
</g>
<g>
	<defs>
		<path id="SVGID_58_" d="M1913.126,2968.189v-30.713c0-7.818,2.931-11.729,8.934-11.729c6.701,0,11.309,5.585,11.309,15.637v23.035
			c0,10.053-4.607,15.637-11.309,15.637C1916.057,2980.056,1913.126,2976.147,1913.126,2968.189 M1933.369,2890.288v34.484
			c-3.211-5.585-8.098-8.377-14.52-8.377c-10.889,0-16.334,6.7-16.334,20.243v32.389c0,13.543,5.445,20.383,16.334,20.383
			c7.398,0,12.704-3.63,15.775-10.89c0.14,4.606,0.56,7.818,1.117,9.494h9.633c-0.978-4.328-1.535-10.611-1.535-19.126v-78.601
			H1933.369z"/>
	</defs>
	<clipPath id="SVGID_59_">
		<use xlink:href="#SVGID_58_"  overflow="visible"/>
	</clipPath>
	
		<linearGradient id="SVGID_60_" gradientUnits="userSpaceOnUse" x1="-294.9009" y1="3314.2378" x2="-293.9009" y2="3314.2378" gradientTransform="matrix(-1058.5797 1654.6732 1654.6732 1058.5797 -5793507 -3018610.25)">
		<stop  offset="0" style="stop-color:#2F6BB3"/>
		<stop  offset="1" style="stop-color:#273E7C"/>
	</linearGradient>
	<polygon clip-path="url(#SVGID_59_)" fill="url(#SVGID_60_)" points="1990.371,2919.075 1932.927,3008.866 1857.518,2960.623 
		1914.962,2870.832 	"/>
</g>
<g>
	<defs>
		<path id="SVGID_61_" d="M1950.257,2988.014h10.47v-70.224h-10.47V2988.014z M1950.257,2907.739h10.47v-15.078h-10.47V2907.739z"/>
	</defs>
	<clipPath id="SVGID_62_">
		<use xlink:href="#SVGID_61_"  overflow="visible"/>
	</clipPath>
	
		<linearGradient id="SVGID_63_" gradientUnits="userSpaceOnUse" x1="-294.9009" y1="3314.2417" x2="-293.9009" y2="3314.2417" gradientTransform="matrix(-1058.5797 1654.6732 1654.6732 1058.5797 -5793493 -3018602.25)">
		<stop  offset="0" style="stop-color:#2F6BB3"/>
		<stop  offset="1" style="stop-color:#273E7C"/>
	</linearGradient>
	<polygon clip-path="url(#SVGID_62_)" fill="url(#SVGID_63_)" points="2004.013,2920.353 1957.686,2992.767 1906.971,2960.322 
		1953.297,2887.908 	"/>
</g>
<g>
	<defs>
		<path id="SVGID_64_" d="M1965.751,2938.732v28.201c0,14.519,7.119,22.477,20.522,22.477c13.263,0,20.104-8.098,20.104-22.477
			v-4.469h-10.191v5.445c0,8.098-3.351,12.146-9.912,12.146s-9.913-4.049-9.913-12.146v-30.155c0-7.958,3.352-12.007,9.913-12.007
			s9.912,4.049,9.912,12.007v4.048h10.191v-3.07c0-14.102-6.841-22.337-20.104-22.337
			C1972.871,2916.395,1965.751,2924.212,1965.751,2938.732"/>
	</defs>
	<clipPath id="SVGID_65_">
		<use xlink:href="#SVGID_64_"  overflow="visible"/>
	</clipPath>
	
		<linearGradient id="SVGID_66_" gradientUnits="userSpaceOnUse" x1="-294.9009" y1="3314.2437" x2="-293.9009" y2="3314.2437" gradientTransform="matrix(-1058.5797 1654.6732 1654.6732 1058.5797 -5793465 -3018586.25)">
		<stop  offset="0" style="stop-color:#2F6BB3"/>
		<stop  offset="1" style="stop-color:#273E7C"/>
	</linearGradient>
	<polygon clip-path="url(#SVGID_65_)" fill="url(#SVGID_66_)" points="2039.523,2937.6 1994.579,3007.852 1932.605,2968.205 
		1977.549,2897.953 	"/>
</g>
<g>
	<defs>
		<path id="SVGID_67_" d="M2010.283,2988.014h10.472v-70.224h-10.472V2988.014z M2010.283,2907.739h10.472v-15.078h-10.472V2907.739
			z"/>
	</defs>
	<clipPath id="SVGID_68_">
		<use xlink:href="#SVGID_67_"  overflow="visible"/>
	</clipPath>
	
		<linearGradient id="SVGID_69_" gradientUnits="userSpaceOnUse" x1="-294.9009" y1="3314.2427" x2="-293.9009" y2="3314.2427" gradientTransform="matrix(-1058.5797 1654.6732 1654.6732 1058.5797 -5793450 -3018574.25)">
		<stop  offset="0" style="stop-color:#2F6BB3"/>
		<stop  offset="1" style="stop-color:#273E7C"/>
	</linearGradient>
	<polygon clip-path="url(#SVGID_68_)" fill="url(#SVGID_69_)" points="2064.041,2920.353 2017.712,2992.767 1966.998,2960.322 
		2013.324,2887.908 	"/>
</g>
<g>
	<defs>
		<path id="SVGID_70_" d="M2036.388,2927.004l-0.141-9.214h-9.073v70.224h10.47v-46.63c0-10.052,4.468-15.637,11.03-15.637
			c5.862,0,8.795,4.049,8.795,12.286v49.98h10.61v-51.376c0-13.543-5.445-20.243-16.195-20.243
			C2044.485,2916.395,2039.319,2919.884,2036.388,2927.004"/>
	</defs>
	<clipPath id="SVGID_71_">
		<use xlink:href="#SVGID_70_"  overflow="visible"/>
	</clipPath>
	
		<linearGradient id="SVGID_72_" gradientUnits="userSpaceOnUse" x1="-294.9009" y1="3314.2417" x2="-293.9009" y2="3314.2417" gradientTransform="matrix(-1058.5797 1654.6732 1654.6732 1058.5797 -5793421 -3018558.25)">
		<stop  offset="0" style="stop-color:#2F6BB3"/>
		<stop  offset="1" style="stop-color:#273E7C"/>
	</linearGradient>
	<polygon clip-path="url(#SVGID_71_)" fill="url(#SVGID_72_)" points="2100.591,2937.195 2056.2,3006.583 1994.663,2967.214 
		2039.054,2897.826 	"/>
</g>
<g>
	<defs>
		<path id="SVGID_73_" d="M2083.154,2938.034c0-8.237,3.351-12.286,10.191-12.286c6.98,0,10.471,4.049,10.471,12.286v7.818h-20.662
			V2938.034z M2072.543,2939.01v27.644c0,14.52,7.399,22.756,20.802,22.756s20.801-8.236,20.801-22.756v-1.117h-10.191v2.093
			c0,8.238-3.489,12.427-10.47,12.427c-6.841,0-10.331-4.188-10.331-12.427v-13.122h30.992v-15.497
			c0-14.519-7.398-22.615-20.801-22.615C2079.803,2916.395,2072.543,2924.492,2072.543,2939.01"/>
	</defs>
	<clipPath id="SVGID_74_">
		<use xlink:href="#SVGID_73_"  overflow="visible"/>
	</clipPath>
	
		<linearGradient id="SVGID_75_" gradientUnits="userSpaceOnUse" x1="-294.9009" y1="3314.2417" x2="-293.9009" y2="3314.2417" gradientTransform="matrix(-1058.5797 1654.6732 1654.6732 1058.5797 -5793389 -3018534.25)">
		<stop  offset="0" style="stop-color:#2F6BB3"/>
		<stop  offset="1" style="stop-color:#273E7C"/>
	</linearGradient>
	<polygon clip-path="url(#SVGID_74_)" fill="url(#SVGID_75_)" points="2147.292,2937.6 2102.064,3008.296 2039.398,2968.205 
		2084.625,2897.509 	"/>
</g>
<g>
	<defs>
		<path id="SVGID_76_" d="M2145.274,2900.2h11.169c7.819,0,11.448,3.77,11.448,13.263v51.236c0,9.493-3.629,13.403-11.448,13.403
			h-11.169V2900.2z M2134.385,2890.288v97.727h22.337c14.659,0,22.058-7.958,22.058-23.733v-50.26
			c0-15.775-7.398-23.733-22.058-23.733H2134.385z"/>
	</defs>
	<clipPath id="SVGID_77_">
		<use xlink:href="#SVGID_76_"  overflow="visible"/>
	</clipPath>
	
		<linearGradient id="SVGID_78_" gradientUnits="userSpaceOnUse" x1="-294.9009" y1="3314.2437" x2="-293.9009" y2="3314.2437" gradientTransform="matrix(-1058.5797 1654.6732 1654.6732 1058.5797 -5793354 -3018514.25)">
		<stop  offset="0" style="stop-color:#2F6BB3"/>
		<stop  offset="1" style="stop-color:#273E7C"/>
	</linearGradient>
	<polygon clip-path="url(#SVGID_77_)" fill="url(#SVGID_78_)" points="2223.143,2918.669 2165.887,3008.167 2090.021,2959.632 
		2147.278,2870.134 	"/>
</g>
<g>
	<defs>
		<path id="SVGID_79_" d="M2184.082,2988.014h10.471v-70.224h-10.471V2988.014z M2184.082,2907.739h10.471v-15.078h-10.471V2907.739
			z"/>
	</defs>
	<clipPath id="SVGID_80_">
		<use xlink:href="#SVGID_79_"  overflow="visible"/>
	</clipPath>
	
		<linearGradient id="SVGID_81_" gradientUnits="userSpaceOnUse" x1="-294.9009" y1="3314.2427" x2="-293.9009" y2="3314.2427" gradientTransform="matrix(-1058.5797 1654.6732 1654.6732 1058.5797 -5793327 -3018494.25)">
		<stop  offset="0" style="stop-color:#2F6BB3"/>
		<stop  offset="1" style="stop-color:#273E7C"/>
	</linearGradient>
	<polygon clip-path="url(#SVGID_80_)" fill="url(#SVGID_81_)" points="2237.837,2920.353 2191.511,2992.767 2140.796,2960.322 
		2187.123,2887.908 	"/>
</g>
<g>
	<defs>
		<path id="SVGID_82_" d="M2210.187,2929.377l-0.14-11.587h-9.074v70.224h10.47v-40.905c0-13.543,4.607-20.244,13.682-20.244
			c1.676,0,3.072,0.279,4.328,0.698v-10.331c-1.116-0.56-2.652-0.837-4.607-0.837
			C2217.446,2916.395,2212.56,2920.722,2210.187,2929.377"/>
	</defs>
	<clipPath id="SVGID_83_">
		<use xlink:href="#SVGID_82_"  overflow="visible"/>
	</clipPath>
	
		<linearGradient id="SVGID_84_" gradientUnits="userSpaceOnUse" x1="-294.9009" y1="3314.2456" x2="-293.9009" y2="3314.2456" gradientTransform="matrix(-1058.5797 1654.6732 1654.6732 1058.5797 -5793309 -3018486.25)">
		<stop  offset="0" style="stop-color:#2F6BB3"/>
		<stop  offset="1" style="stop-color:#273E7C"/>
	</linearGradient>
	<polygon clip-path="url(#SVGID_83_)" fill="url(#SVGID_84_)" points="2261.964,2937.194 2221.181,3000.942 2168.461,2967.214 
		2209.244,2903.466 	"/>
</g>
<g>
	<defs>
		<path id="SVGID_85_" d="M2239.364,2938.034c0-8.237,3.352-12.286,10.192-12.286c6.979,0,10.469,4.049,10.469,12.286v7.818h-20.661
			V2938.034z M2228.754,2939.01v27.644c0,14.52,7.398,22.756,20.802,22.756c13.4,0,20.8-8.236,20.8-22.756v-1.117h-10.19v2.093
			c0,8.238-3.49,12.427-10.471,12.427c-6.841,0-10.331-4.188-10.331-12.427v-13.122h30.992v-15.497
			c0-14.519-7.399-22.615-20.8-22.615C2236.013,2916.395,2228.754,2924.492,2228.754,2939.01"/>
	</defs>
	<clipPath id="SVGID_86_">
		<use xlink:href="#SVGID_85_"  overflow="visible"/>
	</clipPath>
	
		<linearGradient id="SVGID_87_" gradientUnits="userSpaceOnUse" x1="-294.9009" y1="3314.2437" x2="-293.9009" y2="3314.2437" gradientTransform="matrix(-1058.5797 1654.6732 1654.6732 1058.5797 -5793278 -3018466.25)">
		<stop  offset="0" style="stop-color:#2F6BB3"/>
		<stop  offset="1" style="stop-color:#273E7C"/>
	</linearGradient>
	<polygon clip-path="url(#SVGID_86_)" fill="url(#SVGID_87_)" points="2303.501,2937.6 2258.274,3008.295 2195.609,2968.205 
		2240.836,2897.509 	"/>
</g>
<g>
	<defs>
		<path id="SVGID_88_" d="M2273.705,2938.732v28.201c0,14.519,7.119,22.477,20.522,22.477c13.262,0,20.103-8.098,20.103-22.477
			v-4.469h-10.19v5.445c0,8.098-3.351,12.146-9.912,12.146s-9.913-4.049-9.913-12.146v-30.155c0-7.958,3.352-12.007,9.913-12.007
			s9.912,4.049,9.912,12.007v4.048h10.19v-3.07c0-14.102-6.841-22.337-20.103-22.337
			C2280.824,2916.395,2273.705,2924.212,2273.705,2938.732"/>
	</defs>
	<clipPath id="SVGID_89_">
		<use xlink:href="#SVGID_88_"  overflow="visible"/>
	</clipPath>
	
		<linearGradient id="SVGID_90_" gradientUnits="userSpaceOnUse" x1="-294.9009" y1="3314.2417" x2="-293.9009" y2="3314.2417" gradientTransform="matrix(-1058.5797 1654.6732 1654.6732 1058.5797 -5793247 -3018446.25)">
		<stop  offset="0" style="stop-color:#2F6BB3"/>
		<stop  offset="1" style="stop-color:#273E7C"/>
	</linearGradient>
	<polygon clip-path="url(#SVGID_89_)" fill="url(#SVGID_90_)" points="2347.476,2937.599 2302.532,3007.852 2240.558,2968.205 
		2285.502,2897.953 	"/>
</g>
<g>
	<defs>
		<path id="SVGID_91_" d="M2323.96,2897.546l-1.117,20.244h-9.074v8.935h8.656v46.629c0,10.751,5.165,16.056,15.496,16.056
			c3.072,0,5.724-0.419,7.817-1.396v-9.074c-1.814,0.696-3.769,1.116-5.862,1.116c-5.027,0-6.842-2.234-6.842-7.818v-45.513h12.704
			v-8.935h-12.704v-20.244H2323.96z"/>
	</defs>
	<clipPath id="SVGID_92_">
		<use xlink:href="#SVGID_91_"  overflow="visible"/>
	</clipPath>
	
		<linearGradient id="SVGID_93_" gradientUnits="userSpaceOnUse" x1="-294.9009" y1="3314.2407" x2="-293.9009" y2="3314.2407" gradientTransform="matrix(-1058.5797 1654.6732 1654.6732 1058.5797 -5793222 -3018430.25)">
		<stop  offset="0" style="stop-color:#2F6BB3"/>
		<stop  offset="1" style="stop-color:#273E7C"/>
	</linearGradient>
	<polygon clip-path="url(#SVGID_92_)" fill="url(#SVGID_93_)" points="2387.441,2924.225 2336.455,3003.922 2272.067,2962.731 
		2323.054,2883.034 	"/>
</g>
<g>
	<defs>
		<path id="SVGID_94_" d="M2357.187,2967.629v-29.596c0-8.237,3.35-12.286,10.191-12.286c6.701,0,10.052,4.049,10.052,12.286v29.596
			c0,8.238-3.351,12.427-10.052,12.427C2360.537,2980.056,2357.187,2975.868,2357.187,2967.629 M2346.716,2939.01v27.644
			c0,14.52,7.259,22.756,20.662,22.756c13.263,0,20.662-8.236,20.662-22.756v-27.644c0-14.519-7.399-22.615-20.662-22.615
			C2353.975,2916.395,2346.716,2924.492,2346.716,2939.01"/>
	</defs>
	<clipPath id="SVGID_95_">
		<use xlink:href="#SVGID_94_"  overflow="visible"/>
	</clipPath>
	
		<linearGradient id="SVGID_96_" gradientUnits="userSpaceOnUse" x1="-294.9009" y1="3314.2427" x2="-293.9009" y2="3314.2427" gradientTransform="matrix(-1058.5797 1654.6732 1654.6732 1058.5797 -5793195 -3018410.25)">
		<stop  offset="0" style="stop-color:#2F6BB3"/>
		<stop  offset="1" style="stop-color:#273E7C"/>
	</linearGradient>
	<polygon clip-path="url(#SVGID_95_)" fill="url(#SVGID_96_)" points="2421.185,2937.6 2376.039,3008.169 2313.57,2968.205 
		2358.717,2897.635 	"/>
</g>
<g>
	<defs>
		<path id="SVGID_97_" d="M2402.137,2929.377l-0.14-11.587h-9.075v70.224h10.471v-40.905c0-13.543,4.606-20.244,13.681-20.244
			c1.676,0,3.072,0.279,4.328,0.698v-10.331c-1.115-0.56-2.652-0.837-4.606-0.837
			C2409.396,2916.395,2404.51,2920.722,2402.137,2929.377"/>
	</defs>
	<clipPath id="SVGID_98_">
		<use xlink:href="#SVGID_97_"  overflow="visible"/>
	</clipPath>
	
		<linearGradient id="SVGID_99_" gradientUnits="userSpaceOnUse" x1="-294.9009" y1="3314.2456" x2="-293.9009" y2="3314.2456" gradientTransform="matrix(-1058.5797 1654.6732 1654.6732 1058.5797 -5793173 -3018398.25)">
		<stop  offset="0" style="stop-color:#2F6BB3"/>
		<stop  offset="1" style="stop-color:#273E7C"/>
	</linearGradient>
	<polygon clip-path="url(#SVGID_98_)" fill="url(#SVGID_99_)" points="2453.914,2937.195 2413.13,3000.943 2360.41,2967.214 
		2401.193,2903.466 	"/>
</g>
<g>
	<defs>
		<path id="SVGID_100_" d="M2454.207,2917.791l-11.447,53.469l-12.704-53.469h-10.749l17.869,71.061l-1.256,5.585
			c-1.258,5.585-3.071,7.259-8.099,7.259c-2.232,0-4.048-0.418-5.584-1.116v9.074c1.675,0.978,4.05,1.396,7.121,1.396
			c9.632,0,14.519-4.326,16.892-15.078l2.933-12.844l14.798-65.336H2454.207z"/>
	</defs>
	<clipPath id="SVGID_101_">
		<use xlink:href="#SVGID_100_"  overflow="visible"/>
	</clipPath>
	
		<linearGradient id="SVGID_102_" gradientUnits="userSpaceOnUse" x1="-294.9009" y1="3314.2485" x2="-293.9009" y2="3314.2485" gradientTransform="matrix(-1058.5797 1654.6732 1654.6732 1058.5797 -5793146 -3018378.25)">
		<stop  offset="0" style="stop-color:#2F6BB3"/>
		<stop  offset="1" style="stop-color:#273E7C"/>
	</linearGradient>
	<polygon clip-path="url(#SVGID_101_)" fill="url(#SVGID_102_)" points="2506.315,2944.875 2451.005,3031.329 2376.971,2983.964 
		2432.281,2897.51 	"/>
</g>
<g>
	<defs>
		<rect id="SVGID_103_" x="-1570.408" y="-877.91" width="1064.488" height="1064.488"/>
	</defs>
	<clipPath id="SVGID_104_">
		<use xlink:href="#SVGID_103_"  overflow="visible"/>
	</clipPath>
	
		<linearGradient id="SVGID_105_" gradientUnits="userSpaceOnUse" x1="-298.8208" y1="3313.4546" x2="-297.8208" y2="3313.4546" gradientTransform="matrix(645.1898 552.3568 552.3568 -645.1898 -1638798.625 2302217.25)">
		<stop  offset="0" style="stop-color:#009676"/>
		<stop  offset="1" style="stop-color:#0D5042"/>
		<stop  offset="1" style="stop-color:#FFF2E9"/>
	</linearGradient>
	<polygon clip-path="url(#SVGID_104_)" fill="url(#SVGID_105_)" points="-1120.189,-1403.795 19.966,-427.691 -956.138,712.464 
		-2096.293,-263.64 	"/>
</g>
<g>
	<defs>
		<path id="SVGID_106_" d="M-1027.897-460.51h-45.783h-187.742c-71.398,0-134.111,53.734-138.588,124.992
			c-4.87,77.52,56.812,142.149,133.298,142.149h147.428c6.496,0,11.761-5.266,11.761-11.76v-22.094c0-0.001-0.001-0.001-0.001-0.001
			h-159.188c-59.131,0-106.408-51.725-98.946-112.308c6.232-50.603,51.961-87.123,102.946-87.123l189.032,0.001h84.905
			c0.353,0,0.639,0.285,0.639,0.636v123.895v0.001h21.446c6.847,0,12.396-5.55,12.396-12.397v-111.498
			c0-0.351,0.286-0.636,0.637-0.636h50.427c0.351,0,0.636,0.285,0.636,0.636v123.895c0,0.001,0.001,0.001,0.001,0.001h21.447
			c6.846,0,12.396-5.55,12.396-12.397v-145.99H-1027.897z"/>
	</defs>
	<clipPath id="SVGID_107_">
		<use xlink:href="#SVGID_106_"  overflow="visible"/>
	</clipPath>
	
		<linearGradient id="SVGID_108_" gradientUnits="userSpaceOnUse" x1="-298.1167" y1="3313.3511" x2="-297.1167" y2="3313.3511" gradientTransform="matrix(731.339 711.024 711.024 -731.339 -2139181.75 2634632)">
		<stop  offset="0" style="stop-color:#FFFFFF"/>
		<stop  offset="8.073430e-008" style="stop-color:#FFFFFF"/>
		<stop  offset="1" style="stop-color:#898B8D"/>
	</linearGradient>
	<polygon clip-path="url(#SVGID_107_)" fill="url(#SVGID_108_)" points="-1144.366,-728.468 -735.234,-330.701 -1129.266,74.589 
		-1538.398,-323.177 	"/>
</g>
<g>
	<defs>
		<path id="SVGID_109_" d="M-1073.68-393.412v90.609v42.336v55.339c0,6.494,5.266,11.759,11.761,11.759h250.674
			c66.836,0,122.203-49.402,131.904-113.577h-34.198c-9.285,45.436-49.564,79.722-97.706,79.722h-228.59v-33.243v-42.336v-78.849
			c0-6.495-5.265-11.76-11.76-11.76H-1073.68z"/>
	</defs>
	<clipPath id="SVGID_110_">
		<use xlink:href="#SVGID_109_"  overflow="visible"/>
	</clipPath>
	
		<linearGradient id="SVGID_111_" gradientUnits="userSpaceOnUse" x1="-298.1167" y1="3313.4067" x2="-297.1167" y2="3313.4067" gradientTransform="matrix(731.339 711.024 711.024 -731.339 -2139111.75 2634560.5)">
		<stop  offset="0" style="stop-color:#FFFFFF"/>
		<stop  offset="8.073430e-008" style="stop-color:#FFFFFF"/>
		<stop  offset="1" style="stop-color:#898B8D"/>
	</linearGradient>
	<polygon clip-path="url(#SVGID_110_)" fill="url(#SVGID_111_)" points="-882.064,-590.502 -579.36,-296.207 -870.958,3.722 
		-1173.662,-290.573 	"/>
</g>
<g>
	<defs>
		<path id="SVGID_112_" d="M-823.149-460.51c-6.494,0-11.759,5.266-11.759,11.76v22.096h23.662
			c50.274,0,91.864,37.424,98.646,85.853h34.197c-6.957-67.159-63.875-119.709-132.843-119.709H-823.149z"/>
	</defs>
	<clipPath id="SVGID_113_">
		<use xlink:href="#SVGID_112_"  overflow="visible"/>
	</clipPath>
	
		<linearGradient id="SVGID_114_" gradientUnits="userSpaceOnUse" x1="-298.1167" y1="3313.3765" x2="-297.1167" y2="3313.3765" gradientTransform="matrix(731.339 711.024 711.024 -731.339 -2138977.75 2634422.75)">
		<stop  offset="0" style="stop-color:#FFFFFF"/>
		<stop  offset="8.073430e-008" style="stop-color:#FFFFFF"/>
		<stop  offset="1" style="stop-color:#898B8D"/>
	</linearGradient>
	<polygon clip-path="url(#SVGID_113_)" fill="url(#SVGID_114_)" points="-758.859,-538.731 -618.572,-402.341 -754.452,-262.58 
		-894.739,-398.969 	"/>
</g>
<g>
	<defs>
		<path id="SVGID_115_" d="M-755.989-515.607h5.635c2.913,0,5.004,0.71,6.27,2.128c1.265,1.42,1.896,3.968,1.896,7.647v7.016
			c0,2.914-0.537,4.964-1.608,6.152c-1.075,1.19-2.724,1.783-4.945,1.783h-7.247V-515.607z M-755.989-548.382h6.098
			c2.223,0,3.851,0.652,4.888,1.956c1.034,1.304,1.551,3.412,1.551,6.324v4.486c0,3.067-0.632,5.252-1.897,6.554
			c-1.266,1.305-3.162,1.956-5.693,1.956h-4.945V-548.382z M-768.637-559.88v80.499h19.896c6.285,0,11.058-1.627,14.316-4.887
			c3.259-3.258,4.887-7.993,4.887-14.202v-6.901c0-9.045-3.144-14.642-9.428-16.789v-0.23c2.759-1.151,4.811-3.028,6.151-5.636
			c1.34-2.605,2.014-5.979,2.014-10.119v-3.22c0-6.286-1.496-10.944-4.486-13.973c-2.989-3.027-7.744-4.542-14.26-4.542H-768.637z"
			/>
	</defs>
	<clipPath id="SVGID_116_">
		<use xlink:href="#SVGID_115_"  overflow="visible"/>
	</clipPath>
	
		<linearGradient id="SVGID_117_" gradientUnits="userSpaceOnUse" x1="-304.6787" y1="3312.271" x2="-303.6787" y2="3312.271" gradientTransform="matrix(258.3246 221.6828 221.6828 -258.3246 -656374 922614.8125)">
		<stop  offset="0" style="stop-color:#FFFFFF"/>
		<stop  offset="8.073430e-008" style="stop-color:#FFFFFF"/>
		<stop  offset="1" style="stop-color:#898B8D"/>
	</linearGradient>
	<polygon clip-path="url(#SVGID_116_)" fill="url(#SVGID_117_)" points="-752.055,-579.204 -689.755,-525.741 -746.121,-460.059 
		-808.42,-513.522 	"/>
</g>
<g>
	<defs>
		<polygon id="SVGID_118_" points="-722.177,-559.88 -722.177,-479.382 -687.677,-479.382 -687.677,-490.88 -709.53,-490.88 
			-709.53,-515.607 -692.164,-515.607 -692.164,-527.106 -709.53,-527.106 -709.53,-548.382 -687.677,-548.382 -687.677,-559.88 		
			"/>
	</defs>
	<clipPath id="SVGID_119_">
		<use xlink:href="#SVGID_118_"  overflow="visible"/>
	</clipPath>
	
		<linearGradient id="SVGID_120_" gradientUnits="userSpaceOnUse" x1="-304.6787" y1="3312.2603" x2="-303.6787" y2="3312.2603" gradientTransform="matrix(258.3246 221.6828 221.6828 -258.3246 -656352.75 922590.25)">
		<stop  offset="0" style="stop-color:#FFFFFF"/>
		<stop  offset="8.073430e-008" style="stop-color:#FFFFFF"/>
		<stop  offset="1" style="stop-color:#898B8D"/>
	</linearGradient>
	<polygon clip-path="url(#SVGID_119_)" fill="url(#SVGID_120_)" points="-707.546,-576.931 -647.895,-525.74 -702.309,-462.332 
		-761.96,-513.522 	"/>
</g>
<g>
	<defs>
		<polygon id="SVGID_121_" points="-683.768,-559.88 -683.768,-548.382 -670.544,-548.382 -670.544,-479.382 -657.893,-479.382 
			-657.893,-548.382 -644.669,-548.382 -644.669,-559.88 		"/>
	</defs>
	<clipPath id="SVGID_122_">
		<use xlink:href="#SVGID_121_"  overflow="visible"/>
	</clipPath>
	
		<linearGradient id="SVGID_123_" gradientUnits="userSpaceOnUse" x1="-304.6787" y1="3312.2485" x2="-303.6787" y2="3312.2485" gradientTransform="matrix(258.3246 221.6828 221.6828 -258.3246 -656332.75 922566.875)">
		<stop  offset="0" style="stop-color:#FFFFFF"/>
		<stop  offset="8.073430e-008" style="stop-color:#FFFFFF"/>
		<stop  offset="1" style="stop-color:#898B8D"/>
	</linearGradient>
	<polygon clip-path="url(#SVGID_122_)" fill="url(#SVGID_123_)" points="-667.186,-579.204 -604.887,-525.741 -661.252,-460.059 
		-723.551,-513.522 	"/>
</g>
<g>
	<defs>
		<path id="SVGID_124_" d="M-626.153-545.851h0.229l5.635,39.79h-11.384L-626.153-545.851z M-634.086-559.88l-13.112,80.499h11.731
			l2.3-15.754h14.375v-0.23l2.3,15.984h12.649l-13.108-80.499H-634.086z"/>
	</defs>
	<clipPath id="SVGID_125_">
		<use xlink:href="#SVGID_124_"  overflow="visible"/>
	</clipPath>
	
		<linearGradient id="SVGID_126_" gradientUnits="userSpaceOnUse" x1="-304.6787" y1="3312.2729" x2="-303.6787" y2="3312.2729" gradientTransform="matrix(258.3246 221.6828 221.6828 -258.3246 -656322 922554.25)">
		<stop  offset="0" style="stop-color:#FFFFFF"/>
		<stop  offset="8.073430e-008" style="stop-color:#FFFFFF"/>
		<stop  offset="1" style="stop-color:#898B8D"/>
	</linearGradient>
	<polygon clip-path="url(#SVGID_125_)" fill="url(#SVGID_126_)" points="-628.812,-581.307 -564.061,-525.74 -622.231,-457.956 
		-686.982,-513.522 	"/>
</g>
<g>
	<defs>
		<rect id="SVGID_127_" x="-294.901" y="-223.532" width="3094.319" height="2664.382"/>
	</defs>
	<clipPath id="SVGID_128_">
		<use xlink:href="#SVGID_127_"  overflow="visible"/>
	</clipPath>
	
		<linearGradient id="SVGID_129_" gradientUnits="userSpaceOnUse" x1="-294.8999" y1="3315.646" x2="-293.8999" y2="3315.646" gradientTransform="matrix(622.112 0 0 -622.112 183556.9688 2062923.75)">
		<stop  offset="0" style="stop-color:#009676"/>
		<stop  offset="1" style="stop-color:#0D5042"/>
		<stop  offset="1" style="stop-color:#FFF2E9"/>
	</linearGradient>
	<path clip-path="url(#SVGID_128_)" fill="url(#SVGID_129_)" d="M644.448,293.714L644.448,293.714H169.065
		c-40.242,0-72.865-32.623-72.865-72.865c0-40.243,32.623-72.866,72.865-72.866h475.382c40.242,0,72.865,32.624,72.865,72.866
		C717.313,261.092,684.689,293.714,644.448,293.714L644.448,293.714L644.448,293.714c40.242,0,72.865-32.623,72.865-72.865
		c0-40.243-32.623-72.866-72.865-72.866H169.065c-40.242,0-72.865,32.624-72.865,72.866c0,40.243,32.623,72.865,72.865,72.865
		H644.448L644.448,293.714z"/>
</g>
<g>
	<defs>
		<path id="SVGID_130_" d="M222.568,222.602h6.637c6.826,0,9.385,2.749,9.385,9.955v5.688c0,6.352-2.465,8.912-7.869,8.912h-8.153
			V222.602z M222.568,194.256h7.206c5.592,0,7.774,2.656,7.774,9.101v3.413c0,6.447-2.75,9.102-8.723,9.102h-6.257V194.256z
			 M215.174,187.526v66.362h15.547c10.144,0,15.264-5.119,15.264-15.453v-5.689c0-7.678-2.844-12.324-8.437-13.936v-0.189
			c4.929-1.802,7.393-6.163,7.393-13.273V202.6c0-10.334-4.454-15.074-14.978-15.074H215.174z"/>
	</defs>
	<clipPath id="SVGID_131_">
		<use xlink:href="#SVGID_130_"  overflow="visible"/>
	</clipPath>
	
		<linearGradient id="SVGID_132_" gradientUnits="userSpaceOnUse" x1="-296.6777" y1="3316.728" x2="-295.6799" y2="3316.728" gradientTransform="matrix(232.7833 166.9967 166.9967 -232.7833 -484628.4063 821816.875)">
		<stop  offset="0" style="stop-color:#009776"/>
		<stop  offset="1" style="stop-color:#0C5041"/>
		<stop  offset="1" style="stop-color:#FFF3E9"/>
	</linearGradient>
	<polygon clip-path="url(#SVGID_131_)" fill="url(#SVGID_132_)" points="225.643,172.933 277.417,210.075 235.516,268.481 
		183.743,231.34 	"/>
</g>
<g>
	<defs>
		<polygon id="SVGID_133_" points="253.282,187.526 253.282,253.888 280.49,253.888 280.49,247.157 260.676,247.157 
			260.676,222.602 276.792,222.602 276.792,215.872 260.676,215.872 260.676,194.256 280.49,194.256 280.49,187.526 		"/>
	</defs>
	<clipPath id="SVGID_134_">
		<use xlink:href="#SVGID_133_"  overflow="visible"/>
	</clipPath>
	
		<linearGradient id="SVGID_135_" gradientUnits="userSpaceOnUse" x1="-296.6777" y1="3316.7183" x2="-295.6777" y2="3316.7183" gradientTransform="matrix(232.7833 166.9967 166.9967 -232.7833 -484614.4063 821797.375)">
		<stop  offset="0" style="stop-color:#009776"/>
		<stop  offset="1" style="stop-color:#0C5041"/>
		<stop  offset="1" style="stop-color:#FFF3E9"/>
	</linearGradient>
	<polygon clip-path="url(#SVGID_134_)" fill="url(#SVGID_135_)" points="262.527,174.64 311.921,210.075 271.245,266.775 
		221.851,231.339 	"/>
</g>
<g>
	<defs>
		<polygon id="SVGID_136_" points="284.09,187.526 284.09,194.256 295.845,194.256 295.845,253.888 303.24,253.888 303.24,194.256 
			314.996,194.256 314.996,187.526 		"/>
	</defs>
	<clipPath id="SVGID_137_">
		<use xlink:href="#SVGID_136_"  overflow="visible"/>
	</clipPath>
	
		<linearGradient id="SVGID_138_" gradientUnits="userSpaceOnUse" x1="-296.6777" y1="3316.7065" x2="-295.6777" y2="3316.7065" gradientTransform="matrix(232.7833 166.9967 166.9967 -232.7833 -484601.4063 821779.125)">
		<stop  offset="0" style="stop-color:#009776"/>
		<stop  offset="1" style="stop-color:#0C5041"/>
		<stop  offset="1" style="stop-color:#FFF3E9"/>
	</linearGradient>
	<polygon clip-path="url(#SVGID_137_)" fill="url(#SVGID_138_)" points="294.591,172.888 346.427,210.075 304.495,268.527 
		252.659,231.34 	"/>
</g>
<g>
	<defs>
		<path id="SVGID_139_" d="M329.974,195.963l6.636,37.353h-13.082L329.974,195.963z M325.329,187.526l-12.325,66.362h6.921
			l2.465-14.126h15.359l2.464,14.126h7.49l-12.419-66.362H325.329z"/>
	</defs>
	<clipPath id="SVGID_140_">
		<use xlink:href="#SVGID_139_"  overflow="visible"/>
	</clipPath>
	
		<linearGradient id="SVGID_141_" gradientUnits="userSpaceOnUse" x1="-296.6777" y1="3316.7319" x2="-295.6777" y2="3316.7319" gradientTransform="matrix(232.7833 166.9967 166.9967 -232.7833 -484594.9063 821770.25)">
		<stop  offset="0" style="stop-color:#009776"/>
		<stop  offset="1" style="stop-color:#0C5041"/>
		<stop  offset="1" style="stop-color:#FFF3E9"/>
	</linearGradient>
	<polygon clip-path="url(#SVGID_140_)" fill="url(#SVGID_141_)" points="324.794,171.092 379.134,210.075 335.913,270.323 
		281.573,231.339 	"/>
</g>
<g>
	<defs>
		<polygon id="SVGID_142_" points="393.109,187.526 383.534,243.839 373.959,187.526 366.47,187.526 378.32,253.888 388.18,253.888 
			399.935,187.526 		"/>
	</defs>
	<clipPath id="SVGID_143_">
		<use xlink:href="#SVGID_142_"  overflow="visible"/>
	</clipPath>
	
		<linearGradient id="SVGID_144_" gradientUnits="userSpaceOnUse" x1="-296.6782" y1="3316.7075" x2="-295.6782" y2="3316.7075" gradientTransform="matrix(232.7833 166.9967 166.9967 -232.7833 -484572.9063 821739.5)">
		<stop  offset="0" style="stop-color:#009776"/>
		<stop  offset="1" style="stop-color:#0C5041"/>
		<stop  offset="1" style="stop-color:#FFF3E9"/>
	</linearGradient>
	<polygon clip-path="url(#SVGID_143_)" fill="url(#SVGID_144_)" points="377.841,171.676 431.366,210.075 388.564,269.739 
		335.039,231.339 	"/>
</g>
<g>
	<defs>
		<polygon id="SVGID_145_" points="406.095,187.526 406.095,253.888 433.302,253.888 433.302,247.157 413.489,247.157 
			413.489,222.602 429.605,222.602 429.605,215.872 413.489,215.872 413.489,194.256 433.302,194.256 433.302,187.526 		"/>
	</defs>
	<clipPath id="SVGID_146_">
		<use xlink:href="#SVGID_145_"  overflow="visible"/>
	</clipPath>
	
		<linearGradient id="SVGID_147_" gradientUnits="userSpaceOnUse" x1="-296.6763" y1="3316.7192" x2="-295.6786" y2="3316.7192" gradientTransform="matrix(232.7833 166.9967 166.9967 -232.7833 -484562.4063 821725)">
		<stop  offset="0" style="stop-color:#009776"/>
		<stop  offset="1" style="stop-color:#0C5041"/>
		<stop  offset="1" style="stop-color:#FFF3E9"/>
	</linearGradient>
	<polygon clip-path="url(#SVGID_146_)" fill="url(#SVGID_147_)" points="415.339,174.64 464.733,210.075 424.058,266.774 
		374.664,231.339 	"/>
</g>
<g>
	<defs>
		<path id="SVGID_148_" d="M447.235,194.256h6.92c5.595,0,7.775,2.656,7.775,9.101v4.741c0,6.446-2.749,9.101-8.721,9.101h-5.974
			V194.256z M439.841,187.526v66.362h7.394V223.93h5.974c6.351,0,8.816,2.559,8.816,9.669v12.23c0,3.509,0.285,6.163,0.853,8.059
			h7.489c-0.663-1.802-0.948-4.456-0.948-8.059v-11.85c0-7.869-2.559-12.514-7.773-13.841v-0.096
			c5.119-1.61,7.679-6.067,7.679-13.366V202.6c0-10.334-4.456-15.074-14.98-15.074H439.841z"/>
	</defs>
	<clipPath id="SVGID_149_">
		<use xlink:href="#SVGID_148_"  overflow="visible"/>
	</clipPath>
	
		<linearGradient id="SVGID_150_" gradientUnits="userSpaceOnUse" x1="-296.6763" y1="3316.728" x2="-295.6785" y2="3316.728" gradientTransform="matrix(232.7833 166.9967 166.9967 -232.7833 -484552.1563 821710.5)">
		<stop  offset="0" style="stop-color:#009776"/>
		<stop  offset="1" style="stop-color:#0C5041"/>
		<stop  offset="1" style="stop-color:#FFF3E9"/>
	</linearGradient>
	<polygon clip-path="url(#SVGID_149_)" fill="url(#SVGID_150_)" points="450.213,173.068 501.798,210.075 459.995,268.346 
		408.41,231.339 	"/>
</g>
<g>
	<defs>
		<path id="SVGID_151_" d="M475.958,202.41c0,3.791,0.853,7.205,2.654,10.238c1.801,3.034,5.025,6.447,9.575,10.144
			c3.887,3.224,6.541,5.973,7.964,8.343c1.516,2.37,2.275,5.024,2.275,8.059c0,5.971-2.56,8.91-7.774,8.91
			c-5.12,0-7.679-2.939-7.679-8.816v-4.266h-7.015v3.696c0,10.334,5.214,16.118,14.789,16.118c9.575,0,15.074-5.878,15.074-16.212
			c0-4.076-0.853-7.585-2.654-10.618c-1.708-3.128-4.836-6.541-9.386-10.333c-3.982-3.224-6.731-5.973-8.249-8.248
			c-1.515-2.276-2.274-4.74-2.274-7.49c0-5.782,2.56-8.627,7.584-8.627c5.024,0,7.584,2.94,7.584,8.817v3.129h7.015V202.6
			c0-10.24-5.119-16.022-14.599-16.022S475.958,192.455,475.958,202.41"/>
	</defs>
	<clipPath id="SVGID_152_">
		<use xlink:href="#SVGID_151_"  overflow="visible"/>
	</clipPath>
	
		<linearGradient id="SVGID_153_" gradientUnits="userSpaceOnUse" x1="-296.6782" y1="3316.7192" x2="-295.6782" y2="3316.7192" gradientTransform="matrix(232.7833 166.9967 166.9967 -232.7833 -484538.4063 821691.375)">
		<stop  offset="0" style="stop-color:#009776"/>
		<stop  offset="1" style="stop-color:#0C5041"/>
		<stop  offset="1" style="stop-color:#FFF3E9"/>
	</linearGradient>
	<polygon clip-path="url(#SVGID_152_)" fill="url(#SVGID_153_)" points="486.105,172.434 538.15,209.771 495.674,268.98 
		443.629,231.643 	"/>
</g>
<g>
	<defs>
		<rect id="SVGID_154_" x="512.834" y="187.526" width="7.395" height="66.362"/>
	</defs>
	<clipPath id="SVGID_155_">
		<use xlink:href="#SVGID_154_"  overflow="visible"/>
	</clipPath>
	
		<linearGradient id="SVGID_156_" gradientUnits="userSpaceOnUse" x1="-296.6777" y1="3316.7183" x2="-295.6777" y2="3316.7183" gradientTransform="matrix(232.7833 166.9967 166.9967 -232.7833 -484529.6563 821679.125)">
		<stop  offset="0" style="stop-color:#009776"/>
		<stop  offset="1" style="stop-color:#0C5041"/>
		<stop  offset="1" style="stop-color:#FFF3E9"/>
	</linearGradient>
	<polygon clip-path="url(#SVGID_155_)" fill="url(#SVGID_156_)" points="515.347,184.024 551.661,210.075 517.716,257.391 
		481.403,231.34 	"/>
</g>
<g>
	<defs>
		<path id="SVGID_157_" d="M535.869,238.908V202.41c0-6.068,2.56-9.102,7.774-9.102s7.868,3.034,7.868,9.102v36.498
			c0,6.162-2.654,9.196-7.868,9.196S535.869,245.07,535.869,238.908 M528.474,202.883v35.552c0,10.523,5.404,16.401,15.169,16.401
			c9.859,0,15.263-5.878,15.263-16.401v-35.552c0-10.523-5.404-16.305-15.263-16.305
			C533.878,186.578,528.474,192.36,528.474,202.883"/>
	</defs>
	<clipPath id="SVGID_158_">
		<use xlink:href="#SVGID_157_"  overflow="visible"/>
	</clipPath>
	
		<linearGradient id="SVGID_159_" gradientUnits="userSpaceOnUse" x1="-296.6802" y1="3316.7183" x2="-295.678" y2="3316.7183" gradientTransform="matrix(232.7833 166.9967 166.9967 -232.7833 -484520.4063 821666.25)">
		<stop  offset="0" style="stop-color:#009776"/>
		<stop  offset="1" style="stop-color:#0C5041"/>
		<stop  offset="1" style="stop-color:#FFF3E9"/>
	</linearGradient>
	<polygon clip-path="url(#SVGID_158_)" fill="url(#SVGID_159_)" points="538.814,172.165 591.235,209.771 548.566,269.25 
		496.145,231.644 	"/>
</g>
<g>
	<defs>
		<polygon id="SVGID_160_" points="591.61,187.526 591.61,234.927 576.632,187.526 567.151,187.526 567.151,253.888 
			573.883,253.888 573.883,199.944 590.662,253.888 598.342,253.888 598.342,187.526 		"/>
	</defs>
	<clipPath id="SVGID_161_">
		<use xlink:href="#SVGID_160_"  overflow="visible"/>
	</clipPath>
	
		<linearGradient id="SVGID_162_" gradientUnits="userSpaceOnUse" x1="-296.6807" y1="3316.7183" x2="-295.6785" y2="3316.7183" gradientTransform="matrix(232.7833 166.9967 166.9967 -232.7833 -484507.1563 821647.75)">
		<stop  offset="0" style="stop-color:#009776"/>
		<stop  offset="1" style="stop-color:#0C5041"/>
		<stop  offset="1" style="stop-color:#FFF3E9"/>
	</linearGradient>
	<polygon clip-path="url(#SVGID_161_)" fill="url(#SVGID_162_)" points="577.749,172.753 629.773,210.075 587.744,268.662 
		535.72,231.339 	"/>
</g>
<g>
	<defs>
		<rect id="SVGID_163_" x="413.567" y="-414.593" width="3094.319" height="2664.382"/>
	</defs>
	<clipPath id="SVGID_164_">
		<use xlink:href="#SVGID_163_"  overflow="visible"/>
	</clipPath>
	
		<linearGradient id="SVGID_165_" gradientUnits="userSpaceOnUse" x1="-293.7612" y1="3315.9526" x2="-292.7612" y2="3315.9526" gradientTransform="matrix(622.112 0 0 -622.112 183556.2188 2063126.25)">
		<stop  offset="0" style="stop-color:#146BCA"/>
		<stop  offset="1" style="stop-color:#273E7C"/>
	</linearGradient>
	<path clip-path="url(#SVGID_164_)" fill="url(#SVGID_165_)" d="M1352.039,305.034L1352.039,305.034H876.657
		c-40.242,0-72.865-32.623-72.865-72.865c0-40.243,32.623-72.866,72.865-72.866h475.382c40.242,0,72.865,32.623,72.865,72.866
		C1424.904,272.411,1392.281,305.034,1352.039,305.034L1352.039,305.034L1352.039,305.034c40.242,0,72.865-32.623,72.865-72.865
		c0-40.243-32.623-72.866-72.865-72.866H876.657c-40.242,0-72.865,32.623-72.865,72.866c0,40.242,32.623,72.865,72.865,72.865
		H1352.039L1352.039,305.034z"/>
</g>
<g>
	<defs>
		<path id="SVGID_166_" d="M854.022,232.334c0-6.658,3.435-11.095,9.019-11.095h7.228v10.379c0,6.083-3.149,10.95-8.374,10.95
			C857.1,242.569,854.022,237.845,854.022,232.334 M860.893,215.014c-9.162,0-14.816,6.656-14.816,17.392
			c0,9.949,5.654,16.82,14.816,16.82c3.579,0,6.656-1.789,9.161-5.369c1.646,6.37,6.729,10.594,12.955,10.594h8.661v-8.16h-5.082
			c-5.367,0-8.016-3.006-8.016-8.589v-22.688H860.893z M856.527,209.215h7.873v-8.017h-7.873V209.215z M870.054,209.215h7.874
			v-8.017h-7.874V209.215z"/>
	</defs>
	<clipPath id="SVGID_167_">
		<use xlink:href="#SVGID_166_"  overflow="visible"/>
	</clipPath>
	
		<linearGradient id="SVGID_168_" gradientUnits="userSpaceOnUse" x1="-294.4019" y1="3316.9136" x2="-293.4019" y2="3316.9136" gradientTransform="matrix(431.9991 184.1857 184.1857 -431.9991 -482906.3438 1487344.375)">
		<stop  offset="0" style="stop-color:#146BCA"/>
		<stop  offset="1" style="stop-color:#273E7C"/>
	</linearGradient>
	<polygon clip-path="url(#SVGID_167_)" fill="url(#SVGID_168_)" points="853.09,184.75 910.882,209.39 884.657,270.899 
		826.865,246.259 	"/>
</g>
<g>
	<defs>
		<path id="SVGID_169_" d="M889.096,270.125h7.874v-8.016h-7.874V270.125z M902.623,270.125h7.873v-8.016h-7.873V270.125z
			 M902.838,221.956v16.463c0,2.504-0.286,4.365-0.858,5.438c-0.86,1.647-2.506,2.434-4.868,2.434h-7.658v8.16h32.996v-8.16h-13.456
			c1.216-1.359,1.79-4.079,1.79-8.303v-16.032H902.838z"/>
	</defs>
	<clipPath id="SVGID_170_">
		<use xlink:href="#SVGID_169_"  overflow="visible"/>
	</clipPath>
	
		<linearGradient id="SVGID_171_" gradientUnits="userSpaceOnUse" x1="-294.4023" y1="3316.9233" x2="-293.4023" y2="3316.9233" gradientTransform="matrix(431.9991 184.1857 184.1857 -431.9991 -482908.8438 1487350.375)">
		<stop  offset="0" style="stop-color:#146BCA"/>
		<stop  offset="1" style="stop-color:#273E7C"/>
	</linearGradient>
	<polygon clip-path="url(#SVGID_170_)" fill="url(#SVGID_171_)" points="894.227,209.922 939.829,229.365 917.319,282.159 
		871.717,262.716 	"/>
</g>
<g>
	<defs>
		<path id="SVGID_172_" d="M933.618,270.198h7.873v-8.017h-7.873V270.198z M933.618,221.956v16.463c0,2.504-0.288,4.365-0.86,5.438
			c-0.859,1.647-2.433,2.434-4.795,2.434h-7.444v8.16h33.067v-8.16h-13.742c1.145-1.359,1.718-4.079,1.718-8.303v-16.032H933.618z"
			/>
	</defs>
	<clipPath id="SVGID_173_">
		<use xlink:href="#SVGID_172_"  overflow="visible"/>
	</clipPath>
	
		<linearGradient id="SVGID_174_" gradientUnits="userSpaceOnUse" x1="-294.4023" y1="3316.9175" x2="-293.4023" y2="3316.9175" gradientTransform="matrix(431.9991 184.1857 184.1857 -431.9991 -482902.8438 1487336.875)">
		<stop  offset="0" style="stop-color:#146BCA"/>
		<stop  offset="1" style="stop-color:#273E7C"/>
	</linearGradient>
	<polygon clip-path="url(#SVGID_173_)" fill="url(#SVGID_174_)" points="925.605,210.026 970.99,229.376 948.5,282.127 
		903.114,262.777 	"/>
</g>
<g>
	<defs>
		<path id="SVGID_175_" d="M950.654,270.125h7.873v-8.016h-7.873V270.125z M964.182,270.125h7.873v-8.016h-7.873V270.125z
			 M964.253,221.956v16.82c0,2.577-0.215,4.295-0.573,5.154c-0.786,1.574-2.433,2.361-5.081,2.361h-6.729v8.16h8.447
			c7.944,0,11.952-4.295,11.952-12.955v-19.54H964.253z"/>
	</defs>
	<clipPath id="SVGID_176_">
		<use xlink:href="#SVGID_175_"  overflow="visible"/>
	</clipPath>
	
		<linearGradient id="SVGID_177_" gradientUnits="userSpaceOnUse" x1="-294.4004" y1="3316.9194" x2="-293.4063" y2="3316.9194" gradientTransform="matrix(431.9991 184.1857 184.1857 -431.9991 -482899.3438 1487328.375)">
		<stop  offset="0" style="stop-color:#146BCA"/>
		<stop  offset="1" style="stop-color:#273E7C"/>
	</linearGradient>
	<polygon clip-path="url(#SVGID_176_)" fill="url(#SVGID_177_)" points="953.979,214.158 989.647,229.365 968.944,277.924 
		933.275,262.716 	"/>
</g>
<g>
	<defs>
		<path id="SVGID_178_" d="M987.516,221.956v27.341c0,6.871-3.292,10.164-9.949,10.164v6.871c9.735,0,16.248-4.223,17.464-11.881
			h12.812v-8.16h-12.311v-24.335H987.516z"/>
	</defs>
	<clipPath id="SVGID_179_">
		<use xlink:href="#SVGID_178_"  overflow="visible"/>
	</clipPath>
	
		<linearGradient id="SVGID_180_" gradientUnits="userSpaceOnUse" x1="-294.4004" y1="3316.9233" x2="-293.4054" y2="3316.9233" gradientTransform="matrix(431.9991 184.1857 184.1857 -431.9991 -482894.8438 1487317.625)">
		<stop  offset="0" style="stop-color:#146BCA"/>
		<stop  offset="1" style="stop-color:#273E7C"/>
	</linearGradient>
	<polygon clip-path="url(#SVGID_179_)" fill="url(#SVGID_180_)" points="982.224,211.033 1023.853,228.781 1003.186,277.254 
		961.557,259.505 	"/>
</g>
<g>
	<defs>
		<path id="SVGID_181_" d="M1027.17,270.125h7.874v-8.016h-7.874V270.125z M1021.802,223.959c-2.935,1.289-5.439,3.006-7.659,5.082
			c1.79,2.72,3.078,4.796,3.866,6.299c1.718-1.933,3.864-3.436,6.441-4.509c2.219-0.931,4.223-1.36,6.013-1.36
			c5.224,0,9.376,1.789,12.31,5.439c2.506,3.149,3.723,6.943,3.723,11.38h-41.371v8.16h57.474v-8.16h-7.587
			c-0.643-9.948-4.223-16.891-10.736-20.899c-3.721-2.291-8.087-3.436-13.026-3.436
			C1028.101,221.956,1024.951,222.601,1021.802,223.959"/>
	</defs>
	<clipPath id="SVGID_182_">
		<use xlink:href="#SVGID_181_"  overflow="visible"/>
	</clipPath>
	
		<linearGradient id="SVGID_183_" gradientUnits="userSpaceOnUse" x1="-294.4023" y1="3316.9194" x2="-293.4023" y2="3316.9194" gradientTransform="matrix(431.9991 184.1857 184.1857 -431.9991 -482888.3438 1487302.875)">
		<stop  offset="0" style="stop-color:#146BCA"/>
		<stop  offset="1" style="stop-color:#273E7C"/>
	</linearGradient>
	<polygon clip-path="url(#SVGID_182_)" fill="url(#SVGID_183_)" points="1013.965,201.221 1079.978,229.365 1053.758,290.861 
		987.746,262.716 	"/>
</g>
<g>
	<defs>
		<path id="SVGID_184_" d="M1073.626,221.956v16.463c0,2.504-0.287,4.365-0.859,5.438c-0.859,1.647-2.434,2.434-4.796,2.434h-7.443
			v8.16h33.066v-8.16h-13.742c1.145-1.359,1.718-4.079,1.718-8.303v-16.032H1073.626z M1060.098,215.298h7.873v-7.945h-7.873
			V215.298z M1073.697,215.298h7.873v-7.945h-7.873V215.298z"/>
	</defs>
	<clipPath id="SVGID_185_">
		<use xlink:href="#SVGID_184_"  overflow="visible"/>
	</clipPath>
	
		<linearGradient id="SVGID_186_" gradientUnits="userSpaceOnUse" x1="-294.4043" y1="3316.9233" x2="-293.3996" y2="3316.9233" gradientTransform="matrix(431.9991 184.1857 184.1857 -431.9991 -482876.8438 1487275.875)">
		<stop  offset="0" style="stop-color:#146BCA"/>
		<stop  offset="1" style="stop-color:#273E7C"/>
	</linearGradient>
	<polygon clip-path="url(#SVGID_185_)" fill="url(#SVGID_186_)" points="1065.25,195.269 1110.585,214.598 1088.441,266.535 
		1043.106,247.206 	"/>
</g>
<g>
	<defs>
		<path id="SVGID_187_" d="M1103.689,208.286v30.49c0,2.577-0.215,4.295-0.573,5.154c-0.787,1.574-2.433,2.361-5.081,2.361h-6.8
			v8.16h8.445c8.017,0,12.025-4.295,12.025-12.955v-33.21H1103.689z"/>
	</defs>
	<clipPath id="SVGID_188_">
		<use xlink:href="#SVGID_187_"  overflow="visible"/>
	</clipPath>
	
		<linearGradient id="SVGID_189_" gradientUnits="userSpaceOnUse" x1="-294.4019" y1="3316.9175" x2="-293.4019" y2="3316.9175" gradientTransform="matrix(431.9991 184.1857 184.1857 -431.9991 -482872.3438 1487265.375)">
		<stop  offset="0" style="stop-color:#146BCA"/>
		<stop  offset="1" style="stop-color:#273E7C"/>
	</linearGradient>
	<polygon clip-path="url(#SVGID_188_)" fill="url(#SVGID_189_)" points="1094.383,200.901 1128.36,215.387 1108.556,261.835 
		1074.58,247.35 	"/>
</g>
<g>
	<defs>
		<rect id="SVGID_190_" x="1119.079" y="208.212" width="7.945" height="46.238"/>
	</defs>
	<clipPath id="SVGID_191_">
		<use xlink:href="#SVGID_190_"  overflow="visible"/>
	</clipPath>
	
		<linearGradient id="SVGID_192_" gradientUnits="userSpaceOnUse" x1="-294.4023" y1="3316.9185" x2="-293.4023" y2="3316.9185" gradientTransform="matrix(431.9991 184.1857 184.1857 -431.9991 -482869.3438 1487257.625)">
		<stop  offset="0" style="stop-color:#146BCA"/>
		<stop  offset="1" style="stop-color:#273E7C"/>
	</linearGradient>
	<polygon clip-path="url(#SVGID_191_)" fill="url(#SVGID_192_)" points="1120.301,205.346 1143.706,215.325 1125.802,257.317 
		1102.397,247.338 	"/>
</g>
<g>
	<defs>
		<path id="SVGID_193_" d="M1156.728,232.334c0-6.658,3.436-11.095,9.019-11.095h7.229v10.379c0,6.083-3.15,10.95-8.374,10.95
			C1159.806,242.569,1156.728,237.845,1156.728,232.334 M1163.599,215.014c-9.161,0-14.816,6.656-14.816,17.392
			c0,9.949,5.655,16.82,14.816,16.82c3.579,0,6.657-1.789,9.162-5.369c1.646,6.37,6.728,10.594,12.955,10.594h8.661v-8.16h-5.082
			c-5.369,0-8.016-3.006-8.016-8.589v-22.688H1163.599z M1159.234,209.215h7.872v-8.017h-7.872V209.215z M1172.761,209.215h7.873
			v-8.017h-7.873V209.215z"/>
	</defs>
	<clipPath id="SVGID_194_">
		<use xlink:href="#SVGID_193_"  overflow="visible"/>
	</clipPath>
	
		<linearGradient id="SVGID_195_" gradientUnits="userSpaceOnUse" x1="-294.4023" y1="3316.9136" x2="-293.4023" y2="3316.9136" gradientTransform="matrix(431.9991 184.1857 184.1857 -431.9991 -482859.8438 1487235.125)">
		<stop  offset="0" style="stop-color:#146BCA"/>
		<stop  offset="1" style="stop-color:#273E7C"/>
	</linearGradient>
	<polygon clip-path="url(#SVGID_194_)" fill="url(#SVGID_195_)" points="1155.796,184.75 1213.589,209.39 1187.364,270.9 
		1129.571,246.259 	"/>
</g>
<g>
	<defs>
		<path id="SVGID_196_" d="M1208.98,223.959c-2.934,1.289-5.439,3.006-7.658,5.082c1.79,2.72,3.078,4.796,3.865,6.299
			c1.718-1.933,3.865-3.436,6.441-4.509c2.22-0.931,4.223-1.36,6.013-1.36c5.225,0,9.377,1.789,12.311,5.439
			c2.505,3.149,3.722,6.943,3.722,11.38h-41.37v8.16h57.474v-8.16h-7.587c-0.644-9.948-4.223-16.891-10.736-20.899
			c-3.722-2.291-8.088-3.436-13.026-3.436C1215.279,221.956,1212.13,222.601,1208.98,223.959 M1214.348,215.228h7.873v-7.944h-7.873
			V215.228z"/>
	</defs>
	<clipPath id="SVGID_197_">
		<use xlink:href="#SVGID_196_"  overflow="visible"/>
	</clipPath>
	
		<linearGradient id="SVGID_198_" gradientUnits="userSpaceOnUse" x1="-294.4023" y1="3316.9292" x2="-293.4023" y2="3316.9292" gradientTransform="matrix(431.9991 184.1857 184.1857 -431.9991 -482855.8438 1487226.875)">
		<stop  offset="0" style="stop-color:#146BCA"/>
		<stop  offset="1" style="stop-color:#273E7C"/>
	</linearGradient>
	<polygon clip-path="url(#SVGID_197_)" fill="url(#SVGID_198_)" points="1201.145,186.548 1266.794,214.539 1240.938,275.186 
		1175.287,247.195 	"/>
</g>
<g>
	<defs>
		<path id="SVGID_199_" d="M1301.315,221.956v16.463c0,5.224-2.004,7.872-6.084,7.872h-7.802c1.074-1.144,1.646-4.079,1.646-8.731
			v-15.604h-8.088v16.391c0,5.296-2.004,7.944-6.084,7.944h-7.443v-0.429c0.859-1.36,1.289-4.08,1.289-8.302v-15.604h-8.089v15.889
			c0,5.654-2.005,8.446-6.085,8.446h-7.3v8.16h72.577v-8.16h-12.239c1.216-2.577,1.789-5.511,1.789-8.875v-15.46H1301.315z"/>
	</defs>
	<clipPath id="SVGID_200_">
		<use xlink:href="#SVGID_199_"  overflow="visible"/>
	</clipPath>
	
		<linearGradient id="SVGID_201_" gradientUnits="userSpaceOnUse" x1="-294.4019" y1="3316.9233" x2="-293.4019" y2="3316.9233" gradientTransform="matrix(431.9991 184.1857 184.1857 -431.9991 -482847.8438 1487207.375)">
		<stop  offset="0" style="stop-color:#146BCA"/>
		<stop  offset="1" style="stop-color:#273E7C"/>
	</linearGradient>
	<polygon clip-path="url(#SVGID_200_)" fill="url(#SVGID_201_)" points="1258.439,195.772 1331.576,226.954 1308.689,280.634 
		1235.552,249.452 	"/>
</g>
<g>
	<defs>
		<path id="SVGID_202_" d="M1330.666,221.956v16.463c0,2.504-0.287,4.365-0.859,5.438c-0.86,1.647-2.434,2.434-4.797,2.434h-7.442
			v8.16h33.065v-8.16h-13.741c1.145-1.359,1.718-4.079,1.718-8.303v-16.032H1330.666z M1330.735,215.371h7.874v-7.945h-7.874
			V215.371z"/>
	</defs>
	<clipPath id="SVGID_203_">
		<use xlink:href="#SVGID_202_"  overflow="visible"/>
	</clipPath>
	
		<linearGradient id="SVGID_204_" gradientUnits="userSpaceOnUse" x1="-294.4023" y1="3316.9224" x2="-293.4023" y2="3316.9224" gradientTransform="matrix(431.9991 184.1857 184.1857 -431.9991 -482837.3438 1487183.125)">
		<stop  offset="0" style="stop-color:#146BCA"/>
		<stop  offset="1" style="stop-color:#273E7C"/>
	</linearGradient>
	<polygon clip-path="url(#SVGID_203_)" fill="url(#SVGID_204_)" points="1322.653,195.496 1367.598,214.659 1345.546,266.38 
		1300.601,247.217 	"/>
</g>
<g>
	<defs>
		<path id="SVGID_205_" d="M1360.728,208.286v30.49c0,2.577-0.215,4.295-0.573,5.154c-0.787,1.574-2.433,2.361-5.082,2.361h-6.799
			v8.16h8.444c8.018,0,12.025-4.295,12.025-12.955v-33.21H1360.728z"/>
	</defs>
	<clipPath id="SVGID_206_">
		<use xlink:href="#SVGID_205_"  overflow="visible"/>
	</clipPath>
	
		<linearGradient id="SVGID_207_" gradientUnits="userSpaceOnUse" x1="-294.4019" y1="3316.9185" x2="-293.4019" y2="3316.9185" gradientTransform="matrix(431.9991 184.1857 184.1857 -431.9991 -482832.8438 1487172.625)">
		<stop  offset="0" style="stop-color:#146BCA"/>
		<stop  offset="1" style="stop-color:#273E7C"/>
	</linearGradient>
	<polygon clip-path="url(#SVGID_206_)" fill="url(#SVGID_207_)" points="1351.422,200.901 1385.399,215.387 1365.595,261.835 
		1331.619,247.35 	"/>
</g>
<g>
	<defs>
		<rect id="SVGID_208_" x="1376.118" y="208.212" width="7.944" height="46.238"/>
	</defs>
	<clipPath id="SVGID_209_">
		<use xlink:href="#SVGID_208_"  overflow="visible"/>
	</clipPath>
	
		<linearGradient id="SVGID_210_" gradientUnits="userSpaceOnUse" x1="-294.4023" y1="3316.9194" x2="-293.4023" y2="3316.9194" gradientTransform="matrix(431.9991 184.1857 184.1857 -431.9991 -482829.8438 1487164.875)">
		<stop  offset="0" style="stop-color:#146BCA"/>
		<stop  offset="1" style="stop-color:#273E7C"/>
	</linearGradient>
	<polygon clip-path="url(#SVGID_209_)" fill="url(#SVGID_210_)" points="1377.339,205.347 1400.744,215.325 1382.839,257.317 
		1359.436,247.338 	"/>
</g>
<g>
	<defs>
		<polygon id="SVGID_211_" points="137.192,2468.495 85.947,2749.374 34.188,2468.495 -22.592,2468.495 -22.592,2820.229 
			12.067,2820.229 12.067,2526.782 67.854,2820.229 101.005,2820.229 156.792,2526.782 156.792,2820.229 194.467,2820.229 
			194.467,2468.495 		"/>
	</defs>
	<clipPath id="SVGID_212_">
		<use xlink:href="#SVGID_211_"  overflow="visible"/>
	</clipPath>
	
		<linearGradient id="SVGID_213_" gradientUnits="userSpaceOnUse" x1="-294.9009" y1="3314.2417" x2="-293.9009" y2="3314.2417" gradientTransform="matrix(-935.446 1019.2831 1019.2831 935.446 -3653150.5 -2797910.25)">
		<stop  offset="0" style="stop-color:#2F6BB3"/>
		<stop  offset="1" style="stop-color:#273E7C"/>
	</linearGradient>
	<polygon clip-path="url(#SVGID_212_)" fill="url(#SVGID_213_)" points="369.688,2629.304 95.23,2928.36 -197.813,2659.419 
		76.645,2360.364 	"/>
</g>
<g>
	<defs>
		<path id="SVGID_214_" d="M250.253,2640.339c0-29.649,12.062-44.221,36.682-44.221c25.136,0,37.694,14.571,37.694,44.221v28.142
			h-74.376V2640.339z M212.064,2643.861v99.492c0,52.256,26.642,81.905,74.871,81.905c48.249,0,74.872-29.649,74.872-81.905v-4.026
			h-36.682v7.538c0,29.648-12.557,44.726-37.674,44.726c-24.62,0-37.198-15.077-37.198-44.726v-47.237h111.554v-55.767
			c0-52.266-26.623-81.409-74.872-81.409C238.21,2562.452,212.064,2591.595,212.064,2643.861"/>
	</defs>
	<clipPath id="SVGID_215_">
		<use xlink:href="#SVGID_214_"  overflow="visible"/>
	</clipPath>
	
		<linearGradient id="SVGID_216_" gradientUnits="userSpaceOnUse" x1="-294.9009" y1="3314.2417" x2="-293.9009" y2="3314.2417" gradientTransform="matrix(-935.446 1019.2831 1019.2831 935.446 -3653016.75 -2797787.25)">
		<stop  offset="0" style="stop-color:#2F6BB3"/>
		<stop  offset="1" style="stop-color:#273E7C"/>
	</linearGradient>
	<polygon clip-path="url(#SVGID_215_)" fill="url(#SVGID_216_)" points="492.728,2682.604 293.346,2899.855 81.143,2705.106 
		280.525,2487.855 	"/>
</g>
<g>
	<defs>
		<path id="SVGID_217_" d="M413.052,2748.877v-110.552c0-28.131,10.554-42.207,32.159-42.207c24.124,0,40.709,20.106,40.709,56.283
			v82.907c0,36.176-16.585,56.281-40.709,56.281C423.606,2791.59,413.052,2777.516,413.052,2748.877 M485.92,2468.495v124.112
			c-11.566-20.106-29.144-30.155-52.256-30.155c-39.201,0-58.802,24.124-58.802,72.859v116.583
			c0,48.733,19.601,73.364,58.802,73.364c26.624,0,45.709-13.064,56.779-39.202c0.496,16.586,2.004,28.142,4.008,34.173h34.678
			c-3.512-15.573-5.534-38.189-5.534-68.841v-282.894H485.92z"/>
	</defs>
	<clipPath id="SVGID_218_">
		<use xlink:href="#SVGID_217_"  overflow="visible"/>
	</clipPath>
	
		<linearGradient id="SVGID_219_" gradientUnits="userSpaceOnUse" x1="-294.9009" y1="3314.2134" x2="-293.9009" y2="3314.2134" gradientTransform="matrix(-935.446 1019.2831 1019.2831 935.446 -3652921.75 -2797700.25)">
		<stop  offset="0" style="stop-color:#2F6BB3"/>
		<stop  offset="1" style="stop-color:#273E7C"/>
	</linearGradient>
	<polygon clip-path="url(#SVGID_218_)" fill="url(#SVGID_219_)" points="706.856,2631.603 458.6,2902.109 197.135,2662.15 
		445.391,2391.644 	"/>
</g>
<g>
	<defs>
		<polygon id="SVGID_220_" points="546.726,2468.495 546.726,2820.229 686.412,2820.229 686.412,2784.548 585.908,2784.548 
			585.908,2468.495 		"/>
	</defs>
	<clipPath id="SVGID_221_">
		<use xlink:href="#SVGID_220_"  overflow="visible"/>
	</clipPath>
	
		<linearGradient id="SVGID_222_" gradientUnits="userSpaceOnUse" x1="-294.9009" y1="3314.2603" x2="-293.9009" y2="3314.2603" gradientTransform="matrix(1312.8484 1312.8484 1312.8484 -1312.8484 -3964219.75 4740052)">
		<stop  offset="0" style="stop-color:#009676"/>
		<stop  offset="1" style="stop-color:#0D5042"/>
		<stop  offset="1" style="stop-color:#FFF2E9"/>
	</linearGradient>
	<polygon clip-path="url(#SVGID_221_)" fill="url(#SVGID_222_)" points="616.569,2398.652 862.279,2644.362 616.569,2890.072 
		370.859,2644.362 	"/>
</g>
<g>
	<defs>
		<path id="SVGID_223_" d="M728.61,2640.339c0-29.649,12.063-44.221,36.683-44.221c25.135,0,37.693,14.571,37.693,44.221v28.142
			H728.61V2640.339z M690.42,2643.861v99.492c0,52.256,26.643,81.905,74.873,81.905c48.247,0,74.872-29.649,74.872-81.905v-4.026
			h-36.683v7.538c0,29.648-12.558,44.726-37.675,44.726c-24.62,0-37.197-15.077-37.197-44.726v-47.237h111.555v-55.767
			c0-52.266-26.625-81.409-74.872-81.409C716.568,2562.452,690.42,2591.595,690.42,2643.861"/>
	</defs>
	<clipPath id="SVGID_224_">
		<use xlink:href="#SVGID_223_"  overflow="visible"/>
	</clipPath>
	
		<linearGradient id="SVGID_225_" gradientUnits="userSpaceOnUse" x1="-294.9009" y1="3314.2407" x2="-293.9009" y2="3314.2407" gradientTransform="matrix(1312.8484 1312.8484 1312.8484 -1312.8484 -3964143.75 4739977)">
		<stop  offset="0" style="stop-color:#009676"/>
		<stop  offset="1" style="stop-color:#0D5042"/>
		<stop  offset="1" style="stop-color:#FFF2E9"/>
	</linearGradient>
	<polygon clip-path="url(#SVGID_224_)" fill="url(#SVGID_225_)" points="765.292,2487.58 971.569,2693.855 765.292,2900.131 
		559.017,2693.855 	"/>
</g>
<g>
	<defs>
		<path id="SVGID_226_" d="M893.928,2735.309v-82.907c0-36.177,16.585-56.283,40.71-56.283c21.604,0,32.654,14.076,32.654,42.207
			v110.552c0,28.639-11.05,42.713-32.654,42.713C910.513,2791.59,893.928,2771.485,893.928,2735.309 M856.253,2468.495v351.734
			h27.636l5.02-35.681c10.554,27.14,29.639,40.71,56.779,40.71c39.697,0,59.298-24.631,59.298-73.364v-116.583
			c0-48.735-19.601-72.859-59.298-72.859c-22.616,0-40.194,10.049-51.76,30.155v-124.112H856.253z"/>
	</defs>
	<clipPath id="SVGID_227_">
		<use xlink:href="#SVGID_226_"  overflow="visible"/>
	</clipPath>
	
		<linearGradient id="SVGID_228_" gradientUnits="userSpaceOnUse" x1="-294.9009" y1="3314.2612" x2="-293.9009" y2="3314.2612" gradientTransform="matrix(1312.8484 1312.8484 1312.8484 -1312.8484 -3964063.75 4739897.5)">
		<stop  offset="0" style="stop-color:#009676"/>
		<stop  offset="1" style="stop-color:#0D5042"/>
		<stop  offset="1" style="stop-color:#FFF2E9"/>
	</linearGradient>
	<polygon clip-path="url(#SVGID_227_)" fill="url(#SVGID_228_)" points="930.62,2394.128 1183.368,2646.876 930.62,2899.625 
		677.871,2646.876 	"/>
</g>
<g>
	<defs>
		<path id="SVGID_229_" d="M504.111,1969.078h-65.476H170.132c-102.111,0-191.8,76.848-198.202,178.758
			c-6.964,110.866,81.249,203.296,190.637,203.296h210.847c9.29,0,16.819-7.53,16.819-16.818v-31.6c0-0.001-0.002-0.001-0.002-0.001
			H162.567c-84.567,0-152.179-73.974-141.509-160.617c8.913-72.369,74.313-124.6,147.23-124.6l270.347,0.001h121.428
			c0.504,0,0.912,0.407,0.912,0.91v177.187v0.002h30.673c9.791,0,17.728-7.938,17.728-17.729v-159.459
			c0-0.503,0.408-0.91,0.911-0.91h72.116c0.502,0,0.91,0.407,0.91,0.91v177.187c0,0.002,0.001,0.002,0.001,0.002h30.673
			c9.79,0,17.728-7.938,17.728-17.729v-208.788H504.111z"/>
	</defs>
	<clipPath id="SVGID_230_">
		<use xlink:href="#SVGID_229_"  overflow="visible"/>
	</clipPath>
	
		<linearGradient id="SVGID_231_" gradientUnits="userSpaceOnUse" x1="-294.9009" y1="3314.2192" x2="-293.9009" y2="3314.2192" gradientTransform="matrix(1312.8484 1312.8484 1312.8484 -1312.8484 -3964055.75 4739889)">
		<stop  offset="0" style="stop-color:#009676"/>
		<stop  offset="1" style="stop-color:#0D5042"/>
		<stop  offset="1" style="stop-color:#FFF2E9"/>
	</linearGradient>
	<polygon clip-path="url(#SVGID_230_)" fill="url(#SVGID_231_)" points="348.341,1585.704 922.742,2160.105 348.34,2734.506 
		-226.061,2160.105 	"/>
</g>
<g>
	<defs>
		<path id="SVGID_232_" d="M438.635,2065.038v129.586v60.548v79.143c0,9.289,7.53,16.817,16.818,16.817h358.505
			c95.586,0,174.769-70.651,188.643-162.434h-48.908c-13.278,64.981-70.886,114.015-139.735,114.015H487.037v-47.541v-60.548
			v-112.767c0-9.289-7.529-16.819-16.817-16.819H438.635z"/>
	</defs>
	<clipPath id="SVGID_233_">
		<use xlink:href="#SVGID_232_"  overflow="visible"/>
	</clipPath>
	
		<linearGradient id="SVGID_234_" gradientUnits="userSpaceOnUse" x1="-294.9009" y1="3314.27" x2="-293.9009" y2="3314.27" gradientTransform="matrix(-946.6027 1031.4398 1031.4398 946.6027 -3696628.75 -2831214.5)">
		<stop  offset="0" style="stop-color:#2F6BB3"/>
		<stop  offset="1" style="stop-color:#273E7C"/>
	</linearGradient>
	<polygon clip-path="url(#SVGID_233_)" fill="url(#SVGID_234_)" points="1145.123,2195.837 744.762,2632.08 296.113,2220.333 
		696.474,1784.09 	"/>
</g>
<g>
	<defs>
		<path id="SVGID_235_" d="M796.936,1969.078c-9.289,0-16.819,7.529-16.819,16.818v31.601h33.841
			c71.9,0,131.38,53.523,141.079,122.784h48.908c-9.951-96.049-91.352-171.203-189.987-171.203H796.936z"/>
	</defs>
	<clipPath id="SVGID_236_">
		<use xlink:href="#SVGID_235_"  overflow="visible"/>
	</clipPath>
	
		<linearGradient id="SVGID_237_" gradientUnits="userSpaceOnUse" x1="-294.9009" y1="3314.2397" x2="-293.9009" y2="3314.2397" gradientTransform="matrix(-946.6027 1031.4398 1031.4398 946.6027 -3696581.25 -2831170.5)">
		<stop  offset="0" style="stop-color:#2F6BB3"/>
		<stop  offset="1" style="stop-color:#273E7C"/>
	</linearGradient>
	<polygon clip-path="url(#SVGID_236_)" fill="url(#SVGID_237_)" points="1089.232,2047.35 901.613,2251.784 694.83,2062.008 
		882.449,1857.575 	"/>
</g>
<g>
	<defs>
		<path id="SVGID_238_" d="M-9.748,2945.909c-3.809,4.146-5.715,9.3-5.715,15.238c0,3.36,0.673,6.499,1.906,9.412h-10.197v12.772
			h47.508v-12.772H-0.224c-1.905-2.128-2.802-4.931-2.802-8.517c0-3.024,0.673-5.49,2.017-7.395c1.569-2.354,3.81-3.474,6.611-3.474
			c4.034,0,6.723,2.018,7.955,6.052l8.964-6.163c-3.138-7.171-9.748-11.43-17.479-11.43
			C-0.896,2939.633-5.826,2941.764-9.748,2945.909"/>
	</defs>
	<clipPath id="SVGID_239_">
		<use xlink:href="#SVGID_238_"  overflow="visible"/>
	</clipPath>
	
		<linearGradient id="SVGID_240_" gradientUnits="userSpaceOnUse" x1="-294.9009" y1="3314.2437" x2="-293.9009" y2="3314.2437" gradientTransform="matrix(1312.8484 1312.8484 1312.8484 -1312.8484 -3964663.75 4740496)">
		<stop  offset="0" style="stop-color:#009676"/>
		<stop  offset="1" style="stop-color:#0D5042"/>
		<stop  offset="1" style="stop-color:#FFF2E9"/>
	</linearGradient>
	<polygon clip-path="url(#SVGID_239_)" fill="url(#SVGID_240_)" points="0,2915.879 45.603,2961.483 0,3007.085 -45.603,2961.483 	
		"/>
</g>
<g>
	<defs>
		<rect id="SVGID_241_" x="35.408" y="2910.95" width="12.436" height="72.382"/>
	</defs>
	<clipPath id="SVGID_242_">
		<use xlink:href="#SVGID_241_"  overflow="visible"/>
	</clipPath>
	
		<linearGradient id="SVGID_243_" gradientUnits="userSpaceOnUse" x1="-294.9009" y1="3314.2417" x2="-293.9009" y2="3314.2417" gradientTransform="matrix(1312.8484 1312.8484 1312.8484 -1312.8484 -3964631.75 4740465.5)">
		<stop  offset="0" style="stop-color:#009676"/>
		<stop  offset="1" style="stop-color:#0D5042"/>
		<stop  offset="1" style="stop-color:#FFF2E9"/>
	</linearGradient>
	<polygon clip-path="url(#SVGID_242_)" fill="url(#SVGID_243_)" points="41.626,2904.732 84.035,2947.141 41.626,2989.55 
		-0.783,2947.141 	"/>
</g>
<g>
	<defs>
		<path id="SVGID_244_" d="M70.926,2957.785c0-7.618,4.37-14.005,10.98-14.005c7.172,0,11.877,5.826,11.877,14.565
			c0,7.395-4.594,13.67-11.316,13.67C75.632,2972.015,70.926,2965.628,70.926,2957.785 M58.377,2957.785
			c0,14.902,9.636,25.547,24.09,25.547c5.714,0,9.748-1.905,11.877-5.714c-0.224,8.74-4.146,14.006-11.989,14.23v9.972
			c16.247,0,24.313-6.723,24.313-20.057v-23.642c0-14.79-9.411-25.771-24.201-25.771
			C68.349,2932.351,58.377,2942.66,58.377,2957.785"/>
	</defs>
	<clipPath id="SVGID_245_">
		<use xlink:href="#SVGID_244_"  overflow="visible"/>
	</clipPath>
	
		<linearGradient id="SVGID_246_" gradientUnits="userSpaceOnUse" x1="-294.9009" y1="3314.2397" x2="-293.9009" y2="3314.2397" gradientTransform="matrix(1312.8484 1312.8484 1312.8484 -1312.8484 -3964619.75 4740452.5)">
		<stop  offset="0" style="stop-color:#009676"/>
		<stop  offset="1" style="stop-color:#0D5042"/>
		<stop  offset="1" style="stop-color:#FFF2E9"/>
	</linearGradient>
	<polygon clip-path="url(#SVGID_245_)" fill="url(#SVGID_246_)" points="82.522,2908.206 141.402,2967.085 82.522,3025.965 
		23.643,2967.085 	"/>
</g>
<g>
	<defs>
		<path id="SVGID_247_" d="M129.415,2943.892c4.034,0,7.843,0.224,11.316,1.008c11.318,2.466,17.032,10.98,17.032,25.659h-40.56
			v12.772h72.717v-12.772h-19.497c-0.111-19.16-7.618-31.262-22.632-36.303c-2.913-1.009-5.154-1.458-6.723-1.569
			c-1.569-0.112-5.49-0.225-11.653-0.225V2943.892z"/>
	</defs>
	<clipPath id="SVGID_248_">
		<use xlink:href="#SVGID_247_"  overflow="visible"/>
	</clipPath>
	
		<linearGradient id="SVGID_249_" gradientUnits="userSpaceOnUse" x1="-294.9009" y1="3314.2495" x2="-293.9009" y2="3314.2495" gradientTransform="matrix(1312.8484 1312.8484 1312.8484 -1312.8484 -3964591.75 4740424.5)">
		<stop  offset="0" style="stop-color:#009676"/>
		<stop  offset="1" style="stop-color:#0D5042"/>
		<stop  offset="1" style="stop-color:#FFF2E9"/>
	</linearGradient>
	<polygon clip-path="url(#SVGID_248_)" fill="url(#SVGID_249_)" points="153.562,2896.104 215.354,2957.897 153.562,3019.69 
		91.769,2957.897 	"/>
</g>
<g>
	<defs>
		<path id="SVGID_250_" d="M205.047,2911.063v47.171c0,3.921-0.448,6.835-1.344,8.515c-1.345,2.577-3.81,3.811-7.507,3.811h-11.654
			v12.772h51.318v-12.772h-21.065c1.793-2.128,2.689-6.387,2.689-12.998v-46.498H205.047z"/>
	</defs>
	<clipPath id="SVGID_251_">
		<use xlink:href="#SVGID_250_"  overflow="visible"/>
	</clipPath>
	
		<linearGradient id="SVGID_252_" gradientUnits="userSpaceOnUse" x1="-294.9009" y1="3314.2456" x2="-293.9009" y2="3314.2456" gradientTransform="matrix(1312.8484 1312.8484 1312.8484 -1312.8484 -3964555.75 4740386)">
		<stop  offset="0" style="stop-color:#009676"/>
		<stop  offset="1" style="stop-color:#0D5042"/>
		<stop  offset="1" style="stop-color:#FFF2E9"/>
	</linearGradient>
	<polygon clip-path="url(#SVGID_251_)" fill="url(#SVGID_252_)" points="210.201,2885.404 271.995,2947.197 210.201,3008.991 
		148.408,2947.198 	"/>
</g>
<g>
	<defs>
		<path id="SVGID_253_" d="M252.107,2911.063v47.73c0,4.033-0.335,6.723-0.896,8.067c-1.232,2.465-3.81,3.698-7.955,3.698h-10.644
			v12.772h13.22c12.55,0,18.824-6.722,18.824-20.281v-51.987H252.107z"/>
	</defs>
	<clipPath id="SVGID_254_">
		<use xlink:href="#SVGID_253_"  overflow="visible"/>
	</clipPath>
	
		<linearGradient id="SVGID_255_" gradientUnits="userSpaceOnUse" x1="-294.9009" y1="3314.2417" x2="-293.9009" y2="3314.2417" gradientTransform="matrix(1312.8484 1312.8484 1312.8484 -1312.8484 -3964531.75 4740362)">
		<stop  offset="0" style="stop-color:#009676"/>
		<stop  offset="1" style="stop-color:#0D5042"/>
		<stop  offset="1" style="stop-color:#FFF2E9"/>
	</linearGradient>
	<polygon clip-path="url(#SVGID_254_)" fill="url(#SVGID_255_)" points="248.634,2895.041 300.791,2947.198 248.634,2999.354 
		196.478,2947.198 	"/>
</g>
<g>
	<defs>
		<path id="SVGID_256_" d="M320.568,3026.693h12.325v-12.438h-12.325V3026.693z M341.744,3026.693h12.326v-12.438h-12.326V3026.693z
			 M349.811,2945.572V2957c0.673-0.111,1.345-0.111,2.017-0.111c7.17,0,11.317,4.93,11.317,11.877
			c0,11.428-10.981,21.064-25.547,21.064c-16.246,0-26.33-10.869-26.33-28.236v-11.093h-12.55v12.549
			c0,22.074,17.031,38.881,38.544,38.881c18.263,0,33.277-10.98,36.863-28.459c5.154,7.73,9.075,9.859,22.857,9.859v-12.772h-4.706
			c-6.386,0-10.756-3.25-15.35-11.653c-4.93-8.852-12.325-13.334-22.185-13.334H349.811z"/>
	</defs>
	<clipPath id="SVGID_257_">
		<use xlink:href="#SVGID_256_"  overflow="visible"/>
	</clipPath>
	
		<linearGradient id="SVGID_258_" gradientUnits="userSpaceOnUse" x1="-294.9009" y1="3314.2417" x2="-293.9009" y2="3314.2417" gradientTransform="matrix(1312.8484 1312.8484 1312.8484 -1312.8484 -3964499.75 4740333)">
		<stop  offset="0" style="stop-color:#009676"/>
		<stop  offset="1" style="stop-color:#0D5042"/>
		<stop  offset="1" style="stop-color:#FFF2E9"/>
	</linearGradient>
	<polygon clip-path="url(#SVGID_257_)" fill="url(#SVGID_258_)" points="347.85,2896.44 437.542,2986.132 347.85,3075.825 
		258.158,2986.132 	"/>
</g>
<g>
	<defs>
		<path id="SVGID_259_" d="M413.007,2932.462v26.331c0,4.033-0.337,6.723-0.897,8.067c-1.233,2.465-3.81,3.698-7.955,3.698h-10.644
			v12.772h13.221c12.549,0,18.823-6.722,18.823-20.281v-30.588H413.007z M413.118,2922.155h12.213v-12.438h-12.213V2922.155z"/>
	</defs>
	<clipPath id="SVGID_260_">
		<use xlink:href="#SVGID_259_"  overflow="visible"/>
	</clipPath>
	
		<linearGradient id="SVGID_261_" gradientUnits="userSpaceOnUse" x1="-294.9009" y1="3314.2417" x2="-293.9009" y2="3314.2417" gradientTransform="matrix(1312.8484 1312.8484 1312.8484 -1312.8484 -3964447.75 4740281)">
		<stop  offset="0" style="stop-color:#009676"/>
		<stop  offset="1" style="stop-color:#0D5042"/>
		<stop  offset="1" style="stop-color:#FFF2E9"/>
	</linearGradient>
	<polygon clip-path="url(#SVGID_260_)" fill="url(#SVGID_261_)" points="409.533,2893.696 462.362,2946.525 409.533,2999.354 
		356.704,2946.525 	"/>
</g>
<g>
	<defs>
		<path id="SVGID_262_" d="M437.209,2911.063v51.877c0,6.162,1.457,10.979,4.482,14.565c3.249,3.921,7.843,5.826,13.894,5.826
			h14.678v-12.772h-7.396c-4.706,0-7.955-0.673-9.635-1.904c-2.353-1.682-3.586-5.267-3.586-10.757v-46.835H437.209z"/>
	</defs>
	<clipPath id="SVGID_263_">
		<use xlink:href="#SVGID_262_"  overflow="visible"/>
	</clipPath>
	
		<linearGradient id="SVGID_264_" gradientUnits="userSpaceOnUse" x1="-294.9009" y1="3314.2437" x2="-293.9009" y2="3314.2437" gradientTransform="matrix(1312.8484 1312.8484 1312.8484 -1312.8484 -3964431.75 4740262)">
		<stop  offset="0" style="stop-color:#009676"/>
		<stop  offset="1" style="stop-color:#0D5042"/>
		<stop  offset="1" style="stop-color:#FFF2E9"/>
	</linearGradient>
	<polygon clip-path="url(#SVGID_263_)" fill="url(#SVGID_264_)" points="453.736,2894.536 506.397,2947.197 453.736,2999.859 
		401.075,2947.197 	"/>
</g>
<g>
	<defs>
		<path id="SVGID_265_" d="M486.734,2932.462v25.771c0,3.921-0.449,6.835-1.345,8.515c-1.345,2.577-3.81,3.811-7.507,3.811H466.23
			v12.772h51.764v-12.772h-21.512c1.792-2.128,2.689-6.387,2.689-12.998v-25.099H486.734z M486.846,2922.155h12.325v-12.438h-12.325
			V2922.155z"/>
	</defs>
	<clipPath id="SVGID_266_">
		<use xlink:href="#SVGID_265_"  overflow="visible"/>
	</clipPath>
	
		<linearGradient id="SVGID_267_" gradientUnits="userSpaceOnUse" x1="-294.9009" y1="3314.2456" x2="-293.9009" y2="3314.2456" gradientTransform="matrix(1312.8484 1312.8484 1312.8484 -1312.8484 -3964411.75 4740245)">
		<stop  offset="0" style="stop-color:#009676"/>
		<stop  offset="1" style="stop-color:#0D5042"/>
		<stop  offset="1" style="stop-color:#FFF2E9"/>
	</linearGradient>
	<polygon clip-path="url(#SVGID_266_)" fill="url(#SVGID_267_)" points="492.112,2883.835 554.801,2946.525 492.112,3009.213 
		429.423,2946.525 	"/>
</g>
<g>
	<defs>
		<path id="SVGID_268_" d="M535.027,3007.982h12.325v-12.549h-12.325V3007.982z M535.027,2932.462v25.771
			c0,3.921-0.448,6.835-1.345,8.515c-1.344,2.577-3.81,3.811-7.507,3.811h-11.653v12.772h51.765v-12.772h-21.512
			c1.793-2.128,2.689-6.387,2.689-12.998v-25.099H535.027z"/>
	</defs>
	<clipPath id="SVGID_269_">
		<use xlink:href="#SVGID_268_"  overflow="visible"/>
	</clipPath>
	
		<linearGradient id="SVGID_270_" gradientUnits="userSpaceOnUse" x1="-294.9009" y1="3314.2417" x2="-293.9009" y2="3314.2417" gradientTransform="matrix(1312.8484 1312.8484 1312.8484 -1312.8484 -3964395.75 4740227)">
		<stop  offset="0" style="stop-color:#009676"/>
		<stop  offset="1" style="stop-color:#0D5042"/>
		<stop  offset="1" style="stop-color:#FFF2E9"/>
	</linearGradient>
	<polygon clip-path="url(#SVGID_269_)" fill="url(#SVGID_270_)" points="540.405,2906.581 604.046,2970.222 540.404,3033.865 
		476.763,2970.222 	"/>
</g>
<g>
	<defs>
		<path id="SVGID_271_" d="M583.319,2911.063v47.171c0,3.921-0.448,6.835-1.345,8.515c-1.344,2.577-3.809,3.811-7.507,3.811h-11.652
			v12.772h51.316v-12.772h-21.064c1.793-2.128,2.689-6.387,2.689-12.998v-46.498H583.319z"/>
	</defs>
	<clipPath id="SVGID_272_">
		<use xlink:href="#SVGID_271_"  overflow="visible"/>
	</clipPath>
	
		<linearGradient id="SVGID_273_" gradientUnits="userSpaceOnUse" x1="-294.9009" y1="3314.2446" x2="-293.9009" y2="3314.2446" gradientTransform="matrix(1312.8484 1312.8484 1312.8484 -1312.8484 -3964363.75 4740197)">
		<stop  offset="0" style="stop-color:#009676"/>
		<stop  offset="1" style="stop-color:#0D5042"/>
		<stop  offset="1" style="stop-color:#FFF2E9"/>
	</linearGradient>
	<polygon clip-path="url(#SVGID_272_)" fill="url(#SVGID_273_)" points="588.473,2885.405 650.266,2947.197 588.473,3008.99 
		526.681,2947.197 	"/>
</g>
<g>
	<defs>
		<path id="SVGID_274_" d="M630.379,2911.063v47.73c0,4.033-0.337,6.723-0.896,8.067c-1.232,2.465-3.81,3.698-7.955,3.698h-10.645
			v12.772h13.221c12.55,0,18.824-6.722,18.824-20.281v-51.987H630.379z"/>
	</defs>
	<clipPath id="SVGID_275_">
		<use xlink:href="#SVGID_274_"  overflow="visible"/>
	</clipPath>
	
		<linearGradient id="SVGID_276_" gradientUnits="userSpaceOnUse" x1="-294.9009" y1="3314.2417" x2="-293.9009" y2="3314.2417" gradientTransform="matrix(1312.8484 1312.8484 1312.8484 -1312.8484 -3964339.75 4740173)">
		<stop  offset="0" style="stop-color:#009676"/>
		<stop  offset="1" style="stop-color:#0D5042"/>
		<stop  offset="1" style="stop-color:#FFF2E9"/>
	</linearGradient>
	<polygon clip-path="url(#SVGID_275_)" fill="url(#SVGID_276_)" points="626.905,2895.041 679.063,2947.197 626.905,2999.354 
		574.749,2947.197 	"/>
</g>
<g>
	<defs>
		<rect id="SVGID_277_" x="654.469" y="2910.95" width="12.437" height="72.382"/>
	</defs>
	<clipPath id="SVGID_278_">
		<use xlink:href="#SVGID_277_"  overflow="visible"/>
	</clipPath>
	
		<linearGradient id="SVGID_279_" gradientUnits="userSpaceOnUse" x1="-294.9009" y1="3314.2417" x2="-293.9009" y2="3314.2417" gradientTransform="matrix(1312.8484 1312.8484 1312.8484 -1312.8484 -3964323.75 4740156)">
		<stop  offset="0" style="stop-color:#009676"/>
		<stop  offset="1" style="stop-color:#0D5042"/>
		<stop  offset="1" style="stop-color:#FFF2E9"/>
	</linearGradient>
	<polygon clip-path="url(#SVGID_278_)" fill="url(#SVGID_279_)" points="660.688,2904.731 703.097,2947.141 660.688,2989.55 
		618.278,2947.141 	"/>
</g>
<g>
	<defs>
		<path id="SVGID_280_" d="M759.12,2911.063v51.092c0,15.798-9.412,27.788-22.634,27.788c-13.669,0-22.855-12.325-22.855-27.788
			v-9.523h-12.661v10.98c0,21.063,16.022,38.319,35.517,38.319c12.326,0,23.867-6.946,30.253-18.6h23.305v-12.772h-18.935
			c0.448-2.354,0.672-4.595,0.672-6.947v-52.549H759.12z"/>
	</defs>
	<clipPath id="SVGID_281_">
		<use xlink:href="#SVGID_280_"  overflow="visible"/>
	</clipPath>
	
		<linearGradient id="SVGID_282_" gradientUnits="userSpaceOnUse" x1="-294.9009" y1="3314.2407" x2="-293.9009" y2="3314.2407" gradientTransform="matrix(1312.8484 1312.8484 1312.8484 -1312.8484 -3964283.75 4740117.5)">
		<stop  offset="0" style="stop-color:#009676"/>
		<stop  offset="1" style="stop-color:#0D5042"/>
		<stop  offset="1" style="stop-color:#FFF2E9"/>
	</linearGradient>
	<polygon clip-path="url(#SVGID_281_)" fill="url(#SVGID_282_)" points="745.506,2866.525 835.478,2956.497 745.506,3046.468 
		655.535,2956.497 	"/>
</g>
<g>
	<defs>
		<path id="SVGID_283_" d="M784.331,3007.87h12.325v-12.55h-12.325V3007.87z M805.508,3007.87h12.325v-12.55h-12.325V3007.87z
			 M805.844,2932.462v25.771c0,3.921-0.447,6.835-1.344,8.515c-1.344,2.577-3.922,3.811-7.619,3.811h-11.989v12.772h51.653v-12.772
			H815.48c1.905-2.128,2.801-6.387,2.801-12.998v-25.099H805.844z"/>
	</defs>
	<clipPath id="SVGID_284_">
		<use xlink:href="#SVGID_283_"  overflow="visible"/>
	</clipPath>
	
		<linearGradient id="SVGID_285_" gradientUnits="userSpaceOnUse" x1="-294.9009" y1="3314.2446" x2="-293.9009" y2="3314.2446" gradientTransform="matrix(1312.8484 1312.8484 1312.8484 -1312.8484 -3964263.75 4740097)">
		<stop  offset="0" style="stop-color:#009676"/>
		<stop  offset="1" style="stop-color:#0D5042"/>
		<stop  offset="1" style="stop-color:#FFF2E9"/>
	</linearGradient>
	<polygon clip-path="url(#SVGID_284_)" fill="url(#SVGID_285_)" points="810.438,2906.356 874.249,2970.167 810.438,3033.977 
		746.627,2970.167 	"/>
</g>
<g>
	<defs>
		<path id="SVGID_286_" d="M852.792,2911.063v47.73c0,4.033-0.335,6.723-0.896,8.067c-1.232,2.465-3.81,3.698-7.955,3.698h-10.644
			v12.772h13.222c12.548,0,18.822-6.722,18.822-20.281v-51.987H852.792z"/>
	</defs>
	<clipPath id="SVGID_287_">
		<use xlink:href="#SVGID_286_"  overflow="visible"/>
	</clipPath>
	
		<linearGradient id="SVGID_288_" gradientUnits="userSpaceOnUse" x1="-294.9009" y1="3314.2417" x2="-293.9009" y2="3314.2417" gradientTransform="matrix(1312.8484 1312.8484 1312.8484 -1312.8484 -3964231.75 4740062)">
		<stop  offset="0" style="stop-color:#009676"/>
		<stop  offset="1" style="stop-color:#0D5042"/>
		<stop  offset="1" style="stop-color:#FFF2E9"/>
	</linearGradient>
	<polygon clip-path="url(#SVGID_287_)" fill="url(#SVGID_288_)" points="849.319,2895.041 901.475,2947.198 849.319,2999.354 
		797.163,2947.198 	"/>
</g>
<g>
	<defs>
		<path id="SVGID_289_" d="M888.088,2943.892c4.034,0,7.842,0.224,11.316,1.008c11.317,2.466,17.031,10.98,17.031,25.659h-40.56
			v12.772h72.717v-12.772h-19.496c-0.112-19.16-7.619-31.262-22.633-36.303c-2.913-1.009-5.154-1.458-6.723-1.569
			c-1.569-0.112-5.49-0.225-11.652-0.225V2943.892z"/>
	</defs>
	<clipPath id="SVGID_290_">
		<use xlink:href="#SVGID_289_"  overflow="visible"/>
	</clipPath>
	
		<linearGradient id="SVGID_291_" gradientUnits="userSpaceOnUse" x1="-294.9009" y1="3314.2485" x2="-293.9009" y2="3314.2485" gradientTransform="matrix(1312.8484 1312.8484 1312.8484 -1312.8484 -3964211.75 4740045)">
		<stop  offset="0" style="stop-color:#009676"/>
		<stop  offset="1" style="stop-color:#0D5042"/>
		<stop  offset="1" style="stop-color:#FFF2E9"/>
	</linearGradient>
	<polygon clip-path="url(#SVGID_290_)" fill="url(#SVGID_291_)" points="912.234,2896.105 974.027,2957.898 912.233,3019.691 
		850.44,2957.898 	"/>
</g>
<g>
	<defs>
		<path id="SVGID_292_" d="M962.487,2911.063v47.73c0,4.033-0.336,6.723-0.896,8.067c-1.233,2.465-3.81,3.698-7.955,3.698h-10.645
			v12.772h13.221c12.55,0,18.824-6.722,18.824-20.281v-51.987H962.487z"/>
	</defs>
	<clipPath id="SVGID_293_">
		<use xlink:href="#SVGID_292_"  overflow="visible"/>
	</clipPath>
	
		<linearGradient id="SVGID_294_" gradientUnits="userSpaceOnUse" x1="-294.9009" y1="3314.2417" x2="-293.9009" y2="3314.2417" gradientTransform="matrix(1312.8484 1312.8484 1312.8484 -1312.8484 -3964175.75 4740007)">
		<stop  offset="0" style="stop-color:#009676"/>
		<stop  offset="1" style="stop-color:#0D5042"/>
		<stop  offset="1" style="stop-color:#FFF2E9"/>
	</linearGradient>
	<polygon clip-path="url(#SVGID_293_)" fill="url(#SVGID_294_)" points="959.013,2895.041 1011.17,2947.198 959.013,2999.354 
		906.856,2947.198 	"/>
</g>
<g>
	<defs>
		<rect id="SVGID_295_" x="986.578" y="2910.95" width="12.437" height="72.382"/>
	</defs>
	<clipPath id="SVGID_296_">
		<use xlink:href="#SVGID_295_"  overflow="visible"/>
	</clipPath>
	
		<linearGradient id="SVGID_297_" gradientUnits="userSpaceOnUse" x1="-294.9009" y1="3314.2417" x2="-293.9009" y2="3314.2417" gradientTransform="matrix(1312.8484 1312.8484 1312.8484 -1312.8484 -3964159.75 4739990)">
		<stop  offset="0" style="stop-color:#009676"/>
		<stop  offset="1" style="stop-color:#0D5042"/>
		<stop  offset="1" style="stop-color:#FFF2E9"/>
	</linearGradient>
	<polygon clip-path="url(#SVGID_296_)" fill="url(#SVGID_297_)" points="992.796,2904.732 1035.206,2947.141 992.796,2989.55 
		950.387,2947.141 	"/>
</g>
</svg>
