<?xml version="1.0" encoding="utf-8"?>
<!-- Generator: Adobe Illustrator 16.0.0, SVG Export Plug-In . SVG Version: 6.00 Build 0)  -->
<!DOCTYPE svg PUBLIC "-//W3C//DTD SVG 1.1//EN" "http://www.w3.org/Graphics/SVG/1.1/DTD/svg11.dtd">
<svg version="1.1" id="Layer_1" xmlns="http://www.w3.org/2000/svg" xmlns:xlink="http://www.w3.org/1999/xlink" x="0px" y="0px"
	 width="1534.022px" height="1299.991px" viewBox="0 0 1534.022 1299.991" enable-background="new 0 0 1534.022 1299.991"
	 xml:space="preserve">
<rect x="-1771.317" y="1633.663" fill="#FFFFFF" width="3094.32" height="2664.382"/>
<g>
	<defs>
		<polygon id="SVGID_1_" points="3251.919,3886.211 3251.919,3530.282 3309.374,3530.282 3361.751,3814.512 3413.606,3530.282 
			3471.565,3530.282 3471.565,3886.211 3433.441,3886.211 3433.441,3589.264 3376.989,3886.211 3343.442,3886.211 3286.99,3589.264 
			3286.99,3886.211 		"/>
	</defs>
	<clipPath id="SVGID_2_">
		<use xlink:href="#SVGID_1_"  overflow="visible"/>
	</clipPath>
	
		<linearGradient id="SVGID_3_" gradientUnits="userSpaceOnUse" x1="1534.0225" y1="4376.0303" x2="1535.0225" y2="4376.0303" gradientTransform="matrix(-919.8121 1437.7645 1437.7645 919.8121 -4876699.5 -6227959.5)">
		<stop  offset="0" style="stop-color:#2F6BB3"/>
		<stop  offset="1" style="stop-color:#273E7C"/>
	</linearGradient>
	<polygon clip-path="url(#SVGID_2_)" fill="url(#SVGID_3_)" points="3633.142,3633.65 3407.775,3985.922 3090.343,3782.843 
		3315.708,3430.572 	"/>
</g>
<g>
	<defs>
		<path id="SVGID_4_" d="M3528.018,3704.176c0-30.003,12.206-44.748,37.12-44.748c25.434,0,38.142,14.745,38.142,44.748v28.478
			h-75.262V3704.176z M3489.371,3707.739v100.679c0,52.879,26.962,82.883,75.767,82.883c48.822,0,75.764-30.004,75.764-82.883
			v-4.073h-37.119v7.628c0,30.002-12.708,45.26-38.124,45.26c-24.914,0-37.641-15.258-37.641-45.26v-47.801h112.884v-56.433
			c0-52.888-26.941-82.379-75.764-82.379C3515.83,3625.36,3489.371,3654.852,3489.371,3707.739"/>
	</defs>
	<clipPath id="SVGID_5_">
		<use xlink:href="#SVGID_4_"  overflow="visible"/>
	</clipPath>
	
		<linearGradient id="SVGID_6_" gradientUnits="userSpaceOnUse" x1="1534.0225" y1="4376.0303" x2="1535.0225" y2="4376.0303" gradientTransform="matrix(-919.8121 1437.7645 1437.7645 919.8121 -4876532.5 -6227851.5)">
		<stop  offset="0" style="stop-color:#2F6BB3"/>
		<stop  offset="1" style="stop-color:#273E7C"/>
	</linearGradient>
	<polygon clip-path="url(#SVGID_5_)" fill="url(#SVGID_6_)" points="3761.626,3702.595 3596.894,3960.089 3368.646,3814.066 
		3533.378,3556.572 	"/>
</g>
<g>
	<defs>
		<path id="SVGID_7_" d="M3692.758,3814.011V3702.14c0-28.469,10.68-42.712,32.543-42.712c24.411,0,41.193,20.347,41.193,56.955
			v83.895c0,36.609-16.782,56.955-41.193,56.955C3703.438,3857.232,3692.758,3842.989,3692.758,3814.011 M3766.494,3530.282v125.592
			c-11.702-20.346-29.491-30.514-52.879-30.514c-39.669,0-59.504,24.411-59.504,73.727v117.975
			c0,49.315,19.835,74.239,59.504,74.239c26.941,0,46.254-13.22,57.457-39.67c0.501,16.784,2.028,28.478,4.056,34.58h35.092
			c-3.555-15.76-5.602-38.645-5.602-69.662v-286.267H3766.494z"/>
	</defs>
	<clipPath id="SVGID_8_">
		<use xlink:href="#SVGID_7_"  overflow="visible"/>
	</clipPath>
	
		<linearGradient id="SVGID_9_" gradientUnits="userSpaceOnUse" x1="1534.0225" y1="4376.0098" x2="1535.0225" y2="4376.0098" gradientTransform="matrix(-919.8121 1437.7645 1437.7645 919.8121 -4876405.5 -6227771.5)">
		<stop  offset="0" style="stop-color:#2F6BB3"/>
		<stop  offset="1" style="stop-color:#273E7C"/>
	</linearGradient>
	<polygon clip-path="url(#SVGID_8_)" fill="url(#SVGID_9_)" points="3974.105,3635.129 3764.883,3962.166 3490.226,3786.454 
		3699.448,3459.416 	"/>
</g>
<g>
	<defs>
		<polygon id="SVGID_10_" points="3828.026,3530.282 3828.026,3886.211 3969.378,3886.211 3969.378,3850.105 3867.676,3850.105 
			3867.676,3530.282 		"/>
	</defs>
	<clipPath id="SVGID_11_">
		<use xlink:href="#SVGID_10_"  overflow="visible"/>
	</clipPath>
	
		<linearGradient id="SVGID_12_" gradientUnits="userSpaceOnUse" x1="1534.0225" y1="4376.0537" x2="1535.0225" y2="4376.0537" gradientTransform="matrix(1071.6257 1098.4164 1098.4164 -1071.6257 -6447394.5 3007520.25)">
		<stop  offset="0" style="stop-color:#009676"/>
		<stop  offset="1" style="stop-color:#0D5042"/>
		<stop  offset="1" style="stop-color:#FFF2E9"/>
	</linearGradient>
	<polygon clip-path="url(#SVGID_11_)" fill="url(#SVGID_12_)" points="3900.447,3459.628 4147.288,3712.641 3896.957,3956.866 
		3650.116,3703.854 	"/>
</g>
<g>
	<defs>
		<path id="SVGID_13_" d="M4012.078,3704.176c0-30.003,12.206-44.748,37.121-44.748c25.436,0,38.144,14.745,38.144,44.748v28.478
			h-75.265V3704.176z M3973.434,3707.739v100.679c0,52.879,26.962,82.883,75.766,82.883c48.823,0,75.765-30.004,75.765-82.883
			v-4.073h-37.119v7.628c0,30.002-12.708,45.26-38.124,45.26c-24.914,0-37.643-15.258-37.643-45.26v-47.801h112.886v-56.433
			c0-52.888-26.941-82.379-75.765-82.379C3999.893,3625.36,3973.434,3654.852,3973.434,3707.739"/>
	</defs>
	<clipPath id="SVGID_14_">
		<use xlink:href="#SVGID_13_"  overflow="visible"/>
	</clipPath>
	
		<linearGradient id="SVGID_15_" gradientUnits="userSpaceOnUse" x1="1534.0225" y1="4376.0293" x2="1535.0225" y2="4376.0293" gradientTransform="matrix(1071.6257 1098.4164 1098.4164 -1071.6257 -6447318.5 3007443.75)">
		<stop  offset="0" style="stop-color:#009676"/>
		<stop  offset="1" style="stop-color:#0D5042"/>
		<stop  offset="1" style="stop-color:#FFF2E9"/>
	</linearGradient>
	<polygon clip-path="url(#SVGID_14_)" fill="url(#SVGID_15_)" points="4051.069,3549.618 4257.894,3761.613 4047.328,3967.043 
		3840.504,3755.048 	"/>
</g>
<g>
	<defs>
		<path id="SVGID_16_" d="M4179.368,3800.277v-83.895c0-36.608,16.783-56.955,41.195-56.955c21.862,0,33.045,14.243,33.045,42.712
			v111.871c0,28.979-11.183,43.222-33.045,43.222C4196.151,3857.232,4179.368,3836.887,4179.368,3800.277 M4141.245,3530.282
			v355.929h27.965l5.08-36.105c10.68,27.463,29.992,41.195,57.455,41.195c40.172,0,60.006-24.924,60.006-74.239v-117.975
			c0-49.315-19.834-73.727-60.006-73.727c-22.886,0-40.673,10.168-52.377,30.514v-125.592H4141.245z"/>
	</defs>
	<clipPath id="SVGID_17_">
		<use xlink:href="#SVGID_16_"  overflow="visible"/>
	</clipPath>
	
		<linearGradient id="SVGID_18_" gradientUnits="userSpaceOnUse" x1="1534.0225" y1="4376.0547" x2="1535.0225" y2="4376.0547" gradientTransform="matrix(1071.6257 1098.4164 1098.4164 -1071.6257 -6447234.5 3007364)">
		<stop  offset="0" style="stop-color:#009676"/>
		<stop  offset="1" style="stop-color:#0D5042"/>
		<stop  offset="1" style="stop-color:#FFF2E9"/>
	</linearGradient>
	<polygon clip-path="url(#SVGID_17_)" fill="url(#SVGID_18_)" points="4218.356,3455.053 4472.205,3715.248 4214.641,3966.53 
		3960.791,3706.335 	"/>
</g>
<g>
	<defs>
		<path id="SVGID_19_" d="M3790.876,3030.865h-65.477h-268.503c-102.11,0-191.8,76.848-198.2,178.758
			c-6.966,110.866,81.248,203.296,190.637,203.296h210.846c9.29,0,16.82-7.53,16.82-16.818v-31.6c0-0.001-0.002-0.001-0.002-0.001
			h-227.664c-84.567,0-152.18-73.974-141.51-160.617c8.913-72.369,74.313-124.6,147.229-124.6l270.347,0.001h121.429
			c0.505,0,0.911,0.407,0.911,0.91v177.187v0.002h30.673c9.792,0,17.729-7.938,17.729-17.729v-159.459
			c0-0.503,0.407-0.91,0.912-0.91h72.114c0.502,0,0.911,0.407,0.911,0.91v177.187c0,0.002,0.001,0.002,0.001,0.002h30.674
			c9.789,0,17.728-7.938,17.728-17.729v-208.788H3790.876z"/>
	</defs>
	<clipPath id="SVGID_20_">
		<use xlink:href="#SVGID_19_"  overflow="visible"/>
	</clipPath>
	
		<linearGradient id="SVGID_21_" gradientUnits="userSpaceOnUse" x1="1534.0225" y1="4376.0029" x2="1535.0225" y2="4376.0029" gradientTransform="matrix(1071.6257 1098.4164 1098.4164 -1071.6257 -6447230.5 3007360)">
		<stop  offset="0" style="stop-color:#009676"/>
		<stop  offset="1" style="stop-color:#0D5042"/>
		<stop  offset="1" style="stop-color:#FFF2E9"/>
	</linearGradient>
	<polygon clip-path="url(#SVGID_20_)" fill="url(#SVGID_21_)" points="3644.57,2647.607 4209.449,3226.608 3625.641,3796.178 
		3060.762,3217.177 	"/>
</g>
<g>
	<defs>
		<path id="SVGID_22_" d="M3725.4,3126.825v129.586v60.548v79.143c0,9.289,7.53,16.817,16.818,16.817h358.506
			c95.584,0,174.768-70.651,188.642-162.434h-48.908c-13.278,64.981-70.886,114.015-139.733,114.015h-326.922v-47.541v-60.548
			v-112.767c0-9.289-7.529-16.819-16.818-16.819H3725.4z"/>
	</defs>
	<clipPath id="SVGID_23_">
		<use xlink:href="#SVGID_22_"  overflow="visible"/>
	</clipPath>
	
		<linearGradient id="SVGID_24_" gradientUnits="userSpaceOnUse" x1="1534.0225" y1="4376.0508" x2="1535.0225" y2="4376.0508" gradientTransform="matrix(-919.8121 1437.7645 1437.7645 919.8121 -4876470.5 -6227811.5)">
		<stop  offset="0" style="stop-color:#2F6BB3"/>
		<stop  offset="1" style="stop-color:#273E7C"/>
	</linearGradient>
	<polygon clip-path="url(#SVGID_23_)" fill="url(#SVGID_24_)" points="4419.24,3209.912 4125.58,3668.935 3595.526,3329.832 
		3889.187,2870.81 	"/>
</g>
<g>
	<defs>
		<path id="SVGID_25_" d="M4083.7,3030.865c-9.289,0-16.817,7.529-16.817,16.818v31.601h33.842
			c71.897,0,131.378,53.523,141.078,122.784h48.907c-9.949-96.049-91.353-171.203-189.985-171.203H4083.7z"/>
	</defs>
	<clipPath id="SVGID_26_">
		<use xlink:href="#SVGID_25_"  overflow="visible"/>
	</clipPath>
	
		<linearGradient id="SVGID_27_" gradientUnits="userSpaceOnUse" x1="1534.0225" y1="4376.0273" x2="1535.0225" y2="4376.0273" gradientTransform="matrix(-919.8121 1437.7645 1437.7645 919.8121 -4876385.5 -6227755.5)">
		<stop  offset="0" style="stop-color:#2F6BB3"/>
		<stop  offset="1" style="stop-color:#273E7C"/>
	</linearGradient>
	<polygon clip-path="url(#SVGID_26_)" fill="url(#SVGID_27_)" points="4368.428,3080.586 4225.706,3303.676 3989.164,3152.348 
		4131.886,2929.258 	"/>
</g>
<g>
	<defs>
		<polygon id="SVGID_28_" points="3251.919,3952.075 3251.919,4049.802 3290.729,4049.802 3290.729,4039.89 3262.808,4039.89 
			3262.808,3952.075 		"/>
	</defs>
	<clipPath id="SVGID_29_">
		<use xlink:href="#SVGID_28_"  overflow="visible"/>
	</clipPath>
	
		<linearGradient id="SVGID_30_" gradientUnits="userSpaceOnUse" x1="1534.0225" y1="4376.0303" x2="1535.0225" y2="4376.0303" gradientTransform="matrix(-1058.5797 1654.6732 1654.6732 1058.5797 -5612878.5 -7168030)">
		<stop  offset="0" style="stop-color:#2F6BB3"/>
		<stop  offset="1" style="stop-color:#273E7C"/>
	</linearGradient>
	<polygon clip-path="url(#SVGID_29_)" fill="url(#SVGID_30_)" points="3335.092,3980.457 3279.457,4067.42 3207.556,4021.42 
		3263.189,3934.457 	"/>
</g>
<g>
	<defs>
		<path id="SVGID_31_" d="M3302.453,3999.821c0-8.237,3.351-12.286,10.191-12.286c6.981,0,10.471,4.049,10.471,12.286v7.818h-20.662
			V3999.821z M3291.844,4000.798v27.644c0,14.52,7.397,22.756,20.801,22.756s20.802-8.236,20.802-22.756v-1.117h-10.191v2.093
			c0,8.238-3.49,12.427-10.471,12.427c-6.841,0-10.331-4.188-10.331-12.427v-13.122h30.993v-15.497
			c0-14.519-7.398-22.615-20.802-22.615C3299.103,3978.183,3291.844,3986.279,3291.844,4000.798"/>
	</defs>
	<clipPath id="SVGID_32_">
		<use xlink:href="#SVGID_31_"  overflow="visible"/>
	</clipPath>
	
		<linearGradient id="SVGID_33_" gradientUnits="userSpaceOnUse" x1="1534.0225" y1="4376.0293" x2="1535.0225" y2="4376.0293" gradientTransform="matrix(-1058.5797 1654.6732 1654.6732 1058.5797 -5612843.5 -7168010)">
		<stop  offset="0" style="stop-color:#2F6BB3"/>
		<stop  offset="1" style="stop-color:#273E7C"/>
	</linearGradient>
	<polygon clip-path="url(#SVGID_32_)" fill="url(#SVGID_33_)" points="3366.592,3999.388 3321.364,4070.083 3258.698,4029.992 
		3303.926,3959.297 	"/>
</g>
<g>
	<defs>
		<path id="SVGID_34_" d="M3348.382,4026.207v-23.035c0-10.052,4.607-15.637,11.309-15.637c6.003,0,9.074,3.91,9.074,11.729v30.713
			c0,7.958-3.071,11.867-9.074,11.867C3352.989,4041.844,3348.382,4036.26,3348.382,4026.207 M3337.911,3952.075v97.727h7.679
			l1.396-9.912c2.932,7.538,8.237,11.308,15.776,11.308c11.028,0,16.473-6.84,16.473-20.383v-32.389
			c0-13.543-5.444-20.243-16.473-20.243c-6.282,0-11.168,2.792-14.38,8.377v-34.484H3337.911z"/>
	</defs>
	<clipPath id="SVGID_35_">
		<use xlink:href="#SVGID_34_"  overflow="visible"/>
	</clipPath>
	
		<linearGradient id="SVGID_36_" gradientUnits="userSpaceOnUse" x1="1534.0225" y1="4376.0313" x2="1535.0225" y2="4376.0313" gradientTransform="matrix(-1058.5797 1654.6732 1654.6732 1058.5797 -5612819.5 -7167994)">
		<stop  offset="0" style="stop-color:#2F6BB3"/>
		<stop  offset="1" style="stop-color:#273E7C"/>
	</linearGradient>
	<polygon clip-path="url(#SVGID_35_)" fill="url(#SVGID_36_)" points="3424.231,3980.862 3367.233,4069.956 3292.915,4022.41 
		3349.913,3933.316 	"/>
</g>
<g>
	<defs>
		<path id="SVGID_37_" d="M3392.075,4032.351c0-5.864,3.351-10.472,9.911-13.822c5.724-2.931,9.075-5.025,10.192-6.562v14.102
			c0,10.051-4.328,15.914-11.448,15.914C3395.008,4041.982,3392.075,4038.771,3392.075,4032.351 M3383.419,3998.564v1.536h9.912
			v-2.094c0-6.842,3.631-10.751,9.772-10.751c6.004,0,9.075,3.49,9.075,10.472v1.675c0,2.373-0.698,4.329-2.234,5.585
			c-1.535,1.255-5.165,3.21-11.027,5.863c-12.705,6.003-17.451,12.285-17.451,23.035c0,10.609,6.003,17.312,15.635,17.312
			c7.958,0,13.402-3.63,16.334-10.89c0.28,4.887,0.699,7.958,1.117,9.494h9.634c-0.978-4.328-1.536-10.611-1.536-19.126v-31.273
			c0-14.1-6.422-21.22-19.406-21.22C3390.539,3978.183,3383.419,3985.581,3383.419,3998.564"/>
	</defs>
	<clipPath id="SVGID_38_">
		<use xlink:href="#SVGID_37_"  overflow="visible"/>
	</clipPath>
	
		<linearGradient id="SVGID_39_" gradientUnits="userSpaceOnUse" x1="1534.0225" y1="4376.0273" x2="1535.0225" y2="4376.0273" gradientTransform="matrix(-1058.5797 1654.6732 1654.6732 1058.5797 -5612775.5 -7167966)">
		<stop  offset="0" style="stop-color:#2F6BB3"/>
		<stop  offset="1" style="stop-color:#273E7C"/>
	</linearGradient>
	<polygon clip-path="url(#SVGID_38_)" fill="url(#SVGID_39_)" points="3457.331,3999.388 3411.778,4070.59 3348.319,4029.992 
		3393.872,3958.789 	"/>
</g>
<g>
	<defs>
		<path id="SVGID_40_" d="M3438.003,3988.792l-0.141-9.214h-9.074v70.224h10.471v-46.63c0-10.052,4.468-15.637,11.029-15.637
			c5.863,0,8.795,4.049,8.795,12.286v49.98h10.61v-51.376c0-13.543-5.445-20.243-16.194-20.243
			C3446.101,3978.183,3440.935,3981.672,3438.003,3988.792"/>
	</defs>
	<clipPath id="SVGID_41_">
		<use xlink:href="#SVGID_40_"  overflow="visible"/>
	</clipPath>
	
		<linearGradient id="SVGID_42_" gradientUnits="userSpaceOnUse" x1="1534.0225" y1="4376.0303" x2="1535.0225" y2="4376.0303" gradientTransform="matrix(-1058.5797 1654.6732 1654.6732 1058.5797 -5612746.5 -7167946)">
		<stop  offset="0" style="stop-color:#2F6BB3"/>
		<stop  offset="1" style="stop-color:#273E7C"/>
	</linearGradient>
	<polygon clip-path="url(#SVGID_41_)" fill="url(#SVGID_42_)" points="3502.205,3998.982 3457.813,4068.37 3396.276,4029.002 
		3440.668,3959.613 	"/>
</g>
<g>
	<defs>
		<path id="SVGID_43_" d="M3484.768,3999.821c0-8.237,3.351-12.286,10.192-12.286c6.979,0,10.471,4.049,10.471,12.286v7.818h-20.663
			V3999.821z M3474.157,4000.798v27.644c0,14.52,7.4,22.756,20.803,22.756s20.802-8.236,20.802-22.756v-1.117h-10.192v2.093
			c0,8.238-3.49,12.427-10.47,12.427c-6.841,0-10.332-4.188-10.332-12.427v-13.122h30.994v-15.497
			c0-14.519-7.399-22.615-20.802-22.615C3481.417,3978.183,3474.157,3986.279,3474.157,4000.798"/>
	</defs>
	<clipPath id="SVGID_44_">
		<use xlink:href="#SVGID_43_"  overflow="visible"/>
	</clipPath>
	
		<linearGradient id="SVGID_45_" gradientUnits="userSpaceOnUse" x1="1534.0225" y1="4376.0293" x2="1535.0225" y2="4376.0293" gradientTransform="matrix(-1058.5797 1654.6732 1654.6732 1058.5797 -5612713.5 -7167926)">
		<stop  offset="0" style="stop-color:#2F6BB3"/>
		<stop  offset="1" style="stop-color:#273E7C"/>
	</linearGradient>
	<polygon clip-path="url(#SVGID_44_)" fill="url(#SVGID_45_)" points="3548.907,3999.388 3503.679,4070.084 3441.012,4029.992 
		3486.24,3959.296 	"/>
</g>
<g>
	<defs>
		<path id="SVGID_46_" d="M3517.992,3996.89c0,6.143,1.675,10.75,5.584,14.239c1.954,1.816,3.63,3.071,4.886,3.909
			c1.258,0.838,3.352,1.955,6.144,3.49c5.166,2.653,7.818,4.049,10.192,7.54c1.256,1.675,1.953,3.629,1.953,5.724
			c0,6.841-3.211,10.19-9.633,10.19s-9.633-3.629-9.633-10.749v-2.653h-10.191v2.374c0,12.704,7.539,20.243,20.384,20.243
			c12.424,0,19.545-7.399,19.545-19.546c0-6.003-1.676-10.47-5.445-13.82c-3.769-3.489-5.864-4.747-11.029-7.399
			c-5.584-2.792-7.956-4.049-10.61-7.538c-1.256-1.816-1.954-3.91-1.954-6.144c0-6.143,3.77-9.494,8.935-9.494
			c6.003,0,8.936,3.352,8.936,10.192v1.675h9.913v-1.396c0-12.146-7.4-19.545-18.988-19.545
			C3525.112,3978.183,3517.992,3985.303,3517.992,3996.89"/>
	</defs>
	<clipPath id="SVGID_47_">
		<use xlink:href="#SVGID_46_"  overflow="visible"/>
	</clipPath>
	
		<linearGradient id="SVGID_48_" gradientUnits="userSpaceOnUse" x1="1534.0225" y1="4376.0293" x2="1535.0225" y2="4376.0293" gradientTransform="matrix(-1058.5797 1654.6732 1654.6732 1058.5797 -5612683.5 -7167906)">
		<stop  offset="0" style="stop-color:#2F6BB3"/>
		<stop  offset="1" style="stop-color:#273E7C"/>
	</linearGradient>
	<polygon clip-path="url(#SVGID_47_)" fill="url(#SVGID_48_)" points="3590.368,3999.388 3545.626,4069.323 3484.147,4029.992 
		3528.89,3960.057 	"/>
</g>
<g>
	<defs>
		<path id="SVGID_49_" d="M3569.783,3999.821c0-8.237,3.351-12.286,10.191-12.286c6.979,0,10.471,4.049,10.471,12.286v7.818h-20.662
			V3999.821z M3559.173,4000.798v27.644c0,14.52,7.399,22.756,20.802,22.756c13.403,0,20.802-8.236,20.802-22.756v-1.117h-10.191
			v2.093c0,8.238-3.49,12.427-10.471,12.427c-6.841,0-10.331-4.188-10.331-12.427v-13.122h30.993v-15.497
			c0-14.519-7.398-22.615-20.802-22.615C3566.434,3978.183,3559.173,3986.279,3559.173,4000.798"/>
	</defs>
	<clipPath id="SVGID_50_">
		<use xlink:href="#SVGID_49_"  overflow="visible"/>
	</clipPath>
	
		<linearGradient id="SVGID_51_" gradientUnits="userSpaceOnUse" x1="1534.0225" y1="4376.0293" x2="1535.0225" y2="4376.0293" gradientTransform="matrix(-1058.5797 1654.6732 1654.6732 1058.5797 -5612653.5 -7167886)">
		<stop  offset="0" style="stop-color:#2F6BB3"/>
		<stop  offset="1" style="stop-color:#273E7C"/>
	</linearGradient>
	<polygon clip-path="url(#SVGID_50_)" fill="url(#SVGID_51_)" points="3633.922,3999.388 3588.693,4070.084 3526.026,4029.992 
		3571.255,3959.296 	"/>
</g>
<g>
	<defs>
		<polygon id="SVGID_52_" points="3665.41,3952.075 3651.171,4030.116 3636.79,3952.075 3621.016,3952.075 3621.016,4049.802 
			3630.647,4049.802 3630.647,3968.271 3646.146,4049.802 3655.358,4049.802 3670.855,3968.271 3670.855,4049.802 
			3681.326,4049.802 3681.326,3952.075 		"/>
	</defs>
	<clipPath id="SVGID_53_">
		<use xlink:href="#SVGID_52_"  overflow="visible"/>
	</clipPath>
	
		<linearGradient id="SVGID_54_" gradientUnits="userSpaceOnUse" x1="1534.0225" y1="4376.0303" x2="1535.0225" y2="4376.0303" gradientTransform="matrix(-1058.5797 1654.6732 1654.6732 1058.5797 -5612609.5 -7167858)">
		<stop  offset="0" style="stop-color:#2F6BB3"/>
		<stop  offset="1" style="stop-color:#273E7C"/>
	</linearGradient>
	<polygon clip-path="url(#SVGID_53_)" fill="url(#SVGID_54_)" points="3725.689,3980.457 3663.811,4077.18 3576.652,4021.42 
		3638.53,3924.697 	"/>
</g>
<g>
	<defs>
		<path id="SVGID_55_" d="M3696.817,3999.821c0-8.237,3.352-12.286,10.192-12.286c6.979,0,10.471,4.049,10.471,12.286v7.818h-20.663
			V3999.821z M3686.208,4000.798v27.644c0,14.52,7.399,22.756,20.802,22.756s20.802-8.236,20.802-22.756v-1.117h-10.192v2.093
			c0,8.238-3.489,12.427-10.471,12.427c-6.84,0-10.331-4.188-10.331-12.427v-13.122h30.994v-15.497
			c0-14.519-7.399-22.615-20.802-22.615C3693.469,3978.183,3686.208,3986.279,3686.208,4000.798"/>
	</defs>
	<clipPath id="SVGID_56_">
		<use xlink:href="#SVGID_55_"  overflow="visible"/>
	</clipPath>
	
		<linearGradient id="SVGID_57_" gradientUnits="userSpaceOnUse" x1="1534.0225" y1="4376.0303" x2="1535.0225" y2="4376.0303" gradientTransform="matrix(-1058.5797 1654.6732 1654.6732 1058.5797 -5612563.5 -7167830)">
		<stop  offset="0" style="stop-color:#2F6BB3"/>
		<stop  offset="1" style="stop-color:#273E7C"/>
	</linearGradient>
	<polygon clip-path="url(#SVGID_56_)" fill="url(#SVGID_57_)" points="3760.957,3999.388 3715.729,4070.084 3653.062,4029.992 
		3698.29,3959.296 	"/>
</g>
<g>
	<defs>
		<path id="SVGID_58_" d="M3742.05,4029.977v-30.713c0-7.818,2.931-11.729,8.934-11.729c6.701,0,11.309,5.585,11.309,15.637v23.035
			c0,10.053-4.607,15.637-11.309,15.637C3744.98,4041.844,3742.05,4037.935,3742.05,4029.977 M3762.292,3952.075v34.484
			c-3.211-5.585-8.098-8.377-14.52-8.377c-10.889,0-16.334,6.7-16.334,20.243v32.389c0,13.543,5.445,20.383,16.334,20.383
			c7.398,0,12.704-3.63,15.775-10.89c0.14,4.606,0.56,7.818,1.117,9.494h9.633c-0.978-4.328-1.535-10.611-1.535-19.126v-78.601
			H3762.292z"/>
	</defs>
	<clipPath id="SVGID_59_">
		<use xlink:href="#SVGID_58_"  overflow="visible"/>
	</clipPath>
	
		<linearGradient id="SVGID_60_" gradientUnits="userSpaceOnUse" x1="1534.0225" y1="4376.0254" x2="1535.0225" y2="4376.0254" gradientTransform="matrix(-1058.5797 1654.6732 1654.6732 1058.5797 -5612528.5 -7167806)">
		<stop  offset="0" style="stop-color:#2F6BB3"/>
		<stop  offset="1" style="stop-color:#273E7C"/>
	</linearGradient>
	<polygon clip-path="url(#SVGID_59_)" fill="url(#SVGID_60_)" points="3819.294,3980.862 3761.851,4070.653 3686.441,4022.41 
		3743.886,3932.619 	"/>
</g>
<g>
	<defs>
		<path id="SVGID_61_" d="M3779.181,4049.802h10.47v-70.224h-10.47V4049.802z M3779.181,3969.526h10.47v-15.078h-10.47V3969.526z"/>
	</defs>
	<clipPath id="SVGID_62_">
		<use xlink:href="#SVGID_61_"  overflow="visible"/>
	</clipPath>
	
		<linearGradient id="SVGID_63_" gradientUnits="userSpaceOnUse" x1="1534.0225" y1="4376.0293" x2="1535.0225" y2="4376.0293" gradientTransform="matrix(-1058.5797 1654.6732 1654.6732 1058.5797 -5612514.5 -7167798)">
		<stop  offset="0" style="stop-color:#2F6BB3"/>
		<stop  offset="1" style="stop-color:#273E7C"/>
	</linearGradient>
	<polygon clip-path="url(#SVGID_62_)" fill="url(#SVGID_63_)" points="3832.937,3982.141 3786.609,4054.555 3735.895,4022.109 
		3782.221,3949.695 	"/>
</g>
<g>
	<defs>
		<path id="SVGID_64_" d="M3794.675,4000.52v28.201c0,14.519,7.119,22.477,20.522,22.477c13.263,0,20.104-8.098,20.104-22.477
			v-4.469h-10.191v5.445c0,8.098-3.351,12.146-9.912,12.146s-9.913-4.049-9.913-12.146v-30.155c0-7.958,3.352-12.007,9.913-12.007
			s9.912,4.049,9.912,12.007v4.048h10.191v-3.07c0-14.102-6.841-22.337-20.104-22.337
			C3801.794,3978.183,3794.675,3986,3794.675,4000.52"/>
	</defs>
	<clipPath id="SVGID_65_">
		<use xlink:href="#SVGID_64_"  overflow="visible"/>
	</clipPath>
	
		<linearGradient id="SVGID_66_" gradientUnits="userSpaceOnUse" x1="1534.0225" y1="4376.0313" x2="1535.0225" y2="4376.0313" gradientTransform="matrix(-1058.5797 1654.6732 1654.6732 1058.5797 -5612486.5 -7167782)">
		<stop  offset="0" style="stop-color:#2F6BB3"/>
		<stop  offset="1" style="stop-color:#273E7C"/>
	</linearGradient>
	<polygon clip-path="url(#SVGID_65_)" fill="url(#SVGID_66_)" points="3868.446,3999.388 3823.502,4069.64 3761.528,4029.992 
		3806.473,3959.74 	"/>
</g>
<g>
	<defs>
		<path id="SVGID_67_" d="M3839.206,4049.802h10.472v-70.224h-10.472V4049.802z M3839.206,3969.526h10.472v-15.078h-10.472V3969.526
			z"/>
	</defs>
	<clipPath id="SVGID_68_">
		<use xlink:href="#SVGID_67_"  overflow="visible"/>
	</clipPath>
	
		<linearGradient id="SVGID_69_" gradientUnits="userSpaceOnUse" x1="1534.0225" y1="4376.0303" x2="1535.0225" y2="4376.0303" gradientTransform="matrix(-1058.5797 1654.6732 1654.6732 1058.5797 -5612471.5 -7167770)">
		<stop  offset="0" style="stop-color:#2F6BB3"/>
		<stop  offset="1" style="stop-color:#273E7C"/>
	</linearGradient>
	<polygon clip-path="url(#SVGID_68_)" fill="url(#SVGID_69_)" points="3892.964,3982.141 3846.636,4054.555 3795.921,4022.109 
		3842.247,3949.695 	"/>
</g>
<g>
	<defs>
		<path id="SVGID_70_" d="M3865.312,3988.792l-0.141-9.214h-9.073v70.224h10.47v-46.63c0-10.052,4.468-15.637,11.03-15.637
			c5.862,0,8.795,4.049,8.795,12.286v49.98h10.61v-51.376c0-13.543-5.445-20.243-16.195-20.243
			C3873.408,3978.183,3868.242,3981.672,3865.312,3988.792"/>
	</defs>
	<clipPath id="SVGID_71_">
		<use xlink:href="#SVGID_70_"  overflow="visible"/>
	</clipPath>
	
		<linearGradient id="SVGID_72_" gradientUnits="userSpaceOnUse" x1="1534.0225" y1="4376.0293" x2="1535.0225" y2="4376.0293" gradientTransform="matrix(-1058.5797 1654.6732 1654.6732 1058.5797 -5612442.5 -7167754)">
		<stop  offset="0" style="stop-color:#2F6BB3"/>
		<stop  offset="1" style="stop-color:#273E7C"/>
	</linearGradient>
	<polygon clip-path="url(#SVGID_71_)" fill="url(#SVGID_72_)" points="3929.515,3998.982 3885.123,4068.37 3823.586,4029.002 
		3867.978,3959.613 	"/>
</g>
<g>
	<defs>
		<path id="SVGID_73_" d="M3912.077,3999.821c0-8.237,3.351-12.286,10.191-12.286c6.98,0,10.471,4.049,10.471,12.286v7.818h-20.662
			V3999.821z M3901.467,4000.798v27.644c0,14.52,7.399,22.756,20.802,22.756s20.801-8.236,20.801-22.756v-1.117h-10.191v2.093
			c0,8.238-3.489,12.427-10.47,12.427c-6.841,0-10.331-4.188-10.331-12.427v-13.122h30.992v-15.497
			c0-14.519-7.398-22.615-20.801-22.615C3908.727,3978.183,3901.467,3986.279,3901.467,4000.798"/>
	</defs>
	<clipPath id="SVGID_74_">
		<use xlink:href="#SVGID_73_"  overflow="visible"/>
	</clipPath>
	
		<linearGradient id="SVGID_75_" gradientUnits="userSpaceOnUse" x1="1534.0225" y1="4376.0293" x2="1535.0225" y2="4376.0293" gradientTransform="matrix(-1058.5797 1654.6732 1654.6732 1058.5797 -5612410.5 -7167730)">
		<stop  offset="0" style="stop-color:#2F6BB3"/>
		<stop  offset="1" style="stop-color:#273E7C"/>
	</linearGradient>
	<polygon clip-path="url(#SVGID_74_)" fill="url(#SVGID_75_)" points="3976.215,3999.388 3930.987,4070.084 3868.321,4029.992 
		3913.549,3959.297 	"/>
</g>
<g>
	<defs>
		<path id="SVGID_76_" d="M3974.197,3961.987h11.169c7.819,0,11.448,3.77,11.448,13.263v51.236c0,9.493-3.629,13.403-11.448,13.403
			h-11.169V3961.987z M3963.309,3952.075v97.727h22.337c14.659,0,22.058-7.958,22.058-23.733v-50.26
			c0-15.775-7.398-23.733-22.058-23.733H3963.309z"/>
	</defs>
	<clipPath id="SVGID_77_">
		<use xlink:href="#SVGID_76_"  overflow="visible"/>
	</clipPath>
	
		<linearGradient id="SVGID_78_" gradientUnits="userSpaceOnUse" x1="1534.0225" y1="4376.0313" x2="1535.0225" y2="4376.0313" gradientTransform="matrix(-1058.5797 1654.6732 1654.6732 1058.5797 -5612375.5 -7167710)">
		<stop  offset="0" style="stop-color:#2F6BB3"/>
		<stop  offset="1" style="stop-color:#273E7C"/>
	</linearGradient>
	<polygon clip-path="url(#SVGID_77_)" fill="url(#SVGID_78_)" points="4052.066,3980.457 3994.811,4069.955 3918.944,4021.42 
		3976.201,3931.922 	"/>
</g>
<g>
	<defs>
		<path id="SVGID_79_" d="M4013.005,4049.802h10.471v-70.224h-10.471V4049.802z M4013.005,3969.526h10.471v-15.078h-10.471V3969.526
			z"/>
	</defs>
	<clipPath id="SVGID_80_">
		<use xlink:href="#SVGID_79_"  overflow="visible"/>
	</clipPath>
	
		<linearGradient id="SVGID_81_" gradientUnits="userSpaceOnUse" x1="1534.0225" y1="4376.0303" x2="1535.0225" y2="4376.0303" gradientTransform="matrix(-1058.5797 1654.6732 1654.6732 1058.5797 -5612348.5 -7167690)">
		<stop  offset="0" style="stop-color:#2F6BB3"/>
		<stop  offset="1" style="stop-color:#273E7C"/>
	</linearGradient>
	<polygon clip-path="url(#SVGID_80_)" fill="url(#SVGID_81_)" points="4066.761,3982.141 4020.435,4054.555 3969.72,4022.109 
		4016.046,3949.695 	"/>
</g>
<g>
	<defs>
		<path id="SVGID_82_" d="M4039.11,3991.165l-0.14-11.587h-9.074v70.224h10.47v-40.905c0-13.543,4.607-20.244,13.682-20.244
			c1.676,0,3.072,0.279,4.328,0.698v-10.331c-1.116-0.56-2.652-0.837-4.607-0.837
			C4046.369,3978.183,4041.483,3982.51,4039.11,3991.165"/>
	</defs>
	<clipPath id="SVGID_83_">
		<use xlink:href="#SVGID_82_"  overflow="visible"/>
	</clipPath>
	
		<linearGradient id="SVGID_84_" gradientUnits="userSpaceOnUse" x1="1534.0225" y1="4376.0332" x2="1535.0225" y2="4376.0332" gradientTransform="matrix(-1058.5797 1654.6732 1654.6732 1058.5797 -5612330.5 -7167682)">
		<stop  offset="0" style="stop-color:#2F6BB3"/>
		<stop  offset="1" style="stop-color:#273E7C"/>
	</linearGradient>
	<polygon clip-path="url(#SVGID_83_)" fill="url(#SVGID_84_)" points="4090.888,3998.981 4050.104,4062.729 3997.385,4029.002 
		4038.167,3965.254 	"/>
</g>
<g>
	<defs>
		<path id="SVGID_85_" d="M4068.287,3999.821c0-8.237,3.352-12.286,10.192-12.286c6.979,0,10.469,4.049,10.469,12.286v7.818h-20.661
			V3999.821z M4057.678,4000.798v27.644c0,14.52,7.398,22.756,20.802,22.756c13.4,0,20.8-8.236,20.8-22.756v-1.117h-10.19v2.093
			c0,8.238-3.49,12.427-10.471,12.427c-6.841,0-10.331-4.188-10.331-12.427v-13.122h30.992v-15.497
			c0-14.519-7.399-22.615-20.8-22.615C4064.937,3978.183,4057.678,3986.279,4057.678,4000.798"/>
	</defs>
	<clipPath id="SVGID_86_">
		<use xlink:href="#SVGID_85_"  overflow="visible"/>
	</clipPath>
	
		<linearGradient id="SVGID_87_" gradientUnits="userSpaceOnUse" x1="1534.0225" y1="4376.0313" x2="1535.0225" y2="4376.0313" gradientTransform="matrix(-1058.5797 1654.6732 1654.6732 1058.5797 -5612299.5 -7167662)">
		<stop  offset="0" style="stop-color:#2F6BB3"/>
		<stop  offset="1" style="stop-color:#273E7C"/>
	</linearGradient>
	<polygon clip-path="url(#SVGID_86_)" fill="url(#SVGID_87_)" points="4132.425,3999.388 4087.197,4070.083 4024.532,4029.992 
		4069.76,3959.297 	"/>
</g>
<g>
	<defs>
		<path id="SVGID_88_" d="M4102.628,4000.52v28.201c0,14.519,7.119,22.477,20.522,22.477c13.262,0,20.103-8.098,20.103-22.477
			v-4.469h-10.19v5.445c0,8.098-3.351,12.146-9.912,12.146s-9.913-4.049-9.913-12.146v-30.155c0-7.958,3.352-12.007,9.913-12.007
			s9.912,4.049,9.912,12.007v4.048h10.19v-3.07c0-14.102-6.841-22.337-20.103-22.337
			C4109.747,3978.183,4102.628,3986,4102.628,4000.52"/>
	</defs>
	<clipPath id="SVGID_89_">
		<use xlink:href="#SVGID_88_"  overflow="visible"/>
	</clipPath>
	
		<linearGradient id="SVGID_90_" gradientUnits="userSpaceOnUse" x1="1534.0225" y1="4376.0293" x2="1535.0225" y2="4376.0293" gradientTransform="matrix(-1058.5797 1654.6732 1654.6732 1058.5797 -5612268.5 -7167642)">
		<stop  offset="0" style="stop-color:#2F6BB3"/>
		<stop  offset="1" style="stop-color:#273E7C"/>
	</linearGradient>
	<polygon clip-path="url(#SVGID_89_)" fill="url(#SVGID_90_)" points="4176.399,3999.387 4131.455,4069.64 4069.481,4029.992 
		4114.426,3959.74 	"/>
</g>
<g>
	<defs>
		<path id="SVGID_91_" d="M4152.884,3959.334l-1.117,20.244h-9.074v8.935h8.656v46.629c0,10.751,5.165,16.056,15.496,16.056
			c3.072,0,5.724-0.419,7.817-1.396v-9.074c-1.814,0.696-3.769,1.116-5.862,1.116c-5.027,0-6.842-2.234-6.842-7.818v-45.513h12.704
			v-8.935h-12.704v-20.244H4152.884z"/>
	</defs>
	<clipPath id="SVGID_92_">
		<use xlink:href="#SVGID_91_"  overflow="visible"/>
	</clipPath>
	
		<linearGradient id="SVGID_93_" gradientUnits="userSpaceOnUse" x1="1534.0225" y1="4376.0283" x2="1535.0225" y2="4376.0283" gradientTransform="matrix(-1058.5797 1654.6732 1654.6732 1058.5797 -5612243.5 -7167626)">
		<stop  offset="0" style="stop-color:#2F6BB3"/>
		<stop  offset="1" style="stop-color:#273E7C"/>
	</linearGradient>
	<polygon clip-path="url(#SVGID_92_)" fill="url(#SVGID_93_)" points="4216.364,3986.013 4165.378,4065.71 4100.99,4024.519 
		4151.978,3944.821 	"/>
</g>
<g>
	<defs>
		<path id="SVGID_94_" d="M4186.11,4029.417v-29.596c0-8.237,3.35-12.286,10.191-12.286c6.701,0,10.052,4.049,10.052,12.286v29.596
			c0,8.238-3.351,12.427-10.052,12.427C4189.46,4041.844,4186.11,4037.655,4186.11,4029.417 M4175.64,4000.798v27.644
			c0,14.52,7.259,22.756,20.662,22.756c13.263,0,20.662-8.236,20.662-22.756v-27.644c0-14.519-7.399-22.615-20.662-22.615
			C4182.898,3978.183,4175.64,3986.279,4175.64,4000.798"/>
	</defs>
	<clipPath id="SVGID_95_">
		<use xlink:href="#SVGID_94_"  overflow="visible"/>
	</clipPath>
	
		<linearGradient id="SVGID_96_" gradientUnits="userSpaceOnUse" x1="1534.0225" y1="4376.0303" x2="1535.0225" y2="4376.0303" gradientTransform="matrix(-1058.5797 1654.6732 1654.6732 1058.5797 -5612216.5 -7167606)">
		<stop  offset="0" style="stop-color:#2F6BB3"/>
		<stop  offset="1" style="stop-color:#273E7C"/>
	</linearGradient>
	<polygon clip-path="url(#SVGID_95_)" fill="url(#SVGID_96_)" points="4250.108,3999.388 4204.962,4069.957 4142.493,4029.992 
		4187.641,3959.423 	"/>
</g>
<g>
	<defs>
		<path id="SVGID_97_" d="M4231.061,3991.165l-0.14-11.587h-9.075v70.224h10.471v-40.905c0-13.543,4.606-20.244,13.681-20.244
			c1.676,0,3.072,0.279,4.328,0.698v-10.331c-1.115-0.56-2.652-0.837-4.606-0.837
			C4238.319,3978.183,4233.434,3982.51,4231.061,3991.165"/>
	</defs>
	<clipPath id="SVGID_98_">
		<use xlink:href="#SVGID_97_"  overflow="visible"/>
	</clipPath>
	
		<linearGradient id="SVGID_99_" gradientUnits="userSpaceOnUse" x1="1534.0225" y1="4376.0332" x2="1535.0225" y2="4376.0332" gradientTransform="matrix(-1058.5797 1654.6732 1654.6732 1058.5797 -5612194.5 -7167594)">
		<stop  offset="0" style="stop-color:#2F6BB3"/>
		<stop  offset="1" style="stop-color:#273E7C"/>
	</linearGradient>
	<polygon clip-path="url(#SVGID_98_)" fill="url(#SVGID_99_)" points="4282.837,3998.982 4242.054,4062.73 4189.333,4029.002 
		4230.116,3965.254 	"/>
</g>
<g>
	<defs>
		<path id="SVGID_100_" d="M4283.13,3979.578l-11.447,53.469l-12.704-53.469h-10.749l17.869,71.061l-1.256,5.585
			c-1.258,5.585-3.071,7.259-8.099,7.259c-2.232,0-4.048-0.418-5.584-1.116v9.074c1.675,0.978,4.05,1.396,7.121,1.396
			c9.632,0,14.519-4.326,16.892-15.078l2.933-12.844l14.798-65.336H4283.13z"/>
	</defs>
	<clipPath id="SVGID_101_">
		<use xlink:href="#SVGID_100_"  overflow="visible"/>
	</clipPath>
	
		<linearGradient id="SVGID_102_" gradientUnits="userSpaceOnUse" x1="1534.0225" y1="4376.0361" x2="1535.0225" y2="4376.0361" gradientTransform="matrix(-1058.5797 1654.6732 1654.6732 1058.5797 -5612167.5 -7167574)">
		<stop  offset="0" style="stop-color:#2F6BB3"/>
		<stop  offset="1" style="stop-color:#273E7C"/>
	</linearGradient>
	<polygon clip-path="url(#SVGID_101_)" fill="url(#SVGID_102_)" points="4335.238,4006.662 4279.929,4093.116 4205.895,4045.752 
		4261.204,3959.298 	"/>
</g>
<g>
	<defs>
		<rect id="SVGID_103_" x="258.516" y="183.878" width="1064.488" height="1064.488"/>
	</defs>
	<clipPath id="SVGID_104_">
		<use xlink:href="#SVGID_103_"  overflow="visible"/>
	</clipPath>
	
		<linearGradient id="SVGID_105_" gradientUnits="userSpaceOnUse" x1="1530.1025" y1="4375.2422" x2="1531.1025" y2="4375.2422" gradientTransform="matrix(645.1898 552.3568 552.3568 -645.1898 -3403457.75 1978115.25)">
		<stop  offset="0" style="stop-color:#009676"/>
		<stop  offset="1" style="stop-color:#0D5042"/>
		<stop  offset="1" style="stop-color:#FFF2E9"/>
	</linearGradient>
	<polygon clip-path="url(#SVGID_104_)" fill="url(#SVGID_105_)" points="708.734,-342.007 1848.89,634.097 872.785,1774.252 
		-267.37,798.147 	"/>
</g>
<g>
	<defs>
		<path id="SVGID_106_" d="M801.026,601.278h-45.783H567.501c-71.398,0-134.111,53.734-138.588,124.992
			c-4.87,77.52,56.812,142.149,133.298,142.149h147.428c6.496,0,11.761-5.266,11.761-11.76v-22.094c0-0.001-0.001-0.001-0.001-0.001
			H562.211c-59.131,0-106.408-51.725-98.946-112.308c6.232-50.603,51.961-87.123,102.946-87.123l189.032,0.001h84.905
			c0.353,0,0.639,0.285,0.639,0.636v123.895v0.001h21.446c6.847,0,12.396-5.55,12.396-12.397V635.77
			c0-0.351,0.286-0.636,0.637-0.636h50.427c0.351,0,0.636,0.285,0.636,0.636v123.895c0,0.001,0.001,0.001,0.001,0.001h21.447
			c6.846,0,12.396-5.55,12.396-12.397v-145.99H801.026z"/>
	</defs>
	<clipPath id="SVGID_107_">
		<use xlink:href="#SVGID_106_"  overflow="visible"/>
	</clipPath>
	
		<linearGradient id="SVGID_108_" gradientUnits="userSpaceOnUse" x1="1530.8066" y1="4375.1387" x2="1531.8066" y2="4375.1387" gradientTransform="matrix(731.339 711.024 711.024 -731.339 -4229872 2111812)">
		<stop  offset="0" style="stop-color:#FFFFFF"/>
		<stop  offset="8.073430e-008" style="stop-color:#FFFFFF"/>
		<stop  offset="1" style="stop-color:#898B8D"/>
	</linearGradient>
	<polygon clip-path="url(#SVGID_107_)" fill="url(#SVGID_108_)" points="684.558,333.319 1093.689,731.086 699.657,1136.377 
		290.525,738.61 	"/>
</g>
<g>
	<defs>
		<path id="SVGID_109_" d="M755.243,668.376v90.609v42.336v55.339c0,6.494,5.266,11.759,11.761,11.759h250.674
			c66.836,0,122.203-49.402,131.904-113.577h-34.198c-9.285,45.436-49.564,79.722-97.706,79.722h-228.59v-33.243v-42.336v-78.849
			c0-6.495-5.265-11.76-11.76-11.76H755.243z"/>
	</defs>
	<clipPath id="SVGID_110_">
		<use xlink:href="#SVGID_109_"  overflow="visible"/>
	</clipPath>
	
		<linearGradient id="SVGID_111_" gradientUnits="userSpaceOnUse" x1="1530.8066" y1="4375.1943" x2="1531.8066" y2="4375.1943" gradientTransform="matrix(731.339 711.024 711.024 -731.339 -4229802 2111740.5)">
		<stop  offset="0" style="stop-color:#FFFFFF"/>
		<stop  offset="8.073430e-008" style="stop-color:#FFFFFF"/>
		<stop  offset="1" style="stop-color:#898B8D"/>
	</linearGradient>
	<polygon clip-path="url(#SVGID_110_)" fill="url(#SVGID_111_)" points="946.859,471.285 1249.563,765.581 957.966,1065.51 
		655.262,771.214 	"/>
</g>
<g>
	<defs>
		<path id="SVGID_112_" d="M1005.774,601.278c-6.494,0-11.759,5.266-11.759,11.76v22.096h23.662
			c50.274,0,91.864,37.424,98.646,85.853h34.197c-6.957-67.159-63.875-119.709-132.843-119.709H1005.774z"/>
	</defs>
	<clipPath id="SVGID_113_">
		<use xlink:href="#SVGID_112_"  overflow="visible"/>
	</clipPath>
	
		<linearGradient id="SVGID_114_" gradientUnits="userSpaceOnUse" x1="1530.8066" y1="4375.1641" x2="1531.8066" y2="4375.1641" gradientTransform="matrix(731.339 711.024 711.024 -731.339 -4229668 2111602.75)">
		<stop  offset="0" style="stop-color:#FFFFFF"/>
		<stop  offset="8.073430e-008" style="stop-color:#FFFFFF"/>
		<stop  offset="1" style="stop-color:#898B8D"/>
	</linearGradient>
	<polygon clip-path="url(#SVGID_113_)" fill="url(#SVGID_114_)" points="1070.064,523.057 1210.352,659.446 1074.472,799.208 
		934.185,662.818 	"/>
</g>
<g>
	<defs>
		<path id="SVGID_115_" d="M1072.935,546.181h5.635c2.913,0,5.004,0.71,6.27,2.128c1.265,1.42,1.896,3.968,1.896,7.647v7.016
			c0,2.914-0.537,4.964-1.608,6.152c-1.075,1.19-2.724,1.783-4.945,1.783h-7.247V546.181z M1072.935,513.406h6.098
			c2.223,0,3.851,0.652,4.888,1.956c1.034,1.304,1.551,3.412,1.551,6.324v4.486c0,3.067-0.632,5.252-1.897,6.554
			c-1.266,1.305-3.162,1.956-5.693,1.956h-4.945V513.406z M1060.286,501.907v80.499h19.896c6.285,0,11.058-1.627,14.316-4.887
			c3.259-3.258,4.887-7.993,4.887-14.202v-6.901c0-9.045-3.144-14.642-9.428-16.789v-0.23c2.759-1.151,4.811-3.028,6.151-5.636
			c1.34-2.605,2.014-5.979,2.014-10.119v-3.22c0-6.286-1.496-10.944-4.486-13.973c-2.989-3.027-7.744-4.542-14.26-4.542H1060.286z"
			/>
	</defs>
	<clipPath id="SVGID_116_">
		<use xlink:href="#SVGID_115_"  overflow="visible"/>
	</clipPath>
	
		<linearGradient id="SVGID_117_" gradientUnits="userSpaceOnUse" x1="1524.2446" y1="4374.0586" x2="1525.2446" y2="4374.0586" gradientTransform="matrix(258.3246 221.6828 221.6828 -258.3246 -1362381.25 792521.5625)">
		<stop  offset="0" style="stop-color:#FFFFFF"/>
		<stop  offset="8.073430e-008" style="stop-color:#FFFFFF"/>
		<stop  offset="1" style="stop-color:#898B8D"/>
	</linearGradient>
	<polygon clip-path="url(#SVGID_116_)" fill="url(#SVGID_117_)" points="1076.868,482.584 1139.168,536.047 1082.803,601.729 
		1020.503,548.266 	"/>
</g>
<g>
	<defs>
		<polygon id="SVGID_118_" points="1106.746,501.907 1106.746,582.406 1141.246,582.406 1141.246,570.907 1119.394,570.907 
			1119.394,546.181 1136.76,546.181 1136.76,534.682 1119.394,534.682 1119.394,513.406 1141.246,513.406 1141.246,501.907 		"/>
	</defs>
	<clipPath id="SVGID_119_">
		<use xlink:href="#SVGID_118_"  overflow="visible"/>
	</clipPath>
	
		<linearGradient id="SVGID_120_" gradientUnits="userSpaceOnUse" x1="1524.2446" y1="4374.0479" x2="1525.2446" y2="4374.0479" gradientTransform="matrix(258.3246 221.6828 221.6828 -258.3246 -1362360 792497)">
		<stop  offset="0" style="stop-color:#FFFFFF"/>
		<stop  offset="8.073430e-008" style="stop-color:#FFFFFF"/>
		<stop  offset="1" style="stop-color:#898B8D"/>
	</linearGradient>
	<polygon clip-path="url(#SVGID_119_)" fill="url(#SVGID_120_)" points="1121.377,484.857 1181.028,536.047 1126.614,599.456 
		1066.963,548.266 	"/>
</g>
<g>
	<defs>
		<polygon id="SVGID_121_" points="1145.155,501.907 1145.155,513.406 1158.379,513.406 1158.379,582.406 1171.03,582.406 
			1171.03,513.406 1184.254,513.406 1184.254,501.907 		"/>
	</defs>
	<clipPath id="SVGID_122_">
		<use xlink:href="#SVGID_121_"  overflow="visible"/>
	</clipPath>
	
		<linearGradient id="SVGID_123_" gradientUnits="userSpaceOnUse" x1="1524.2446" y1="4374.0361" x2="1525.2446" y2="4374.0361" gradientTransform="matrix(258.3246 221.6828 221.6828 -258.3246 -1362340 792473.625)">
		<stop  offset="0" style="stop-color:#FFFFFF"/>
		<stop  offset="8.073430e-008" style="stop-color:#FFFFFF"/>
		<stop  offset="1" style="stop-color:#898B8D"/>
	</linearGradient>
	<polygon clip-path="url(#SVGID_122_)" fill="url(#SVGID_123_)" points="1161.737,482.584 1224.036,536.047 1167.671,601.729 
		1105.372,548.266 	"/>
</g>
<g>
	<defs>
		<path id="SVGID_124_" d="M1202.771,515.937H1203l5.635,39.79h-11.384L1202.771,515.937z M1194.837,501.907l-13.112,80.499h11.731
			l2.3-15.754h14.375v-0.23l2.3,15.984h12.649l-13.108-80.499H1194.837z"/>
	</defs>
	<clipPath id="SVGID_125_">
		<use xlink:href="#SVGID_124_"  overflow="visible"/>
	</clipPath>
	
		<linearGradient id="SVGID_126_" gradientUnits="userSpaceOnUse" x1="1524.2446" y1="4374.0605" x2="1525.2446" y2="4374.0605" gradientTransform="matrix(258.3246 221.6828 221.6828 -258.3246 -1362329.25 792461)">
		<stop  offset="0" style="stop-color:#FFFFFF"/>
		<stop  offset="8.073430e-008" style="stop-color:#FFFFFF"/>
		<stop  offset="1" style="stop-color:#898B8D"/>
	</linearGradient>
	<polygon clip-path="url(#SVGID_125_)" fill="url(#SVGID_126_)" points="1200.111,480.481 1264.862,536.047 1206.692,603.832 
		1141.941,548.266 	"/>
</g>
<g>
	<defs>
		<rect id="SVGID_127_" x="1534.022" y="838.256" width="3094.319" height="2664.382"/>
	</defs>
	<clipPath id="SVGID_128_">
		<use xlink:href="#SVGID_127_"  overflow="visible"/>
	</clipPath>
	
		<linearGradient id="SVGID_129_" gradientUnits="userSpaceOnUse" x1="1534.0234" y1="4377.4336" x2="1535.0234" y2="4377.4336" gradientTransform="matrix(622.112 0 0 -622.112 -952409.25 2724536.25)">
		<stop  offset="0" style="stop-color:#009676"/>
		<stop  offset="1" style="stop-color:#0D5042"/>
		<stop  offset="1" style="stop-color:#FFF2E9"/>
	</linearGradient>
	<path clip-path="url(#SVGID_128_)" fill="url(#SVGID_129_)" d="M2473.371,1355.502L2473.371,1355.502h-475.382
		c-40.242,0-72.865-32.623-72.865-72.865c0-40.243,32.623-72.866,72.865-72.866h475.382c40.242,0,72.865,32.624,72.865,72.866
		C2546.236,1322.879,2513.613,1355.502,2473.371,1355.502L2473.371,1355.502L2473.371,1355.502
		c40.242,0,72.865-32.623,72.865-72.865c0-40.243-32.623-72.866-72.865-72.866h-475.382c-40.242,0-72.865,32.624-72.865,72.866
		c0,40.243,32.623,72.865,72.865,72.865H2473.371L2473.371,1355.502z"/>
</g>
<g>
	<defs>
		<path id="SVGID_130_" d="M2051.491,1284.39h6.637c6.826,0,9.385,2.749,9.385,9.955v5.688c0,6.352-2.465,8.912-7.869,8.912h-8.153
			V1284.39z M2051.491,1256.044h7.206c5.592,0,7.774,2.656,7.774,9.101v3.413c0,6.447-2.75,9.102-8.723,9.102h-6.257V1256.044z
			 M2044.098,1249.313v66.362h15.547c10.144,0,15.264-5.119,15.264-15.453v-5.689c0-7.678-2.844-12.324-8.437-13.936v-0.189
			c4.929-1.802,7.393-6.163,7.393-13.273v-2.748c0-10.334-4.454-15.074-14.978-15.074H2044.098z"/>
	</defs>
	<clipPath id="SVGID_131_">
		<use xlink:href="#SVGID_130_"  overflow="visible"/>
	</clipPath>
	
		<linearGradient id="SVGID_132_" gradientUnits="userSpaceOnUse" x1="1532.2456" y1="4378.5156" x2="1533.2434" y2="4378.5156" gradientTransform="matrix(232.7833 166.9967 166.9967 -232.7833 -1085857.375 764620.875)">
		<stop  offset="0" style="stop-color:#009776"/>
		<stop  offset="1" style="stop-color:#0C5041"/>
		<stop  offset="1" style="stop-color:#FFF3E9"/>
	</linearGradient>
	<polygon clip-path="url(#SVGID_131_)" fill="url(#SVGID_132_)" points="2054.566,1234.721 2106.34,1271.862 2064.439,1330.269 
		2012.666,1293.127 	"/>
</g>
<g>
	<defs>
		<polygon id="SVGID_133_" points="2082.206,1249.313 2082.206,1315.676 2109.414,1315.676 2109.414,1308.944 2089.6,1308.944 
			2089.6,1284.39 2105.715,1284.39 2105.715,1277.66 2089.6,1277.66 2089.6,1256.044 2109.414,1256.044 2109.414,1249.313 		"/>
	</defs>
	<clipPath id="SVGID_134_">
		<use xlink:href="#SVGID_133_"  overflow="visible"/>
	</clipPath>
	
		<linearGradient id="SVGID_135_" gradientUnits="userSpaceOnUse" x1="1532.2456" y1="4378.5059" x2="1533.2456" y2="4378.5059" gradientTransform="matrix(232.7833 166.9967 166.9967 -232.7833 -1085843.375 764601.375)">
		<stop  offset="0" style="stop-color:#009776"/>
		<stop  offset="1" style="stop-color:#0C5041"/>
		<stop  offset="1" style="stop-color:#FFF3E9"/>
	</linearGradient>
	<polygon clip-path="url(#SVGID_134_)" fill="url(#SVGID_135_)" points="2091.45,1236.427 2140.845,1271.862 2100.168,1328.563 
		2050.774,1293.127 	"/>
</g>
<g>
	<defs>
		<polygon id="SVGID_136_" points="2113.014,1249.313 2113.014,1256.044 2124.769,1256.044 2124.769,1315.676 2132.164,1315.676 
			2132.164,1256.044 2143.919,1256.044 2143.919,1249.313 		"/>
	</defs>
	<clipPath id="SVGID_137_">
		<use xlink:href="#SVGID_136_"  overflow="visible"/>
	</clipPath>
	
		<linearGradient id="SVGID_138_" gradientUnits="userSpaceOnUse" x1="1532.2456" y1="4378.4941" x2="1533.2456" y2="4378.4941" gradientTransform="matrix(232.7833 166.9967 166.9967 -232.7833 -1085830.375 764583.125)">
		<stop  offset="0" style="stop-color:#009776"/>
		<stop  offset="1" style="stop-color:#0C5041"/>
		<stop  offset="1" style="stop-color:#FFF3E9"/>
	</linearGradient>
	<polygon clip-path="url(#SVGID_137_)" fill="url(#SVGID_138_)" points="2123.515,1234.676 2175.351,1271.862 2133.418,1330.314 
		2081.582,1293.127 	"/>
</g>
<g>
	<defs>
		<path id="SVGID_139_" d="M2158.897,1257.751l6.636,37.353h-13.082L2158.897,1257.751z M2154.252,1249.313l-12.325,66.362h6.921
			l2.465-14.126h15.359l2.464,14.126h7.49l-12.419-66.362H2154.252z"/>
	</defs>
	<clipPath id="SVGID_140_">
		<use xlink:href="#SVGID_139_"  overflow="visible"/>
	</clipPath>
	
		<linearGradient id="SVGID_141_" gradientUnits="userSpaceOnUse" x1="1532.2456" y1="4378.5195" x2="1533.2456" y2="4378.5195" gradientTransform="matrix(232.7833 166.9967 166.9967 -232.7833 -1085823.875 764574.25)">
		<stop  offset="0" style="stop-color:#009776"/>
		<stop  offset="1" style="stop-color:#0C5041"/>
		<stop  offset="1" style="stop-color:#FFF3E9"/>
	</linearGradient>
	<polygon clip-path="url(#SVGID_140_)" fill="url(#SVGID_141_)" points="2153.717,1232.879 2208.058,1271.862 2164.836,1332.11 
		2110.496,1293.127 	"/>
</g>
<g>
	<defs>
		<polygon id="SVGID_142_" points="2222.032,1249.313 2212.458,1305.627 2202.882,1249.313 2195.394,1249.313 2207.244,1315.676 
			2217.104,1315.676 2228.858,1249.313 		"/>
	</defs>
	<clipPath id="SVGID_143_">
		<use xlink:href="#SVGID_142_"  overflow="visible"/>
	</clipPath>
	
		<linearGradient id="SVGID_144_" gradientUnits="userSpaceOnUse" x1="1532.2451" y1="4378.4951" x2="1533.2451" y2="4378.4951" gradientTransform="matrix(232.7833 166.9967 166.9967 -232.7833 -1085801.875 764543.5)">
		<stop  offset="0" style="stop-color:#009776"/>
		<stop  offset="1" style="stop-color:#0C5041"/>
		<stop  offset="1" style="stop-color:#FFF3E9"/>
	</linearGradient>
	<polygon clip-path="url(#SVGID_143_)" fill="url(#SVGID_144_)" points="2206.764,1233.464 2260.29,1271.862 2217.488,1331.526 
		2163.962,1293.127 	"/>
</g>
<g>
	<defs>
		<polygon id="SVGID_145_" points="2235.019,1249.313 2235.019,1315.676 2262.226,1315.676 2262.226,1308.944 2242.413,1308.944 
			2242.413,1284.39 2258.528,1284.39 2258.528,1277.66 2242.413,1277.66 2242.413,1256.044 2262.226,1256.044 2262.226,1249.313 		
			"/>
	</defs>
	<clipPath id="SVGID_146_">
		<use xlink:href="#SVGID_145_"  overflow="visible"/>
	</clipPath>
	
		<linearGradient id="SVGID_147_" gradientUnits="userSpaceOnUse" x1="1532.2471" y1="4378.5068" x2="1533.2448" y2="4378.5068" gradientTransform="matrix(232.7833 166.9967 166.9967 -232.7833 -1085791.375 764529)">
		<stop  offset="0" style="stop-color:#009776"/>
		<stop  offset="1" style="stop-color:#0C5041"/>
		<stop  offset="1" style="stop-color:#FFF3E9"/>
	</linearGradient>
	<polygon clip-path="url(#SVGID_146_)" fill="url(#SVGID_147_)" points="2244.263,1236.428 2293.657,1271.862 2252.981,1328.562 
		2203.587,1293.127 	"/>
</g>
<g>
	<defs>
		<path id="SVGID_148_" d="M2276.158,1256.044h6.92c5.595,0,7.775,2.656,7.775,9.101v4.741c0,6.446-2.749,9.101-8.721,9.101h-5.974
			V1256.044z M2268.765,1249.313v66.362h7.394v-29.958h5.974c6.351,0,8.816,2.559,8.816,9.669v12.23
			c0,3.509,0.285,6.163,0.853,8.059h7.489c-0.663-1.802-0.948-4.456-0.948-8.059v-11.85c0-7.869-2.559-12.514-7.773-13.841v-0.096
			c5.119-1.61,7.679-6.067,7.679-13.366v-4.076c0-10.334-4.456-15.074-14.98-15.074H2268.765z"/>
	</defs>
	<clipPath id="SVGID_149_">
		<use xlink:href="#SVGID_148_"  overflow="visible"/>
	</clipPath>
	
		<linearGradient id="SVGID_150_" gradientUnits="userSpaceOnUse" x1="1532.2471" y1="4378.5156" x2="1533.2449" y2="4378.5156" gradientTransform="matrix(232.7833 166.9967 166.9967 -232.7833 -1085781.125 764514.5)">
		<stop  offset="0" style="stop-color:#009776"/>
		<stop  offset="1" style="stop-color:#0C5041"/>
		<stop  offset="1" style="stop-color:#FFF3E9"/>
	</linearGradient>
	<polygon clip-path="url(#SVGID_149_)" fill="url(#SVGID_150_)" points="2279.137,1234.855 2330.722,1271.862 2288.918,1330.134 
		2237.333,1293.127 	"/>
</g>
<g>
	<defs>
		<path id="SVGID_151_" d="M2304.881,1264.198c0,3.791,0.853,7.205,2.654,10.238c1.801,3.034,5.025,6.447,9.575,10.144
			c3.887,3.224,6.541,5.973,7.964,8.343c1.516,2.37,2.275,5.024,2.275,8.059c0,5.971-2.56,8.91-7.774,8.91
			c-5.12,0-7.679-2.939-7.679-8.816v-4.266h-7.015v3.696c0,10.334,5.214,16.118,14.789,16.118c9.575,0,15.074-5.878,15.074-16.212
			c0-4.076-0.853-7.585-2.654-10.618c-1.708-3.128-4.836-6.541-9.386-10.333c-3.982-3.224-6.731-5.973-8.249-8.248
			c-1.515-2.276-2.274-4.74-2.274-7.49c0-5.782,2.56-8.627,7.584-8.627c5.024,0,7.584,2.94,7.584,8.817v3.129h7.015v-2.654
			c0-10.24-5.119-16.022-14.599-16.022S2304.881,1254.243,2304.881,1264.198"/>
	</defs>
	<clipPath id="SVGID_152_">
		<use xlink:href="#SVGID_151_"  overflow="visible"/>
	</clipPath>
	
		<linearGradient id="SVGID_153_" gradientUnits="userSpaceOnUse" x1="1532.2451" y1="4378.5068" x2="1533.2451" y2="4378.5068" gradientTransform="matrix(232.7833 166.9967 166.9967 -232.7833 -1085767.375 764495.375)">
		<stop  offset="0" style="stop-color:#009776"/>
		<stop  offset="1" style="stop-color:#0C5041"/>
		<stop  offset="1" style="stop-color:#FFF3E9"/>
	</linearGradient>
	<polygon clip-path="url(#SVGID_152_)" fill="url(#SVGID_153_)" points="2315.028,1234.222 2367.074,1271.559 2324.598,1330.768 
		2272.552,1293.431 	"/>
</g>
<g>
	<defs>
		<rect id="SVGID_154_" x="2341.757" y="1249.313" width="7.395" height="66.362"/>
	</defs>
	<clipPath id="SVGID_155_">
		<use xlink:href="#SVGID_154_"  overflow="visible"/>
	</clipPath>
	
		<linearGradient id="SVGID_156_" gradientUnits="userSpaceOnUse" x1="1532.2456" y1="4378.5059" x2="1533.2456" y2="4378.5059" gradientTransform="matrix(232.7833 166.9967 166.9967 -232.7833 -1085758.625 764483.125)">
		<stop  offset="0" style="stop-color:#009776"/>
		<stop  offset="1" style="stop-color:#0C5041"/>
		<stop  offset="1" style="stop-color:#FFF3E9"/>
	</linearGradient>
	<polygon clip-path="url(#SVGID_155_)" fill="url(#SVGID_156_)" points="2344.27,1245.812 2380.584,1271.862 2346.64,1319.179 
		2310.326,1293.127 	"/>
</g>
<g>
	<defs>
		<path id="SVGID_157_" d="M2364.792,1300.696v-36.498c0-6.068,2.56-9.102,7.774-9.102s7.868,3.034,7.868,9.102v36.498
			c0,6.162-2.654,9.196-7.868,9.196S2364.792,1306.857,2364.792,1300.696 M2357.397,1264.671v35.552
			c0,10.523,5.404,16.401,15.169,16.401c9.859,0,15.263-5.878,15.263-16.401v-35.552c0-10.523-5.404-16.305-15.263-16.305
			C2362.801,1248.366,2357.397,1254.147,2357.397,1264.671"/>
	</defs>
	<clipPath id="SVGID_158_">
		<use xlink:href="#SVGID_157_"  overflow="visible"/>
	</clipPath>
	
		<linearGradient id="SVGID_159_" gradientUnits="userSpaceOnUse" x1="1532.2432" y1="4378.5059" x2="1533.2454" y2="4378.5059" gradientTransform="matrix(232.7833 166.9967 166.9967 -232.7833 -1085749.375 764470.25)">
		<stop  offset="0" style="stop-color:#009776"/>
		<stop  offset="1" style="stop-color:#0C5041"/>
		<stop  offset="1" style="stop-color:#FFF3E9"/>
	</linearGradient>
	<polygon clip-path="url(#SVGID_158_)" fill="url(#SVGID_159_)" points="2367.737,1233.952 2420.159,1271.559 2377.489,1331.038 
		2325.068,1293.431 	"/>
</g>
<g>
	<defs>
		<polygon id="SVGID_160_" points="2420.533,1249.313 2420.533,1296.715 2405.556,1249.313 2396.074,1249.313 2396.074,1315.676 
			2402.807,1315.676 2402.807,1261.731 2419.585,1315.676 2427.266,1315.676 2427.266,1249.313 		"/>
	</defs>
	<clipPath id="SVGID_161_">
		<use xlink:href="#SVGID_160_"  overflow="visible"/>
	</clipPath>
	
		<linearGradient id="SVGID_162_" gradientUnits="userSpaceOnUse" x1="1532.2427" y1="4378.5059" x2="1533.2449" y2="4378.5059" gradientTransform="matrix(232.7833 166.9967 166.9967 -232.7833 -1085736.125 764451.75)">
		<stop  offset="0" style="stop-color:#009776"/>
		<stop  offset="1" style="stop-color:#0C5041"/>
		<stop  offset="1" style="stop-color:#FFF3E9"/>
	</linearGradient>
	<polygon clip-path="url(#SVGID_161_)" fill="url(#SVGID_162_)" points="2406.672,1234.541 2458.697,1271.862 2416.667,1330.449 
		2364.643,1293.127 	"/>
</g>
<g>
	<defs>
		<rect id="SVGID_163_" x="2242.49" y="647.194" width="3094.319" height="2664.382"/>
	</defs>
	<clipPath id="SVGID_164_">
		<use xlink:href="#SVGID_163_"  overflow="visible"/>
	</clipPath>
	
		<linearGradient id="SVGID_165_" gradientUnits="userSpaceOnUse" x1="1535.1621" y1="4377.7402" x2="1536.1621" y2="4377.7402" gradientTransform="matrix(622.112 0 0 -622.112 -952410 2724738.75)">
		<stop  offset="0" style="stop-color:#146BCA"/>
		<stop  offset="1" style="stop-color:#273E7C"/>
	</linearGradient>
	<path clip-path="url(#SVGID_164_)" fill="url(#SVGID_165_)" d="M3180.962,1366.821L3180.962,1366.821H2705.58
		c-40.242,0-72.865-32.623-72.865-72.865c0-40.243,32.623-72.866,72.865-72.866h475.382c40.242,0,72.865,32.623,72.865,72.866
		C3253.827,1334.199,3221.204,1366.821,3180.962,1366.821L3180.962,1366.821L3180.962,1366.821
		c40.242,0,72.865-32.623,72.865-72.865c0-40.243-32.623-72.866-72.865-72.866H2705.58c-40.242,0-72.865,32.623-72.865,72.866
		c0,40.242,32.623,72.865,72.865,72.865H3180.962L3180.962,1366.821z"/>
</g>
<g>
	<defs>
		<path id="SVGID_166_" d="M2682.945,1294.122c0-6.658,3.435-11.095,9.019-11.095h7.228v10.379c0,6.083-3.149,10.95-8.374,10.95
			C2686.023,1304.356,2682.945,1299.632,2682.945,1294.122 M2689.816,1276.801c-9.162,0-14.816,6.656-14.816,17.392
			c0,9.949,5.654,16.82,14.816,16.82c3.579,0,6.656-1.789,9.161-5.369c1.646,6.37,6.729,10.594,12.955,10.594h8.661v-8.16h-5.082
			c-5.367,0-8.016-3.006-8.016-8.589v-22.688H2689.816z M2685.45,1271.003h7.873v-8.017h-7.873V1271.003z M2698.977,1271.003h7.874
			v-8.017h-7.874V1271.003z"/>
	</defs>
	<clipPath id="SVGID_167_">
		<use xlink:href="#SVGID_166_"  overflow="visible"/>
	</clipPath>
	
		<linearGradient id="SVGID_168_" gradientUnits="userSpaceOnUse" x1="1534.5215" y1="4378.7012" x2="1535.5215" y2="4378.7012" gradientTransform="matrix(431.9991 184.1857 184.1857 -431.9991 -1466736.75 1610235.875)">
		<stop  offset="0" style="stop-color:#146BCA"/>
		<stop  offset="1" style="stop-color:#273E7C"/>
	</linearGradient>
	<polygon clip-path="url(#SVGID_167_)" fill="url(#SVGID_168_)" points="2682.013,1246.537 2739.805,1271.177 2713.58,1332.687 
		2655.788,1308.047 	"/>
</g>
<g>
	<defs>
		<path id="SVGID_169_" d="M2718.019,1331.913h7.874v-8.016h-7.874V1331.913z M2731.546,1331.913h7.873v-8.016h-7.873V1331.913z
			 M2731.761,1283.743v16.463c0,2.504-0.286,4.365-0.858,5.438c-0.86,1.647-2.506,2.434-4.868,2.434h-7.658v8.16h32.996v-8.16
			h-13.456c1.216-1.359,1.79-4.079,1.79-8.303v-16.032H2731.761z"/>
	</defs>
	<clipPath id="SVGID_170_">
		<use xlink:href="#SVGID_169_"  overflow="visible"/>
	</clipPath>
	
		<linearGradient id="SVGID_171_" gradientUnits="userSpaceOnUse" x1="1534.521" y1="4378.7109" x2="1535.521" y2="4378.7109" gradientTransform="matrix(431.9991 184.1857 184.1857 -431.9991 -1466739.25 1610241.875)">
		<stop  offset="0" style="stop-color:#146BCA"/>
		<stop  offset="1" style="stop-color:#273E7C"/>
	</linearGradient>
	<polygon clip-path="url(#SVGID_170_)" fill="url(#SVGID_171_)" points="2723.15,1271.71 2768.752,1291.153 2746.243,1343.946 
		2700.641,1324.504 	"/>
</g>
<g>
	<defs>
		<path id="SVGID_172_" d="M2762.541,1331.985h7.873v-8.017h-7.873V1331.985z M2762.541,1283.743v16.463
			c0,2.504-0.288,4.365-0.86,5.438c-0.859,1.647-2.433,2.434-4.795,2.434h-7.444v8.16h33.067v-8.16h-13.742
			c1.145-1.359,1.718-4.079,1.718-8.303v-16.032H2762.541z"/>
	</defs>
	<clipPath id="SVGID_173_">
		<use xlink:href="#SVGID_172_"  overflow="visible"/>
	</clipPath>
	
		<linearGradient id="SVGID_174_" gradientUnits="userSpaceOnUse" x1="1534.521" y1="4378.7051" x2="1535.521" y2="4378.7051" gradientTransform="matrix(431.9991 184.1857 184.1857 -431.9991 -1466733.25 1610228.375)">
		<stop  offset="0" style="stop-color:#146BCA"/>
		<stop  offset="1" style="stop-color:#273E7C"/>
	</linearGradient>
	<polygon clip-path="url(#SVGID_173_)" fill="url(#SVGID_174_)" points="2754.528,1271.813 2799.914,1291.164 2777.423,1343.915 
		2732.038,1324.564 	"/>
</g>
<g>
	<defs>
		<path id="SVGID_175_" d="M2779.577,1331.913h7.873v-8.016h-7.873V1331.913z M2793.105,1331.913h7.873v-8.016h-7.873V1331.913z
			 M2793.176,1283.743v16.82c0,2.577-0.215,4.295-0.573,5.154c-0.786,1.574-2.433,2.361-5.081,2.361h-6.729v8.16h8.447
			c7.944,0,11.952-4.295,11.952-12.955v-19.54H2793.176z"/>
	</defs>
	<clipPath id="SVGID_176_">
		<use xlink:href="#SVGID_175_"  overflow="visible"/>
	</clipPath>
	
		<linearGradient id="SVGID_177_" gradientUnits="userSpaceOnUse" x1="1534.5229" y1="4378.707" x2="1535.5171" y2="4378.707" gradientTransform="matrix(431.9991 184.1857 184.1857 -431.9991 -1466729.75 1610219.875)">
		<stop  offset="0" style="stop-color:#146BCA"/>
		<stop  offset="1" style="stop-color:#273E7C"/>
	</linearGradient>
	<polygon clip-path="url(#SVGID_176_)" fill="url(#SVGID_177_)" points="2782.902,1275.945 2818.571,1291.153 2797.867,1339.711 
		2762.199,1324.504 	"/>
</g>
<g>
	<defs>
		<path id="SVGID_178_" d="M2816.439,1283.743v27.341c0,6.871-3.292,10.164-9.949,10.164v6.871c9.735,0,16.248-4.223,17.464-11.881
			h12.812v-8.16h-12.311v-24.335H2816.439z"/>
	</defs>
	<clipPath id="SVGID_179_">
		<use xlink:href="#SVGID_178_"  overflow="visible"/>
	</clipPath>
	
		<linearGradient id="SVGID_180_" gradientUnits="userSpaceOnUse" x1="1534.5229" y1="4378.7109" x2="1535.5179" y2="4378.7109" gradientTransform="matrix(431.9991 184.1857 184.1857 -431.9991 -1466725.25 1610209.125)">
		<stop  offset="0" style="stop-color:#146BCA"/>
		<stop  offset="1" style="stop-color:#273E7C"/>
	</linearGradient>
	<polygon clip-path="url(#SVGID_179_)" fill="url(#SVGID_180_)" points="2811.147,1272.82 2852.776,1290.569 2832.109,1339.042 
		2790.48,1321.293 	"/>
</g>
<g>
	<defs>
		<path id="SVGID_181_" d="M2856.093,1331.913h7.874v-8.016h-7.874V1331.913z M2850.725,1285.747
			c-2.935,1.289-5.439,3.006-7.659,5.082c1.79,2.72,3.078,4.796,3.866,6.299c1.718-1.933,3.864-3.436,6.441-4.509
			c2.219-0.931,4.223-1.36,6.013-1.36c5.224,0,9.376,1.789,12.31,5.439c2.506,3.149,3.723,6.943,3.723,11.38h-41.371v8.16h57.474
			v-8.16h-7.587c-0.643-9.948-4.223-16.891-10.736-20.899c-3.721-2.291-8.087-3.436-13.026-3.436
			C2857.024,1283.743,2853.874,1284.388,2850.725,1285.747"/>
	</defs>
	<clipPath id="SVGID_182_">
		<use xlink:href="#SVGID_181_"  overflow="visible"/>
	</clipPath>
	
		<linearGradient id="SVGID_183_" gradientUnits="userSpaceOnUse" x1="1534.521" y1="4378.707" x2="1535.521" y2="4378.707" gradientTransform="matrix(431.9991 184.1857 184.1857 -431.9991 -1466718.75 1610194.375)">
		<stop  offset="0" style="stop-color:#146BCA"/>
		<stop  offset="1" style="stop-color:#273E7C"/>
	</linearGradient>
	<polygon clip-path="url(#SVGID_182_)" fill="url(#SVGID_183_)" points="2842.889,1263.008 2908.901,1291.153 2882.682,1352.648 
		2816.669,1324.504 	"/>
</g>
<g>
	<defs>
		<path id="SVGID_184_" d="M2902.549,1283.743v16.463c0,2.504-0.287,4.365-0.859,5.438c-0.859,1.647-2.434,2.434-4.796,2.434h-7.443
			v8.16h33.066v-8.16h-13.742c1.145-1.359,1.718-4.079,1.718-8.303v-16.032H2902.549z M2889.021,1277.086h7.873v-7.945h-7.873
			V1277.086z M2902.62,1277.086h7.873v-7.945h-7.873V1277.086z"/>
	</defs>
	<clipPath id="SVGID_185_">
		<use xlink:href="#SVGID_184_"  overflow="visible"/>
	</clipPath>
	
		<linearGradient id="SVGID_186_" gradientUnits="userSpaceOnUse" x1="1534.519" y1="4378.7109" x2="1535.5237" y2="4378.7109" gradientTransform="matrix(431.9991 184.1857 184.1857 -431.9991 -1466707.25 1610167.375)">
		<stop  offset="0" style="stop-color:#146BCA"/>
		<stop  offset="1" style="stop-color:#273E7C"/>
	</linearGradient>
	<polygon clip-path="url(#SVGID_185_)" fill="url(#SVGID_186_)" points="2894.173,1257.057 2939.509,1276.386 2917.365,1328.323 
		2872.03,1308.994 	"/>
</g>
<g>
	<defs>
		<path id="SVGID_187_" d="M2932.612,1270.073v30.49c0,2.577-0.215,4.295-0.573,5.154c-0.787,1.574-2.433,2.361-5.081,2.361h-6.8
			v8.16h8.445c8.017,0,12.025-4.295,12.025-12.955v-33.21H2932.612z"/>
	</defs>
	<clipPath id="SVGID_188_">
		<use xlink:href="#SVGID_187_"  overflow="visible"/>
	</clipPath>
	
		<linearGradient id="SVGID_189_" gradientUnits="userSpaceOnUse" x1="1534.5215" y1="4378.7051" x2="1535.5215" y2="4378.7051" gradientTransform="matrix(431.9991 184.1857 184.1857 -431.9991 -1466702.75 1610156.875)">
		<stop  offset="0" style="stop-color:#146BCA"/>
		<stop  offset="1" style="stop-color:#273E7C"/>
	</linearGradient>
	<polygon clip-path="url(#SVGID_188_)" fill="url(#SVGID_189_)" points="2923.307,1262.688 2957.283,1277.174 2937.479,1323.623 
		2903.503,1309.137 	"/>
</g>
<g>
	<defs>
		<rect id="SVGID_190_" x="2948.002" y="1270" width="7.945" height="46.238"/>
	</defs>
	<clipPath id="SVGID_191_">
		<use xlink:href="#SVGID_190_"  overflow="visible"/>
	</clipPath>
	
		<linearGradient id="SVGID_192_" gradientUnits="userSpaceOnUse" x1="1534.521" y1="4378.7061" x2="1535.521" y2="4378.7061" gradientTransform="matrix(431.9991 184.1857 184.1857 -431.9991 -1466699.75 1610149.125)">
		<stop  offset="0" style="stop-color:#146BCA"/>
		<stop  offset="1" style="stop-color:#273E7C"/>
	</linearGradient>
	<polygon clip-path="url(#SVGID_191_)" fill="url(#SVGID_192_)" points="2949.224,1267.134 2972.629,1277.112 2954.725,1319.104 
		2931.321,1309.126 	"/>
</g>
<g>
	<defs>
		<path id="SVGID_193_" d="M2985.651,1294.122c0-6.658,3.436-11.095,9.019-11.095h7.229v10.379c0,6.083-3.15,10.95-8.374,10.95
			C2988.729,1304.356,2985.651,1299.632,2985.651,1294.122 M2992.522,1276.801c-9.161,0-14.816,6.656-14.816,17.392
			c0,9.949,5.655,16.82,14.816,16.82c3.579,0,6.657-1.789,9.162-5.369c1.646,6.37,6.728,10.594,12.955,10.594h8.661v-8.16h-5.082
			c-5.369,0-8.016-3.006-8.016-8.589v-22.688H2992.522z M2988.157,1271.003h7.872v-8.017h-7.872V1271.003z M3001.684,1271.003h7.873
			v-8.017h-7.873V1271.003z"/>
	</defs>
	<clipPath id="SVGID_194_">
		<use xlink:href="#SVGID_193_"  overflow="visible"/>
	</clipPath>
	
		<linearGradient id="SVGID_195_" gradientUnits="userSpaceOnUse" x1="1534.521" y1="4378.7012" x2="1535.521" y2="4378.7012" gradientTransform="matrix(431.9991 184.1857 184.1857 -431.9991 -1466690.25 1610126.625)">
		<stop  offset="0" style="stop-color:#146BCA"/>
		<stop  offset="1" style="stop-color:#273E7C"/>
	</linearGradient>
	<polygon clip-path="url(#SVGID_194_)" fill="url(#SVGID_195_)" points="2984.72,1246.537 3042.512,1271.177 3016.287,1332.688 
		2958.494,1308.047 	"/>
</g>
<g>
	<defs>
		<path id="SVGID_196_" d="M3037.903,1285.747c-2.934,1.289-5.439,3.006-7.658,5.082c1.79,2.72,3.078,4.796,3.865,6.299
			c1.718-1.933,3.865-3.436,6.441-4.509c2.22-0.931,4.223-1.36,6.013-1.36c5.225,0,9.377,1.789,12.311,5.439
			c2.505,3.149,3.722,6.943,3.722,11.38h-41.37v8.16h57.474v-8.16h-7.587c-0.644-9.948-4.223-16.891-10.736-20.899
			c-3.722-2.291-8.088-3.436-13.026-3.436C3044.202,1283.743,3041.053,1284.388,3037.903,1285.747 M3043.271,1277.015h7.873v-7.944
			h-7.873V1277.015z"/>
	</defs>
	<clipPath id="SVGID_197_">
		<use xlink:href="#SVGID_196_"  overflow="visible"/>
	</clipPath>
	
		<linearGradient id="SVGID_198_" gradientUnits="userSpaceOnUse" x1="1534.521" y1="4378.7168" x2="1535.521" y2="4378.7168" gradientTransform="matrix(431.9991 184.1857 184.1857 -431.9991 -1466686.25 1610118.375)">
		<stop  offset="0" style="stop-color:#146BCA"/>
		<stop  offset="1" style="stop-color:#273E7C"/>
	</linearGradient>
	<polygon clip-path="url(#SVGID_197_)" fill="url(#SVGID_198_)" points="3030.068,1248.336 3095.718,1276.326 3069.861,1336.974 
		3004.21,1308.983 	"/>
</g>
<g>
	<defs>
		<path id="SVGID_199_" d="M3130.238,1283.743v16.463c0,5.224-2.004,7.872-6.084,7.872h-7.802c1.074-1.144,1.646-4.079,1.646-8.731
			v-15.604h-8.088v16.391c0,5.296-2.004,7.944-6.084,7.944h-7.443v-0.429c0.859-1.36,1.289-4.08,1.289-8.302v-15.604h-8.089v15.889
			c0,5.654-2.005,8.446-6.085,8.446h-7.3v8.16h72.577v-8.16h-12.239c1.216-2.577,1.789-5.511,1.789-8.875v-15.46H3130.238z"/>
	</defs>
	<clipPath id="SVGID_200_">
		<use xlink:href="#SVGID_199_"  overflow="visible"/>
	</clipPath>
	
		<linearGradient id="SVGID_201_" gradientUnits="userSpaceOnUse" x1="1534.5215" y1="4378.7109" x2="1535.5215" y2="4378.7109" gradientTransform="matrix(431.9991 184.1857 184.1857 -431.9991 -1466678.25 1610098.875)">
		<stop  offset="0" style="stop-color:#146BCA"/>
		<stop  offset="1" style="stop-color:#273E7C"/>
	</linearGradient>
	<polygon clip-path="url(#SVGID_200_)" fill="url(#SVGID_201_)" points="3087.362,1257.56 3160.499,1288.742 3137.612,1342.422 
		3064.476,1311.24 	"/>
</g>
<g>
	<defs>
		<path id="SVGID_202_" d="M3159.589,1283.743v16.463c0,2.504-0.287,4.365-0.859,5.438c-0.86,1.647-2.434,2.434-4.797,2.434h-7.442
			v8.16h33.065v-8.16h-13.741c1.145-1.359,1.718-4.079,1.718-8.303v-16.032H3159.589z M3159.658,1277.158h7.874v-7.945h-7.874
			V1277.158z"/>
	</defs>
	<clipPath id="SVGID_203_">
		<use xlink:href="#SVGID_202_"  overflow="visible"/>
	</clipPath>
	
		<linearGradient id="SVGID_204_" gradientUnits="userSpaceOnUse" x1="1534.521" y1="4378.71" x2="1535.521" y2="4378.71" gradientTransform="matrix(431.9991 184.1857 184.1857 -431.9991 -1466667.75 1610074.625)">
		<stop  offset="0" style="stop-color:#146BCA"/>
		<stop  offset="1" style="stop-color:#273E7C"/>
	</linearGradient>
	<polygon clip-path="url(#SVGID_203_)" fill="url(#SVGID_204_)" points="3151.576,1257.284 3196.521,1276.446 3174.47,1328.167 
		3129.524,1309.005 	"/>
</g>
<g>
	<defs>
		<path id="SVGID_205_" d="M3189.651,1270.073v30.49c0,2.577-0.215,4.295-0.573,5.154c-0.787,1.574-2.433,2.361-5.082,2.361h-6.799
			v8.16h8.444c8.018,0,12.025-4.295,12.025-12.955v-33.21H3189.651z"/>
	</defs>
	<clipPath id="SVGID_206_">
		<use xlink:href="#SVGID_205_"  overflow="visible"/>
	</clipPath>
	
		<linearGradient id="SVGID_207_" gradientUnits="userSpaceOnUse" x1="1534.5215" y1="4378.7061" x2="1535.5215" y2="4378.7061" gradientTransform="matrix(431.9991 184.1857 184.1857 -431.9991 -1466663.25 1610064.125)">
		<stop  offset="0" style="stop-color:#146BCA"/>
		<stop  offset="1" style="stop-color:#273E7C"/>
	</linearGradient>
	<polygon clip-path="url(#SVGID_206_)" fill="url(#SVGID_207_)" points="3180.346,1262.688 3214.322,1277.174 3194.519,1323.623 
		3160.542,1309.137 	"/>
</g>
<g>
	<defs>
		<rect id="SVGID_208_" x="3205.041" y="1270" width="7.944" height="46.238"/>
	</defs>
	<clipPath id="SVGID_209_">
		<use xlink:href="#SVGID_208_"  overflow="visible"/>
	</clipPath>
	
		<linearGradient id="SVGID_210_" gradientUnits="userSpaceOnUse" x1="1534.521" y1="4378.707" x2="1535.521" y2="4378.707" gradientTransform="matrix(431.9991 184.1857 184.1857 -431.9991 -1466660.25 1610056.375)">
		<stop  offset="0" style="stop-color:#146BCA"/>
		<stop  offset="1" style="stop-color:#273E7C"/>
	</linearGradient>
	<polygon clip-path="url(#SVGID_209_)" fill="url(#SVGID_210_)" points="3206.263,1267.134 3229.667,1277.112 3211.763,1319.104 
		3188.359,1309.126 	"/>
</g>
<g>
	<defs>
		<polygon id="SVGID_211_" points="1966.115,3530.282 1914.871,3811.161 1863.111,3530.282 1806.332,3530.282 1806.332,3882.017 
			1840.99,3882.017 1840.99,3588.569 1896.777,3882.017 1929.929,3882.017 1985.715,3588.569 1985.715,3882.017 2023.391,3882.017 
			2023.391,3530.282 		"/>
	</defs>
	<clipPath id="SVGID_212_">
		<use xlink:href="#SVGID_211_"  overflow="visible"/>
	</clipPath>
	
		<linearGradient id="SVGID_213_" gradientUnits="userSpaceOnUse" x1="1534.0225" y1="4376.0293" x2="1535.0225" y2="4376.0293" gradientTransform="matrix(-935.446 1019.2831 1019.2831 935.446 -3022725 -5654284)">
		<stop  offset="0" style="stop-color:#2F6BB3"/>
		<stop  offset="1" style="stop-color:#273E7C"/>
	</linearGradient>
	<polygon clip-path="url(#SVGID_212_)" fill="url(#SVGID_213_)" points="2198.611,3691.092 1924.153,3990.147 1631.11,3721.207 
		1905.568,3422.151 	"/>
</g>
<g>
	<defs>
		<path id="SVGID_214_" d="M2079.176,3702.127c0-29.649,12.062-44.221,36.682-44.221c25.136,0,37.694,14.571,37.694,44.221v28.142
			h-74.376V3702.127z M2040.987,3705.648v99.492c0,52.256,26.642,81.905,74.871,81.905c48.249,0,74.872-29.649,74.872-81.905v-4.026
			h-36.682v7.538c0,29.648-12.557,44.726-37.674,44.726c-24.62,0-37.198-15.077-37.198-44.726v-47.237h111.554v-55.767
			c0-52.266-26.623-81.409-74.872-81.409C2067.133,3624.239,2040.987,3653.383,2040.987,3705.648"/>
	</defs>
	<clipPath id="SVGID_215_">
		<use xlink:href="#SVGID_214_"  overflow="visible"/>
	</clipPath>
	
		<linearGradient id="SVGID_216_" gradientUnits="userSpaceOnUse" x1="1534.0225" y1="4376.0293" x2="1535.0225" y2="4376.0293" gradientTransform="matrix(-935.446 1019.2831 1019.2831 935.446 -3022591.25 -5654161)">
		<stop  offset="0" style="stop-color:#2F6BB3"/>
		<stop  offset="1" style="stop-color:#273E7C"/>
	</linearGradient>
	<polygon clip-path="url(#SVGID_215_)" fill="url(#SVGID_216_)" points="2321.651,3744.392 2122.27,3961.643 1910.066,3766.894 
		2109.448,3549.643 	"/>
</g>
<g>
	<defs>
		<path id="SVGID_217_" d="M2241.976,3810.665v-110.552c0-28.131,10.554-42.207,32.159-42.207c24.124,0,40.709,20.106,40.709,56.283
			v82.907c0,36.176-16.585,56.281-40.709,56.281C2252.529,3853.378,2241.976,3839.304,2241.976,3810.665 M2314.843,3530.282v124.112
			c-11.566-20.106-29.144-30.155-52.256-30.155c-39.201,0-58.802,24.124-58.802,72.859v116.583
			c0,48.733,19.601,73.364,58.802,73.364c26.624,0,45.709-13.064,56.779-39.202c0.496,16.586,2.004,28.142,4.008,34.173h34.678
			c-3.512-15.573-5.534-38.189-5.534-68.841v-282.894H2314.843z"/>
	</defs>
	<clipPath id="SVGID_218_">
		<use xlink:href="#SVGID_217_"  overflow="visible"/>
	</clipPath>
	
		<linearGradient id="SVGID_219_" gradientUnits="userSpaceOnUse" x1="1534.0225" y1="4376.001" x2="1535.0225" y2="4376.001" gradientTransform="matrix(-935.446 1019.2831 1019.2831 935.446 -3022496.25 -5654074)">
		<stop  offset="0" style="stop-color:#2F6BB3"/>
		<stop  offset="1" style="stop-color:#273E7C"/>
	</linearGradient>
	<polygon clip-path="url(#SVGID_218_)" fill="url(#SVGID_219_)" points="2535.779,3693.391 2287.523,3963.896 2026.059,3723.938 
		2274.314,3453.432 	"/>
</g>
<g>
	<defs>
		<polygon id="SVGID_220_" points="2375.649,3530.282 2375.649,3882.017 2515.335,3882.017 2515.335,3846.336 2414.832,3846.336 
			2414.832,3530.282 		"/>
	</defs>
	<clipPath id="SVGID_221_">
		<use xlink:href="#SVGID_220_"  overflow="visible"/>
	</clipPath>
	
		<linearGradient id="SVGID_222_" gradientUnits="userSpaceOnUse" x1="1534.0225" y1="4376.0479" x2="1535.0225" y2="4376.0479" gradientTransform="matrix(1312.8484 1312.8484 1312.8484 -1312.8484 -7757456 3733980.75)">
		<stop  offset="0" style="stop-color:#009676"/>
		<stop  offset="1" style="stop-color:#0D5042"/>
		<stop  offset="1" style="stop-color:#FFF2E9"/>
	</linearGradient>
	<polygon clip-path="url(#SVGID_221_)" fill="url(#SVGID_222_)" points="2445.492,3460.439 2691.202,3706.149 2445.492,3951.859 
		2199.782,3706.149 	"/>
</g>
<g>
	<defs>
		<path id="SVGID_223_" d="M2557.533,3702.127c0-29.649,12.063-44.221,36.683-44.221c25.135,0,37.693,14.571,37.693,44.221v28.142
			h-74.376V3702.127z M2519.343,3705.648v99.492c0,52.256,26.643,81.905,74.873,81.905c48.247,0,74.872-29.649,74.872-81.905v-4.026
			h-36.683v7.538c0,29.648-12.558,44.726-37.675,44.726c-24.62,0-37.197-15.077-37.197-44.726v-47.237h111.555v-55.767
			c0-52.266-26.625-81.409-74.872-81.409C2545.491,3624.239,2519.343,3653.383,2519.343,3705.648"/>
	</defs>
	<clipPath id="SVGID_224_">
		<use xlink:href="#SVGID_223_"  overflow="visible"/>
	</clipPath>
	
		<linearGradient id="SVGID_225_" gradientUnits="userSpaceOnUse" x1="1534.0225" y1="4376.0283" x2="1535.0225" y2="4376.0283" gradientTransform="matrix(1312.8484 1312.8484 1312.8484 -1312.8484 -7757380 3733906)">
		<stop  offset="0" style="stop-color:#009676"/>
		<stop  offset="1" style="stop-color:#0D5042"/>
		<stop  offset="1" style="stop-color:#FFF2E9"/>
	</linearGradient>
	<polygon clip-path="url(#SVGID_224_)" fill="url(#SVGID_225_)" points="2594.216,3549.367 2800.492,3755.643 2594.216,3961.919 
		2387.94,3755.643 	"/>
</g>
<g>
	<defs>
		<path id="SVGID_226_" d="M2722.852,3797.097v-82.907c0-36.177,16.585-56.283,40.71-56.283c21.604,0,32.654,14.076,32.654,42.207
			v110.552c0,28.639-11.05,42.713-32.654,42.713C2739.437,3853.378,2722.852,3833.272,2722.852,3797.097 M2685.177,3530.282v351.734
			h27.636l5.02-35.681c10.554,27.14,29.639,40.71,56.779,40.71c39.697,0,59.298-24.631,59.298-73.364v-116.583
			c0-48.735-19.601-72.859-59.298-72.859c-22.616,0-40.194,10.049-51.76,30.155v-124.112H2685.177z"/>
	</defs>
	<clipPath id="SVGID_227_">
		<use xlink:href="#SVGID_226_"  overflow="visible"/>
	</clipPath>
	
		<linearGradient id="SVGID_228_" gradientUnits="userSpaceOnUse" x1="1534.0225" y1="4376.0488" x2="1535.0225" y2="4376.0488" gradientTransform="matrix(1312.8484 1312.8484 1312.8484 -1312.8484 -7757300 3733826.5)">
		<stop  offset="0" style="stop-color:#009676"/>
		<stop  offset="1" style="stop-color:#0D5042"/>
		<stop  offset="1" style="stop-color:#FFF2E9"/>
	</linearGradient>
	<polygon clip-path="url(#SVGID_227_)" fill="url(#SVGID_228_)" points="2759.543,3455.916 3012.291,3708.664 2759.543,3961.413 
		2506.794,3708.664 	"/>
</g>
<g>
	<defs>
		<path id="SVGID_229_" d="M2333.035,3030.865h-65.476h-268.503c-102.111,0-191.8,76.848-198.202,178.758
			c-6.964,110.866,81.249,203.296,190.637,203.296h210.847c9.29,0,16.819-7.53,16.819-16.818v-31.6c0-0.001-0.002-0.001-0.002-0.001
			H1991.49c-84.567,0-152.179-73.974-141.509-160.617c8.913-72.369,74.313-124.6,147.23-124.6l270.347,0.001h121.428
			c0.504,0,0.912,0.407,0.912,0.91v177.187v0.002h30.673c9.791,0,17.728-7.938,17.728-17.729v-159.459
			c0-0.503,0.408-0.91,0.911-0.91h72.116c0.502,0,0.91,0.407,0.91,0.91v177.187c0,0.002,0.001,0.002,0.001,0.002h30.673
			c9.79,0,17.728-7.938,17.728-17.729v-208.788H2333.035z"/>
	</defs>
	<clipPath id="SVGID_230_">
		<use xlink:href="#SVGID_229_"  overflow="visible"/>
	</clipPath>
	
		<linearGradient id="SVGID_231_" gradientUnits="userSpaceOnUse" x1="1534.0225" y1="4376.0068" x2="1535.0225" y2="4376.0068" gradientTransform="matrix(1312.8484 1312.8484 1312.8484 -1312.8484 -7757292 3733818)">
		<stop  offset="0" style="stop-color:#009676"/>
		<stop  offset="1" style="stop-color:#0D5042"/>
		<stop  offset="1" style="stop-color:#FFF2E9"/>
	</linearGradient>
	<polygon clip-path="url(#SVGID_230_)" fill="url(#SVGID_231_)" points="2177.264,2647.491 2751.665,3221.893 2177.264,3796.294 
		1602.862,3221.893 	"/>
</g>
<g>
	<defs>
		<path id="SVGID_232_" d="M2267.559,3126.825v129.586v60.548v79.143c0,9.289,7.53,16.817,16.818,16.817h358.505
			c95.586,0,174.769-70.651,188.643-162.434h-48.908c-13.278,64.981-70.886,114.015-139.735,114.015H2315.96v-47.541v-60.548
			v-112.767c0-9.289-7.529-16.819-16.817-16.819H2267.559z"/>
	</defs>
	<clipPath id="SVGID_233_">
		<use xlink:href="#SVGID_232_"  overflow="visible"/>
	</clipPath>
	
		<linearGradient id="SVGID_234_" gradientUnits="userSpaceOnUse" x1="1534.0225" y1="4376.0576" x2="1535.0225" y2="4376.0576" gradientTransform="matrix(-946.6027 1031.4398 1031.4398 946.6027 -3058706 -5721668)">
		<stop  offset="0" style="stop-color:#2F6BB3"/>
		<stop  offset="1" style="stop-color:#273E7C"/>
	</linearGradient>
	<polygon clip-path="url(#SVGID_233_)" fill="url(#SVGID_234_)" points="2974.046,3257.625 2573.685,3693.867 2125.037,3282.12 
		2525.397,2845.878 	"/>
</g>
<g>
	<defs>
		<path id="SVGID_235_" d="M2625.859,3030.865c-9.289,0-16.819,7.529-16.819,16.818v31.601h33.841
			c71.9,0,131.38,53.523,141.079,122.784h48.908c-9.951-96.049-91.352-171.203-189.987-171.203H2625.859z"/>
	</defs>
	<clipPath id="SVGID_236_">
		<use xlink:href="#SVGID_235_"  overflow="visible"/>
	</clipPath>
	
		<linearGradient id="SVGID_237_" gradientUnits="userSpaceOnUse" x1="1534.0225" y1="4376.0273" x2="1535.0225" y2="4376.0273" gradientTransform="matrix(-946.6027 1031.4398 1031.4398 946.6027 -3058658.5 -5721624)">
		<stop  offset="0" style="stop-color:#2F6BB3"/>
		<stop  offset="1" style="stop-color:#273E7C"/>
	</linearGradient>
	<polygon clip-path="url(#SVGID_236_)" fill="url(#SVGID_237_)" points="2918.155,3109.138 2730.537,3313.571 2523.753,3123.796 
		2711.372,2919.362 	"/>
</g>
<g>
	<defs>
		<path id="SVGID_238_" d="M1819.175,4007.696c-3.809,4.146-5.715,9.3-5.715,15.238c0,3.36,0.673,6.499,1.906,9.412h-10.197v12.772
			h47.508v-12.772h-23.978c-1.905-2.128-2.802-4.931-2.802-8.517c0-3.024,0.673-5.49,2.017-7.395
			c1.569-2.354,3.81-3.474,6.611-3.474c4.034,0,6.723,2.018,7.955,6.052l8.964-6.163c-3.138-7.171-9.748-11.43-17.479-11.43
			C1828.027,4001.421,1823.098,4003.552,1819.175,4007.696"/>
	</defs>
	<clipPath id="SVGID_239_">
		<use xlink:href="#SVGID_238_"  overflow="visible"/>
	</clipPath>
	
		<linearGradient id="SVGID_240_" gradientUnits="userSpaceOnUse" x1="1534.0225" y1="4376.0313" x2="1535.0225" y2="4376.0313" gradientTransform="matrix(1312.8484 1312.8484 1312.8484 -1312.8484 -7757900 3734425.25)">
		<stop  offset="0" style="stop-color:#009676"/>
		<stop  offset="1" style="stop-color:#0D5042"/>
		<stop  offset="1" style="stop-color:#FFF2E9"/>
	</linearGradient>
	<polygon clip-path="url(#SVGID_239_)" fill="url(#SVGID_240_)" points="1828.923,3977.667 1874.526,4023.271 1828.923,4068.873 
		1783.32,4023.271 	"/>
</g>
<g>
	<defs>
		<rect id="SVGID_241_" x="1864.332" y="3972.737" width="12.436" height="72.382"/>
	</defs>
	<clipPath id="SVGID_242_">
		<use xlink:href="#SVGID_241_"  overflow="visible"/>
	</clipPath>
	
		<linearGradient id="SVGID_243_" gradientUnits="userSpaceOnUse" x1="1534.0225" y1="4376.0293" x2="1535.0225" y2="4376.0293" gradientTransform="matrix(1312.8484 1312.8484 1312.8484 -1312.8484 -7757868 3734394.5)">
		<stop  offset="0" style="stop-color:#009676"/>
		<stop  offset="1" style="stop-color:#0D5042"/>
		<stop  offset="1" style="stop-color:#FFF2E9"/>
	</linearGradient>
	<polygon clip-path="url(#SVGID_242_)" fill="url(#SVGID_243_)" points="1870.549,3966.52 1912.958,4008.929 1870.549,4051.338 
		1828.141,4008.929 	"/>
</g>
<g>
	<defs>
		<path id="SVGID_244_" d="M1899.85,4019.572c0-7.618,4.37-14.005,10.98-14.005c7.172,0,11.877,5.826,11.877,14.565
			c0,7.395-4.594,13.67-11.316,13.67C1904.556,4033.803,1899.85,4027.416,1899.85,4019.572 M1887.3,4019.572
			c0,14.902,9.636,25.547,24.09,25.547c5.714,0,9.748-1.905,11.877-5.714c-0.224,8.74-4.146,14.006-11.989,14.23v9.972
			c16.247,0,24.313-6.723,24.313-20.057v-23.642c0-14.79-9.411-25.771-24.201-25.771
			C1897.272,3994.139,1887.3,4004.447,1887.3,4019.572"/>
	</defs>
	<clipPath id="SVGID_245_">
		<use xlink:href="#SVGID_244_"  overflow="visible"/>
	</clipPath>
	
		<linearGradient id="SVGID_246_" gradientUnits="userSpaceOnUse" x1="1534.0225" y1="4376.0273" x2="1535.0225" y2="4376.0273" gradientTransform="matrix(1312.8484 1312.8484 1312.8484 -1312.8484 -7757856 3734381.5)">
		<stop  offset="0" style="stop-color:#009676"/>
		<stop  offset="1" style="stop-color:#0D5042"/>
		<stop  offset="1" style="stop-color:#FFF2E9"/>
	</linearGradient>
	<polygon clip-path="url(#SVGID_245_)" fill="url(#SVGID_246_)" points="1911.446,3969.993 1970.326,4028.873 1911.446,4087.753 
		1852.566,4028.873 	"/>
</g>
<g>
	<defs>
		<path id="SVGID_247_" d="M1958.338,4005.68c4.034,0,7.843,0.224,11.316,1.008c11.318,2.466,17.032,10.98,17.032,25.659h-40.56
			v12.772h72.717v-12.772h-19.497c-0.111-19.16-7.618-31.262-22.632-36.303c-2.913-1.009-5.154-1.458-6.723-1.569
			c-1.569-0.112-5.49-0.225-11.653-0.225V4005.68z"/>
	</defs>
	<clipPath id="SVGID_248_">
		<use xlink:href="#SVGID_247_"  overflow="visible"/>
	</clipPath>
	
		<linearGradient id="SVGID_249_" gradientUnits="userSpaceOnUse" x1="1534.0225" y1="4376.0371" x2="1535.0225" y2="4376.0371" gradientTransform="matrix(1312.8484 1312.8484 1312.8484 -1312.8484 -7757828 3734353.5)">
		<stop  offset="0" style="stop-color:#009676"/>
		<stop  offset="1" style="stop-color:#0D5042"/>
		<stop  offset="1" style="stop-color:#FFF2E9"/>
	</linearGradient>
	<polygon clip-path="url(#SVGID_248_)" fill="url(#SVGID_249_)" points="1982.485,3957.892 2044.278,4019.685 1982.485,4081.478 
		1920.692,4019.685 	"/>
</g>
<g>
	<defs>
		<path id="SVGID_250_" d="M2033.971,3972.851v47.171c0,3.921-0.448,6.835-1.344,8.515c-1.345,2.577-3.81,3.811-7.507,3.811h-11.654
			v12.772h51.318v-12.772h-21.065c1.793-2.128,2.689-6.387,2.689-12.998v-46.498H2033.971z"/>
	</defs>
	<clipPath id="SVGID_251_">
		<use xlink:href="#SVGID_250_"  overflow="visible"/>
	</clipPath>
	
		<linearGradient id="SVGID_252_" gradientUnits="userSpaceOnUse" x1="1534.0225" y1="4376.0332" x2="1535.0225" y2="4376.0332" gradientTransform="matrix(1312.8484 1312.8484 1312.8484 -1312.8484 -7757792 3734314.75)">
		<stop  offset="0" style="stop-color:#009676"/>
		<stop  offset="1" style="stop-color:#0D5042"/>
		<stop  offset="1" style="stop-color:#FFF2E9"/>
	</linearGradient>
	<polygon clip-path="url(#SVGID_251_)" fill="url(#SVGID_252_)" points="2039.125,3947.191 2100.918,4008.984 2039.125,4070.778 
		1977.331,4008.985 	"/>
</g>
<g>
	<defs>
		<path id="SVGID_253_" d="M2081.03,3972.851v47.73c0,4.033-0.335,6.723-0.896,8.067c-1.232,2.465-3.81,3.698-7.955,3.698h-10.644
			v12.772h13.22c12.55,0,18.824-6.722,18.824-20.281v-51.987H2081.03z"/>
	</defs>
	<clipPath id="SVGID_254_">
		<use xlink:href="#SVGID_253_"  overflow="visible"/>
	</clipPath>
	
		<linearGradient id="SVGID_255_" gradientUnits="userSpaceOnUse" x1="1534.0225" y1="4376.0293" x2="1535.0225" y2="4376.0293" gradientTransform="matrix(1312.8484 1312.8484 1312.8484 -1312.8484 -7757768 3734291)">
		<stop  offset="0" style="stop-color:#009676"/>
		<stop  offset="1" style="stop-color:#0D5042"/>
		<stop  offset="1" style="stop-color:#FFF2E9"/>
	</linearGradient>
	<polygon clip-path="url(#SVGID_254_)" fill="url(#SVGID_255_)" points="2077.557,3956.828 2129.714,4008.985 2077.558,4061.142 
		2025.401,4008.985 	"/>
</g>
<g>
	<defs>
		<path id="SVGID_256_" d="M2149.491,4088.48h12.325v-12.438h-12.325V4088.48z M2170.667,4088.48h12.326v-12.438h-12.326V4088.48z
			 M2178.734,4007.359v11.429c0.673-0.111,1.345-0.111,2.017-0.111c7.17,0,11.317,4.93,11.317,11.877
			c0,11.428-10.981,21.064-25.547,21.064c-16.246,0-26.33-10.869-26.33-28.236v-11.093h-12.55v12.549
			c0,22.074,17.031,38.881,38.544,38.881c18.263,0,33.277-10.98,36.863-28.459c5.154,7.73,9.075,9.859,22.857,9.859v-12.772h-4.706
			c-6.386,0-10.756-3.25-15.35-11.653c-4.93-8.852-12.325-13.334-22.185-13.334H2178.734z"/>
	</defs>
	<clipPath id="SVGID_257_">
		<use xlink:href="#SVGID_256_"  overflow="visible"/>
	</clipPath>
	
		<linearGradient id="SVGID_258_" gradientUnits="userSpaceOnUse" x1="1534.0225" y1="4376.0293" x2="1535.0225" y2="4376.0293" gradientTransform="matrix(1312.8484 1312.8484 1312.8484 -1312.8484 -7757736 3734261.75)">
		<stop  offset="0" style="stop-color:#009676"/>
		<stop  offset="1" style="stop-color:#0D5042"/>
		<stop  offset="1" style="stop-color:#FFF2E9"/>
	</linearGradient>
	<polygon clip-path="url(#SVGID_257_)" fill="url(#SVGID_258_)" points="2176.773,3958.228 2266.466,4047.92 2176.773,4137.612 
		2087.081,4047.92 	"/>
</g>
<g>
	<defs>
		<path id="SVGID_259_" d="M2241.931,3994.25v26.331c0,4.033-0.337,6.723-0.897,8.067c-1.233,2.465-3.81,3.698-7.955,3.698h-10.644
			v12.772h13.221c12.549,0,18.823-6.722,18.823-20.281v-30.588H2241.931z M2242.042,3983.942h12.213v-12.438h-12.213V3983.942z"/>
	</defs>
	<clipPath id="SVGID_260_">
		<use xlink:href="#SVGID_259_"  overflow="visible"/>
	</clipPath>
	
		<linearGradient id="SVGID_261_" gradientUnits="userSpaceOnUse" x1="1534.0225" y1="4376.0293" x2="1535.0225" y2="4376.0293" gradientTransform="matrix(1312.8484 1312.8484 1312.8484 -1312.8484 -7757684 3734210.25)">
		<stop  offset="0" style="stop-color:#009676"/>
		<stop  offset="1" style="stop-color:#0D5042"/>
		<stop  offset="1" style="stop-color:#FFF2E9"/>
	</linearGradient>
	<polygon clip-path="url(#SVGID_260_)" fill="url(#SVGID_261_)" points="2238.457,3955.483 2291.286,4008.313 2238.457,4061.142 
		2185.627,4008.313 	"/>
</g>
<g>
	<defs>
		<path id="SVGID_262_" d="M2266.132,3972.851v51.877c0,6.162,1.457,10.979,4.482,14.565c3.249,3.921,7.843,5.826,13.894,5.826
			h14.678v-12.772h-7.396c-4.706,0-7.955-0.673-9.635-1.904c-2.353-1.682-3.586-5.267-3.586-10.757v-46.835H2266.132z"/>
	</defs>
	<clipPath id="SVGID_263_">
		<use xlink:href="#SVGID_262_"  overflow="visible"/>
	</clipPath>
	
		<linearGradient id="SVGID_264_" gradientUnits="userSpaceOnUse" x1="1534.0225" y1="4376.0313" x2="1535.0225" y2="4376.0313" gradientTransform="matrix(1312.8484 1312.8484 1312.8484 -1312.8484 -7757668 3734191)">
		<stop  offset="0" style="stop-color:#009676"/>
		<stop  offset="1" style="stop-color:#0D5042"/>
		<stop  offset="1" style="stop-color:#FFF2E9"/>
	</linearGradient>
	<polygon clip-path="url(#SVGID_263_)" fill="url(#SVGID_264_)" points="2282.659,3956.323 2335.321,4008.984 2282.659,4061.646 
		2229.998,4008.984 	"/>
</g>
<g>
	<defs>
		<path id="SVGID_265_" d="M2315.657,3994.25v25.771c0,3.921-0.449,6.835-1.345,8.515c-1.345,2.577-3.81,3.811-7.507,3.811h-11.652
			v12.772h51.764v-12.772h-21.512c1.792-2.128,2.689-6.387,2.689-12.998v-25.099H2315.657z M2315.77,3983.942h12.325v-12.438
			h-12.325V3983.942z"/>
	</defs>
	<clipPath id="SVGID_266_">
		<use xlink:href="#SVGID_265_"  overflow="visible"/>
	</clipPath>
	
		<linearGradient id="SVGID_267_" gradientUnits="userSpaceOnUse" x1="1534.0225" y1="4376.0332" x2="1535.0225" y2="4376.0332" gradientTransform="matrix(1312.8484 1312.8484 1312.8484 -1312.8484 -7757648 3734173.75)">
		<stop  offset="0" style="stop-color:#009676"/>
		<stop  offset="1" style="stop-color:#0D5042"/>
		<stop  offset="1" style="stop-color:#FFF2E9"/>
	</linearGradient>
	<polygon clip-path="url(#SVGID_266_)" fill="url(#SVGID_267_)" points="2321.035,3945.623 2383.725,4008.313 2321.036,4071.001 
		2258.346,4008.313 	"/>
</g>
<g>
	<defs>
		<path id="SVGID_268_" d="M2363.95,4069.77h12.325v-12.549h-12.325V4069.77z M2363.95,3994.25v25.771
			c0,3.921-0.448,6.835-1.345,8.515c-1.344,2.577-3.81,3.811-7.507,3.811h-11.653v12.772h51.765v-12.772h-21.512
			c1.793-2.128,2.689-6.387,2.689-12.998v-25.099H2363.95z"/>
	</defs>
	<clipPath id="SVGID_269_">
		<use xlink:href="#SVGID_268_"  overflow="visible"/>
	</clipPath>
	
		<linearGradient id="SVGID_270_" gradientUnits="userSpaceOnUse" x1="1534.0225" y1="4376.0293" x2="1535.0225" y2="4376.0293" gradientTransform="matrix(1312.8484 1312.8484 1312.8484 -1312.8484 -7757632 3734156.25)">
		<stop  offset="0" style="stop-color:#009676"/>
		<stop  offset="1" style="stop-color:#0D5042"/>
		<stop  offset="1" style="stop-color:#FFF2E9"/>
	</linearGradient>
	<polygon clip-path="url(#SVGID_269_)" fill="url(#SVGID_270_)" points="2369.328,3968.368 2432.97,4032.01 2369.328,4095.652 
		2305.686,4032.01 	"/>
</g>
<g>
	<defs>
		<path id="SVGID_271_" d="M2412.242,3972.851v47.171c0,3.921-0.448,6.835-1.345,8.515c-1.344,2.577-3.809,3.811-7.507,3.811
			h-11.652v12.772h51.316v-12.772h-21.064c1.793-2.128,2.689-6.387,2.689-12.998v-46.498H2412.242z"/>
	</defs>
	<clipPath id="SVGID_272_">
		<use xlink:href="#SVGID_271_"  overflow="visible"/>
	</clipPath>
	
		<linearGradient id="SVGID_273_" gradientUnits="userSpaceOnUse" x1="1534.0225" y1="4376.0322" x2="1535.0225" y2="4376.0322" gradientTransform="matrix(1312.8484 1312.8484 1312.8484 -1312.8484 -7757600 3734125.75)">
		<stop  offset="0" style="stop-color:#009676"/>
		<stop  offset="1" style="stop-color:#0D5042"/>
		<stop  offset="1" style="stop-color:#FFF2E9"/>
	</linearGradient>
	<polygon clip-path="url(#SVGID_272_)" fill="url(#SVGID_273_)" points="2417.396,3947.192 2479.189,4008.984 2417.396,4070.777 
		2355.604,4008.984 	"/>
</g>
<g>
	<defs>
		<path id="SVGID_274_" d="M2459.303,3972.851v47.73c0,4.033-0.337,6.723-0.896,8.067c-1.232,2.465-3.81,3.698-7.955,3.698h-10.645
			v12.772h13.221c12.55,0,18.824-6.722,18.824-20.281v-51.987H2459.303z"/>
	</defs>
	<clipPath id="SVGID_275_">
		<use xlink:href="#SVGID_274_"  overflow="visible"/>
	</clipPath>
	
		<linearGradient id="SVGID_276_" gradientUnits="userSpaceOnUse" x1="1534.0225" y1="4376.0293" x2="1535.0225" y2="4376.0293" gradientTransform="matrix(1312.8484 1312.8484 1312.8484 -1312.8484 -7757576 3734102)">
		<stop  offset="0" style="stop-color:#009676"/>
		<stop  offset="1" style="stop-color:#0D5042"/>
		<stop  offset="1" style="stop-color:#FFF2E9"/>
	</linearGradient>
	<polygon clip-path="url(#SVGID_275_)" fill="url(#SVGID_276_)" points="2455.829,3956.828 2507.986,4008.984 2455.829,4061.142 
		2403.672,4008.984 	"/>
</g>
<g>
	<defs>
		<rect id="SVGID_277_" x="2483.393" y="3972.737" width="12.437" height="72.382"/>
	</defs>
	<clipPath id="SVGID_278_">
		<use xlink:href="#SVGID_277_"  overflow="visible"/>
	</clipPath>
	
		<linearGradient id="SVGID_279_" gradientUnits="userSpaceOnUse" x1="1534.0225" y1="4376.0293" x2="1535.0225" y2="4376.0293" gradientTransform="matrix(1312.8484 1312.8484 1312.8484 -1312.8484 -7757560 3734085)">
		<stop  offset="0" style="stop-color:#009676"/>
		<stop  offset="1" style="stop-color:#0D5042"/>
		<stop  offset="1" style="stop-color:#FFF2E9"/>
	</linearGradient>
	<polygon clip-path="url(#SVGID_278_)" fill="url(#SVGID_279_)" points="2489.611,3966.519 2532.021,4008.929 2489.611,4051.338 
		2447.201,4008.929 	"/>
</g>
<g>
	<defs>
		<path id="SVGID_280_" d="M2588.043,3972.851v51.092c0,15.798-9.412,27.788-22.634,27.788c-13.669,0-22.855-12.325-22.855-27.788
			v-9.523h-12.661v10.98c0,21.063,16.022,38.319,35.517,38.319c12.326,0,23.867-6.946,30.253-18.6h23.305v-12.772h-18.935
			c0.448-2.354,0.672-4.595,0.672-6.947v-52.549H2588.043z"/>
	</defs>
	<clipPath id="SVGID_281_">
		<use xlink:href="#SVGID_280_"  overflow="visible"/>
	</clipPath>
	
		<linearGradient id="SVGID_282_" gradientUnits="userSpaceOnUse" x1="1534.0225" y1="4376.0283" x2="1535.0225" y2="4376.0283" gradientTransform="matrix(1312.8484 1312.8484 1312.8484 -1312.8484 -7757520 3734046.5)">
		<stop  offset="0" style="stop-color:#009676"/>
		<stop  offset="1" style="stop-color:#0D5042"/>
		<stop  offset="1" style="stop-color:#FFF2E9"/>
	</linearGradient>
	<polygon clip-path="url(#SVGID_281_)" fill="url(#SVGID_282_)" points="2574.43,3928.313 2664.401,4018.284 2574.43,4108.256 
		2484.458,4018.284 	"/>
</g>
<g>
	<defs>
		<path id="SVGID_283_" d="M2613.254,4069.657h12.325v-12.55h-12.325V4069.657z M2634.432,4069.657h12.325v-12.55h-12.325V4069.657z
			 M2634.768,3994.25v25.771c0,3.921-0.447,6.835-1.344,8.515c-1.344,2.577-3.922,3.811-7.619,3.811h-11.989v12.772h51.653v-12.772
			h-21.065c1.905-2.128,2.801-6.387,2.801-12.998v-25.099H2634.768z"/>
	</defs>
	<clipPath id="SVGID_284_">
		<use xlink:href="#SVGID_283_"  overflow="visible"/>
	</clipPath>
	
		<linearGradient id="SVGID_285_" gradientUnits="userSpaceOnUse" x1="1534.0225" y1="4376.0322" x2="1535.0225" y2="4376.0322" gradientTransform="matrix(1312.8484 1312.8484 1312.8484 -1312.8484 -7757500 3734026.25)">
		<stop  offset="0" style="stop-color:#009676"/>
		<stop  offset="1" style="stop-color:#0D5042"/>
		<stop  offset="1" style="stop-color:#FFF2E9"/>
	</linearGradient>
	<polygon clip-path="url(#SVGID_284_)" fill="url(#SVGID_285_)" points="2639.361,3968.144 2703.172,4031.954 2639.361,4095.765 
		2575.551,4031.954 	"/>
</g>
<g>
	<defs>
		<path id="SVGID_286_" d="M2681.715,3972.851v47.73c0,4.033-0.335,6.723-0.896,8.067c-1.232,2.465-3.81,3.698-7.955,3.698h-10.644
			v12.772h13.222c12.548,0,18.822-6.722,18.822-20.281v-51.987H2681.715z"/>
	</defs>
	<clipPath id="SVGID_287_">
		<use xlink:href="#SVGID_286_"  overflow="visible"/>
	</clipPath>
	
		<linearGradient id="SVGID_288_" gradientUnits="userSpaceOnUse" x1="1534.0225" y1="4376.0293" x2="1535.0225" y2="4376.0293" gradientTransform="matrix(1312.8484 1312.8484 1312.8484 -1312.8484 -7757468 3733990.75)">
		<stop  offset="0" style="stop-color:#009676"/>
		<stop  offset="1" style="stop-color:#0D5042"/>
		<stop  offset="1" style="stop-color:#FFF2E9"/>
	</linearGradient>
	<polygon clip-path="url(#SVGID_287_)" fill="url(#SVGID_288_)" points="2678.242,3956.828 2730.398,4008.985 2678.242,4061.142 
		2626.086,4008.985 	"/>
</g>
<g>
	<defs>
		<path id="SVGID_289_" d="M2717.012,4005.68c4.034,0,7.842,0.224,11.316,1.008c11.317,2.466,17.031,10.98,17.031,25.659h-40.56
			v12.772h72.717v-12.772h-19.496c-0.112-19.16-7.619-31.262-22.633-36.303c-2.913-1.009-5.154-1.458-6.723-1.569
			c-1.569-0.112-5.49-0.225-11.652-0.225V4005.68z"/>
	</defs>
	<clipPath id="SVGID_290_">
		<use xlink:href="#SVGID_289_"  overflow="visible"/>
	</clipPath>
	
		<linearGradient id="SVGID_291_" gradientUnits="userSpaceOnUse" x1="1534.0225" y1="4376.0361" x2="1535.0225" y2="4376.0361" gradientTransform="matrix(1312.8484 1312.8484 1312.8484 -1312.8484 -7757448 3733974.25)">
		<stop  offset="0" style="stop-color:#009676"/>
		<stop  offset="1" style="stop-color:#0D5042"/>
		<stop  offset="1" style="stop-color:#FFF2E9"/>
	</linearGradient>
	<polygon clip-path="url(#SVGID_290_)" fill="url(#SVGID_291_)" points="2741.157,3957.893 2802.95,4019.686 2741.157,4081.479 
		2679.364,4019.686 	"/>
</g>
<g>
	<defs>
		<path id="SVGID_292_" d="M2791.41,3972.851v47.73c0,4.033-0.336,6.723-0.896,8.067c-1.233,2.465-3.81,3.698-7.955,3.698h-10.645
			v12.772h13.221c12.55,0,18.824-6.722,18.824-20.281v-51.987H2791.41z"/>
	</defs>
	<clipPath id="SVGID_293_">
		<use xlink:href="#SVGID_292_"  overflow="visible"/>
	</clipPath>
	
		<linearGradient id="SVGID_294_" gradientUnits="userSpaceOnUse" x1="1534.0225" y1="4376.0293" x2="1535.0225" y2="4376.0293" gradientTransform="matrix(1312.8484 1312.8484 1312.8484 -1312.8484 -7757412 3733935.75)">
		<stop  offset="0" style="stop-color:#009676"/>
		<stop  offset="1" style="stop-color:#0D5042"/>
		<stop  offset="1" style="stop-color:#FFF2E9"/>
	</linearGradient>
	<polygon clip-path="url(#SVGID_293_)" fill="url(#SVGID_294_)" points="2787.937,3956.828 2840.094,4008.985 2787.937,4061.142 
		2735.78,4008.985 	"/>
</g>
<g>
	<defs>
		<rect id="SVGID_295_" x="2815.501" y="3972.737" width="12.437" height="72.382"/>
	</defs>
	<clipPath id="SVGID_296_">
		<use xlink:href="#SVGID_295_"  overflow="visible"/>
	</clipPath>
	
		<linearGradient id="SVGID_297_" gradientUnits="userSpaceOnUse" x1="1534.0225" y1="4376.0293" x2="1535.0225" y2="4376.0293" gradientTransform="matrix(1312.8484 1312.8484 1312.8484 -1312.8484 -7757396 3733919)">
		<stop  offset="0" style="stop-color:#009676"/>
		<stop  offset="1" style="stop-color:#0D5042"/>
		<stop  offset="1" style="stop-color:#FFF2E9"/>
	</linearGradient>
	<polygon clip-path="url(#SVGID_296_)" fill="url(#SVGID_297_)" points="2821.72,3966.52 2864.129,4008.929 2821.72,4051.338 
		2779.311,4008.929 	"/>
</g>
</svg>
