<?xml version="1.0" encoding="utf-8"?>
<!-- Generator: Adobe Illustrator 16.0.0, SVG Export Plug-In . SVG Version: 6.00 Build 0)  -->
<!DOCTYPE svg PUBLIC "-//W3C//DTD SVG 1.1//EN" "http://www.w3.org/Graphics/SVG/1.1/DTD/svg11.dtd">
<svg version="1.1" id="Layer_1" xmlns="http://www.w3.org/2000/svg" xmlns:xlink="http://www.w3.org/1999/xlink" x="0px" y="0px"
	 width="749.533px" height="371.926px" viewBox="0 0 749.533 371.926" enable-background="new 0 0 749.533 371.926"
	 xml:space="preserve">
<rect x="-4380.357" y="547.88" fill="#FFFFFF" width="3094.32" height="2664.382"/>
<g>
	<defs>
		<polygon id="SVGID_1_" points="642.878,2800.428 642.878,2444.5 700.333,2444.5 752.71,2728.729 804.566,2444.5 862.525,2444.5 
			862.525,2800.428 824.401,2800.428 824.401,2503.481 767.949,2800.428 734.402,2800.428 677.95,2503.481 677.95,2800.428 		"/>
	</defs>
	<clipPath id="SVGID_2_">
		<use xlink:href="#SVGID_1_"  overflow="visible"/>
	</clipPath>
	
		<linearGradient id="SVGID_3_" gradientUnits="userSpaceOnUse" x1="-1075.0181" y1="3290.2476" x2="-1074.0181" y2="3290.2476" gradientTransform="matrix(-919.8121 1437.7645 1437.7645 919.8121 -5718036 -1479143.375)">
		<stop  offset="0" style="stop-color:#2F6BB3"/>
		<stop  offset="1" style="stop-color:#273E7C"/>
	</linearGradient>
	<polygon clip-path="url(#SVGID_2_)" fill="url(#SVGID_3_)" points="1024.101,2547.868 798.735,2900.139 481.302,2697.06 
		706.667,2344.79 	"/>
</g>
<g>
	<defs>
		<path id="SVGID_4_" d="M918.977,2618.393c0-30.003,12.206-44.748,37.12-44.748c25.434,0,38.142,14.745,38.142,44.748v28.478
			h-75.262V2618.393z M880.331,2621.957v100.679c0,52.879,26.962,82.883,75.767,82.883c48.822,0,75.764-30.004,75.764-82.883v-4.073
			h-37.119v7.628c0,30.002-12.708,45.26-38.124,45.26c-24.914,0-37.641-15.258-37.641-45.26v-47.801h112.884v-56.433
			c0-52.888-26.941-82.379-75.764-82.379C906.79,2539.578,880.331,2569.069,880.331,2621.957"/>
	</defs>
	<clipPath id="SVGID_5_">
		<use xlink:href="#SVGID_4_"  overflow="visible"/>
	</clipPath>
	
		<linearGradient id="SVGID_6_" gradientUnits="userSpaceOnUse" x1="-1075.0181" y1="3290.2476" x2="-1074.0181" y2="3290.2476" gradientTransform="matrix(-919.8121 1437.7645 1437.7645 919.8121 -5717869 -1479035.375)">
		<stop  offset="0" style="stop-color:#2F6BB3"/>
		<stop  offset="1" style="stop-color:#273E7C"/>
	</linearGradient>
	<polygon clip-path="url(#SVGID_5_)" fill="url(#SVGID_6_)" points="1152.585,2616.812 987.853,2874.306 759.606,2728.284 
		924.337,2470.79 	"/>
</g>
<g>
	<defs>
		<path id="SVGID_7_" d="M1083.717,2728.228v-111.871c0-28.469,10.68-42.712,32.543-42.712c24.411,0,41.193,20.347,41.193,56.955
			v83.895c0,36.609-16.782,56.955-41.193,56.955C1094.397,2771.45,1083.717,2757.207,1083.717,2728.228 M1157.454,2444.5v125.592
			c-11.702-20.346-29.491-30.514-52.879-30.514c-39.669,0-59.504,24.411-59.504,73.727v117.975
			c0,49.315,19.835,74.239,59.504,74.239c26.941,0,46.254-13.22,57.457-39.67c0.501,16.784,2.028,28.478,4.056,34.58h35.092
			c-3.555-15.76-5.602-38.645-5.602-69.662V2444.5H1157.454z"/>
	</defs>
	<clipPath id="SVGID_8_">
		<use xlink:href="#SVGID_7_"  overflow="visible"/>
	</clipPath>
	
		<linearGradient id="SVGID_9_" gradientUnits="userSpaceOnUse" x1="-1075.0181" y1="3290.2271" x2="-1074.0181" y2="3290.2271" gradientTransform="matrix(-919.8121 1437.7645 1437.7645 919.8121 -5717742 -1478955.375)">
		<stop  offset="0" style="stop-color:#2F6BB3"/>
		<stop  offset="1" style="stop-color:#273E7C"/>
	</linearGradient>
	<polygon clip-path="url(#SVGID_8_)" fill="url(#SVGID_9_)" points="1365.065,2549.346 1155.842,2876.383 881.185,2700.671 
		1090.408,2373.633 	"/>
</g>
<g>
	<defs>
		<polygon id="SVGID_10_" points="1218.986,2444.5 1218.986,2800.428 1360.337,2800.428 1360.337,2764.323 1258.635,2764.323 
			1258.635,2444.5 		"/>
	</defs>
	<clipPath id="SVGID_11_">
		<use xlink:href="#SVGID_10_"  overflow="visible"/>
	</clipPath>
	
		<linearGradient id="SVGID_12_" gradientUnits="userSpaceOnUse" x1="-1075.0181" y1="3290.271" x2="-1074.0181" y2="3290.271" gradientTransform="matrix(1071.6257 1098.4164 1098.4164 -1071.6257 -2461446.75 4708695)">
		<stop  offset="0" style="stop-color:#009676"/>
		<stop  offset="1" style="stop-color:#0D5042"/>
		<stop  offset="1" style="stop-color:#FFF2E9"/>
	</linearGradient>
	<polygon clip-path="url(#SVGID_11_)" fill="url(#SVGID_12_)" points="1291.407,2373.845 1538.248,2626.858 1287.917,2871.083 
		1041.076,2618.071 	"/>
</g>
<g>
	<defs>
		<path id="SVGID_13_" d="M1403.038,2618.393c0-30.003,12.206-44.748,37.121-44.748c25.436,0,38.144,14.745,38.144,44.748v28.478
			h-75.265V2618.393z M1364.393,2621.957v100.679c0,52.879,26.962,82.883,75.766,82.883c48.823,0,75.765-30.004,75.765-82.883
			v-4.073h-37.119v7.628c0,30.002-12.708,45.26-38.124,45.26c-24.914,0-37.643-15.258-37.643-45.26v-47.801h112.886v-56.433
			c0-52.888-26.941-82.379-75.765-82.379C1390.852,2539.578,1364.393,2569.069,1364.393,2621.957"/>
	</defs>
	<clipPath id="SVGID_14_">
		<use xlink:href="#SVGID_13_"  overflow="visible"/>
	</clipPath>
	
		<linearGradient id="SVGID_15_" gradientUnits="userSpaceOnUse" x1="-1075.0181" y1="3290.2466" x2="-1074.0181" y2="3290.2466" gradientTransform="matrix(1071.6257 1098.4164 1098.4164 -1071.6257 -2461370.75 4708618)">
		<stop  offset="0" style="stop-color:#009676"/>
		<stop  offset="1" style="stop-color:#0D5042"/>
		<stop  offset="1" style="stop-color:#FFF2E9"/>
	</linearGradient>
	<polygon clip-path="url(#SVGID_14_)" fill="url(#SVGID_15_)" points="1442.029,2463.835 1648.853,2675.831 1438.288,2881.26 
		1231.463,2669.265 	"/>
</g>
<g>
	<defs>
		<path id="SVGID_16_" d="M1570.328,2714.495V2630.6c0-36.608,16.783-56.955,41.195-56.955c21.862,0,33.045,14.243,33.045,42.712
			v111.871c0,28.979-11.183,43.222-33.045,43.222C1587.111,2771.45,1570.328,2751.104,1570.328,2714.495 M1532.205,2444.5v355.929
			h27.965l5.08-36.105c10.68,27.463,29.992,41.195,57.455,41.195c40.172,0,60.006-24.924,60.006-74.239v-117.975
			c0-49.315-19.834-73.727-60.006-73.727c-22.886,0-40.673,10.168-52.377,30.514V2444.5H1532.205z"/>
	</defs>
	<clipPath id="SVGID_17_">
		<use xlink:href="#SVGID_16_"  overflow="visible"/>
	</clipPath>
	
		<linearGradient id="SVGID_18_" gradientUnits="userSpaceOnUse" x1="-1075.0181" y1="3290.272" x2="-1074.0181" y2="3290.272" gradientTransform="matrix(1071.6257 1098.4164 1098.4164 -1071.6257 -2461286.75 4708538.5)">
		<stop  offset="0" style="stop-color:#009676"/>
		<stop  offset="1" style="stop-color:#0D5042"/>
		<stop  offset="1" style="stop-color:#FFF2E9"/>
	</linearGradient>
	<polygon clip-path="url(#SVGID_17_)" fill="url(#SVGID_18_)" points="1609.316,2369.27 1863.165,2629.465 1605.6,2880.748 
		1351.75,2620.552 	"/>
</g>
<g>
	<defs>
		<path id="SVGID_19_" d="M1181.835,1945.083h-65.477H847.856c-102.11,0-191.8,76.848-198.2,178.758
			c-6.966,110.866,81.248,203.296,190.637,203.296h210.846c9.29,0,16.82-7.53,16.82-16.818v-31.6c0-0.001-0.002-0.001-0.002-0.001
			H840.292c-84.567,0-152.18-73.974-141.51-160.617c8.913-72.369,74.313-124.6,147.229-124.6l270.347,0.001h121.429
			c0.505,0,0.911,0.407,0.911,0.91v177.187v0.002h30.673c9.792,0,17.729-7.938,17.729-17.729v-159.459
			c0-0.503,0.407-0.91,0.912-0.91h72.114c0.502,0,0.911,0.407,0.911,0.91v177.187c0,0.002,0.001,0.002,0.001,0.002h30.674
			c9.789,0,17.728-7.938,17.728-17.729v-208.788H1181.835z"/>
	</defs>
	<clipPath id="SVGID_20_">
		<use xlink:href="#SVGID_19_"  overflow="visible"/>
	</clipPath>
	
		<linearGradient id="SVGID_21_" gradientUnits="userSpaceOnUse" x1="-1075.0181" y1="3290.2202" x2="-1074.0181" y2="3290.2202" gradientTransform="matrix(1071.6257 1098.4164 1098.4164 -1071.6257 -2461282.75 4708534.5)">
		<stop  offset="0" style="stop-color:#009676"/>
		<stop  offset="1" style="stop-color:#0D5042"/>
		<stop  offset="1" style="stop-color:#FFF2E9"/>
	</linearGradient>
	<polygon clip-path="url(#SVGID_20_)" fill="url(#SVGID_21_)" points="1035.53,1561.825 1600.409,2140.826 1016.6,2710.395 
		451.721,2131.394 	"/>
</g>
<g>
	<defs>
		<path id="SVGID_22_" d="M1116.36,2041.042v129.586v60.548v79.143c0,9.289,7.53,16.817,16.818,16.817h358.506
			c95.584,0,174.768-70.651,188.642-162.434h-48.908c-13.278,64.981-70.886,114.015-139.733,114.015h-326.922v-47.541v-60.548
			v-112.767c0-9.289-7.529-16.819-16.818-16.819H1116.36z"/>
	</defs>
	<clipPath id="SVGID_23_">
		<use xlink:href="#SVGID_22_"  overflow="visible"/>
	</clipPath>
	
		<linearGradient id="SVGID_24_" gradientUnits="userSpaceOnUse" x1="-1075.0181" y1="3290.2681" x2="-1074.0181" y2="3290.2681" gradientTransform="matrix(-919.8121 1437.7645 1437.7645 919.8121 -5717807 -1478995.375)">
		<stop  offset="0" style="stop-color:#2F6BB3"/>
		<stop  offset="1" style="stop-color:#273E7C"/>
	</linearGradient>
	<polygon clip-path="url(#SVGID_23_)" fill="url(#SVGID_24_)" points="1810.2,2124.129 1516.54,2583.152 986.486,2244.049 
		1280.146,1785.027 	"/>
</g>
<g>
	<defs>
		<path id="SVGID_25_" d="M1474.66,1945.083c-9.289,0-16.817,7.529-16.817,16.818v31.601h33.842
			c71.897,0,131.378,53.523,141.078,122.784h48.907c-9.949-96.049-91.353-171.203-189.985-171.203H1474.66z"/>
	</defs>
	<clipPath id="SVGID_26_">
		<use xlink:href="#SVGID_25_"  overflow="visible"/>
	</clipPath>
	
		<linearGradient id="SVGID_27_" gradientUnits="userSpaceOnUse" x1="-1075.0181" y1="3290.2446" x2="-1074.0181" y2="3290.2446" gradientTransform="matrix(-919.8121 1437.7645 1437.7645 919.8121 -5717722 -1478939.375)">
		<stop  offset="0" style="stop-color:#2F6BB3"/>
		<stop  offset="1" style="stop-color:#273E7C"/>
	</linearGradient>
	<polygon clip-path="url(#SVGID_26_)" fill="url(#SVGID_27_)" points="1759.387,1994.803 1616.666,2217.893 1380.124,2066.565 
		1522.845,1843.475 	"/>
</g>
<g>
	<defs>
		<polygon id="SVGID_28_" points="642.878,2866.292 642.878,2964.019 681.688,2964.019 681.688,2954.107 653.767,2954.107 
			653.767,2866.292 		"/>
	</defs>
	<clipPath id="SVGID_29_">
		<use xlink:href="#SVGID_28_"  overflow="visible"/>
	</clipPath>
	
		<linearGradient id="SVGID_30_" gradientUnits="userSpaceOnUse" x1="-1075.0181" y1="3290.2476" x2="-1074.0181" y2="3290.2476" gradientTransform="matrix(-1058.5797 1654.6732 1654.6732 1058.5797 -6580749.5 -1702618.375)">
		<stop  offset="0" style="stop-color:#2F6BB3"/>
		<stop  offset="1" style="stop-color:#273E7C"/>
	</linearGradient>
	<polygon clip-path="url(#SVGID_29_)" fill="url(#SVGID_30_)" points="726.051,2894.674 670.417,2981.637 598.515,2935.637 
		654.149,2848.674 	"/>
</g>
<g>
	<defs>
		<path id="SVGID_31_" d="M693.413,2914.039c0-8.237,3.351-12.286,10.191-12.286c6.981,0,10.471,4.049,10.471,12.286v7.818h-20.662
			V2914.039z M682.803,2915.015v27.644c0,14.52,7.397,22.756,20.801,22.756s20.802-8.236,20.802-22.756v-1.117h-10.191v2.093
			c0,8.238-3.49,12.427-10.471,12.427c-6.841,0-10.331-4.188-10.331-12.427v-13.122h30.993v-15.497
			c0-14.519-7.398-22.615-20.802-22.615C690.062,2892.4,682.803,2900.497,682.803,2915.015"/>
	</defs>
	<clipPath id="SVGID_32_">
		<use xlink:href="#SVGID_31_"  overflow="visible"/>
	</clipPath>
	
		<linearGradient id="SVGID_33_" gradientUnits="userSpaceOnUse" x1="-1075.0181" y1="3290.2466" x2="-1074.0181" y2="3290.2466" gradientTransform="matrix(-1058.5797 1654.6732 1654.6732 1058.5797 -6580714.5 -1702598.375)">
		<stop  offset="0" style="stop-color:#2F6BB3"/>
		<stop  offset="1" style="stop-color:#273E7C"/>
	</linearGradient>
	<polygon clip-path="url(#SVGID_32_)" fill="url(#SVGID_33_)" points="757.551,2913.605 712.324,2984.3 649.658,2944.209 
		694.885,2873.514 	"/>
</g>
<g>
	<defs>
		<path id="SVGID_34_" d="M739.341,2940.424v-23.035c0-10.052,4.607-15.637,11.309-15.637c6.003,0,9.074,3.91,9.074,11.729v30.713
			c0,7.958-3.071,11.867-9.074,11.867C743.949,2956.061,739.341,2950.477,739.341,2940.424 M728.871,2866.292v97.727h7.679
			l1.396-9.912c2.932,7.538,8.237,11.308,15.776,11.308c11.028,0,16.473-6.84,16.473-20.383v-32.389
			c0-13.543-5.444-20.243-16.473-20.243c-6.282,0-11.168,2.792-14.38,8.377v-34.484H728.871z"/>
	</defs>
	<clipPath id="SVGID_35_">
		<use xlink:href="#SVGID_34_"  overflow="visible"/>
	</clipPath>
	
		<linearGradient id="SVGID_36_" gradientUnits="userSpaceOnUse" x1="-1075.0181" y1="3290.2485" x2="-1074.0181" y2="3290.2485" gradientTransform="matrix(-1058.5797 1654.6732 1654.6732 1058.5797 -6580690.5 -1702582.375)">
		<stop  offset="0" style="stop-color:#2F6BB3"/>
		<stop  offset="1" style="stop-color:#273E7C"/>
	</linearGradient>
	<polygon clip-path="url(#SVGID_35_)" fill="url(#SVGID_36_)" points="815.191,2895.08 758.193,2984.173 683.875,2936.627 
		740.873,2847.534 	"/>
</g>
<g>
	<defs>
		<path id="SVGID_37_" d="M783.035,2946.568c0-5.864,3.351-10.472,9.911-13.822c5.724-2.931,9.075-5.025,10.192-6.562v14.102
			c0,10.051-4.328,15.914-11.448,15.914C785.967,2956.2,783.035,2952.989,783.035,2946.568 M774.378,2912.782v1.536h9.912v-2.094
			c0-6.842,3.631-10.751,9.772-10.751c6.004,0,9.075,3.49,9.075,10.472v1.675c0,2.373-0.698,4.329-2.234,5.585
			c-1.535,1.255-5.165,3.21-11.027,5.863c-12.705,6.003-17.451,12.285-17.451,23.035c0,10.609,6.003,17.312,15.635,17.312
			c7.958,0,13.402-3.63,16.334-10.89c0.28,4.887,0.699,7.958,1.117,9.494h9.634c-0.978-4.328-1.536-10.611-1.536-19.126v-31.273
			c0-14.1-6.422-21.22-19.406-21.22C781.499,2892.4,774.378,2899.798,774.378,2912.782"/>
	</defs>
	<clipPath id="SVGID_38_">
		<use xlink:href="#SVGID_37_"  overflow="visible"/>
	</clipPath>
	
		<linearGradient id="SVGID_39_" gradientUnits="userSpaceOnUse" x1="-1075.0181" y1="3290.2446" x2="-1074.0181" y2="3290.2446" gradientTransform="matrix(-1058.5797 1654.6732 1654.6732 1058.5797 -6580646.5 -1702554.375)">
		<stop  offset="0" style="stop-color:#2F6BB3"/>
		<stop  offset="1" style="stop-color:#273E7C"/>
	</linearGradient>
	<polygon clip-path="url(#SVGID_38_)" fill="url(#SVGID_39_)" points="848.291,2913.605 802.738,2984.807 739.279,2944.209 
		784.832,2873.006 	"/>
</g>
<g>
	<defs>
		<path id="SVGID_40_" d="M828.962,2903.009l-0.141-9.214h-9.074v70.224h10.471v-46.63c0-10.052,4.468-15.637,11.029-15.637
			c5.863,0,8.795,4.049,8.795,12.286v49.98h10.61v-51.376c0-13.543-5.445-20.243-16.194-20.243
			C837.06,2892.4,831.894,2895.889,828.962,2903.009"/>
	</defs>
	<clipPath id="SVGID_41_">
		<use xlink:href="#SVGID_40_"  overflow="visible"/>
	</clipPath>
	
		<linearGradient id="SVGID_42_" gradientUnits="userSpaceOnUse" x1="-1075.0181" y1="3290.2476" x2="-1074.0181" y2="3290.2476" gradientTransform="matrix(-1058.5797 1654.6732 1654.6732 1058.5797 -6580617.5 -1702534.375)">
		<stop  offset="0" style="stop-color:#2F6BB3"/>
		<stop  offset="1" style="stop-color:#273E7C"/>
	</linearGradient>
	<polygon clip-path="url(#SVGID_41_)" fill="url(#SVGID_42_)" points="893.165,2913.2 848.773,2982.587 787.236,2943.219 
		831.627,2873.831 	"/>
</g>
<g>
	<defs>
		<path id="SVGID_43_" d="M875.727,2914.039c0-8.237,3.351-12.286,10.192-12.286c6.979,0,10.471,4.049,10.471,12.286v7.818h-20.663
			V2914.039z M865.117,2915.015v27.644c0,14.52,7.4,22.756,20.803,22.756s20.802-8.236,20.802-22.756v-1.117h-10.192v2.093
			c0,8.238-3.49,12.427-10.47,12.427c-6.841,0-10.332-4.188-10.332-12.427v-13.122h30.994v-15.497
			c0-14.519-7.399-22.615-20.802-22.615C872.376,2892.4,865.117,2900.497,865.117,2915.015"/>
	</defs>
	<clipPath id="SVGID_44_">
		<use xlink:href="#SVGID_43_"  overflow="visible"/>
	</clipPath>
	
		<linearGradient id="SVGID_45_" gradientUnits="userSpaceOnUse" x1="-1075.0181" y1="3290.2466" x2="-1074.0181" y2="3290.2466" gradientTransform="matrix(-1058.5797 1654.6732 1654.6732 1058.5797 -6580584.5 -1702514.375)">
		<stop  offset="0" style="stop-color:#2F6BB3"/>
		<stop  offset="1" style="stop-color:#273E7C"/>
	</linearGradient>
	<polygon clip-path="url(#SVGID_44_)" fill="url(#SVGID_45_)" points="939.867,2913.605 894.638,2984.301 831.971,2944.209 
		877.2,2873.513 	"/>
</g>
<g>
	<defs>
		<path id="SVGID_46_" d="M908.952,2911.107c0,6.143,1.675,10.75,5.584,14.239c1.954,1.816,3.63,3.071,4.886,3.909
			c1.258,0.838,3.352,1.955,6.144,3.49c5.166,2.653,7.818,4.049,10.192,7.54c1.256,1.675,1.953,3.629,1.953,5.724
			c0,6.841-3.211,10.19-9.633,10.19s-9.633-3.629-9.633-10.749v-2.653h-10.191v2.374c0,12.704,7.539,20.243,20.384,20.243
			c12.424,0,19.545-7.399,19.545-19.546c0-6.003-1.676-10.47-5.445-13.82c-3.769-3.489-5.864-4.747-11.029-7.399
			c-5.584-2.792-7.956-4.049-10.61-7.538c-1.256-1.816-1.954-3.91-1.954-6.144c0-6.143,3.77-9.494,8.935-9.494
			c6.003,0,8.936,3.352,8.936,10.192v1.675h9.913v-1.396c0-12.146-7.4-19.545-18.988-19.545
			C916.072,2892.4,908.952,2899.52,908.952,2911.107"/>
	</defs>
	<clipPath id="SVGID_47_">
		<use xlink:href="#SVGID_46_"  overflow="visible"/>
	</clipPath>
	
		<linearGradient id="SVGID_48_" gradientUnits="userSpaceOnUse" x1="-1075.0181" y1="3290.2466" x2="-1074.0181" y2="3290.2466" gradientTransform="matrix(-1058.5797 1654.6732 1654.6732 1058.5797 -6580554.5 -1702494.375)">
		<stop  offset="0" style="stop-color:#2F6BB3"/>
		<stop  offset="1" style="stop-color:#273E7C"/>
	</linearGradient>
	<polygon clip-path="url(#SVGID_47_)" fill="url(#SVGID_48_)" points="981.328,2913.605 936.585,2983.541 875.107,2944.209 
		919.849,2874.274 	"/>
</g>
<g>
	<defs>
		<path id="SVGID_49_" d="M960.743,2914.039c0-8.237,3.351-12.286,10.191-12.286c6.979,0,10.471,4.049,10.471,12.286v7.818h-20.662
			V2914.039z M950.132,2915.015v27.644c0,14.52,7.399,22.756,20.802,22.756c13.403,0,20.802-8.236,20.802-22.756v-1.117h-10.191
			v2.093c0,8.238-3.49,12.427-10.471,12.427c-6.841,0-10.331-4.188-10.331-12.427v-13.122h30.993v-15.497
			c0-14.519-7.398-22.615-20.802-22.615C957.393,2892.4,950.132,2900.497,950.132,2915.015"/>
	</defs>
	<clipPath id="SVGID_50_">
		<use xlink:href="#SVGID_49_"  overflow="visible"/>
	</clipPath>
	
		<linearGradient id="SVGID_51_" gradientUnits="userSpaceOnUse" x1="-1075.0181" y1="3290.2466" x2="-1074.0181" y2="3290.2466" gradientTransform="matrix(-1058.5797 1654.6732 1654.6732 1058.5797 -6580524.5 -1702474.375)">
		<stop  offset="0" style="stop-color:#2F6BB3"/>
		<stop  offset="1" style="stop-color:#273E7C"/>
	</linearGradient>
	<polygon clip-path="url(#SVGID_50_)" fill="url(#SVGID_51_)" points="1024.881,2913.605 979.653,2984.301 916.986,2944.209 
		962.214,2873.513 	"/>
</g>
<g>
	<defs>
		<polygon id="SVGID_52_" points="1056.37,2866.292 1042.13,2944.333 1027.75,2866.292 1011.975,2866.292 1011.975,2964.019 
			1021.607,2964.019 1021.607,2882.488 1037.105,2964.019 1046.318,2964.019 1061.815,2882.488 1061.815,2964.019 
			1072.286,2964.019 1072.286,2866.292 		"/>
	</defs>
	<clipPath id="SVGID_53_">
		<use xlink:href="#SVGID_52_"  overflow="visible"/>
	</clipPath>
	
		<linearGradient id="SVGID_54_" gradientUnits="userSpaceOnUse" x1="-1075.0181" y1="3290.2476" x2="-1074.0181" y2="3290.2476" gradientTransform="matrix(-1058.5797 1654.6732 1654.6732 1058.5797 -6580480.5 -1702446.375)">
		<stop  offset="0" style="stop-color:#2F6BB3"/>
		<stop  offset="1" style="stop-color:#273E7C"/>
	</linearGradient>
	<polygon clip-path="url(#SVGID_53_)" fill="url(#SVGID_54_)" points="1116.649,2894.674 1054.77,2991.397 967.612,2935.637 
		1029.49,2838.915 	"/>
</g>
<g>
	<defs>
		<path id="SVGID_55_" d="M1087.777,2914.039c0-8.237,3.352-12.286,10.192-12.286c6.979,0,10.471,4.049,10.471,12.286v7.818h-20.663
			V2914.039z M1077.167,2915.015v27.644c0,14.52,7.399,22.756,20.802,22.756s20.802-8.236,20.802-22.756v-1.117h-10.192v2.093
			c0,8.238-3.489,12.427-10.471,12.427c-6.84,0-10.331-4.188-10.331-12.427v-13.122h30.994v-15.497
			c0-14.519-7.399-22.615-20.802-22.615C1084.428,2892.4,1077.167,2900.497,1077.167,2915.015"/>
	</defs>
	<clipPath id="SVGID_56_">
		<use xlink:href="#SVGID_55_"  overflow="visible"/>
	</clipPath>
	
		<linearGradient id="SVGID_57_" gradientUnits="userSpaceOnUse" x1="-1075.0181" y1="3290.2476" x2="-1074.0181" y2="3290.2476" gradientTransform="matrix(-1058.5797 1654.6732 1654.6732 1058.5797 -6580434.5 -1702418.375)">
		<stop  offset="0" style="stop-color:#2F6BB3"/>
		<stop  offset="1" style="stop-color:#273E7C"/>
	</linearGradient>
	<polygon clip-path="url(#SVGID_56_)" fill="url(#SVGID_57_)" points="1151.917,2913.605 1106.688,2984.301 1044.021,2944.209 
		1089.25,2873.513 	"/>
</g>
<g>
	<defs>
		<path id="SVGID_58_" d="M1133.009,2944.194v-30.713c0-7.818,2.931-11.729,8.934-11.729c6.701,0,11.309,5.585,11.309,15.637v23.035
			c0,10.053-4.607,15.637-11.309,15.637C1135.94,2956.061,1133.009,2952.152,1133.009,2944.194 M1153.251,2866.292v34.484
			c-3.211-5.585-8.098-8.377-14.52-8.377c-10.889,0-16.334,6.7-16.334,20.243v32.389c0,13.543,5.445,20.383,16.334,20.383
			c7.398,0,12.704-3.63,15.775-10.89c0.14,4.606,0.56,7.818,1.117,9.494h9.633c-0.978-4.328-1.535-10.611-1.535-19.126v-78.601
			H1153.251z"/>
	</defs>
	<clipPath id="SVGID_59_">
		<use xlink:href="#SVGID_58_"  overflow="visible"/>
	</clipPath>
	
		<linearGradient id="SVGID_60_" gradientUnits="userSpaceOnUse" x1="-1075.0181" y1="3290.2427" x2="-1074.0181" y2="3290.2427" gradientTransform="matrix(-1058.5797 1654.6732 1654.6732 1058.5797 -6580399.5 -1702394.375)">
		<stop  offset="0" style="stop-color:#2F6BB3"/>
		<stop  offset="1" style="stop-color:#273E7C"/>
	</linearGradient>
	<polygon clip-path="url(#SVGID_59_)" fill="url(#SVGID_60_)" points="1210.253,2895.08 1152.81,2984.871 1077.401,2936.627 
		1134.845,2846.836 	"/>
</g>
<g>
	<defs>
		<path id="SVGID_61_" d="M1170.14,2964.019h10.47v-70.224h-10.47V2964.019z M1170.14,2883.744h10.47v-15.078h-10.47V2883.744z"/>
	</defs>
	<clipPath id="SVGID_62_">
		<use xlink:href="#SVGID_61_"  overflow="visible"/>
	</clipPath>
	
		<linearGradient id="SVGID_63_" gradientUnits="userSpaceOnUse" x1="-1075.0181" y1="3290.2466" x2="-1074.0181" y2="3290.2466" gradientTransform="matrix(-1058.5797 1654.6732 1654.6732 1058.5797 -6580385.5 -1702386.375)">
		<stop  offset="0" style="stop-color:#2F6BB3"/>
		<stop  offset="1" style="stop-color:#273E7C"/>
	</linearGradient>
	<polygon clip-path="url(#SVGID_62_)" fill="url(#SVGID_63_)" points="1223.896,2896.358 1177.569,2968.772 1126.854,2936.327 
		1173.18,2863.913 	"/>
</g>
<g>
	<defs>
		<path id="SVGID_64_" d="M1185.634,2914.737v28.201c0,14.519,7.119,22.477,20.522,22.477c13.263,0,20.104-8.098,20.104-22.477
			v-4.469h-10.191v5.445c0,8.098-3.351,12.146-9.912,12.146s-9.913-4.049-9.913-12.146v-30.155c0-7.958,3.352-12.007,9.913-12.007
			s9.912,4.049,9.912,12.007v4.048h10.191v-3.07c0-14.102-6.841-22.337-20.104-22.337
			C1192.753,2892.4,1185.634,2900.217,1185.634,2914.737"/>
	</defs>
	<clipPath id="SVGID_65_">
		<use xlink:href="#SVGID_64_"  overflow="visible"/>
	</clipPath>
	
		<linearGradient id="SVGID_66_" gradientUnits="userSpaceOnUse" x1="-1075.0181" y1="3290.2485" x2="-1074.0181" y2="3290.2485" gradientTransform="matrix(-1058.5797 1654.6732 1654.6732 1058.5797 -6580357.5 -1702370.375)">
		<stop  offset="0" style="stop-color:#2F6BB3"/>
		<stop  offset="1" style="stop-color:#273E7C"/>
	</linearGradient>
	<polygon clip-path="url(#SVGID_65_)" fill="url(#SVGID_66_)" points="1259.406,2913.605 1214.461,2983.857 1152.488,2944.209 
		1197.432,2873.958 	"/>
</g>
<g>
	<defs>
		<path id="SVGID_67_" d="M1230.166,2964.019h10.472v-70.224h-10.472V2964.019z M1230.166,2883.744h10.472v-15.078h-10.472V2883.744
			z"/>
	</defs>
	<clipPath id="SVGID_68_">
		<use xlink:href="#SVGID_67_"  overflow="visible"/>
	</clipPath>
	
		<linearGradient id="SVGID_69_" gradientUnits="userSpaceOnUse" x1="-1075.0181" y1="3290.2476" x2="-1074.0181" y2="3290.2476" gradientTransform="matrix(-1058.5797 1654.6732 1654.6732 1058.5797 -6580342.5 -1702358.375)">
		<stop  offset="0" style="stop-color:#2F6BB3"/>
		<stop  offset="1" style="stop-color:#273E7C"/>
	</linearGradient>
	<polygon clip-path="url(#SVGID_68_)" fill="url(#SVGID_69_)" points="1283.923,2896.358 1237.595,2968.772 1186.88,2936.327 
		1233.207,2863.913 	"/>
</g>
<g>
	<defs>
		<path id="SVGID_70_" d="M1256.271,2903.009l-0.141-9.214h-9.073v70.224h10.47v-46.63c0-10.052,4.468-15.637,11.03-15.637
			c5.862,0,8.795,4.049,8.795,12.286v49.98h10.61v-51.376c0-13.543-5.445-20.243-16.195-20.243
			C1264.368,2892.4,1259.202,2895.889,1256.271,2903.009"/>
	</defs>
	<clipPath id="SVGID_71_">
		<use xlink:href="#SVGID_70_"  overflow="visible"/>
	</clipPath>
	
		<linearGradient id="SVGID_72_" gradientUnits="userSpaceOnUse" x1="-1075.0181" y1="3290.2466" x2="-1074.0181" y2="3290.2466" gradientTransform="matrix(-1058.5797 1654.6732 1654.6732 1058.5797 -6580313.5 -1702342.375)">
		<stop  offset="0" style="stop-color:#2F6BB3"/>
		<stop  offset="1" style="stop-color:#273E7C"/>
	</linearGradient>
	<polygon clip-path="url(#SVGID_71_)" fill="url(#SVGID_72_)" points="1320.474,2913.2 1276.083,2982.587 1214.545,2943.219 
		1258.937,2873.831 	"/>
</g>
<g>
	<defs>
		<path id="SVGID_73_" d="M1303.037,2914.039c0-8.237,3.351-12.286,10.191-12.286c6.98,0,10.471,4.049,10.471,12.286v7.818h-20.662
			V2914.039z M1292.426,2915.015v27.644c0,14.52,7.399,22.756,20.802,22.756s20.801-8.236,20.801-22.756v-1.117h-10.191v2.093
			c0,8.238-3.489,12.427-10.47,12.427c-6.841,0-10.331-4.188-10.331-12.427v-13.122h30.992v-15.497
			c0-14.519-7.398-22.615-20.801-22.615C1299.686,2892.4,1292.426,2900.497,1292.426,2915.015"/>
	</defs>
	<clipPath id="SVGID_74_">
		<use xlink:href="#SVGID_73_"  overflow="visible"/>
	</clipPath>
	
		<linearGradient id="SVGID_75_" gradientUnits="userSpaceOnUse" x1="-1075.0181" y1="3290.2466" x2="-1074.0181" y2="3290.2466" gradientTransform="matrix(-1058.5797 1654.6732 1654.6732 1058.5797 -6580281.5 -1702318.375)">
		<stop  offset="0" style="stop-color:#2F6BB3"/>
		<stop  offset="1" style="stop-color:#273E7C"/>
	</linearGradient>
	<polygon clip-path="url(#SVGID_74_)" fill="url(#SVGID_75_)" points="1367.174,2913.605 1321.947,2984.301 1259.281,2944.209 
		1304.508,2873.514 	"/>
</g>
<g>
	<defs>
		<path id="SVGID_76_" d="M1365.157,2876.205h11.169c7.819,0,11.448,3.77,11.448,13.263v51.236c0,9.493-3.629,13.403-11.448,13.403
			h-11.169V2876.205z M1354.268,2866.292v97.727h22.337c14.659,0,22.058-7.958,22.058-23.733v-50.26
			c0-15.775-7.398-23.733-22.058-23.733H1354.268z"/>
	</defs>
	<clipPath id="SVGID_77_">
		<use xlink:href="#SVGID_76_"  overflow="visible"/>
	</clipPath>
	
		<linearGradient id="SVGID_78_" gradientUnits="userSpaceOnUse" x1="-1075.0181" y1="3290.2485" x2="-1074.0181" y2="3290.2485" gradientTransform="matrix(-1058.5797 1654.6732 1654.6732 1058.5797 -6580246.5 -1702298.375)">
		<stop  offset="0" style="stop-color:#2F6BB3"/>
		<stop  offset="1" style="stop-color:#273E7C"/>
	</linearGradient>
	<polygon clip-path="url(#SVGID_77_)" fill="url(#SVGID_78_)" points="1443.026,2894.674 1385.77,2984.172 1309.904,2935.637 
		1367.161,2846.139 	"/>
</g>
<g>
	<defs>
		<path id="SVGID_79_" d="M1403.964,2964.019h10.471v-70.224h-10.471V2964.019z M1403.964,2883.744h10.471v-15.078h-10.471V2883.744
			z"/>
	</defs>
	<clipPath id="SVGID_80_">
		<use xlink:href="#SVGID_79_"  overflow="visible"/>
	</clipPath>
	
		<linearGradient id="SVGID_81_" gradientUnits="userSpaceOnUse" x1="-1075.0181" y1="3290.2476" x2="-1074.0181" y2="3290.2476" gradientTransform="matrix(-1058.5797 1654.6732 1654.6732 1058.5797 -6580219.5 -1702278.375)">
		<stop  offset="0" style="stop-color:#2F6BB3"/>
		<stop  offset="1" style="stop-color:#273E7C"/>
	</linearGradient>
	<polygon clip-path="url(#SVGID_80_)" fill="url(#SVGID_81_)" points="1457.72,2896.358 1411.394,2968.772 1360.679,2936.327 
		1407.005,2863.913 	"/>
</g>
<g>
	<defs>
		<path id="SVGID_82_" d="M1430.07,2905.382l-0.14-11.587h-9.074v70.224h10.47v-40.905c0-13.543,4.607-20.244,13.682-20.244
			c1.676,0,3.072,0.279,4.328,0.698v-10.331c-1.116-0.56-2.652-0.837-4.607-0.837
			C1437.329,2892.4,1432.443,2896.727,1430.07,2905.382"/>
	</defs>
	<clipPath id="SVGID_83_">
		<use xlink:href="#SVGID_82_"  overflow="visible"/>
	</clipPath>
	
		<linearGradient id="SVGID_84_" gradientUnits="userSpaceOnUse" x1="-1075.0181" y1="3290.2505" x2="-1074.0181" y2="3290.2505" gradientTransform="matrix(-1058.5797 1654.6732 1654.6732 1058.5797 -6580201.5 -1702270.375)">
		<stop  offset="0" style="stop-color:#2F6BB3"/>
		<stop  offset="1" style="stop-color:#273E7C"/>
	</linearGradient>
	<polygon clip-path="url(#SVGID_83_)" fill="url(#SVGID_84_)" points="1481.847,2913.199 1441.064,2976.947 1388.344,2943.219 
		1429.126,2879.471 	"/>
</g>
<g>
	<defs>
		<path id="SVGID_85_" d="M1459.247,2914.039c0-8.237,3.352-12.286,10.192-12.286c6.979,0,10.469,4.049,10.469,12.286v7.818h-20.661
			V2914.039z M1448.637,2915.015v27.644c0,14.52,7.398,22.756,20.802,22.756c13.4,0,20.8-8.236,20.8-22.756v-1.117h-10.19v2.093
			c0,8.238-3.49,12.427-10.471,12.427c-6.841,0-10.331-4.188-10.331-12.427v-13.122h30.992v-15.497
			c0-14.519-7.399-22.615-20.8-22.615C1455.896,2892.4,1448.637,2900.497,1448.637,2915.015"/>
	</defs>
	<clipPath id="SVGID_86_">
		<use xlink:href="#SVGID_85_"  overflow="visible"/>
	</clipPath>
	
		<linearGradient id="SVGID_87_" gradientUnits="userSpaceOnUse" x1="-1075.0181" y1="3290.2485" x2="-1074.0181" y2="3290.2485" gradientTransform="matrix(-1058.5797 1654.6732 1654.6732 1058.5797 -6580170.5 -1702250.375)">
		<stop  offset="0" style="stop-color:#2F6BB3"/>
		<stop  offset="1" style="stop-color:#273E7C"/>
	</linearGradient>
	<polygon clip-path="url(#SVGID_86_)" fill="url(#SVGID_87_)" points="1523.384,2913.605 1478.157,2984.3 1415.492,2944.209 
		1460.719,2873.514 	"/>
</g>
<g>
	<defs>
		<path id="SVGID_88_" d="M1493.587,2914.737v28.201c0,14.519,7.119,22.477,20.522,22.477c13.262,0,20.103-8.098,20.103-22.477
			v-4.469h-10.19v5.445c0,8.098-3.351,12.146-9.912,12.146s-9.913-4.049-9.913-12.146v-30.155c0-7.958,3.352-12.007,9.913-12.007
			s9.912,4.049,9.912,12.007v4.048h10.19v-3.07c0-14.102-6.841-22.337-20.103-22.337
			C1500.707,2892.4,1493.587,2900.217,1493.587,2914.737"/>
	</defs>
	<clipPath id="SVGID_89_">
		<use xlink:href="#SVGID_88_"  overflow="visible"/>
	</clipPath>
	
		<linearGradient id="SVGID_90_" gradientUnits="userSpaceOnUse" x1="-1075.0181" y1="3290.2466" x2="-1074.0181" y2="3290.2466" gradientTransform="matrix(-1058.5797 1654.6732 1654.6732 1058.5797 -6580139.5 -1702230.375)">
		<stop  offset="0" style="stop-color:#2F6BB3"/>
		<stop  offset="1" style="stop-color:#273E7C"/>
	</linearGradient>
	<polygon clip-path="url(#SVGID_89_)" fill="url(#SVGID_90_)" points="1567.359,2913.604 1522.415,2983.857 1460.441,2944.209 
		1505.385,2873.958 	"/>
</g>
<g>
	<defs>
		<path id="SVGID_91_" d="M1543.843,2873.551l-1.117,20.244h-9.074v8.935h8.656v46.629c0,10.751,5.165,16.056,15.496,16.056
			c3.072,0,5.724-0.419,7.817-1.396v-9.074c-1.814,0.696-3.769,1.116-5.862,1.116c-5.027,0-6.842-2.234-6.842-7.818v-45.513h12.704
			v-8.935h-12.704v-20.244H1543.843z"/>
	</defs>
	<clipPath id="SVGID_92_">
		<use xlink:href="#SVGID_91_"  overflow="visible"/>
	</clipPath>
	
		<linearGradient id="SVGID_93_" gradientUnits="userSpaceOnUse" x1="-1075.0181" y1="3290.2456" x2="-1074.0181" y2="3290.2456" gradientTransform="matrix(-1058.5797 1654.6732 1654.6732 1058.5797 -6580114.5 -1702214.375)">
		<stop  offset="0" style="stop-color:#2F6BB3"/>
		<stop  offset="1" style="stop-color:#273E7C"/>
	</linearGradient>
	<polygon clip-path="url(#SVGID_92_)" fill="url(#SVGID_93_)" points="1607.324,2900.23 1556.337,2979.927 1491.95,2938.736 
		1542.937,2859.039 	"/>
</g>
<g>
	<defs>
		<path id="SVGID_94_" d="M1577.07,2943.634v-29.596c0-8.237,3.35-12.286,10.191-12.286c6.701,0,10.052,4.049,10.052,12.286v29.596
			c0,8.238-3.351,12.427-10.052,12.427C1580.419,2956.061,1577.07,2951.873,1577.07,2943.634 M1566.599,2915.015v27.644
			c0,14.52,7.259,22.756,20.662,22.756c13.263,0,20.662-8.236,20.662-22.756v-27.644c0-14.519-7.399-22.615-20.662-22.615
			C1573.858,2892.4,1566.599,2900.497,1566.599,2915.015"/>
	</defs>
	<clipPath id="SVGID_95_">
		<use xlink:href="#SVGID_94_"  overflow="visible"/>
	</clipPath>
	
		<linearGradient id="SVGID_96_" gradientUnits="userSpaceOnUse" x1="-1075.0181" y1="3290.2476" x2="-1074.0181" y2="3290.2476" gradientTransform="matrix(-1058.5797 1654.6732 1654.6732 1058.5797 -6580087.5 -1702194.375)">
		<stop  offset="0" style="stop-color:#2F6BB3"/>
		<stop  offset="1" style="stop-color:#273E7C"/>
	</linearGradient>
	<polygon clip-path="url(#SVGID_95_)" fill="url(#SVGID_96_)" points="1641.068,2913.605 1595.921,2984.174 1533.453,2944.209 
		1578.6,2873.64 	"/>
</g>
<g>
	<defs>
		<path id="SVGID_97_" d="M1622.02,2905.382l-0.14-11.587h-9.075v70.224h10.471v-40.905c0-13.543,4.606-20.244,13.681-20.244
			c1.676,0,3.072,0.279,4.328,0.698v-10.331c-1.115-0.56-2.652-0.837-4.606-0.837
			C1629.279,2892.4,1624.393,2896.727,1622.02,2905.382"/>
	</defs>
	<clipPath id="SVGID_98_">
		<use xlink:href="#SVGID_97_"  overflow="visible"/>
	</clipPath>
	
		<linearGradient id="SVGID_99_" gradientUnits="userSpaceOnUse" x1="-1075.0181" y1="3290.2505" x2="-1074.0181" y2="3290.2505" gradientTransform="matrix(-1058.5797 1654.6732 1654.6732 1058.5797 -6580065.5 -1702182.375)">
		<stop  offset="0" style="stop-color:#2F6BB3"/>
		<stop  offset="1" style="stop-color:#273E7C"/>
	</linearGradient>
	<polygon clip-path="url(#SVGID_98_)" fill="url(#SVGID_99_)" points="1673.796,2913.2 1633.013,2976.948 1580.292,2943.219 
		1621.076,2879.471 	"/>
</g>
<g>
	<defs>
		<path id="SVGID_100_" d="M1674.089,2893.795l-11.447,53.469l-12.704-53.469h-10.749l17.869,71.061l-1.256,5.585
			c-1.258,5.585-3.071,7.259-8.099,7.259c-2.232,0-4.048-0.418-5.584-1.116v9.074c1.675,0.978,4.05,1.396,7.121,1.396
			c9.632,0,14.519-4.326,16.892-15.078l2.933-12.844l14.798-65.336H1674.089z"/>
	</defs>
	<clipPath id="SVGID_101_">
		<use xlink:href="#SVGID_100_"  overflow="visible"/>
	</clipPath>
	
		<linearGradient id="SVGID_102_" gradientUnits="userSpaceOnUse" x1="-1075.0181" y1="3290.2534" x2="-1074.0181" y2="3290.2534" gradientTransform="matrix(-1058.5797 1654.6732 1654.6732 1058.5797 -6580038.5 -1702162.375)">
		<stop  offset="0" style="stop-color:#2F6BB3"/>
		<stop  offset="1" style="stop-color:#273E7C"/>
	</linearGradient>
	<polygon clip-path="url(#SVGID_101_)" fill="url(#SVGID_102_)" points="1726.198,2920.879 1670.888,3007.333 1596.854,2959.969 
		1652.164,2873.515 	"/>
</g>
<g>
	<defs>
		<rect id="SVGID_103_" x="-2350.525" y="-901.905" width="1064.488" height="1064.488"/>
	</defs>
	<clipPath id="SVGID_104_">
		<use xlink:href="#SVGID_103_"  overflow="visible"/>
	</clipPath>
	
		<linearGradient id="SVGID_105_" gradientUnits="userSpaceOnUse" x1="-1078.938" y1="3289.4595" x2="-1077.938" y2="3289.4595" gradientTransform="matrix(645.1898 552.3568 552.3568 -645.1898 -1123001.25 2717615)">
		<stop  offset="0" style="stop-color:#009676"/>
		<stop  offset="1" style="stop-color:#0D5042"/>
		<stop  offset="1" style="stop-color:#FFF2E9"/>
	</linearGradient>
	<polygon clip-path="url(#SVGID_104_)" fill="url(#SVGID_105_)" points="-1900.306,-1427.79 -760.151,-451.686 -1736.255,688.469 
		-2876.411,-287.635 	"/>
</g>
<g>
	<defs>
		<path id="SVGID_106_" d="M-1808.014-484.505h-45.783h-187.742c-71.398,0-134.111,53.734-138.588,124.992
			c-4.87,77.52,56.812,142.149,133.298,142.149h147.428c6.496,0,11.761-5.266,11.761-11.76v-22.094c0-0.001-0.001-0.001-0.001-0.001
			h-159.188c-59.131,0-106.408-51.725-98.946-112.308c6.232-50.603,51.961-87.123,102.946-87.123l189.032,0.001h84.905
			c0.353,0,0.639,0.285,0.639,0.636v123.895v0.001h21.446c6.847,0,12.396-5.55,12.396-12.397v-111.498
			c0-0.351,0.286-0.636,0.637-0.636h50.427c0.351,0,0.636,0.285,0.636,0.636v123.895c0,0.001,0.001,0.001,0.001,0.001h21.447
			c6.846,0,12.396-5.55,12.396-12.397v-145.99H-1808.014z"/>
	</defs>
	<clipPath id="SVGID_107_">
		<use xlink:href="#SVGID_106_"  overflow="visible"/>
	</clipPath>
	
		<linearGradient id="SVGID_108_" gradientUnits="userSpaceOnUse" x1="-1078.2339" y1="3289.356" x2="-1077.2339" y2="3289.356" gradientTransform="matrix(731.339 711.024 711.024 -731.339 -1552370.625 3171741.25)">
		<stop  offset="0" style="stop-color:#FFFFFF"/>
		<stop  offset="8.073430e-008" style="stop-color:#FFFFFF"/>
		<stop  offset="1" style="stop-color:#898B8D"/>
	</linearGradient>
	<polygon clip-path="url(#SVGID_107_)" fill="url(#SVGID_108_)" points="-1924.483,-752.463 -1515.351,-354.696 -1909.383,50.594 
		-2318.515,-347.172 	"/>
</g>
<g>
	<defs>
		<path id="SVGID_109_" d="M-1853.797-417.407v90.609v42.336v55.339c0,6.494,5.266,11.759,11.761,11.759h250.674
			c66.836,0,122.203-49.402,131.904-113.577h-34.198c-9.285,45.436-49.564,79.722-97.706,79.722h-228.59v-33.243v-42.336v-78.849
			c0-6.495-5.265-11.76-11.76-11.76H-1853.797z"/>
	</defs>
	<clipPath id="SVGID_110_">
		<use xlink:href="#SVGID_109_"  overflow="visible"/>
	</clipPath>
	
		<linearGradient id="SVGID_111_" gradientUnits="userSpaceOnUse" x1="-1078.2339" y1="3289.4116" x2="-1077.2339" y2="3289.4116" gradientTransform="matrix(731.339 711.024 711.024 -731.339 -1552300.625 3171669.75)">
		<stop  offset="0" style="stop-color:#FFFFFF"/>
		<stop  offset="8.073430e-008" style="stop-color:#FFFFFF"/>
		<stop  offset="1" style="stop-color:#898B8D"/>
	</linearGradient>
	<polygon clip-path="url(#SVGID_110_)" fill="url(#SVGID_111_)" points="-1662.181,-614.498 -1359.477,-320.202 -1651.075,-20.273 
		-1953.779,-314.568 	"/>
</g>
<g>
	<defs>
		<path id="SVGID_112_" d="M-1603.266-484.505c-6.494,0-11.759,5.266-11.759,11.76v22.096h23.662
			c50.274,0,91.864,37.424,98.646,85.853h34.197c-6.957-67.159-63.875-119.709-132.843-119.709H-1603.266z"/>
	</defs>
	<clipPath id="SVGID_113_">
		<use xlink:href="#SVGID_112_"  overflow="visible"/>
	</clipPath>
	
		<linearGradient id="SVGID_114_" gradientUnits="userSpaceOnUse" x1="-1078.2339" y1="3289.3813" x2="-1077.2339" y2="3289.3813" gradientTransform="matrix(731.339 711.024 711.024 -731.339 -1552166.625 3171532)">
		<stop  offset="0" style="stop-color:#FFFFFF"/>
		<stop  offset="8.073430e-008" style="stop-color:#FFFFFF"/>
		<stop  offset="1" style="stop-color:#898B8D"/>
	</linearGradient>
	<polygon clip-path="url(#SVGID_113_)" fill="url(#SVGID_114_)" points="-1538.976,-562.726 -1398.689,-426.336 -1534.569,-286.575 
		-1674.856,-422.964 	"/>
</g>
<g>
	<defs>
		<path id="SVGID_115_" d="M-1536.106-539.602h5.635c2.913,0,5.004,0.71,6.27,2.128c1.265,1.42,1.896,3.968,1.896,7.647v7.016
			c0,2.914-0.537,4.964-1.608,6.152c-1.075,1.19-2.724,1.783-4.945,1.783h-7.247V-539.602z M-1536.106-572.377h6.098
			c2.223,0,3.851,0.652,4.888,1.956c1.034,1.304,1.551,3.412,1.551,6.324v4.486c0,3.067-0.632,5.252-1.897,6.554
			c-1.266,1.305-3.162,1.956-5.693,1.956h-4.945V-572.377z M-1548.754-583.875v80.499h19.896c6.285,0,11.058-1.627,14.316-4.887
			c3.259-3.258,4.887-7.993,4.887-14.202v-6.901c0-9.045-3.144-14.642-9.428-16.789v-0.23c2.759-1.151,4.811-3.028,6.151-5.636
			c1.34-2.605,2.014-5.979,2.014-10.119v-3.22c0-6.286-1.496-10.944-4.486-13.973c-2.989-3.027-7.744-4.542-14.26-4.542H-1548.754z"
			/>
	</defs>
	<clipPath id="SVGID_116_">
		<use xlink:href="#SVGID_115_"  overflow="visible"/>
	</clipPath>
	
		<linearGradient id="SVGID_117_" gradientUnits="userSpaceOnUse" x1="-1084.7959" y1="3288.2759" x2="-1083.7959" y2="3288.2759" gradientTransform="matrix(258.3246 221.6828 221.6828 -258.3246 -450311.375 1089331)">
		<stop  offset="0" style="stop-color:#FFFFFF"/>
		<stop  offset="8.073430e-008" style="stop-color:#FFFFFF"/>
		<stop  offset="1" style="stop-color:#898B8D"/>
	</linearGradient>
	<polygon clip-path="url(#SVGID_116_)" fill="url(#SVGID_117_)" points="-1532.172,-603.199 -1469.873,-549.736 -1526.238,-484.054 
		-1588.538,-537.517 	"/>
</g>
<g>
	<defs>
		<polygon id="SVGID_118_" points="-1502.294,-583.875 -1502.294,-503.377 -1467.794,-503.377 -1467.794,-514.875 
			-1489.647,-514.875 -1489.647,-539.602 -1472.281,-539.602 -1472.281,-551.101 -1489.647,-551.101 -1489.647,-572.377 
			-1467.794,-572.377 -1467.794,-583.875 		"/>
	</defs>
	<clipPath id="SVGID_119_">
		<use xlink:href="#SVGID_118_"  overflow="visible"/>
	</clipPath>
	
		<linearGradient id="SVGID_120_" gradientUnits="userSpaceOnUse" x1="-1084.7959" y1="3288.2651" x2="-1083.7959" y2="3288.2651" gradientTransform="matrix(258.3246 221.6828 221.6828 -258.3246 -450290.125 1089306.375)">
		<stop  offset="0" style="stop-color:#FFFFFF"/>
		<stop  offset="8.073430e-008" style="stop-color:#FFFFFF"/>
		<stop  offset="1" style="stop-color:#898B8D"/>
	</linearGradient>
	<polygon clip-path="url(#SVGID_119_)" fill="url(#SVGID_120_)" points="-1487.664,-600.926 -1428.012,-549.735 -1482.426,-486.327 
		-1542.078,-537.517 	"/>
</g>
<g>
	<defs>
		<polygon id="SVGID_121_" points="-1463.885,-583.875 -1463.885,-572.377 -1450.662,-572.377 -1450.662,-503.377 
			-1438.01,-503.377 -1438.01,-572.377 -1424.787,-572.377 -1424.787,-583.875 		"/>
	</defs>
	<clipPath id="SVGID_122_">
		<use xlink:href="#SVGID_121_"  overflow="visible"/>
	</clipPath>
	
		<linearGradient id="SVGID_123_" gradientUnits="userSpaceOnUse" x1="-1084.7959" y1="3288.2534" x2="-1083.7959" y2="3288.2534" gradientTransform="matrix(258.3246 221.6828 221.6828 -258.3246 -450270.125 1089283)">
		<stop  offset="0" style="stop-color:#FFFFFF"/>
		<stop  offset="8.073430e-008" style="stop-color:#FFFFFF"/>
		<stop  offset="1" style="stop-color:#898B8D"/>
	</linearGradient>
	<polygon clip-path="url(#SVGID_122_)" fill="url(#SVGID_123_)" points="-1447.303,-603.199 -1385.004,-549.736 -1441.37,-484.054 
		-1503.668,-537.517 	"/>
</g>
<g>
	<defs>
		<path id="SVGID_124_" d="M-1406.27-569.846h0.229l5.635,39.79h-11.384L-1406.27-569.846z M-1414.204-583.875l-13.112,80.499
			h11.731l2.3-15.754h14.375v-0.23l2.3,15.984h12.649l-13.108-80.499H-1414.204z"/>
	</defs>
	<clipPath id="SVGID_125_">
		<use xlink:href="#SVGID_124_"  overflow="visible"/>
	</clipPath>
	
		<linearGradient id="SVGID_126_" gradientUnits="userSpaceOnUse" x1="-1084.7959" y1="3288.2778" x2="-1083.7959" y2="3288.2778" gradientTransform="matrix(258.3246 221.6828 221.6828 -258.3246 -450259.375 1089270.375)">
		<stop  offset="0" style="stop-color:#FFFFFF"/>
		<stop  offset="8.073430e-008" style="stop-color:#FFFFFF"/>
		<stop  offset="1" style="stop-color:#898B8D"/>
	</linearGradient>
	<polygon clip-path="url(#SVGID_125_)" fill="url(#SVGID_126_)" points="-1408.929,-605.302 -1344.178,-549.735 -1402.348,-481.951 
		-1467.099,-537.517 	"/>
</g>
<g>
	<defs>
		<rect id="SVGID_127_" x="-1075.018" y="-247.527" width="3094.319" height="2664.382"/>
	</defs>
	<clipPath id="SVGID_128_">
		<use xlink:href="#SVGID_127_"  overflow="visible"/>
	</clipPath>
	
		<linearGradient id="SVGID_129_" gradientUnits="userSpaceOnUse" x1="-1075.0171" y1="3291.6509" x2="-1074.0171" y2="3291.6509" gradientTransform="matrix(622.112 0 0 -622.112 668097.125 2047972.125)">
		<stop  offset="0" style="stop-color:#009676"/>
		<stop  offset="1" style="stop-color:#0D5042"/>
		<stop  offset="1" style="stop-color:#FFF2E9"/>
	</linearGradient>
	<path clip-path="url(#SVGID_128_)" fill="url(#SVGID_129_)" d="M-135.669,269.719L-135.669,269.719h-475.382
		c-40.242,0-72.865-32.623-72.865-72.865c0-40.243,32.623-72.866,72.865-72.866h475.382c40.242,0,72.865,32.624,72.865,72.866
		C-62.805,237.097-95.428,269.719-135.669,269.719L-135.669,269.719L-135.669,269.719c40.242,0,72.865-32.623,72.865-72.865
		c0-40.243-32.623-72.866-72.865-72.866h-475.382c-40.242,0-72.865,32.624-72.865,72.866c0,40.243,32.623,72.865,72.865,72.865
		H-135.669L-135.669,269.719z"/>
</g>
<g>
	<defs>
		<path id="SVGID_130_" d="M-557.549,198.607h6.637c6.826,0,9.385,2.749,9.385,9.955v5.688c0,6.352-2.465,8.912-7.869,8.912h-8.153
			V198.607z M-557.549,170.261h7.206c5.592,0,7.774,2.656,7.774,9.101v3.413c0,6.447-2.75,9.102-8.723,9.102h-6.257V170.261z
			 M-564.943,163.531v66.362h15.547c10.144,0,15.264-5.119,15.264-15.453v-5.689c0-7.678-2.844-12.324-8.437-13.936v-0.189
			c4.929-1.802,7.393-6.163,7.393-13.273v-2.748c0-10.334-4.454-15.074-14.978-15.074H-564.943z"/>
	</defs>
	<clipPath id="SVGID_131_">
		<use xlink:href="#SVGID_130_"  overflow="visible"/>
	</clipPath>
	
		<linearGradient id="SVGID_132_" gradientUnits="userSpaceOnUse" x1="-1076.7949" y1="3292.7329" x2="-1075.7971" y2="3292.7329" gradientTransform="matrix(232.7833 166.9967 166.9967 -232.7833 -299803.1563 946484.25)">
		<stop  offset="0" style="stop-color:#009776"/>
		<stop  offset="1" style="stop-color:#0C5041"/>
		<stop  offset="1" style="stop-color:#FFF3E9"/>
	</linearGradient>
	<polygon clip-path="url(#SVGID_131_)" fill="url(#SVGID_132_)" points="-554.474,148.938 -502.701,186.08 -544.601,244.486 
		-596.375,207.345 	"/>
</g>
<g>
	<defs>
		<polygon id="SVGID_133_" points="-526.835,163.531 -526.835,229.893 -499.627,229.893 -499.627,223.162 -519.441,223.162 
			-519.441,198.607 -503.325,198.607 -503.325,191.877 -519.441,191.877 -519.441,170.261 -499.627,170.261 -499.627,163.531 		"/>
	</defs>
	<clipPath id="SVGID_134_">
		<use xlink:href="#SVGID_133_"  overflow="visible"/>
	</clipPath>
	
		<linearGradient id="SVGID_135_" gradientUnits="userSpaceOnUse" x1="-1076.7949" y1="3292.7231" x2="-1075.7949" y2="3292.7231" gradientTransform="matrix(232.7833 166.9967 166.9967 -232.7833 -299789.1563 946464.75)">
		<stop  offset="0" style="stop-color:#009776"/>
		<stop  offset="1" style="stop-color:#0C5041"/>
		<stop  offset="1" style="stop-color:#FFF3E9"/>
	</linearGradient>
	<polygon clip-path="url(#SVGID_134_)" fill="url(#SVGID_135_)" points="-517.59,150.645 -468.196,186.08 -508.872,242.78 
		-558.267,207.344 	"/>
</g>
<g>
	<defs>
		<polygon id="SVGID_136_" points="-496.027,163.531 -496.027,170.261 -484.272,170.261 -484.272,229.893 -476.877,229.893 
			-476.877,170.261 -465.121,170.261 -465.121,163.531 		"/>
	</defs>
	<clipPath id="SVGID_137_">
		<use xlink:href="#SVGID_136_"  overflow="visible"/>
	</clipPath>
	
		<linearGradient id="SVGID_138_" gradientUnits="userSpaceOnUse" x1="-1076.7949" y1="3292.7114" x2="-1075.7949" y2="3292.7114" gradientTransform="matrix(232.7833 166.9967 166.9967 -232.7833 -299776.1563 946446.5)">
		<stop  offset="0" style="stop-color:#009776"/>
		<stop  offset="1" style="stop-color:#0C5041"/>
		<stop  offset="1" style="stop-color:#FFF3E9"/>
	</linearGradient>
	<polygon clip-path="url(#SVGID_137_)" fill="url(#SVGID_138_)" points="-485.526,148.893 -433.69,186.08 -475.623,244.532 
		-527.458,207.345 	"/>
</g>
<g>
	<defs>
		<path id="SVGID_139_" d="M-450.143,171.968l6.636,37.353h-13.082L-450.143,171.968z M-454.788,163.531l-12.325,66.362h6.921
			l2.465-14.126h15.359l2.464,14.126h7.49l-12.419-66.362H-454.788z"/>
	</defs>
	<clipPath id="SVGID_140_">
		<use xlink:href="#SVGID_139_"  overflow="visible"/>
	</clipPath>
	
		<linearGradient id="SVGID_141_" gradientUnits="userSpaceOnUse" x1="-1076.7949" y1="3292.7368" x2="-1075.7949" y2="3292.7368" gradientTransform="matrix(232.7833 166.9967 166.9967 -232.7833 -299769.6563 946437.625)">
		<stop  offset="0" style="stop-color:#009776"/>
		<stop  offset="1" style="stop-color:#0C5041"/>
		<stop  offset="1" style="stop-color:#FFF3E9"/>
	</linearGradient>
	<polygon clip-path="url(#SVGID_140_)" fill="url(#SVGID_141_)" points="-455.323,147.097 -400.983,186.08 -444.204,246.328 
		-498.544,207.344 	"/>
</g>
<g>
	<defs>
		<polygon id="SVGID_142_" points="-387.008,163.531 -396.583,219.844 -406.158,163.531 -413.647,163.531 -401.797,229.893 
			-391.937,229.893 -380.182,163.531 		"/>
	</defs>
	<clipPath id="SVGID_143_">
		<use xlink:href="#SVGID_142_"  overflow="visible"/>
	</clipPath>
	
		<linearGradient id="SVGID_144_" gradientUnits="userSpaceOnUse" x1="-1076.7954" y1="3292.7124" x2="-1075.7954" y2="3292.7124" gradientTransform="matrix(232.7833 166.9967 166.9967 -232.7833 -299747.6563 946406.875)">
		<stop  offset="0" style="stop-color:#009776"/>
		<stop  offset="1" style="stop-color:#0C5041"/>
		<stop  offset="1" style="stop-color:#FFF3E9"/>
	</linearGradient>
	<polygon clip-path="url(#SVGID_143_)" fill="url(#SVGID_144_)" points="-402.276,147.681 -348.751,186.08 -391.553,245.744 
		-445.079,207.344 	"/>
</g>
<g>
	<defs>
		<polygon id="SVGID_145_" points="-374.022,163.531 -374.022,229.893 -346.815,229.893 -346.815,223.162 -366.628,223.162 
			-366.628,198.607 -350.512,198.607 -350.512,191.877 -366.628,191.877 -366.628,170.261 -346.815,170.261 -346.815,163.531 		"/>
	</defs>
	<clipPath id="SVGID_146_">
		<use xlink:href="#SVGID_145_"  overflow="visible"/>
	</clipPath>
	
		<linearGradient id="SVGID_147_" gradientUnits="userSpaceOnUse" x1="-1076.7935" y1="3292.7241" x2="-1075.7958" y2="3292.7241" gradientTransform="matrix(232.7833 166.9967 166.9967 -232.7833 -299737.1563 946392.375)">
		<stop  offset="0" style="stop-color:#009776"/>
		<stop  offset="1" style="stop-color:#0C5041"/>
		<stop  offset="1" style="stop-color:#FFF3E9"/>
	</linearGradient>
	<polygon clip-path="url(#SVGID_146_)" fill="url(#SVGID_147_)" points="-364.778,150.645 -315.384,186.08 -356.06,242.779 
		-405.454,207.344 	"/>
</g>
<g>
	<defs>
		<path id="SVGID_148_" d="M-332.882,170.261h6.92c5.595,0,7.775,2.656,7.775,9.101v4.741c0,6.446-2.749,9.101-8.721,9.101h-5.974
			V170.261z M-340.276,163.531v66.362h7.394v-29.958h5.974c6.351,0,8.816,2.559,8.816,9.669v12.23c0,3.509,0.285,6.163,0.853,8.059
			h7.489c-0.663-1.802-0.948-4.456-0.948-8.059v-11.85c0-7.869-2.559-12.514-7.773-13.841v-0.096
			c5.119-1.61,7.679-6.067,7.679-13.366v-4.076c0-10.334-4.456-15.074-14.98-15.074H-340.276z"/>
	</defs>
	<clipPath id="SVGID_149_">
		<use xlink:href="#SVGID_148_"  overflow="visible"/>
	</clipPath>
	
		<linearGradient id="SVGID_150_" gradientUnits="userSpaceOnUse" x1="-1076.7935" y1="3292.7329" x2="-1075.7957" y2="3292.7329" gradientTransform="matrix(232.7833 166.9967 166.9967 -232.7833 -299726.9063 946377.875)">
		<stop  offset="0" style="stop-color:#009776"/>
		<stop  offset="1" style="stop-color:#0C5041"/>
		<stop  offset="1" style="stop-color:#FFF3E9"/>
	</linearGradient>
	<polygon clip-path="url(#SVGID_149_)" fill="url(#SVGID_150_)" points="-329.904,149.073 -278.319,186.08 -320.123,244.351 
		-371.708,207.344 	"/>
</g>
<g>
	<defs>
		<path id="SVGID_151_" d="M-304.159,178.415c0,3.791,0.853,7.205,2.654,10.238c1.801,3.034,5.025,6.447,9.575,10.144
			c3.887,3.224,6.541,5.973,7.964,8.343c1.516,2.37,2.275,5.024,2.275,8.059c0,5.971-2.56,8.91-7.774,8.91
			c-5.12,0-7.679-2.939-7.679-8.816v-4.266h-7.015v3.696c0,10.334,5.214,16.118,14.789,16.118c9.575,0,15.074-5.878,15.074-16.212
			c0-4.076-0.853-7.585-2.654-10.618c-1.708-3.128-4.836-6.541-9.386-10.333c-3.982-3.224-6.731-5.973-8.249-8.248
			c-1.515-2.276-2.274-4.74-2.274-7.49c0-5.782,2.56-8.627,7.584-8.627c5.024,0,7.584,2.94,7.584,8.817v3.129h7.015v-2.654
			c0-10.24-5.119-16.022-14.599-16.022S-304.159,168.46-304.159,178.415"/>
	</defs>
	<clipPath id="SVGID_152_">
		<use xlink:href="#SVGID_151_"  overflow="visible"/>
	</clipPath>
	
		<linearGradient id="SVGID_153_" gradientUnits="userSpaceOnUse" x1="-1076.7954" y1="3292.7241" x2="-1075.7954" y2="3292.7241" gradientTransform="matrix(232.7833 166.9967 166.9967 -232.7833 -299713.1563 946358.75)">
		<stop  offset="0" style="stop-color:#009776"/>
		<stop  offset="1" style="stop-color:#0C5041"/>
		<stop  offset="1" style="stop-color:#FFF3E9"/>
	</linearGradient>
	<polygon clip-path="url(#SVGID_152_)" fill="url(#SVGID_153_)" points="-294.012,148.439 -241.967,185.776 -284.443,244.985 
		-336.488,207.648 	"/>
</g>
<g>
	<defs>
		<rect id="SVGID_154_" x="-267.283" y="163.531" width="7.395" height="66.362"/>
	</defs>
	<clipPath id="SVGID_155_">
		<use xlink:href="#SVGID_154_"  overflow="visible"/>
	</clipPath>
	
		<linearGradient id="SVGID_156_" gradientUnits="userSpaceOnUse" x1="-1076.7949" y1="3292.7231" x2="-1075.7949" y2="3292.7231" gradientTransform="matrix(232.7833 166.9967 166.9967 -232.7833 -299704.4063 946346.5)">
		<stop  offset="0" style="stop-color:#009776"/>
		<stop  offset="1" style="stop-color:#0C5041"/>
		<stop  offset="1" style="stop-color:#FFF3E9"/>
	</linearGradient>
	<polygon clip-path="url(#SVGID_155_)" fill="url(#SVGID_156_)" points="-264.771,160.029 -228.457,186.08 -262.401,233.396 
		-298.714,207.345 	"/>
</g>
<g>
	<defs>
		<path id="SVGID_157_" d="M-244.248,214.913v-36.498c0-6.068,2.56-9.102,7.774-9.102s7.868,3.034,7.868,9.102v36.498
			c0,6.162-2.654,9.196-7.868,9.196S-244.248,221.075-244.248,214.913 M-251.643,178.888v35.552
			c0,10.523,5.404,16.401,15.169,16.401c9.859,0,15.263-5.878,15.263-16.401v-35.552c0-10.523-5.404-16.305-15.263-16.305
			C-246.239,162.583-251.643,168.365-251.643,178.888"/>
	</defs>
	<clipPath id="SVGID_158_">
		<use xlink:href="#SVGID_157_"  overflow="visible"/>
	</clipPath>
	
		<linearGradient id="SVGID_159_" gradientUnits="userSpaceOnUse" x1="-1076.7974" y1="3292.7231" x2="-1075.7952" y2="3292.7231" gradientTransform="matrix(232.7833 166.9967 166.9967 -232.7833 -299695.1563 946333.625)">
		<stop  offset="0" style="stop-color:#009776"/>
		<stop  offset="1" style="stop-color:#0C5041"/>
		<stop  offset="1" style="stop-color:#FFF3E9"/>
	</linearGradient>
	<polygon clip-path="url(#SVGID_158_)" fill="url(#SVGID_159_)" points="-241.303,148.169 -188.882,185.776 -231.551,245.255 
		-283.973,207.648 	"/>
</g>
<g>
	<defs>
		<polygon id="SVGID_160_" points="-188.507,163.531 -188.507,210.932 -203.485,163.531 -212.966,163.531 -212.966,229.893 
			-206.234,229.893 -206.234,175.949 -189.455,229.893 -181.775,229.893 -181.775,163.531 		"/>
	</defs>
	<clipPath id="SVGID_161_">
		<use xlink:href="#SVGID_160_"  overflow="visible"/>
	</clipPath>
	
		<linearGradient id="SVGID_162_" gradientUnits="userSpaceOnUse" x1="-1076.7979" y1="3292.7231" x2="-1075.7957" y2="3292.7231" gradientTransform="matrix(232.7833 166.9967 166.9967 -232.7833 -299681.9063 946315.125)">
		<stop  offset="0" style="stop-color:#009776"/>
		<stop  offset="1" style="stop-color:#0C5041"/>
		<stop  offset="1" style="stop-color:#FFF3E9"/>
	</linearGradient>
	<polygon clip-path="url(#SVGID_161_)" fill="url(#SVGID_162_)" points="-202.368,148.758 -150.344,186.08 -192.374,244.667 
		-244.397,207.344 	"/>
</g>
<g>
	<defs>
		<rect id="SVGID_163_" x="-366.55" y="-438.588" width="3094.319" height="2664.382"/>
	</defs>
	<clipPath id="SVGID_164_">
		<use xlink:href="#SVGID_163_"  overflow="visible"/>
	</clipPath>
	
		<linearGradient id="SVGID_165_" gradientUnits="userSpaceOnUse" x1="-1073.8784" y1="3291.9575" x2="-1072.8784" y2="3291.9575" gradientTransform="matrix(622.112 0 0 -622.112 668096.375 2048174.625)">
		<stop  offset="0" style="stop-color:#146BCA"/>
		<stop  offset="1" style="stop-color:#273E7C"/>
	</linearGradient>
	<path clip-path="url(#SVGID_164_)" fill="url(#SVGID_165_)" d="M571.921,281.039L571.921,281.039H96.54
		c-40.242,0-72.865-32.623-72.865-72.865c0-40.243,32.623-72.866,72.865-72.866h475.382c40.242,0,72.865,32.623,72.865,72.866
		C644.787,248.416,612.164,281.039,571.921,281.039L571.921,281.039L571.921,281.039c40.242,0,72.865-32.623,72.865-72.865
		c0-40.243-32.623-72.866-72.865-72.866H96.54c-40.242,0-72.865,32.623-72.865,72.866c0,40.242,32.623,72.865,72.865,72.865H571.921
		L571.921,281.039z"/>
</g>
<g>
	<defs>
		<path id="SVGID_166_" d="M73.905,208.339c0-6.658,3.435-11.095,9.019-11.095h7.228v10.379c0,6.083-3.149,10.95-8.374,10.95
			C76.983,218.574,73.905,213.85,73.905,208.339 M80.776,191.019c-9.162,0-14.816,6.656-14.816,17.392
			c0,9.949,5.654,16.82,14.816,16.82c3.579,0,6.656-1.789,9.161-5.369c1.646,6.37,6.729,10.594,12.955,10.594h8.661v-8.16h-5.082
			c-5.367,0-8.016-3.006-8.016-8.589v-22.688H80.776z M76.41,185.22h7.873v-8.017H76.41V185.22z M89.937,185.22h7.874v-8.017h-7.874
			V185.22z"/>
	</defs>
	<clipPath id="SVGID_167_">
		<use xlink:href="#SVGID_166_"  overflow="visible"/>
	</clipPath>
	
		<linearGradient id="SVGID_168_" gradientUnits="userSpaceOnUse" x1="-1074.519" y1="3292.9185" x2="-1073.519" y2="3292.9185" gradientTransform="matrix(431.9991 184.1857 184.1857 -431.9991 -142256.9531 1620641)">
		<stop  offset="0" style="stop-color:#146BCA"/>
		<stop  offset="1" style="stop-color:#273E7C"/>
	</linearGradient>
	<polygon clip-path="url(#SVGID_167_)" fill="url(#SVGID_168_)" points="72.973,160.754 130.765,185.395 104.54,246.904 
		46.748,222.264 	"/>
</g>
<g>
	<defs>
		<path id="SVGID_169_" d="M108.979,246.13h7.874v-8.016h-7.874V246.13z M122.506,246.13h7.873v-8.016h-7.873V246.13z
			 M122.721,197.96v16.463c0,2.504-0.286,4.365-0.858,5.438c-0.86,1.647-2.506,2.434-4.868,2.434h-7.658v8.16h32.996v-8.16h-13.456
			c1.216-1.359,1.79-4.079,1.79-8.303V197.96H122.721z"/>
	</defs>
	<clipPath id="SVGID_170_">
		<use xlink:href="#SVGID_169_"  overflow="visible"/>
	</clipPath>
	
		<linearGradient id="SVGID_171_" gradientUnits="userSpaceOnUse" x1="-1074.5195" y1="3292.9282" x2="-1073.5195" y2="3292.9282" gradientTransform="matrix(431.9991 184.1857 184.1857 -431.9991 -142259.4531 1620647)">
		<stop  offset="0" style="stop-color:#146BCA"/>
		<stop  offset="1" style="stop-color:#273E7C"/>
	</linearGradient>
	<polygon clip-path="url(#SVGID_170_)" fill="url(#SVGID_171_)" points="114.109,185.927 159.711,205.37 137.202,258.164 
		91.6,238.721 	"/>
</g>
<g>
	<defs>
		<path id="SVGID_172_" d="M153.5,246.203h7.873v-8.017H153.5V246.203z M153.5,197.96v16.463c0,2.504-0.288,4.365-0.86,5.438
			c-0.859,1.647-2.433,2.434-4.795,2.434h-7.444v8.16h33.067v-8.16h-13.742c1.145-1.359,1.718-4.079,1.718-8.303V197.96H153.5z"/>
	</defs>
	<clipPath id="SVGID_173_">
		<use xlink:href="#SVGID_172_"  overflow="visible"/>
	</clipPath>
	
		<linearGradient id="SVGID_174_" gradientUnits="userSpaceOnUse" x1="-1074.5195" y1="3292.9224" x2="-1073.5195" y2="3292.9224" gradientTransform="matrix(431.9991 184.1857 184.1857 -431.9991 -142253.4531 1620633.5)">
		<stop  offset="0" style="stop-color:#146BCA"/>
		<stop  offset="1" style="stop-color:#273E7C"/>
	</linearGradient>
	<polygon clip-path="url(#SVGID_173_)" fill="url(#SVGID_174_)" points="145.488,186.031 190.873,205.381 168.382,258.132 
		122.997,238.782 	"/>
</g>
<g>
	<defs>
		<path id="SVGID_175_" d="M170.537,246.13h7.873v-8.016h-7.873V246.13z M184.065,246.13h7.873v-8.016h-7.873V246.13z
			 M184.136,197.96v16.82c0,2.577-0.215,4.295-0.573,5.154c-0.786,1.574-2.433,2.361-5.081,2.361h-6.729v8.16h8.447
			c7.944,0,11.952-4.295,11.952-12.955v-19.54H184.136z"/>
	</defs>
	<clipPath id="SVGID_176_">
		<use xlink:href="#SVGID_175_"  overflow="visible"/>
	</clipPath>
	
		<linearGradient id="SVGID_177_" gradientUnits="userSpaceOnUse" x1="-1074.5176" y1="3292.9243" x2="-1073.5234" y2="3292.9243" gradientTransform="matrix(431.9991 184.1857 184.1857 -431.9991 -142249.9531 1620625)">
		<stop  offset="0" style="stop-color:#146BCA"/>
		<stop  offset="1" style="stop-color:#273E7C"/>
	</linearGradient>
	<polygon clip-path="url(#SVGID_176_)" fill="url(#SVGID_177_)" points="173.861,190.163 209.53,205.37 188.827,253.929 
		153.158,238.721 	"/>
</g>
<g>
	<defs>
		<path id="SVGID_178_" d="M207.399,197.96v27.341c0,6.871-3.292,10.164-9.949,10.164v6.871c9.735,0,16.248-4.223,17.464-11.881
			h12.812v-8.16h-12.311V197.96H207.399z"/>
	</defs>
	<clipPath id="SVGID_179_">
		<use xlink:href="#SVGID_178_"  overflow="visible"/>
	</clipPath>
	
		<linearGradient id="SVGID_180_" gradientUnits="userSpaceOnUse" x1="-1074.5176" y1="3292.9282" x2="-1073.5226" y2="3292.9282" gradientTransform="matrix(431.9991 184.1857 184.1857 -431.9991 -142245.4531 1620614.25)">
		<stop  offset="0" style="stop-color:#146BCA"/>
		<stop  offset="1" style="stop-color:#273E7C"/>
	</linearGradient>
	<polygon clip-path="url(#SVGID_179_)" fill="url(#SVGID_180_)" points="202.107,187.038 243.735,204.786 223.069,253.259 
		181.44,235.51 	"/>
</g>
<g>
	<defs>
		<path id="SVGID_181_" d="M247.053,246.13h7.874v-8.016h-7.874V246.13z M241.685,199.964c-2.935,1.289-5.439,3.006-7.659,5.082
			c1.79,2.72,3.078,4.796,3.866,6.299c1.718-1.933,3.864-3.436,6.441-4.509c2.219-0.931,4.223-1.36,6.013-1.36
			c5.224,0,9.376,1.789,12.31,5.439c2.506,3.149,3.723,6.943,3.723,11.38h-41.371v8.16h57.474v-8.16h-7.587
			c-0.643-9.948-4.223-16.891-10.736-20.899c-3.721-2.291-8.087-3.436-13.026-3.436C247.984,197.96,244.833,198.605,241.685,199.964
			"/>
	</defs>
	<clipPath id="SVGID_182_">
		<use xlink:href="#SVGID_181_"  overflow="visible"/>
	</clipPath>
	
		<linearGradient id="SVGID_183_" gradientUnits="userSpaceOnUse" x1="-1074.5195" y1="3292.9243" x2="-1073.5195" y2="3292.9243" gradientTransform="matrix(431.9991 184.1857 184.1857 -431.9991 -142238.9531 1620599.5)">
		<stop  offset="0" style="stop-color:#146BCA"/>
		<stop  offset="1" style="stop-color:#273E7C"/>
	</linearGradient>
	<polygon clip-path="url(#SVGID_182_)" fill="url(#SVGID_183_)" points="233.848,177.226 299.86,205.37 273.641,266.866 
		207.629,238.721 	"/>
</g>
<g>
	<defs>
		<path id="SVGID_184_" d="M293.509,197.96v16.463c0,2.504-0.287,4.365-0.859,5.438c-0.859,1.647-2.434,2.434-4.796,2.434h-7.443
			v8.16h33.066v-8.16h-13.742c1.145-1.359,1.718-4.079,1.718-8.303V197.96H293.509z M279.981,191.303h7.873v-7.945h-7.873V191.303z
			 M293.58,191.303h7.873v-7.945h-7.873V191.303z"/>
	</defs>
	<clipPath id="SVGID_185_">
		<use xlink:href="#SVGID_184_"  overflow="visible"/>
	</clipPath>
	
		<linearGradient id="SVGID_186_" gradientUnits="userSpaceOnUse" x1="-1074.5215" y1="3292.9282" x2="-1073.5168" y2="3292.9282" gradientTransform="matrix(431.9991 184.1857 184.1857 -431.9991 -142227.4531 1620572.5)">
		<stop  offset="0" style="stop-color:#146BCA"/>
		<stop  offset="1" style="stop-color:#273E7C"/>
	</linearGradient>
	<polygon clip-path="url(#SVGID_185_)" fill="url(#SVGID_186_)" points="285.133,171.274 330.468,190.603 308.324,242.54 
		262.989,223.211 	"/>
</g>
<g>
	<defs>
		<path id="SVGID_187_" d="M323.572,184.291v30.49c0,2.577-0.215,4.295-0.573,5.154c-0.787,1.574-2.433,2.361-5.081,2.361h-6.8v8.16
			h8.445c8.017,0,12.025-4.295,12.025-12.955v-33.21H323.572z"/>
	</defs>
	<clipPath id="SVGID_188_">
		<use xlink:href="#SVGID_187_"  overflow="visible"/>
	</clipPath>
	
		<linearGradient id="SVGID_189_" gradientUnits="userSpaceOnUse" x1="-1074.519" y1="3292.9224" x2="-1073.519" y2="3292.9224" gradientTransform="matrix(431.9991 184.1857 184.1857 -431.9991 -142222.9531 1620562)">
		<stop  offset="0" style="stop-color:#146BCA"/>
		<stop  offset="1" style="stop-color:#273E7C"/>
	</linearGradient>
	<polygon clip-path="url(#SVGID_188_)" fill="url(#SVGID_189_)" points="314.266,176.906 348.243,191.392 328.439,237.84 
		294.462,223.354 	"/>
</g>
<g>
	<defs>
		<rect id="SVGID_190_" x="338.962" y="184.217" width="7.945" height="46.238"/>
	</defs>
	<clipPath id="SVGID_191_">
		<use xlink:href="#SVGID_190_"  overflow="visible"/>
	</clipPath>
	
		<linearGradient id="SVGID_192_" gradientUnits="userSpaceOnUse" x1="-1074.5195" y1="3292.9233" x2="-1073.5195" y2="3292.9233" gradientTransform="matrix(431.9991 184.1857 184.1857 -431.9991 -142219.9531 1620554.25)">
		<stop  offset="0" style="stop-color:#146BCA"/>
		<stop  offset="1" style="stop-color:#273E7C"/>
	</linearGradient>
	<polygon clip-path="url(#SVGID_191_)" fill="url(#SVGID_192_)" points="340.184,181.351 363.588,191.33 345.685,233.322 
		322.28,223.343 	"/>
</g>
<g>
	<defs>
		<path id="SVGID_193_" d="M376.611,208.339c0-6.658,3.436-11.095,9.019-11.095h7.229v10.379c0,6.083-3.15,10.95-8.374,10.95
			C379.689,218.574,376.611,213.85,376.611,208.339 M383.482,191.019c-9.161,0-14.816,6.656-14.816,17.392
			c0,9.949,5.655,16.82,14.816,16.82c3.579,0,6.657-1.789,9.162-5.369c1.646,6.37,6.728,10.594,12.955,10.594h8.661v-8.16h-5.082
			c-5.369,0-8.016-3.006-8.016-8.589v-22.688H383.482z M379.117,185.22h7.872v-8.017h-7.872V185.22z M392.644,185.22h7.873v-8.017
			h-7.873V185.22z"/>
	</defs>
	<clipPath id="SVGID_194_">
		<use xlink:href="#SVGID_193_"  overflow="visible"/>
	</clipPath>
	
		<linearGradient id="SVGID_195_" gradientUnits="userSpaceOnUse" x1="-1074.5195" y1="3292.9185" x2="-1073.5195" y2="3292.9185" gradientTransform="matrix(431.9991 184.1857 184.1857 -431.9991 -142210.4531 1620531.75)">
		<stop  offset="0" style="stop-color:#146BCA"/>
		<stop  offset="1" style="stop-color:#273E7C"/>
	</linearGradient>
	<polygon clip-path="url(#SVGID_194_)" fill="url(#SVGID_195_)" points="375.679,160.754 433.472,185.395 407.247,246.905 
		349.454,222.264 	"/>
</g>
<g>
	<defs>
		<path id="SVGID_196_" d="M428.863,199.964c-2.934,1.289-5.439,3.006-7.658,5.082c1.79,2.72,3.078,4.796,3.865,6.299
			c1.718-1.933,3.865-3.436,6.441-4.509c2.22-0.931,4.223-1.36,6.013-1.36c5.225,0,9.377,1.789,12.311,5.439
			c2.505,3.149,3.722,6.943,3.722,11.38h-41.37v8.16h57.474v-8.16h-7.587c-0.644-9.948-4.223-16.891-10.736-20.899
			c-3.722-2.291-8.088-3.436-13.026-3.436C435.162,197.96,432.013,198.605,428.863,199.964 M434.231,191.232h7.873v-7.944h-7.873
			V191.232z"/>
	</defs>
	<clipPath id="SVGID_197_">
		<use xlink:href="#SVGID_196_"  overflow="visible"/>
	</clipPath>
	
		<linearGradient id="SVGID_198_" gradientUnits="userSpaceOnUse" x1="-1074.5195" y1="3292.9341" x2="-1073.5195" y2="3292.9341" gradientTransform="matrix(431.9991 184.1857 184.1857 -431.9991 -142206.4531 1620523.5)">
		<stop  offset="0" style="stop-color:#146BCA"/>
		<stop  offset="1" style="stop-color:#273E7C"/>
	</linearGradient>
	<polygon clip-path="url(#SVGID_197_)" fill="url(#SVGID_198_)" points="421.027,162.553 486.677,190.543 460.82,251.191 
		395.17,223.2 	"/>
</g>
<g>
	<defs>
		<path id="SVGID_199_" d="M521.198,197.96v16.463c0,5.224-2.004,7.872-6.084,7.872h-7.802c1.074-1.144,1.646-4.079,1.646-8.731
			V197.96h-8.088v16.391c0,5.296-2.004,7.944-6.084,7.944h-7.443v-0.429c0.859-1.36,1.289-4.08,1.289-8.302V197.96h-8.089v15.889
			c0,5.654-2.005,8.446-6.085,8.446h-7.3v8.16h72.577v-8.16h-12.239c1.216-2.577,1.789-5.511,1.789-8.875v-15.46H521.198z"/>
	</defs>
	<clipPath id="SVGID_200_">
		<use xlink:href="#SVGID_199_"  overflow="visible"/>
	</clipPath>
	
		<linearGradient id="SVGID_201_" gradientUnits="userSpaceOnUse" x1="-1074.519" y1="3292.9282" x2="-1073.519" y2="3292.9282" gradientTransform="matrix(431.9991 184.1857 184.1857 -431.9991 -142198.4531 1620504)">
		<stop  offset="0" style="stop-color:#146BCA"/>
		<stop  offset="1" style="stop-color:#273E7C"/>
	</linearGradient>
	<polygon clip-path="url(#SVGID_200_)" fill="url(#SVGID_201_)" points="478.322,171.777 551.458,202.959 528.572,256.639 
		455.435,225.457 	"/>
</g>
<g>
	<defs>
		<path id="SVGID_202_" d="M550.548,197.96v16.463c0,2.504-0.287,4.365-0.859,5.438c-0.86,1.647-2.434,2.434-4.797,2.434h-7.442
			v8.16h33.065v-8.16h-13.741c1.145-1.359,1.718-4.079,1.718-8.303V197.96H550.548z M550.618,191.375h7.874v-7.945h-7.874V191.375z"
			/>
	</defs>
	<clipPath id="SVGID_203_">
		<use xlink:href="#SVGID_202_"  overflow="visible"/>
	</clipPath>
	
		<linearGradient id="SVGID_204_" gradientUnits="userSpaceOnUse" x1="-1074.5195" y1="3292.9272" x2="-1073.5195" y2="3292.9272" gradientTransform="matrix(431.9991 184.1857 184.1857 -431.9991 -142187.9531 1620479.75)">
		<stop  offset="0" style="stop-color:#146BCA"/>
		<stop  offset="1" style="stop-color:#273E7C"/>
	</linearGradient>
	<polygon clip-path="url(#SVGID_203_)" fill="url(#SVGID_204_)" points="542.536,171.501 587.481,190.664 565.429,242.385 
		520.484,223.222 	"/>
</g>
<g>
	<defs>
		<path id="SVGID_205_" d="M580.611,184.291v30.49c0,2.577-0.215,4.295-0.573,5.154c-0.787,1.574-2.433,2.361-5.082,2.361h-6.799
			v8.16h8.444c8.018,0,12.025-4.295,12.025-12.955v-33.21H580.611z"/>
	</defs>
	<clipPath id="SVGID_206_">
		<use xlink:href="#SVGID_205_"  overflow="visible"/>
	</clipPath>
	
		<linearGradient id="SVGID_207_" gradientUnits="userSpaceOnUse" x1="-1074.519" y1="3292.9233" x2="-1073.519" y2="3292.9233" gradientTransform="matrix(431.9991 184.1857 184.1857 -431.9991 -142183.4531 1620469.25)">
		<stop  offset="0" style="stop-color:#146BCA"/>
		<stop  offset="1" style="stop-color:#273E7C"/>
	</linearGradient>
	<polygon clip-path="url(#SVGID_206_)" fill="url(#SVGID_207_)" points="571.305,176.906 605.282,191.392 585.478,237.84 
		551.501,223.354 	"/>
</g>
<g>
	<defs>
		<rect id="SVGID_208_" x="596" y="184.217" width="7.944" height="46.238"/>
	</defs>
	<clipPath id="SVGID_209_">
		<use xlink:href="#SVGID_208_"  overflow="visible"/>
	</clipPath>
	
		<linearGradient id="SVGID_210_" gradientUnits="userSpaceOnUse" x1="-1074.5195" y1="3292.9243" x2="-1073.5195" y2="3292.9243" gradientTransform="matrix(431.9991 184.1857 184.1857 -431.9991 -142180.4531 1620461.5)">
		<stop  offset="0" style="stop-color:#146BCA"/>
		<stop  offset="1" style="stop-color:#273E7C"/>
	</linearGradient>
	<polygon clip-path="url(#SVGID_209_)" fill="url(#SVGID_210_)" points="597.222,181.352 620.626,191.33 602.722,233.322 
		579.319,223.343 	"/>
</g>
<g>
	<defs>
		<polygon id="SVGID_211_" points="-642.925,2444.5 -694.17,2725.378 -745.929,2444.5 -802.709,2444.5 -802.709,2796.234 
			-768.05,2796.234 -768.05,2502.787 -712.263,2796.234 -679.112,2796.234 -623.325,2502.787 -623.325,2796.234 -585.65,2796.234 
			-585.65,2444.5 		"/>
	</defs>
	<clipPath id="SVGID_212_">
		<use xlink:href="#SVGID_211_"  overflow="visible"/>
	</clipPath>
	
		<linearGradient id="SVGID_213_" gradientUnits="userSpaceOnUse" x1="-1075.0181" y1="3290.2466" x2="-1074.0181" y2="3290.2466" gradientTransform="matrix(-935.446 1019.2831 1019.2831 935.446 -4359230 -1980328)">
		<stop  offset="0" style="stop-color:#2F6BB3"/>
		<stop  offset="1" style="stop-color:#273E7C"/>
	</linearGradient>
	<polygon clip-path="url(#SVGID_212_)" fill="url(#SVGID_213_)" points="-410.429,2605.309 -684.887,2904.365 -977.93,2635.424 
		-703.472,2336.369 	"/>
</g>
<g>
	<defs>
		<path id="SVGID_214_" d="M-529.864,2616.344c0-29.649,12.062-44.221,36.682-44.221c25.136,0,37.694,14.571,37.694,44.221v28.142
			h-74.376V2616.344z M-568.053,2619.866v99.492c0,52.256,26.642,81.905,74.871,81.905c48.249,0,74.872-29.649,74.872-81.905v-4.026
			h-36.682v7.538c0,29.648-12.557,44.726-37.674,44.726c-24.62,0-37.198-15.077-37.198-44.726v-47.237h111.554v-55.767
			c0-52.266-26.623-81.409-74.872-81.409C-541.907,2538.457-568.053,2567.6-568.053,2619.866"/>
	</defs>
	<clipPath id="SVGID_215_">
		<use xlink:href="#SVGID_214_"  overflow="visible"/>
	</clipPath>
	
		<linearGradient id="SVGID_216_" gradientUnits="userSpaceOnUse" x1="-1075.0181" y1="3290.2466" x2="-1074.0181" y2="3290.2466" gradientTransform="matrix(-935.446 1019.2831 1019.2831 935.446 -4359096 -1980205)">
		<stop  offset="0" style="stop-color:#2F6BB3"/>
		<stop  offset="1" style="stop-color:#273E7C"/>
	</linearGradient>
	<polygon clip-path="url(#SVGID_215_)" fill="url(#SVGID_216_)" points="-287.389,2658.609 -486.771,2875.86 -698.974,2681.111 
		-499.592,2463.86 	"/>
</g>
<g>
	<defs>
		<path id="SVGID_217_" d="M-367.065,2724.882v-110.552c0-28.131,10.554-42.207,32.159-42.207c24.124,0,40.709,20.106,40.709,56.283
			v82.907c0,36.176-16.585,56.281-40.709,56.281C-356.511,2767.595-367.065,2753.521-367.065,2724.882 M-294.197,2444.5v124.112
			c-11.566-20.106-29.144-30.155-52.256-30.155c-39.201,0-58.802,24.124-58.802,72.859v116.583
			c0,48.733,19.601,73.364,58.802,73.364c26.624,0,45.709-13.064,56.779-39.202c0.496,16.586,2.004,28.142,4.008,34.173h34.678
			c-3.512-15.573-5.534-38.189-5.534-68.841V2444.5H-294.197z"/>
	</defs>
	<clipPath id="SVGID_218_">
		<use xlink:href="#SVGID_217_"  overflow="visible"/>
	</clipPath>
	
		<linearGradient id="SVGID_219_" gradientUnits="userSpaceOnUse" x1="-1075.0181" y1="3290.2183" x2="-1074.0181" y2="3290.2183" gradientTransform="matrix(-935.446 1019.2831 1019.2831 935.446 -4359001 -1980118)">
		<stop  offset="0" style="stop-color:#2F6BB3"/>
		<stop  offset="1" style="stop-color:#273E7C"/>
	</linearGradient>
	<polygon clip-path="url(#SVGID_218_)" fill="url(#SVGID_219_)" points="-73.261,2607.608 -321.518,2878.114 -582.982,2638.155 
		-334.726,2367.649 	"/>
</g>
<g>
	<defs>
		<polygon id="SVGID_220_" points="-233.391,2444.5 -233.391,2796.234 -93.705,2796.234 -93.705,2760.553 -194.209,2760.553 
			-194.209,2444.5 		"/>
	</defs>
	<clipPath id="SVGID_221_">
		<use xlink:href="#SVGID_220_"  overflow="visible"/>
	</clipPath>
	
		<linearGradient id="SVGID_222_" gradientUnits="userSpaceOnUse" x1="-1075.0181" y1="3290.2651" x2="-1074.0181" y2="3290.2651" gradientTransform="matrix(1312.8484 1312.8484 1312.8484 -1312.8484 -2909322.25 5732702)">
		<stop  offset="0" style="stop-color:#009676"/>
		<stop  offset="1" style="stop-color:#0D5042"/>
		<stop  offset="1" style="stop-color:#FFF2E9"/>
	</linearGradient>
	<polygon clip-path="url(#SVGID_221_)" fill="url(#SVGID_222_)" points="-163.548,2374.657 82.162,2620.367 -163.548,2866.077 
		-409.258,2620.367 	"/>
</g>
<g>
	<defs>
		<path id="SVGID_223_" d="M-51.507,2616.344c0-29.649,12.063-44.221,36.683-44.221c25.135,0,37.693,14.571,37.693,44.221v28.142
			h-74.376V2616.344z M-89.697,2619.866v99.492c0,52.256,26.643,81.905,74.873,81.905c48.247,0,74.872-29.649,74.872-81.905v-4.026
			H23.365v7.538c0,29.648-12.558,44.726-37.675,44.726c-24.62,0-37.197-15.077-37.197-44.726v-47.237H60.048v-55.767
			c0-52.266-26.625-81.409-74.872-81.409C-63.549,2538.457-89.697,2567.6-89.697,2619.866"/>
	</defs>
	<clipPath id="SVGID_224_">
		<use xlink:href="#SVGID_223_"  overflow="visible"/>
	</clipPath>
	
		<linearGradient id="SVGID_225_" gradientUnits="userSpaceOnUse" x1="-1075.0181" y1="3290.2456" x2="-1074.0181" y2="3290.2456" gradientTransform="matrix(1312.8484 1312.8484 1312.8484 -1312.8484 -2909246.25 5732627)">
		<stop  offset="0" style="stop-color:#009676"/>
		<stop  offset="1" style="stop-color:#0D5042"/>
		<stop  offset="1" style="stop-color:#FFF2E9"/>
	</linearGradient>
	<polygon clip-path="url(#SVGID_224_)" fill="url(#SVGID_225_)" points="-14.825,2463.584 191.452,2669.86 -14.825,2876.136 
		-221.101,2669.86 	"/>
</g>
<g>
	<defs>
		<path id="SVGID_226_" d="M113.811,2711.314v-82.907c0-36.177,16.585-56.283,40.71-56.283c21.604,0,32.654,14.076,32.654,42.207
			v110.552c0,28.639-11.05,42.713-32.654,42.713C130.396,2767.595,113.811,2747.49,113.811,2711.314 M76.136,2444.5v351.734h27.636
			l5.02-35.681c10.554,27.14,29.639,40.71,56.779,40.71c39.697,0,59.298-24.631,59.298-73.364v-116.583
			c0-48.735-19.601-72.859-59.298-72.859c-22.616,0-40.194,10.049-51.76,30.155V2444.5H76.136z"/>
	</defs>
	<clipPath id="SVGID_227_">
		<use xlink:href="#SVGID_226_"  overflow="visible"/>
	</clipPath>
	
		<linearGradient id="SVGID_228_" gradientUnits="userSpaceOnUse" x1="-1075.0181" y1="3290.2661" x2="-1074.0181" y2="3290.2661" gradientTransform="matrix(1312.8484 1312.8484 1312.8484 -1312.8484 -2909166.25 5732547.5)">
		<stop  offset="0" style="stop-color:#009676"/>
		<stop  offset="1" style="stop-color:#0D5042"/>
		<stop  offset="1" style="stop-color:#FFF2E9"/>
	</linearGradient>
	<polygon clip-path="url(#SVGID_227_)" fill="url(#SVGID_228_)" points="150.502,2370.133 403.25,2622.881 150.502,2875.63 
		-102.246,2622.881 	"/>
</g>
<g>
	<defs>
		<path id="SVGID_229_" d="M-276.006,1945.083h-65.476h-268.503c-102.111,0-191.8,76.848-198.202,178.758
			c-6.964,110.866,81.249,203.296,190.637,203.296h210.847c9.29,0,16.819-7.53,16.819-16.818v-31.6c0-0.001-0.002-0.001-0.002-0.001
			H-617.55c-84.567,0-152.179-73.974-141.509-160.617c8.913-72.369,74.313-124.6,147.23-124.6l270.347,0.001h121.428
			c0.504,0,0.912,0.407,0.912,0.91v177.187v0.002h30.673c9.791,0,17.728-7.938,17.728-17.729v-159.459
			c0-0.503,0.408-0.91,0.911-0.91h72.116c0.502,0,0.91,0.407,0.91,0.91v177.187c0,0.002,0.001,0.002,0.001,0.002h30.673
			c9.79,0,17.728-7.938,17.728-17.729v-208.788H-276.006z"/>
	</defs>
	<clipPath id="SVGID_230_">
		<use xlink:href="#SVGID_229_"  overflow="visible"/>
	</clipPath>
	
		<linearGradient id="SVGID_231_" gradientUnits="userSpaceOnUse" x1="-1075.0181" y1="3290.2241" x2="-1074.0181" y2="3290.2241" gradientTransform="matrix(1312.8484 1312.8484 1312.8484 -1312.8484 -2909158.25 5732539)">
		<stop  offset="0" style="stop-color:#009676"/>
		<stop  offset="1" style="stop-color:#0D5042"/>
		<stop  offset="1" style="stop-color:#FFF2E9"/>
	</linearGradient>
	<polygon clip-path="url(#SVGID_230_)" fill="url(#SVGID_231_)" points="-431.776,1561.708 142.625,2136.11 -431.777,2710.511 
		-1006.178,2136.11 	"/>
</g>
<g>
	<defs>
		<path id="SVGID_232_" d="M-341.482,2041.042v129.586v60.548v79.143c0,9.289,7.53,16.817,16.818,16.817H33.841
			c95.586,0,174.769-70.651,188.643-162.434h-48.908c-13.278,64.981-70.886,114.015-139.735,114.015H-293.08v-47.541v-60.548
			v-112.767c0-9.289-7.529-16.819-16.817-16.819H-341.482z"/>
	</defs>
	<clipPath id="SVGID_233_">
		<use xlink:href="#SVGID_232_"  overflow="visible"/>
	</clipPath>
	
		<linearGradient id="SVGID_234_" gradientUnits="userSpaceOnUse" x1="-1075.0181" y1="3290.2749" x2="-1074.0181" y2="3290.2749" gradientTransform="matrix(-946.6027 1031.4398 1031.4398 946.6027 -4411120 -2003880.5)">
		<stop  offset="0" style="stop-color:#2F6BB3"/>
		<stop  offset="1" style="stop-color:#273E7C"/>
	</linearGradient>
	<polygon clip-path="url(#SVGID_233_)" fill="url(#SVGID_234_)" points="365.005,2171.842 -35.355,2608.084 -484.004,2196.337 
		-83.643,1760.095 	"/>
</g>
<g>
	<defs>
		<path id="SVGID_235_" d="M16.819,1945.083c-9.289,0-16.819,7.529-16.819,16.818v31.601h33.841
			c71.9,0,131.38,53.523,141.079,122.784h48.908c-9.951-96.049-91.352-171.203-189.987-171.203H16.819z"/>
	</defs>
	<clipPath id="SVGID_236_">
		<use xlink:href="#SVGID_235_"  overflow="visible"/>
	</clipPath>
	
		<linearGradient id="SVGID_237_" gradientUnits="userSpaceOnUse" x1="-1075.0181" y1="3290.2446" x2="-1074.0181" y2="3290.2446" gradientTransform="matrix(-946.6027 1031.4398 1031.4398 946.6027 -4411072.5 -2003836.5)">
		<stop  offset="0" style="stop-color:#2F6BB3"/>
		<stop  offset="1" style="stop-color:#273E7C"/>
	</linearGradient>
	<polygon clip-path="url(#SVGID_236_)" fill="url(#SVGID_237_)" points="309.115,2023.355 121.496,2227.789 -85.287,2038.013 
		102.332,1833.58 	"/>
</g>
<g>
	<defs>
		<path id="SVGID_238_" d="M-789.865,2921.914c-3.809,4.146-5.715,9.3-5.715,15.238c0,3.36,0.673,6.499,1.906,9.412h-10.197v12.772
			h47.508v-12.772h-23.978c-1.905-2.128-2.802-4.931-2.802-8.517c0-3.024,0.673-5.49,2.017-7.395
			c1.569-2.354,3.81-3.474,6.611-3.474c4.034,0,6.723,2.018,7.955,6.052l8.964-6.163c-3.138-7.171-9.748-11.43-17.479-11.43
			C-781.013,2915.638-785.943,2917.769-789.865,2921.914"/>
	</defs>
	<clipPath id="SVGID_239_">
		<use xlink:href="#SVGID_238_"  overflow="visible"/>
	</clipPath>
	
		<linearGradient id="SVGID_240_" gradientUnits="userSpaceOnUse" x1="-1075.0181" y1="3290.2485" x2="-1074.0181" y2="3290.2485" gradientTransform="matrix(1312.8484 1312.8484 1312.8484 -1312.8484 -2909766.25 5733146)">
		<stop  offset="0" style="stop-color:#009676"/>
		<stop  offset="1" style="stop-color:#0D5042"/>
		<stop  offset="1" style="stop-color:#FFF2E9"/>
	</linearGradient>
	<polygon clip-path="url(#SVGID_239_)" fill="url(#SVGID_240_)" points="-780.117,2891.884 -734.514,2937.488 -780.117,2983.09 
		-825.72,2937.488 	"/>
</g>
<g>
	<defs>
		<rect id="SVGID_241_" x="-744.709" y="2886.955" width="12.436" height="72.382"/>
	</defs>
	<clipPath id="SVGID_242_">
		<use xlink:href="#SVGID_241_"  overflow="visible"/>
	</clipPath>
	
		<linearGradient id="SVGID_243_" gradientUnits="userSpaceOnUse" x1="-1075.0181" y1="3290.2466" x2="-1074.0181" y2="3290.2466" gradientTransform="matrix(1312.8484 1312.8484 1312.8484 -1312.8484 -2909734.25 5733115.5)">
		<stop  offset="0" style="stop-color:#009676"/>
		<stop  offset="1" style="stop-color:#0D5042"/>
		<stop  offset="1" style="stop-color:#FFF2E9"/>
	</linearGradient>
	<polygon clip-path="url(#SVGID_242_)" fill="url(#SVGID_243_)" points="-738.491,2880.737 -696.082,2923.146 -738.491,2965.555 
		-780.9,2923.146 	"/>
</g>
<g>
	<defs>
		<path id="SVGID_244_" d="M-709.191,2933.79c0-7.618,4.37-14.005,10.98-14.005c7.172,0,11.877,5.826,11.877,14.565
			c0,7.395-4.594,13.67-11.316,13.67C-704.485,2948.02-709.191,2941.633-709.191,2933.79 M-721.74,2933.79
			c0,14.902,9.636,25.547,24.09,25.547c5.714,0,9.748-1.905,11.877-5.714c-0.224,8.74-4.146,14.006-11.989,14.23v9.972
			c16.247,0,24.313-6.723,24.313-20.057v-23.642c0-14.79-9.411-25.771-24.201-25.771
			C-711.768,2908.356-721.74,2918.665-721.74,2933.79"/>
	</defs>
	<clipPath id="SVGID_245_">
		<use xlink:href="#SVGID_244_"  overflow="visible"/>
	</clipPath>
	
		<linearGradient id="SVGID_246_" gradientUnits="userSpaceOnUse" x1="-1075.0181" y1="3290.2446" x2="-1074.0181" y2="3290.2446" gradientTransform="matrix(1312.8484 1312.8484 1312.8484 -1312.8484 -2909722.25 5733102.5)">
		<stop  offset="0" style="stop-color:#009676"/>
		<stop  offset="1" style="stop-color:#0D5042"/>
		<stop  offset="1" style="stop-color:#FFF2E9"/>
	</linearGradient>
	<polygon clip-path="url(#SVGID_245_)" fill="url(#SVGID_246_)" points="-697.595,2884.21 -638.715,2943.09 -697.595,3001.97 
		-756.475,2943.09 	"/>
</g>
<g>
	<defs>
		<path id="SVGID_247_" d="M-650.702,2919.897c4.034,0,7.843,0.224,11.316,1.008c11.318,2.466,17.032,10.98,17.032,25.659h-40.56
			v12.772h72.717v-12.772h-19.497c-0.111-19.16-7.618-31.262-22.632-36.303c-2.913-1.009-5.154-1.458-6.723-1.569
			c-1.569-0.112-5.49-0.225-11.653-0.225V2919.897z"/>
	</defs>
	<clipPath id="SVGID_248_">
		<use xlink:href="#SVGID_247_"  overflow="visible"/>
	</clipPath>
	
		<linearGradient id="SVGID_249_" gradientUnits="userSpaceOnUse" x1="-1075.0181" y1="3290.2544" x2="-1074.0181" y2="3290.2544" gradientTransform="matrix(1312.8484 1312.8484 1312.8484 -1312.8484 -2909694.25 5733074.5)">
		<stop  offset="0" style="stop-color:#009676"/>
		<stop  offset="1" style="stop-color:#0D5042"/>
		<stop  offset="1" style="stop-color:#FFF2E9"/>
	</linearGradient>
	<polygon clip-path="url(#SVGID_248_)" fill="url(#SVGID_249_)" points="-626.556,2872.109 -564.763,2933.902 -626.556,2995.695 
		-688.349,2933.902 	"/>
</g>
<g>
	<defs>
		<path id="SVGID_250_" d="M-575.07,2887.068v47.171c0,3.921-0.448,6.835-1.344,8.515c-1.345,2.577-3.81,3.811-7.507,3.811h-11.654
			v12.772h51.318v-12.772h-21.065c1.793-2.128,2.689-6.387,2.689-12.998v-46.498H-575.07z"/>
	</defs>
	<clipPath id="SVGID_251_">
		<use xlink:href="#SVGID_250_"  overflow="visible"/>
	</clipPath>
	
		<linearGradient id="SVGID_252_" gradientUnits="userSpaceOnUse" x1="-1075.0181" y1="3290.2505" x2="-1074.0181" y2="3290.2505" gradientTransform="matrix(1312.8484 1312.8484 1312.8484 -1312.8484 -2909658.25 5733036)">
		<stop  offset="0" style="stop-color:#009676"/>
		<stop  offset="1" style="stop-color:#0D5042"/>
		<stop  offset="1" style="stop-color:#FFF2E9"/>
	</linearGradient>
	<polygon clip-path="url(#SVGID_251_)" fill="url(#SVGID_252_)" points="-569.916,2861.409 -508.123,2923.202 -569.916,2984.996 
		-631.709,2923.203 	"/>
</g>
<g>
	<defs>
		<path id="SVGID_253_" d="M-528.01,2887.068v47.73c0,4.033-0.335,6.723-0.896,8.067c-1.232,2.465-3.81,3.698-7.955,3.698h-10.644
			v12.772h13.22c12.55,0,18.824-6.722,18.824-20.281v-51.987H-528.01z"/>
	</defs>
	<clipPath id="SVGID_254_">
		<use xlink:href="#SVGID_253_"  overflow="visible"/>
	</clipPath>
	
		<linearGradient id="SVGID_255_" gradientUnits="userSpaceOnUse" x1="-1075.0181" y1="3290.2466" x2="-1074.0181" y2="3290.2466" gradientTransform="matrix(1312.8484 1312.8484 1312.8484 -1312.8484 -2909634.25 5733012)">
		<stop  offset="0" style="stop-color:#009676"/>
		<stop  offset="1" style="stop-color:#0D5042"/>
		<stop  offset="1" style="stop-color:#FFF2E9"/>
	</linearGradient>
	<polygon clip-path="url(#SVGID_254_)" fill="url(#SVGID_255_)" points="-531.483,2871.045 -479.327,2923.203 -531.483,2975.359 
		-583.64,2923.203 	"/>
</g>
<g>
	<defs>
		<path id="SVGID_256_" d="M-459.549,3002.698h12.325v-12.438h-12.325V3002.698z M-438.373,3002.698h12.326v-12.438h-12.326
			V3002.698z M-430.306,2921.577v11.429c0.673-0.111,1.345-0.111,2.017-0.111c7.17,0,11.317,4.93,11.317,11.877
			c0,11.428-10.981,21.064-25.547,21.064c-16.246,0-26.33-10.869-26.33-28.236v-11.093h-12.55v12.549
			c0,22.074,17.031,38.881,38.544,38.881c18.263,0,33.277-10.98,36.863-28.459c5.154,7.73,9.075,9.859,22.857,9.859v-12.772h-4.706
			c-6.386,0-10.756-3.25-15.35-11.653c-4.93-8.852-12.325-13.334-22.185-13.334H-430.306z"/>
	</defs>
	<clipPath id="SVGID_257_">
		<use xlink:href="#SVGID_256_"  overflow="visible"/>
	</clipPath>
	
		<linearGradient id="SVGID_258_" gradientUnits="userSpaceOnUse" x1="-1075.0181" y1="3290.2466" x2="-1074.0181" y2="3290.2466" gradientTransform="matrix(1312.8484 1312.8484 1312.8484 -1312.8484 -2909602.25 5732983)">
		<stop  offset="0" style="stop-color:#009676"/>
		<stop  offset="1" style="stop-color:#0D5042"/>
		<stop  offset="1" style="stop-color:#FFF2E9"/>
	</linearGradient>
	<polygon clip-path="url(#SVGID_257_)" fill="url(#SVGID_258_)" points="-432.267,2872.445 -342.575,2962.137 -432.267,3051.83 
		-521.959,2962.137 	"/>
</g>
<g>
	<defs>
		<path id="SVGID_259_" d="M-367.11,2908.467v26.331c0,4.033-0.337,6.723-0.897,8.067c-1.233,2.465-3.81,3.698-7.955,3.698h-10.644
			v12.772h13.221c12.549,0,18.823-6.722,18.823-20.281v-30.588H-367.11z M-366.999,2898.16h12.213v-12.438h-12.213V2898.16z"/>
	</defs>
	<clipPath id="SVGID_260_">
		<use xlink:href="#SVGID_259_"  overflow="visible"/>
	</clipPath>
	
		<linearGradient id="SVGID_261_" gradientUnits="userSpaceOnUse" x1="-1075.0181" y1="3290.2466" x2="-1074.0181" y2="3290.2466" gradientTransform="matrix(1312.8484 1312.8484 1312.8484 -1312.8484 -2909550.25 5732931)">
		<stop  offset="0" style="stop-color:#009676"/>
		<stop  offset="1" style="stop-color:#0D5042"/>
		<stop  offset="1" style="stop-color:#FFF2E9"/>
	</linearGradient>
	<polygon clip-path="url(#SVGID_260_)" fill="url(#SVGID_261_)" points="-370.584,2869.701 -317.755,2922.53 -370.584,2975.359 
		-423.413,2922.53 	"/>
</g>
<g>
	<defs>
		<path id="SVGID_262_" d="M-342.908,2887.068v51.877c0,6.162,1.457,10.979,4.482,14.565c3.249,3.921,7.843,5.826,13.894,5.826
			h14.678v-12.772h-7.396c-4.706,0-7.955-0.673-9.635-1.904c-2.353-1.682-3.586-5.267-3.586-10.757v-46.835H-342.908z"/>
	</defs>
	<clipPath id="SVGID_263_">
		<use xlink:href="#SVGID_262_"  overflow="visible"/>
	</clipPath>
	
		<linearGradient id="SVGID_264_" gradientUnits="userSpaceOnUse" x1="-1075.0181" y1="3290.2485" x2="-1074.0181" y2="3290.2485" gradientTransform="matrix(1312.8484 1312.8484 1312.8484 -1312.8484 -2909534.25 5732912)">
		<stop  offset="0" style="stop-color:#009676"/>
		<stop  offset="1" style="stop-color:#0D5042"/>
		<stop  offset="1" style="stop-color:#FFF2E9"/>
	</linearGradient>
	<polygon clip-path="url(#SVGID_263_)" fill="url(#SVGID_264_)" points="-326.381,2870.541 -273.72,2923.202 -326.381,2975.864 
		-379.042,2923.202 	"/>
</g>
<g>
	<defs>
		<path id="SVGID_265_" d="M-293.383,2908.467v25.771c0,3.921-0.449,6.835-1.345,8.515c-1.345,2.577-3.81,3.811-7.507,3.811h-11.652
			v12.772h51.764v-12.772h-21.512c1.792-2.128,2.689-6.387,2.689-12.998v-25.099H-293.383z M-293.271,2898.16h12.325v-12.438
			h-12.325V2898.16z"/>
	</defs>
	<clipPath id="SVGID_266_">
		<use xlink:href="#SVGID_265_"  overflow="visible"/>
	</clipPath>
	
		<linearGradient id="SVGID_267_" gradientUnits="userSpaceOnUse" x1="-1075.0181" y1="3290.2505" x2="-1074.0181" y2="3290.2505" gradientTransform="matrix(1312.8484 1312.8484 1312.8484 -1312.8484 -2909514.25 5732895)">
		<stop  offset="0" style="stop-color:#009676"/>
		<stop  offset="1" style="stop-color:#0D5042"/>
		<stop  offset="1" style="stop-color:#FFF2E9"/>
	</linearGradient>
	<polygon clip-path="url(#SVGID_266_)" fill="url(#SVGID_267_)" points="-288.005,2859.84 -225.316,2922.53 -288.005,2985.218 
		-350.694,2922.53 	"/>
</g>
<g>
	<defs>
		<path id="SVGID_268_" d="M-245.09,2983.987h12.325v-12.549h-12.325V2983.987z M-245.09,2908.467v25.771
			c0,3.921-0.448,6.835-1.345,8.515c-1.344,2.577-3.81,3.811-7.507,3.811h-11.653v12.772h51.765v-12.772h-21.512
			c1.793-2.128,2.689-6.387,2.689-12.998v-25.099H-245.09z"/>
	</defs>
	<clipPath id="SVGID_269_">
		<use xlink:href="#SVGID_268_"  overflow="visible"/>
	</clipPath>
	
		<linearGradient id="SVGID_270_" gradientUnits="userSpaceOnUse" x1="-1075.0181" y1="3290.2466" x2="-1074.0181" y2="3290.2466" gradientTransform="matrix(1312.8484 1312.8484 1312.8484 -1312.8484 -2909498.25 5732877)">
		<stop  offset="0" style="stop-color:#009676"/>
		<stop  offset="1" style="stop-color:#0D5042"/>
		<stop  offset="1" style="stop-color:#FFF2E9"/>
	</linearGradient>
	<polygon clip-path="url(#SVGID_269_)" fill="url(#SVGID_270_)" points="-239.712,2882.585 -176.071,2946.227 -239.713,3009.87 
		-303.354,2946.227 	"/>
</g>
<g>
	<defs>
		<path id="SVGID_271_" d="M-196.798,2887.068v47.171c0,3.921-0.448,6.835-1.345,8.515c-1.344,2.577-3.809,3.811-7.507,3.811
			h-11.652v12.772h51.316v-12.772h-21.064c1.793-2.128,2.689-6.387,2.689-12.998v-46.498H-196.798z"/>
	</defs>
	<clipPath id="SVGID_272_">
		<use xlink:href="#SVGID_271_"  overflow="visible"/>
	</clipPath>
	
		<linearGradient id="SVGID_273_" gradientUnits="userSpaceOnUse" x1="-1075.0181" y1="3290.2495" x2="-1074.0181" y2="3290.2495" gradientTransform="matrix(1312.8484 1312.8484 1312.8484 -1312.8484 -2909466.25 5732847)">
		<stop  offset="0" style="stop-color:#009676"/>
		<stop  offset="1" style="stop-color:#0D5042"/>
		<stop  offset="1" style="stop-color:#FFF2E9"/>
	</linearGradient>
	<polygon clip-path="url(#SVGID_272_)" fill="url(#SVGID_273_)" points="-191.644,2861.41 -129.852,2923.202 -191.644,2984.995 
		-253.437,2923.202 	"/>
</g>
<g>
	<defs>
		<path id="SVGID_274_" d="M-149.738,2887.068v47.73c0,4.033-0.337,6.723-0.896,8.067c-1.232,2.465-3.81,3.698-7.955,3.698h-10.645
			v12.772h13.221c12.55,0,18.824-6.722,18.824-20.281v-51.987H-149.738z"/>
	</defs>
	<clipPath id="SVGID_275_">
		<use xlink:href="#SVGID_274_"  overflow="visible"/>
	</clipPath>
	
		<linearGradient id="SVGID_276_" gradientUnits="userSpaceOnUse" x1="-1075.0181" y1="3290.2466" x2="-1074.0181" y2="3290.2466" gradientTransform="matrix(1312.8484 1312.8484 1312.8484 -1312.8484 -2909442.25 5732823)">
		<stop  offset="0" style="stop-color:#009676"/>
		<stop  offset="1" style="stop-color:#0D5042"/>
		<stop  offset="1" style="stop-color:#FFF2E9"/>
	</linearGradient>
	<polygon clip-path="url(#SVGID_275_)" fill="url(#SVGID_276_)" points="-153.212,2871.045 -101.055,2923.202 -153.212,2975.359 
		-205.369,2923.202 	"/>
</g>
<g>
	<defs>
		<rect id="SVGID_277_" x="-125.648" y="2886.955" width="12.437" height="72.382"/>
	</defs>
	<clipPath id="SVGID_278_">
		<use xlink:href="#SVGID_277_"  overflow="visible"/>
	</clipPath>
	
		<linearGradient id="SVGID_279_" gradientUnits="userSpaceOnUse" x1="-1075.0181" y1="3290.2466" x2="-1074.0181" y2="3290.2466" gradientTransform="matrix(1312.8484 1312.8484 1312.8484 -1312.8484 -2909426.25 5732806)">
		<stop  offset="0" style="stop-color:#009676"/>
		<stop  offset="1" style="stop-color:#0D5042"/>
		<stop  offset="1" style="stop-color:#FFF2E9"/>
	</linearGradient>
	<polygon clip-path="url(#SVGID_278_)" fill="url(#SVGID_279_)" points="-119.43,2880.736 -77.02,2923.146 -119.43,2965.555 
		-161.839,2923.146 	"/>
</g>
<g>
	<defs>
		<path id="SVGID_280_" d="M-20.997,2887.068v51.092c0,15.798-9.412,27.788-22.634,27.788c-13.669,0-22.855-12.325-22.855-27.788
			v-9.523h-12.661v10.98c0,21.063,16.022,38.319,35.517,38.319c12.326,0,23.867-6.946,30.253-18.6H9.927v-12.772H-9.008
			c0.448-2.354,0.672-4.595,0.672-6.947v-52.549H-20.997z"/>
	</defs>
	<clipPath id="SVGID_281_">
		<use xlink:href="#SVGID_280_"  overflow="visible"/>
	</clipPath>
	
		<linearGradient id="SVGID_282_" gradientUnits="userSpaceOnUse" x1="-1075.0181" y1="3290.2456" x2="-1074.0181" y2="3290.2456" gradientTransform="matrix(1312.8484 1312.8484 1312.8484 -1312.8484 -2909386.25 5732767.5)">
		<stop  offset="0" style="stop-color:#009676"/>
		<stop  offset="1" style="stop-color:#0D5042"/>
		<stop  offset="1" style="stop-color:#FFF2E9"/>
	</linearGradient>
	<polygon clip-path="url(#SVGID_281_)" fill="url(#SVGID_282_)" points="-34.611,2842.53 55.361,2932.501 -34.611,3022.473 
		-124.582,2932.501 	"/>
</g>
<g>
	<defs>
		<path id="SVGID_283_" d="M4.214,2983.875h12.325v-12.55H4.214V2983.875z M25.391,2983.875h12.325v-12.55H25.391V2983.875z
			 M25.727,2908.467v25.771c0,3.921-0.447,6.835-1.344,8.515c-1.344,2.577-3.922,3.811-7.619,3.811H4.775v12.772h51.653v-12.772
			H35.363c1.905-2.128,2.801-6.387,2.801-12.998v-25.099H25.727z"/>
	</defs>
	<clipPath id="SVGID_284_">
		<use xlink:href="#SVGID_283_"  overflow="visible"/>
	</clipPath>
	
		<linearGradient id="SVGID_285_" gradientUnits="userSpaceOnUse" x1="-1075.0181" y1="3290.2495" x2="-1074.0181" y2="3290.2495" gradientTransform="matrix(1312.8484 1312.8484 1312.8484 -1312.8484 -2909366.25 5732747)">
		<stop  offset="0" style="stop-color:#009676"/>
		<stop  offset="1" style="stop-color:#0D5042"/>
		<stop  offset="1" style="stop-color:#FFF2E9"/>
	</linearGradient>
	<polygon clip-path="url(#SVGID_284_)" fill="url(#SVGID_285_)" points="30.321,2882.361 94.131,2946.171 30.321,3009.982 
		-33.49,2946.171 	"/>
</g>
<g>
	<defs>
		<path id="SVGID_286_" d="M72.675,2887.068v47.73c0,4.033-0.335,6.723-0.896,8.067c-1.232,2.465-3.81,3.698-7.955,3.698H53.18
			v12.772h13.222c12.548,0,18.822-6.722,18.822-20.281v-51.987H72.675z"/>
	</defs>
	<clipPath id="SVGID_287_">
		<use xlink:href="#SVGID_286_"  overflow="visible"/>
	</clipPath>
	
		<linearGradient id="SVGID_288_" gradientUnits="userSpaceOnUse" x1="-1075.0181" y1="3290.2466" x2="-1074.0181" y2="3290.2466" gradientTransform="matrix(1312.8484 1312.8484 1312.8484 -1312.8484 -2909334.25 5732712)">
		<stop  offset="0" style="stop-color:#009676"/>
		<stop  offset="1" style="stop-color:#0D5042"/>
		<stop  offset="1" style="stop-color:#FFF2E9"/>
	</linearGradient>
	<polygon clip-path="url(#SVGID_287_)" fill="url(#SVGID_288_)" points="69.202,2871.045 121.358,2923.203 69.202,2975.359 
		17.045,2923.203 	"/>
</g>
<g>
	<defs>
		<path id="SVGID_289_" d="M107.971,2919.897c4.034,0,7.842,0.224,11.316,1.008c11.317,2.466,17.031,10.98,17.031,25.659h-40.56
			v12.772h72.717v-12.772h-19.496c-0.112-19.16-7.619-31.262-22.633-36.303c-2.913-1.009-5.154-1.458-6.723-1.569
			c-1.569-0.112-5.49-0.225-11.652-0.225V2919.897z"/>
	</defs>
	<clipPath id="SVGID_290_">
		<use xlink:href="#SVGID_289_"  overflow="visible"/>
	</clipPath>
	
		<linearGradient id="SVGID_291_" gradientUnits="userSpaceOnUse" x1="-1075.0181" y1="3290.2534" x2="-1074.0181" y2="3290.2534" gradientTransform="matrix(1312.8484 1312.8484 1312.8484 -1312.8484 -2909314.25 5732695)">
		<stop  offset="0" style="stop-color:#009676"/>
		<stop  offset="1" style="stop-color:#0D5042"/>
		<stop  offset="1" style="stop-color:#FFF2E9"/>
	</linearGradient>
	<polygon clip-path="url(#SVGID_290_)" fill="url(#SVGID_291_)" points="132.117,2872.11 193.91,2933.903 132.116,2995.696 
		70.323,2933.903 	"/>
</g>
<g>
	<defs>
		<path id="SVGID_292_" d="M182.37,2887.068v47.73c0,4.033-0.336,6.723-0.896,8.067c-1.233,2.465-3.81,3.698-7.955,3.698h-10.645
			v12.772h13.221c12.55,0,18.824-6.722,18.824-20.281v-51.987H182.37z"/>
	</defs>
	<clipPath id="SVGID_293_">
		<use xlink:href="#SVGID_292_"  overflow="visible"/>
	</clipPath>
	
		<linearGradient id="SVGID_294_" gradientUnits="userSpaceOnUse" x1="-1075.0181" y1="3290.2466" x2="-1074.0181" y2="3290.2466" gradientTransform="matrix(1312.8484 1312.8484 1312.8484 -1312.8484 -2909278.25 5732657)">
		<stop  offset="0" style="stop-color:#009676"/>
		<stop  offset="1" style="stop-color:#0D5042"/>
		<stop  offset="1" style="stop-color:#FFF2E9"/>
	</linearGradient>
	<polygon clip-path="url(#SVGID_293_)" fill="url(#SVGID_294_)" points="178.896,2871.045 231.053,2923.203 178.896,2975.359 
		126.739,2923.203 	"/>
</g>
<g>
	<defs>
		<rect id="SVGID_295_" x="206.461" y="2886.955" width="12.437" height="72.382"/>
	</defs>
	<clipPath id="SVGID_296_">
		<use xlink:href="#SVGID_295_"  overflow="visible"/>
	</clipPath>
	
		<linearGradient id="SVGID_297_" gradientUnits="userSpaceOnUse" x1="-1075.0181" y1="3290.2466" x2="-1074.0181" y2="3290.2466" gradientTransform="matrix(1312.8484 1312.8484 1312.8484 -1312.8484 -2909262.25 5732640)">
		<stop  offset="0" style="stop-color:#009676"/>
		<stop  offset="1" style="stop-color:#0D5042"/>
		<stop  offset="1" style="stop-color:#FFF2E9"/>
	</linearGradient>
	<polygon clip-path="url(#SVGID_296_)" fill="url(#SVGID_297_)" points="212.679,2880.737 255.089,2923.146 212.679,2965.555 
		170.27,2923.146 	"/>
</g>
</svg>
