<?xml version="1.0" encoding="utf-8"?>
<!-- Generator: Adobe Illustrator 16.0.0, SVG Export Plug-In . SVG Version: 6.00 Build 0)  -->
<!DOCTYPE svg PUBLIC "-//W3C//DTD SVG 1.1//EN" "http://www.w3.org/Graphics/SVG/1.1/DTD/svg11.dtd">
<svg version="1.1" id="Layer_1" xmlns="http://www.w3.org/2000/svg" xmlns:xlink="http://www.w3.org/1999/xlink" x="0px" y="0px"
	 width="192.469px" height="147.902px" viewBox="0 0 192.469 147.902" enable-background="new 0 0 192.469 147.902"
	 xml:space="preserve">
<g>
	<defs>
		<rect id="SVGID_1_" x="3600.136" y="1267.178" width="2902.677" height="5612.598"/>
	</defs>
	<clipPath id="SVGID_2_">
		<use xlink:href="#SVGID_1_"  overflow="visible"/>
	</clipPath>
	
		<linearGradient id="SVGID_3_" gradientUnits="userSpaceOnUse" x1="3600.8794" y1="1334.6855" x2="3601.8794" y2="1334.6855" gradientTransform="matrix(3071.9939 5840.3604 5840.3604 -3071.9939 -18853424 -16929162)">
		<stop  offset="0" style="stop-color:#146BCA"/>
		<stop  offset="1" style="stop-color:#273E7C"/>
	</linearGradient>
	<polygon clip-path="url(#SVGID_2_)" fill="url(#SVGID_3_)" points="5873.768,71.262 8815.229,5663.459 4229.18,8075.691 
		1287.719,2483.495 	"/>
</g>
<g>
	<defs>
		<rect id="SVGID_4_" x="-3357.018" y="-4608.907" width="2902.677" height="5612.599"/>
	</defs>
	<clipPath id="SVGID_5_">
		<use xlink:href="#SVGID_4_"  overflow="visible"/>
	</clipPath>
	<path clip-path="url(#SVGID_5_)" fill="#26A084" d="M-1744.315,675.829c-5.657-5.665-13.206-8.788-21.259-8.788h-0.015
		c-8.05,0-15.598,3.123-21.262,8.779l-2.569,2.568c-1.848,1.849-1.848,4.843,0,6.69c1.847,1.848,4.847,1.848,6.69,0.005l2.569-2.569
		c3.879-3.877,9.054-6.012,14.581-6.012h0.005c5.521,0,10.695,2.135,14.566,6.012c7.748,7.748,7.562,17.793-0.558,29.833
		l-1.927,2.874l-3.438,4.187c-1.189,1.225-2.226,1.894-2.901,1.894c-2.023,0-6.162-4.26-10.17-8.38
		c-1.214-1.249-2.508-2.578-3.894-3.965l-5.17-5.174l-2.33-2.312l-22.417-22.431c-5.669-5.66-13.22-8.779-21.267-8.779h-0.01
		c-8.059,0.004-15.606,3.127-21.259,8.793c-11.721,11.726-11.721,30.804,0,42.525l30.036,30.115
		c5.869,5.867,13.576,8.797,21.273,8.797c7.701,0,15.394-2.93,21.25-8.788l9.036-8.999c1.853-1.844,1.857-4.839,0.014-6.692
		c-1.839-1.848-4.832-1.857-6.69-0.014l-9.047,9.006c-8.026,8.04-21.1,8.035-29.14,0.005l-30.038-30.121
		c-8.029-8.033-8.038-21.104,0-29.145c3.873-3.881,9.043-6.016,14.564-6.021h0.01c5.52,0,10.698,2.135,14.577,6.012l29.914,29.917
		c1.36,1.349,2.616,2.646,3.8,3.866c6.349,6.523,10.931,11.245,16.943,11.245h0.013c3.389,0,6.553-1.552,9.935-5.034l3.965-4.833
		l2.203-3.243C-1733.023,701.758-1733.232,686.909-1744.315,675.829"/>
	<path clip-path="url(#SVGID_5_)" fill="#26A084" d="M-1802.972,645.049v17.954c0,2.614,2.121,4.731,4.731,4.731
		s4.73-2.117,4.73-4.731v-17.954c16.684-1.757,29.751-15.922,29.751-33.04c0-0.606-0.042-1.198-0.111-2.167l-0.301-4.428
		l-4.434,0.02c-9.931,0.028-18.829,4.473-24.905,11.431V603.17c0-2.611-2.12-4.731-4.73-4.731s-4.731,2.12-4.731,4.731v13.694
		c-6.076-6.963-14.976-11.402-24.899-11.431l-4.439,0.36l-0.32,4.398c-0.046,0.602-0.083,1.201-0.083,1.816
		C-1832.714,629.127-1819.652,643.292-1802.972,645.049 M-1773.471,615.413c-1.423,9.842-8.918,17.761-18.545,19.83
		C-1790.594,625.402-1783.101,617.474-1773.471,615.413 M-1804.464,635.243c-9.629-2.069-17.118-9.988-18.542-19.826
		C-1813.377,617.479-1805.889,625.402-1804.464,635.243"/>
	<path clip-path="url(#SVGID_5_)" fill="#FFFFFF" d="M-2080.716,742.168c-2.596,0-4.796,0.887-6.607,2.657
		c-1.801,1.77-2.707,3.919-2.707,6.441c0,2.681,0.887,4.901,2.657,6.676c1.77,1.793,3.969,2.688,6.584,2.688
		c2.642,0,4.874-0.877,6.694-2.633c1.807-1.775,2.708-3.97,2.708-6.588c0-2.6-0.896-4.788-2.694-6.567
		C-2075.897,743.06-2078.11,742.168-2080.716,742.168 M-2076.931,755.503c-0.947,1.017-2.204,1.524-3.785,1.524
		c-1.57,0-2.827-0.517-3.788-1.542c-0.934-1.018-1.396-2.403-1.396-4.149c0-1.626,0.476-2.953,1.433-3.984
		c0.961-1.025,2.208-1.543,3.751-1.543c1.567,0,2.828,0.518,3.785,1.543c0.946,1.018,1.418,2.374,1.418,4.077
		C-2075.513,753.129-2075.985,754.486-2076.931,755.503"/>
	<path clip-path="url(#SVGID_5_)" fill="#FFFFFF" d="M-2056.228,752.685c0,2.893-1.136,4.343-3.423,4.343
		c-2.288,0-3.429-1.45-3.429-4.343v-10.03h-4.033v10.122c0,1.599,0.166,2.81,0.499,3.623c0.346,0.905,0.942,1.728,1.774,2.458
		c1.368,1.184,3.096,1.773,5.189,1.773c2.102,0,3.839-0.59,5.202-1.773c0.827-0.73,1.41-1.553,1.742-2.458
		c0.346-1.018,0.518-2.229,0.518-3.623v-10.122h-4.039V752.685z"/>
	<path clip-path="url(#SVGID_5_)" fill="#FFFFFF" d="M-2029.023,742.168c-2.162,0-3.881,0.859-5.147,2.587
		c-1.15-1.728-2.712-2.587-4.685-2.587c-0.887,0-1.621,0.147-2.208,0.454c-0.551,0.285-1.211,0.832-1.991,1.644v-1.611h-4.034
		v17.479h4.034v-9.029c0-1.829,0.263-3.168,0.78-4.021c0.518-0.848,1.35-1.274,2.486-1.274c1.792,0,2.689,1.558,2.689,4.668v9.656
		h4.057v-9.029c0-1.853,0.254-3.195,0.762-4.039c0.509-0.834,1.317-1.256,2.435-1.256c0.952,0,1.644,0.357,2.061,1.063
		c0.407,0.692,0.61,1.877,0.61,3.549v9.712h4.056V749.33C-2023.118,744.551-2025.086,742.168-2029.023,742.168"/>
	<path clip-path="url(#SVGID_5_)" fill="#FFFFFF" d="M-1999.956,742.168c-2.168,0-3.882,0.859-5.152,2.587
		c-1.146-1.728-2.707-2.587-4.681-2.587c-0.882,0-1.621,0.147-2.204,0.454c-0.555,0.285-1.219,0.832-1.995,1.644v-1.611h-4.039
		v17.479h4.039v-9.029c0-1.829,0.258-3.168,0.78-4.021c0.523-0.848,1.35-1.274,2.486-1.274c1.797,0,2.694,1.558,2.694,4.668v9.656
		h4.052v-9.029c0-1.853,0.254-3.195,0.762-4.039c0.509-0.834,1.322-1.256,2.43-1.256c0.961,0,1.646,0.357,2.066,1.063
		c0.407,0.692,0.609,1.877,0.609,3.549v9.712h4.053V749.33C-1994.056,744.551-1996.02,742.168-1999.956,742.168"/>
	<path clip-path="url(#SVGID_5_)" fill="#FFFFFF" d="M-1976.073,744.682c-1.618-1.673-3.439-2.514-5.472-2.514
		c-2.36,0-4.324,0.873-5.885,2.619c-1.572,1.747-2.352,3.934-2.352,6.549c0,2.669,0.78,4.896,2.352,6.681
		c1.579,1.746,3.575,2.615,5.988,2.615c1.916,0,3.705-0.776,5.369-2.328v1.83h4.056v-17.479h-4.056V744.682z M-1977.206,755.484
		c-0.92,1.026-2.13,1.543-3.626,1.543c-1.396,0-2.561-0.535-3.479-1.599c-0.897-1.055-1.345-2.416-1.345-4.093
		c0-1.563,0.462-2.884,1.381-3.947c0.933-1.054,2.094-1.579,3.479-1.579c1.474,0,2.67,0.521,3.59,1.561
		c0.92,1.068,1.382,2.42,1.382,4.059C-1975.824,753.068-1976.286,754.422-1977.206,755.484"/>
	<rect x="-1966.925" y="729.821" clip-path="url(#SVGID_5_)" fill="#FFFFFF" width="4.037" height="30.313"/>
	<path clip-path="url(#SVGID_5_)" fill="#FFFFFF" d="M-1954.655,755.642c-0.677,0-1.265,0.248-1.756,0.739
		c-0.489,0.489-0.732,1.072-0.732,1.737c0,0.721,0.234,1.319,0.713,1.798c0.481,0.475,1.075,0.715,1.775,0.715
		c0.699,0,1.286-0.24,1.76-0.715c0.496-0.491,0.737-1.087,0.737-1.779c0-0.679-0.241-1.267-0.737-1.756
		C-1953.383,755.89-1953.97,755.642-1954.655,755.642"/>
	<path clip-path="url(#SVGID_5_)" fill="#FFFFFF" d="M-1937.944,742.168c-2.599,0-4.798,0.887-6.609,2.657
		c-1.802,1.77-2.708,3.919-2.708,6.441c0,2.681,0.887,4.901,2.657,6.676c1.77,1.793,3.968,2.688,6.585,2.688
		c2.641,0,4.874-0.877,6.695-2.633c1.806-1.775,2.705-3.97,2.705-6.588c0-2.6-0.894-4.788-2.691-6.567
		C-1933.127,743.06-1935.342,742.168-1937.944,742.168 M-1934.163,755.503c-0.947,1.017-2.203,1.524-3.782,1.524
		c-1.573,0-2.831-0.517-3.79-1.542c-0.933-1.018-1.395-2.403-1.395-4.149c0-1.626,0.475-2.953,1.432-3.984
		c0.959-1.025,2.207-1.543,3.753-1.543c1.565,0,2.825,0.518,3.782,1.543c0.947,1.018,1.42,2.374,1.42,4.077
		C-1932.743,753.129-1933.216,754.486-1934.163,755.503"/>
	<path clip-path="url(#SVGID_5_)" fill="#FFFFFF" d="M-1918.337,742.622c-0.572,0.285-1.23,0.813-1.975,1.593v-1.561h-4.032v17.479
		h4.032v-9.065c0-3.326,1.105-4.984,3.306-4.984c0.727,0,1.478,0.271,2.24,0.827l1.846-3.697c-1.158-0.693-2.272-1.045-3.336-1.045
		C-1917.051,742.168-1917.751,742.315-1918.337,742.622"/>
	<path clip-path="url(#SVGID_5_)" fill="#FFFFFF" d="M-1897.74,742.654v1.971c-1.46-1.635-3.29-2.457-5.49-2.457
		c-2.513,0-4.532,0.947-6.062,2.837c-1.422,1.784-2.133,3.945-2.133,6.495c0,2.615,0.762,4.802,2.291,6.549
		c1.519,1.724,3.469,2.582,5.851,2.582c2.097,0,3.944-0.817,5.543-2.457v2.439c0,3.627-1.478,5.438-4.432,5.438
		c-1.604,0-2.821-0.546-3.659-1.63c-0.355-0.473-0.614-1.133-0.772-1.997h-4.056c0.241,2.286,1.135,4.075,2.694,5.369
		c1.506,1.256,3.424,1.883,5.761,1.883c2.763,0,4.937-0.912,6.511-2.728c0.836-0.948,1.399-2.076,1.687-3.392
		c0.098-0.477,0.172-1.03,0.223-1.66c0.056-0.628,0.081-1.354,0.081-2.181v-17.062H-1897.74z M-1898.813,755.336
		c-0.901,1.128-2.119,1.691-3.662,1.691c-1.545,0-2.75-0.555-3.627-1.672c-0.8-1.018-1.203-2.319-1.203-3.908
		c0-1.619,0.403-2.93,1.203-3.947c0.887-1.137,2.096-1.71,3.627-1.71c1.436,0,2.614,0.526,3.535,1.563
		c0.909,1.016,1.365,2.374,1.365,4.075C-1897.574,753.018-1897.991,754.319-1898.813,755.336"/>
	<path clip-path="url(#SVGID_5_)" fill="#FFFFFF" d="M-1900.614,699.087h-25.864c-11.001,0-19.951-8.943-19.951-19.95
		c0-11.001,8.95-19.95,19.951-19.95c11.002,0,19.95,8.949,19.95,19.95c0,3.271,2.651,5.915,5.914,5.915
		c3.272,0,5.916-2.644,5.916-5.915c0-17.52-14.255-31.778-31.78-31.778c-17.521,0-31.778,14.259-31.778,31.778
		c0,7.56,2.661,14.494,7.076,19.95h-27.033c-11,0-19.955-8.943-19.955-19.95c0-0.129-0.064-0.23-0.073-0.359
		c-0.758-16.855-14.666-30.338-31.706-30.338c-17.034,0-30.942,13.482-31.705,30.338c-0.008,0.129-0.073,0.23-0.073,0.359
		c0,11.007-8.955,19.95-19.955,19.95h-4.732c-11.001,0-19.955-8.943-19.955-19.95V607.9c0-3.262-2.643-5.913-5.914-5.913
		c-3.263,0-5.914,2.651-5.914,5.913v71.236c0,17.525,14.259,31.779,31.783,31.779h4.732c10.424,0,19.663-5.063,25.462-12.84
		c5.73,8.395,15.368,13.921,26.271,13.921c10.909,0,20.547-5.526,26.271-13.921c5.799,7.776,15.039,12.84,25.462,12.84h77.6
		c3.272,0,5.916-2.643,5.916-5.914C-1894.698,701.739-1897.342,699.087-1900.614,699.087 M-2029.947,700.169
		c-11,0-19.951-8.945-19.951-19.951c0-11.001,8.951-19.949,19.951-19.949c11.001,0,19.952,8.948,19.952,19.949
		C-2009.996,691.224-2018.946,700.169-2029.947,700.169"/>
	<path clip-path="url(#SVGID_5_)" fill="#FFFFFF" d="M-2136.243,601.986c-3.271,0-5.913,2.652-5.913,5.913v71.237
		c0,11.006-8.956,19.951-19.956,19.951h-19.235c-11.001,0-19.95-8.945-19.95-19.951c0-5.867,2.569-11.421,7.059-15.224
		c2.486-2.111,2.796-5.845,0.684-8.334c-2.107-2.491-5.845-2.791-8.335-0.686c-7.143,6.058-11.237,14.893-11.237,24.243
		c0,17.525,14.259,31.779,32.089,31.779h18.925c17.525,0,31.783-14.254,31.783-31.779v-71.237
		C-2130.329,604.639-2132.98,601.986-2136.243,601.986"/>
	<path clip-path="url(#SVGID_5_)" fill="#FFFFFF" d="M-2039.659,629.168c1.284,0.78,2.726,1.184,4.195,1.184
		c0.638,0,1.284-0.079,1.922-0.232c2.098-0.508,3.877-1.807,4.999-3.654c0.019-0.027,0.028-0.06,0.046-0.092
		c1.248,0.767,2.657,1.279,4.168,1.279c0.633,0,1.276-0.078,1.913-0.23c4.334-1.059,7.004-5.438,5.952-9.772
		c-0.49-2.027-1.738-3.77-3.512-4.897c-1.1-0.711-2.57-0.389-3.267,0.72c-0.702,1.101-0.384,2.56,0.72,3.263
		c0.74,0.473,1.261,1.196,1.465,2.033c0.435,1.797-0.674,3.618-2.476,4.057c-1.797,0.448-3.613-0.675-4.057-2.476
		c-0.309-1.266-1.594-2.048-2.855-1.737c-1.275,0.31-2.052,1.588-1.742,2.854c0.212,0.873,0.07,1.774-0.392,2.541
		c-0.472,0.767-1.207,1.303-2.08,1.516c-0.874,0.212-1.779,0.069-2.541-0.396c-0.767-0.463-1.303-1.202-1.515-2.08
		c-0.204-0.832-0.074-1.709,0.369-2.468c0.656-1.127,0.277-2.577-0.855-3.232c-1.128-0.657-2.578-0.278-3.234,0.854
		c-1.058,1.824-1.373,3.94-0.874,5.966C-2042.801,626.267-2041.507,628.046-2039.659,629.168"/>
	<path clip-path="url(#SVGID_5_)" fill="#FFFFFF" d="M-1655.162,715.572c-26.979,0-48.929-21.95-48.929-48.93
		s21.95-48.93,48.929-48.93c26.979,0,48.93,21.95,48.93,48.93S-1628.183,715.572-1655.162,715.572 M-1655.162,624.023
		c-23.5,0-42.617,19.119-42.617,42.619c0,23.499,19.117,42.618,42.617,42.618s42.618-19.119,42.618-42.618
		C-1612.544,643.143-1631.662,624.023-1655.162,624.023"/>
	<path clip-path="url(#SVGID_5_)" fill="#FFFFFF" d="M-1655.162,636.191c-13.699,0-25.313,9.096-29.125,21.565h11.721
		c3.242-6.324,9.824-10.664,17.404-10.664c10.78,0,19.552,8.77,19.552,19.55c0,10.781-8.771,19.551-19.552,19.551
		c-7.58,0-14.164-4.341-17.404-10.665h-11.721c3.813,12.469,15.426,21.565,29.125,21.565c16.791,0,30.451-13.66,30.451-30.451
		C-1624.711,649.853-1638.371,636.191-1655.162,636.191"/>
</g>
<g>
	<path fill="#FFFFFF" d="M92.446-5257.662v-61.214h9.882l9.007,48.884l8.919-48.884h9.969v61.214h-6.559v-51.07l-9.707,51.07h-5.772
		l-9.707-51.07v51.07H92.446z"/>
	<path fill="#FFFFFF" d="M137.741-5257.662v-61.214h6.821v61.214H137.741z"/>
	<path fill="#FFFFFF" d="M152.081-5257.662v-61.214h8.745l13.817,43.724v-43.724h6.208v61.214h-7.083l-15.479-49.758v49.758H152.081
		z"/>
	<path fill="#FFFFFF" d="M188.456-5257.662v-61.214h6.821v61.214H188.456z"/>
	<path fill="#FFFFFF" d="M201.047-5275.064h6.471v3.936c0,5.421,2.361,8.132,7.083,8.132c4.81,0,7.171-2.711,7.171-8.22
		c0-2.798-0.7-5.247-2.099-7.433c-1.312-2.187-3.76-4.723-7.346-7.696c-4.198-3.41-7.171-6.559-8.833-9.357
		s-2.448-5.946-2.448-9.444c0-9.182,4.984-14.604,13.729-14.604c8.745,0,13.467,5.334,13.467,14.779v2.449h-6.471v-2.886
		c0-5.422-2.361-8.133-6.996-8.133s-6.996,2.624-6.996,7.958c0,2.536,0.7,4.81,2.099,6.908c1.399,2.099,3.935,4.635,7.608,7.608
		c4.198,3.498,7.083,6.646,8.658,9.532c1.661,2.798,2.448,6.034,2.448,9.794c0,9.532-5.072,14.954-13.904,14.954
		c-8.832,0-13.642-5.334-13.642-14.866V-5275.064z"/>
	<path fill="#FFFFFF" d="M242.144-5257.662v-55.005h-10.843v-6.209h28.508v6.209h-10.843v55.005H242.144z"/>
	<path fill="#FFFFFF" d="M264.528-5257.662v-61.214h13.38c9.707,0,13.817,4.373,13.817,13.904v3.76
		c0,6.734-2.361,10.844-7.083,12.331v0.087c4.81,1.224,7.171,5.509,7.171,12.767v10.931c0,3.323,0.262,5.771,0.875,7.433h-6.909
		c-0.524-1.749-0.787-4.197-0.787-7.433v-11.281c0-6.559-2.273-8.92-8.132-8.92h-5.509v27.634H264.528z M271.35-5291.504h5.509
		c5.509,0,8.045-2.449,8.045-8.395v-4.373c0-5.946-2.011-8.395-7.17-8.395h-6.384V-5291.504z"/>
	<path fill="#FFFFFF" d="M306.85-5257.662v-26.847l-12.331-34.367h7.258l8.745,25.535l8.745-25.535h6.733l-12.33,34.367v26.847
		H306.85z"/>
	<path fill="#FFFFFF" d="M343.313-5271.916v-32.793c0-9.707,4.984-15.042,13.991-15.042c9.095,0,14.079,5.334,14.079,15.042v32.793
		c0,9.707-4.984,15.128-14.079,15.128C348.297-5256.787,343.313-5262.209,343.313-5271.916z M364.563-5271.479v-33.667
		c0-5.597-2.449-8.395-7.259-8.395s-7.17,2.798-7.17,8.395v33.667c0,5.684,2.36,8.482,7.17,8.482S364.563-5265.794,364.563-5271.479
		z"/>
	<path fill="#FFFFFF" d="M378.201-5257.662v-61.214h24.311v6.209h-17.489v20.813h14.079v6.209h-14.079v27.983H378.201z"/>
	<path fill="#FFFFFF" d="M420.697-5257.662v-61.214h13.38c9.182,0,13.816,4.985,13.816,14.866v5.247
		c0,9.882-4.635,14.779-13.816,14.779h-6.559v26.322H420.697z M427.519-5290.192h6.559c4.897,0,6.996-2.273,6.996-8.22v-6.034
		c0-5.947-2.099-8.22-6.996-8.22h-6.559V-5290.192z"/>
	<path fill="#FFFFFF" d="M453.051-5271.916v-46.96h6.821v47.484c0,5.597,2.36,8.395,7.083,8.395s7.083-2.798,7.083-8.395v-47.484
		h6.646v46.96c0,9.794-4.81,15.128-13.817,15.128C457.773-5256.787,453.051-5262.122,453.051-5271.916z"/>
	<path fill="#FFFFFF" d="M487.853-5257.662v-61.214h13.643c9.706,0,13.816,4.373,13.816,13.904v2.536
		c0,6.559-2.273,10.581-6.821,12.243v0.175c5.16,1.487,7.783,5.772,7.783,12.855v5.247c0,9.532-4.723,14.254-14.079,14.254H487.853z
		 M494.674-5292.729h5.771c5.509,0,8.045-2.448,8.045-8.395v-3.148c0-5.946-2.011-8.395-7.171-8.395h-6.646V-5292.729z
		 M494.674-5263.871h7.521c4.984,0,7.258-2.361,7.258-8.22v-5.247c0-6.646-2.36-9.182-8.657-9.182h-6.121V-5263.871z"/>
	<path fill="#FFFFFF" d="M522.13-5257.662v-61.214h6.821v55.005h17.489v6.209H522.13z"/>
	<path fill="#FFFFFF" d="M551.16-5257.662v-61.214h6.821v61.214H551.16z"/>
	<path fill="#FFFFFF" d="M564.801-5271.391v-33.755c0-9.182,4.896-14.604,13.642-14.604s13.642,5.422,13.642,14.604v6.296h-6.471
		v-6.733c0-5.16-2.711-7.958-6.996-7.958s-6.995,2.798-6.995,7.958v34.629c0,5.159,2.71,7.958,6.995,7.958s6.996-2.798,6.996-7.958
		v-8.57h6.471v8.132c0,9.182-4.896,14.604-13.642,14.604C569.785-5256.787,564.801-5262.209,564.801-5271.391z"/>
	<path fill="#FFFFFF" d="M611.581-5257.662v-61.214h6.821v26.147h14.517v-26.147h6.82v61.214h-6.82v-28.858h-14.517v28.858H611.581z
		"/>
	<path fill="#FFFFFF" d="M647.345-5257.662v-61.214h25.098v6.209h-18.276v19.938h14.866v6.209h-14.866v22.649h18.276v6.209H647.345z
		"/>
	<path fill="#FFFFFF" d="M700.423-5257.662l-2.273-13.03h-14.167l-2.273,13.03h-6.384l11.368-61.214h9.183l11.455,61.214H700.423z
		 M685.032-5276.638H697.1l-6.121-34.455L685.032-5276.638z"/>
	<path fill="#FFFFFF" d="M712.226-5257.662v-61.214h6.821v55.005h17.489v6.209H712.226z"/>
	<path fill="#FFFFFF" d="M742.044-5257.662v-55.005H731.2v-6.209h28.509v6.209h-10.844v55.005H742.044z"/>
	<path fill="#FFFFFF" d="M764.516-5257.662v-61.214h6.821v26.147h14.517v-26.147h6.82v61.214h-6.82v-28.858h-14.517v28.858H764.516z
		"/>
</g>
<g>
	<path fill="#FFFFFF" d="M92.681-5335.833v-75.665H110.3c12.215,0,17.62,5.621,17.62,17.403v4.648
		c0,7.891-2.594,12.863-7.783,14.917v0.216c5.296,1.622,7.891,7.026,7.891,15.998v13.295c0,4.107,0.433,7.134,1.297,9.188h-12.106
		c-0.756-2.162-1.081-5.296-1.081-9.296v-13.836c0-6.918-1.946-9.296-7.458-9.296h-4.107v32.428H92.681z M104.571-5379.071h4.324
		c4.756,0,7.134-2.27,7.134-7.999v-5.837c0-5.188-2.054-7.783-6.053-7.783h-5.404V-5379.071z"/>
	<path fill="#FFFFFF" d="M135.163-5335.833v-75.665h32.428v10.809h-20.538v19.997h16.322v10.81h-16.322v23.24h20.538v10.81H135.163z
		"/>
	<path fill="#FFFFFF" d="M172.996-5335.833v-75.665h17.511c11.782,0,17.728,6.269,17.728,18.7v7.458
		c0,12.431-5.945,18.7-17.728,18.7h-5.621v30.807H172.996z M184.886-5377.449h5.621c3.892,0,5.837-1.946,5.837-7.134v-8.972
		c0-5.188-1.945-7.134-5.837-7.134h-5.621V-5377.449z"/>
	<path fill="#FFFFFF" d="M213.208-5411.499h11.89v58.586c0,4.864,2.054,7.35,6.053,7.35s6.053-2.486,6.053-7.35v-58.586h11.458
		v57.722c0,12.214-6.161,19.024-17.728,19.024c-11.566,0-17.727-6.81-17.727-19.024V-5411.499z"/>
	<path fill="#FFFFFF" d="M256.121-5335.833v-75.665h17.944c12.214,0,17.619,5.621,17.619,17.403v3.026
		c0,7.783-2.594,12.755-7.675,14.809v0.216c5.945,2.054,8.864,7.243,8.864,15.782v6.486c0,11.674-6.27,17.943-18.052,17.943H256.121
		z M268.011-5380.692h4.648c4.756,0,7.134-2.27,7.134-7.999v-4.216c0-5.188-2.054-7.783-6.053-7.783h-5.729V-5380.692z
		 M268.011-5346.643h6.81c4.216,0,6.162-1.945,6.162-7.458v-6.594c0-6.918-2.162-9.188-7.675-9.188h-5.296V-5346.643z"/>
	<path fill="#FFFFFF" d="M298.818-5335.833v-75.665h11.891v64.855h19.565v10.81H298.818z"/>
	<path fill="#FFFFFF" d="M334.922-5335.833v-75.665h11.891v75.665H334.922z"/>
	<path fill="#FFFFFF" d="M353.838-5393.988c0-11.782,6.161-18.592,17.511-18.592s17.511,6.81,17.511,18.592v7.999h-11.241v-8.755
		c0-4.648-1.945-7.026-5.945-7.026c-3.999,0-5.945,2.378-5.945,7.026v42.264c0,4.648,1.946,6.918,5.945,6.918
		c4,0,5.945-2.27,5.945-6.918v-11.025h11.241v10.161c0,11.782-6.161,18.592-17.511,18.592s-17.511-6.81-17.511-18.592V-5393.988z"/>
	<path fill="#FFFFFF" d="M410.371-5393.555c0-12.106,6.377-19.024,18.051-19.024c11.675,0,18.052,6.918,18.052,19.024v39.778
		c0,12.106-6.377,19.024-18.052,19.024c-11.674,0-18.051-6.918-18.051-19.024V-5393.555z M434.584-5394.312
		c0-4.972-2.054-7.458-6.162-7.458c-4.107,0-6.161,2.486-6.161,7.458v41.292c0,4.973,2.054,7.458,6.161,7.458
		c4.108,0,6.162-2.486,6.162-7.458V-5394.312z"/>
	<path fill="#FFFFFF" d="M453.5-5335.833v-75.665h31.455v10.809h-19.564v21.078h15.349v10.81h-15.349v32.968H453.5z"/>
	<path fill="#FFFFFF" d="M505.925-5335.833v-75.665h11.891v64.855h19.564v10.81H505.925z"/>
	<path fill="#FFFFFF" d="M542.137-5335.833v-75.665h32.428v10.809h-20.537v19.997h16.322v10.81h-16.322v23.24h20.537v10.81H542.137z
		"/>
	<path fill="#FFFFFF" d="M579.862-5335.833v-75.665h17.943c12.215,0,17.619,5.621,17.619,17.403v3.026
		c0,7.783-2.594,12.755-7.674,14.809v0.216c5.944,2.054,8.863,7.243,8.863,15.782v6.486c0,11.674-6.27,17.943-18.052,17.943H579.862
		z M591.753-5380.692h4.647c4.757,0,7.135-2.27,7.135-7.999v-4.216c0-5.188-2.054-7.783-6.054-7.783h-5.729V-5380.692z
		 M591.753-5346.643h6.81c4.216,0,6.161-1.945,6.161-7.458v-6.594c0-6.918-2.161-9.188-7.675-9.188h-5.296V-5346.643z"/>
	<path fill="#FFFFFF" d="M648.069-5335.833l-2.054-14.809h-13.728l-2.054,14.809h-11.025l12.322-75.665h16.105l12.323,75.665
		H648.069z M633.801-5360.911h10.701l-5.404-38.157L633.801-5360.911z"/>
	<path fill="#FFFFFF" d="M664.607-5335.833v-75.665h14.701l11.998,45.291v-45.291h10.593v75.665h-11.998l-14.7-55.236v55.236
		H664.607z"/>
	<path fill="#FFFFFF" d="M708.926-5393.555c0-12.106,6.377-19.024,18.051-19.024c11.675,0,18.052,6.918,18.052,19.024v39.778
		c0,12.106-6.377,19.024-18.052,19.024c-11.674,0-18.051-6.918-18.051-19.024V-5393.555z M733.139-5394.312
		c0-4.972-2.054-7.458-6.162-7.458c-4.107,0-6.161,2.486-6.161,7.458v41.292c0,4.973,2.054,7.458,6.161,7.458
		c4.108,0,6.162-2.486,6.162-7.458V-5394.312z"/>
	<path fill="#FFFFFF" d="M752.056-5335.833v-75.665h14.701l11.998,45.291v-45.291h10.593v75.665H777.35l-14.7-55.236v55.236H752.056
		z"/>
</g>
<g>
	<defs>
		<rect id="SVGID_6_" x="-1114.922" y="-5765.226" width="2902.677" height="5612.599"/>
	</defs>
	<clipPath id="SVGID_7_">
		<use xlink:href="#SVGID_6_"  overflow="visible"/>
	</clipPath>
	<path clip-path="url(#SVGID_7_)" fill="#FFFFFF" d="M19.267-5388.709c2.465,0.122,4.955,0.245,7.009,0.346
		c3.108,4.14,7.306,6.019,11.721,7.791c-4.12,1.067-8.24,2.135-12.726,3.296c0.347,2.033,0.674,3.844,0.955,5.662
		c0.083,0.536,0.044,1.092,0.044,1.639c0.005,4.479,0.004,4.479,4.558,4.479c2.63,0,5.279-0.19,7.885,0.06
		c2.133,0.204,4.195,1.059,6.325,1.392c2.102,0.329,3.704,1.384,5.084,2.86c0.651,0.696,1.044,1.641,1.722,2.301
		c1.022,0.995,0.087,1.648-0.449,1.943c-2.49,1.371-5.018,2.702-7.638,3.796c-1.329,0.554-3.235,0.133-4.248,0.942
		c-1.448,1.156-2.848,0.713-4.265,0.767c-1.14,0.043-2.236-0.264-3.398-0.658c-2.086-0.708-4.631-0.755-6.682,0.802
		c-1.594,1.211-2.234,5.505-1.452,7.421c1.158,2.839,3.271,3.775,6.121,3.677c1.368-0.048,2.748-0.101,4.108,0.016
		c1.523,0.132,3.033,0.439,4.544,0.699c1.133,0.193,2.251,0.565,3.387,0.623c2.023,0.103,4.056-0.019,6.081,0.048
		c1.053,0.035,2.31-0.52,3.055,0.824c0.077,0.139,0.517,0.066,0.784,0.111c2.748,0.466,5.528,0.799,8.23,1.451
		c1.904,0.459,3.738,1.274,5.536,2.079c0.973,0.436,1.901,1.089,2.644,1.845c0.232,0.237-0.024,1.489-0.368,1.664
		c-1.621,0.824-3.185,1.582-5.147,1.872c-3.684,0.543-7.405,0.795-11.04,1.393c-3.156,0.52-6.233,0.332-9.339,0.467
		c-1.169,0.051-2.386-0.689-3.537-0.585c-2.908,0.263-5.794,0.747-8.17,2.737c-0.761,0.638-1.649,1.177-2.56,1.573
		c-1.524,0.662-2.083,1.93-1.684,3.292c0.37,1.261,1.366,2.14,3.003,2.161c1.687,0.021,3.37,0.624,5.054,0.619
		c1.459-0.005,3.044-0.231,4.352-0.838c3.463-1.607,7.043-2.259,10.808-1.929c1.029,0.091,2.031,0.478,3.05,0.709
		c1.018,0.231,2.034,0.544,3.067,0.633c3.533,0.303,7.119,0.27,10.592,0.886c1.607,0.286,3,1.776,4.49,2.72
		c-0.008,0.248-0.016,0.496-0.025,0.745c-1.126,0.466-2.257,1.339-3.378,1.328c-4.127-0.042-7.611,1.779-11.223,3.334
		c-1.378,0.594-2.344,1.532-3.297,2.629c-1.523,1.75-3.812,2.137-5.787,3.11c-3.113,1.533-6.23,0.466-9.315,0.808
		c-0.931,0.103-2.068,0.442-2.752-0.786c-0.118-0.211-0.836-0.041-1.254-0.142c-1.457-0.355-2.903-0.752-4.354-1.132
		c-1.11-0.291-2.211-0.621-3.332-0.863c-1.437-0.31-2.893-0.535-4.335-0.829c-0.507-0.103-0.99-0.322-1.494-0.444
		c-0.465-0.112-0.967-0.301-1.413-0.224c-2.542,0.442-5.075,0.939-7.605,1.446c-2.204,0.441-4.41,0.883-6.596,1.407
		c-0.695,0.166-1.328,0.593-2.213,1.005c-0.236,1.823-0.234,3.957-0.827,5.91c-1.008,3.314-0.024,6.735-0.718,9.948
		c-1.166,5.41-0.458,10.813-0.46,16.2c-0.001,1.891,1.455,3.825,2.397,5.663c1.268,2.475,2.687,4.872,4.031,7.309
		c0.389,0.706,0.771,1.419,1.102,2.154c0.289,0.64,0.503,1.316,0.766,2.018c-4.101,1.798-8.259,1.436-12.062,0.84
		c-4.965-0.78-10.019-1.054-14.716-0.24c-5.054,0.877-10.08,1.541-15.026,0.973c-6.802-0.782-13.571-0.245-20.344-0.56
		c-2.887-0.133-4.166-2.539-2.895-5.097c1.38-2.775,2.715-5.58,3.903-8.44c0.496-1.196,0.218-2.806,0.905-3.81
		c1.114-1.628-0.295-3.837,1.482-5.159c0.063-0.048,0.054-0.207,0.059-0.315c0.234-5.178,0.544-10.355,0.656-15.536
		c0.038-1.781-0.395-3.576-0.66-5.358c-0.154-1.036-1.51-1.597-2.448-1.206c-1.143,0.475-2.35,0.8-3.536,1.17
		c-1.427,0.446-2.835,1.067-4.297,1.252c-1.727,0.218-3.503,0.051-5.269-0.197c1.516-0.307,3.057-0.522,4.541-0.94
		c2.618-0.737,5.426-0.783,7.79-2.457c2.708-1.918,2.815-5.89,0.037-7.737c-0.366-0.243-0.925-0.266-1.396-0.272
		c-2.246-0.026-4.493-0.034-6.74-0.007c-4.639,0.055-9.109-3.547-11.055-7.343c-2.418-4.713-2.353-9.602-2.215-14.571
		c0.086-3.103,0.401-6.202,0.688-9.296c0.135-1.463,0.371-2.927,0.696-4.359c0.268-1.182,0.733-2.32,1.113-3.477
		c0.647-1.966,1.218-3.962,1.966-5.889c0.819-2.114,1.761-4.184,2.726-6.237c0.984-2.093,2.02-4.163,3.116-6.2
		c0.458-0.85,1.094-1.613,1.707-2.368c1.205-1.482,2.394-2.984,3.693-4.382c2.246-2.417,4.462-4.881,6.898-7.098
		c1.871-1.701,4.054-3.062,6.113-4.553c0.721-0.522,1.474-1.005,2.235-1.467c1.735-1.052,3.435-2.177,5.24-3.095
		c2.684-1.364,5.417-2.576,8.338-3.471c2.258-0.691,4.547-1.046,6.784-1.635c4.382-1.153,8.756-0.485,13.104-0.452
		c2.078,0.015,4.099,1.576,6.233,2.028c1.884,0.399,3.474,1.194,4.884,2.359c1.591,1.315,3.632,2.064,4.66,4.129
		c0.652,1.309,1.937,2.289,2.742,3.543c0.655,1.021,1.014,2.231,1.514,3.352c0.21,0.472,0.516,0.912,0.655,1.401
		c0.683,2.397,1.279,4.809,1.805,7.251c1.007,4.671,0.336,9.299,0.513,13.935c0.075,1.937-0.211,3.973-0.773,5.831
		c-1.013,3.347-2.525,6.545-3.518,9.897c-1.036,3.501-2.964,6.409-5.137,9.241c-1.537,2.003-3.022,4.053-4.403,6.164
		c-0.61,0.932,0.121,4.994,0.8,5.571c1.2,1.022,4.28,1.058,5.936,0.299c2.663-1.221,4.04-3.641,5.889-5.677
		c2.05-2.259,2.677-5.147,4.171-7.63c1.205-2.002,2.149-4.186,2.991-6.373c0.695-1.806,1.039-3.744,1.598-5.606
		c0.408-1.357,0.936-2.677,1.369-4.027c0.335-1.044,0.684-2.095,0.887-3.17c0.312-1.658,0.412-3.358,0.764-5.005
		c1.263-5.914,0.607-11.897,0.596-17.842c-0.006-3.226-0.895-6.427-2.181-9.438C20.996-5385.205,20.042-5387.069,19.267-5388.709
		 M-33.274-5378.859c-1.68-0.222-4.18,1.732-4.449,3.609c-0.348,2.431-0.687,4.889-0.694,7.336
		c-0.007,2.337,0.376,4.682,0.661,7.014c0.279,2.287,0.62,4.569,0.995,6.842c0.178,1.084,0.419,2.171,0.771,3.209
		c0.615,1.814,1.382,3.578,2.003,5.39c0.648,1.89,1.193,3.815,1.796,5.721c0.637,2.012,1.304,4.016,1.934,6.032
		c0.531,1.701,0.991,3.425,1.552,5.116c0.711,2.143,1.659,4.221,2.201,6.402c0.644,2.592,1.042,5.253,1.404,7.904
		c0.339,2.481,0.675,4.986,0.693,7.483c0.062,8.298,0.273,16.605-0.657,24.878c-0.03,0.27-0.039,0.546-0.098,0.81
		c-0.426,1.879-0.856,3.757-1.296,5.633c-0.324,1.378-0.618,2.766-1.008,4.126c-0.409,1.426-0.903,2.829-1.385,4.233
		c-0.656,1.913-1.33,3.818-2.006,5.723c-0.469,1.321-1.097,2.609-1.357,3.968c-0.091,0.48,0.753,1.645,1.075,1.611
		c1.635-0.173,3.499-0.249,4.784-1.106c1.409-0.938,2.706-2.187,3.235-4.238c0.727-2.824,2.226-5.452,3.43-8.148
		c0.203-0.453,0.691-0.784,0.872-1.24c0.893-2.253,1.701-4.539,2.592-6.793c0.562-1.421,1.343-2.766,1.794-4.216
		c0.445-1.427,0.597-2.944,0.877-4.421c0.161-0.018,0.322-0.037,0.483-0.055c0.695,2.267,1.845,4.505,1.994,6.808
		c0.334,5.169,0.278,10.379-0.688,15.512c-0.222,1.174-0.576,2.351-1.059,3.443c-0.67,1.511-0.401,2.621,1.062,3.438
		c2.994,1.673,6.725-0.381,7.023-3.798c0.142-1.633,0.33-3.3,0.808-4.856c0.704-2.29,1.4-4.549,1.315-6.976
		c-0.009-0.265,0.066-0.534,0.11-0.801c0.187-1.132,0.328-2.275,0.581-3.393c0.255-1.127,0.868-2.221,0.899-3.342
		c0.111-4.046,0.227-8.108-0.007-12.144c-0.229-3.956,0.768-7.928-0.779-11.913c-0.805-2.074,0.103-4.642-0.753-6.971
		c-0.535-1.457-0.474-3.126-0.733-4.692c-0.464-2.807-1.107-5.593-1.409-8.417c-0.24-2.247-0.66-4.354-1.56-6.462
		c-0.809-1.894-1.125-4.015-1.524-6.063c-0.533-2.729-1.055-5.471-1.364-8.231c-0.364-3.252-0.548-6.528-0.708-9.798
		c-0.102-2.075-0.132-4.166,0.005-6.236c0.235-3.535-0.388-7.055,0.545-10.636c0.77-2.958,0.532-6.172,0.824-9.264
		c0.128-1.363-0.611-2.24-1.471-3.025c-1.022-0.933-2.946-0.193-3.168,1.157c-0.246,1.509-0.497,3.018-0.69,4.533
		c-0.261,2.057-0.455,4.121-0.7,6.179c-0.323,2.705,0.259,5.372-0.788,8.177c-0.99,2.654-0.583,5.816-0.876,8.746
		c-0.135,1.352-0.323,2.734-0.752,4.014c-0.899,2.684-2.005,5.299-2.969,7.962c-0.855,2.361-4.09,3.774-5.698,2.288
		c-1.164-1.076-2.39-2.362-2.906-3.798c-0.826-2.301-1.174-4.79-1.558-7.226c-0.297-1.886,0.008-3.772-0.611-5.73
		c-0.724-2.288-0.741-4.844-0.791-7.29C-31.566-5369.599-31.281-5374.385-33.274-5378.859 M-51.295-5361.293
		c-1.448,0.101-2.711-0.171-3.081,0.283c-1.053,1.294-2.227,2.807-2.473,4.372c-0.55,3.486-0.744,7.057-0.745,10.592
		c-0.001,3.536,0.316,7.082,0.68,10.604c0.175,1.683,0.756,3.328,1.201,4.978c0.329,1.218,0.764,2.407,1.098,3.624
		c0.32,1.162,0.511,2.363,0.866,3.513c0.614,1.987,1.356,3.935,1.959,5.925c0.348,1.151,0.426,2.386,0.813,3.521
		c0.388,1.137,1.16,2.152,1.495,3.298c0.783,2.689,1.568,5.397,2.046,8.15c0.434,2.502,0.569,5.012,1.626,7.418
		c0.616,1.401,0.711,3.104,0.738,4.676c0.091,5.355,0.279,10.722-0.668,16.036c-0.021,0.108,0.002,0.246-0.057,0.319
		c-1.498,1.852-1.297,4.284-2.174,6.376c-0.93,2.221-1.536,4.55-3.194,6.409c-1.203,1.349-1.759,2.889-1.14,4.682
		c2.79,0.331,4.754-0.477,5.723-2.293c1.41-2.643,2.913-5.239,4.225-7.929c0.799-1.641,1.358-3.406,1.94-5.144
		c0.377-1.126,0.6-2.303,0.893-3.458c0.197,0.035,0.395,0.07,0.592,0.105c-0.314,3.341-0.601,6.685-0.962,10.021
		c-0.1,0.918-0.431,1.811-0.642,2.718c-0.274,1.172-0.19,2.641-0.883,3.449c-0.966,1.126-0.729,2.088-0.595,3.349
		c1.128,0,2.168-0.077,3.191,0.017c1.894,0.174,3.103-0.626,3.65-2.4c0.337-1.097,0.475-2.26,0.862-3.336
		c0.633-1.759,1.587-3.422,2.052-5.217c0.474-1.833,0.526-3.776,0.757-5.671c0.033-0.271,0.01-0.549,0.058-0.816
		c0.443-2.477,1.306-4.956,1.273-7.424c-0.115-8.679,0.757-17.384-0.613-26.038c-0.375-2.365-0.497-4.769-0.738-7.155
		c-0.01-0.108-0.036-0.215-0.068-0.318c-0.515-1.645-1.163-3.261-1.512-4.94c-0.387-1.859-0.5-3.774-0.733-5.664
		c-0.027-0.216-0.033-0.438-0.09-0.646c-0.654-2.353-1.527-4.669-1.911-7.065c-0.343-2.131-0.721-4.154-1.59-6.178
		c-0.855-1.991-1.135-4.241-1.563-6.398c-0.329-1.66-0.41-3.37-0.762-5.024c-0.287-1.35-0.86-2.637-1.218-3.976
		c-0.41-1.533-0.709-3.096-1.081-4.64c-0.257-1.063-0.43-2.176-0.892-3.146c-0.208-0.434-1.309-0.947-1.53-0.783
		c-0.839,0.62-1.887,1.411-2.089,2.31c-0.201,0.901,0.611,1.988,0.805,3.027c0.311,1.661,0.463,3.351,0.708,5.025
		c0.477,3.249,0.981,6.493,1.455,9.743c0.259,1.782,0.549,3.563,0.702,5.354c0.286,3.371,0.564,6.746,0.671,10.125
		c0.035,1.108-0.301,2.312-0.769,3.334c-0.813,1.774-2.524,1.918-4.328,1.325c-2.945-0.969-2.662-3.786-3.481-5.777
		c-0.786-1.909-0.37-4.275-0.691-6.466c-0.675-4.623-0.631-9.355-0.817-14.045c-0.078-1.966-0.106-3.947,0.053-5.905
		C-52.079-5356.622-51.663-5358.758-51.295-5361.293 M-28.774-5357.987c0.198,1.014-0.5,2.691,0.757,4.3
		c0.889,1.139,0.985,2.864,1.697,4.187c0.299,0.553,1.281,1.035,1.942,1.022c0.798-0.016,2.022-0.384,2.296-0.962
		c0.955-2.019,1.962-4.144,2.246-6.32c0.479-3.667,0.175-7.384-1.379-10.846c-0.992-2.21-2.901-2.551-4.539-0.779
		C-28.03-5364.923-29.092-5361.975-28.774-5357.987 M-50.161-5333.58c0.279,2.015,0.268,3.887,0.867,5.539
		c0.372,1.027,0.622,2.649,2.518,2.629c2.548-0.027,4.417-1.983,4.02-4.535c-0.117-0.758-0.387-1.507-0.687-2.218
		c-0.528-1.253-1.032-2.535-1.732-3.693c-0.722-1.192-2.158-1.046-3.081-0.654C-49.441-5336.008-50.531-5334.998-50.161-5333.58"/>
	<path clip-path="url(#SVGID_7_)" fill="#FFFFFF" d="M26.519-5402.455c-0.779,1.206-1.58,1.822-2.725,2.128
		c-2.202,0.591-4.377,1.287-6.577,1.889c-1.271,0.347-2.686,0.365-3.83,0.94c-1.873,0.941-3.171-0.33-4.563-0.929
		c-2.25-0.969-4.301-2.394-6.545-3.38c-1.646-0.723-3.462-1.068-5.211-1.552c-3.025-0.837-6.226-0.957-9.195-1.688
		c-2.432-0.599-4.767-0.746-7.093-0.605c-3.061,0.186-6.085,0.969-9.127,1.483c-1.662,0.281-3.335,0.507-4.992,0.816
		c-1.027,0.19-2.044,0.454-3.048,0.746c-1.437,0.417-2.89,0.809-4.273,1.367c-0.906,0.367-1.701,1.008-2.576,1.544
		c-0.468-2.23-2.257-3.669-4.45-3.668c-2.356,0-4.861-0.503-7.029,0.136c-2.832,0.834-5.586,0.29-8.356,0.553
		c-0.321,0.031-0.65-0.023-1.016-0.039c2.112-3.058,5.167-4.848,8.37-6.272c2.038-0.906,4.373-1.122,6.527-1.798
		c2.752-0.863,5.535-1.32,8.421-1.369c0.963-0.017,1.959-0.415,2.849-0.833c0.236-0.11,0.347-1.057,0.148-1.418
		c-0.724-1.315-1.633-2.528-2.408-3.817c-0.236-0.393-0.263-0.91-0.488-1.755c-1.303,0.269-2.621,0.542-3.939,0.813
		c-0.159,0.033-0.322,0.089-0.48,0.081c-2.292-0.124-4.264,1.014-6.385,1.574c-1.45,0.383-2.961,0.534-4.584,0.814
		c0.024-0.509-0.086-0.943,0.073-1.095c1.846-1.769,3.394-3.88,6.016-4.733c0.98-0.319,1.736-1.264,2.672-1.785
		c2.627-1.463,5.338-2.779,7.931-4.297c2.152-1.26,4.137-2.803,6.283-4.073c1.549-0.917,3.262-1.551,4.861-2.388
		c1.116-0.583,2.156-1.308,3.243-1.947c2.286-1.343,4.761-0.834,6.559,1.066c2.698,2.85,5.531,5.573,8.292,8.364
		c0.704,0.71,1.279,1.566,2.047,2.191c1.774,1.446,3.576,2.872,5.479,4.138c0.791,0.527,1.852,0.695,2.816,0.908
		c2.3,0.51,4.63,0.892,6.917,1.452c0.698,0.171,1.296,0.752,1.939,1.145c-0.203,0.332-0.355,0.901-0.617,0.957
		c-2.463,0.529-5.01,0.761-7.404,1.497c-2.392,0.735-4.654,1.912-6.939,2.97c-1.125,0.521-0.971,1.015,0.046,1.709
		c1.981,1.353,3.905,2.406,6.493,2.28c2.367-0.115,4.794,0.248,7.139,0.691c1.512,0.286,2.909,1.139,4.385,1.663
		c1.44,0.51,2.902,0.971,4.376,1.372c2.609,0.711,5.23,1.376,7.855,2.02C24.924-5402.461,25.486-5402.513,26.519-5402.455"/>
	<path clip-path="url(#SVGID_7_)" fill="#FFFFFF" d="M-82.738-5307.043c-0.825,0.042-1.254,0.126-1.667,0.075
		c-1.577-0.197-3.147-0.606-4.724-0.631c-5.199-0.082-10.406,0.112-15.597-0.098c-2.178-0.089-4.314-0.986-6.49-1.4
		c-2.561-0.488-5.151-1.486-7.721-0.077c-0.447,0.245-0.717,0.794-1.132,1.124c-0.255,0.203-0.679,0.414-0.936,0.333
		c-0.242-0.076-0.51-0.528-0.517-0.82c-0.046-1.858-0.37-3.81,0.096-5.544c0.323-1.2,1.597-2.393,2.752-3.059
		c1.407-0.811,3.119-1.399,4.728-1.473c1.802-0.084,3.757,0.211,5.431,0.878c4.201,1.674,8.179,1.752,12.212-0.464
		c2.364-1.299,4.842-2.407,7.325-3.471c1.528-0.656,2.798,0.369,3.184,2.029c0.554,2.379,1.385,4.692,1.981,7.062
		C-83.37-5310.814-83.111-5309.003-82.738-5307.043"/>
	<path clip-path="url(#SVGID_7_)" fill="#FFFFFF" d="M-80.899-5356.429c-0.518,0.926-0.872,1.546-1.212,2.174
		c-0.075,0.139-0.114,0.302-0.146,0.458c-0.241,1.175-0.436,2.361-0.721,3.524c-0.474,1.933-0.965,3.863-1.53,5.77
		c-0.275,0.927-2.419,1.372-3.802,1.006c-1.16-0.306-2.373-0.65-3.549-0.609c-3.433,0.121-6.892,0.234-10.271,0.779
		c-1.004,0.162-2.354,1.362-3.121,0.701c-1.316-1.133-2.73-0.606-4.551-1.034c0.698-0.89,1.158-1.72,1.835-2.294
		c2.533-2.146,5.38-3.801,8.279-5.432c2.375-1.335,4.844-2.207,7.41-2.897c2.116-0.57,4.339-0.772,6.415-1.444
		c1.185-0.384,2.235-1.134,3.571-0.876C-82.032-5356.552-81.767-5356.535-80.899-5356.429"/>
	<path clip-path="url(#SVGID_7_)" fill="#FFFFFF" d="M-51.198-5395.538c-1.195,1.006-2.342,1.954-3.468,2.924
		c-2.062,1.775-4.101,3.577-6.18,5.332c-0.254,0.215-0.693,0.295-1.046,0.296c-7.336,0.016-14.672,0.013-22.008,0.002
		c-0.302-0.001-0.604-0.127-0.993-0.215c1.095-2.487,2.805-4.262,5.116-5.373c1.106-0.532,2.364-0.818,3.585-1.026
		c1.931-0.329,3.899-0.436,5.832-0.754c2.112-0.349,4.2-0.838,6.303-1.246c0.425-0.083,0.87-0.052,1.3-0.115
		c1.098-0.16,2.436,0.55,3.196-0.861c2.173,0.223,4.454-0.868,6.54,0.611C-52.583-5395.651-51.896-5395.688-51.198-5395.538"/>
	<path clip-path="url(#SVGID_7_)" fill="#FFFFFF" d="M-86.773-5327.742c-2.435,0-4.763,0.412-6.879-0.081
		c-5.241-1.22-10.5-0.243-15.732-0.61c-0.204-0.014-0.407-0.052-0.533-0.069c0.028-3.133,2.843-3.238,4.683-4.115
		c2.956-1.41,6.122-2.202,9.463-2.655c2.361-0.321,4.691-0.445,7.04-0.515c2.521-0.077,3.558,1.298,2.861,3.707
		c-0.194,0.669-0.724,1.25-0.868,1.921C-86.892-5329.442-86.773-5328.667-86.773-5327.742"/>
	<path clip-path="url(#SVGID_7_)" fill="#FFFFFF" d="M-74.434-5370.211c-6.266,0.55-8.785,0.165-10.401-1.731
		c0.81-0.5,1.54-1.183,2.396-1.435c2.337-0.686,4.73-1.18,7.095-1.772c0.955-0.24,1.888-0.578,2.849-0.787
		c0.37-0.08,1.015-0.055,1.135,0.152c0.171,0.298,0.116,0.895-0.085,1.21C-72.384-5373.107-73.407-5371.694-74.434-5370.211"/>
</g>
<g>
	<defs>
		<path id="SVGID_8_" d="M-454.341-4930.426c0,76.61,62.106,138.716,138.717,138.716c76.613,0,138.718-62.106,138.718-138.716
			c0-76.613-62.105-138.719-138.718-138.719C-392.235-5069.146-454.341-5007.04-454.341-4930.426"/>
	</defs>
	<clipPath id="SVGID_9_">
		<use xlink:href="#SVGID_8_"  overflow="visible"/>
	</clipPath>
	
		<linearGradient id="SVGID_10_" gradientUnits="userSpaceOnUse" x1="3585.5083" y1="1330.4824" x2="3586.5081" y2="1330.4824" gradientTransform="matrix(240.7951 137.8912 137.8912 -240.7951 -1047270.5 -179035.6719)">
		<stop  offset="0" style="stop-color:#009776"/>
		<stop  offset="0.0061" style="stop-color:#009776"/>
		<stop  offset="0.0429" style="stop-color:#019474"/>
		<stop  offset="1" style="stop-color:#0C5041"/>
		<stop  offset="1" style="stop-color:#FFF3E9"/>
	</linearGradient>
	<polygon clip-path="url(#SVGID_9_)" fill="url(#SVGID_10_)" points="-385.829,-5188.785 -57.266,-5000.633 -245.417,-4672.07 
		-573.981,-4860.222 	"/>
</g>
<g>
	<defs>
		<rect id="SVGID_11_" x="-555.568" y="-5188.417" width="2902.677" height="5612.599"/>
	</defs>
	<clipPath id="SVGID_12_">
		<use xlink:href="#SVGID_11_"  overflow="visible"/>
	</clipPath>
	<path clip-path="url(#SVGID_12_)" fill="#FFFFFF" d="M-284.864-4924.321h-41.848c-16.479,0-24.731,6.975-24.731,20.771
		c0,12.34,9.529,19.8,24.731,19.8h28.384v17.577h-27.107c-25.038,0-42.947-14.895-42.947-37.862c0-19.647,11.727-34.235,29.79-37.25
		c-3.96-6.975-5.877-13.618-5.877-19.8c0-19.826,14.129-33.596,32.677-33.596c11.88,0,20.592,5.544,25.983,16.785l-13.311,6.336
		c-2.708-5.698-6.975-8.559-13.004-8.559c-9.836,0-16.019,7.767-16.019,18.702c0,8.405,5.084,17.449,10.935,19.493h32.344V-4924.321
		z"/>
</g>
<path d="M4568.358-2235.24c-0.645,0-0.961,0.27-0.961,0.434c0,0.609,0.428,1.734,0.75,2.965c0.035,0.135,0.07,0.352,0.07,0.521
	c0,0.299-0.064,0.58-0.135,0.861l-0.141-0.018c-0.012-0.691-0.48-1.869-0.855-3.094c-0.059-0.199-0.111-0.486-0.111-0.674
	c0-0.264,0.053-0.521,0.152-0.773c0.123-0.328,0.293-0.604,0.527-0.762c-0.047-0.258-0.088-0.551-0.088-0.762
	c0-0.24,0.17-0.563,0.328-0.703s0.34-0.24,0.545-0.24c0.27,0,0.516,0.076,0.738,0.258c0.363,0.305,0.662,0.686,0.896,1.143
	c0.047,0.1,0.076,0.258,0.076,0.375c0,0.193-0.105,0.445-0.199,0.621C4569.418-2235.169,4568.891-2235.24,4568.358-2235.24z
	 M4569.53-2235.908c-0.334-0.445-0.691-0.879-1.248-0.879c-0.117,0-0.24,0.023-0.357,0.064l0.018,0.305
	c-0.035,0.217-0.094,0.428-0.146,0.563c0.205-0.07,0.498-0.105,0.797-0.105c0.199,0,0.58,0.041,0.914,0.117L4569.53-2235.908z
	 M4575.692-2236.476c-0.111-0.498-0.281-0.732-0.445-0.732c-0.258,0-0.621,0.17-0.932,0.416c-0.328,0.258-0.574,0.545-0.574,0.756
	c0,0.521,1.523,0.457,1.934,0.791c0.152,0.141,0.258,0.328,0.258,0.656c0,0.311-0.211,0.826-0.48,1.084
	c-0.574,0.539-1.471,0.973-2.262,0.973c-1.365,0-2.027-0.92-2.027-2.15c0-0.545,0.123-1.014,0.311-1.447l0.229,0.076
	c-0.129,0.393-0.182,0.727-0.182,1.025c0,1.107,0.756,1.705,1.723,1.705c0.363,0,0.99-0.141,1.582-0.486
	c0.375-0.223,0.727-0.498,0.727-0.586c0-0.176-0.428-0.311-0.914-0.381c-0.516-0.076-0.92-0.188-1.072-0.357
	c-0.123-0.135-0.217-0.299-0.217-0.527c0-0.592,0.252-1.09,0.65-1.506c0.41-0.422,1.049-0.832,1.453-0.832
	c0.188,0,0.322,0.094,0.428,0.311c0.094,0.199,0.141,0.393,0.141,0.551c0,0.141-0.141,0.445-0.24,0.65L4575.692-2236.476z
	 M4572.933-2230.751c-0.24-0.229-0.451-0.416-0.686-0.609c0.152-0.211,0.316-0.404,0.463-0.557c0.24,0.188,0.439,0.381,0.668,0.627
	C4573.214-2231.056,4573.097-2230.904,4572.933-2230.751z M4574.063-2230.828c-0.24-0.229-0.451-0.416-0.686-0.609
	c0.152-0.211,0.316-0.404,0.463-0.557c0.24,0.188,0.439,0.381,0.668,0.627C4574.345-2231.132,4574.228-2230.98,4574.063-2230.828z
	 M4577.33-2235.826c0.018,0.504,0.229,0.902,0.961,0.902c0.457,0,0.844-0.141,1.271-0.381c0.076-0.041,0.117-0.094,0.117-0.141
	c0-0.316-0.205-0.732-0.551-1.113c-0.334-0.357-0.779-0.674-1.195-0.885c-0.141-0.07-0.188-0.146-0.188-0.217
	c0-0.146,0.164-0.451,0.299-0.668l0.047-0.006c0.475,0.293,1.008,0.727,1.4,1.213c0.357,0.445,0.58,0.896,0.58,1.389
	c0,0.363-0.094,0.709-0.246,1.025c-0.521,0.311-1.078,0.545-1.629,0.545c-0.668,0-1.125-0.369-1.125-1.236
	c0-0.094,0-0.24,0.029-0.428H4577.33z M4584.755-2240.232c0,0.416,0.182,0.873,0.492,1.354c-0.111,0.111-0.24,0.217-0.398,0.328
	c0.029,0.756,0.07,1.688,0.07,2.443c0,0.398,0,0.891-0.287,1.723c-0.182,0.293-0.41,0.492-0.668,0.656
	c-0.375,0.246-0.838,0.369-1.225,0.369c-0.51,0-0.932-0.176-1.219-0.504c-0.27-0.311-0.416-0.756-0.416-1.324
	c0-0.492,0.158-0.984,0.393-1.477l0.211,0.082c-0.146,0.334-0.246,0.68-0.246,1.02c0,0.346,0.094,0.645,0.299,0.908
	c0.24,0.316,0.598,0.475,1.014,0.475c0.393,0,0.727-0.111,1.014-0.281c0.293-0.152,0.521-0.334,0.639-0.551
	c0.012-0.123,0.018-0.246,0.018-0.363c0-0.885-0.059-1.969-0.152-3.275c-0.018-0.24-0.053-0.51-0.053-0.768
	c0-0.17,0.018-0.328,0.123-0.463c0.082-0.123,0.205-0.246,0.352-0.369L4584.755-2240.232z M4590.668-2236.476
	c-0.111-0.498-0.281-0.732-0.445-0.732c-0.258,0-0.621,0.17-0.932,0.416c-0.328,0.258-0.574,0.545-0.574,0.756
	c0,0.521,1.523,0.457,1.934,0.791c0.152,0.141,0.258,0.328,0.258,0.656c0,0.311-0.211,0.826-0.48,1.084
	c-0.574,0.539-1.471,0.973-2.262,0.973c-1.365,0-2.027-0.92-2.027-2.15c0-0.545,0.123-1.014,0.311-1.447l0.229,0.076
	c-0.129,0.393-0.182,0.727-0.182,1.025c0,1.107,0.756,1.705,1.723,1.705c0.363,0,0.99-0.141,1.582-0.486
	c0.375-0.223,0.727-0.498,0.727-0.586c0-0.176-0.428-0.311-0.914-0.381c-0.516-0.076-0.92-0.188-1.072-0.357
	c-0.123-0.135-0.217-0.299-0.217-0.527c0-0.592,0.252-1.09,0.65-1.506c0.41-0.422,1.049-0.832,1.453-0.832
	c0.188,0,0.322,0.094,0.428,0.311c0.094,0.199,0.141,0.393,0.141,0.551c0,0.141-0.141,0.445-0.24,0.65L4590.668-2236.476z
	 M4587.908-2230.751c-0.24-0.229-0.451-0.416-0.686-0.609c0.152-0.211,0.316-0.404,0.463-0.557c0.24,0.188,0.439,0.381,0.668,0.627
	C4588.189-2231.056,4588.072-2230.904,4587.908-2230.751z M4589.039-2230.828c-0.24-0.229-0.451-0.416-0.686-0.609
	c0.152-0.211,0.316-0.404,0.463-0.557c0.24,0.188,0.439,0.381,0.668,0.627C4589.32-2231.132,4589.203-2230.98,4589.039-2230.828z
	 M4594.949-2233.998c-1.623,0-2.871-0.598-2.871-2.039c0-0.475,0.094-0.943,0.346-1.418l0.234,0.1
	c-0.111,0.334-0.17,0.633-0.17,0.891c0,1.184,1.166,1.67,2.637,1.67c0.686,0,1.354-0.1,2.004-0.252
	c0.27-0.064,0.533-0.135,0.773-0.24c0.047-0.018,0.059-0.047,0.059-0.064c0-0.275-0.281-0.85-0.586-1.447
	c0.141-0.252,0.287-0.475,0.439-0.662h0.029c0.27,0.475,0.586,1.207,0.586,1.787c0,0.439-0.146,0.703-0.311,0.979
	C4597.609-2234.384,4596.109-2233.998,4594.949-2233.998z M4595.154-2232.943c0.24,0.176,0.475,0.387,0.703,0.627
	c-0.129,0.211-0.287,0.404-0.486,0.574c-0.229-0.217-0.457-0.404-0.691-0.604
	C4594.837-2232.556,4594.996-2232.761,4595.154-2232.943z"/>
<g>
	<defs>
		<path id="SVGID_13_" d="M-1009.964-125.313c-69.209,0-125.314,56.104-125.314,125.313s56.105,125.314,125.314,125.314h790.67
			C-150.085,125.314-93.98,69.209-93.98,0s-56.105-125.313-125.314-125.313H-1009.964z"/>
	</defs>
	<clipPath id="SVGID_14_">
		<use xlink:href="#SVGID_13_"  overflow="visible"/>
	</clipPath>
	
		<linearGradient id="SVGID_15_" gradientUnits="userSpaceOnUse" x1="3600.6616" y1="1331.3496" x2="3601.6589" y2="1331.3496" gradientTransform="matrix(0 1348.4919 1348.4919 0 -1795927.375 -4855929)">
		<stop  offset="0" style="stop-color:#FFFFFF"/>
		<stop  offset="1" style="stop-color:#000000"/>
	</linearGradient>
	<rect x="-1135.278" y="-125.313" clip-path="url(#SVGID_14_)" fill="url(#SVGID_15_)" width="1041.298" height="250.628"/>
</g>
<g>
	<defs>
		<path id="SVGID_16_" d="M1634.634,0h-608.24h-182.43c-69.208,0-125.313,56.104-125.313,125.313s56.105,125.314,125.313,125.314
			h182.43h608.24h182.429c69.209,0,125.313-56.105,125.313-125.314S1886.272,0,1817.063,0H1634.634z"/>
	</defs>
	<clipPath id="SVGID_17_">
		<use xlink:href="#SVGID_16_"  overflow="visible"/>
	</clipPath>
	
		<linearGradient id="SVGID_18_" gradientUnits="userSpaceOnUse" x1="3600.7539" y1="1331.9102" x2="3601.7539" y2="1331.9102" gradientTransform="matrix(0 1348.4919 1348.4919 0 -1794738.375 -4855929)">
		<stop  offset="0" style="stop-color:#FFFFFF"/>
		<stop  offset="1" style="stop-color:#000000"/>
	</linearGradient>
	<rect x="718.651" clip-path="url(#SVGID_17_)" fill="url(#SVGID_18_)" width="1223.726" height="250.628"/>
</g>
<g>
	<defs>
		<polygon id="SVGID_19_" points="260.177,355.098 260.177,466.001 272.535,466.001 272.535,415.303 298.041,415.303 
			298.041,404.053 272.535,404.053 272.535,366.348 304.221,366.348 304.221,355.098 		"/>
	</defs>
	<clipPath id="SVGID_20_">
		<use xlink:href="#SVGID_19_"  overflow="visible"/>
	</clipPath>
	
		<linearGradient id="SVGID_21_" gradientUnits="userSpaceOnUse" x1="3599.9214" y1="1334.3047" x2="3600.9214" y2="1334.3047" gradientTransform="matrix(3071.9939 5840.3604 5840.3604 -3071.9939 -18853424 -16929162)">
		<stop  offset="0" style="stop-color:#146BCA"/>
		<stop  offset="1" style="stop-color:#273E7C"/>
	</linearGradient>
	<polygon clip-path="url(#SVGID_20_)" fill="url(#SVGID_21_)" points="294.676,336.951 349.914,441.967 269.721,484.148 
		214.483,379.133 	"/>
</g>
<g>
	<defs>
		<path id="SVGID_22_" d="M322.441,442.869v-33.588c0-9.347,3.803-13.942,11.567-13.942c7.603,0,11.404,4.596,11.404,13.942v33.588
			c0,9.347-3.802,14.102-11.404,14.102C326.244,456.971,322.441,452.216,322.441,442.869 M310.559,410.391v31.369
			c0,16.479,8.238,25.824,23.449,25.824c15.051,0,23.446-9.346,23.446-25.824v-31.369c0-16.477-8.396-25.666-23.446-25.666
			C318.798,384.725,310.559,393.914,310.559,410.391"/>
	</defs>
	<clipPath id="SVGID_23_">
		<use xlink:href="#SVGID_22_"  overflow="visible"/>
	</clipPath>
	
		<linearGradient id="SVGID_24_" gradientUnits="userSpaceOnUse" x1="3599.8989" y1="1334.3047" x2="3600.9333" y2="1334.3047" gradientTransform="matrix(3071.9939 5840.3604 5840.3604 -3071.9939 -18853392 -16929180)">
		<stop  offset="0" style="stop-color:#146BCA"/>
		<stop  offset="1" style="stop-color:#273E7C"/>
	</linearGradient>
	<polygon clip-path="url(#SVGID_23_)" fill="url(#SVGID_24_)" points="347.292,365.402 391.594,449.627 320.721,486.906 
		276.42,402.681 	"/>
</g>
<g>
	<defs>
		<path id="SVGID_25_" d="M379.794,399.459l-0.16-13.149h-10.298v79.691h11.884v-46.422c0-15.367,5.229-22.972,15.526-22.972
			c1.902,0,3.485,0.316,4.91,0.793v-11.725c-1.268-0.635-3.008-0.951-5.228-0.951C388.032,384.725,382.487,389.637,379.794,399.459"
			/>
	</defs>
	<clipPath id="SVGID_26_">
		<use xlink:href="#SVGID_25_"  overflow="visible"/>
	</clipPath>
	
		<linearGradient id="SVGID_27_" gradientUnits="userSpaceOnUse" x1="3599.9214" y1="1334.3047" x2="3600.9214" y2="1334.3047" gradientTransform="matrix(3071.9939 5840.3604 5840.3604 -3071.9939 -18853352 -16929200)">
		<stop  offset="0" style="stop-color:#146BCA"/>
		<stop  offset="1" style="stop-color:#273E7C"/>
	</linearGradient>
	<polygon clip-path="url(#SVGID_26_)" fill="url(#SVGID_27_)" points="394.651,371.408 435.142,448.388 376.34,479.317 
		335.849,402.338 	"/>
</g>
<g>
	<defs>
		<path id="SVGID_28_" d="M453.623,396.448c-2.376-7.763-7.922-11.724-16.478-11.724c-8.079,0-13.783,3.961-17.11,12.041
			l-0.159-10.456h-10.298v79.691h11.883v-52.917c0-11.406,4.911-17.745,12.042-17.745c6.338,0,9.506,4.12,9.506,12.518v58.145
			h12.041v-52.917c0-11.406,4.91-17.745,12.039-17.745c6.339,0,9.507,4.12,9.507,12.518v58.145h11.883v-58.938
			c0-14.893-6.021-22.339-17.903-22.339C462.495,384.725,456.95,388.686,453.623,396.448"/>
	</defs>
	<clipPath id="SVGID_29_">
		<use xlink:href="#SVGID_28_"  overflow="visible"/>
	</clipPath>
	
		<linearGradient id="SVGID_30_" gradientUnits="userSpaceOnUse" x1="3599.9209" y1="1334.3047" x2="3600.9209" y2="1334.3047" gradientTransform="matrix(3071.9939 5840.3604 5840.3604 -3071.9939 -18853304 -16929226)">
		<stop  offset="0" style="stop-color:#146BCA"/>
		<stop  offset="1" style="stop-color:#273E7C"/>
	</linearGradient>
	<polygon clip-path="url(#SVGID_29_)" fill="url(#SVGID_30_)" points="471.38,352.217 521.964,448.388 426.677,498.509 
		376.092,402.338 	"/>
</g>
<g>
	<defs>
		<polygon id="SVGID_31_" points="593.545,397.219 647.47,451.144 701.395,397.219 		"/>
	</defs>
	<clipPath id="SVGID_32_">
		<use xlink:href="#SVGID_31_"  overflow="visible"/>
	</clipPath>
	
		<linearGradient id="SVGID_33_" gradientUnits="userSpaceOnUse" x1="3599.9053" y1="1334.3145" x2="3600.9387" y2="1334.3145" gradientTransform="matrix(3071.9939 5840.3604 5840.3604 -3071.9939 -18853200 -16929278)">
		<stop  offset="0" style="stop-color:#146BCA"/>
		<stop  offset="1" style="stop-color:#273E7C"/>
	</linearGradient>
	<polygon clip-path="url(#SVGID_32_)" fill="url(#SVGID_33_)" points="678.022,352.784 723.612,439.458 616.917,495.579 
		571.327,408.905 	"/>
</g>
<g>
	<defs>
		<path id="SVGID_34_" d="M246.635,22.108h12.673c8.872,0,12.991,4.277,12.991,15.05v58.145c0,10.774-4.119,15.208-12.991,15.208
			h-12.673V22.108z M234.276,10.858v110.903h25.35c16.634,0,25.032-9.03,25.032-26.935V37.792c0-17.903-8.398-26.934-25.032-26.934
			H234.276z"/>
	</defs>
	<clipPath id="SVGID_35_">
		<use xlink:href="#SVGID_34_"  overflow="visible"/>
	</clipPath>
	
		<linearGradient id="SVGID_36_" gradientUnits="userSpaceOnUse" x1="3599.96" y1="1334.4902" x2="3600.96" y2="1334.4902" gradientTransform="matrix(3071.9939 5840.3604 5840.3604 -3071.9939 -18854384 -16928654)">
		<stop  offset="0" style="stop-color:#146BCA"/>
		<stop  offset="1" style="stop-color:#273E7C"/>
	</linearGradient>
	<polygon clip-path="url(#SVGID_35_)" fill="url(#SVGID_36_)" points="273.739,-9.898 330.35,97.728 245.194,142.52 188.583,34.894 
			"/>
</g>
<g>
	<defs>
		<path id="SVGID_37_" d="M308.103,98.63V65.042c0-9.347,3.804-13.942,11.568-13.942c7.605,0,11.406,4.596,11.406,13.942V98.63
			c0,9.347-3.801,14.102-11.406,14.102C311.907,112.731,308.103,107.977,308.103,98.63 M296.222,66.151v31.369
			c0,16.479,8.239,25.824,23.449,25.824c15.05,0,23.447-9.346,23.447-25.824V66.151c0-16.477-8.397-25.666-23.447-25.666
			C304.461,40.485,296.222,49.675,296.222,66.151"/>
	</defs>
	<clipPath id="SVGID_38_">
		<use xlink:href="#SVGID_37_"  overflow="visible"/>
	</clipPath>
	
		<linearGradient id="SVGID_39_" gradientUnits="userSpaceOnUse" x1="3599.96" y1="1334.4902" x2="3600.96" y2="1334.4902" gradientTransform="matrix(3071.9939 5840.3604 5840.3604 -3071.9939 -18854344 -16928678)">
		<stop  offset="0" style="stop-color:#146BCA"/>
		<stop  offset="1" style="stop-color:#273E7C"/>
	</linearGradient>
	<polygon clip-path="url(#SVGID_38_)" fill="url(#SVGID_39_)" points="332.955,21.164 377.256,105.389 306.385,142.667 
		262.083,58.442 	"/>
</g>
<g>
	<defs>
		<path id="SVGID_40_" d="M352.465,61.715c0,6.971,1.9,12.199,6.337,16.161c2.218,2.059,4.119,3.485,5.545,4.436
			c1.426,0.95,3.803,2.219,6.971,3.959c5.862,3.013,8.874,4.596,11.565,8.557c1.427,1.9,2.219,4.12,2.219,6.496
			c0,7.763-3.645,11.565-10.932,11.565c-7.288,0-10.932-4.118-10.932-12.2v-3.01h-11.566v2.693c0,14.418,8.556,22.973,23.132,22.973
			c14.1,0,22.179-8.396,22.179-22.18c0-6.813-1.9-11.882-6.178-15.686c-4.278-3.962-6.654-5.387-12.515-8.396
			c-6.338-3.169-9.032-4.595-12.042-8.556c-1.425-2.06-2.217-4.436-2.217-6.97c0-6.972,4.277-10.774,10.139-10.774
			c6.813,0,10.14,3.803,10.14,11.565v1.902h11.248v-1.585c0-13.784-8.397-22.181-21.547-22.181
			C360.545,40.485,352.465,48.565,352.465,61.715"/>
	</defs>
	<clipPath id="SVGID_41_">
		<use xlink:href="#SVGID_40_"  overflow="visible"/>
	</clipPath>
	
		<linearGradient id="SVGID_42_" gradientUnits="userSpaceOnUse" x1="3599.96" y1="1334.4902" x2="3600.96" y2="1334.4902" gradientTransform="matrix(3071.9939 5840.3604 5840.3604 -3071.9939 -18854304 -16928700)">
		<stop  offset="0" style="stop-color:#146BCA"/>
		<stop  offset="1" style="stop-color:#273E7C"/>
	</linearGradient>
	<polygon clip-path="url(#SVGID_41_)" fill="url(#SVGID_42_)" points="387.164,21.817 431.122,105.389 361.491,142.014 
		317.533,58.442 	"/>
</g>
<g>
	<defs>
		<path id="SVGID_43_" d="M415.679,101.957c0-6.654,3.804-11.883,11.249-15.687c6.495-3.325,10.298-5.701,11.566-7.445v16.002
			c0,11.408-4.913,18.062-12.993,18.062C419.006,112.889,415.679,109.245,415.679,101.957 M405.856,63.617v1.742h11.249v-2.376
			c0-7.764,4.119-12.2,11.09-12.2c6.813,0,10.299,3.961,10.299,11.883v1.899c0,2.693-0.793,4.914-2.535,6.34
			c-1.744,1.425-5.863,3.642-12.517,6.653c-14.417,6.813-19.803,13.941-19.803,26.141c0,12.041,6.812,19.646,17.744,19.646
			c9.03,0,15.21-4.119,18.537-12.357c0.316,5.546,0.791,9.03,1.267,10.774h10.932c-1.11-4.912-1.744-12.042-1.744-21.707V64.565
			c0-16-7.288-24.08-22.021-24.08C413.936,40.485,405.856,48.882,405.856,63.617"/>
	</defs>
	<clipPath id="SVGID_44_">
		<use xlink:href="#SVGID_43_"  overflow="visible"/>
	</clipPath>
	
		<linearGradient id="SVGID_45_" gradientUnits="userSpaceOnUse" x1="3599.96" y1="1334.4902" x2="3600.96" y2="1334.4902" gradientTransform="matrix(3071.9939 5840.3604 5840.3604 -3071.9939 -18854256 -16928722)">
		<stop  offset="0" style="stop-color:#146BCA"/>
		<stop  offset="1" style="stop-color:#273E7C"/>
	</linearGradient>
	<polygon clip-path="url(#SVGID_44_)" fill="url(#SVGID_45_)" points="441.612,20.511 486.257,105.389 414.145,143.319 
		369.5,58.441 	"/>
</g>
<g>
	<defs>
		<path id="SVGID_46_" d="M474.141,95.779V64.408c0-8.872,3.486-13.309,10.298-13.309c7.446,0,12.674,6.339,12.674,17.745V91.5
			c0,11.408-5.228,17.745-12.674,17.745C477.627,109.245,474.141,104.809,474.141,95.779 M462.258,63.458v33.27
			c0,15.369,6.18,23.133,18.537,23.133c7.129,0,12.674-3.168,16.318-9.508v14.576c0,8.715-3.801,12.992-11.564,12.992
			c-7.447,0-11.25-3.327-11.25-9.98v-1.11h-11.407v0.633c0,13.31,7.764,20.439,22.815,20.439c16.476,0,23.289-8.08,23.289-23.765
			V42.07h-10.298l-0.159,10.614c-3.327-8.08-9.188-12.199-17.744-12.199C468.438,40.485,462.258,48.09,462.258,63.458"/>
	</defs>
	<clipPath id="SVGID_47_">
		<use xlink:href="#SVGID_46_"  overflow="visible"/>
	</clipPath>
	
		<linearGradient id="SVGID_48_" gradientUnits="userSpaceOnUse" x1="3599.96" y1="1334.4883" x2="3600.96" y2="1334.4883" gradientTransform="matrix(3071.9939 5840.3604 5840.3604 -3071.9939 -18854216 -16928744)">
		<stop  offset="0" style="stop-color:#146BCA"/>
		<stop  offset="1" style="stop-color:#273E7C"/>
	</linearGradient>
	<polygon clip-path="url(#SVGID_47_)" fill="url(#SVGID_48_)" points="498.867,21.229 553.252,124.623 472.386,167.158 
		418.001,63.764 	"/>
</g>
<g>
	<defs>
		<path id="SVGID_49_" d="M533.077,65.042c0-9.347,3.802-13.942,11.566-13.942c7.922,0,11.881,4.596,11.881,13.942v8.872h-23.447
			V65.042z M521.037,66.151v31.369c0,16.479,8.396,25.824,23.606,25.824c15.208,0,23.606-9.346,23.606-25.824v-1.267h-11.565v2.376
			c0,9.347-3.961,14.102-11.883,14.102c-7.763,0-11.724-4.755-11.724-14.102V83.737h35.172V66.151
			c0-16.477-8.398-25.666-23.606-25.666C529.275,40.485,521.037,49.675,521.037,66.151"/>
	</defs>
	<clipPath id="SVGID_50_">
		<use xlink:href="#SVGID_49_"  overflow="visible"/>
	</clipPath>
	
		<linearGradient id="SVGID_51_" gradientUnits="userSpaceOnUse" x1="3599.96" y1="1334.4902" x2="3600.96" y2="1334.4902" gradientTransform="matrix(3071.9939 5840.3604 5840.3604 -3071.9939 -18854168 -16928770)">
		<stop  offset="0" style="stop-color:#146BCA"/>
		<stop  offset="1" style="stop-color:#273E7C"/>
	</linearGradient>
	<polygon clip-path="url(#SVGID_50_)" fill="url(#SVGID_51_)" points="558.017,21.034 602.388,105.389 531.268,142.797 
		486.898,58.442 	"/>
</g>
<g>
	<defs>
		<polygon id="SVGID_52_" points="64.547,52.418 118.473,106.343 172.398,52.418 		"/>
	</defs>
	<clipPath id="SVGID_53_">
		<use xlink:href="#SVGID_52_"  overflow="visible"/>
	</clipPath>
	
		<linearGradient id="SVGID_54_" gradientUnits="userSpaceOnUse" x1="3599.9028" y1="1334.418" x2="3600.9363" y2="1334.418" gradientTransform="matrix(3071.9939 5840.3604 5840.3604 -3071.9939 -18854080 -16928818)">
		<stop  offset="0" style="stop-color:#146BCA"/>
		<stop  offset="1" style="stop-color:#273E7C"/>
	</linearGradient>
	<polygon clip-path="url(#SVGID_53_)" fill="url(#SVGID_54_)" points="149.025,7.983 194.615,94.657 87.92,150.778 42.33,64.104 	
		"/>
</g>
<g>
	<defs>
		<rect id="SVGID_55_" x="-555.568" y="-4501.086" width="2902.677" height="5612.599"/>
	</defs>
	<clipPath id="SVGID_56_">
		<use xlink:href="#SVGID_55_"  overflow="visible"/>
	</clipPath>
	<polygon clip-path="url(#SVGID_56_)" fill="#FFFFFF" points="239.993,-2069.652 239.993,-2518.095 312.383,-2518.095 
		378.374,-2159.988 443.707,-2518.095 516.73,-2518.095 516.73,-2069.652 468.697,-2069.652 468.697,-2443.781 397.572,-2069.652 
		355.306,-2069.652 284.181,-2443.781 284.181,-2069.652 	"/>
	<path clip-path="url(#SVGID_56_)" fill="#FFFFFF" d="M730.08-2294.512v71.1H587.855v60.224c0,37.801,16.035,57.024,47.425,57.024
		c32.022,0,48.033-19.223,48.033-57.024v-9.612h46.767v5.135c0,66.623-33.944,104.424-95.457,104.424
		c-61.489,0-95.458-37.801-95.458-104.424v-126.847c0-66.636,33.336-103.792,95.458-103.792
		C696.136-2398.304,730.08-2361.147,730.08-2294.512 M587.855-2263.123h94.825v-35.879c0-37.801-16.011-56.379-48.057-56.379
		c-31.39,0-46.768,18.578-46.768,56.379V-2263.123z"/>
	<path clip-path="url(#SVGID_56_)" fill="#FFFFFF" d="M899.194-2069.652c-2.555-7.689-4.477-22.423-5.11-43.568
		c-14.113,33.324-38.446,49.979-72.39,49.979c-49.98,0-74.97-31.401-74.97-93.535v-148.637c0-62.134,24.99-92.891,74.97-92.891
		c29.467,0,51.877,12.812,66.623,38.446v-158.236h48.033v360.673c0,39.079,2.579,67.913,7.056,87.769H899.194z M888.317-2177.921
		v-105.702c0-46.123-21.145-71.757-51.902-71.757c-27.545,0-41.001,17.945-41.001,53.812v140.948
		c0,36.511,13.456,54.456,41.001,54.456C867.172-2106.164,888.317-2131.798,888.317-2177.921"/>
	<polygon clip-path="url(#SVGID_56_)" fill="#FFFFFF" points="965.841,-2069.652 965.841,-2518.095 1015.796,-2518.095 
		1015.796,-2115.143 1143.933,-2115.143 1143.933,-2069.652 	"/>
	<path clip-path="url(#SVGID_56_)" fill="#FFFFFF" d="M1339.958-2294.512v71.1h-142.225v60.224
		c0,37.801,16.035,57.024,47.425,57.024c32.022,0,48.033-19.223,48.033-57.024v-9.612h46.767v5.135
		c0,66.623-33.943,104.424-95.457,104.424c-61.488,0-95.457-37.801-95.457-104.424v-126.847c0-66.636,33.336-103.792,95.457-103.792
		C1306.014-2398.304,1339.958-2361.147,1339.958-2294.512 M1197.733-2263.123h94.825v-35.879c0-37.801-16.011-56.379-48.058-56.379
		c-31.39,0-46.768,18.578-46.768,56.379V-2263.123z"/>
	<path clip-path="url(#SVGID_56_)" fill="#FFFFFF" d="M1550.096-2305.414v148.637c0,62.134-24.989,93.536-75.602,93.536
		c-34.602,0-58.935-17.301-72.391-51.902l-6.398,45.49h-35.234v-448.442h48.033v158.237c14.745-25.635,37.156-38.446,65.99-38.446
		C1525.107-2398.304,1550.096-2367.547,1550.096-2305.414 M1502.04-2301.568c0-35.867-14.09-53.812-41.633-53.812
		c-30.758,0-51.902,25.635-51.902,71.757v105.702c0,46.123,21.145,71.758,51.902,71.758c27.543,0,41.633-17.946,41.633-54.457
		V-2301.568z"/>
	<path clip-path="url(#SVGID_56_)" fill="#FFFFFF" d="M919.036-3147.318h-82.494H498.25c-128.651,0-241.652,96.822-249.717,225.22
		c-8.775,139.683,102.367,256.137,240.186,256.137h265.649c11.704,0,21.191-9.489,21.191-21.191v-39.812
		c0-0.001-0.001-0.001-0.001-0.001H488.719c-106.547,0-191.733-93.203-178.289-202.364
		c11.229-91.181,93.628-156.986,185.496-156.986l340.616,0.002h152.989c0.634,0,1.147,0.514,1.147,1.147v223.241v0.002h38.646
		c12.336,0,22.336-10.001,22.336-22.338v-200.905c0-0.633,0.514-1.147,1.148-1.147h90.859c0.633,0,1.147,0.514,1.147,1.147v223.241
		c0,0.002,0.001,0.002,0.001,0.002h38.645c12.336,0,22.336-10.001,22.336-22.338v-263.056H919.036z"/>
	<path clip-path="url(#SVGID_56_)" fill="#FFFFFF" d="M1309.418-2726.965H897.524v-59.898v-76.285v-142.078
		c0-11.702-9.486-21.189-21.189-21.189h-39.793v163.267v76.285v99.713c0,11.703,9.487,21.189,21.189,21.189h451.688
		c120.429,0,220.192-89.016,237.674-204.653h-61.62C1468.742-2788.743,1396.161-2726.965,1309.418-2726.965"/>
	<path clip-path="url(#SVGID_56_)" fill="#FFFFFF" d="M1487.165-2931.616h61.62c-12.536-121.014-115.096-215.702-239.367-215.702
		h-21.446c-11.703,0-21.19,9.487-21.19,21.19v39.815h42.637C1400.004-3086.313,1474.945-3018.879,1487.165-2931.616"/>
	<polygon clip-path="url(#SVGID_56_)" fill="#FFFFFF" points="261.542,-1859.739 261.542,-1955.874 242.59,-1955.874 
		242.59,-1966.725 292.416,-1966.725 292.416,-1955.874 273.464,-1955.874 273.464,-1859.739 	"/>
	<path clip-path="url(#SVGID_56_)" fill="#FFFFFF" d="M339.333-1915.983v56.244h-11.615v-54.716c0-9.017-3.21-13.449-9.629-13.449
		c-7.183,0-12.074,6.113-12.074,17.118v51.047h-11.463v-106.986h11.463v37.445c3.515-5.96,8.711-8.864,15.589-8.864
		C333.373-1938.144,339.333-1930.808,339.333-1915.983"/>
	<path clip-path="url(#SVGID_56_)" fill="#FFFFFF" d="M389.767-1913.386v16.966h-33.93v14.366c0,9.019,3.821,13.604,11.31,13.604
		c7.642,0,11.463-4.585,11.463-13.604v-2.292h11.157v1.223c0,15.896-8.1,24.913-22.773,24.913c-14.672,0-22.773-9.017-22.773-24.913
		v-30.263c0-15.894,7.948-24.759,22.773-24.759C381.667-1938.145,389.767-1929.279,389.767-1913.386 M355.837-1905.896h22.62v-8.559
		c0-9.018-3.821-13.45-11.463-13.45c-7.489,0-11.157,4.433-11.157,13.45V-1905.896z"/>
	<polygon clip-path="url(#SVGID_56_)" fill="#FFFFFF" points="411.923,-1859.739 411.923,-1966.725 423.844,-1966.725 
		423.844,-1870.59 454.412,-1870.59 454.412,-1859.739 	"/>
	<path clip-path="url(#SVGID_56_)" fill="#FFFFFF" d="M501.177-1913.386v16.966h-33.93v14.366c0,9.019,3.821,13.604,11.31,13.604
		c7.642,0,11.463-4.585,11.463-13.604v-2.292h11.157v1.223c0,15.896-8.101,24.913-22.773,24.913s-22.773-9.017-22.773-24.913
		v-30.263c0-15.894,7.948-24.759,22.773-24.759C493.076-1938.145,501.177-1929.279,501.177-1913.386 M467.247-1905.896h22.62v-8.559
		c0-9.018-3.821-13.45-11.463-13.45c-7.489,0-11.157,4.433-11.157,13.45V-1905.896z"/>
	<path clip-path="url(#SVGID_56_)" fill="#FFFFFF" d="M551.304-1915.982v35.458c0,14.825-5.961,22.314-18.035,22.314
		c-8.253,0-14.061-4.126-17.27-12.379l-1.529,10.852h-8.406v-106.986h11.463v37.751c3.515-6.114,8.864-9.17,15.742-9.17
		C545.343-1938.144,551.304-1930.808,551.304-1915.982 M539.841-1915.065c0-8.559-3.362-12.838-9.934-12.838
		c-7.336,0-12.38,6.113-12.38,17.117v25.218c0,11.005,5.044,17.118,12.38,17.118c6.572,0,9.934-4.279,9.934-12.991V-1915.065z"/>
	<path clip-path="url(#SVGID_56_)" fill="#FFFFFF" d="M589.967-1859.739c-0.458-1.681-0.917-5.043-1.223-10.393
		c-3.209,7.948-9.17,11.921-17.881,11.921c-10.546,0-17.118-7.336-17.118-18.951c0-11.769,5.197-18.646,19.104-25.218
		c6.42-2.904,10.394-5.044,12.075-6.419c1.681-1.376,2.445-3.516,2.445-6.114v-1.834c0-7.642-3.362-11.463-9.934-11.463
		c-6.725,0-10.699,4.279-10.699,11.769v2.292h-10.851v-1.681c0-14.214,7.794-22.313,21.702-22.313
		c14.214,0,21.245,7.794,21.245,23.23v34.235c0,9.324,0.611,16.201,1.681,20.939H589.967z M587.369-1885.721v-15.437
		c-1.223,1.681-4.891,3.974-11.157,7.184c-7.183,3.668-10.852,8.711-10.852,15.13c0,7.031,3.21,10.546,9.476,10.546
		C582.631-1868.298,587.369-1874.717,587.369-1885.721"/>
	<path clip-path="url(#SVGID_56_)" fill="#FFFFFF" d="M650.334-1915.983v56.244h-11.615v-54.716c0-9.017-3.21-13.449-9.629-13.449
		c-7.183,0-12.074,6.113-12.074,17.118v51.047h-11.463v-76.877h9.934l0.153,10.087c3.21-7.794,8.865-11.615,16.965-11.615
		C644.373-1938.144,650.334-1930.808,650.334-1915.983"/>
	<path clip-path="url(#SVGID_56_)" fill="#FFFFFF" d="M700.767-1913.386v16.966h-33.93v14.366c0,9.019,3.821,13.604,11.31,13.604
		c7.642,0,11.463-4.585,11.463-13.604v-2.292h11.157v1.223c0,15.896-8.1,24.913-22.773,24.913c-14.672,0-22.773-9.017-22.773-24.913
		v-30.263c0-15.894,7.948-24.759,22.773-24.759C692.667-1938.145,700.767-1929.279,700.767-1913.386 M666.837-1905.896h22.62v-8.559
		c0-9.018-3.821-13.45-11.463-13.45c-7.489,0-11.157,4.433-11.157,13.45V-1905.896z"/>
	<path clip-path="url(#SVGID_56_)" fill="#FFFFFF" d="M702.445-1880.372v-2.599h11.157v2.905c0,7.794,3.515,11.768,10.546,11.768
		c7.03,0,10.546-3.668,10.546-11.157c0-2.292-0.765-4.432-2.14-6.266c-2.598-3.821-5.502-5.35-11.157-8.254
		c-3.057-1.681-5.35-2.903-6.725-3.821c-1.376-0.917-3.21-2.292-5.349-4.279c-4.28-3.821-6.114-8.865-6.114-15.589
		c0-12.686,7.795-20.479,20.786-20.479c12.686,0,20.786,8.1,20.786,21.396v1.528h-10.852v-1.834c0-7.489-3.209-11.157-9.781-11.157
		c-5.655,0-9.782,3.668-9.782,10.394c0,2.444,0.764,4.738,2.14,6.725c2.904,3.821,5.502,5.196,11.616,8.253
		c5.655,2.904,7.947,4.28,12.074,8.101c4.126,3.667,5.96,8.558,5.96,15.13c0,13.297-7.794,21.396-21.397,21.396
		C710.698-1858.211,702.445-1866.464,702.445-1880.372"/>
	<path clip-path="url(#SVGID_56_)" fill="#FFFFFF" d="M793.838-1913.386v16.966h-33.93v14.366c0,9.019,3.821,13.604,11.31,13.604
		c7.642,0,11.463-4.585,11.463-13.604v-2.292h11.157v1.223c0,15.896-8.1,24.913-22.773,24.913c-14.672,0-22.773-9.017-22.773-24.913
		v-30.263c0-15.894,7.948-24.759,22.773-24.759C785.738-1938.145,793.838-1929.279,793.838-1913.386 M759.908-1905.896h22.62v-8.559
		c0-9.018-3.821-13.45-11.463-13.45c-7.489,0-11.157,4.433-11.157,13.45V-1905.896z"/>
	<polygon clip-path="url(#SVGID_56_)" fill="#FFFFFF" points="815.994,-1859.739 815.994,-1966.725 833.265,-1966.725 
		849.007,-1881.289 864.596,-1966.725 882.02,-1966.725 882.02,-1859.739 870.557,-1859.739 870.557,-1948.996 853.592,-1859.739 
		843.505,-1859.739 826.54,-1948.996 826.54,-1859.739 	"/>
	<path clip-path="url(#SVGID_56_)" fill="#FFFFFF" d="M932.911-1913.386v16.966H898.98v14.366c0,9.019,3.821,13.604,11.311,13.604
		c7.642,0,11.463-4.585,11.463-13.604v-2.292h11.157v1.223c0,15.896-8.101,24.913-22.773,24.913
		c-14.672,0-22.773-9.017-22.773-24.913v-30.263c0-15.894,7.948-24.759,22.773-24.759
		C924.81-1938.145,932.911-1929.279,932.911-1913.386 M898.98-1905.896h22.62v-8.559c0-9.018-3.821-13.45-11.463-13.45
		c-7.489,0-11.157,4.433-11.157,13.45V-1905.896z"/>
	<path clip-path="url(#SVGID_56_)" fill="#FFFFFF" d="M973.255-1859.738c-0.61-1.834-1.069-5.35-1.223-10.393
		c-3.362,7.947-9.17,11.921-17.271,11.921c-11.921,0-17.882-7.489-17.882-22.314v-35.459c0-14.825,5.961-22.161,17.882-22.161
		c7.031,0,12.381,3.058,15.896,9.17v-37.75h11.463v86.047c0,9.323,0.611,16.2,1.681,20.939H973.255z M970.658-1885.568v-25.218
		c0-11.005-5.043-17.118-12.38-17.118c-6.572,0-9.781,4.28-9.781,12.839v33.624c0,8.712,3.209,12.991,9.781,12.991
		C965.615-1868.45,970.658-1874.563,970.658-1885.568"/>
	<path clip-path="url(#SVGID_56_)" fill="#FFFFFF" d="M989.147-1964.126h11.463v16.506h-11.463V-1964.126z M989.147-1936.616h11.463
		v76.877h-11.463V-1936.616z"/>
	<path clip-path="url(#SVGID_56_)" fill="#FFFFFF" d="M1006.109-1882.817v-30.873c0-15.895,7.795-24.454,22.467-24.454
		c14.521,0,22.01,9.017,22.01,24.454v3.362h-11.157v-4.432c0-8.712-3.668-13.145-10.853-13.145c-7.183,0-10.851,4.433-10.851,13.145
		v33.013c0,8.864,3.668,13.297,10.851,13.297c7.185,0,10.853-4.433,10.853-13.297v-5.961h11.157v4.891
		c0,15.742-7.489,24.606-22.01,24.606C1013.904-1858.211,1006.109-1866.922,1006.109-1882.817"/>
	<path clip-path="url(#SVGID_56_)" fill="#FFFFFF" d="M1054.861-1964.126h11.463v16.506h-11.463V-1964.126z M1054.861-1936.616
		h11.463v76.877h-11.463V-1936.616z"/>
	<path clip-path="url(#SVGID_56_)" fill="#FFFFFF" d="M1118.133-1915.983v56.244h-11.615v-54.716c0-9.017-3.21-13.449-9.629-13.449
		c-7.184,0-12.074,6.113-12.074,17.118v51.047h-11.463v-76.877h9.934l0.153,10.087c3.21-7.794,8.864-11.615,16.965-11.615
		C1112.171-1938.144,1118.133-1930.808,1118.133-1915.983"/>
	<path clip-path="url(#SVGID_56_)" fill="#FFFFFF" d="M1168.566-1913.386v16.966h-33.93v14.366c0,9.019,3.82,13.604,11.31,13.604
		c7.643,0,11.463-4.585,11.463-13.604v-2.292h11.157v1.223c0,15.896-8.1,24.913-22.772,24.913s-22.773-9.017-22.773-24.913v-30.263
		c0-15.894,7.948-24.759,22.773-24.759C1160.466-1938.145,1168.566-1929.279,1168.566-1913.386 M1134.636-1905.896h22.62v-8.559
		c0-9.018-3.821-13.45-11.463-13.45c-7.489,0-11.157,4.433-11.157,13.45V-1905.896z"/>
	<path clip-path="url(#SVGID_56_)" fill="#FFFFFF" d="M1190.722-1859.739v-106.985h24.454c16.048,0,24.148,8.712,24.148,25.981
		v55.022c0,17.271-8.101,25.981-24.148,25.981H1190.722z M1202.643-1870.59h12.228c8.559,0,12.533-4.279,12.533-14.672v-56.092
		c0-10.392-3.975-14.519-12.533-14.519h-12.228V-1870.59z"/>
	<path clip-path="url(#SVGID_56_)" fill="#FFFFFF" d="M1245.128-1964.126h11.463v16.506h-11.463V-1964.126z M1245.128-1936.616
		h11.463v76.877h-11.463V-1936.616z"/>
	<path clip-path="url(#SVGID_56_)" fill="#FFFFFF" d="M1294.797-1937.228v11.311c-1.375-0.459-2.903-0.764-4.737-0.764
		c-9.935,0-14.979,7.336-14.979,22.161v44.782h-11.463v-76.878h9.935l0.153,12.686c2.599-9.476,7.947-14.214,16.048-14.214
		C1291.894-1938.145,1293.576-1937.839,1294.797-1937.228"/>
	<path clip-path="url(#SVGID_56_)" fill="#FFFFFF" d="M1339.579-1913.386v16.966h-33.931v14.366c0,9.019,3.821,13.604,11.311,13.604
		c7.642,0,11.463-4.585,11.463-13.604v-2.292h11.157v1.223c0,15.896-8.102,24.913-22.773,24.913s-22.773-9.017-22.773-24.913
		v-30.263c0-15.894,7.948-24.759,22.773-24.759C1331.477-1938.145,1339.579-1929.279,1339.579-1913.386 M1305.648-1905.896h22.62
		v-8.559c0-9.018-3.821-13.45-11.463-13.45c-7.489,0-11.157,4.433-11.157,13.45V-1905.896z"/>
	<path clip-path="url(#SVGID_56_)" fill="#FFFFFF" d="M1343.243-1882.817v-30.873c0-15.895,7.795-24.454,22.467-24.454
		c14.521,0,22.009,9.017,22.009,24.454v3.362h-11.156v-4.432c0-8.712-3.669-13.145-10.853-13.145
		c-7.183,0-10.851,4.433-10.851,13.145v33.013c0,8.864,3.668,13.297,10.851,13.297c7.184,0,10.853-4.433,10.853-13.297v-5.961
		h11.156v4.891c0,15.742-7.488,24.606-22.009,24.606C1351.038-1858.211,1343.243-1866.922,1343.243-1882.817"/>
	<path clip-path="url(#SVGID_56_)" fill="#FFFFFF" d="M1422.103-1926.834h-13.907v49.825c0,6.113,1.986,8.559,7.488,8.559
		c2.293,0,4.433-0.459,6.419-1.223v9.934c-2.292,1.07-5.195,1.529-8.559,1.529c-11.31,0-16.965-5.808-16.965-17.576v-51.048h-9.477
		v-9.782h9.936l1.223-22.161h9.935v22.161h13.907V-1926.834z"/>
	<path clip-path="url(#SVGID_56_)" fill="#FFFFFF" d="M1423.173-1883.123v-30.262c0-15.896,7.946-24.759,22.62-24.759
		c14.519,0,22.618,8.864,22.618,24.759v30.262c0,15.896-8.1,24.913-22.618,24.913
		C1431.12-1858.21,1423.173-1867.227,1423.173-1883.123 M1456.797-1882.053v-32.402c0-9.016-3.668-13.449-11.004-13.449
		c-7.489,0-11.157,4.433-11.157,13.449v32.402c0,9.018,3.668,13.603,11.157,13.603
		C1453.129-1868.45,1456.797-1873.035,1456.797-1882.053"/>
	<path clip-path="url(#SVGID_56_)" fill="#FFFFFF" d="M1504.936-1937.228v11.311c-1.375-0.459-2.904-0.764-4.738-0.764
		c-9.934,0-14.978,7.336-14.978,22.161v44.782h-11.463v-76.878h9.935l0.153,12.686c2.598-9.476,7.947-14.214,16.048-14.214
		C1502.032-1938.145,1503.714-1937.839,1504.936-1937.228"/>
	<path clip-path="url(#SVGID_56_)" fill="#FFFFFF" d="M1551.548-1936.616l-16.201,71.528l-3.209,14.061
		c-2.599,11.769-7.948,16.506-18.494,16.506c-3.362,0-5.96-0.458-7.794-1.528v-9.935c1.681,0.765,3.668,1.223,6.113,1.223
		c5.502,0,7.488-1.834,8.864-7.947l1.375-6.114l-19.563-77.794h11.769l13.908,58.536l12.533-58.536H1551.548z"/>
	<path clip-path="url(#SVGID_56_)" fill="#FFFFFF" d="M-282.884-1464.746H412.47h966.602h695.354
		c84.363,0,152.755,68.392,152.755,152.757c0,84.364-68.392,152.756-152.755,152.756h-695.354H412.47h-695.354
		c-84.365,0-152.756-68.392-152.756-152.756C-435.64-1396.354-367.249-1464.746-282.884-1464.746"/>
	
		<linearGradient id="SVGID_57_" gradientUnits="userSpaceOnUse" x1="3601.6963" y1="1335.1602" x2="3602.6958" y2="1335.1602" gradientTransform="matrix(-2663.8201 0 0 -2663.8201 9596498 3555315.75)">
		<stop  offset="0" style="stop-color:#009776"/>
		<stop  offset="1" style="stop-color:#0C5041"/>
		<stop  offset="1" style="stop-color:#FFF3E9"/>
	</linearGradient>
	<path clip-path="url(#SVGID_56_)" fill="url(#SVGID_57_)" d="M-282.884-1464.746L-282.884-1464.746H412.47h966.602h695.354
		c84.363,0,152.755,68.392,152.755,152.757s-68.392,152.756-152.755,152.756h-695.354H412.47h-695.354
		c-84.365,0-152.756-68.392-152.756-152.756C-435.64-1396.354-367.249-1464.746-282.884-1464.746L-282.884-1464.746
		L-282.884-1464.746c-84.365,0-152.756,68.392-152.756,152.757s68.391,152.756,152.756,152.756H412.47h966.602h695.354
		c84.363,0,152.755-68.392,152.755-152.756c0-84.365-68.392-152.757-152.755-152.757h-695.354H412.47H-282.884L-282.884-1464.746z"
		/>
</g>
<g>
	<defs>
		<path id="SVGID_58_" d="M1929.885-876.199c0-28.724,23.335-52.06,52.06-52.06s52.062,23.336,52.062,52.06
			c0,28.726-23.337,52.098-52.062,52.098S1929.885-847.474,1929.885-876.199 M1941.772-939.455
			c-41.977,27.488-46.246,84.376-12.79,117.831c25.832,25.832,65.614,29.126,95.063,9.991l63.605,63.605l22.389-22.39
			l-63.605-63.604c22.345-34.385,14.107-82.86-24.886-106.765c-11.657-7.146-25.173-10.688-38.697-10.689
			C1968.42-951.476,1953.979-947.443,1941.772-939.455"/>
	</defs>
	<clipPath id="SVGID_59_">
		<use xlink:href="#SVGID_58_"  overflow="visible"/>
	</clipPath>
	
		<linearGradient id="SVGID_60_" gradientUnits="userSpaceOnUse" x1="3579.6958" y1="1333.9355" x2="3580.6953" y2="1333.9355" gradientTransform="matrix(203.3118 0 0 -203.3118 -725887.5625 270355)">
		<stop  offset="0" style="stop-color:#146BCA"/>
		<stop  offset="1" style="stop-color:#273E7C"/>
	</linearGradient>
	<rect x="1895.526" y="-951.476" clip-path="url(#SVGID_59_)" fill="url(#SVGID_60_)" width="214.514" height="203.448"/>
</g>
<g>
	<defs>
		<rect id="SVGID_61_" x="-286.199" y="-827.989" width="11.725" height="11.727"/>
	</defs>
	<clipPath id="SVGID_62_">
		<use xlink:href="#SVGID_61_"  overflow="visible"/>
	</clipPath>
	
		<linearGradient id="SVGID_63_" gradientUnits="userSpaceOnUse" x1="3954.5508" y1="1315.291" x2="3955.5508" y2="1315.291" gradientTransform="matrix(-11.7255 0 0 -11.7255 46094.7578 14600.3584)">
		<stop  offset="0" style="stop-color:#146BCA"/>
		<stop  offset="1" style="stop-color:#273E7C"/>
	</linearGradient>
	<rect x="-286.199" y="-827.988" clip-path="url(#SVGID_62_)" fill="url(#SVGID_63_)" width="11.725" height="11.726"/>
</g>
<g>
	<defs>
		<rect id="SVGID_64_" x="-220.031" y="-895.527" width="18.761" height="18.761"/>
	</defs>
	<clipPath id="SVGID_65_">
		<use xlink:href="#SVGID_64_"  overflow="visible"/>
	</clipPath>
	
		<linearGradient id="SVGID_66_" gradientUnits="userSpaceOnUse" x1="3821.6455" y1="1322.7109" x2="3822.6455" y2="1322.7109" gradientTransform="matrix(-18.7608 0 0 -18.7608 71496.0156 23929.0156)">
		<stop  offset="0" style="stop-color:#146BCA"/>
		<stop  offset="1" style="stop-color:#273E7C"/>
	</linearGradient>
	<rect x="-220.031" y="-895.527" clip-path="url(#SVGID_65_)" fill="url(#SVGID_66_)" width="18.761" height="18.761"/>
</g>
<g>
	<defs>
		<path id="SVGID_67_" d="M-292.766-834.555h24.859v24.856h-24.859V-834.555z M-208.365-826.289v14.657h-14.656v-14.657H-208.365z
			 M-208.365-840.945h14.658v14.655h-14.658V-840.945z M-261.48-837.545v-3.4v-14.774h14.657v14.774h23.802v14.656h-38.459V-837.545
			z M-223.021-855.72h14.656v14.658h-14.656V-855.72z M-280.336-876.063h19.097v-19.23h19.23v19.23h-19.097v19.229h-19.23V-876.063z
			 M-231.287-906.784h41.273v41.274h-41.273V-906.784z M-298.708-915.109v58.394h20.285v16.769h-20.285v35.995h35.997v9.498h49.95
			v-13.366h17.237v13.366h14.187v-16.182h-12.311v-16.181h12.311v-14.422h-12.311v-13.016h12.311v-60.855H-298.708z"/>
	</defs>
	<clipPath id="SVGID_68_">
		<use xlink:href="#SVGID_67_"  overflow="visible"/>
	</clipPath>
	
		<linearGradient id="SVGID_69_" gradientUnits="userSpaceOnUse" x1="3635.5425" y1="1333.0996" x2="3636.5425" y2="1333.0996" gradientTransform="matrix(-117.3707 0 0 -117.3707 426524.8438 155612.0313)">
		<stop  offset="0" style="stop-color:#146BCA"/>
		<stop  offset="1" style="stop-color:#273E7C"/>
	</linearGradient>
	<rect x="-298.708" y="-915.108" clip-path="url(#SVGID_68_)" fill="url(#SVGID_69_)" width="117.371" height="120.655"/>
</g>
<g>
	<defs>
		<path id="SVGID_70_" d="M-283.744-950.312c-27.904,0-50.603,22.698-50.603,50.591v6.439h12.572v-6.439
			c0-20.968,17.063-38.021,38.031-38.021h5.321v-12.569H-283.744z"/>
	</defs>
	<clipPath id="SVGID_71_">
		<use xlink:href="#SVGID_70_"  overflow="visible"/>
	</clipPath>
	
		<linearGradient id="SVGID_72_" gradientUnits="userSpaceOnUse" x1="3674.4482" y1="1330.9287" x2="3675.4482" y2="1330.9287" gradientTransform="matrix(-55.9227 0 0 -55.9227 205206.7344 73507.3125)">
		<stop  offset="0" style="stop-color:#146BCA"/>
		<stop  offset="1" style="stop-color:#273E7C"/>
	</linearGradient>
	<rect x="-334.347" y="-950.312" clip-path="url(#SVGID_71_)" fill="url(#SVGID_72_)" width="55.924" height="57.03"/>
</g>
<g>
	<defs>
		<path id="SVGID_73_" d="M-201.424-950.312v12.569h5.332c20.968,0,38.02,17.054,38.02,38.021v6.439h12.57v-6.439
			c0-27.893-22.699-50.591-50.59-50.591H-201.424z"/>
	</defs>
	<clipPath id="SVGID_74_">
		<use xlink:href="#SVGID_73_"  overflow="visible"/>
	</clipPath>
	
		<linearGradient id="SVGID_75_" gradientUnits="userSpaceOnUse" x1="3674.4478" y1="1330.9287" x2="3675.4478" y2="1330.9287" gradientTransform="matrix(-55.9227 0 0 -55.9227 205339.6406 73507.3125)">
		<stop  offset="0" style="stop-color:#146BCA"/>
		<stop  offset="1" style="stop-color:#273E7C"/>
	</linearGradient>
	<rect x="-201.424" y="-950.312" clip-path="url(#SVGID_74_)" fill="url(#SVGID_75_)" width="55.922" height="57.03"/>
</g>
<g>
	<defs>
		<path id="SVGID_76_" d="M-334.347-816.283v4.213c0,27.892,22.699,50.592,50.603,50.592h5.321v-12.57h-5.321
			c-20.968,0-38.031-17.053-38.031-38.021v-4.213H-334.347z"/>
	</defs>
	<clipPath id="SVGID_77_">
		<use xlink:href="#SVGID_76_"  overflow="visible"/>
	</clipPath>
	
		<linearGradient id="SVGID_78_" gradientUnits="userSpaceOnUse" x1="3674.4482" y1="1330.9287" x2="3675.4482" y2="1330.9287" gradientTransform="matrix(-55.9227 0 0 -55.9227 205206.7344 73640.25)">
		<stop  offset="0" style="stop-color:#146BCA"/>
		<stop  offset="1" style="stop-color:#273E7C"/>
	</linearGradient>
	<rect x="-334.347" y="-816.282" clip-path="url(#SVGID_77_)" fill="url(#SVGID_78_)" width="55.924" height="54.804"/>
</g>
<g>
	<defs>
		<path id="SVGID_79_" d="M-158.072-816.283v4.213c0,20.969-17.052,38.021-38.02,38.021h-5.332v12.57h5.332
			c27.891,0,50.59-22.7,50.59-50.592v-4.213H-158.072z"/>
	</defs>
	<clipPath id="SVGID_80_">
		<use xlink:href="#SVGID_79_"  overflow="visible"/>
	</clipPath>
	
		<linearGradient id="SVGID_81_" gradientUnits="userSpaceOnUse" x1="3674.4478" y1="1330.9287" x2="3675.4478" y2="1330.9287" gradientTransform="matrix(-55.9227 0 0 -55.9227 205339.6406 73640.25)">
		<stop  offset="0" style="stop-color:#146BCA"/>
		<stop  offset="1" style="stop-color:#273E7C"/>
	</linearGradient>
	<rect x="-201.424" y="-816.282" clip-path="url(#SVGID_80_)" fill="url(#SVGID_81_)" width="55.922" height="54.804"/>
</g>
<g>
	<defs>
		<rect id="SVGID_82_" x="-555.568" y="-4045.523" width="2902.677" height="5612.599"/>
	</defs>
	<clipPath id="SVGID_83_">
		<use xlink:href="#SVGID_82_"  overflow="visible"/>
	</clipPath>
	<polygon clip-path="url(#SVGID_83_)" fill="#666666" points="1841.543,-903.825 1824.967,-920.401 1769.534,-864.967 
		1714.099,-920.401 1697.524,-903.825 1752.958,-848.391 1697.524,-792.957 1714.099,-776.381 1769.534,-831.815 1824.967,-776.381 
		1841.543,-792.957 1786.109,-848.391 	"/>
</g>
<g>
	<path fill="#666666" d="M222.08-816.282v-74.191h30.418v7.525h-22.151v24.165h18.018v7.525h-18.018v27.45h22.151v7.525H222.08z"/>
	<path fill="#666666" d="M262.459-816.282v-74.191h10.599l16.746,52.994v-52.994h7.525v74.191h-8.585l-18.76-60.307v60.307H262.459z
		"/>
	<path fill="#666666" d="M320.007-816.282v-66.666h-13.143v-7.525h34.552v7.525h-13.142v66.666H320.007z"/>
	<path fill="#666666" d="M350.848-816.282v-74.191h30.418v7.525h-22.151v24.165h18.018v7.525h-18.018v27.45h22.151v7.525H350.848z"
		/>
	<path fill="#666666" d="M391.227-816.282v-74.191h16.216c11.765,0,16.746,5.3,16.746,16.853v4.557
		c0,8.161-2.861,13.143-8.585,14.944v0.106c5.83,1.483,8.691,6.677,8.691,15.474v13.249c0,4.027,0.318,6.995,1.06,9.009h-8.373
		c-0.636-2.12-0.954-5.087-0.954-9.009v-13.673c0-7.949-2.756-10.811-9.857-10.811h-6.677v33.492H391.227z M399.494-857.3h6.677
		c6.677,0,9.751-2.967,9.751-10.175v-5.299c0-7.207-2.438-10.175-8.691-10.175h-7.737V-857.3z"/>
	<path fill="#666666" d="M466.156-816.282v-66.666h-13.143v-7.525h34.552v7.525h-13.142v66.666H466.156z"/>
	<path fill="#666666" d="M496.997-816.282v-74.191h8.267v31.69h17.594v-31.69h8.267v74.191h-8.267v-34.976h-17.594v34.976H496.997z"
		/>
	<path fill="#666666" d="M543.947-816.282v-74.191h30.418v7.525h-22.151v24.165h18.018v7.525h-18.018v27.45h22.151v7.525H543.947z"
		/>
	<path fill="#666666" d="M604.145-816.282v-74.191h16.534c11.765,0,16.746,5.3,16.746,16.853v3.073
		c0,7.949-2.756,12.824-8.267,14.838v0.212c6.253,1.802,9.433,6.996,9.433,15.581v6.358c0,11.553-5.723,17.276-17.064,17.276
		H604.145z M612.412-858.783h6.995c6.677,0,9.751-2.968,9.751-10.175v-3.815c0-7.207-2.438-10.175-8.691-10.175h-8.055V-858.783z
		 M612.412-823.808h9.115c6.042,0,8.797-2.861,8.797-9.963v-6.359c0-8.055-2.861-11.128-10.493-11.128h-7.419V-823.808z"/>
	<path fill="#666666" d="M649.399-816.282v-74.191h16.216c11.765,0,16.746,5.3,16.746,16.853v4.557
		c0,8.161-2.861,13.143-8.585,14.944v0.106c5.83,1.483,8.691,6.677,8.691,15.474v13.249c0,4.027,0.318,6.995,1.06,9.009h-8.373
		c-0.636-2.12-0.954-5.087-0.954-9.009v-13.673c0-7.949-2.756-10.811-9.857-10.811h-6.677v33.492H649.399z M657.667-857.3h6.677
		c6.677,0,9.751-2.967,9.751-10.175v-5.299c0-7.207-2.438-10.175-8.691-10.175h-7.737V-857.3z"/>
	<path fill="#666666" d="M721.892-816.282l-2.756-15.792h-17.17l-2.755,15.792h-7.737l13.778-74.191h11.129l13.884,74.191H721.892z
		 M703.238-839.281h14.626l-7.419-41.76L703.238-839.281z"/>
	<path fill="#666666" d="M739.802-816.282v-74.191H750.4l16.746,52.994v-52.994h7.525v74.191h-8.585l-18.76-60.307v60.307H739.802z"
		/>
	<path fill="#666666" d="M787.494-816.282v-74.191h16.958c11.129,0,16.746,6.041,16.746,18.018v38.156
		c0,11.977-5.617,18.018-16.746,18.018H787.494z M795.761-823.808h8.479c5.935,0,8.691-2.968,8.691-10.175v-38.897
		c0-7.207-2.756-10.068-8.691-10.068h-8.479V-823.808z"/>
	<path fill="#666666" d="M852.991-816.282v-74.191h10.599l16.746,52.994v-52.994h7.525v74.191h-8.585l-18.76-60.307v60.307H852.991z
		"/>
	<path fill="#666666" d="M927.815-816.282l-2.755-15.792h-17.17l-2.756,15.792h-7.737l13.778-74.191h11.129l13.884,74.191H927.815z
		 M909.162-839.281h14.626l-7.419-41.76L909.162-839.281z"/>
	<path fill="#666666" d="M945.725-816.282v-74.191h11.977l10.916,59.247l10.811-59.247h12.083v74.191h-7.949v-61.896l-11.765,61.896
		h-6.995l-11.765-61.896v61.896H945.725z"/>
	<path fill="#666666" d="M1004.227-816.282v-74.191h30.419v7.525h-22.151v24.165h18.018v7.525h-18.018v27.45h22.151v7.525H1004.227z
		"/>
	<path fill="#666666" d="M1063.683-833.559v-39.745c0-11.765,6.042-18.229,16.958-18.229c11.023,0,17.064,6.465,17.064,18.229
		v39.745c0,11.765-6.041,18.336-17.064,18.336C1069.725-815.223,1063.683-821.794,1063.683-833.559z M1089.438-833.028v-40.805
		c0-6.783-2.968-10.175-8.797-10.175s-8.69,3.392-8.69,10.175v40.805c0,6.89,2.861,10.281,8.69,10.281
		S1089.438-826.139,1089.438-833.028z"/>
	<path fill="#666666" d="M1109.575-816.282v-74.191h16.216c11.765,0,16.746,5.3,16.746,16.853v4.557
		c0,8.161-2.862,13.143-8.585,14.944v0.106c5.829,1.483,8.69,6.677,8.69,15.474v13.249c0,4.027,0.318,6.995,1.061,9.009h-8.373
		c-0.637-2.12-0.954-5.087-0.954-9.009v-13.673c0-7.949-2.756-10.811-9.857-10.811h-6.677v33.492H1109.575z M1117.841-857.3h6.677
		c6.678,0,9.751-2.967,9.751-10.175v-5.299c0-7.207-2.438-10.175-8.69-10.175h-7.737V-857.3z"/>
	<path fill="#666666" d="M1174.54-816.282v-74.191h8.268v74.191H1174.54z"/>
	<path fill="#666666" d="M1195.524-816.282v-74.191h10.6l16.746,52.994v-52.994h7.524v74.191h-8.585l-18.76-60.307v60.307H1195.524z
		"/>
	<path fill="#666666" d="M1242.368-833.559v-39.745c0-11.765,5.829-18.229,16.746-18.229c11.022,0,16.853,6.359,16.853,18.229v6.041
		h-7.844v-6.57c0-6.783-2.968-10.175-8.797-10.175s-8.69,3.392-8.69,10.175v40.911c0,6.783,2.861,10.175,8.69,10.175
		s8.797-3.392,8.797-10.175v-16.641h-8.161v-7.525h16.005v23.529c0,11.871-5.83,18.336-16.853,18.336
		C1248.197-815.223,1242.368-821.688,1242.368-833.559z"/>
	<path fill="#666666" d="M1287.516-816.282v-74.191h16.217c11.765,0,16.746,5.3,16.746,16.853v4.557
		c0,8.161-2.862,13.143-8.585,14.944v0.106c5.829,1.483,8.69,6.677,8.69,15.474v13.249c0,4.027,0.318,6.995,1.061,9.009h-8.373
		c-0.637-2.12-0.954-5.087-0.954-9.009v-13.673c0-7.949-2.756-10.811-9.857-10.811h-6.677v33.492H1287.516z M1295.784-857.3h6.677
		c6.678,0,9.751-2.967,9.751-10.175v-5.299c0-7.207-2.438-10.175-8.69-10.175h-7.737V-857.3z"/>
	<path fill="#666666" d="M1332.665-816.282v-74.191h30.418v7.525h-22.151v24.165h18.018v7.525h-18.018v27.45h22.151v7.525H1332.665z
		"/>
	<path fill="#666666" d="M1373.043-816.282v-74.191H1390c11.129,0,16.746,6.041,16.746,18.018v38.156
		c0,11.977-5.617,18.018-16.746,18.018H1373.043z M1381.31-823.808h8.479c5.936,0,8.691-2.968,8.691-10.175v-38.897
		c0-7.207-2.756-10.068-8.691-10.068h-8.479V-823.808z"/>
	<path fill="#666666" d="M1418.721-816.282v-74.191h8.267v74.191H1418.721z"/>
	<path fill="#666666" d="M1439.706-816.282v-74.191h30.418v7.525h-22.151v24.165h18.018v7.525h-18.018v27.45h22.151v7.525H1439.706z
		"/>
	<path fill="#666666" d="M1480.084-816.282v-74.191h10.599l16.746,52.994v-52.994h7.524v74.191h-8.585l-18.76-60.307v60.307
		H1480.084z"/>
	<path fill="#666666" d="M1537.632-816.282v-66.666h-13.143v-7.525h34.552v7.525h-13.143v66.666H1537.632z"/>
</g>
<g>
	<defs>
		<path id="SVGID_84_" d="M-39.637-921.314l41.173,31.548v-20.018c32.743,3.807,58.334,31.384,58.334,65.132
			c0,36.338-29.56,65.912-65.897,65.912c-36.339,0-65.913-29.574-65.913-65.912c0-2.654,0.477-5.179,0.784-7.752h-18.567
			c-0.006,0.058-0.003,0.115-0.009,0.174h-4.248v7.578c0,48.489,39.447,87.953,87.937,87.953c48.491,0,87.952-39.464,87.952-87.953
			c0-45.933-35.424-83.691-80.373-87.554v-20.657L-39.637-921.314z"/>
	</defs>
	<clipPath id="SVGID_85_">
		<use xlink:href="#SVGID_84_"  overflow="visible"/>
	</clipPath>
	
		<linearGradient id="SVGID_86_" gradientUnits="userSpaceOnUse" x1="3589.8315" y1="1322.7305" x2="3590.8311" y2="1322.7305" gradientTransform="matrix(176.2657 189.0988 189.0988 -176.2657 -882980.5 -446624.5625)">
		<stop  offset="0" style="stop-color:#146BCA"/>
		<stop  offset="1" style="stop-color:#273E7C"/>
	</linearGradient>
	<polygon clip-path="url(#SVGID_85_)" fill="url(#SVGID_86_)" points="0.135,-1040.591 179.749,-847.899 -12.206,-668.972 
		-191.82,-861.663 	"/>
</g>
<g>
	<defs>
		<rect id="SVGID_87_" x="-16.035" y="-890.502" width="12.187" height="45.208"/>
	</defs>
	<clipPath id="SVGID_88_">
		<use xlink:href="#SVGID_87_"  overflow="visible"/>
	</clipPath>
	
		<linearGradient id="SVGID_89_" gradientUnits="userSpaceOnUse" x1="3589.8311" y1="1322.7041" x2="3590.8311" y2="1322.7041" gradientTransform="matrix(176.2657 189.0988 189.0988 -176.2657 -882971 -446633.4375)">
		<stop  offset="0" style="stop-color:#146BCA"/>
		<stop  offset="1" style="stop-color:#273E7C"/>
	</linearGradient>
	<polygon clip-path="url(#SVGID_88_)" fill="url(#SVGID_89_)" points="-9.514,-896.58 18.701,-866.312 -10.369,-839.215 
		-38.583,-869.483 	"/>
</g>
<g>
	<defs>
		<rect id="SVGID_90_" x="-9.802" y="-849.199" width="66.726" height="7.813"/>
	</defs>
	<clipPath id="SVGID_91_">
		<use xlink:href="#SVGID_90_"  overflow="visible"/>
	</clipPath>
	
		<linearGradient id="SVGID_92_" gradientUnits="userSpaceOnUse" x1="3589.8311" y1="1322.7051" x2="3590.8311" y2="1322.7051" gradientTransform="matrix(176.2657 189.0988 189.0988 -176.2657 -882964.5 -446639.625)">
		<stop  offset="0" style="stop-color:#146BCA"/>
		<stop  offset="1" style="stop-color:#273E7C"/>
	</linearGradient>
	<polygon clip-path="url(#SVGID_91_)" fill="url(#SVGID_92_)" points="25.902,-882.479 60.821,-845.018 21.22,-808.105 
		-13.699,-845.566 	"/>
</g>
<g>
	<defs>
		<path id="SVGID_93_" d="M-19.883-845.294c0,5.492,4.451,9.943,9.941,9.943c5.491,0,9.942-4.451,9.942-9.943
			c0-5.491-4.451-9.942-9.942-9.942C-15.432-855.236-19.883-850.785-19.883-845.294"/>
	</defs>
	<clipPath id="SVGID_94_">
		<use xlink:href="#SVGID_93_"  overflow="visible"/>
	</clipPath>
	
		<linearGradient id="SVGID_95_" gradientUnits="userSpaceOnUse" x1="3589.8335" y1="1322.7041" x2="3590.8291" y2="1322.7041" gradientTransform="matrix(176.2657 189.0988 189.0988 -176.2657 -882982.25 -446622.9375)">
		<stop  offset="0" style="stop-color:#146BCA"/>
		<stop  offset="1" style="stop-color:#273E7C"/>
	</linearGradient>
	<polygon clip-path="url(#SVGID_94_)" fill="url(#SVGID_95_)" points="-9.244,-865.152 9.918,-844.596 -10.639,-825.434 
		-29.801,-845.991 	"/>
</g>
</svg>
