<?xml version="1.0" encoding="utf-8"?>
<!-- Generator: Adobe Illustrator 16.0.0, SVG Export Plug-In . SVG Version: 6.00 Build 0)  -->
<!DOCTYPE svg PUBLIC "-//W3C//DTD SVG 1.1//EN" "http://www.w3.org/Graphics/SVG/1.1/DTD/svg11.dtd">
<svg version="1.1" id="Layer_1" xmlns="http://www.w3.org/2000/svg" xmlns:xlink="http://www.w3.org/1999/xlink" x="0px" y="0px"
	 width="242.378px" height="299.939px" viewBox="0 0 242.378 299.939" enable-background="new 0 0 242.378 299.939"
	 xml:space="preserve">
<g>
	<defs>
		<rect id="SVGID_1_" x="3737.443" y="2266.836" width="2902.677" height="5612.598"/>
	</defs>
	<clipPath id="SVGID_2_">
		<use xlink:href="#SVGID_1_"  overflow="visible"/>
	</clipPath>
	
		<linearGradient id="SVGID_3_" gradientUnits="userSpaceOnUse" x1="3738.1865" y1="2334.3438" x2="3739.1865" y2="2334.3438" gradientTransform="matrix(3071.9939 5840.3604 5840.3604 -3071.9939 -25113458 -14659143)">
		<stop  offset="0" style="stop-color:#146BCA"/>
		<stop  offset="1" style="stop-color:#273E7C"/>
	</linearGradient>
	<polygon clip-path="url(#SVGID_2_)" fill="url(#SVGID_3_)" points="6011.075,1070.92 8952.537,6663.117 4366.487,9075.35 
		1425.026,3483.153 	"/>
</g>
<g>
	<defs>
		<rect id="SVGID_4_" x="-3219.71" y="-3609.249" width="2902.677" height="5612.599"/>
	</defs>
	<clipPath id="SVGID_5_">
		<use xlink:href="#SVGID_4_"  overflow="visible"/>
	</clipPath>
	<path clip-path="url(#SVGID_5_)" fill="#26A084" d="M-1607.008,1675.487c-5.657-5.665-13.206-8.788-21.259-8.788h-0.015
		c-8.05,0-15.598,3.123-21.262,8.779l-2.569,2.568c-1.848,1.849-1.848,4.843,0,6.69c1.847,1.848,4.847,1.848,6.69,0.005l2.569-2.569
		c3.879-3.877,9.054-6.012,14.581-6.012h0.005c5.521,0,10.695,2.135,14.566,6.012c7.748,7.748,7.562,17.793-0.558,29.833
		l-1.927,2.874l-3.438,4.187c-1.189,1.225-2.226,1.894-2.901,1.894c-2.023,0-6.162-4.26-10.17-8.38
		c-1.214-1.249-2.508-2.578-3.894-3.965l-5.17-5.174l-2.33-2.312l-22.417-22.431c-5.669-5.66-13.22-8.779-21.267-8.779h-0.01
		c-8.059,0.004-15.606,3.127-21.259,8.793c-11.721,11.726-11.721,30.804,0,42.525l30.036,30.115
		c5.869,5.867,13.576,8.797,21.273,8.797c7.701,0,15.394-2.93,21.25-8.788l9.036-8.999c1.853-1.844,1.857-4.839,0.014-6.692
		c-1.839-1.848-4.832-1.857-6.69-0.014l-9.047,9.006c-8.026,8.04-21.1,8.035-29.14,0.005l-30.038-30.121
		c-8.029-8.033-8.038-21.104,0-29.145c3.873-3.881,9.043-6.016,14.564-6.021h0.01c5.52,0,10.698,2.135,14.577,6.012l29.914,29.917
		c1.36,1.349,2.616,2.646,3.8,3.866c6.349,6.523,10.931,11.245,16.943,11.245h0.013c3.389,0,6.553-1.552,9.935-5.034l3.965-4.833
		l2.203-3.243C-1595.716,1701.416-1595.925,1686.567-1607.008,1675.487"/>
	<path clip-path="url(#SVGID_5_)" fill="#26A084" d="M-1665.665,1644.707v17.954c0,2.614,2.121,4.731,4.731,4.731
		s4.73-2.117,4.73-4.731v-17.954c16.684-1.757,29.751-15.922,29.751-33.04c0-0.606-0.042-1.198-0.111-2.167l-0.301-4.428
		l-4.434,0.02c-9.931,0.028-18.829,4.473-24.905,11.431v-13.694c0-2.611-2.12-4.731-4.73-4.731s-4.731,2.12-4.731,4.731v13.694
		c-6.076-6.963-14.976-11.402-24.899-11.431l-4.439,0.36l-0.32,4.398c-0.046,0.602-0.083,1.201-0.083,1.816
		C-1695.407,1628.785-1682.345,1642.95-1665.665,1644.707 M-1636.164,1615.071c-1.423,9.842-8.918,17.761-18.545,19.83
		C-1653.287,1625.061-1645.793,1617.132-1636.164,1615.071 M-1667.157,1634.901c-9.629-2.069-17.118-9.988-18.542-19.826
		C-1676.07,1617.137-1668.582,1625.061-1667.157,1634.901"/>
	<path clip-path="url(#SVGID_5_)" fill="#FFFFFF" d="M-1943.409,1741.826c-2.596,0-4.796,0.887-6.607,2.657
		c-1.801,1.77-2.707,3.919-2.707,6.441c0,2.681,0.887,4.901,2.657,6.676c1.77,1.793,3.969,2.688,6.584,2.688
		c2.642,0,4.874-0.877,6.694-2.633c1.807-1.775,2.708-3.97,2.708-6.588c0-2.6-0.896-4.788-2.694-6.567
		C-1938.59,1742.718-1940.803,1741.826-1943.409,1741.826 M-1939.624,1755.161c-0.947,1.017-2.204,1.524-3.785,1.524
		c-1.57,0-2.827-0.517-3.788-1.542c-0.934-1.018-1.396-2.403-1.396-4.149c0-1.626,0.476-2.953,1.433-3.984
		c0.961-1.025,2.208-1.543,3.751-1.543c1.567,0,2.828,0.518,3.785,1.543c0.946,1.018,1.418,2.374,1.418,4.077
		C-1938.206,1752.787-1938.678,1754.145-1939.624,1755.161"/>
	<path clip-path="url(#SVGID_5_)" fill="#FFFFFF" d="M-1918.92,1752.343c0,2.893-1.136,4.343-3.423,4.343
		c-2.288,0-3.429-1.45-3.429-4.343v-10.03h-4.033v10.122c0,1.599,0.166,2.81,0.499,3.623c0.346,0.905,0.942,1.728,1.774,2.458
		c1.368,1.184,3.096,1.773,5.189,1.773c2.102,0,3.839-0.59,5.202-1.773c0.827-0.73,1.41-1.553,1.742-2.458
		c0.346-1.018,0.518-2.229,0.518-3.623v-10.122h-4.039V1752.343z"/>
	<path clip-path="url(#SVGID_5_)" fill="#FFFFFF" d="M-1891.716,1741.826c-2.162,0-3.881,0.859-5.147,2.587
		c-1.15-1.728-2.712-2.587-4.685-2.587c-0.887,0-1.621,0.147-2.208,0.454c-0.551,0.285-1.211,0.832-1.991,1.644v-1.611h-4.034
		v17.479h4.034v-9.029c0-1.829,0.263-3.168,0.78-4.021c0.518-0.848,1.35-1.274,2.486-1.274c1.792,0,2.689,1.558,2.689,4.668v9.656
		h4.057v-9.029c0-1.853,0.254-3.195,0.762-4.039c0.509-0.834,1.317-1.256,2.435-1.256c0.952,0,1.644,0.357,2.061,1.063
		c0.407,0.692,0.61,1.877,0.61,3.549v9.712h4.056v-10.803C-1885.811,1744.209-1887.779,1741.826-1891.716,1741.826"/>
	<path clip-path="url(#SVGID_5_)" fill="#FFFFFF" d="M-1862.648,1741.826c-2.168,0-3.882,0.859-5.152,2.587
		c-1.146-1.728-2.707-2.587-4.681-2.587c-0.882,0-1.621,0.147-2.204,0.454c-0.555,0.285-1.219,0.832-1.995,1.644v-1.611h-4.039
		v17.479h4.039v-9.029c0-1.829,0.258-3.168,0.78-4.021c0.523-0.848,1.35-1.274,2.486-1.274c1.797,0,2.694,1.558,2.694,4.668v9.656
		h4.052v-9.029c0-1.853,0.254-3.195,0.762-4.039c0.509-0.834,1.322-1.256,2.43-1.256c0.961,0,1.646,0.357,2.066,1.063
		c0.407,0.692,0.609,1.877,0.609,3.549v9.712h4.053v-10.803C-1856.749,1744.209-1858.712,1741.826-1862.648,1741.826"/>
	<path clip-path="url(#SVGID_5_)" fill="#FFFFFF" d="M-1838.766,1744.34c-1.618-1.673-3.439-2.514-5.472-2.514
		c-2.36,0-4.324,0.873-5.885,2.619c-1.572,1.747-2.352,3.934-2.352,6.549c0,2.669,0.78,4.896,2.352,6.681
		c1.579,1.746,3.575,2.615,5.988,2.615c1.916,0,3.705-0.776,5.369-2.328v1.83h4.056v-17.479h-4.056V1744.34z M-1839.899,1755.143
		c-0.92,1.026-2.13,1.543-3.626,1.543c-1.396,0-2.561-0.535-3.479-1.599c-0.897-1.055-1.345-2.416-1.345-4.093
		c0-1.563,0.462-2.884,1.381-3.947c0.933-1.054,2.094-1.579,3.479-1.579c1.474,0,2.67,0.521,3.59,1.561
		c0.92,1.068,1.382,2.42,1.382,4.059C-1838.517,1752.727-1838.979,1754.08-1839.899,1755.143"/>
	<rect x="-1829.618" y="1729.479" clip-path="url(#SVGID_5_)" fill="#FFFFFF" width="4.037" height="30.313"/>
	<path clip-path="url(#SVGID_5_)" fill="#FFFFFF" d="M-1817.348,1755.3c-0.677,0-1.265,0.248-1.756,0.739
		c-0.489,0.489-0.732,1.072-0.732,1.737c0,0.721,0.234,1.319,0.713,1.798c0.481,0.475,1.075,0.715,1.775,0.715
		c0.699,0,1.286-0.24,1.76-0.715c0.496-0.491,0.737-1.087,0.737-1.779c0-0.679-0.241-1.267-0.737-1.756
		C-1816.076,1755.548-1816.663,1755.3-1817.348,1755.3"/>
	<path clip-path="url(#SVGID_5_)" fill="#FFFFFF" d="M-1800.637,1741.826c-2.599,0-4.798,0.887-6.609,2.657
		c-1.802,1.77-2.708,3.919-2.708,6.441c0,2.681,0.887,4.901,2.657,6.676c1.77,1.793,3.968,2.688,6.585,2.688
		c2.641,0,4.874-0.877,6.695-2.633c1.806-1.775,2.705-3.97,2.705-6.588c0-2.6-0.894-4.788-2.691-6.567
		C-1795.82,1742.718-1798.035,1741.826-1800.637,1741.826 M-1796.855,1755.161c-0.947,1.017-2.203,1.524-3.782,1.524
		c-1.573,0-2.831-0.517-3.79-1.542c-0.933-1.018-1.395-2.403-1.395-4.149c0-1.626,0.475-2.953,1.432-3.984
		c0.959-1.025,2.207-1.543,3.753-1.543c1.565,0,2.825,0.518,3.782,1.543c0.947,1.018,1.42,2.374,1.42,4.077
		C-1795.436,1752.787-1795.909,1754.145-1796.855,1755.161"/>
	<path clip-path="url(#SVGID_5_)" fill="#FFFFFF" d="M-1781.03,1742.28c-0.572,0.285-1.23,0.813-1.975,1.593v-1.561h-4.032v17.479
		h4.032v-9.065c0-3.326,1.105-4.984,3.306-4.984c0.727,0,1.478,0.271,2.24,0.827l1.846-3.697c-1.158-0.693-2.272-1.045-3.336-1.045
		C-1779.744,1741.826-1780.444,1741.974-1781.03,1742.28"/>
	<path clip-path="url(#SVGID_5_)" fill="#FFFFFF" d="M-1760.433,1742.313v1.971c-1.46-1.635-3.29-2.457-5.49-2.457
		c-2.513,0-4.532,0.947-6.062,2.837c-1.422,1.784-2.133,3.945-2.133,6.495c0,2.615,0.762,4.802,2.291,6.549
		c1.519,1.724,3.469,2.582,5.851,2.582c2.097,0,3.944-0.817,5.543-2.457v2.439c0,3.627-1.478,5.438-4.432,5.438
		c-1.604,0-2.821-0.546-3.659-1.63c-0.355-0.473-0.614-1.133-0.772-1.997h-4.056c0.241,2.286,1.135,4.075,2.694,5.369
		c1.506,1.256,3.424,1.883,5.761,1.883c2.763,0,4.937-0.912,6.511-2.728c0.836-0.948,1.399-2.076,1.687-3.392
		c0.098-0.477,0.172-1.03,0.223-1.66c0.056-0.628,0.081-1.354,0.081-2.181v-17.062H-1760.433z M-1761.505,1754.994
		c-0.901,1.128-2.119,1.691-3.662,1.691c-1.545,0-2.75-0.555-3.627-1.672c-0.8-1.018-1.203-2.319-1.203-3.908
		c0-1.619,0.403-2.93,1.203-3.947c0.887-1.137,2.096-1.71,3.627-1.71c1.436,0,2.614,0.526,3.535,1.563
		c0.909,1.016,1.365,2.374,1.365,4.075C-1760.267,1752.676-1760.684,1753.978-1761.505,1754.994"/>
	<path clip-path="url(#SVGID_5_)" fill="#FFFFFF" d="M-1763.307,1698.745h-25.864c-11.001,0-19.951-8.943-19.951-19.95
		c0-11.001,8.95-19.95,19.951-19.95c11.002,0,19.95,8.949,19.95,19.95c0,3.271,2.651,5.915,5.914,5.915
		c3.272,0,5.916-2.644,5.916-5.915c0-17.52-14.255-31.778-31.78-31.778c-17.521,0-31.778,14.259-31.778,31.778
		c0,7.56,2.661,14.494,7.076,19.95h-27.033c-11,0-19.955-8.943-19.955-19.95c0-0.129-0.064-0.23-0.073-0.359
		c-0.758-16.855-14.666-30.338-31.706-30.338c-17.034,0-30.942,13.482-31.705,30.338c-0.008,0.129-0.073,0.23-0.073,0.359
		c0,11.007-8.955,19.95-19.955,19.95h-4.732c-11.001,0-19.955-8.943-19.955-19.95v-71.236c0-3.262-2.643-5.913-5.914-5.913
		c-3.263,0-5.914,2.651-5.914,5.913v71.236c0,17.525,14.259,31.779,31.783,31.779h4.732c10.424,0,19.663-5.063,25.462-12.84
		c5.73,8.395,15.368,13.921,26.271,13.921c10.909,0,20.547-5.526,26.271-13.921c5.799,7.776,15.039,12.84,25.462,12.84h77.6
		c3.272,0,5.916-2.643,5.916-5.914C-1757.391,1701.397-1760.035,1698.745-1763.307,1698.745 M-1892.64,1699.827
		c-11,0-19.951-8.945-19.951-19.951c0-11.001,8.951-19.949,19.951-19.949c11.001,0,19.952,8.948,19.952,19.949
		C-1872.688,1690.882-1881.639,1699.827-1892.64,1699.827"/>
	<path clip-path="url(#SVGID_5_)" fill="#FFFFFF" d="M-1998.936,1601.645c-3.271,0-5.913,2.652-5.913,5.913v71.237
		c0,11.006-8.956,19.951-19.956,19.951h-19.235c-11.001,0-19.95-8.945-19.95-19.951c0-5.867,2.569-11.421,7.059-15.224
		c2.486-2.111,2.796-5.845,0.684-8.334c-2.107-2.491-5.845-2.791-8.335-0.686c-7.143,6.058-11.237,14.893-11.237,24.243
		c0,17.525,14.259,31.779,32.089,31.779h18.925c17.525,0,31.783-14.254,31.783-31.779v-71.237
		C-1993.022,1604.297-1995.673,1601.645-1998.936,1601.645"/>
	<path clip-path="url(#SVGID_5_)" fill="#FFFFFF" d="M-1902.352,1628.826c1.284,0.78,2.726,1.184,4.195,1.184
		c0.638,0,1.284-0.079,1.922-0.232c2.098-0.508,3.877-1.807,4.999-3.654c0.019-0.027,0.028-0.06,0.046-0.092
		c1.248,0.767,2.657,1.279,4.168,1.279c0.633,0,1.276-0.078,1.913-0.23c4.334-1.059,7.004-5.438,5.952-9.772
		c-0.49-2.027-1.738-3.77-3.512-4.897c-1.1-0.711-2.57-0.389-3.267,0.72c-0.702,1.101-0.384,2.56,0.72,3.263
		c0.74,0.473,1.261,1.196,1.465,2.033c0.435,1.797-0.674,3.618-2.476,4.057c-1.797,0.448-3.613-0.675-4.057-2.476
		c-0.309-1.266-1.594-2.048-2.855-1.737c-1.275,0.31-2.052,1.588-1.742,2.854c0.212,0.873,0.07,1.774-0.392,2.541
		c-0.472,0.767-1.207,1.303-2.08,1.516c-0.874,0.212-1.779,0.069-2.541-0.396c-0.767-0.463-1.303-1.202-1.515-2.08
		c-0.204-0.832-0.074-1.709,0.369-2.468c0.656-1.127,0.277-2.577-0.855-3.232c-1.128-0.657-2.578-0.278-3.234,0.854
		c-1.058,1.824-1.373,3.94-0.874,5.966C-1905.494,1625.925-1904.2,1627.704-1902.352,1628.826"/>
	<path clip-path="url(#SVGID_5_)" fill="#FFFFFF" d="M-1517.855,1715.23c-26.979,0-48.929-21.95-48.929-48.93
		s21.95-48.93,48.929-48.93c26.979,0,48.93,21.95,48.93,48.93S-1490.875,1715.23-1517.855,1715.23 M-1517.855,1623.682
		c-23.5,0-42.617,19.119-42.617,42.619c0,23.499,19.117,42.618,42.617,42.618s42.618-19.119,42.618-42.618
		C-1475.237,1642.801-1494.355,1623.682-1517.855,1623.682"/>
	<path clip-path="url(#SVGID_5_)" fill="#FFFFFF" d="M-1517.855,1635.85c-13.699,0-25.313,9.096-29.125,21.565h11.721
		c3.242-6.324,9.824-10.664,17.404-10.664c10.78,0,19.552,8.77,19.552,19.55c0,10.781-8.771,19.551-19.552,19.551
		c-7.58,0-14.164-4.341-17.404-10.665h-11.721c3.813,12.469,15.426,21.565,29.125,21.565c16.791,0,30.451-13.66,30.451-30.451
		C-1487.404,1649.511-1501.064,1635.85-1517.855,1635.85"/>
</g>
<g>
	<path fill="#FFFFFF" d="M229.753-4258.003v-61.214h9.882l9.007,48.884l8.919-48.884h9.969v61.214h-6.559v-51.07l-9.707,51.07
		h-5.772l-9.707-51.07v51.07H229.753z"/>
	<path fill="#FFFFFF" d="M275.048-4258.003v-61.214h6.821v61.214H275.048z"/>
	<path fill="#FFFFFF" d="M289.388-4258.003v-61.214h8.745l13.817,43.724v-43.724h6.208v61.214h-7.083l-15.479-49.758v49.758H289.388
		z"/>
	<path fill="#FFFFFF" d="M325.763-4258.003v-61.214h6.821v61.214H325.763z"/>
	<path fill="#FFFFFF" d="M338.354-4275.406h6.471v3.936c0,5.421,2.361,8.132,7.083,8.132c4.81,0,7.171-2.711,7.171-8.22
		c0-2.798-0.7-5.247-2.099-7.433c-1.312-2.187-3.76-4.723-7.346-7.696c-4.198-3.41-7.171-6.559-8.833-9.357
		s-2.448-5.946-2.448-9.444c0-9.182,4.984-14.604,13.729-14.604c8.745,0,13.467,5.334,13.467,14.779v2.449h-6.471v-2.886
		c0-5.422-2.361-8.133-6.996-8.133s-6.996,2.624-6.996,7.958c0,2.536,0.7,4.81,2.099,6.908c1.399,2.099,3.935,4.635,7.608,7.608
		c4.198,3.498,7.083,6.646,8.658,9.532c1.661,2.798,2.448,6.034,2.448,9.794c0,9.532-5.072,14.954-13.904,14.954
		c-8.832,0-13.642-5.334-13.642-14.866V-4275.406z"/>
	<path fill="#FFFFFF" d="M379.451-4258.003v-55.005h-10.843v-6.209h28.508v6.209h-10.843v55.005H379.451z"/>
	<path fill="#FFFFFF" d="M401.835-4258.003v-61.214h13.38c9.707,0,13.817,4.373,13.817,13.904v3.76
		c0,6.734-2.361,10.844-7.083,12.331v0.087c4.81,1.224,7.171,5.509,7.171,12.767v10.931c0,3.323,0.262,5.771,0.875,7.433h-6.909
		c-0.524-1.749-0.787-4.197-0.787-7.433v-11.281c0-6.559-2.273-8.92-8.132-8.92h-5.509v27.634H401.835z M408.657-4291.846h5.509
		c5.509,0,8.045-2.449,8.045-8.395v-4.373c0-5.946-2.011-8.395-7.17-8.395h-6.384V-4291.846z"/>
	<path fill="#FFFFFF" d="M444.157-4258.003v-26.847l-12.331-34.367h7.258l8.745,25.535l8.745-25.535h6.733l-12.33,34.367v26.847
		H444.157z"/>
	<path fill="#FFFFFF" d="M480.62-4272.257v-32.793c0-9.707,4.984-15.042,13.991-15.042c9.095,0,14.079,5.334,14.079,15.042v32.793
		c0,9.707-4.984,15.128-14.079,15.128C485.604-4257.129,480.62-4262.551,480.62-4272.257z M501.87-4271.82v-33.667
		c0-5.597-2.449-8.395-7.259-8.395s-7.17,2.798-7.17,8.395v33.667c0,5.684,2.36,8.482,7.17,8.482S501.87-4266.136,501.87-4271.82z"
		/>
	<path fill="#FFFFFF" d="M515.508-4258.003v-61.214h24.311v6.209H522.33v20.813h14.079v6.209H522.33v27.983H515.508z"/>
	<path fill="#FFFFFF" d="M558.004-4258.003v-61.214h13.38c9.182,0,13.816,4.985,13.816,14.866v5.247
		c0,9.882-4.635,14.779-13.816,14.779h-6.559v26.322H558.004z M564.826-4290.534h6.559c4.897,0,6.996-2.273,6.996-8.22v-6.034
		c0-5.947-2.099-8.22-6.996-8.22h-6.559V-4290.534z"/>
	<path fill="#FFFFFF" d="M590.358-4272.257v-46.96h6.821v47.484c0,5.597,2.36,8.395,7.083,8.395s7.083-2.798,7.083-8.395v-47.484
		h6.646v46.96c0,9.794-4.81,15.128-13.817,15.128C595.081-4257.129,590.358-4262.463,590.358-4272.257z"/>
	<path fill="#FFFFFF" d="M625.16-4258.003v-61.214h13.643c9.706,0,13.816,4.373,13.816,13.904v2.536
		c0,6.559-2.273,10.581-6.821,12.243v0.175c5.16,1.487,7.783,5.772,7.783,12.855v5.247c0,9.532-4.723,14.254-14.079,14.254H625.16z
		 M631.981-4293.07h5.771c5.509,0,8.045-2.448,8.045-8.395v-3.148c0-5.946-2.011-8.395-7.171-8.395h-6.646V-4293.07z
		 M631.981-4264.212h7.521c4.984,0,7.258-2.361,7.258-8.22v-5.247c0-6.646-2.36-9.182-8.657-9.182h-6.121V-4264.212z"/>
	<path fill="#FFFFFF" d="M659.437-4258.003v-61.214h6.821v55.005h17.489v6.209H659.437z"/>
	<path fill="#FFFFFF" d="M688.467-4258.003v-61.214h6.821v61.214H688.467z"/>
	<path fill="#FFFFFF" d="M702.108-4271.733v-33.755c0-9.182,4.896-14.604,13.642-14.604s13.642,5.422,13.642,14.604v6.296h-6.471
		v-6.733c0-5.16-2.711-7.958-6.996-7.958s-6.995,2.798-6.995,7.958v34.629c0,5.159,2.71,7.958,6.995,7.958s6.996-2.798,6.996-7.958
		v-8.57h6.471v8.132c0,9.182-4.896,14.604-13.642,14.604C707.092-4257.129,702.108-4262.551,702.108-4271.733z"/>
	<path fill="#FFFFFF" d="M748.888-4258.003v-61.214h6.821v26.147h14.517v-26.147h6.82v61.214h-6.82v-28.858h-14.517v28.858H748.888z
		"/>
	<path fill="#FFFFFF" d="M784.652-4258.003v-61.214h25.098v6.209h-18.276v19.938h14.866v6.209h-14.866v22.649h18.276v6.209H784.652z
		"/>
	<path fill="#FFFFFF" d="M837.73-4258.003l-2.273-13.03H821.29l-2.273,13.03h-6.384L824-4319.217h9.183l11.455,61.214H837.73z
		 M822.339-4276.979h12.067l-6.121-34.455L822.339-4276.979z"/>
	<path fill="#FFFFFF" d="M849.533-4258.003v-61.214h6.821v55.005h17.489v6.209H849.533z"/>
	<path fill="#FFFFFF" d="M879.351-4258.003v-55.005h-10.844v-6.209h28.509v6.209h-10.844v55.005H879.351z"/>
	<path fill="#FFFFFF" d="M901.823-4258.003v-61.214h6.821v26.147h14.517v-26.147h6.82v61.214h-6.82v-28.858h-14.517v28.858H901.823z
		"/>
</g>
<g>
	<path fill="#FFFFFF" d="M229.988-4336.175v-75.665h17.619c12.215,0,17.62,5.621,17.62,17.403v4.648
		c0,7.891-2.594,12.863-7.783,14.917v0.216c5.296,1.622,7.891,7.026,7.891,15.998v13.295c0,4.107,0.433,7.134,1.297,9.188h-12.106
		c-0.756-2.162-1.081-5.296-1.081-9.296v-13.836c0-6.918-1.946-9.296-7.458-9.296h-4.107v32.428H229.988z M241.878-4379.413h4.324
		c4.756,0,7.134-2.27,7.134-7.999v-5.837c0-5.188-2.054-7.783-6.053-7.783h-5.404V-4379.413z"/>
	<path fill="#FFFFFF" d="M272.47-4336.175v-75.665h32.428v10.809H284.36v19.997h16.322v10.81H284.36v23.24h20.538v10.81H272.47z"/>
	<path fill="#FFFFFF" d="M310.303-4336.175v-75.665h17.511c11.782,0,17.728,6.269,17.728,18.7v7.458
		c0,12.431-5.945,18.7-17.728,18.7h-5.621v30.807H310.303z M322.193-4377.791h5.621c3.892,0,5.837-1.946,5.837-7.134v-8.972
		c0-5.188-1.945-7.134-5.837-7.134h-5.621V-4377.791z"/>
	<path fill="#FFFFFF" d="M350.515-4411.84h11.89v58.586c0,4.864,2.054,7.35,6.053,7.35s6.053-2.486,6.053-7.35v-58.586h11.458
		v57.722c0,12.214-6.161,19.024-17.728,19.024c-11.566,0-17.727-6.81-17.727-19.024V-4411.84z"/>
	<path fill="#FFFFFF" d="M393.428-4336.175v-75.665h17.944c12.214,0,17.619,5.621,17.619,17.403v3.026
		c0,7.783-2.594,12.755-7.675,14.809v0.216c5.945,2.054,8.864,7.243,8.864,15.782v6.486c0,11.674-6.27,17.943-18.052,17.943H393.428
		z M405.318-4381.034h4.648c4.756,0,7.134-2.27,7.134-7.999v-4.216c0-5.188-2.054-7.783-6.053-7.783h-5.729V-4381.034z
		 M405.318-4346.985h6.81c4.216,0,6.162-1.945,6.162-7.458v-6.594c0-6.918-2.162-9.188-7.675-9.188h-5.296V-4346.985z"/>
	<path fill="#FFFFFF" d="M436.125-4336.175v-75.665h11.891v64.855h19.565v10.81H436.125z"/>
	<path fill="#FFFFFF" d="M472.229-4336.175v-75.665h11.891v75.665H472.229z"/>
	<path fill="#FFFFFF" d="M491.145-4394.33c0-11.782,6.161-18.592,17.511-18.592s17.511,6.81,17.511,18.592v7.999h-11.241v-8.755
		c0-4.648-1.945-7.026-5.945-7.026c-3.999,0-5.945,2.378-5.945,7.026v42.264c0,4.648,1.946,6.918,5.945,6.918
		c4,0,5.945-2.27,5.945-6.918v-11.025h11.241v10.161c0,11.782-6.161,18.592-17.511,18.592s-17.511-6.81-17.511-18.592V-4394.33z"/>
	<path fill="#FFFFFF" d="M547.678-4393.897c0-12.106,6.377-19.024,18.051-19.024c11.675,0,18.052,6.918,18.052,19.024v39.778
		c0,12.106-6.377,19.024-18.052,19.024c-11.674,0-18.051-6.918-18.051-19.024V-4393.897z M571.891-4394.654
		c0-4.972-2.054-7.458-6.162-7.458c-4.107,0-6.161,2.486-6.161,7.458v41.292c0,4.973,2.054,7.458,6.161,7.458
		c4.108,0,6.162-2.486,6.162-7.458V-4394.654z"/>
	<path fill="#FFFFFF" d="M590.807-4336.175v-75.665h31.455v10.809h-19.564v21.078h15.349v10.81h-15.349v32.968H590.807z"/>
	<path fill="#FFFFFF" d="M643.232-4336.175v-75.665h11.891v64.855h19.564v10.81H643.232z"/>
	<path fill="#FFFFFF" d="M679.444-4336.175v-75.665h32.428v10.809h-20.537v19.997h16.322v10.81h-16.322v23.24h20.537v10.81H679.444z
		"/>
	<path fill="#FFFFFF" d="M717.169-4336.175v-75.665h17.943c12.215,0,17.619,5.621,17.619,17.403v3.026
		c0,7.783-2.594,12.755-7.674,14.809v0.216c5.944,2.054,8.863,7.243,8.863,15.782v6.486c0,11.674-6.27,17.943-18.052,17.943H717.169
		z M729.06-4381.034h4.647c4.757,0,7.135-2.27,7.135-7.999v-4.216c0-5.188-2.054-7.783-6.054-7.783h-5.729V-4381.034z
		 M729.06-4346.985h6.81c4.216,0,6.161-1.945,6.161-7.458v-6.594c0-6.918-2.161-9.188-7.675-9.188h-5.296V-4346.985z"/>
	<path fill="#FFFFFF" d="M785.376-4336.175l-2.054-14.809h-13.728l-2.054,14.809h-11.025l12.322-75.665h16.105l12.323,75.665
		H785.376z M771.108-4361.253h10.701l-5.404-38.157L771.108-4361.253z"/>
	<path fill="#FFFFFF" d="M801.915-4336.175v-75.665h14.701l11.998,45.291v-45.291h10.593v75.665h-11.998l-14.7-55.236v55.236
		H801.915z"/>
	<path fill="#FFFFFF" d="M846.233-4393.897c0-12.106,6.377-19.024,18.051-19.024c11.675,0,18.052,6.918,18.052,19.024v39.778
		c0,12.106-6.377,19.024-18.052,19.024c-11.674,0-18.051-6.918-18.051-19.024V-4393.897z M870.446-4394.654
		c0-4.972-2.054-7.458-6.162-7.458c-4.107,0-6.161,2.486-6.161,7.458v41.292c0,4.973,2.054,7.458,6.161,7.458
		c4.108,0,6.162-2.486,6.162-7.458V-4394.654z"/>
	<path fill="#FFFFFF" d="M889.363-4336.175v-75.665h14.701l11.998,45.291v-45.291h10.593v75.665h-11.998l-14.7-55.236v55.236
		H889.363z"/>
</g>
<g>
	<defs>
		<rect id="SVGID_6_" x="-977.615" y="-4765.567" width="2902.677" height="5612.599"/>
	</defs>
	<clipPath id="SVGID_7_">
		<use xlink:href="#SVGID_6_"  overflow="visible"/>
	</clipPath>
	<path clip-path="url(#SVGID_7_)" fill="#FFFFFF" d="M156.574-4389.051c2.465,0.122,4.955,0.245,7.009,0.346
		c3.108,4.14,7.306,6.019,11.721,7.791c-4.12,1.067-8.24,2.135-12.726,3.296c0.347,2.033,0.674,3.844,0.955,5.662
		c0.083,0.536,0.044,1.092,0.044,1.639c0.005,4.479,0.004,4.479,4.558,4.479c2.63,0,5.279-0.19,7.885,0.06
		c2.133,0.204,4.195,1.059,6.325,1.392c2.102,0.329,3.704,1.384,5.084,2.86c0.651,0.696,1.044,1.641,1.722,2.301
		c1.022,0.995,0.087,1.648-0.449,1.943c-2.49,1.371-5.018,2.702-7.638,3.796c-1.329,0.554-3.235,0.133-4.248,0.942
		c-1.448,1.156-2.848,0.713-4.265,0.767c-1.14,0.043-2.236-0.264-3.398-0.658c-2.086-0.708-4.631-0.755-6.682,0.802
		c-1.594,1.211-2.234,5.505-1.452,7.421c1.158,2.839,3.271,3.775,6.121,3.677c1.368-0.048,2.748-0.101,4.108,0.016
		c1.523,0.132,3.033,0.439,4.544,0.699c1.133,0.193,2.251,0.565,3.387,0.623c2.023,0.103,4.056-0.019,6.081,0.048
		c1.053,0.035,2.31-0.52,3.055,0.824c0.077,0.139,0.517,0.066,0.784,0.111c2.748,0.466,5.528,0.799,8.23,1.451
		c1.904,0.459,3.738,1.274,5.536,2.079c0.973,0.436,1.901,1.089,2.644,1.845c0.232,0.237-0.024,1.489-0.368,1.664
		c-1.621,0.824-3.185,1.582-5.147,1.872c-3.684,0.543-7.405,0.795-11.04,1.393c-3.156,0.52-6.233,0.332-9.339,0.467
		c-1.169,0.051-2.386-0.689-3.537-0.585c-2.908,0.263-5.794,0.747-8.17,2.737c-0.761,0.638-1.649,1.177-2.56,1.573
		c-1.524,0.662-2.083,1.93-1.684,3.292c0.37,1.261,1.366,2.14,3.003,2.161c1.687,0.021,3.37,0.624,5.054,0.619
		c1.459-0.005,3.044-0.231,4.352-0.838c3.463-1.607,7.043-2.259,10.808-1.929c1.029,0.091,2.031,0.478,3.05,0.709
		c1.018,0.231,2.034,0.544,3.067,0.633c3.533,0.303,7.119,0.27,10.592,0.886c1.607,0.286,3,1.776,4.49,2.72
		c-0.008,0.248-0.016,0.496-0.025,0.745c-1.126,0.466-2.257,1.339-3.378,1.328c-4.127-0.042-7.611,1.779-11.223,3.334
		c-1.378,0.594-2.344,1.532-3.297,2.629c-1.523,1.75-3.812,2.137-5.787,3.11c-3.113,1.533-6.23,0.466-9.315,0.808
		c-0.931,0.103-2.068,0.442-2.752-0.786c-0.118-0.211-0.836-0.041-1.254-0.142c-1.457-0.355-2.903-0.752-4.354-1.132
		c-1.11-0.291-2.211-0.621-3.332-0.863c-1.437-0.31-2.893-0.535-4.335-0.829c-0.507-0.103-0.99-0.322-1.494-0.444
		c-0.465-0.112-0.967-0.301-1.413-0.224c-2.542,0.442-5.075,0.939-7.605,1.446c-2.204,0.441-4.41,0.883-6.596,1.407
		c-0.695,0.166-1.328,0.593-2.213,1.005c-0.236,1.823-0.234,3.957-0.827,5.91c-1.008,3.314-0.024,6.735-0.718,9.948
		c-1.166,5.41-0.458,10.813-0.46,16.2c-0.001,1.891,1.455,3.825,2.397,5.663c1.268,2.475,2.687,4.872,4.031,7.309
		c0.389,0.706,0.771,1.419,1.102,2.154c0.289,0.64,0.503,1.316,0.766,2.018c-4.101,1.798-8.259,1.436-12.062,0.84
		c-4.965-0.78-10.019-1.054-14.716-0.24c-5.054,0.877-10.08,1.541-15.026,0.973c-6.802-0.782-13.571-0.245-20.344-0.56
		c-2.887-0.133-4.166-2.539-2.895-5.097c1.38-2.775,2.715-5.58,3.903-8.44c0.496-1.196,0.218-2.806,0.905-3.81
		c1.114-1.628-0.295-3.837,1.482-5.159c0.063-0.048,0.054-0.207,0.059-0.315c0.234-5.178,0.544-10.355,0.656-15.536
		c0.038-1.781-0.395-3.576-0.66-5.358c-0.154-1.036-1.51-1.597-2.448-1.206c-1.143,0.475-2.35,0.8-3.536,1.17
		c-1.427,0.446-2.835,1.067-4.297,1.252c-1.727,0.218-3.503,0.051-5.269-0.197c1.516-0.307,3.057-0.522,4.541-0.94
		c2.618-0.737,5.426-0.783,7.79-2.457c2.708-1.918,2.815-5.89,0.037-7.737c-0.366-0.243-0.925-0.266-1.396-0.272
		c-2.246-0.026-4.493-0.034-6.74-0.007c-4.639,0.055-9.109-3.547-11.055-7.343c-2.418-4.713-2.353-9.602-2.215-14.571
		c0.086-3.103,0.401-6.202,0.688-9.296c0.135-1.463,0.371-2.927,0.696-4.359c0.268-1.182,0.733-2.32,1.113-3.477
		c0.647-1.966,1.218-3.962,1.966-5.889c0.819-2.114,1.761-4.184,2.726-6.237c0.984-2.093,2.02-4.163,3.116-6.2
		c0.458-0.85,1.094-1.613,1.707-2.368c1.205-1.482,2.394-2.984,3.693-4.382c2.246-2.417,4.462-4.881,6.898-7.098
		c1.871-1.701,4.054-3.062,6.113-4.553c0.721-0.522,1.474-1.005,2.235-1.467c1.735-1.052,3.435-2.177,5.24-3.095
		c2.684-1.364,5.417-2.576,8.338-3.471c2.258-0.691,4.547-1.046,6.784-1.635c4.382-1.153,8.756-0.485,13.104-0.452
		c2.078,0.015,4.099,1.576,6.233,2.028c1.884,0.399,3.474,1.194,4.884,2.359c1.591,1.315,3.632,2.064,4.66,4.129
		c0.652,1.309,1.937,2.289,2.742,3.543c0.655,1.021,1.014,2.231,1.514,3.352c0.21,0.472,0.516,0.912,0.655,1.401
		c0.683,2.397,1.279,4.809,1.805,7.251c1.007,4.671,0.336,9.299,0.513,13.935c0.075,1.937-0.211,3.973-0.773,5.831
		c-1.013,3.347-2.525,6.545-3.518,9.897c-1.036,3.501-2.964,6.409-5.137,9.241c-1.537,2.003-3.022,4.053-4.403,6.164
		c-0.61,0.932,0.121,4.994,0.8,5.571c1.2,1.022,4.28,1.058,5.936,0.299c2.663-1.221,4.04-3.641,5.889-5.677
		c2.05-2.259,2.677-5.147,4.171-7.63c1.205-2.002,2.149-4.186,2.991-6.373c0.695-1.806,1.039-3.744,1.598-5.606
		c0.408-1.357,0.936-2.677,1.369-4.027c0.335-1.044,0.684-2.095,0.887-3.17c0.312-1.658,0.412-3.358,0.764-5.005
		c1.263-5.914,0.607-11.897,0.596-17.842c-0.006-3.226-0.895-6.427-2.181-9.438C158.303-4385.547,157.349-4387.411,156.574-4389.051
		 M104.033-4379.201c-1.68-0.222-4.18,1.732-4.449,3.609c-0.348,2.431-0.687,4.889-0.694,7.336
		c-0.007,2.337,0.376,4.682,0.661,7.014c0.279,2.287,0.62,4.569,0.995,6.842c0.178,1.084,0.419,2.171,0.771,3.209
		c0.615,1.814,1.382,3.578,2.003,5.39c0.648,1.89,1.193,3.815,1.796,5.721c0.637,2.012,1.304,4.016,1.934,6.032
		c0.531,1.701,0.991,3.425,1.552,5.116c0.711,2.143,1.659,4.221,2.201,6.402c0.644,2.592,1.042,5.253,1.404,7.904
		c0.339,2.481,0.675,4.986,0.693,7.483c0.062,8.298,0.273,16.605-0.657,24.878c-0.03,0.27-0.039,0.546-0.098,0.81
		c-0.426,1.879-0.856,3.757-1.296,5.633c-0.324,1.378-0.618,2.766-1.008,4.126c-0.409,1.426-0.903,2.829-1.385,4.233
		c-0.656,1.913-1.33,3.818-2.006,5.723c-0.469,1.321-1.097,2.609-1.357,3.968c-0.091,0.48,0.753,1.645,1.075,1.611
		c1.635-0.173,3.499-0.249,4.784-1.106c1.409-0.938,2.706-2.187,3.235-4.238c0.727-2.824,2.226-5.452,3.43-8.148
		c0.203-0.453,0.691-0.784,0.872-1.24c0.893-2.253,1.701-4.539,2.592-6.793c0.562-1.421,1.343-2.766,1.794-4.216
		c0.445-1.427,0.597-2.944,0.877-4.421c0.161-0.018,0.322-0.037,0.483-0.055c0.695,2.267,1.845,4.505,1.994,6.808
		c0.334,5.169,0.278,10.379-0.688,15.512c-0.222,1.174-0.576,2.351-1.059,3.443c-0.67,1.511-0.401,2.621,1.062,3.438
		c2.994,1.673,6.725-0.381,7.023-3.798c0.142-1.633,0.33-3.3,0.808-4.856c0.704-2.29,1.4-4.549,1.315-6.976
		c-0.009-0.265,0.066-0.534,0.11-0.801c0.187-1.132,0.328-2.275,0.581-3.393c0.255-1.127,0.868-2.221,0.899-3.342
		c0.111-4.046,0.227-8.108-0.007-12.144c-0.229-3.956,0.768-7.928-0.779-11.913c-0.805-2.074,0.103-4.642-0.753-6.971
		c-0.535-1.457-0.474-3.126-0.733-4.692c-0.464-2.807-1.107-5.593-1.409-8.417c-0.24-2.247-0.66-4.354-1.56-6.462
		c-0.809-1.894-1.125-4.015-1.524-6.063c-0.533-2.729-1.055-5.471-1.364-8.231c-0.364-3.252-0.548-6.528-0.708-9.798
		c-0.102-2.075-0.132-4.166,0.005-6.236c0.235-3.535-0.388-7.055,0.545-10.636c0.77-2.958,0.532-6.172,0.824-9.264
		c0.128-1.363-0.611-2.24-1.471-3.025c-1.022-0.933-2.946-0.193-3.168,1.157c-0.246,1.509-0.497,3.018-0.69,4.533
		c-0.261,2.057-0.455,4.121-0.7,6.179c-0.323,2.705,0.259,5.372-0.788,8.177c-0.99,2.654-0.583,5.816-0.876,8.746
		c-0.135,1.352-0.323,2.734-0.752,4.014c-0.899,2.684-2.005,5.299-2.969,7.962c-0.855,2.361-4.09,3.774-5.698,2.288
		c-1.164-1.076-2.39-2.362-2.906-3.798c-0.826-2.301-1.174-4.79-1.558-7.226c-0.297-1.886,0.008-3.772-0.611-5.73
		c-0.724-2.288-0.741-4.844-0.791-7.29C105.741-4369.94,106.026-4374.727,104.033-4379.201 M86.012-4361.635
		c-1.448,0.101-2.711-0.171-3.081,0.283c-1.053,1.294-2.227,2.807-2.473,4.372c-0.55,3.486-0.744,7.057-0.745,10.592
		c-0.001,3.536,0.316,7.082,0.68,10.604c0.175,1.683,0.756,3.328,1.201,4.978c0.329,1.218,0.764,2.407,1.098,3.624
		c0.32,1.162,0.511,2.363,0.866,3.513c0.614,1.987,1.356,3.935,1.959,5.925c0.348,1.151,0.426,2.386,0.813,3.521
		c0.388,1.137,1.16,2.152,1.495,3.298c0.783,2.689,1.568,5.397,2.046,8.15c0.434,2.502,0.569,5.012,1.626,7.418
		c0.616,1.401,0.711,3.104,0.738,4.676c0.091,5.355,0.279,10.722-0.668,16.036c-0.021,0.108,0.002,0.246-0.057,0.319
		c-1.498,1.852-1.297,4.284-2.174,6.376c-0.93,2.221-1.536,4.55-3.194,6.409c-1.203,1.349-1.759,2.889-1.14,4.682
		c2.79,0.331,4.754-0.477,5.723-2.293c1.41-2.643,2.913-5.239,4.225-7.929c0.799-1.641,1.358-3.406,1.94-5.144
		c0.377-1.126,0.6-2.303,0.893-3.458c0.197,0.035,0.395,0.07,0.592,0.105c-0.314,3.341-0.601,6.685-0.962,10.021
		c-0.1,0.918-0.431,1.811-0.642,2.718c-0.274,1.172-0.19,2.641-0.883,3.449c-0.966,1.126-0.729,2.088-0.595,3.349
		c1.128,0,2.168-0.077,3.191,0.017c1.894,0.174,3.103-0.626,3.65-2.4c0.337-1.097,0.475-2.26,0.862-3.336
		c0.633-1.759,1.587-3.422,2.052-5.217c0.474-1.833,0.526-3.776,0.757-5.671c0.033-0.271,0.01-0.549,0.058-0.816
		c0.443-2.477,1.306-4.956,1.273-7.424c-0.115-8.679,0.757-17.384-0.613-26.038c-0.375-2.365-0.497-4.769-0.738-7.155
		c-0.01-0.108-0.036-0.215-0.068-0.318c-0.515-1.645-1.163-3.261-1.512-4.94c-0.387-1.859-0.5-3.774-0.733-5.664
		c-0.027-0.216-0.033-0.438-0.09-0.646c-0.654-2.353-1.527-4.669-1.911-7.065c-0.343-2.131-0.721-4.154-1.59-6.178
		c-0.855-1.991-1.135-4.241-1.563-6.398c-0.329-1.66-0.41-3.37-0.762-5.024c-0.287-1.35-0.86-2.637-1.218-3.976
		c-0.41-1.533-0.709-3.096-1.081-4.64c-0.257-1.063-0.43-2.176-0.892-3.146c-0.208-0.434-1.309-0.947-1.53-0.783
		c-0.839,0.62-1.887,1.411-2.089,2.31c-0.201,0.901,0.611,1.988,0.805,3.027c0.311,1.661,0.463,3.351,0.708,5.025
		c0.477,3.249,0.981,6.493,1.455,9.743c0.259,1.782,0.549,3.563,0.702,5.354c0.286,3.371,0.564,6.746,0.671,10.125
		c0.035,1.108-0.301,2.312-0.769,3.334c-0.813,1.774-2.524,1.918-4.328,1.325c-2.945-0.969-2.662-3.786-3.481-5.777
		c-0.786-1.909-0.37-4.275-0.691-6.466c-0.675-4.623-0.631-9.355-0.817-14.045c-0.078-1.966-0.106-3.947,0.053-5.905
		C85.229-4356.964,85.645-4359.1,86.012-4361.635 M108.533-4358.329c0.198,1.014-0.5,2.691,0.757,4.3
		c0.889,1.139,0.985,2.864,1.697,4.187c0.299,0.553,1.281,1.035,1.942,1.022c0.798-0.016,2.022-0.384,2.296-0.962
		c0.955-2.019,1.962-4.144,2.246-6.32c0.479-3.667,0.175-7.384-1.379-10.846c-0.992-2.21-2.901-2.551-4.539-0.779
		C109.277-4365.265,108.215-4362.316,108.533-4358.329 M87.146-4333.922c0.279,2.015,0.268,3.887,0.867,5.539
		c0.372,1.027,0.622,2.649,2.518,2.629c2.548-0.027,4.417-1.983,4.02-4.535c-0.117-0.758-0.387-1.507-0.687-2.218
		c-0.528-1.253-1.032-2.535-1.732-3.693c-0.722-1.192-2.158-1.046-3.081-0.654C87.866-4336.35,86.776-4335.34,87.146-4333.922"/>
	<path clip-path="url(#SVGID_7_)" fill="#FFFFFF" d="M163.826-4402.796c-0.779,1.206-1.58,1.822-2.725,2.128
		c-2.202,0.591-4.377,1.287-6.577,1.889c-1.271,0.347-2.686,0.365-3.83,0.94c-1.873,0.941-3.171-0.33-4.563-0.929
		c-2.25-0.969-4.301-2.394-6.545-3.38c-1.646-0.723-3.462-1.068-5.211-1.552c-3.025-0.837-6.226-0.957-9.195-1.688
		c-2.432-0.599-4.767-0.746-7.093-0.605c-3.061,0.186-6.085,0.969-9.127,1.483c-1.662,0.281-3.335,0.507-4.992,0.816
		c-1.027,0.19-2.044,0.454-3.048,0.746c-1.437,0.417-2.89,0.809-4.273,1.367c-0.906,0.367-1.701,1.008-2.576,1.544
		c-0.468-2.23-2.257-3.669-4.45-3.668c-2.356,0-4.861-0.503-7.029,0.136c-2.832,0.834-5.586,0.29-8.356,0.553
		c-0.321,0.031-0.65-0.023-1.016-0.039c2.112-3.058,5.167-4.848,8.37-6.272c2.038-0.906,4.373-1.122,6.527-1.798
		c2.752-0.863,5.535-1.32,8.421-1.369c0.963-0.017,1.959-0.415,2.849-0.833c0.236-0.11,0.347-1.057,0.148-1.418
		c-0.724-1.315-1.633-2.528-2.408-3.817c-0.236-0.393-0.263-0.91-0.488-1.755c-1.303,0.269-2.621,0.542-3.939,0.813
		c-0.159,0.033-0.322,0.089-0.48,0.081c-2.292-0.124-4.264,1.014-6.385,1.574c-1.45,0.383-2.961,0.534-4.584,0.814
		c0.024-0.509-0.086-0.943,0.073-1.095c1.846-1.769,3.394-3.88,6.016-4.733c0.98-0.319,1.736-1.264,2.672-1.785
		c2.627-1.463,5.338-2.779,7.931-4.297c2.152-1.26,4.137-2.803,6.283-4.073c1.549-0.917,3.262-1.551,4.861-2.388
		c1.116-0.583,2.156-1.308,3.243-1.947c2.286-1.343,4.761-0.834,6.559,1.066c2.698,2.85,5.531,5.573,8.292,8.364
		c0.704,0.71,1.279,1.566,2.047,2.191c1.774,1.446,3.576,2.872,5.479,4.138c0.791,0.527,1.852,0.695,2.816,0.908
		c2.3,0.51,4.63,0.892,6.917,1.452c0.698,0.171,1.296,0.752,1.939,1.145c-0.203,0.332-0.355,0.901-0.617,0.957
		c-2.463,0.529-5.01,0.761-7.404,1.497c-2.392,0.735-4.654,1.912-6.939,2.97c-1.125,0.521-0.971,1.015,0.046,1.709
		c1.981,1.353,3.905,2.406,6.493,2.28c2.367-0.115,4.794,0.248,7.139,0.691c1.512,0.286,2.909,1.139,4.385,1.663
		c1.44,0.51,2.902,0.971,4.376,1.372c2.609,0.711,5.23,1.376,7.855,2.02C162.231-4402.803,162.793-4402.855,163.826-4402.796"/>
	<path clip-path="url(#SVGID_7_)" fill="#FFFFFF" d="M54.569-4307.385c-0.825,0.042-1.254,0.126-1.667,0.075
		c-1.577-0.197-3.147-0.606-4.724-0.631c-5.199-0.082-10.406,0.112-15.597-0.098c-2.178-0.089-4.314-0.986-6.49-1.4
		c-2.561-0.488-5.151-1.486-7.721-0.077c-0.447,0.245-0.717,0.794-1.132,1.124c-0.255,0.203-0.679,0.414-0.936,0.333
		c-0.242-0.076-0.51-0.528-0.517-0.82c-0.046-1.858-0.37-3.81,0.096-5.544c0.323-1.2,1.597-2.393,2.752-3.059
		c1.407-0.811,3.119-1.399,4.728-1.473c1.802-0.084,3.757,0.211,5.431,0.878c4.201,1.674,8.179,1.752,12.212-0.464
		c2.364-1.299,4.842-2.407,7.325-3.471c1.528-0.656,2.798,0.369,3.184,2.029c0.554,2.379,1.385,4.692,1.981,7.062
		C53.937-4311.156,54.196-4309.345,54.569-4307.385"/>
	<path clip-path="url(#SVGID_7_)" fill="#FFFFFF" d="M56.408-4356.771c-0.518,0.926-0.872,1.546-1.212,2.174
		c-0.075,0.139-0.114,0.302-0.146,0.458c-0.241,1.175-0.436,2.361-0.721,3.524c-0.474,1.933-0.965,3.863-1.53,5.77
		c-0.275,0.927-2.419,1.372-3.802,1.006c-1.16-0.306-2.373-0.65-3.549-0.609c-3.433,0.121-6.892,0.234-10.271,0.779
		c-1.004,0.162-2.354,1.362-3.121,0.701c-1.316-1.133-2.73-0.606-4.551-1.034c0.698-0.89,1.158-1.72,1.835-2.294
		c2.533-2.146,5.38-3.801,8.279-5.432c2.375-1.335,4.844-2.207,7.41-2.897c2.116-0.57,4.339-0.772,6.415-1.444
		c1.185-0.384,2.235-1.134,3.571-0.876C55.275-4356.894,55.541-4356.876,56.408-4356.771"/>
	<path clip-path="url(#SVGID_7_)" fill="#FFFFFF" d="M86.109-4395.879c-1.195,1.006-2.342,1.954-3.468,2.924
		c-2.062,1.775-4.101,3.577-6.18,5.332c-0.254,0.215-0.693,0.295-1.046,0.296c-7.336,0.016-14.672,0.013-22.008,0.002
		c-0.302-0.001-0.604-0.127-0.993-0.215c1.095-2.487,2.805-4.262,5.116-5.373c1.106-0.532,2.364-0.818,3.585-1.026
		c1.931-0.329,3.899-0.436,5.832-0.754c2.112-0.349,4.2-0.838,6.303-1.246c0.425-0.083,0.87-0.052,1.3-0.115
		c1.098-0.16,2.436,0.55,3.196-0.861c2.173,0.223,4.454-0.868,6.54,0.611C84.725-4395.993,85.411-4396.029,86.109-4395.879"/>
	<path clip-path="url(#SVGID_7_)" fill="#FFFFFF" d="M50.534-4328.083c-2.435,0-4.763,0.412-6.879-0.081
		c-5.241-1.22-10.5-0.243-15.732-0.61c-0.204-0.014-0.407-0.052-0.533-0.069c0.028-3.133,2.843-3.238,4.683-4.115
		c2.956-1.41,6.122-2.202,9.463-2.655c2.361-0.321,4.691-0.445,7.04-0.515c2.521-0.077,3.558,1.298,2.861,3.707
		c-0.194,0.669-0.724,1.25-0.868,1.921C50.416-4329.784,50.534-4329.009,50.534-4328.083"/>
	<path clip-path="url(#SVGID_7_)" fill="#FFFFFF" d="M62.873-4370.553c-6.266,0.55-8.785,0.165-10.401-1.731
		c0.81-0.5,1.54-1.183,2.396-1.435c2.337-0.686,4.73-1.18,7.095-1.772c0.955-0.24,1.888-0.578,2.849-0.787
		c0.37-0.08,1.015-0.055,1.135,0.152c0.171,0.298,0.116,0.895-0.085,1.21C64.923-4373.449,63.9-4372.036,62.873-4370.553"/>
</g>
<g>
	<defs>
		<path id="SVGID_8_" d="M-317.034-3930.768c0,76.61,62.106,138.716,138.717,138.716c76.613,0,138.718-62.106,138.718-138.716
			c0-76.613-62.105-138.719-138.718-138.719C-254.928-4069.487-317.034-4007.381-317.034-3930.768"/>
	</defs>
	<clipPath id="SVGID_9_">
		<use xlink:href="#SVGID_8_"  overflow="visible"/>
	</clipPath>
	
		<linearGradient id="SVGID_10_" gradientUnits="userSpaceOnUse" x1="3722.8154" y1="2330.1406" x2="3723.8152" y2="2330.1406" gradientTransform="matrix(240.7951 137.8912 137.8912 -240.7951 -1218040 43743.2969)">
		<stop  offset="0" style="stop-color:#009776"/>
		<stop  offset="0.0061" style="stop-color:#009776"/>
		<stop  offset="0.0429" style="stop-color:#019474"/>
		<stop  offset="1" style="stop-color:#0C5041"/>
		<stop  offset="1" style="stop-color:#FFF3E9"/>
	</linearGradient>
	<polygon clip-path="url(#SVGID_9_)" fill="url(#SVGID_10_)" points="-248.522,-4189.127 80.041,-4000.975 -108.11,-3672.412 
		-436.674,-3860.563 	"/>
</g>
<g>
	<defs>
		<rect id="SVGID_11_" x="-418.261" y="-4188.759" width="2902.677" height="5612.599"/>
	</defs>
	<clipPath id="SVGID_12_">
		<use xlink:href="#SVGID_11_"  overflow="visible"/>
	</clipPath>
	<path clip-path="url(#SVGID_12_)" fill="#FFFFFF" d="M-147.557-3924.663h-41.848c-16.479,0-24.731,6.975-24.731,20.771
		c0,12.34,9.529,19.8,24.731,19.8h28.384v17.577h-27.107c-25.038,0-42.947-14.895-42.947-37.862c0-19.647,11.727-34.235,29.79-37.25
		c-3.96-6.975-5.877-13.618-5.877-19.8c0-19.826,14.129-33.596,32.677-33.596c11.88,0,20.592,5.544,25.983,16.785l-13.311,6.336
		c-2.708-5.698-6.975-8.559-13.004-8.559c-9.836,0-16.019,7.767-16.019,18.702c0,8.405,5.084,17.449,10.935,19.493h32.344V-3924.663
		z"/>
</g>
<path d="M4705.665-1235.582c-0.645,0-0.961,0.27-0.961,0.434c0,0.609,0.428,1.734,0.75,2.965c0.035,0.135,0.07,0.352,0.07,0.521
	c0,0.299-0.064,0.58-0.135,0.861l-0.141-0.018c-0.012-0.691-0.48-1.869-0.855-3.094c-0.059-0.199-0.111-0.486-0.111-0.674
	c0-0.264,0.053-0.521,0.152-0.773c0.123-0.328,0.293-0.604,0.527-0.762c-0.047-0.258-0.088-0.551-0.088-0.762
	c0-0.24,0.17-0.563,0.328-0.703s0.34-0.24,0.545-0.24c0.27,0,0.516,0.076,0.738,0.258c0.363,0.305,0.662,0.686,0.896,1.143
	c0.047,0.1,0.076,0.258,0.076,0.375c0,0.193-0.105,0.445-0.199,0.621C4706.726-1235.511,4706.198-1235.582,4705.665-1235.582z
	 M4706.837-1236.25c-0.334-0.445-0.691-0.879-1.248-0.879c-0.117,0-0.24,0.023-0.357,0.064l0.018,0.305
	c-0.035,0.217-0.094,0.428-0.146,0.563c0.205-0.07,0.498-0.105,0.797-0.105c0.199,0,0.58,0.041,0.914,0.117L4706.837-1236.25z
	 M4713-1236.818c-0.111-0.498-0.281-0.732-0.445-0.732c-0.258,0-0.621,0.17-0.932,0.416c-0.328,0.258-0.574,0.545-0.574,0.756
	c0,0.521,1.523,0.457,1.934,0.791c0.152,0.141,0.258,0.328,0.258,0.656c0,0.311-0.211,0.826-0.48,1.084
	c-0.574,0.539-1.471,0.973-2.262,0.973c-1.365,0-2.027-0.92-2.027-2.15c0-0.545,0.123-1.014,0.311-1.447l0.229,0.076
	c-0.129,0.393-0.182,0.727-0.182,1.025c0,1.107,0.756,1.705,1.723,1.705c0.363,0,0.99-0.141,1.582-0.486
	c0.375-0.223,0.727-0.498,0.727-0.586c0-0.176-0.428-0.311-0.914-0.381c-0.516-0.076-0.92-0.188-1.072-0.357
	c-0.123-0.135-0.217-0.299-0.217-0.527c0-0.592,0.252-1.09,0.65-1.506c0.41-0.422,1.049-0.832,1.453-0.832
	c0.188,0,0.322,0.094,0.428,0.311c0.094,0.199,0.141,0.393,0.141,0.551c0,0.141-0.141,0.445-0.24,0.65L4713-1236.818z
	 M4710.24-1231.093c-0.24-0.229-0.451-0.416-0.686-0.609c0.152-0.211,0.316-0.404,0.463-0.557c0.24,0.188,0.439,0.381,0.668,0.627
	C4710.521-1231.398,4710.404-1231.246,4710.24-1231.093z M4711.371-1231.169c-0.24-0.229-0.451-0.416-0.686-0.609
	c0.152-0.211,0.316-0.404,0.463-0.557c0.24,0.188,0.439,0.381,0.668,0.627C4711.652-1231.474,4711.535-1231.322,4711.371-1231.169z
	 M4714.637-1236.167c0.018,0.504,0.229,0.902,0.961,0.902c0.457,0,0.844-0.141,1.271-0.381c0.076-0.041,0.117-0.094,0.117-0.141
	c0-0.316-0.205-0.732-0.551-1.113c-0.334-0.357-0.779-0.674-1.195-0.885c-0.141-0.07-0.188-0.146-0.188-0.217
	c0-0.146,0.164-0.451,0.299-0.668l0.047-0.006c0.475,0.293,1.008,0.727,1.4,1.213c0.357,0.445,0.58,0.896,0.58,1.389
	c0,0.363-0.094,0.709-0.246,1.025c-0.521,0.311-1.078,0.545-1.629,0.545c-0.668,0-1.125-0.369-1.125-1.236
	c0-0.094,0-0.24,0.029-0.428H4714.637z M4722.062-1240.574c0,0.416,0.182,0.873,0.492,1.354c-0.111,0.111-0.24,0.217-0.398,0.328
	c0.029,0.756,0.07,1.688,0.07,2.443c0,0.398,0,0.891-0.287,1.723c-0.182,0.293-0.41,0.492-0.668,0.656
	c-0.375,0.246-0.838,0.369-1.225,0.369c-0.51,0-0.932-0.176-1.219-0.504c-0.27-0.311-0.416-0.756-0.416-1.324
	c0-0.492,0.158-0.984,0.393-1.477l0.211,0.082c-0.146,0.334-0.246,0.68-0.246,1.02c0,0.346,0.094,0.645,0.299,0.908
	c0.24,0.316,0.598,0.475,1.014,0.475c0.393,0,0.727-0.111,1.014-0.281c0.293-0.152,0.521-0.334,0.639-0.551
	c0.012-0.123,0.018-0.246,0.018-0.363c0-0.885-0.059-1.969-0.152-3.275c-0.018-0.24-0.053-0.51-0.053-0.768
	c0-0.17,0.018-0.328,0.123-0.463c0.082-0.123,0.205-0.246,0.352-0.369L4722.062-1240.574z M4727.975-1236.818
	c-0.111-0.498-0.281-0.732-0.445-0.732c-0.258,0-0.621,0.17-0.932,0.416c-0.328,0.258-0.574,0.545-0.574,0.756
	c0,0.521,1.523,0.457,1.934,0.791c0.152,0.141,0.258,0.328,0.258,0.656c0,0.311-0.211,0.826-0.48,1.084
	c-0.574,0.539-1.471,0.973-2.262,0.973c-1.365,0-2.027-0.92-2.027-2.15c0-0.545,0.123-1.014,0.311-1.447l0.229,0.076
	c-0.129,0.393-0.182,0.727-0.182,1.025c0,1.107,0.756,1.705,1.723,1.705c0.363,0,0.99-0.141,1.582-0.486
	c0.375-0.223,0.727-0.498,0.727-0.586c0-0.176-0.428-0.311-0.914-0.381c-0.516-0.076-0.92-0.188-1.072-0.357
	c-0.123-0.135-0.217-0.299-0.217-0.527c0-0.592,0.252-1.09,0.65-1.506c0.41-0.422,1.049-0.832,1.453-0.832
	c0.188,0,0.322,0.094,0.428,0.311c0.094,0.199,0.141,0.393,0.141,0.551c0,0.141-0.141,0.445-0.24,0.65L4727.975-1236.818z
	 M4725.215-1231.093c-0.24-0.229-0.451-0.416-0.686-0.609c0.152-0.211,0.316-0.404,0.463-0.557c0.24,0.188,0.439,0.381,0.668,0.627
	C4725.497-1231.398,4725.379-1231.246,4725.215-1231.093z M4726.346-1231.169c-0.24-0.229-0.451-0.416-0.686-0.609
	c0.152-0.211,0.316-0.404,0.463-0.557c0.24,0.188,0.439,0.381,0.668,0.627C4726.627-1231.474,4726.51-1231.322,4726.346-1231.169z
	 M4732.256-1234.339c-1.623,0-2.871-0.598-2.871-2.039c0-0.475,0.094-0.943,0.346-1.418l0.234,0.1
	c-0.111,0.334-0.17,0.633-0.17,0.891c0,1.184,1.166,1.67,2.637,1.67c0.686,0,1.354-0.1,2.004-0.252
	c0.27-0.064,0.533-0.135,0.773-0.24c0.047-0.018,0.059-0.047,0.059-0.064c0-0.275-0.281-0.85-0.586-1.447
	c0.141-0.252,0.287-0.475,0.439-0.662h0.029c0.27,0.475,0.586,1.207,0.586,1.787c0,0.439-0.146,0.703-0.311,0.979
	C4734.916-1234.726,4733.416-1234.339,4732.256-1234.339z M4732.461-1233.285c0.24,0.176,0.475,0.387,0.703,0.627
	c-0.129,0.211-0.287,0.404-0.486,0.574c-0.229-0.217-0.457-0.404-0.691-0.604
	C4732.145-1232.898,4732.303-1233.103,4732.461-1233.285z"/>
<g>
	<defs>
		<path id="SVGID_13_" d="M-352.008,502.307c-69.209,0-125.314,56.104-125.314,125.313s56.105,125.314,125.314,125.314h790.67
			c69.209,0,125.314-56.105,125.314-125.314s-56.105-125.313-125.314-125.313H-352.008z"/>
	</defs>
	<clipPath id="SVGID_14_">
		<use xlink:href="#SVGID_13_"  overflow="visible"/>
	</clipPath>
	
		<linearGradient id="SVGID_15_" gradientUnits="userSpaceOnUse" x1="3737.6929" y1="2331.3926" x2="3738.6902" y2="2331.3926" gradientTransform="matrix(0 1348.4919 1348.4919 0 -3143821 -5040087)">
		<stop  offset="0" style="stop-color:#FFFFFF"/>
		<stop  offset="1" style="stop-color:#000000"/>
	</linearGradient>
	<rect x="-477.322" y="502.307" clip-path="url(#SVGID_14_)" fill="url(#SVGID_15_)" width="1041.298" height="250.628"/>
</g>
<g>
	<defs>
		<path id="SVGID_16_" d="M1802.882,545.643h-608.24h-182.43c-69.208,0-125.313,56.104-125.313,125.313
			s56.105,125.314,125.313,125.314h182.43h608.24h182.429c69.209,0,125.313-56.105,125.313-125.314s-56.104-125.313-125.313-125.313
			H1802.882z"/>
	</defs>
	<clipPath id="SVGID_17_">
		<use xlink:href="#SVGID_16_"  overflow="visible"/>
	</clipPath>
	
		<linearGradient id="SVGID_18_" gradientUnits="userSpaceOnUse" x1="3737.7241" y1="2331.5908" x2="3738.7241" y2="2331.5908" gradientTransform="matrix(0 1348.4919 1348.4919 0 -3142632 -5040087)">
		<stop  offset="0" style="stop-color:#FFFFFF"/>
		<stop  offset="1" style="stop-color:#000000"/>
	</linearGradient>
	<rect x="886.899" y="545.643" clip-path="url(#SVGID_17_)" fill="url(#SVGID_18_)" width="1223.726" height="250.628"/>
</g>
<g>
	<defs>
		<polygon id="SVGID_19_" points="1326.341,614.844 1326.341,725.747 1338.7,725.747 1338.7,675.049 1364.206,675.049 
			1364.206,663.799 1338.7,663.799 1338.7,626.094 1370.386,626.094 1370.386,614.844 		"/>
	</defs>
	<clipPath id="SVGID_20_">
		<use xlink:href="#SVGID_19_"  overflow="visible"/>
	</clipPath>
	
		<linearGradient id="SVGID_21_" gradientUnits="userSpaceOnUse" x1="3737.1948" y1="2334.1387" x2="3738.1948" y2="2334.1387" gradientTransform="matrix(3071.9939 5840.3604 5840.3604 -3071.9939 -25113458 -14659143)">
		<stop  offset="0" style="stop-color:#146BCA"/>
		<stop  offset="1" style="stop-color:#273E7C"/>
	</linearGradient>
	<polygon clip-path="url(#SVGID_20_)" fill="url(#SVGID_21_)" points="1360.84,596.697 1416.079,701.713 1335.886,743.895 
		1280.648,638.879 	"/>
</g>
<g>
	<defs>
		<path id="SVGID_22_" d="M1388.606,702.615v-33.588c0-9.347,3.803-13.942,11.567-13.942c7.603,0,11.404,4.596,11.404,13.942v33.588
			c0,9.347-3.802,14.102-11.404,14.102C1392.409,716.717,1388.606,711.962,1388.606,702.615 M1376.724,670.137v31.369
			c0,16.479,8.238,25.824,23.449,25.824c15.051,0,23.446-9.346,23.446-25.824v-31.369c0-16.477-8.396-25.666-23.446-25.666
			C1384.962,644.471,1376.724,653.66,1376.724,670.137"/>
	</defs>
	<clipPath id="SVGID_23_">
		<use xlink:href="#SVGID_22_"  overflow="visible"/>
	</clipPath>
	
		<linearGradient id="SVGID_24_" gradientUnits="userSpaceOnUse" x1="3737.1724" y1="2334.1387" x2="3738.2068" y2="2334.1387" gradientTransform="matrix(3071.9939 5840.3604 5840.3604 -3071.9939 -25113426 -14659161)">
		<stop  offset="0" style="stop-color:#146BCA"/>
		<stop  offset="1" style="stop-color:#273E7C"/>
	</linearGradient>
	<polygon clip-path="url(#SVGID_23_)" fill="url(#SVGID_24_)" points="1413.457,625.148 1457.758,709.373 1386.886,746.652 
		1342.584,662.427 	"/>
</g>
<g>
	<defs>
		<path id="SVGID_25_" d="M1445.958,659.205l-0.16-13.149H1435.5v79.691h11.884v-46.422c0-15.367,5.229-22.972,15.526-22.972
			c1.902,0,3.485,0.316,4.91,0.793v-11.725c-1.268-0.635-3.008-0.951-5.228-0.951
			C1454.197,644.471,1448.652,649.383,1445.958,659.205"/>
	</defs>
	<clipPath id="SVGID_26_">
		<use xlink:href="#SVGID_25_"  overflow="visible"/>
	</clipPath>
	
		<linearGradient id="SVGID_27_" gradientUnits="userSpaceOnUse" x1="3737.1948" y1="2334.1387" x2="3738.1948" y2="2334.1387" gradientTransform="matrix(3071.9939 5840.3604 5840.3604 -3071.9939 -25113386 -14659182)">
		<stop  offset="0" style="stop-color:#146BCA"/>
		<stop  offset="1" style="stop-color:#273E7C"/>
	</linearGradient>
	<polygon clip-path="url(#SVGID_26_)" fill="url(#SVGID_27_)" points="1460.816,631.154 1501.307,708.134 1442.504,739.063 
		1402.014,662.084 	"/>
</g>
<g>
	<defs>
		<path id="SVGID_28_" d="M1519.788,656.194c-2.376-7.763-7.922-11.724-16.478-11.724c-8.079,0-13.783,3.961-17.11,12.041
			l-0.159-10.456h-10.298v79.691h11.883V672.83c0-11.406,4.911-17.745,12.042-17.745c6.338,0,9.506,4.12,9.506,12.518v58.145h12.041
			V672.83c0-11.406,4.91-17.745,12.039-17.745c6.339,0,9.507,4.12,9.507,12.518v58.145h11.883V666.81
			c0-14.893-6.021-22.339-17.903-22.339C1528.66,644.471,1523.115,648.432,1519.788,656.194"/>
	</defs>
	<clipPath id="SVGID_29_">
		<use xlink:href="#SVGID_28_"  overflow="visible"/>
	</clipPath>
	
		<linearGradient id="SVGID_30_" gradientUnits="userSpaceOnUse" x1="3737.1943" y1="2334.1387" x2="3738.1943" y2="2334.1387" gradientTransform="matrix(3071.9939 5840.3604 5840.3604 -3071.9939 -25113338 -14659207)">
		<stop  offset="0" style="stop-color:#146BCA"/>
		<stop  offset="1" style="stop-color:#273E7C"/>
	</linearGradient>
	<polygon clip-path="url(#SVGID_29_)" fill="url(#SVGID_30_)" points="1537.544,611.963 1588.128,708.134 1492.841,758.255 
		1442.256,662.084 	"/>
</g>
<g>
	<defs>
		<polygon id="SVGID_31_" points="1570.936,660.368 1624.862,714.293 1678.787,660.368 		"/>
	</defs>
	<clipPath id="SVGID_32_">
		<use xlink:href="#SVGID_31_"  overflow="visible"/>
	</clipPath>
	
		<linearGradient id="SVGID_33_" gradientUnits="userSpaceOnUse" x1="3737.1948" y1="2334.1367" x2="3738.1948" y2="2334.1367" gradientTransform="matrix(3071.9939 5840.3604 5840.3604 -3071.9939 -25113234 -14659259)">
		<stop  offset="0" style="stop-color:#146BCA"/>
		<stop  offset="1" style="stop-color:#273E7C"/>
	</linearGradient>
	<polygon clip-path="url(#SVGID_32_)" fill="url(#SVGID_33_)" points="1655.414,615.934 1701.003,702.607 1594.308,758.729 
		1548.718,672.055 	"/>
</g>
<g>
	<defs>
		<path id="SVGID_34_" d="M-157.004,582.758h12.673c8.872,0,12.991,4.277,12.991,15.05v58.145c0,10.774-4.119,15.208-12.991,15.208
			h-12.673V582.758z M-169.363,571.508v110.903h25.35c16.634,0,25.032-9.03,25.032-26.935v-57.035
			c0-17.903-8.398-26.934-25.032-26.934H-169.363z"/>
	</defs>
	<clipPath id="SVGID_35_">
		<use xlink:href="#SVGID_34_"  overflow="visible"/>
	</clipPath>
	
		<linearGradient id="SVGID_36_" gradientUnits="userSpaceOnUse" x1="3737.1846" y1="2334.1055" x2="3738.1582" y2="2334.1055" gradientTransform="matrix(3071.9939 5840.3604 5840.3604 -3071.9939 -25114418 -14658635)">
		<stop  offset="0" style="stop-color:#146BCA"/>
		<stop  offset="1" style="stop-color:#273E7C"/>
	</linearGradient>
	<polygon clip-path="url(#SVGID_35_)" fill="url(#SVGID_36_)" points="-129.899,550.751 -73.289,658.377 -158.445,703.169 
		-215.056,595.543 	"/>
</g>
<g>
	<defs>
		<path id="SVGID_37_" d="M-95.536,659.279v-33.588c0-9.347,3.804-13.942,11.568-13.942c7.605,0,11.406,4.596,11.406,13.942v33.588
			c0,9.347-3.801,14.102-11.406,14.102C-91.732,673.381-95.536,668.626-95.536,659.279 M-107.417,626.801v31.369
			c0,16.479,8.239,25.824,23.449,25.824c15.05,0,23.447-9.346,23.447-25.824v-31.369c0-16.477-8.397-25.666-23.447-25.666
			C-99.178,601.135-107.417,610.324-107.417,626.801"/>
	</defs>
	<clipPath id="SVGID_38_">
		<use xlink:href="#SVGID_37_"  overflow="visible"/>
	</clipPath>
	
		<linearGradient id="SVGID_39_" gradientUnits="userSpaceOnUse" x1="3737.1699" y1="2334.1064" x2="3738.1699" y2="2334.1064" gradientTransform="matrix(3071.9939 5840.3604 5840.3604 -3071.9939 -25114378 -14658659)">
		<stop  offset="0" style="stop-color:#146BCA"/>
		<stop  offset="1" style="stop-color:#273E7C"/>
	</linearGradient>
	<polygon clip-path="url(#SVGID_38_)" fill="url(#SVGID_39_)" points="-70.684,581.813 -26.382,666.038 -97.254,703.316 
		-141.556,619.092 	"/>
</g>
<g>
	<defs>
		<path id="SVGID_40_" d="M-51.174,622.364c0,6.971,1.9,12.199,6.337,16.161c2.218,2.059,4.119,3.485,5.545,4.436
			c1.426,0.95,3.803,2.219,6.971,3.959c5.862,3.013,8.874,4.596,11.565,8.557c1.427,1.9,2.219,4.12,2.219,6.496
			c0,7.763-3.645,11.565-10.932,11.565c-7.288,0-10.932-4.118-10.932-12.2v-3.01h-11.566v2.693c0,14.418,8.556,22.973,23.132,22.973
			c14.1,0,22.179-8.396,22.179-22.18c0-6.813-1.9-11.882-6.178-15.686c-4.278-3.962-6.654-5.387-12.515-8.396
			c-6.338-3.169-9.032-4.595-12.042-8.556c-1.425-2.06-2.217-4.436-2.217-6.97c0-6.972,4.277-10.774,10.139-10.774
			c6.813,0,10.14,3.803,10.14,11.565v1.902h11.248v-1.585c0-13.784-8.397-22.181-21.547-22.181
			C-43.094,601.135-51.174,609.215-51.174,622.364"/>
	</defs>
	<clipPath id="SVGID_41_">
		<use xlink:href="#SVGID_40_"  overflow="visible"/>
	</clipPath>
	
		<linearGradient id="SVGID_42_" gradientUnits="userSpaceOnUse" x1="3737.1699" y1="2334.1064" x2="3738.1699" y2="2334.1064" gradientTransform="matrix(3071.9939 5840.3604 5840.3604 -3071.9939 -25114338 -14658681)">
		<stop  offset="0" style="stop-color:#146BCA"/>
		<stop  offset="1" style="stop-color:#273E7C"/>
	</linearGradient>
	<polygon clip-path="url(#SVGID_41_)" fill="url(#SVGID_42_)" points="-16.475,582.467 27.483,666.038 -42.147,702.663 
		-86.106,619.092 	"/>
</g>
<g>
	<defs>
		<path id="SVGID_43_" d="M12.04,662.606c0-6.654,3.804-11.883,11.249-15.687c6.495-3.325,10.298-5.701,11.566-7.445v16.002
			c0,11.408-4.913,18.062-12.993,18.062C15.367,673.538,12.04,669.895,12.04,662.606 M2.217,624.267v1.742h11.249v-2.376
			c0-7.764,4.119-12.2,11.09-12.2c6.813,0,10.299,3.961,10.299,11.883v1.899c0,2.693-0.793,4.914-2.535,6.34
			c-1.744,1.425-5.863,3.642-12.517,6.653C5.386,645.021,0,652.149,0,664.349c0,12.041,6.812,19.646,17.744,19.646
			c9.03,0,15.21-4.119,18.537-12.357c0.316,5.546,0.791,9.03,1.267,10.774H48.48c-1.11-4.912-1.744-12.042-1.744-21.707v-35.489
			c0-16-7.288-24.08-22.021-24.08C10.297,601.135,2.217,609.531,2.217,624.267"/>
	</defs>
	<clipPath id="SVGID_44_">
		<use xlink:href="#SVGID_43_"  overflow="visible"/>
	</clipPath>
	
		<linearGradient id="SVGID_45_" gradientUnits="userSpaceOnUse" x1="3737.1699" y1="2334.1055" x2="3738.1699" y2="2334.1055" gradientTransform="matrix(3071.9939 5840.3604 5840.3604 -3071.9939 -25114290 -14658703)">
		<stop  offset="0" style="stop-color:#146BCA"/>
		<stop  offset="1" style="stop-color:#273E7C"/>
	</linearGradient>
	<polygon clip-path="url(#SVGID_44_)" fill="url(#SVGID_45_)" points="37.974,581.16 82.619,666.038 10.506,703.969 
		-34.139,619.091 	"/>
</g>
<g>
	<defs>
		<path id="SVGID_46_" d="M70.502,656.429v-31.371c0-8.872,3.486-13.309,10.298-13.309c7.446,0,12.674,6.339,12.674,17.745v22.655
			c0,11.408-5.228,17.745-12.674,17.745C73.988,669.895,70.502,665.458,70.502,656.429 M58.619,624.107v33.27
			c0,15.369,6.18,23.133,18.537,23.133c7.129,0,12.674-3.168,16.318-9.508v14.576c0,8.715-3.801,12.992-11.564,12.992
			c-7.447,0-11.25-3.327-11.25-9.98v-1.11H59.253v0.633c0,13.31,7.764,20.439,22.815,20.439c16.476,0,23.289-8.08,23.289-23.765
			V602.72H95.059L94.9,613.334c-3.327-8.08-9.188-12.199-17.744-12.199C64.799,601.135,58.619,608.739,58.619,624.107"/>
	</defs>
	<clipPath id="SVGID_47_">
		<use xlink:href="#SVGID_46_"  overflow="visible"/>
	</clipPath>
	
		<linearGradient id="SVGID_48_" gradientUnits="userSpaceOnUse" x1="3737.1699" y1="2334.1055" x2="3738.1699" y2="2334.1055" gradientTransform="matrix(3071.9939 5840.3604 5840.3604 -3071.9939 -25114250 -14658726)">
		<stop  offset="0" style="stop-color:#146BCA"/>
		<stop  offset="1" style="stop-color:#273E7C"/>
	</linearGradient>
	<polygon clip-path="url(#SVGID_47_)" fill="url(#SVGID_48_)" points="95.229,581.878 149.613,685.272 68.748,727.808 
		14.362,624.413 	"/>
</g>
<g>
	<defs>
		<path id="SVGID_49_" d="M129.438,625.691c0-9.347,3.802-13.942,11.566-13.942c7.922,0,11.881,4.596,11.881,13.942v8.872h-23.447
			V625.691z M117.398,626.801v31.369c0,16.479,8.396,25.824,23.606,25.824c15.208,0,23.606-9.346,23.606-25.824v-1.267h-11.565
			v2.376c0,9.347-3.961,14.102-11.883,14.102c-7.763,0-11.724-4.755-11.724-14.102v-14.893h35.172v-17.586
			c0-16.477-8.398-25.666-23.606-25.666C125.636,601.135,117.398,610.324,117.398,626.801"/>
	</defs>
	<clipPath id="SVGID_50_">
		<use xlink:href="#SVGID_49_"  overflow="visible"/>
	</clipPath>
	
		<linearGradient id="SVGID_51_" gradientUnits="userSpaceOnUse" x1="3737.1699" y1="2334.1055" x2="3738.1699" y2="2334.1055" gradientTransform="matrix(3071.9939 5840.3604 5840.3604 -3071.9939 -25114202 -14658751)">
		<stop  offset="0" style="stop-color:#146BCA"/>
		<stop  offset="1" style="stop-color:#273E7C"/>
	</linearGradient>
	<polygon clip-path="url(#SVGID_50_)" fill="url(#SVGID_51_)" points="154.378,581.684 198.749,666.038 127.629,703.446 
		83.259,619.092 	"/>
</g>
<g>
	<defs>
		<polygon id="SVGID_52_" points="188.452,617.032 242.378,670.957 296.303,617.032 		"/>
	</defs>
	<clipPath id="SVGID_53_">
		<use xlink:href="#SVGID_52_"  overflow="visible"/>
	</clipPath>
	
		<linearGradient id="SVGID_54_" gradientUnits="userSpaceOnUse" x1="3737.1699" y1="2334.1055" x2="3738.1699" y2="2334.1055" gradientTransform="matrix(3071.9939 5840.3604 5840.3604 -3071.9939 -25114114 -14658799)">
		<stop  offset="0" style="stop-color:#146BCA"/>
		<stop  offset="1" style="stop-color:#273E7C"/>
	</linearGradient>
	<polygon clip-path="url(#SVGID_53_)" fill="url(#SVGID_54_)" points="272.93,572.598 318.52,659.271 211.825,715.393 
		166.234,628.719 	"/>
</g>
<g>
	<defs>
		<rect id="SVGID_55_" x="-418.261" y="-3501.428" width="2902.677" height="5612.599"/>
	</defs>
	<clipPath id="SVGID_56_">
		<use xlink:href="#SVGID_55_"  overflow="visible"/>
	</clipPath>
	<polygon clip-path="url(#SVGID_56_)" fill="#FFFFFF" points="377.3,-1069.994 377.3,-1518.437 449.69,-1518.437 515.681,-1160.33 
		581.014,-1518.437 654.037,-1518.437 654.037,-1069.994 606.004,-1069.994 606.004,-1444.123 534.879,-1069.994 492.613,-1069.994 
		421.488,-1444.123 421.488,-1069.994 	"/>
	<path clip-path="url(#SVGID_56_)" fill="#FFFFFF" d="M867.387-1294.854v71.1H725.162v60.224c0,37.801,16.035,57.024,47.425,57.024
		c32.022,0,48.033-19.223,48.033-57.024v-9.612h46.767v5.135c0,66.623-33.944,104.424-95.457,104.424
		c-61.489,0-95.458-37.801-95.458-104.424v-126.847c0-66.636,33.336-103.792,95.458-103.792
		C833.443-1398.646,867.387-1361.489,867.387-1294.854 M725.162-1263.465h94.825v-35.879c0-37.801-16.011-56.379-48.057-56.379
		c-31.39,0-46.768,18.578-46.768,56.379V-1263.465z"/>
	<path clip-path="url(#SVGID_56_)" fill="#FFFFFF" d="M1036.501-1069.994c-2.555-7.689-4.477-22.423-5.11-43.568
		c-14.113,33.324-38.446,49.979-72.39,49.979c-49.98,0-74.97-31.401-74.97-93.535v-148.637c0-62.134,24.99-92.891,74.97-92.891
		c29.467,0,51.877,12.812,66.623,38.446v-158.236h48.033v360.673c0,39.079,2.579,67.913,7.056,87.769H1036.501z M1025.624-1178.263
		v-105.702c0-46.123-21.145-71.757-51.902-71.757c-27.545,0-41.001,17.945-41.001,53.812v140.948
		c0,36.511,13.456,54.456,41.001,54.456C1004.479-1106.506,1025.624-1132.14,1025.624-1178.263"/>
	<polygon clip-path="url(#SVGID_56_)" fill="#FFFFFF" points="1103.148,-1069.994 1103.148,-1518.437 1153.104,-1518.437 
		1153.104,-1115.484 1281.24,-1115.484 1281.24,-1069.994 	"/>
	<path clip-path="url(#SVGID_56_)" fill="#FFFFFF" d="M1477.265-1294.854v71.1H1335.04v60.224c0,37.801,16.035,57.024,47.425,57.024
		c32.022,0,48.033-19.223,48.033-57.024v-9.612h46.767v5.135c0,66.623-33.943,104.424-95.457,104.424
		c-61.488,0-95.457-37.801-95.457-104.424v-126.847c0-66.636,33.336-103.792,95.457-103.792
		C1443.321-1398.646,1477.265-1361.489,1477.265-1294.854 M1335.04-1263.465h94.825v-35.879c0-37.801-16.011-56.379-48.058-56.379
		c-31.39,0-46.768,18.578-46.768,56.379V-1263.465z"/>
	<path clip-path="url(#SVGID_56_)" fill="#FFFFFF" d="M1687.403-1305.755v148.637c0,62.134-24.989,93.536-75.602,93.536
		c-34.602,0-58.935-17.301-72.391-51.902l-6.398,45.49h-35.234v-448.442h48.033v158.237c14.745-25.635,37.156-38.446,65.99-38.446
		C1662.414-1398.646,1687.403-1367.889,1687.403-1305.755 M1639.347-1301.91c0-35.867-14.09-53.812-41.633-53.812
		c-30.758,0-51.902,25.635-51.902,71.757v105.702c0,46.123,21.145,71.758,51.902,71.758c27.543,0,41.633-17.946,41.633-54.457
		V-1301.91z"/>
	<path clip-path="url(#SVGID_56_)" fill="#FFFFFF" d="M1056.343-2147.66h-82.494H635.557c-128.651,0-241.652,96.822-249.717,225.22
		c-8.775,139.683,102.367,256.137,240.186,256.137h265.649c11.704,0,21.191-9.489,21.191-21.191v-39.812
		c0-0.001-0.001-0.001-0.001-0.001H626.026c-106.547,0-191.733-93.203-178.289-202.364
		c11.229-91.181,93.628-156.986,185.496-156.986l340.616,0.002h152.989c0.634,0,1.147,0.514,1.147,1.147v223.241v0.002h38.646
		c12.336,0,22.336-10.001,22.336-22.338v-200.905c0-0.633,0.514-1.147,1.148-1.147h90.859c0.633,0,1.147,0.514,1.147,1.147v223.241
		c0,0.002,0.001,0.002,0.001,0.002h38.645c12.336,0,22.336-10.001,22.336-22.338v-263.056H1056.343z"/>
	<path clip-path="url(#SVGID_56_)" fill="#FFFFFF" d="M1446.726-1727.307h-411.895v-59.898v-76.285v-142.078
		c0-11.702-9.486-21.189-21.189-21.189h-39.793v163.267v76.285v99.713c0,11.703,9.487,21.189,21.189,21.189h451.688
		c120.429,0,220.192-89.016,237.674-204.653h-61.62C1606.049-1789.085,1533.468-1727.307,1446.726-1727.307"/>
	<path clip-path="url(#SVGID_56_)" fill="#FFFFFF" d="M1624.472-1931.958h61.62c-12.536-121.014-115.096-215.702-239.367-215.702
		h-21.446c-11.703,0-21.19,9.487-21.19,21.19v39.815h42.637C1537.312-2086.655,1612.252-2019.221,1624.472-1931.958"/>
	<polygon clip-path="url(#SVGID_56_)" fill="#FFFFFF" points="398.85,-860.081 398.85,-956.215 379.897,-956.215 379.897,-967.066 
		429.723,-967.066 429.723,-956.215 410.771,-956.215 410.771,-860.081 	"/>
	<path clip-path="url(#SVGID_56_)" fill="#FFFFFF" d="M476.641-916.325v56.244h-11.615v-54.716c0-9.017-3.21-13.449-9.629-13.449
		c-7.183,0-12.074,6.113-12.074,17.118v51.047H431.86v-106.986h11.463v37.445c3.515-5.96,8.711-8.864,15.589-8.864
		C470.68-938.485,476.641-931.149,476.641-916.325"/>
	<path clip-path="url(#SVGID_56_)" fill="#FFFFFF" d="M527.074-913.728v16.966h-33.93v14.366c0,9.019,3.821,13.604,11.31,13.604
		c7.642,0,11.463-4.585,11.463-13.604v-2.292h11.157v1.223c0,15.896-8.1,24.913-22.773,24.913c-14.672,0-22.773-9.017-22.773-24.913
		v-30.263c0-15.894,7.948-24.759,22.773-24.759C518.974-938.486,527.074-929.621,527.074-913.728 M493.144-906.237h22.62v-8.559
		c0-9.018-3.821-13.45-11.463-13.45c-7.489,0-11.157,4.433-11.157,13.45V-906.237z"/>
	<polygon clip-path="url(#SVGID_56_)" fill="#FFFFFF" points="549.23,-860.081 549.23,-967.066 561.151,-967.066 561.151,-870.932 
		591.719,-870.932 591.719,-860.081 	"/>
	<path clip-path="url(#SVGID_56_)" fill="#FFFFFF" d="M638.484-913.728v16.966h-33.93v14.366c0,9.019,3.821,13.604,11.31,13.604
		c7.642,0,11.463-4.585,11.463-13.604v-2.292h11.157v1.223c0,15.896-8.101,24.913-22.773,24.913s-22.773-9.017-22.773-24.913
		v-30.263c0-15.894,7.948-24.759,22.773-24.759C630.383-938.486,638.484-929.621,638.484-913.728 M604.554-906.237h22.62v-8.559
		c0-9.018-3.821-13.45-11.463-13.45c-7.489,0-11.157,4.433-11.157,13.45V-906.237z"/>
	<path clip-path="url(#SVGID_56_)" fill="#FFFFFF" d="M688.611-916.324v35.458c0,14.825-5.961,22.314-18.035,22.314
		c-8.253,0-14.061-4.126-17.27-12.379l-1.529,10.852h-8.406v-106.986h11.463v37.751c3.515-6.114,8.864-9.17,15.742-9.17
		C682.65-938.485,688.611-931.149,688.611-916.324 M677.148-915.407c0-8.559-3.362-12.838-9.934-12.838
		c-7.336,0-12.38,6.113-12.38,17.117v25.218c0,11.005,5.044,17.118,12.38,17.118c6.572,0,9.934-4.279,9.934-12.991V-915.407z"/>
	<path clip-path="url(#SVGID_56_)" fill="#FFFFFF" d="M727.274-860.081c-0.458-1.681-0.917-5.043-1.223-10.393
		c-3.209,7.948-9.17,11.921-17.881,11.921c-10.546,0-17.118-7.336-17.118-18.951c0-11.769,5.197-18.646,19.104-25.218
		c6.42-2.904,10.394-5.044,12.075-6.419c1.681-1.376,2.445-3.516,2.445-6.114v-1.834c0-7.642-3.362-11.463-9.934-11.463
		c-6.725,0-10.699,4.279-10.699,11.769v2.292h-10.851v-1.681c0-14.214,7.794-22.313,21.702-22.313
		c14.214,0,21.245,7.794,21.245,23.23v34.235c0,9.324,0.611,16.201,1.681,20.939H727.274z M724.676-886.063V-901.5
		c-1.223,1.681-4.891,3.974-11.157,7.184c-7.183,3.668-10.852,8.711-10.852,15.13c0,7.031,3.21,10.546,9.476,10.546
		C719.938-868.64,724.676-875.059,724.676-886.063"/>
	<path clip-path="url(#SVGID_56_)" fill="#FFFFFF" d="M787.641-916.325v56.244h-11.615v-54.716c0-9.017-3.21-13.449-9.629-13.449
		c-7.183,0-12.074,6.113-12.074,17.118v51.047H742.86v-76.877h9.934l0.153,10.087c3.21-7.794,8.865-11.615,16.965-11.615
		C781.68-938.485,787.641-931.149,787.641-916.325"/>
	<path clip-path="url(#SVGID_56_)" fill="#FFFFFF" d="M838.074-913.728v16.966h-33.93v14.366c0,9.019,3.821,13.604,11.31,13.604
		c7.642,0,11.463-4.585,11.463-13.604v-2.292h11.157v1.223c0,15.896-8.1,24.913-22.773,24.913c-14.672,0-22.773-9.017-22.773-24.913
		v-30.263c0-15.894,7.948-24.759,22.773-24.759C829.974-938.486,838.074-929.621,838.074-913.728 M804.145-906.237h22.62v-8.559
		c0-9.018-3.821-13.45-11.463-13.45c-7.489,0-11.157,4.433-11.157,13.45V-906.237z"/>
	<path clip-path="url(#SVGID_56_)" fill="#FFFFFF" d="M839.752-880.714v-2.599h11.157v2.905c0,7.794,3.515,11.768,10.546,11.768
		c7.03,0,10.546-3.668,10.546-11.157c0-2.292-0.765-4.432-2.14-6.266c-2.598-3.821-5.502-5.35-11.157-8.254
		c-3.057-1.681-5.35-2.903-6.725-3.821c-1.376-0.917-3.21-2.292-5.349-4.279c-4.28-3.821-6.114-8.865-6.114-15.589
		c0-12.686,7.795-20.479,20.786-20.479c12.686,0,20.786,8.1,20.786,21.396v1.528h-10.852v-1.834c0-7.489-3.209-11.157-9.781-11.157
		c-5.655,0-9.782,3.668-9.782,10.394c0,2.444,0.764,4.738,2.14,6.725c2.904,3.821,5.502,5.196,11.616,8.253
		c5.655,2.904,7.947,4.28,12.074,8.101c4.126,3.667,5.96,8.558,5.96,15.13c0,13.297-7.794,21.396-21.397,21.396
		C848.005-858.553,839.752-866.806,839.752-880.714"/>
	<path clip-path="url(#SVGID_56_)" fill="#FFFFFF" d="M931.145-913.728v16.966h-33.93v14.366c0,9.019,3.821,13.604,11.31,13.604
		c7.642,0,11.463-4.585,11.463-13.604v-2.292h11.157v1.223c0,15.896-8.1,24.913-22.773,24.913c-14.672,0-22.773-9.017-22.773-24.913
		v-30.263c0-15.894,7.948-24.759,22.773-24.759C923.045-938.486,931.145-929.621,931.145-913.728 M897.215-906.237h22.62v-8.559
		c0-9.018-3.821-13.45-11.463-13.45c-7.489,0-11.157,4.433-11.157,13.45V-906.237z"/>
	<polygon clip-path="url(#SVGID_56_)" fill="#FFFFFF" points="953.301,-860.081 953.301,-967.066 970.572,-967.066 986.314,-881.63 
		1001.903,-967.066 1019.327,-967.066 1019.327,-860.081 1007.864,-860.081 1007.864,-949.337 990.899,-860.081 980.813,-860.081 
		963.847,-949.337 963.847,-860.081 	"/>
	<path clip-path="url(#SVGID_56_)" fill="#FFFFFF" d="M1070.218-913.728v16.966h-33.931v14.366c0,9.019,3.821,13.604,11.311,13.604
		c7.642,0,11.463-4.585,11.463-13.604v-2.292h11.157v1.223c0,15.896-8.101,24.913-22.773,24.913
		c-14.672,0-22.773-9.017-22.773-24.913v-30.263c0-15.894,7.948-24.759,22.773-24.759
		C1062.117-938.486,1070.218-929.621,1070.218-913.728 M1036.287-906.237h22.62v-8.559c0-9.018-3.821-13.45-11.463-13.45
		c-7.489,0-11.157,4.433-11.157,13.45V-906.237z"/>
	<path clip-path="url(#SVGID_56_)" fill="#FFFFFF" d="M1110.563-860.08c-0.61-1.834-1.069-5.35-1.223-10.393
		c-3.362,7.947-9.17,11.921-17.271,11.921c-11.921,0-17.882-7.489-17.882-22.314v-35.459c0-14.825,5.961-22.161,17.882-22.161
		c7.031,0,12.381,3.058,15.896,9.17v-37.75h11.463v86.047c0,9.323,0.611,16.2,1.681,20.939H1110.563z M1107.965-885.91v-25.218
		c0-11.005-5.043-17.118-12.38-17.118c-6.572,0-9.781,4.28-9.781,12.839v33.624c0,8.712,3.209,12.991,9.781,12.991
		C1102.922-868.792,1107.965-874.905,1107.965-885.91"/>
	<path clip-path="url(#SVGID_56_)" fill="#FFFFFF" d="M1126.454-964.468h11.463v16.506h-11.463V-964.468z M1126.454-936.958h11.463
		v76.877h-11.463V-936.958z"/>
	<path clip-path="url(#SVGID_56_)" fill="#FFFFFF" d="M1143.416-883.159v-30.873c0-15.895,7.795-24.454,22.467-24.454
		c14.521,0,22.01,9.017,22.01,24.454v3.362h-11.157v-4.432c0-8.712-3.668-13.145-10.853-13.145c-7.183,0-10.851,4.433-10.851,13.145
		v33.013c0,8.864,3.668,13.297,10.851,13.297c7.185,0,10.853-4.433,10.853-13.297v-5.961h11.157v4.891
		c0,15.742-7.489,24.606-22.01,24.606C1151.211-858.553,1143.416-867.264,1143.416-883.159"/>
	<path clip-path="url(#SVGID_56_)" fill="#FFFFFF" d="M1192.168-964.468h11.463v16.506h-11.463V-964.468z M1192.168-936.958h11.463
		v76.877h-11.463V-936.958z"/>
	<path clip-path="url(#SVGID_56_)" fill="#FFFFFF" d="M1255.44-916.325v56.244h-11.615v-54.716c0-9.017-3.21-13.449-9.629-13.449
		c-7.184,0-12.074,6.113-12.074,17.118v51.047h-11.463v-76.877h9.934l0.153,10.087c3.21-7.794,8.864-11.615,16.965-11.615
		C1249.479-938.485,1255.44-931.149,1255.44-916.325"/>
	<path clip-path="url(#SVGID_56_)" fill="#FFFFFF" d="M1305.873-913.728v16.966h-33.93v14.366c0,9.019,3.82,13.604,11.31,13.604
		c7.643,0,11.463-4.585,11.463-13.604v-2.292h11.157v1.223c0,15.896-8.1,24.913-22.772,24.913s-22.773-9.017-22.773-24.913v-30.263
		c0-15.894,7.948-24.759,22.773-24.759C1297.773-938.486,1305.873-929.621,1305.873-913.728 M1271.943-906.237h22.62v-8.559
		c0-9.018-3.821-13.45-11.463-13.45c-7.489,0-11.157,4.433-11.157,13.45V-906.237z"/>
	<path clip-path="url(#SVGID_56_)" fill="#FFFFFF" d="M1328.029-860.081v-106.985h24.454c16.048,0,24.148,8.712,24.148,25.981
		v55.022c0,17.271-8.101,25.981-24.148,25.981H1328.029z M1339.95-870.932h12.228c8.559,0,12.533-4.279,12.533-14.672v-56.092
		c0-10.392-3.975-14.519-12.533-14.519h-12.228V-870.932z"/>
	<path clip-path="url(#SVGID_56_)" fill="#FFFFFF" d="M1382.436-964.468h11.463v16.506h-11.463V-964.468z M1382.436-936.958h11.463
		v76.877h-11.463V-936.958z"/>
	<path clip-path="url(#SVGID_56_)" fill="#FFFFFF" d="M1432.104-937.569v11.311c-1.375-0.459-2.903-0.764-4.737-0.764
		c-9.935,0-14.979,7.336-14.979,22.161v44.782h-11.463v-76.878h9.935l0.153,12.686c2.599-9.476,7.947-14.214,16.048-14.214
		C1429.201-938.486,1430.883-938.181,1432.104-937.569"/>
	<path clip-path="url(#SVGID_56_)" fill="#FFFFFF" d="M1476.886-913.728v16.966h-33.931v14.366c0,9.019,3.821,13.604,11.311,13.604
		c7.642,0,11.463-4.585,11.463-13.604v-2.292h11.157v1.223c0,15.896-8.102,24.913-22.773,24.913s-22.773-9.017-22.773-24.913
		v-30.263c0-15.894,7.948-24.759,22.773-24.759C1468.784-938.486,1476.886-929.621,1476.886-913.728 M1442.955-906.237h22.62v-8.559
		c0-9.018-3.821-13.45-11.463-13.45c-7.489,0-11.157,4.433-11.157,13.45V-906.237z"/>
	<path clip-path="url(#SVGID_56_)" fill="#FFFFFF" d="M1480.55-883.159v-30.873c0-15.895,7.795-24.454,22.467-24.454
		c14.521,0,22.009,9.017,22.009,24.454v3.362h-11.156v-4.432c0-8.712-3.669-13.145-10.853-13.145
		c-7.183,0-10.851,4.433-10.851,13.145v33.013c0,8.864,3.668,13.297,10.851,13.297c7.184,0,10.853-4.433,10.853-13.297v-5.961
		h11.156v4.891c0,15.742-7.488,24.606-22.009,24.606C1488.345-858.553,1480.55-867.264,1480.55-883.159"/>
	<path clip-path="url(#SVGID_56_)" fill="#FFFFFF" d="M1559.41-927.176h-13.907v49.825c0,6.113,1.986,8.559,7.488,8.559
		c2.293,0,4.433-0.459,6.419-1.223v9.934c-2.292,1.07-5.195,1.529-8.559,1.529c-11.31,0-16.965-5.808-16.965-17.576v-51.048h-9.477
		v-9.782h9.936l1.223-22.161h9.935v22.161h13.907V-927.176z"/>
	<path clip-path="url(#SVGID_56_)" fill="#FFFFFF" d="M1560.48-883.465v-30.262c0-15.896,7.946-24.759,22.62-24.759
		c14.519,0,22.618,8.864,22.618,24.759v30.262c0,15.896-8.1,24.913-22.618,24.913C1568.427-858.552,1560.48-867.569,1560.48-883.465
		 M1594.104-882.395v-32.402c0-9.016-3.668-13.449-11.004-13.449c-7.489,0-11.157,4.433-11.157,13.449v32.402
		c0,9.018,3.668,13.603,11.157,13.603C1590.437-868.792,1594.104-873.377,1594.104-882.395"/>
	<path clip-path="url(#SVGID_56_)" fill="#FFFFFF" d="M1642.243-937.569v11.311c-1.375-0.459-2.904-0.764-4.738-0.764
		c-9.934,0-14.978,7.336-14.978,22.161v44.782h-11.463v-76.878h9.935l0.153,12.686c2.598-9.476,7.947-14.214,16.048-14.214
		C1639.339-938.486,1641.021-938.181,1642.243-937.569"/>
	<path clip-path="url(#SVGID_56_)" fill="#FFFFFF" d="M1688.855-936.958l-16.201,71.528l-3.209,14.061
		c-2.599,11.769-7.948,16.506-18.494,16.506c-3.362,0-5.96-0.458-7.794-1.528v-9.935c1.681,0.765,3.668,1.223,6.113,1.223
		c5.502,0,7.488-1.834,8.864-7.947l1.375-6.114l-19.563-77.794h11.769l13.908,58.536l12.533-58.536H1688.855z"/>
	<path clip-path="url(#SVGID_56_)" fill="#FFFFFF" d="M-145.577-465.088h695.354h966.602h695.354
		c84.363,0,152.755,68.392,152.755,152.757c0,84.364-68.392,152.756-152.755,152.756h-695.354H549.777h-695.354
		c-84.365,0-152.756-68.392-152.756-152.756C-298.333-396.696-229.942-465.088-145.577-465.088"/>
	
		<linearGradient id="SVGID_57_" gradientUnits="userSpaceOnUse" x1="3739.0034" y1="2334.8184" x2="3740.0029" y2="2334.8184" gradientTransform="matrix(-2663.8201 0 0 -2663.8201 9962396 6219225)">
		<stop  offset="0" style="stop-color:#009776"/>
		<stop  offset="1" style="stop-color:#0C5041"/>
		<stop  offset="1" style="stop-color:#FFF3E9"/>
	</linearGradient>
	<path clip-path="url(#SVGID_56_)" fill="url(#SVGID_57_)" d="M-145.577-465.088L-145.577-465.088h695.354h966.602h695.354
		c84.363,0,152.755,68.392,152.755,152.757s-68.392,152.756-152.755,152.756h-695.354H549.777h-695.354
		c-84.365,0-152.756-68.392-152.756-152.756C-298.333-396.696-229.942-465.088-145.577-465.088L-145.577-465.088L-145.577-465.088
		c-84.365,0-152.756,68.392-152.756,152.757s68.391,152.756,152.756,152.756h695.354h966.602h695.354
		c84.363,0,152.755-68.392,152.755-152.756c0-84.365-68.392-152.757-152.755-152.757h-695.354H549.777H-145.577L-145.577-465.088z"
		/>
</g>
<g>
	<defs>
		<path id="SVGID_58_" d="M2067.192,123.459c0-28.724,23.335-52.06,52.06-52.06s52.062,23.336,52.062,52.06
			c0,28.726-23.337,52.098-52.062,52.098S2067.192,152.185,2067.192,123.459 M2079.079,60.203
			c-41.977,27.488-46.246,84.376-12.79,117.831c25.832,25.832,65.614,29.126,95.063,9.991l63.605,63.605l22.389-22.39
			l-63.605-63.604c22.345-34.385,14.107-82.86-24.886-106.765c-11.657-7.146-25.173-10.688-38.697-10.689
			C2105.728,48.183,2091.286,52.215,2079.079,60.203"/>
	</defs>
	<clipPath id="SVGID_59_">
		<use xlink:href="#SVGID_58_"  overflow="visible"/>
	</clipPath>
	
		<linearGradient id="SVGID_60_" gradientUnits="userSpaceOnUse" x1="3717.0029" y1="2333.5938" x2="3718.0024" y2="2333.5938" gradientTransform="matrix(203.3118 0 0 -203.3118 -753666.4375 474596.9375)">
		<stop  offset="0" style="stop-color:#146BCA"/>
		<stop  offset="1" style="stop-color:#273E7C"/>
	</linearGradient>
	<rect x="2032.833" y="48.183" clip-path="url(#SVGID_59_)" fill="url(#SVGID_60_)" width="214.514" height="203.448"/>
</g>
<g>
	<defs>
		<rect id="SVGID_61_" x="-148.892" y="171.669" width="11.725" height="11.727"/>
	</defs>
	<clipPath id="SVGID_62_">
		<use xlink:href="#SVGID_61_"  overflow="visible"/>
	</clipPath>
	
		<linearGradient id="SVGID_63_" gradientUnits="userSpaceOnUse" x1="4091.8579" y1="2314.9492" x2="4092.8579" y2="2314.9492" gradientTransform="matrix(-11.7255 0 0 -11.7255 47842.0625 27321.5469)">
		<stop  offset="0" style="stop-color:#146BCA"/>
		<stop  offset="1" style="stop-color:#273E7C"/>
	</linearGradient>
	<rect x="-148.892" y="171.67" clip-path="url(#SVGID_62_)" fill="url(#SVGID_63_)" width="11.725" height="11.726"/>
</g>
<g>
	<defs>
		<rect id="SVGID_64_" x="-82.724" y="104.131" width="18.761" height="18.761"/>
	</defs>
	<clipPath id="SVGID_65_">
		<use xlink:href="#SVGID_64_"  overflow="visible"/>
	</clipPath>
	
		<linearGradient id="SVGID_66_" gradientUnits="userSpaceOnUse" x1="3958.9526" y1="2322.3691" x2="3959.9526" y2="2322.3691" gradientTransform="matrix(-18.7608 0 0 -18.7608 74209.3281 43683.1055)">
		<stop  offset="0" style="stop-color:#146BCA"/>
		<stop  offset="1" style="stop-color:#273E7C"/>
	</linearGradient>
	<rect x="-82.724" y="104.131" clip-path="url(#SVGID_65_)" fill="url(#SVGID_66_)" width="18.761" height="18.761"/>
</g>
<g>
	<defs>
		<path id="SVGID_67_" d="M-155.459,165.104h24.859v24.856h-24.859V165.104z M-71.058,173.369v14.657h-14.656v-14.657H-71.058z
			 M-71.058,158.713H-56.4v14.655h-14.658V158.713z M-124.173,162.113v-3.4v-14.774h14.657v14.774h23.802v14.656h-38.459V162.113z
			 M-85.714,143.938h14.656v14.658h-14.656V143.938z M-143.029,123.596h19.097v-19.23h19.23v19.23h-19.097v19.229h-19.23V123.596z
			 M-93.979,92.874h41.273v41.274h-41.273V92.874z M-161.401,84.549v58.394h20.285v16.769h-20.285v35.995h35.997v9.498h49.95
			v-13.366h17.237v13.366h14.187v-16.182h-12.311v-16.181h12.311V158.42h-12.311v-13.016h12.311V84.549H-161.401z"/>
	</defs>
	<clipPath id="SVGID_68_">
		<use xlink:href="#SVGID_67_"  overflow="visible"/>
	</clipPath>
	
		<linearGradient id="SVGID_69_" gradientUnits="userSpaceOnUse" x1="3772.8496" y1="2332.7578" x2="3773.8496" y2="2332.7578" gradientTransform="matrix(-117.3707 0 0 -117.3707 442778 273942.25)">
		<stop  offset="0" style="stop-color:#146BCA"/>
		<stop  offset="1" style="stop-color:#273E7C"/>
	</linearGradient>
	<rect x="-161.401" y="84.55" clip-path="url(#SVGID_68_)" fill="url(#SVGID_69_)" width="117.371" height="120.655"/>
</g>
<g>
	<defs>
		<path id="SVGID_70_" d="M-146.437,49.347c-27.904,0-50.603,22.698-50.603,50.591v6.439h12.572v-6.439
			c0-20.968,17.063-38.021,38.031-38.021h5.321V49.347H-146.437z"/>
	</defs>
	<clipPath id="SVGID_71_">
		<use xlink:href="#SVGID_70_"  overflow="visible"/>
	</clipPath>
	
		<linearGradient id="SVGID_72_" gradientUnits="userSpaceOnUse" x1="3811.7554" y1="2330.5869" x2="3812.7554" y2="2330.5869" gradientTransform="matrix(-55.9227 0 0 -55.9227 213022.6094 130410.5859)">
		<stop  offset="0" style="stop-color:#146BCA"/>
		<stop  offset="1" style="stop-color:#273E7C"/>
	</linearGradient>
	<rect x="-197.04" y="49.347" clip-path="url(#SVGID_71_)" fill="url(#SVGID_72_)" width="55.924" height="57.03"/>
</g>
<g>
	<defs>
		<path id="SVGID_73_" d="M-64.117,49.347v12.569h5.332c20.968,0,38.02,17.054,38.02,38.021v6.439h12.57v-6.439
			c0-27.893-22.699-50.591-50.59-50.591H-64.117z"/>
	</defs>
	<clipPath id="SVGID_74_">
		<use xlink:href="#SVGID_73_"  overflow="visible"/>
	</clipPath>
	
		<linearGradient id="SVGID_75_" gradientUnits="userSpaceOnUse" x1="3811.7549" y1="2330.5869" x2="3812.7549" y2="2330.5869" gradientTransform="matrix(-55.9227 0 0 -55.9227 213155.5156 130410.5859)">
		<stop  offset="0" style="stop-color:#146BCA"/>
		<stop  offset="1" style="stop-color:#273E7C"/>
	</linearGradient>
	<rect x="-64.117" y="49.347" clip-path="url(#SVGID_74_)" fill="url(#SVGID_75_)" width="55.922" height="57.03"/>
</g>
<g>
	<defs>
		<path id="SVGID_76_" d="M-197.04,183.375v4.213c0,27.892,22.699,50.592,50.603,50.592h5.321v-12.57h-5.321
			c-20.968,0-38.031-17.053-38.031-38.021v-4.213H-197.04z"/>
	</defs>
	<clipPath id="SVGID_77_">
		<use xlink:href="#SVGID_76_"  overflow="visible"/>
	</clipPath>
	
		<linearGradient id="SVGID_78_" gradientUnits="userSpaceOnUse" x1="3811.7554" y1="2330.5869" x2="3812.7554" y2="2330.5869" gradientTransform="matrix(-55.9227 0 0 -55.9227 213022.6094 130543.5234)">
		<stop  offset="0" style="stop-color:#146BCA"/>
		<stop  offset="1" style="stop-color:#273E7C"/>
	</linearGradient>
	<rect x="-197.04" y="183.376" clip-path="url(#SVGID_77_)" fill="url(#SVGID_78_)" width="55.924" height="54.804"/>
</g>
<g>
	<defs>
		<path id="SVGID_79_" d="M-20.765,183.375v4.213c0,20.969-17.052,38.021-38.02,38.021h-5.332v12.57h5.332
			c27.891,0,50.59-22.7,50.59-50.592v-4.213H-20.765z"/>
	</defs>
	<clipPath id="SVGID_80_">
		<use xlink:href="#SVGID_79_"  overflow="visible"/>
	</clipPath>
	
		<linearGradient id="SVGID_81_" gradientUnits="userSpaceOnUse" x1="3811.7549" y1="2330.5869" x2="3812.7549" y2="2330.5869" gradientTransform="matrix(-55.9227 0 0 -55.9227 213155.5156 130543.5234)">
		<stop  offset="0" style="stop-color:#146BCA"/>
		<stop  offset="1" style="stop-color:#273E7C"/>
	</linearGradient>
	<rect x="-64.117" y="183.376" clip-path="url(#SVGID_80_)" fill="url(#SVGID_81_)" width="55.922" height="54.804"/>
</g>
<g>
	<defs>
		<rect id="SVGID_82_" x="-418.261" y="-3045.865" width="2902.677" height="5612.599"/>
	</defs>
	<clipPath id="SVGID_83_">
		<use xlink:href="#SVGID_82_"  overflow="visible"/>
	</clipPath>
	<polygon clip-path="url(#SVGID_83_)" fill="#666666" points="1978.851,95.833 1962.274,79.257 1906.841,134.691 1851.406,79.257 
		1834.831,95.833 1890.265,151.268 1834.831,206.701 1851.406,223.277 1906.841,167.843 1962.274,223.277 1978.851,206.701 
		1923.416,151.268 	"/>
</g>
<g>
	<path fill="#666666" d="M359.387,183.376v-74.191h30.418v7.525h-22.151v24.165h18.018v7.525h-18.018v27.45h22.151v7.525H359.387z"
		/>
	<path fill="#666666" d="M399.766,183.376v-74.191h10.599l16.746,52.994v-52.994h7.525v74.191h-8.585l-18.76-60.307v60.307H399.766z
		"/>
	<path fill="#666666" d="M457.314,183.376V116.71h-13.143v-7.525h34.552v7.525h-13.142v66.666H457.314z"/>
	<path fill="#666666" d="M488.155,183.376v-74.191h30.418v7.525h-22.151v24.165h18.018v7.525h-18.018v27.45h22.151v7.525H488.155z"
		/>
	<path fill="#666666" d="M528.534,183.376v-74.191h16.216c11.765,0,16.746,5.3,16.746,16.853v4.557
		c0,8.161-2.861,13.143-8.585,14.944v0.106c5.83,1.483,8.691,6.677,8.691,15.474v13.249c0,4.027,0.318,6.995,1.06,9.009h-8.373
		c-0.636-2.12-0.954-5.087-0.954-9.009v-13.673c0-7.949-2.756-10.811-9.857-10.811h-6.677v33.492H528.534z M536.801,142.358h6.677
		c6.677,0,9.751-2.967,9.751-10.175v-5.299c0-7.207-2.438-10.175-8.691-10.175h-7.737V142.358z"/>
	<path fill="#666666" d="M603.463,183.376V116.71H590.32v-7.525h34.552v7.525H611.73v66.666H603.463z"/>
	<path fill="#666666" d="M634.304,183.376v-74.191h8.267v31.69h17.594v-31.69h8.267v74.191h-8.267V148.4h-17.594v34.976H634.304z"/>
	<path fill="#666666" d="M681.254,183.376v-74.191h30.418v7.525h-22.151v24.165h18.018v7.525h-18.018v27.45h22.151v7.525H681.254z"
		/>
	<path fill="#666666" d="M741.452,183.376v-74.191h16.534c11.765,0,16.746,5.3,16.746,16.853v3.073
		c0,7.949-2.756,12.824-8.267,14.838v0.212c6.253,1.802,9.433,6.996,9.433,15.581v6.358c0,11.553-5.723,17.276-17.064,17.276
		H741.452z M749.719,140.875h6.995c6.677,0,9.751-2.968,9.751-10.175v-3.815c0-7.207-2.438-10.175-8.691-10.175h-8.055V140.875z
		 M749.719,175.851h9.115c6.042,0,8.797-2.861,8.797-9.963v-6.359c0-8.055-2.861-11.128-10.493-11.128h-7.419V175.851z"/>
	<path fill="#666666" d="M786.707,183.376v-74.191h16.216c11.765,0,16.746,5.3,16.746,16.853v4.557
		c0,8.161-2.861,13.143-8.585,14.944v0.106c5.83,1.483,8.691,6.677,8.691,15.474v13.249c0,4.027,0.318,6.995,1.06,9.009h-8.373
		c-0.636-2.12-0.954-5.087-0.954-9.009v-13.673c0-7.949-2.756-10.811-9.857-10.811h-6.677v33.492H786.707z M794.974,142.358h6.677
		c6.677,0,9.751-2.967,9.751-10.175v-5.299c0-7.207-2.438-10.175-8.691-10.175h-7.737V142.358z"/>
	<path fill="#666666" d="M859.199,183.376l-2.756-15.792h-17.17l-2.755,15.792h-7.737l13.778-74.191h11.129l13.884,74.191H859.199z
		 M840.545,160.377h14.626l-7.419-41.76L840.545,160.377z"/>
	<path fill="#666666" d="M877.109,183.376v-74.191h10.599l16.746,52.994v-52.994h7.525v74.191h-8.585l-18.76-60.307v60.307H877.109z
		"/>
	<path fill="#666666" d="M924.801,183.376v-74.191h16.958c11.129,0,16.746,6.041,16.746,18.018v38.156
		c0,11.977-5.617,18.018-16.746,18.018H924.801z M933.068,175.851h8.479c5.935,0,8.691-2.968,8.691-10.175v-38.897
		c0-7.207-2.756-10.068-8.691-10.068h-8.479V175.851z"/>
	<path fill="#666666" d="M990.298,183.376v-74.191h10.599l16.746,52.994v-52.994h7.525v74.191h-8.585l-18.76-60.307v60.307H990.298z
		"/>
	<path fill="#666666" d="M1065.122,183.376l-2.755-15.792h-17.17l-2.756,15.792h-7.737l13.778-74.191h11.129l13.884,74.191H1065.122
		z M1046.469,160.377h14.626l-7.419-41.76L1046.469,160.377z"/>
	<path fill="#666666" d="M1083.032,183.376v-74.191h11.977l10.916,59.247l10.811-59.247h12.083v74.191h-7.949v-61.896
		l-11.765,61.896h-6.995l-11.765-61.896v61.896H1083.032z"/>
	<path fill="#666666" d="M1141.534,183.376v-74.191h30.419v7.525h-22.151v24.165h18.018v7.525h-18.018v27.45h22.151v7.525H1141.534z
		"/>
	<path fill="#666666" d="M1200.99,166.1v-39.745c0-11.765,6.042-18.229,16.958-18.229c11.023,0,17.064,6.465,17.064,18.229V166.1
		c0,11.765-6.041,18.336-17.064,18.336C1207.032,184.436,1200.99,177.864,1200.99,166.1z M1226.745,166.63v-40.805
		c0-6.783-2.968-10.175-8.797-10.175s-8.69,3.392-8.69,10.175v40.805c0,6.89,2.861,10.281,8.69,10.281
		S1226.745,173.52,1226.745,166.63z"/>
	<path fill="#666666" d="M1246.882,183.376v-74.191h16.216c11.765,0,16.746,5.3,16.746,16.853v4.557
		c0,8.161-2.862,13.143-8.585,14.944v0.106c5.829,1.483,8.69,6.677,8.69,15.474v13.249c0,4.027,0.318,6.995,1.061,9.009h-8.373
		c-0.637-2.12-0.954-5.087-0.954-9.009v-13.673c0-7.949-2.756-10.811-9.857-10.811h-6.677v33.492H1246.882z M1255.148,142.358h6.677
		c6.678,0,9.751-2.967,9.751-10.175v-5.299c0-7.207-2.438-10.175-8.69-10.175h-7.737V142.358z"/>
	<path fill="#666666" d="M1311.847,183.376v-74.191h8.268v74.191H1311.847z"/>
	<path fill="#666666" d="M1332.831,183.376v-74.191h10.6l16.746,52.994v-52.994h7.524v74.191h-8.585l-18.76-60.307v60.307H1332.831z
		"/>
	<path fill="#666666" d="M1379.675,166.1v-39.745c0-11.765,5.829-18.229,16.746-18.229c11.022,0,16.853,6.359,16.853,18.229v6.041
		h-7.844v-6.57c0-6.783-2.968-10.175-8.797-10.175s-8.69,3.392-8.69,10.175v40.911c0,6.783,2.861,10.175,8.69,10.175
		s8.797-3.392,8.797-10.175v-16.641h-8.161v-7.525h16.005V166.1c0,11.871-5.83,18.336-16.853,18.336
		C1385.504,184.436,1379.675,177.971,1379.675,166.1z"/>
	<path fill="#666666" d="M1424.823,183.376v-74.191h16.217c11.765,0,16.746,5.3,16.746,16.853v4.557
		c0,8.161-2.862,13.143-8.585,14.944v0.106c5.829,1.483,8.69,6.677,8.69,15.474v13.249c0,4.027,0.318,6.995,1.061,9.009h-8.373
		c-0.637-2.12-0.954-5.087-0.954-9.009v-13.673c0-7.949-2.756-10.811-9.857-10.811h-6.677v33.492H1424.823z M1433.091,142.358h6.677
		c6.678,0,9.751-2.967,9.751-10.175v-5.299c0-7.207-2.438-10.175-8.69-10.175h-7.737V142.358z"/>
	<path fill="#666666" d="M1469.972,183.376v-74.191h30.418v7.525h-22.151v24.165h18.018v7.525h-18.018v27.45h22.151v7.525H1469.972z
		"/>
	<path fill="#666666" d="M1510.351,183.376v-74.191h16.957c11.129,0,16.746,6.041,16.746,18.018v38.156
		c0,11.977-5.617,18.018-16.746,18.018H1510.351z M1518.617,175.851h8.479c5.936,0,8.691-2.968,8.691-10.175v-38.897
		c0-7.207-2.756-10.068-8.691-10.068h-8.479V175.851z"/>
	<path fill="#666666" d="M1556.028,183.376v-74.191h8.267v74.191H1556.028z"/>
	<path fill="#666666" d="M1577.013,183.376v-74.191h30.418v7.525h-22.151v24.165h18.018v7.525h-18.018v27.45h22.151v7.525H1577.013z
		"/>
	<path fill="#666666" d="M1617.392,183.376v-74.191h10.599l16.746,52.994v-52.994h7.524v74.191h-8.585l-18.76-60.307v60.307
		H1617.392z"/>
	<path fill="#666666" d="M1674.939,183.376V116.71h-13.143v-7.525h34.552v7.525h-13.143v66.666H1674.939z"/>
</g>
<g>
	<defs>
		<path id="SVGID_84_" d="M97.67,78.344l41.173,31.548V89.874c32.743,3.807,58.334,31.384,58.334,65.132
			c0,36.338-29.56,65.912-65.897,65.912c-36.339,0-65.913-29.574-65.913-65.912c0-2.654,0.477-5.179,0.784-7.752H47.584
			c-0.006,0.058-0.003,0.115-0.009,0.174h-4.248v7.578c0,48.489,39.447,87.953,87.937,87.953c48.491,0,87.952-39.464,87.952-87.953
			c0-45.933-35.424-83.691-80.373-87.554V46.795L97.67,78.344z"/>
	</defs>
	<clipPath id="SVGID_85_">
		<use xlink:href="#SVGID_84_"  overflow="visible"/>
	</clipPath>
	
		<linearGradient id="SVGID_86_" gradientUnits="userSpaceOnUse" x1="3727.1387" y1="2322.3887" x2="3728.1382" y2="2322.3887" gradientTransform="matrix(176.2657 189.0988 189.0988 -176.2657 -1096079.75 -295384.0625)">
		<stop  offset="0" style="stop-color:#146BCA"/>
		<stop  offset="1" style="stop-color:#273E7C"/>
	</linearGradient>
	<polygon clip-path="url(#SVGID_85_)" fill="url(#SVGID_86_)" points="137.442,-40.933 317.056,151.759 125.102,330.687 
		-54.513,137.995 	"/>
</g>
<g>
	<defs>
		<rect id="SVGID_87_" x="121.272" y="109.156" width="12.187" height="45.208"/>
	</defs>
	<clipPath id="SVGID_88_">
		<use xlink:href="#SVGID_87_"  overflow="visible"/>
	</clipPath>
	
		<linearGradient id="SVGID_89_" gradientUnits="userSpaceOnUse" x1="3727.1382" y1="2322.3623" x2="3728.1382" y2="2322.3623" gradientTransform="matrix(176.2657 189.0988 189.0988 -176.2657 -1096070.25 -295392.9375)">
		<stop  offset="0" style="stop-color:#146BCA"/>
		<stop  offset="1" style="stop-color:#273E7C"/>
	</linearGradient>
	<polygon clip-path="url(#SVGID_88_)" fill="url(#SVGID_89_)" points="127.793,103.078 156.008,133.347 126.938,160.443 
		98.724,130.175 	"/>
</g>
<g>
	<defs>
		<rect id="SVGID_90_" x="127.505" y="150.459" width="66.726" height="7.813"/>
	</defs>
	<clipPath id="SVGID_91_">
		<use xlink:href="#SVGID_90_"  overflow="visible"/>
	</clipPath>
	
		<linearGradient id="SVGID_92_" gradientUnits="userSpaceOnUse" x1="3727.1382" y1="2322.3633" x2="3728.1382" y2="2322.3633" gradientTransform="matrix(176.2657 189.0988 189.0988 -176.2657 -1096063.75 -295399.125)">
		<stop  offset="0" style="stop-color:#146BCA"/>
		<stop  offset="1" style="stop-color:#273E7C"/>
	</linearGradient>
	<polygon clip-path="url(#SVGID_91_)" fill="url(#SVGID_92_)" points="163.209,117.179 198.128,154.641 158.527,191.553 
		123.608,154.092 	"/>
</g>
<g>
	<defs>
		<path id="SVGID_93_" d="M117.424,154.364c0,5.492,4.451,9.943,9.941,9.943c5.491,0,9.942-4.451,9.942-9.943
			c0-5.491-4.451-9.942-9.942-9.942C121.875,144.422,117.424,148.873,117.424,154.364"/>
	</defs>
	<clipPath id="SVGID_94_">
		<use xlink:href="#SVGID_93_"  overflow="visible"/>
	</clipPath>
	
		<linearGradient id="SVGID_95_" gradientUnits="userSpaceOnUse" x1="3727.1406" y1="2322.3623" x2="3728.1362" y2="2322.3623" gradientTransform="matrix(176.2657 189.0988 189.0988 -176.2657 -1096081.5 -295382.4375)">
		<stop  offset="0" style="stop-color:#146BCA"/>
		<stop  offset="1" style="stop-color:#273E7C"/>
	</linearGradient>
	<polygon clip-path="url(#SVGID_94_)" fill="url(#SVGID_95_)" points="128.063,134.506 147.225,155.063 126.668,174.225 
		107.506,153.667 	"/>
</g>
</svg>
