<?xml version="1.0" encoding="utf-8"?>
<!-- Generator: Adobe Illustrator 16.0.0, SVG Export Plug-In . SVG Version: 6.00 Build 0)  -->
<!DOCTYPE svg PUBLIC "-//W3C//DTD SVG 1.1//EN" "http://www.w3.org/Graphics/SVG/1.1/DTD/svg11.dtd">
<svg version="1.1" id="Layer_1" xmlns="http://www.w3.org/2000/svg" xmlns:xlink="http://www.w3.org/1999/xlink" x="0px" y="0px"
	 width="1252.129px" height="1429.501px" viewBox="0 0 1252.129 1429.501" enable-background="new 0 0 1252.129 1429.501"
	 xml:space="preserve">
<rect x="-5024.21" y="-1957.865" fill="#FFFFFF" width="3094.32" height="2664.382"/>
<g>
	<defs>
		<polygon id="SVGID_1_" points="51.97,1119.771 51.97,763.842 109.425,763.842 161.802,1048.071 213.657,763.842 271.616,763.842 
			271.616,1119.771 233.492,1119.771 233.492,822.823 177.04,1119.771 143.493,1119.771 87.041,822.823 87.041,1119.771 		"/>
	</defs>
	<clipPath id="SVGID_2_">
		<use xlink:href="#SVGID_1_"  overflow="visible"/>
	</clipPath>
	
		<linearGradient id="SVGID_3_" gradientUnits="userSpaceOnUse" x1="-1718.4795" y1="784.7881" x2="-1717.4814" y2="784.7881" gradientTransform="matrix(-919.8121 1437.7645 1437.7645 919.8121 -2708231.25 1748875)">
		<stop  offset="0" style="stop-color:#2F6BB3"/>
		<stop  offset="1" style="stop-color:#273E7C"/>
	</linearGradient>
	<polygon clip-path="url(#SVGID_2_)" fill="url(#SVGID_3_)" points="433.192,867.21 207.826,1219.481 -109.606,1016.402 
		115.759,664.132 	"/>
</g>
<g>
	<defs>
		<path id="SVGID_4_" d="M328.068,937.735c0-30.003,12.206-44.748,37.12-44.748c25.434,0,38.142,14.745,38.142,44.748v28.478
			h-75.262V937.735z M289.422,941.299v100.679c0,52.879,26.962,82.883,75.767,82.883c48.822,0,75.764-30.004,75.764-82.883v-4.073
			h-37.119v7.628c0,30.002-12.708,45.26-38.124,45.26c-24.914,0-37.641-15.258-37.641-45.26v-47.801h112.884v-56.433
			c0-52.888-26.941-82.379-75.764-82.379C315.881,858.92,289.422,888.411,289.422,941.299"/>
	</defs>
	<clipPath id="SVGID_5_">
		<use xlink:href="#SVGID_4_"  overflow="visible"/>
	</clipPath>
	
		<linearGradient id="SVGID_6_" gradientUnits="userSpaceOnUse" x1="-1718.4805" y1="784.7881" x2="-1717.4805" y2="784.7881" gradientTransform="matrix(-919.8121 1437.7645 1437.7645 919.8121 -2708064.25 1748983)">
		<stop  offset="0" style="stop-color:#2F6BB3"/>
		<stop  offset="1" style="stop-color:#273E7C"/>
	</linearGradient>
	<polygon clip-path="url(#SVGID_5_)" fill="url(#SVGID_6_)" points="561.677,936.154 396.944,1193.648 168.697,1047.626 
		333.429,790.132 	"/>
</g>
<g>
	<defs>
		<path id="SVGID_7_" d="M492.809,1047.57V935.699c0-28.469,10.68-42.712,32.543-42.712c24.411,0,41.193,20.347,41.193,56.955
			v83.895c0,36.609-16.782,56.955-41.193,56.955C503.488,1090.792,492.809,1076.549,492.809,1047.57 M566.545,763.842v125.592
			c-11.702-20.346-29.491-30.514-52.879-30.514c-39.669,0-59.504,24.411-59.504,73.727v117.975
			c0,49.315,19.835,74.239,59.504,74.239c26.941,0,46.254-13.22,57.457-39.67c0.501,16.784,2.028,28.478,4.056,34.58h35.092
			c-3.555-15.76-5.602-38.645-5.602-69.662V763.842H566.545z"/>
	</defs>
	<clipPath id="SVGID_8_">
		<use xlink:href="#SVGID_7_"  overflow="visible"/>
	</clipPath>
	
		<linearGradient id="SVGID_9_" gradientUnits="userSpaceOnUse" x1="-1718.4795" y1="784.7686" x2="-1717.4817" y2="784.7686" gradientTransform="matrix(-919.8121 1437.7645 1437.7645 919.8121 -2707937.25 1749063)">
		<stop  offset="0" style="stop-color:#2F6BB3"/>
		<stop  offset="1" style="stop-color:#273E7C"/>
	</linearGradient>
	<polygon clip-path="url(#SVGID_8_)" fill="url(#SVGID_9_)" points="774.156,868.688 564.934,1195.726 290.276,1020.014 
		499.499,692.976 	"/>
</g>
<g>
	<defs>
		<polygon id="SVGID_10_" points="628.077,763.842 628.077,1119.771 769.429,1119.771 769.429,1083.665 667.727,1083.665 
			667.727,763.842 		"/>
	</defs>
	<clipPath id="SVGID_11_">
		<use xlink:href="#SVGID_10_"  overflow="visible"/>
	</clipPath>
	
		<linearGradient id="SVGID_12_" gradientUnits="userSpaceOnUse" x1="-1718.4624" y1="784.1748" x2="-1717.4624" y2="784.1748" gradientTransform="matrix(1071.6257 1098.4164 1098.4164 -1071.6257 980230.875 2728186.25)">
		<stop  offset="0" style="stop-color:#009676"/>
		<stop  offset="1" style="stop-color:#0D5042"/>
		<stop  offset="1" style="stop-color:#FFF2E9"/>
	</linearGradient>
	<polygon clip-path="url(#SVGID_11_)" fill="url(#SVGID_12_)" points="700.498,693.188 947.339,946.2 697.008,1190.426 
		450.167,937.413 	"/>
</g>
<g>
	<defs>
		<path id="SVGID_13_" d="M812.129,937.735c0-30.003,12.206-44.748,37.121-44.748c25.436,0,38.144,14.745,38.144,44.748v28.478
			h-75.265V937.735z M773.484,941.299v100.679c0,52.879,26.962,82.883,75.766,82.883c48.823,0,75.765-30.004,75.765-82.883v-4.073
			h-37.119v7.628c0,30.002-12.708,45.26-38.124,45.26c-24.914,0-37.643-15.258-37.643-45.26v-47.801h112.886v-56.433
			c0-52.888-26.941-82.379-75.765-82.379C799.943,858.92,773.484,888.411,773.484,941.299"/>
	</defs>
	<clipPath id="SVGID_14_">
		<use xlink:href="#SVGID_13_"  overflow="visible"/>
	</clipPath>
	
		<linearGradient id="SVGID_15_" gradientUnits="userSpaceOnUse" x1="-1718.4604" y1="784.1504" x2="-1717.463" y2="784.1504" gradientTransform="matrix(1071.6257 1098.4164 1098.4164 -1071.6257 980306.875 2728109.75)">
		<stop  offset="0" style="stop-color:#009676"/>
		<stop  offset="1" style="stop-color:#0D5042"/>
		<stop  offset="1" style="stop-color:#FFF2E9"/>
	</linearGradient>
	<polygon clip-path="url(#SVGID_14_)" fill="url(#SVGID_15_)" points="851.12,783.178 1057.944,995.173 847.379,1200.603 
		640.555,988.607 	"/>
</g>
<g>
	<defs>
		<path id="SVGID_16_" d="M979.419,1033.837v-83.895c0-36.608,16.783-56.955,41.195-56.955c21.862,0,33.045,14.243,33.045,42.712
			v111.871c0,28.979-11.183,43.222-33.045,43.222C996.202,1090.792,979.419,1070.446,979.419,1033.837 M941.296,763.842v355.929
			h27.965l5.08-36.105c10.68,27.463,29.992,41.195,57.455,41.195c40.172,0,60.006-24.924,60.006-74.239V932.646
			c0-49.315-19.834-73.727-60.006-73.727c-22.886,0-40.673,10.168-52.377,30.514V763.842H941.296z"/>
	</defs>
	<clipPath id="SVGID_17_">
		<use xlink:href="#SVGID_16_"  overflow="visible"/>
	</clipPath>
	
		<linearGradient id="SVGID_18_" gradientUnits="userSpaceOnUse" x1="-1718.4639" y1="784.1758" x2="-1717.4618" y2="784.1758" gradientTransform="matrix(1071.6257 1098.4164 1098.4164 -1071.6257 980390.875 2728030)">
		<stop  offset="0" style="stop-color:#009676"/>
		<stop  offset="1" style="stop-color:#0D5042"/>
		<stop  offset="1" style="stop-color:#FFF2E9"/>
	</linearGradient>
	<polygon clip-path="url(#SVGID_17_)" fill="url(#SVGID_18_)" points="1018.407,688.612 1272.256,948.808 1014.691,1200.09 
		760.842,939.895 	"/>
</g>
<g>
	<defs>
		<path id="SVGID_19_" d="M590.927,264.425H525.45H256.947c-102.11,0-191.8,76.848-198.2,178.758
			c-6.966,110.866,81.248,203.296,190.637,203.296h210.846c9.29,0,16.82-7.53,16.82-16.818v-31.6c0-0.001-0.002-0.001-0.002-0.001
			H249.384c-84.567,0-152.18-73.974-141.51-160.617c8.913-72.369,74.313-124.6,147.229-124.6l270.347,0.001h121.429
			c0.505,0,0.911,0.407,0.911,0.91V490.94v0.002h30.673c9.792,0,17.729-7.938,17.729-17.729V313.754c0-0.503,0.407-0.91,0.912-0.91
			h72.114c0.502,0,0.911,0.407,0.911,0.91V490.94c0,0.002,0.001,0.002,0.001,0.002h30.674c9.789,0,17.728-7.938,17.728-17.729
			V264.425H590.927z"/>
	</defs>
	<clipPath id="SVGID_20_">
		<use xlink:href="#SVGID_19_"  overflow="visible"/>
	</clipPath>
	
		<linearGradient id="SVGID_21_" gradientUnits="userSpaceOnUse" x1="-1718.4624" y1="784.124" x2="-1717.4614" y2="784.124" gradientTransform="matrix(1071.6257 1098.4164 1098.4164 -1071.6257 980394.875 2728026)">
		<stop  offset="0" style="stop-color:#009676"/>
		<stop  offset="1" style="stop-color:#0D5042"/>
		<stop  offset="1" style="stop-color:#FFF2E9"/>
	</linearGradient>
	<polygon clip-path="url(#SVGID_20_)" fill="url(#SVGID_21_)" points="444.621,-118.833 1009.5,460.168 425.691,1029.737 
		-139.188,450.736 	"/>
</g>
<g>
	<defs>
		<path id="SVGID_22_" d="M525.451,360.385v129.586v60.548v79.143c0,9.289,7.53,16.817,16.818,16.817h358.506
			c95.584,0,174.768-70.651,188.642-162.434h-48.908c-13.278,64.981-70.886,114.015-139.733,114.015H573.854v-47.541v-60.548
			V377.204c0-9.289-7.529-16.819-16.818-16.819H525.451z"/>
	</defs>
	<clipPath id="SVGID_23_">
		<use xlink:href="#SVGID_22_"  overflow="visible"/>
	</clipPath>
	
		<linearGradient id="SVGID_24_" gradientUnits="userSpaceOnUse" x1="-1718.4805" y1="784.8086" x2="-1717.4805" y2="784.8086" gradientTransform="matrix(-919.8121 1437.7645 1437.7645 919.8121 -2708002.25 1749023)">
		<stop  offset="0" style="stop-color:#2F6BB3"/>
		<stop  offset="1" style="stop-color:#273E7C"/>
	</linearGradient>
	<polygon clip-path="url(#SVGID_23_)" fill="url(#SVGID_24_)" points="1219.291,443.472 925.631,902.494 395.577,563.392 
		689.237,104.369 	"/>
</g>
<g>
	<defs>
		<path id="SVGID_25_" d="M883.751,264.425c-9.289,0-16.817,7.529-16.817,16.818v31.601h33.842
			c71.897,0,131.378,53.523,141.078,122.784h48.907c-9.949-96.049-91.353-171.203-189.985-171.203H883.751z"/>
	</defs>
	<clipPath id="SVGID_26_">
		<use xlink:href="#SVGID_25_"  overflow="visible"/>
	</clipPath>
	
		<linearGradient id="SVGID_27_" gradientUnits="userSpaceOnUse" x1="-1718.4805" y1="784.7861" x2="-1717.4805" y2="784.7861" gradientTransform="matrix(-919.8121 1437.7645 1437.7645 919.8121 -2707917.25 1749079)">
		<stop  offset="0" style="stop-color:#2F6BB3"/>
		<stop  offset="1" style="stop-color:#273E7C"/>
	</linearGradient>
	<polygon clip-path="url(#SVGID_26_)" fill="url(#SVGID_27_)" points="1168.479,314.146 1025.757,537.235 789.215,385.907 
		931.937,162.817 	"/>
</g>
<g>
	<defs>
		<polygon id="SVGID_28_" points="51.97,1185.635 51.97,1283.361 90.779,1283.361 90.779,1273.449 62.858,1273.449 62.858,1185.635 
					"/>
	</defs>
	<clipPath id="SVGID_29_">
		<use xlink:href="#SVGID_28_"  overflow="visible"/>
	</clipPath>
	
		<linearGradient id="SVGID_30_" gradientUnits="userSpaceOnUse" x1="-1718.5317" y1="784.751" x2="-1717.5317" y2="784.751" gradientTransform="matrix(-1058.5797 1654.6732 1654.6732 1058.5797 -3116772.75 2012773.75)">
		<stop  offset="0" style="stop-color:#2F6BB3"/>
		<stop  offset="1" style="stop-color:#273E7C"/>
	</linearGradient>
	<polygon clip-path="url(#SVGID_29_)" fill="url(#SVGID_30_)" points="135.143,1214.017 79.508,1300.979 7.606,1254.979 
		63.24,1168.017 	"/>
</g>
<g>
	<defs>
		<path id="SVGID_31_" d="M102.504,1233.381c0-8.237,3.351-12.286,10.191-12.286c6.981,0,10.471,4.049,10.471,12.286v7.818h-20.662
			V1233.381z M91.895,1234.357v27.644c0,14.52,7.397,22.756,20.801,22.756s20.802-8.236,20.802-22.756v-1.117h-10.191v2.093
			c0,8.238-3.49,12.427-10.471,12.427c-6.841,0-10.331-4.188-10.331-12.427v-13.122h30.993v-15.497
			c0-14.519-7.398-22.615-20.802-22.615C99.153,1211.742,91.895,1219.839,91.895,1234.357"/>
	</defs>
	<clipPath id="SVGID_32_">
		<use xlink:href="#SVGID_31_"  overflow="visible"/>
	</clipPath>
	
		<linearGradient id="SVGID_33_" gradientUnits="userSpaceOnUse" x1="-1718.5415" y1="784.751" x2="-1717.53" y2="784.751" gradientTransform="matrix(-1058.5797 1654.6732 1654.6732 1058.5797 -3116737.75 2012793.75)">
		<stop  offset="0" style="stop-color:#2F6BB3"/>
		<stop  offset="1" style="stop-color:#273E7C"/>
	</linearGradient>
	<polygon clip-path="url(#SVGID_32_)" fill="url(#SVGID_33_)" points="166.643,1232.947 121.415,1303.643 58.749,1263.552 
		103.977,1192.856 	"/>
</g>
<g>
	<defs>
		<path id="SVGID_34_" d="M148.433,1259.767v-23.035c0-10.052,4.607-15.637,11.309-15.637c6.003,0,9.074,3.91,9.074,11.729v30.713
			c0,7.958-3.071,11.867-9.074,11.867C153.04,1275.403,148.433,1269.819,148.433,1259.767 M137.962,1185.635v97.727h7.679
			l1.396-9.912c2.932,7.538,8.237,11.308,15.776,11.308c11.028,0,16.473-6.84,16.473-20.383v-32.389
			c0-13.543-5.444-20.243-16.473-20.243c-6.282,0-11.168,2.792-14.38,8.377v-34.484H137.962z"/>
	</defs>
	<clipPath id="SVGID_35_">
		<use xlink:href="#SVGID_34_"  overflow="visible"/>
	</clipPath>
	
		<linearGradient id="SVGID_36_" gradientUnits="userSpaceOnUse" x1="-1718.5317" y1="784.752" x2="-1717.5317" y2="784.752" gradientTransform="matrix(-1058.5797 1654.6732 1654.6732 1058.5797 -3116713.75 2012809.75)">
		<stop  offset="0" style="stop-color:#2F6BB3"/>
		<stop  offset="1" style="stop-color:#273E7C"/>
	</linearGradient>
	<polygon clip-path="url(#SVGID_35_)" fill="url(#SVGID_36_)" points="224.282,1214.422 167.284,1303.516 92.966,1255.97 
		149.964,1166.876 	"/>
</g>
<g>
	<defs>
		<path id="SVGID_37_" d="M192.126,1265.91c0-5.864,3.351-10.472,9.911-13.822c5.724-2.931,9.075-5.025,10.192-6.562v14.102
			c0,10.051-4.328,15.914-11.448,15.914C195.059,1275.542,192.126,1272.331,192.126,1265.91 M183.47,1232.124v1.536h9.912v-2.094
			c0-6.842,3.631-10.751,9.772-10.751c6.004,0,9.075,3.49,9.075,10.472v1.675c0,2.373-0.698,4.329-2.234,5.585
			c-1.535,1.255-5.165,3.21-11.027,5.863c-12.705,6.003-17.451,12.285-17.451,23.035c0,10.609,6.003,17.312,15.635,17.312
			c7.958,0,13.402-3.63,16.334-10.89c0.28,4.887,0.699,7.958,1.117,9.494h9.634c-0.978-4.328-1.536-10.611-1.536-19.126v-31.273
			c0-14.1-6.422-21.22-19.406-21.22C190.59,1211.742,183.47,1219.141,183.47,1232.124"/>
	</defs>
	<clipPath id="SVGID_38_">
		<use xlink:href="#SVGID_37_"  overflow="visible"/>
	</clipPath>
	
		<linearGradient id="SVGID_39_" gradientUnits="userSpaceOnUse" x1="-1718.541" y1="784.749" x2="-1717.5297" y2="784.749" gradientTransform="matrix(-1058.5797 1654.6732 1654.6732 1058.5797 -3116669.75 2012837.75)">
		<stop  offset="0" style="stop-color:#2F6BB3"/>
		<stop  offset="1" style="stop-color:#273E7C"/>
	</linearGradient>
	<polygon clip-path="url(#SVGID_38_)" fill="url(#SVGID_39_)" points="257.382,1232.947 211.829,1304.149 148.37,1263.552 
		193.923,1192.349 	"/>
</g>
<g>
	<defs>
		<path id="SVGID_40_" d="M238.054,1222.352l-0.141-9.214h-9.074v70.224h10.471v-46.63c0-10.052,4.468-15.637,11.029-15.637
			c5.863,0,8.795,4.049,8.795,12.286v49.98h10.61v-51.376c0-13.543-5.445-20.243-16.194-20.243
			C246.151,1211.742,240.985,1215.231,238.054,1222.352"/>
	</defs>
	<clipPath id="SVGID_41_">
		<use xlink:href="#SVGID_40_"  overflow="visible"/>
	</clipPath>
	
		<linearGradient id="SVGID_42_" gradientUnits="userSpaceOnUse" x1="-1718.5317" y1="784.751" x2="-1717.5317" y2="784.751" gradientTransform="matrix(-1058.5797 1654.6732 1654.6732 1058.5797 -3116640.75 2012857.75)">
		<stop  offset="0" style="stop-color:#2F6BB3"/>
		<stop  offset="1" style="stop-color:#273E7C"/>
	</linearGradient>
	<polygon clip-path="url(#SVGID_41_)" fill="url(#SVGID_42_)" points="302.256,1232.542 257.864,1301.93 196.327,1262.562 
		240.719,1193.173 	"/>
</g>
<g>
	<defs>
		<path id="SVGID_43_" d="M284.818,1233.381c0-8.237,3.351-12.286,10.192-12.286c6.979,0,10.471,4.049,10.471,12.286v7.818h-20.663
			V1233.381z M274.208,1234.357v27.644c0,14.52,7.4,22.756,20.803,22.756s20.802-8.236,20.802-22.756v-1.117H305.62v2.093
			c0,8.238-3.49,12.427-10.47,12.427c-6.841,0-10.332-4.188-10.332-12.427v-13.122h30.994v-15.497
			c0-14.519-7.399-22.615-20.802-22.615C281.468,1211.742,274.208,1219.839,274.208,1234.357"/>
	</defs>
	<clipPath id="SVGID_44_">
		<use xlink:href="#SVGID_43_"  overflow="visible"/>
	</clipPath>
	
		<linearGradient id="SVGID_45_" gradientUnits="userSpaceOnUse" x1="-1718.5317" y1="784.75" x2="-1717.5317" y2="784.75" gradientTransform="matrix(-1058.5797 1654.6732 1654.6732 1058.5797 -3116607.75 2012877.75)">
		<stop  offset="0" style="stop-color:#2F6BB3"/>
		<stop  offset="1" style="stop-color:#273E7C"/>
	</linearGradient>
	<polygon clip-path="url(#SVGID_44_)" fill="url(#SVGID_45_)" points="348.958,1232.947 303.729,1303.644 241.063,1263.552 
		286.291,1192.855 	"/>
</g>
<g>
	<defs>
		<path id="SVGID_46_" d="M318.043,1230.449c0,6.143,1.675,10.75,5.584,14.239c1.954,1.816,3.63,3.071,4.886,3.909
			c1.258,0.838,3.352,1.955,6.144,3.49c5.166,2.653,7.818,4.049,10.192,7.54c1.256,1.675,1.953,3.629,1.953,5.724
			c0,6.841-3.211,10.19-9.633,10.19s-9.633-3.629-9.633-10.749v-2.653h-10.191v2.374c0,12.704,7.539,20.243,20.384,20.243
			c12.424,0,19.545-7.399,19.545-19.546c0-6.003-1.676-10.47-5.445-13.82c-3.769-3.489-5.864-4.747-11.029-7.399
			c-5.584-2.792-7.956-4.049-10.61-7.538c-1.256-1.816-1.954-3.91-1.954-6.144c0-6.143,3.77-9.494,8.935-9.494
			c6.003,0,8.936,3.352,8.936,10.192v1.675h9.913v-1.396c0-12.146-7.4-19.545-18.988-19.545
			C325.163,1211.742,318.043,1218.862,318.043,1230.449"/>
	</defs>
	<clipPath id="SVGID_47_">
		<use xlink:href="#SVGID_46_"  overflow="visible"/>
	</clipPath>
	
		<linearGradient id="SVGID_48_" gradientUnits="userSpaceOnUse" x1="-1718.5317" y1="784.751" x2="-1717.5317" y2="784.751" gradientTransform="matrix(-1058.5797 1654.6732 1654.6732 1058.5797 -3116577.75 2012897.75)">
		<stop  offset="0" style="stop-color:#2F6BB3"/>
		<stop  offset="1" style="stop-color:#273E7C"/>
	</linearGradient>
	<polygon clip-path="url(#SVGID_47_)" fill="url(#SVGID_48_)" points="390.419,1232.947 345.677,1302.883 284.198,1263.552 
		328.94,1193.616 	"/>
</g>
<g>
	<defs>
		<path id="SVGID_49_" d="M369.834,1233.381c0-8.237,3.351-12.286,10.191-12.286c6.979,0,10.471,4.049,10.471,12.286v7.818h-20.662
			V1233.381z M359.224,1234.357v27.644c0,14.52,7.399,22.756,20.802,22.756c13.403,0,20.802-8.236,20.802-22.756v-1.117h-10.191
			v2.093c0,8.238-3.49,12.427-10.471,12.427c-6.841,0-10.331-4.188-10.331-12.427v-13.122h30.993v-15.497
			c0-14.519-7.398-22.615-20.802-22.615C366.484,1211.742,359.224,1219.839,359.224,1234.357"/>
	</defs>
	<clipPath id="SVGID_50_">
		<use xlink:href="#SVGID_49_"  overflow="visible"/>
	</clipPath>
	
		<linearGradient id="SVGID_51_" gradientUnits="userSpaceOnUse" x1="-1718.5317" y1="784.751" x2="-1717.5317" y2="784.751" gradientTransform="matrix(-1058.5797 1654.6732 1654.6732 1058.5797 -3116547.75 2012917.75)">
		<stop  offset="0" style="stop-color:#2F6BB3"/>
		<stop  offset="1" style="stop-color:#273E7C"/>
	</linearGradient>
	<polygon clip-path="url(#SVGID_50_)" fill="url(#SVGID_51_)" points="433.973,1232.947 388.744,1303.644 326.077,1263.552 
		371.306,1192.855 	"/>
</g>
<g>
	<defs>
		<polygon id="SVGID_52_" points="465.461,1185.635 451.222,1263.676 436.841,1185.635 421.066,1185.635 421.066,1283.361 
			430.698,1283.361 430.698,1201.83 446.196,1283.361 455.409,1283.361 470.906,1201.83 470.906,1283.361 481.377,1283.361 
			481.377,1185.635 		"/>
	</defs>
	<clipPath id="SVGID_53_">
		<use xlink:href="#SVGID_52_"  overflow="visible"/>
	</clipPath>
	
		<linearGradient id="SVGID_54_" gradientUnits="userSpaceOnUse" x1="-1718.5317" y1="784.751" x2="-1717.5317" y2="784.751" gradientTransform="matrix(-1058.5797 1654.6732 1654.6732 1058.5797 -3116503.75 2012945.75)">
		<stop  offset="0" style="stop-color:#2F6BB3"/>
		<stop  offset="1" style="stop-color:#273E7C"/>
	</linearGradient>
	<polygon clip-path="url(#SVGID_53_)" fill="url(#SVGID_54_)" points="525.74,1214.017 463.861,1310.739 376.703,1254.979 
		438.581,1158.257 	"/>
</g>
<g>
	<defs>
		<path id="SVGID_55_" d="M496.868,1233.381c0-8.237,3.352-12.286,10.192-12.286c6.979,0,10.471,4.049,10.471,12.286v7.818h-20.663
			V1233.381z M486.259,1234.357v27.644c0,14.52,7.399,22.756,20.802,22.756s20.802-8.236,20.802-22.756v-1.117H517.67v2.093
			c0,8.238-3.489,12.427-10.471,12.427c-6.84,0-10.331-4.188-10.331-12.427v-13.122h30.994v-15.497
			c0-14.519-7.399-22.615-20.802-22.615C493.52,1211.742,486.259,1219.839,486.259,1234.357"/>
	</defs>
	<clipPath id="SVGID_56_">
		<use xlink:href="#SVGID_55_"  overflow="visible"/>
	</clipPath>
	
		<linearGradient id="SVGID_57_" gradientUnits="userSpaceOnUse" x1="-1718.5239" y1="784.751" x2="-1717.5353" y2="784.751" gradientTransform="matrix(-1058.5797 1654.6732 1654.6732 1058.5797 -3116457.75 2012973.75)">
		<stop  offset="0" style="stop-color:#2F6BB3"/>
		<stop  offset="1" style="stop-color:#273E7C"/>
	</linearGradient>
	<polygon clip-path="url(#SVGID_56_)" fill="url(#SVGID_57_)" points="561.008,1232.947 515.779,1303.644 453.112,1263.552 
		498.341,1192.855 	"/>
</g>
<g>
	<defs>
		<path id="SVGID_58_" d="M542.101,1263.536v-30.713c0-7.818,2.931-11.729,8.934-11.729c6.701,0,11.309,5.585,11.309,15.637v23.035
			c0,10.053-4.607,15.637-11.309,15.637C545.031,1275.403,542.101,1271.494,542.101,1263.536 M562.343,1185.635v34.484
			c-3.211-5.585-8.098-8.377-14.52-8.377c-10.889,0-16.334,6.7-16.334,20.243v32.389c0,13.543,5.445,20.383,16.334,20.383
			c7.398,0,12.704-3.63,15.775-10.89c0.14,4.606,0.56,7.818,1.117,9.494h9.633c-0.978-4.328-1.535-10.611-1.535-19.126v-78.601
			H562.343z"/>
	</defs>
	<clipPath id="SVGID_59_">
		<use xlink:href="#SVGID_58_"  overflow="visible"/>
	</clipPath>
	
		<linearGradient id="SVGID_60_" gradientUnits="userSpaceOnUse" x1="-1718.5317" y1="784.7451" x2="-1717.5317" y2="784.7451" gradientTransform="matrix(-1058.5797 1654.6732 1654.6732 1058.5797 -3116422.75 2012997.75)">
		<stop  offset="0" style="stop-color:#2F6BB3"/>
		<stop  offset="1" style="stop-color:#273E7C"/>
	</linearGradient>
	<polygon clip-path="url(#SVGID_59_)" fill="url(#SVGID_60_)" points="619.345,1214.422 561.901,1304.213 486.492,1255.97 
		543.937,1166.179 	"/>
</g>
<g>
	<defs>
		<path id="SVGID_61_" d="M579.231,1283.361h10.47v-70.224h-10.47V1283.361z M579.231,1203.086h10.47v-15.078h-10.47V1203.086z"/>
	</defs>
	<clipPath id="SVGID_62_">
		<use xlink:href="#SVGID_61_"  overflow="visible"/>
	</clipPath>
	
		<linearGradient id="SVGID_63_" gradientUnits="userSpaceOnUse" x1="-1718.5317" y1="784.751" x2="-1717.5317" y2="784.751" gradientTransform="matrix(-1058.5797 1654.6732 1654.6732 1058.5797 -3116408.75 2013005.75)">
		<stop  offset="0" style="stop-color:#2F6BB3"/>
		<stop  offset="1" style="stop-color:#273E7C"/>
	</linearGradient>
	<polygon clip-path="url(#SVGID_62_)" fill="url(#SVGID_63_)" points="632.987,1215.7 586.66,1288.114 535.945,1255.669 
		582.271,1183.255 	"/>
</g>
<g>
	<defs>
		<path id="SVGID_64_" d="M594.726,1234.079v28.201c0,14.519,7.119,22.477,20.522,22.477c13.263,0,20.104-8.098,20.104-22.477
			v-4.469H625.16v5.445c0,8.098-3.351,12.146-9.912,12.146s-9.913-4.049-9.913-12.146v-30.155c0-7.958,3.352-12.007,9.913-12.007
			s9.912,4.049,9.912,12.007v4.048h10.191v-3.07c0-14.102-6.841-22.337-20.104-22.337
			C601.845,1211.742,594.726,1219.56,594.726,1234.079"/>
	</defs>
	<clipPath id="SVGID_65_">
		<use xlink:href="#SVGID_64_"  overflow="visible"/>
	</clipPath>
	
		<linearGradient id="SVGID_66_" gradientUnits="userSpaceOnUse" x1="-1718.5322" y1="784.751" x2="-1717.5322" y2="784.751" gradientTransform="matrix(-1058.5797 1654.6732 1654.6732 1058.5797 -3116380.75 2013021.75)">
		<stop  offset="0" style="stop-color:#2F6BB3"/>
		<stop  offset="1" style="stop-color:#273E7C"/>
	</linearGradient>
	<polygon clip-path="url(#SVGID_65_)" fill="url(#SVGID_66_)" points="668.497,1232.947 623.553,1303.199 561.579,1263.552 
		606.523,1193.3 	"/>
</g>
<g>
	<defs>
		<path id="SVGID_67_" d="M639.257,1283.361h10.472v-70.224h-10.472V1283.361z M639.257,1203.086h10.472v-15.078h-10.472V1203.086z"
			/>
	</defs>
	<clipPath id="SVGID_68_">
		<use xlink:href="#SVGID_67_"  overflow="visible"/>
	</clipPath>
	
		<linearGradient id="SVGID_69_" gradientUnits="userSpaceOnUse" x1="-1718.5317" y1="784.751" x2="-1717.5317" y2="784.751" gradientTransform="matrix(-1058.5797 1654.6732 1654.6732 1058.5797 -3116365.75 2013033.75)">
		<stop  offset="0" style="stop-color:#2F6BB3"/>
		<stop  offset="1" style="stop-color:#273E7C"/>
	</linearGradient>
	<polygon clip-path="url(#SVGID_68_)" fill="url(#SVGID_69_)" points="693.015,1215.7 646.687,1288.114 595.972,1255.669 
		642.298,1183.255 	"/>
</g>
<g>
	<defs>
		<path id="SVGID_70_" d="M665.362,1222.352l-0.141-9.214h-9.073v70.224h10.47v-46.63c0-10.052,4.468-15.637,11.03-15.637
			c5.862,0,8.795,4.049,8.795,12.286v49.98h10.61v-51.376c0-13.543-5.445-20.243-16.195-20.243
			C673.459,1211.742,668.293,1215.231,665.362,1222.352"/>
	</defs>
	<clipPath id="SVGID_71_">
		<use xlink:href="#SVGID_70_"  overflow="visible"/>
	</clipPath>
	
		<linearGradient id="SVGID_72_" gradientUnits="userSpaceOnUse" x1="-1718.5317" y1="784.75" x2="-1717.5317" y2="784.75" gradientTransform="matrix(-1058.5797 1654.6732 1654.6732 1058.5797 -3116336.75 2013049.75)">
		<stop  offset="0" style="stop-color:#2F6BB3"/>
		<stop  offset="1" style="stop-color:#273E7C"/>
	</linearGradient>
	<polygon clip-path="url(#SVGID_71_)" fill="url(#SVGID_72_)" points="729.565,1232.542 685.174,1301.93 623.637,1262.562 
		668.028,1193.173 	"/>
</g>
<g>
	<defs>
		<path id="SVGID_73_" d="M712.128,1233.381c0-8.237,3.351-12.286,10.191-12.286c6.98,0,10.471,4.049,10.471,12.286v7.818h-20.662
			V1233.381z M701.518,1234.357v27.644c0,14.52,7.399,22.756,20.802,22.756s20.801-8.236,20.801-22.756v-1.117h-10.191v2.093
			c0,8.238-3.489,12.427-10.47,12.427c-6.841,0-10.331-4.188-10.331-12.427v-13.122h30.992v-15.497
			c0-14.519-7.398-22.615-20.801-22.615C708.777,1211.742,701.518,1219.839,701.518,1234.357"/>
	</defs>
	<clipPath id="SVGID_74_">
		<use xlink:href="#SVGID_73_"  overflow="visible"/>
	</clipPath>
	
		<linearGradient id="SVGID_75_" gradientUnits="userSpaceOnUse" x1="-1718.5249" y1="784.751" x2="-1717.5363" y2="784.751" gradientTransform="matrix(-1058.5797 1654.6732 1654.6732 1058.5797 -3116304.75 2013073.75)">
		<stop  offset="0" style="stop-color:#2F6BB3"/>
		<stop  offset="1" style="stop-color:#273E7C"/>
	</linearGradient>
	<polygon clip-path="url(#SVGID_74_)" fill="url(#SVGID_75_)" points="776.266,1232.947 731.038,1303.644 668.372,1263.552 
		713.6,1192.856 	"/>
</g>
<g>
	<defs>
		<path id="SVGID_76_" d="M774.248,1195.547h11.169c7.819,0,11.448,3.77,11.448,13.263v51.236c0,9.493-3.629,13.403-11.448,13.403
			h-11.169V1195.547z M763.359,1185.635v97.727h22.337c14.659,0,22.058-7.958,22.058-23.733v-50.26
			c0-15.775-7.398-23.733-22.058-23.733H763.359z"/>
	</defs>
	<clipPath id="SVGID_77_">
		<use xlink:href="#SVGID_76_"  overflow="visible"/>
	</clipPath>
	
		<linearGradient id="SVGID_78_" gradientUnits="userSpaceOnUse" x1="-1718.5264" y1="784.7529" x2="-1717.5354" y2="784.7529" gradientTransform="matrix(-1058.5797 1654.6732 1654.6732 1058.5797 -3116269.75 2013093.75)">
		<stop  offset="0" style="stop-color:#2F6BB3"/>
		<stop  offset="1" style="stop-color:#273E7C"/>
	</linearGradient>
	<polygon clip-path="url(#SVGID_77_)" fill="url(#SVGID_78_)" points="852.117,1214.017 794.861,1303.515 718.995,1254.979 
		776.252,1165.481 	"/>
</g>
<g>
	<defs>
		<path id="SVGID_79_" d="M813.056,1283.361h10.471v-70.224h-10.471V1283.361z M813.056,1203.086h10.471v-15.078h-10.471V1203.086z"
			/>
	</defs>
	<clipPath id="SVGID_80_">
		<use xlink:href="#SVGID_79_"  overflow="visible"/>
	</clipPath>
	
		<linearGradient id="SVGID_81_" gradientUnits="userSpaceOnUse" x1="-1718.5317" y1="784.751" x2="-1717.5317" y2="784.751" gradientTransform="matrix(-1058.5797 1654.6732 1654.6732 1058.5797 -3116242.75 2013113.75)">
		<stop  offset="0" style="stop-color:#2F6BB3"/>
		<stop  offset="1" style="stop-color:#273E7C"/>
	</linearGradient>
	<polygon clip-path="url(#SVGID_80_)" fill="url(#SVGID_81_)" points="866.812,1215.7 820.485,1288.114 769.771,1255.669 
		816.097,1183.255 	"/>
</g>
<g>
	<defs>
		<path id="SVGID_82_" d="M839.161,1224.725l-0.14-11.587h-9.074v70.224h10.47v-40.905c0-13.543,4.607-20.244,13.682-20.244
			c1.676,0,3.072,0.279,4.328,0.698v-10.331c-1.116-0.56-2.652-0.837-4.607-0.837
			C846.42,1211.742,841.534,1216.069,839.161,1224.725"/>
	</defs>
	<clipPath id="SVGID_83_">
		<use xlink:href="#SVGID_82_"  overflow="visible"/>
	</clipPath>
	
		<linearGradient id="SVGID_84_" gradientUnits="userSpaceOnUse" x1="-1718.5317" y1="784.7539" x2="-1717.5317" y2="784.7539" gradientTransform="matrix(-1058.5797 1654.6732 1654.6732 1058.5797 -3116224.75 2013121.75)">
		<stop  offset="0" style="stop-color:#2F6BB3"/>
		<stop  offset="1" style="stop-color:#273E7C"/>
	</linearGradient>
	<polygon clip-path="url(#SVGID_83_)" fill="url(#SVGID_84_)" points="890.938,1232.541 850.155,1296.289 797.436,1262.562 
		838.218,1198.813 	"/>
</g>
<g>
	<defs>
		<path id="SVGID_85_" d="M868.338,1233.381c0-8.237,3.352-12.286,10.192-12.286c6.979,0,10.469,4.049,10.469,12.286v7.818h-20.661
			V1233.381z M857.729,1234.357v27.644c0,14.52,7.398,22.756,20.802,22.756c13.4,0,20.8-8.236,20.8-22.756v-1.117h-10.19v2.093
			c0,8.238-3.49,12.427-10.471,12.427c-6.841,0-10.331-4.188-10.331-12.427v-13.122h30.992v-15.497
			c0-14.519-7.399-22.615-20.8-22.615C864.987,1211.742,857.729,1219.839,857.729,1234.357"/>
	</defs>
	<clipPath id="SVGID_86_">
		<use xlink:href="#SVGID_85_"  overflow="visible"/>
	</clipPath>
	
		<linearGradient id="SVGID_87_" gradientUnits="userSpaceOnUse" x1="-1718.5317" y1="784.751" x2="-1717.5317" y2="784.751" gradientTransform="matrix(-1058.5797 1654.6732 1654.6732 1058.5797 -3116193.75 2013141.75)">
		<stop  offset="0" style="stop-color:#2F6BB3"/>
		<stop  offset="1" style="stop-color:#273E7C"/>
	</linearGradient>
	<polygon clip-path="url(#SVGID_86_)" fill="url(#SVGID_87_)" points="932.476,1232.947 887.248,1303.643 824.583,1263.552 
		869.811,1192.856 	"/>
</g>
<g>
	<defs>
		<path id="SVGID_88_" d="M902.679,1234.079v28.201c0,14.519,7.119,22.477,20.522,22.477c13.262,0,20.103-8.098,20.103-22.477
			v-4.469h-10.19v5.445c0,8.098-3.351,12.146-9.912,12.146s-9.913-4.049-9.913-12.146v-30.155c0-7.958,3.352-12.007,9.913-12.007
			s9.912,4.049,9.912,12.007v4.048h10.19v-3.07c0-14.102-6.841-22.337-20.103-22.337
			C909.798,1211.742,902.679,1219.56,902.679,1234.079"/>
	</defs>
	<clipPath id="SVGID_89_">
		<use xlink:href="#SVGID_88_"  overflow="visible"/>
	</clipPath>
	
		<linearGradient id="SVGID_90_" gradientUnits="userSpaceOnUse" x1="-1718.5322" y1="784.751" x2="-1717.5322" y2="784.751" gradientTransform="matrix(-1058.5797 1654.6732 1654.6732 1058.5797 -3116162.75 2013161.75)">
		<stop  offset="0" style="stop-color:#2F6BB3"/>
		<stop  offset="1" style="stop-color:#273E7C"/>
	</linearGradient>
	<polygon clip-path="url(#SVGID_89_)" fill="url(#SVGID_90_)" points="976.45,1232.946 931.506,1303.199 869.532,1263.552 
		914.477,1193.3 	"/>
</g>
<g>
	<defs>
		<path id="SVGID_91_" d="M952.935,1192.894l-1.117,20.244h-9.074v8.935h8.656v46.629c0,10.751,5.165,16.056,15.496,16.056
			c3.072,0,5.724-0.419,7.817-1.396v-9.074c-1.814,0.696-3.769,1.116-5.862,1.116c-5.027,0-6.842-2.234-6.842-7.818v-45.513h12.704
			v-8.935h-12.704v-20.244H952.935z"/>
	</defs>
	<clipPath id="SVGID_92_">
		<use xlink:href="#SVGID_91_"  overflow="visible"/>
	</clipPath>
	
		<linearGradient id="SVGID_93_" gradientUnits="userSpaceOnUse" x1="-1718.5317" y1="784.749" x2="-1717.5317" y2="784.749" gradientTransform="matrix(-1058.5797 1654.6732 1654.6732 1058.5797 -3116137.75 2013177.75)">
		<stop  offset="0" style="stop-color:#2F6BB3"/>
		<stop  offset="1" style="stop-color:#273E7C"/>
	</linearGradient>
	<polygon clip-path="url(#SVGID_92_)" fill="url(#SVGID_93_)" points="1016.415,1219.572 965.429,1299.27 901.041,1258.078 
		952.028,1178.381 	"/>
</g>
<g>
	<defs>
		<path id="SVGID_94_" d="M986.161,1262.977v-29.596c0-8.237,3.35-12.286,10.191-12.286c6.701,0,10.052,4.049,10.052,12.286v29.596
			c0,8.238-3.351,12.427-10.052,12.427C989.511,1275.403,986.161,1271.215,986.161,1262.977 M975.69,1234.357v27.644
			c0,14.52,7.259,22.756,20.662,22.756c13.263,0,20.662-8.236,20.662-22.756v-27.644c0-14.519-7.399-22.615-20.662-22.615
			C982.949,1211.742,975.69,1219.839,975.69,1234.357"/>
	</defs>
	<clipPath id="SVGID_95_">
		<use xlink:href="#SVGID_94_"  overflow="visible"/>
	</clipPath>
	
		<linearGradient id="SVGID_96_" gradientUnits="userSpaceOnUse" x1="-1718.5254" y1="784.751" x2="-1717.5367" y2="784.751" gradientTransform="matrix(-1058.5797 1654.6732 1654.6732 1058.5797 -3116110.75 2013197.75)">
		<stop  offset="0" style="stop-color:#2F6BB3"/>
		<stop  offset="1" style="stop-color:#273E7C"/>
	</linearGradient>
	<polygon clip-path="url(#SVGID_95_)" fill="url(#SVGID_96_)" points="1050.159,1232.947 1005.013,1303.517 942.544,1263.552 
		987.691,1192.982 	"/>
</g>
<g>
	<defs>
		<path id="SVGID_97_" d="M1031.111,1224.725l-0.14-11.587h-9.075v70.224h10.471v-40.905c0-13.543,4.606-20.244,13.681-20.244
			c1.676,0,3.072,0.279,4.328,0.698v-10.331c-1.115-0.56-2.652-0.837-4.606-0.837
			C1038.37,1211.742,1033.484,1216.069,1031.111,1224.725"/>
	</defs>
	<clipPath id="SVGID_98_">
		<use xlink:href="#SVGID_97_"  overflow="visible"/>
	</clipPath>
	
		<linearGradient id="SVGID_99_" gradientUnits="userSpaceOnUse" x1="-1718.5317" y1="784.7549" x2="-1717.5317" y2="784.7549" gradientTransform="matrix(-1058.5797 1654.6732 1654.6732 1058.5797 -3116088.75 2013209.75)">
		<stop  offset="0" style="stop-color:#2F6BB3"/>
		<stop  offset="1" style="stop-color:#273E7C"/>
	</linearGradient>
	<polygon clip-path="url(#SVGID_98_)" fill="url(#SVGID_99_)" points="1082.888,1232.542 1042.104,1296.29 989.384,1262.562 
		1030.167,1198.813 	"/>
</g>
<g>
	<defs>
		<path id="SVGID_100_" d="M1083.181,1213.138l-11.447,53.469l-12.704-53.469h-10.749l17.869,71.061l-1.256,5.585
			c-1.258,5.585-3.071,7.259-8.099,7.259c-2.232,0-4.048-0.418-5.584-1.116V1305c1.675,0.978,4.05,1.396,7.121,1.396
			c9.632,0,14.519-4.326,16.892-15.078l2.933-12.844l14.798-65.336H1083.181z"/>
	</defs>
	<clipPath id="SVGID_101_">
		<use xlink:href="#SVGID_100_"  overflow="visible"/>
	</clipPath>
	
		<linearGradient id="SVGID_102_" gradientUnits="userSpaceOnUse" x1="-1718.5317" y1="784.7568" x2="-1717.5317" y2="784.7568" gradientTransform="matrix(-1058.5797 1654.6732 1654.6732 1058.5797 -3116061.75 2013229.75)">
		<stop  offset="0" style="stop-color:#2F6BB3"/>
		<stop  offset="1" style="stop-color:#273E7C"/>
	</linearGradient>
	<polygon clip-path="url(#SVGID_101_)" fill="url(#SVGID_102_)" points="1135.289,1240.222 1079.979,1326.676 1005.945,1279.312 
		1061.255,1192.857 	"/>
</g>
<g>
	<defs>
		<rect id="SVGID_103_" x="-2994.378" y="-3407.65" width="1064.488" height="1064.488"/>
	</defs>
	<clipPath id="SVGID_104_">
		<use xlink:href="#SVGID_103_"  overflow="visible"/>
	</clipPath>
	
		<linearGradient id="SVGID_105_" gradientUnits="userSpaceOnUse" x1="-1722.791" y1="783.7139" x2="-1721.791" y2="783.7139" gradientTransform="matrix(645.1898 552.3568 552.3568 -645.1898 675827.75 1454064.25)">
		<stop  offset="0" style="stop-color:#009676"/>
		<stop  offset="1" style="stop-color:#0D5042"/>
		<stop  offset="1" style="stop-color:#FFF2E9"/>
	</linearGradient>
	<polygon clip-path="url(#SVGID_104_)" fill="url(#SVGID_105_)" points="-2544.159,-3933.536 -1404.004,-2957.432 
		-2380.108,-1817.276 -3520.264,-2793.381 	"/>
</g>
<g>
	<defs>
		<path id="SVGID_106_" d="M-2451.867-2990.25h-45.783h-187.742c-71.398,0-134.111,53.734-138.588,124.992
			c-4.87,77.52,56.812,142.149,133.298,142.149h147.428c6.496,0,11.761-5.266,11.761-11.76v-22.094c0-0.001-0.001-0.001-0.001-0.001
			h-159.188c-59.131,0-106.408-51.725-98.946-112.308c6.232-50.603,51.961-87.123,102.946-87.123l189.032,0.001h84.905
			c0.353,0,0.639,0.285,0.639,0.636v123.895v0.001h21.446c6.847,0,12.396-5.55,12.396-12.397v-111.498
			c0-0.351,0.286-0.636,0.637-0.636h50.427c0.351,0,0.636,0.285,0.636,0.636v123.895c0,0.001,0.001,0.001,0.001,0.001h21.447
			c6.846,0,12.396-5.55,12.396-12.397v-145.99H-2451.867z"/>
	</defs>
	<clipPath id="SVGID_107_">
		<use xlink:href="#SVGID_106_"  overflow="visible"/>
	</clipPath>
	
		<linearGradient id="SVGID_108_" gradientUnits="userSpaceOnUse" x1="-1722.0869" y1="783.6104" x2="-1721.0869" y2="783.6104" gradientTransform="matrix(731.339 711.024 711.024 -731.339 699505.625 1794481.25)">
		<stop  offset="0" style="stop-color:#FFFFFF"/>
		<stop  offset="8.073430e-008" style="stop-color:#FFFFFF"/>
		<stop  offset="1" style="stop-color:#898B8D"/>
	</linearGradient>
	<polygon clip-path="url(#SVGID_107_)" fill="url(#SVGID_108_)" points="-2568.336,-3258.209 -2159.204,-2860.442 
		-2553.236,-2455.151 -2962.368,-2852.918 	"/>
</g>
<g>
	<defs>
		<path id="SVGID_109_" d="M-2497.65-2923.152v90.609v42.336v55.339c0,6.494,5.266,11.759,11.761,11.759h250.674
			c66.836,0,122.203-49.402,131.904-113.577h-34.198c-9.285,45.436-49.564,79.722-97.706,79.722h-228.59v-33.243v-42.336v-78.849
			c0-6.495-5.265-11.76-11.76-11.76H-2497.65z"/>
	</defs>
	<clipPath id="SVGID_110_">
		<use xlink:href="#SVGID_109_"  overflow="visible"/>
	</clipPath>
	
		<linearGradient id="SVGID_111_" gradientUnits="userSpaceOnUse" x1="-1722.0869" y1="783.666" x2="-1721.0869" y2="783.666" gradientTransform="matrix(731.339 711.024 711.024 -731.339 699575.625 1794409.75)">
		<stop  offset="0" style="stop-color:#FFFFFF"/>
		<stop  offset="8.073430e-008" style="stop-color:#FFFFFF"/>
		<stop  offset="1" style="stop-color:#898B8D"/>
	</linearGradient>
	<polygon clip-path="url(#SVGID_110_)" fill="url(#SVGID_111_)" points="-2306.034,-3120.243 -2003.33,-2825.948 
		-2294.928,-2526.019 -2597.632,-2820.314 	"/>
</g>
<g>
	<defs>
		<path id="SVGID_112_" d="M-2247.119-2990.25c-6.494,0-11.759,5.266-11.759,11.76v22.096h23.662
			c50.274,0,91.864,37.424,98.646,85.853h34.197c-6.957-67.159-63.875-119.709-132.843-119.709H-2247.119z"/>
	</defs>
	<clipPath id="SVGID_113_">
		<use xlink:href="#SVGID_112_"  overflow="visible"/>
	</clipPath>
	
		<linearGradient id="SVGID_114_" gradientUnits="userSpaceOnUse" x1="-1722.0869" y1="783.6357" x2="-1721.0869" y2="783.6357" gradientTransform="matrix(731.339 711.024 711.024 -731.339 699709.625 1794272)">
		<stop  offset="0" style="stop-color:#FFFFFF"/>
		<stop  offset="8.073430e-008" style="stop-color:#FFFFFF"/>
		<stop  offset="1" style="stop-color:#898B8D"/>
	</linearGradient>
	<polygon clip-path="url(#SVGID_113_)" fill="url(#SVGID_114_)" points="-2182.829,-3068.472 -2042.542,-2932.082 
		-2178.422,-2792.32 -2318.709,-2928.71 	"/>
</g>
<g>
	<defs>
		<path id="SVGID_115_" d="M-2179.959-3045.348h5.635c2.913,0,5.004,0.71,6.27,2.128c1.265,1.42,1.896,3.968,1.896,7.647v7.016
			c0,2.914-0.537,4.964-1.608,6.152c-1.075,1.19-2.724,1.783-4.945,1.783h-7.247V-3045.348z M-2179.959-3078.123h6.098
			c2.223,0,3.851,0.652,4.888,1.956c1.034,1.304,1.551,3.412,1.551,6.324v4.486c0,3.067-0.632,5.252-1.897,6.554
			c-1.266,1.305-3.162,1.956-5.693,1.956h-4.945V-3078.123z M-2192.607-3089.621v80.499h19.896c6.285,0,11.058-1.627,14.316-4.887
			c3.259-3.258,4.887-7.993,4.887-14.202v-6.901c0-9.045-3.144-14.642-9.428-16.789v-0.23c2.759-1.151,4.811-3.028,6.151-5.636
			c1.34-2.605,2.014-5.979,2.014-10.119v-3.22c0-6.286-1.496-10.944-4.486-13.973c-2.989-3.027-7.744-4.542-14.26-4.542H-2192.607z"
			/>
	</defs>
	<clipPath id="SVGID_116_">
		<use xlink:href="#SVGID_115_"  overflow="visible"/>
	</clipPath>
	
		<linearGradient id="SVGID_117_" gradientUnits="userSpaceOnUse" x1="-1728.6489" y1="782.5303" x2="-1727.6489" y2="782.5303" gradientTransform="matrix(258.3246 221.6828 221.6828 -258.3246 270848.75 582260.5)">
		<stop  offset="0" style="stop-color:#FFFFFF"/>
		<stop  offset="8.073430e-008" style="stop-color:#FFFFFF"/>
		<stop  offset="1" style="stop-color:#898B8D"/>
	</linearGradient>
	<polygon clip-path="url(#SVGID_116_)" fill="url(#SVGID_117_)" points="-2176.025,-3108.944 -2113.726,-3055.481 
		-2170.091,-2989.799 -2232.391,-3043.263 	"/>
</g>
<g>
	<defs>
		<polygon id="SVGID_118_" points="-2146.147,-3089.621 -2146.147,-3009.123 -2111.647,-3009.123 -2111.647,-3020.621 
			-2133.5,-3020.621 -2133.5,-3045.348 -2116.134,-3045.348 -2116.134,-3056.847 -2133.5,-3056.847 -2133.5,-3078.123 
			-2111.647,-3078.123 -2111.647,-3089.621 		"/>
	</defs>
	<clipPath id="SVGID_119_">
		<use xlink:href="#SVGID_118_"  overflow="visible"/>
	</clipPath>
	
		<linearGradient id="SVGID_120_" gradientUnits="userSpaceOnUse" x1="-1728.6489" y1="782.5195" x2="-1727.6489" y2="782.5195" gradientTransform="matrix(258.3246 221.6828 221.6828 -258.3246 270870 582235.9375)">
		<stop  offset="0" style="stop-color:#FFFFFF"/>
		<stop  offset="8.073430e-008" style="stop-color:#FFFFFF"/>
		<stop  offset="1" style="stop-color:#898B8D"/>
	</linearGradient>
	<polygon clip-path="url(#SVGID_119_)" fill="url(#SVGID_120_)" points="-2131.517,-3106.671 -2071.865,-3055.481 
		-2126.279,-2992.072 -2185.931,-3043.263 	"/>
</g>
<g>
	<defs>
		<polygon id="SVGID_121_" points="-2107.738,-3089.621 -2107.738,-3078.123 -2094.515,-3078.123 -2094.515,-3009.123 
			-2081.863,-3009.123 -2081.863,-3078.123 -2068.64,-3078.123 -2068.64,-3089.621 		"/>
	</defs>
	<clipPath id="SVGID_122_">
		<use xlink:href="#SVGID_121_"  overflow="visible"/>
	</clipPath>
	
		<linearGradient id="SVGID_123_" gradientUnits="userSpaceOnUse" x1="-1728.6489" y1="782.5078" x2="-1727.6489" y2="782.5078" gradientTransform="matrix(258.3246 221.6828 221.6828 -258.3246 270890 582212.5625)">
		<stop  offset="0" style="stop-color:#FFFFFF"/>
		<stop  offset="8.073430e-008" style="stop-color:#FFFFFF"/>
		<stop  offset="1" style="stop-color:#898B8D"/>
	</linearGradient>
	<polygon clip-path="url(#SVGID_122_)" fill="url(#SVGID_123_)" points="-2091.156,-3108.944 -2028.857,-3055.481 
		-2085.223,-2989.8 -2147.521,-3043.263 	"/>
</g>
<g>
	<defs>
		<path id="SVGID_124_" d="M-2050.123-3075.592h0.229l5.635,39.79h-11.384L-2050.123-3075.592z M-2058.057-3089.621l-13.112,80.499
			h11.731l2.3-15.754h14.375v-0.23l2.3,15.984h12.649l-13.108-80.499H-2058.057z"/>
	</defs>
	<clipPath id="SVGID_125_">
		<use xlink:href="#SVGID_124_"  overflow="visible"/>
	</clipPath>
	
		<linearGradient id="SVGID_126_" gradientUnits="userSpaceOnUse" x1="-1728.6489" y1="782.5322" x2="-1727.6489" y2="782.5322" gradientTransform="matrix(258.3246 221.6828 221.6828 -258.3246 270900.75 582199.9375)">
		<stop  offset="0" style="stop-color:#FFFFFF"/>
		<stop  offset="8.073430e-008" style="stop-color:#FFFFFF"/>
		<stop  offset="1" style="stop-color:#898B8D"/>
	</linearGradient>
	<polygon clip-path="url(#SVGID_125_)" fill="url(#SVGID_126_)" points="-2052.782,-3111.047 -1988.031,-3055.481 
		-2046.201,-2987.696 -2110.952,-3043.263 	"/>
</g>
<g>
	<defs>
		<rect id="SVGID_127_" x="-1547.16" y="-2574.663" width="3094.319" height="2664.382"/>
	</defs>
	<clipPath id="SVGID_128_">
		<use xlink:href="#SVGID_127_"  overflow="visible"/>
	</clipPath>
	
		<linearGradient id="SVGID_129_" gradientUnits="userSpaceOnUse" x1="-1718.5942" y1="785.6182" x2="-1717.5942" y2="785.6182" gradientTransform="matrix(622.112 0 0 -622.112 1068002 486611.9688)">
		<stop  offset="0" style="stop-color:#009676"/>
		<stop  offset="1" style="stop-color:#0D5042"/>
		<stop  offset="1" style="stop-color:#FFF2E9"/>
	</linearGradient>
	<path clip-path="url(#SVGID_128_)" fill="url(#SVGID_129_)" d="M-607.812-2057.417L-607.812-2057.417h-475.382
		c-40.242,0-72.865-32.623-72.865-72.865c0-40.243,32.623-72.866,72.865-72.866h475.382c40.242,0,72.865,32.624,72.865,72.866
		C-534.946-2090.04-567.569-2057.417-607.812-2057.417L-607.812-2057.417L-607.812-2057.417c40.242,0,72.865-32.623,72.865-72.865
		c0-40.243-32.623-72.866-72.865-72.866h-475.382c-40.242,0-72.865,32.624-72.865,72.866c0,40.243,32.623,72.865,72.865,72.865
		H-607.812L-607.812-2057.417z"/>
</g>
<g>
	<defs>
		<path id="SVGID_130_" d="M-1201.402-2307.139h6.637c6.826,0,9.385,2.749,9.385,9.955v5.688c0,6.352-2.465,8.912-7.869,8.912
			h-8.153V-2307.139z M-1201.402-2335.484h7.206c5.592,0,7.774,2.656,7.774,9.101v3.413c0,6.447-2.75,9.102-8.723,9.102h-6.257
			V-2335.484z M-1208.796-2342.215v66.362h15.547c10.144,0,15.264-5.119,15.264-15.453v-5.689c0-7.678-2.844-12.324-8.437-13.936
			v-0.189c4.929-1.802,7.393-6.163,7.393-13.273v-2.748c0-10.334-4.454-15.074-14.978-15.074H-1208.796z"/>
	</defs>
	<clipPath id="SVGID_131_">
		<use xlink:href="#SVGID_130_"  overflow="visible"/>
	</clipPath>
	
		<linearGradient id="SVGID_132_" gradientUnits="userSpaceOnUse" x1="-1720.6479" y1="786.9873" x2="-1719.6501" y2="786.9873" gradientTransform="matrix(232.7833 166.9967 166.9967 -232.7833 267882.5313 468204.0625)">
		<stop  offset="0" style="stop-color:#009776"/>
		<stop  offset="1" style="stop-color:#0C5041"/>
		<stop  offset="1" style="stop-color:#FFF3E9"/>
	</linearGradient>
	<polygon clip-path="url(#SVGID_131_)" fill="url(#SVGID_132_)" points="-1198.327,-2356.808 -1146.554,-2319.666 
		-1188.454,-2261.259 -1240.228,-2298.401 	"/>
</g>
<g>
	<defs>
		<polygon id="SVGID_133_" points="-1170.688,-2342.215 -1170.688,-2275.853 -1143.48,-2275.853 -1143.48,-2282.584 
			-1163.294,-2282.584 -1163.294,-2307.139 -1147.178,-2307.139 -1147.178,-2313.869 -1163.294,-2313.869 -1163.294,-2335.484 
			-1143.48,-2335.484 -1143.48,-2342.215 		"/>
	</defs>
	<clipPath id="SVGID_134_">
		<use xlink:href="#SVGID_133_"  overflow="visible"/>
	</clipPath>
	
		<linearGradient id="SVGID_135_" gradientUnits="userSpaceOnUse" x1="-1720.6479" y1="786.9775" x2="-1719.6479" y2="786.9775" gradientTransform="matrix(232.7833 166.9967 166.9967 -232.7833 267896.5313 468184.5625)">
		<stop  offset="0" style="stop-color:#009776"/>
		<stop  offset="1" style="stop-color:#0C5041"/>
		<stop  offset="1" style="stop-color:#FFF3E9"/>
	</linearGradient>
	<polygon clip-path="url(#SVGID_134_)" fill="url(#SVGID_135_)" points="-1161.443,-2355.101 -1112.049,-2319.666 
		-1152.725,-2262.966 -1202.12,-2298.401 	"/>
</g>
<g>
	<defs>
		<polygon id="SVGID_136_" points="-1139.88,-2342.215 -1139.88,-2335.484 -1128.125,-2335.484 -1128.125,-2275.853 
			-1120.73,-2275.853 -1120.73,-2335.484 -1108.974,-2335.484 -1108.974,-2342.215 		"/>
	</defs>
	<clipPath id="SVGID_137_">
		<use xlink:href="#SVGID_136_"  overflow="visible"/>
	</clipPath>
	
		<linearGradient id="SVGID_138_" gradientUnits="userSpaceOnUse" x1="-1720.6479" y1="786.9658" x2="-1719.6479" y2="786.9658" gradientTransform="matrix(232.7833 166.9967 166.9967 -232.7833 267909.5313 468166.3125)">
		<stop  offset="0" style="stop-color:#009776"/>
		<stop  offset="1" style="stop-color:#0C5041"/>
		<stop  offset="1" style="stop-color:#FFF3E9"/>
	</linearGradient>
	<polygon clip-path="url(#SVGID_137_)" fill="url(#SVGID_138_)" points="-1129.379,-2356.853 -1077.543,-2319.666 
		-1119.476,-2261.214 -1171.312,-2298.401 	"/>
</g>
<g>
	<defs>
		<path id="SVGID_139_" d="M-1093.996-2333.777l6.636,37.353h-13.082L-1093.996-2333.777z M-1098.641-2342.215l-12.325,66.362h6.921
			l2.465-14.126h15.359l2.464,14.126h7.49l-12.419-66.362H-1098.641z"/>
	</defs>
	<clipPath id="SVGID_140_">
		<use xlink:href="#SVGID_139_"  overflow="visible"/>
	</clipPath>
	
		<linearGradient id="SVGID_141_" gradientUnits="userSpaceOnUse" x1="-1720.6479" y1="786.9912" x2="-1719.6479" y2="786.9912" gradientTransform="matrix(232.7833 166.9967 166.9967 -232.7833 267916.0313 468157.4375)">
		<stop  offset="0" style="stop-color:#009776"/>
		<stop  offset="1" style="stop-color:#0C5041"/>
		<stop  offset="1" style="stop-color:#FFF3E9"/>
	</linearGradient>
	<polygon clip-path="url(#SVGID_140_)" fill="url(#SVGID_141_)" points="-1099.176,-2358.649 -1044.836,-2319.666 
		-1088.057,-2259.418 -1142.397,-2298.401 	"/>
</g>
<g>
	<defs>
		<polygon id="SVGID_142_" points="-1030.861,-2342.215 -1040.436,-2285.901 -1050.011,-2342.215 -1057.5,-2342.215 
			-1045.65,-2275.853 -1035.79,-2275.853 -1024.035,-2342.215 		"/>
	</defs>
	<clipPath id="SVGID_143_">
		<use xlink:href="#SVGID_142_"  overflow="visible"/>
	</clipPath>
	
		<linearGradient id="SVGID_144_" gradientUnits="userSpaceOnUse" x1="-1720.6484" y1="786.9668" x2="-1719.6484" y2="786.9668" gradientTransform="matrix(232.7833 166.9967 166.9967 -232.7833 267938.0313 468126.6875)">
		<stop  offset="0" style="stop-color:#009776"/>
		<stop  offset="1" style="stop-color:#0C5041"/>
		<stop  offset="1" style="stop-color:#FFF3E9"/>
	</linearGradient>
	<polygon clip-path="url(#SVGID_143_)" fill="url(#SVGID_144_)" points="-1046.129,-2358.064 -992.604,-2319.666 
		-1035.406,-2260.002 -1088.932,-2298.401 	"/>
</g>
<g>
	<defs>
		<polygon id="SVGID_145_" points="-1017.875,-2342.215 -1017.875,-2275.853 -990.668,-2275.853 -990.668,-2282.584 
			-1010.481,-2282.584 -1010.481,-2307.139 -994.365,-2307.139 -994.365,-2313.869 -1010.481,-2313.869 -1010.481,-2335.484 
			-990.668,-2335.484 -990.668,-2342.215 		"/>
	</defs>
	<clipPath id="SVGID_146_">
		<use xlink:href="#SVGID_145_"  overflow="visible"/>
	</clipPath>
	
		<linearGradient id="SVGID_147_" gradientUnits="userSpaceOnUse" x1="-1720.6465" y1="786.9785" x2="-1719.6488" y2="786.9785" gradientTransform="matrix(232.7833 166.9967 166.9967 -232.7833 267948.5313 468112.1875)">
		<stop  offset="0" style="stop-color:#009776"/>
		<stop  offset="1" style="stop-color:#0C5041"/>
		<stop  offset="1" style="stop-color:#FFF3E9"/>
	</linearGradient>
	<polygon clip-path="url(#SVGID_146_)" fill="url(#SVGID_147_)" points="-1008.631,-2355.101 -959.237,-2319.666 
		-999.913,-2262.966 -1049.307,-2298.401 	"/>
</g>
<g>
	<defs>
		<path id="SVGID_148_" d="M-976.735-2335.484h6.92c5.595,0,7.775,2.656,7.775,9.101v4.741c0,6.446-2.749,9.101-8.721,9.101h-5.974
			V-2335.484z M-984.129-2342.215v66.362h7.394v-29.958h5.974c6.351,0,8.816,2.559,8.816,9.669v12.23
			c0,3.509,0.285,6.163,0.853,8.059h7.489c-0.663-1.802-0.948-4.456-0.948-8.059v-11.85c0-7.869-2.559-12.514-7.773-13.841v-0.096
			c5.119-1.61,7.679-6.067,7.679-13.366v-4.076c0-10.334-4.456-15.074-14.98-15.074H-984.129z"/>
	</defs>
	<clipPath id="SVGID_149_">
		<use xlink:href="#SVGID_148_"  overflow="visible"/>
	</clipPath>
	
		<linearGradient id="SVGID_150_" gradientUnits="userSpaceOnUse" x1="-1720.6465" y1="786.9873" x2="-1719.6487" y2="786.9873" gradientTransform="matrix(232.7833 166.9967 166.9967 -232.7833 267958.7813 468097.6875)">
		<stop  offset="0" style="stop-color:#009776"/>
		<stop  offset="1" style="stop-color:#0C5041"/>
		<stop  offset="1" style="stop-color:#FFF3E9"/>
	</linearGradient>
	<polygon clip-path="url(#SVGID_149_)" fill="url(#SVGID_150_)" points="-973.757,-2356.673 -922.172,-2319.666 -963.976,-2261.395 
		-1015.561,-2298.401 	"/>
</g>
<g>
	<defs>
		<path id="SVGID_151_" d="M-948.012-2327.331c0,3.791,0.853,7.205,2.654,10.238c1.801,3.034,5.025,6.447,9.575,10.144
			c3.887,3.224,6.541,5.973,7.964,8.343c1.516,2.37,2.275,5.024,2.275,8.059c0,5.971-2.56,8.91-7.774,8.91
			c-5.12,0-7.679-2.939-7.679-8.816v-4.266h-7.015v3.696c0,10.334,5.214,16.118,14.789,16.118c9.575,0,15.074-5.878,15.074-16.212
			c0-4.076-0.853-7.585-2.654-10.618c-1.708-3.128-4.836-6.541-9.386-10.333c-3.982-3.224-6.731-5.973-8.249-8.248
			c-1.515-2.276-2.274-4.74-2.274-7.49c0-5.782,2.56-8.627,7.584-8.627c5.024,0,7.584,2.94,7.584,8.817v3.129h7.015v-2.654
			c0-10.24-5.119-16.022-14.599-16.022S-948.012-2337.286-948.012-2327.331"/>
	</defs>
	<clipPath id="SVGID_152_">
		<use xlink:href="#SVGID_151_"  overflow="visible"/>
	</clipPath>
	
		<linearGradient id="SVGID_153_" gradientUnits="userSpaceOnUse" x1="-1720.6484" y1="786.9785" x2="-1719.6484" y2="786.9785" gradientTransform="matrix(232.7833 166.9967 166.9967 -232.7833 267972.5313 468078.5625)">
		<stop  offset="0" style="stop-color:#009776"/>
		<stop  offset="1" style="stop-color:#0C5041"/>
		<stop  offset="1" style="stop-color:#FFF3E9"/>
	</linearGradient>
	<polygon clip-path="url(#SVGID_152_)" fill="url(#SVGID_153_)" points="-937.865,-2357.307 -885.82,-2319.97 -928.296,-2260.76 
		-980.341,-2298.098 	"/>
</g>
<g>
	<defs>
		<rect id="SVGID_154_" x="-911.136" y="-2342.215" width="7.395" height="66.362"/>
	</defs>
	<clipPath id="SVGID_155_">
		<use xlink:href="#SVGID_154_"  overflow="visible"/>
	</clipPath>
	
		<linearGradient id="SVGID_156_" gradientUnits="userSpaceOnUse" x1="-1720.6479" y1="786.9775" x2="-1719.6479" y2="786.9775" gradientTransform="matrix(232.7833 166.9967 166.9967 -232.7833 267981.2813 468066.3125)">
		<stop  offset="0" style="stop-color:#009776"/>
		<stop  offset="1" style="stop-color:#0C5041"/>
		<stop  offset="1" style="stop-color:#FFF3E9"/>
	</linearGradient>
	<polygon clip-path="url(#SVGID_155_)" fill="url(#SVGID_156_)" points="-908.624,-2345.717 -872.31,-2319.666 -906.254,-2272.35 
		-942.567,-2298.401 	"/>
</g>
<g>
	<defs>
		<path id="SVGID_157_" d="M-888.101-2290.833v-36.498c0-6.068,2.56-9.102,7.774-9.102s7.868,3.034,7.868,9.102v36.498
			c0,6.162-2.654,9.196-7.868,9.196S-888.101-2284.671-888.101-2290.833 M-895.496-2326.857v35.552
			c0,10.523,5.404,16.401,15.169,16.401c9.859,0,15.263-5.878,15.263-16.401v-35.552c0-10.523-5.404-16.305-15.263-16.305
			C-890.092-2343.163-895.496-2337.381-895.496-2326.857"/>
	</defs>
	<clipPath id="SVGID_158_">
		<use xlink:href="#SVGID_157_"  overflow="visible"/>
	</clipPath>
	
		<linearGradient id="SVGID_159_" gradientUnits="userSpaceOnUse" x1="-1720.6504" y1="786.9775" x2="-1719.6482" y2="786.9775" gradientTransform="matrix(232.7833 166.9967 166.9967 -232.7833 267990.5313 468053.4375)">
		<stop  offset="0" style="stop-color:#009776"/>
		<stop  offset="1" style="stop-color:#0C5041"/>
		<stop  offset="1" style="stop-color:#FFF3E9"/>
	</linearGradient>
	<polygon clip-path="url(#SVGID_158_)" fill="url(#SVGID_159_)" points="-885.156,-2357.576 -832.735,-2319.97 -875.404,-2260.491 
		-927.826,-2298.097 	"/>
</g>
<g>
	<defs>
		<polygon id="SVGID_160_" points="-832.36,-2342.215 -832.36,-2294.813 -847.338,-2342.215 -856.819,-2342.215 -856.819,-2275.853 
			-850.087,-2275.853 -850.087,-2329.797 -833.308,-2275.853 -825.628,-2275.853 -825.628,-2342.215 		"/>
	</defs>
	<clipPath id="SVGID_161_">
		<use xlink:href="#SVGID_160_"  overflow="visible"/>
	</clipPath>
	
		<linearGradient id="SVGID_162_" gradientUnits="userSpaceOnUse" x1="-1720.6509" y1="786.9775" x2="-1719.6487" y2="786.9775" gradientTransform="matrix(232.7833 166.9967 166.9967 -232.7833 268003.7813 468034.9375)">
		<stop  offset="0" style="stop-color:#009776"/>
		<stop  offset="1" style="stop-color:#0C5041"/>
		<stop  offset="1" style="stop-color:#FFF3E9"/>
	</linearGradient>
	<polygon clip-path="url(#SVGID_161_)" fill="url(#SVGID_162_)" points="-846.221,-2356.987 -794.197,-2319.666 -836.227,-2261.079 
		-888.25,-2298.401 	"/>
</g>
<g>
	<defs>
		<rect id="SVGID_163_" x="-838.692" y="-2765.725" width="3094.319" height="2664.382"/>
	</defs>
	<clipPath id="SVGID_164_">
		<use xlink:href="#SVGID_163_"  overflow="visible"/>
	</clipPath>
	
		<linearGradient id="SVGID_165_" gradientUnits="userSpaceOnUse" x1="-1717.4551" y1="785.9248" x2="-1716.4556" y2="785.9248" gradientTransform="matrix(622.112 0 0 -622.112 1068001.25 486814.4688)">
		<stop  offset="0" style="stop-color:#146BCA"/>
		<stop  offset="1" style="stop-color:#273E7C"/>
	</linearGradient>
	<path clip-path="url(#SVGID_164_)" fill="url(#SVGID_165_)" d="M99.779-2046.098L99.779-2046.098h-475.382
		c-40.242,0-72.865-32.623-72.865-72.865c0-40.243,32.623-72.866,72.865-72.866H99.779c40.242,0,72.865,32.623,72.865,72.866
		C172.645-2078.72,140.021-2046.098,99.779-2046.098L99.779-2046.098L99.779-2046.098c40.242,0,72.865-32.623,72.865-72.865
		c0-40.243-32.623-72.866-72.865-72.866h-475.382c-40.242,0-72.865,32.623-72.865,72.866c0,40.242,32.623,72.865,72.865,72.865
		H99.779L99.779-2046.098z"/>
</g>
<g>
	<defs>
		<path id="SVGID_166_" d="M-569.948-2297.406c0-6.658,3.435-11.095,9.019-11.095h7.228v10.379c0,6.083-3.149,10.95-8.374,10.95
			C-566.87-2287.172-569.948-2291.896-569.948-2297.406 M-563.077-2314.727c-9.162,0-14.816,6.656-14.816,17.392
			c0,9.949,5.654,16.82,14.816,16.82c3.579,0,6.656-1.789,9.161-5.369c1.646,6.37,6.729,10.594,12.955,10.594h8.661v-8.16h-5.082
			c-5.367,0-8.016-3.006-8.016-8.589v-22.688H-563.077z M-567.443-2320.525h7.873v-8.017h-7.873V-2320.525z M-553.917-2320.525
			h7.874v-8.017h-7.874V-2320.525z"/>
	</defs>
	<clipPath id="SVGID_167_">
		<use xlink:href="#SVGID_166_"  overflow="visible"/>
	</clipPath>
	
		<linearGradient id="SVGID_168_" gradientUnits="userSpaceOnUse" x1="-1718.3721" y1="787.1729" x2="-1717.3721" y2="787.1729" gradientTransform="matrix(431.9991 184.1857 184.1857 -431.9991 596765.625 654243.6875)">
		<stop  offset="0" style="stop-color:#146BCA"/>
		<stop  offset="1" style="stop-color:#273E7C"/>
	</linearGradient>
	<polygon clip-path="url(#SVGID_167_)" fill="url(#SVGID_168_)" points="-570.88,-2344.991 -513.088,-2320.351 -539.313,-2258.841 
		-597.105,-2283.481 	"/>
</g>
<g>
	<defs>
		<path id="SVGID_169_" d="M-534.875-2259.615H-527v-8.016h-7.874V-2259.615z M-521.347-2259.615h7.873v-8.016h-7.873V-2259.615z
			 M-521.132-2307.785v16.463c0,2.504-0.286,4.365-0.858,5.438c-0.86,1.647-2.506,2.434-4.868,2.434h-7.658v8.16h32.996v-8.16
			h-13.456c1.216-1.359,1.79-4.079,1.79-8.303v-16.032H-521.132z"/>
	</defs>
	<clipPath id="SVGID_170_">
		<use xlink:href="#SVGID_169_"  overflow="visible"/>
	</clipPath>
	
		<linearGradient id="SVGID_171_" gradientUnits="userSpaceOnUse" x1="-1718.3726" y1="787.1826" x2="-1717.3726" y2="787.1826" gradientTransform="matrix(431.9991 184.1857 184.1857 -431.9991 596763.125 654249.6875)">
		<stop  offset="0" style="stop-color:#146BCA"/>
		<stop  offset="1" style="stop-color:#273E7C"/>
	</linearGradient>
	<polygon clip-path="url(#SVGID_170_)" fill="url(#SVGID_171_)" points="-529.744,-2319.818 -484.142,-2300.375 -506.651,-2247.582 
		-552.253,-2267.024 	"/>
</g>
<g>
	<defs>
		<path id="SVGID_172_" d="M-490.353-2259.543h7.873v-8.017h-7.873V-2259.543z M-490.353-2307.785v16.463
			c0,2.504-0.288,4.365-0.86,5.438c-0.859,1.647-2.433,2.434-4.795,2.434h-7.444v8.16h33.067v-8.16h-13.742
			c1.145-1.359,1.718-4.079,1.718-8.303v-16.032H-490.353z"/>
	</defs>
	<clipPath id="SVGID_173_">
		<use xlink:href="#SVGID_172_"  overflow="visible"/>
	</clipPath>
	
		<linearGradient id="SVGID_174_" gradientUnits="userSpaceOnUse" x1="-1718.3726" y1="787.1768" x2="-1717.3726" y2="787.1768" gradientTransform="matrix(431.9991 184.1857 184.1857 -431.9991 596769.125 654236.1875)">
		<stop  offset="0" style="stop-color:#146BCA"/>
		<stop  offset="1" style="stop-color:#273E7C"/>
	</linearGradient>
	<polygon clip-path="url(#SVGID_173_)" fill="url(#SVGID_174_)" points="-498.365,-2319.715 -452.98,-2300.365 -475.471,-2247.613 
		-520.856,-2266.964 	"/>
</g>
<g>
	<defs>
		<path id="SVGID_175_" d="M-473.316-2259.615h7.873v-8.016h-7.873V-2259.615z M-459.788-2259.615h7.873v-8.016h-7.873V-2259.615z
			 M-459.717-2307.785v16.82c0,2.577-0.215,4.295-0.573,5.154c-0.786,1.574-2.433,2.361-5.081,2.361h-6.729v8.16h8.447
			c7.944,0,11.952-4.295,11.952-12.955v-19.54H-459.717z"/>
	</defs>
	<clipPath id="SVGID_176_">
		<use xlink:href="#SVGID_175_"  overflow="visible"/>
	</clipPath>
	
		<linearGradient id="SVGID_177_" gradientUnits="userSpaceOnUse" x1="-1718.3706" y1="787.1787" x2="-1717.3765" y2="787.1787" gradientTransform="matrix(431.9991 184.1857 184.1857 -431.9991 596772.625 654227.6875)">
		<stop  offset="0" style="stop-color:#146BCA"/>
		<stop  offset="1" style="stop-color:#273E7C"/>
	</linearGradient>
	<polygon clip-path="url(#SVGID_176_)" fill="url(#SVGID_177_)" points="-469.992,-2315.583 -434.323,-2300.375 -455.026,-2251.817 
		-490.695,-2267.024 	"/>
</g>
<g>
	<defs>
		<path id="SVGID_178_" d="M-436.454-2307.785v27.341c0,6.871-3.292,10.164-9.949,10.164v6.871c9.735,0,16.248-4.223,17.464-11.881
			h12.812v-8.16h-12.311v-24.335H-436.454z"/>
	</defs>
	<clipPath id="SVGID_179_">
		<use xlink:href="#SVGID_178_"  overflow="visible"/>
	</clipPath>
	
		<linearGradient id="SVGID_180_" gradientUnits="userSpaceOnUse" x1="-1718.3706" y1="787.1826" x2="-1717.3756" y2="787.1826" gradientTransform="matrix(431.9991 184.1857 184.1857 -431.9991 596777.125 654216.9375)">
		<stop  offset="0" style="stop-color:#146BCA"/>
		<stop  offset="1" style="stop-color:#273E7C"/>
	</linearGradient>
	<polygon clip-path="url(#SVGID_179_)" fill="url(#SVGID_180_)" points="-441.746,-2318.708 -400.118,-2300.959 -420.784,-2252.486 
		-462.413,-2270.235 	"/>
</g>
<g>
	<defs>
		<path id="SVGID_181_" d="M-396.8-2259.615h7.874v-8.016h-7.874V-2259.615z M-402.168-2305.781
			c-2.935,1.289-5.439,3.006-7.659,5.082c1.79,2.72,3.078,4.796,3.866,6.299c1.718-1.933,3.864-3.436,6.441-4.509
			c2.219-0.931,4.223-1.36,6.013-1.36c5.224,0,9.376,1.789,12.31,5.439c2.506,3.149,3.723,6.943,3.723,11.38h-41.371v8.16h57.474
			v-8.16h-7.587c-0.643-9.948-4.223-16.891-10.736-20.899c-3.721-2.291-8.087-3.436-13.026-3.436
			C-395.869-2307.785-399.02-2307.14-402.168-2305.781"/>
	</defs>
	<clipPath id="SVGID_182_">
		<use xlink:href="#SVGID_181_"  overflow="visible"/>
	</clipPath>
	
		<linearGradient id="SVGID_183_" gradientUnits="userSpaceOnUse" x1="-1718.3726" y1="787.1787" x2="-1717.3726" y2="787.1787" gradientTransform="matrix(431.9991 184.1857 184.1857 -431.9991 596783.625 654202.1875)">
		<stop  offset="0" style="stop-color:#146BCA"/>
		<stop  offset="1" style="stop-color:#273E7C"/>
	</linearGradient>
	<polygon clip-path="url(#SVGID_182_)" fill="url(#SVGID_183_)" points="-410.005,-2328.52 -343.993,-2300.375 -370.212,-2238.88 
		-436.224,-2267.024 	"/>
</g>
<g>
	<defs>
		<path id="SVGID_184_" d="M-350.344-2307.785v16.463c0,2.504-0.287,4.365-0.859,5.438c-0.859,1.647-2.434,2.434-4.796,2.434h-7.443
			v8.16h33.066v-8.16h-13.742c1.145-1.359,1.718-4.079,1.718-8.303v-16.032H-350.344z M-363.872-2314.442H-356v-7.945h-7.873
			V-2314.442z M-350.273-2314.442h7.873v-7.945h-7.873V-2314.442z"/>
	</defs>
	<clipPath id="SVGID_185_">
		<use xlink:href="#SVGID_184_"  overflow="visible"/>
	</clipPath>
	
		<linearGradient id="SVGID_186_" gradientUnits="userSpaceOnUse" x1="-1718.3745" y1="787.1826" x2="-1717.3699" y2="787.1826" gradientTransform="matrix(431.9991 184.1857 184.1857 -431.9991 596795.125 654175.1875)">
		<stop  offset="0" style="stop-color:#146BCA"/>
		<stop  offset="1" style="stop-color:#273E7C"/>
	</linearGradient>
	<polygon clip-path="url(#SVGID_185_)" fill="url(#SVGID_186_)" points="-358.72,-2334.472 -313.385,-2315.143 -335.529,-2263.206 
		-380.864,-2282.535 	"/>
</g>
<g>
	<defs>
		<path id="SVGID_187_" d="M-320.281-2321.455v30.49c0,2.577-0.215,4.295-0.573,5.154c-0.787,1.574-2.433,2.361-5.081,2.361h-6.8
			v8.16h8.445c8.017,0,12.025-4.295,12.025-12.955v-33.21H-320.281z"/>
	</defs>
	<clipPath id="SVGID_188_">
		<use xlink:href="#SVGID_187_"  overflow="visible"/>
	</clipPath>
	
		<linearGradient id="SVGID_189_" gradientUnits="userSpaceOnUse" x1="-1718.3721" y1="787.1768" x2="-1717.3721" y2="787.1768" gradientTransform="matrix(431.9991 184.1857 184.1857 -431.9991 596799.625 654164.6875)">
		<stop  offset="0" style="stop-color:#146BCA"/>
		<stop  offset="1" style="stop-color:#273E7C"/>
	</linearGradient>
	<polygon clip-path="url(#SVGID_188_)" fill="url(#SVGID_189_)" points="-329.587,-2328.84 -295.61,-2314.354 -315.414,-2267.905 
		-349.391,-2282.391 	"/>
</g>
<g>
	<defs>
		<rect id="SVGID_190_" x="-304.891" y="-2321.528" width="7.945" height="46.238"/>
	</defs>
	<clipPath id="SVGID_191_">
		<use xlink:href="#SVGID_190_"  overflow="visible"/>
	</clipPath>
	
		<linearGradient id="SVGID_192_" gradientUnits="userSpaceOnUse" x1="-1718.3726" y1="787.1777" x2="-1717.3726" y2="787.1777" gradientTransform="matrix(431.9991 184.1857 184.1857 -431.9991 596802.625 654156.9375)">
		<stop  offset="0" style="stop-color:#146BCA"/>
		<stop  offset="1" style="stop-color:#273E7C"/>
	</linearGradient>
	<polygon clip-path="url(#SVGID_191_)" fill="url(#SVGID_192_)" points="-303.669,-2324.395 -280.265,-2314.416 -298.168,-2272.424 
		-321.573,-2282.402 	"/>
</g>
<g>
	<defs>
		<path id="SVGID_193_" d="M-267.242-2297.406c0-6.658,3.436-11.095,9.019-11.095h7.229v10.379c0,6.083-3.15,10.95-8.374,10.95
			C-264.164-2287.172-267.242-2291.896-267.242-2297.406 M-260.371-2314.727c-9.161,0-14.816,6.656-14.816,17.392
			c0,9.949,5.655,16.82,14.816,16.82c3.579,0,6.657-1.789,9.162-5.369c1.646,6.37,6.728,10.594,12.955,10.594h8.661v-8.16h-5.082
			c-5.369,0-8.016-3.006-8.016-8.589v-22.688H-260.371z M-264.736-2320.525h7.872v-8.017h-7.872V-2320.525z M-251.209-2320.525
			h7.873v-8.017h-7.873V-2320.525z"/>
	</defs>
	<clipPath id="SVGID_194_">
		<use xlink:href="#SVGID_193_"  overflow="visible"/>
	</clipPath>
	
		<linearGradient id="SVGID_195_" gradientUnits="userSpaceOnUse" x1="-1718.3726" y1="787.1729" x2="-1717.3726" y2="787.1729" gradientTransform="matrix(431.9991 184.1857 184.1857 -431.9991 596812.125 654134.4375)">
		<stop  offset="0" style="stop-color:#146BCA"/>
		<stop  offset="1" style="stop-color:#273E7C"/>
	</linearGradient>
	<polygon clip-path="url(#SVGID_194_)" fill="url(#SVGID_195_)" points="-268.174,-2344.991 -210.381,-2320.351 -236.606,-2258.841 
		-294.399,-2283.481 	"/>
</g>
<g>
	<defs>
		<path id="SVGID_196_" d="M-214.99-2305.781c-2.934,1.289-5.439,3.006-7.658,5.082c1.79,2.72,3.078,4.796,3.865,6.299
			c1.718-1.933,3.865-3.436,6.441-4.509c2.22-0.931,4.223-1.36,6.013-1.36c5.225,0,9.377,1.789,12.311,5.439
			c2.505,3.149,3.722,6.943,3.722,11.38h-41.37v8.16h57.474v-8.16h-7.587c-0.644-9.948-4.223-16.891-10.736-20.899
			c-3.722-2.291-8.088-3.436-13.026-3.436C-208.691-2307.785-211.84-2307.14-214.99-2305.781 M-209.622-2314.513h7.873v-7.944
			h-7.873V-2314.513z"/>
	</defs>
	<clipPath id="SVGID_197_">
		<use xlink:href="#SVGID_196_"  overflow="visible"/>
	</clipPath>
	
		<linearGradient id="SVGID_198_" gradientUnits="userSpaceOnUse" x1="-1718.3726" y1="787.1885" x2="-1717.3726" y2="787.1885" gradientTransform="matrix(431.9991 184.1857 184.1857 -431.9991 596816.125 654126.1875)">
		<stop  offset="0" style="stop-color:#146BCA"/>
		<stop  offset="1" style="stop-color:#273E7C"/>
	</linearGradient>
	<polygon clip-path="url(#SVGID_197_)" fill="url(#SVGID_198_)" points="-222.826,-2343.192 -157.176,-2315.202 -183.033,-2254.555 
		-248.683,-2282.545 	"/>
</g>
<g>
	<defs>
		<path id="SVGID_199_" d="M-122.655-2307.785v16.463c0,5.224-2.004,7.872-6.084,7.872h-7.802c1.074-1.144,1.646-4.079,1.646-8.731
			v-15.604h-8.088v16.391c0,5.296-2.004,7.944-6.084,7.944h-7.443v-0.429c0.859-1.36,1.289-4.08,1.289-8.302v-15.604h-8.089v15.889
			c0,5.654-2.005,8.446-6.085,8.446h-7.3v8.16h72.577v-8.16h-12.239c1.216-2.577,1.789-5.511,1.789-8.875v-15.46H-122.655z"/>
	</defs>
	<clipPath id="SVGID_200_">
		<use xlink:href="#SVGID_199_"  overflow="visible"/>
	</clipPath>
	
		<linearGradient id="SVGID_201_" gradientUnits="userSpaceOnUse" x1="-1718.3721" y1="787.1826" x2="-1717.3721" y2="787.1826" gradientTransform="matrix(431.9991 184.1857 184.1857 -431.9991 596824.125 654106.6875)">
		<stop  offset="0" style="stop-color:#146BCA"/>
		<stop  offset="1" style="stop-color:#273E7C"/>
	</linearGradient>
	<polygon clip-path="url(#SVGID_200_)" fill="url(#SVGID_201_)" points="-165.531,-2333.969 -92.395,-2302.787 -115.281,-2249.106 
		-188.418,-2280.289 	"/>
</g>
<g>
	<defs>
		<path id="SVGID_202_" d="M-93.305-2307.785v16.463c0,2.504-0.287,4.365-0.859,5.438c-0.86,1.647-2.434,2.434-4.797,2.434h-7.442
			v8.16h33.065v-8.16h-13.741c1.145-1.359,1.718-4.079,1.718-8.303v-16.032H-93.305z M-93.235-2314.37h7.874v-7.945h-7.874V-2314.37
			z"/>
	</defs>
	<clipPath id="SVGID_203_">
		<use xlink:href="#SVGID_202_"  overflow="visible"/>
	</clipPath>
	
		<linearGradient id="SVGID_204_" gradientUnits="userSpaceOnUse" x1="-1718.3726" y1="787.1816" x2="-1717.3726" y2="787.1816" gradientTransform="matrix(431.9991 184.1857 184.1857 -431.9991 596834.625 654082.4375)">
		<stop  offset="0" style="stop-color:#146BCA"/>
		<stop  offset="1" style="stop-color:#273E7C"/>
	</linearGradient>
	<polygon clip-path="url(#SVGID_203_)" fill="url(#SVGID_204_)" points="-101.317,-2334.245 -56.372,-2315.082 -78.424,-2263.361 
		-123.369,-2282.523 	"/>
</g>
<g>
	<defs>
		<path id="SVGID_205_" d="M-63.242-2321.455v30.49c0,2.577-0.215,4.295-0.573,5.154c-0.787,1.574-2.433,2.361-5.082,2.361h-6.799
			v8.16h8.444c8.018,0,12.025-4.295,12.025-12.955v-33.21H-63.242z"/>
	</defs>
	<clipPath id="SVGID_206_">
		<use xlink:href="#SVGID_205_"  overflow="visible"/>
	</clipPath>
	
		<linearGradient id="SVGID_207_" gradientUnits="userSpaceOnUse" x1="-1718.3721" y1="787.1777" x2="-1717.3721" y2="787.1777" gradientTransform="matrix(431.9991 184.1857 184.1857 -431.9991 596839.125 654071.9375)">
		<stop  offset="0" style="stop-color:#146BCA"/>
		<stop  offset="1" style="stop-color:#273E7C"/>
	</linearGradient>
	<polygon clip-path="url(#SVGID_206_)" fill="url(#SVGID_207_)" points="-72.548,-2328.84 -38.571,-2314.354 -58.375,-2267.905 
		-92.352,-2282.391 	"/>
</g>
<g>
	<defs>
		<rect id="SVGID_208_" x="-47.853" y="-2321.528" width="7.944" height="46.238"/>
	</defs>
	<clipPath id="SVGID_209_">
		<use xlink:href="#SVGID_208_"  overflow="visible"/>
	</clipPath>
	
		<linearGradient id="SVGID_210_" gradientUnits="userSpaceOnUse" x1="-1718.3726" y1="787.1787" x2="-1717.3726" y2="787.1787" gradientTransform="matrix(431.9991 184.1857 184.1857 -431.9991 596842.125 654064.1875)">
		<stop  offset="0" style="stop-color:#146BCA"/>
		<stop  offset="1" style="stop-color:#273E7C"/>
	</linearGradient>
	<polygon clip-path="url(#SVGID_209_)" fill="url(#SVGID_210_)" points="-46.631,-2324.394 -23.227,-2314.416 -41.131,-2272.424 
		-64.534,-2282.402 	"/>
</g>
<g>
	<defs>
		<polygon id="SVGID_211_" points="-1115.067,117.363 -1166.312,398.242 -1218.071,117.363 -1274.851,117.363 -1274.851,469.098 
			-1240.192,469.098 -1240.192,175.65 -1184.405,469.098 -1151.254,469.098 -1095.467,175.65 -1095.467,469.098 -1057.792,469.098 
			-1057.792,117.363 		"/>
	</defs>
	<clipPath id="SVGID_212_">
		<use xlink:href="#SVGID_211_"  overflow="visible"/>
	</clipPath>
	
		<linearGradient id="SVGID_213_" gradientUnits="userSpaceOnUse" x1="-1718.8599" y1="784.6797" x2="-1717.8599" y2="784.6797" gradientTransform="matrix(-935.446 1019.2831 1019.2831 935.446 -2408099.25 1017424.5625)">
		<stop  offset="0" style="stop-color:#2F6BB3"/>
		<stop  offset="1" style="stop-color:#273E7C"/>
	</linearGradient>
	<polygon clip-path="url(#SVGID_212_)" fill="url(#SVGID_213_)" points="-882.571,278.173 -1157.029,577.229 -1450.072,308.288 
		-1175.614,9.232 	"/>
</g>
<g>
	<defs>
		<path id="SVGID_214_" d="M-1002.006,289.208c0-29.649,12.062-44.221,36.682-44.221c25.137,0,37.694,14.571,37.694,44.221v28.142
			h-74.376V289.208z M-1040.195,292.729v99.492c0,52.256,26.643,81.905,74.871,81.905c48.249,0,74.872-29.649,74.872-81.905v-4.026
			h-36.682v7.538c0,29.648-12.558,44.726-37.674,44.726c-24.62,0-37.198-15.077-37.198-44.726v-47.237h111.554v-55.767
			c0-52.266-26.623-81.409-74.872-81.409C-1014.049,211.32-1040.195,240.464-1040.195,292.729"/>
	</defs>
	<clipPath id="SVGID_215_">
		<use xlink:href="#SVGID_214_"  overflow="visible"/>
	</clipPath>
	
		<linearGradient id="SVGID_216_" gradientUnits="userSpaceOnUse" x1="-1718.8599" y1="784.6787" x2="-1717.8599" y2="784.6787" gradientTransform="matrix(-935.446 1019.2831 1019.2831 935.446 -2407965.5 1017547.5625)">
		<stop  offset="0" style="stop-color:#2F6BB3"/>
		<stop  offset="1" style="stop-color:#273E7C"/>
	</linearGradient>
	<polygon clip-path="url(#SVGID_215_)" fill="url(#SVGID_216_)" points="-759.531,331.473 -958.913,548.724 -1171.116,353.975 
		-971.734,136.724 	"/>
</g>
<g>
	<defs>
		<path id="SVGID_217_" d="M-839.207,397.746V287.194c0-28.131,10.554-42.207,32.159-42.207c24.124,0,40.709,20.106,40.709,56.283
			v82.907c0,36.176-16.585,56.281-40.709,56.281C-828.653,440.459-839.207,426.385-839.207,397.746 M-766.339,117.363v124.112
			c-11.566-20.106-29.145-30.155-52.256-30.155c-39.201,0-58.802,24.124-58.802,72.859v116.583
			c0,48.733,19.601,73.364,58.802,73.364c26.624,0,45.709-13.064,56.778-39.202c0.496,16.586,2.005,28.142,4.009,34.173h34.678
			c-3.512-15.573-5.534-38.189-5.534-68.841V117.363H-766.339z"/>
	</defs>
	<clipPath id="SVGID_218_">
		<use xlink:href="#SVGID_217_"  overflow="visible"/>
	</clipPath>
	
		<linearGradient id="SVGID_219_" gradientUnits="userSpaceOnUse" x1="-1718.8599" y1="784.6514" x2="-1717.8599" y2="784.6514" gradientTransform="matrix(-935.446 1019.2831 1019.2831 935.446 -2407870.5 1017634.5625)">
		<stop  offset="0" style="stop-color:#2F6BB3"/>
		<stop  offset="1" style="stop-color:#273E7C"/>
	</linearGradient>
	<polygon clip-path="url(#SVGID_218_)" fill="url(#SVGID_219_)" points="-545.403,280.472 -793.659,550.978 -1055.124,311.019 
		-806.868,40.513 	"/>
</g>
<g>
	<defs>
		<polygon id="SVGID_220_" points="-705.533,117.363 -705.533,469.098 -565.847,469.098 -565.847,433.417 -666.351,433.417 
			-666.351,117.363 		"/>
	</defs>
	<clipPath id="SVGID_221_">
		<use xlink:href="#SVGID_220_"  overflow="visible"/>
	</clipPath>
	
		<linearGradient id="SVGID_222_" gradientUnits="userSpaceOnUse" x1="-1718.7378" y1="784.5166" x2="-1717.7378" y2="784.5166" gradientTransform="matrix(1312.8484 1312.8484 1312.8484 -1312.8484 1224979.625 3285813.25)">
		<stop  offset="0" style="stop-color:#009676"/>
		<stop  offset="1" style="stop-color:#0D5042"/>
		<stop  offset="1" style="stop-color:#FFF2E9"/>
	</linearGradient>
	<polygon clip-path="url(#SVGID_221_)" fill="url(#SVGID_222_)" points="-635.69,47.521 -389.98,293.23 -635.69,538.94 
		-881.4,293.23 	"/>
</g>
<g>
	<defs>
		<path id="SVGID_223_" d="M-523.649,289.208c0-29.649,12.063-44.221,36.684-44.221c25.135,0,37.692,14.571,37.692,44.221v28.142
			h-74.376V289.208z M-561.839,292.729v99.492c0,52.256,26.643,81.905,74.873,81.905c48.246,0,74.871-29.649,74.871-81.905v-4.026
			h-36.683v7.538c0,29.648-12.558,44.726-37.675,44.726c-24.62,0-37.197-15.077-37.197-44.726v-47.237h111.555v-55.767
			c0-52.266-26.625-81.409-74.871-81.409C-535.691,211.32-561.839,240.464-561.839,292.729"/>
	</defs>
	<clipPath id="SVGID_224_">
		<use xlink:href="#SVGID_223_"  overflow="visible"/>
	</clipPath>
	
		<linearGradient id="SVGID_225_" gradientUnits="userSpaceOnUse" x1="-1718.7378" y1="784.4971" x2="-1717.7378" y2="784.4971" gradientTransform="matrix(1312.8484 1312.8484 1312.8484 -1312.8484 1225055.625 3285738.5)">
		<stop  offset="0" style="stop-color:#009676"/>
		<stop  offset="1" style="stop-color:#0D5042"/>
		<stop  offset="1" style="stop-color:#FFF2E9"/>
	</linearGradient>
	<polygon clip-path="url(#SVGID_224_)" fill="url(#SVGID_225_)" points="-486.967,136.448 -280.69,342.724 -486.967,549 
		-693.242,342.724 	"/>
</g>
<g>
	<defs>
		<path id="SVGID_226_" d="M-358.331,384.178v-82.907c0-36.177,16.585-56.283,40.71-56.283c21.604,0,32.653,14.076,32.653,42.207
			v110.552c0,28.639-11.049,42.713-32.653,42.713C-341.746,440.459-358.331,420.354-358.331,384.178 M-396.006,117.363v351.734
			h27.636l5.02-35.681c10.555,27.14,29.64,40.71,56.779,40.71c39.697,0,59.298-24.631,59.298-73.364V284.18
			c0-48.735-19.601-72.859-59.298-72.859c-22.615,0-40.193,10.049-51.76,30.155V117.363H-396.006z"/>
	</defs>
	<clipPath id="SVGID_227_">
		<use xlink:href="#SVGID_226_"  overflow="visible"/>
	</clipPath>
	
		<linearGradient id="SVGID_228_" gradientUnits="userSpaceOnUse" x1="-1718.7397" y1="784.5186" x2="-1717.7372" y2="784.5186" gradientTransform="matrix(1312.8484 1312.8484 1312.8484 -1312.8484 1225135.625 3285659)">
		<stop  offset="0" style="stop-color:#009676"/>
		<stop  offset="1" style="stop-color:#0D5042"/>
		<stop  offset="1" style="stop-color:#FFF2E9"/>
	</linearGradient>
	<polygon clip-path="url(#SVGID_227_)" fill="url(#SVGID_228_)" points="-321.64,42.997 -68.892,295.745 -321.64,548.494 
		-574.388,295.745 	"/>
</g>
<g>
	<defs>
		<path id="SVGID_229_" d="M-748.147-382.054h-65.477h-268.503c-102.111,0-191.8,76.848-198.202,178.758
			C-1287.293-92.43-1199.08,0-1089.692,0h210.848c9.29,0,16.818-7.53,16.818-16.818v-31.6c0-0.001-0.002-0.001-0.002-0.001h-227.664
			c-84.566,0-152.179-73.974-141.509-160.617c8.913-72.369,74.313-124.6,147.23-124.6l270.347,0.001h121.428
			c0.504,0,0.912,0.407,0.912,0.91v177.187v0.002h30.673c9.791,0,17.729-7.938,17.729-17.729v-159.459
			c0-0.503,0.408-0.91,0.911-0.91h72.115c0.502,0,0.91,0.407,0.91,0.91v177.187c0,0.002,0.001,0.002,0.001,0.002h30.673
			c9.79,0,17.729-7.938,17.729-17.729v-208.788H-748.147z"/>
	</defs>
	<clipPath id="SVGID_230_">
		<use xlink:href="#SVGID_229_"  overflow="visible"/>
	</clipPath>
	
		<linearGradient id="SVGID_231_" gradientUnits="userSpaceOnUse" x1="-1718.7373" y1="784.4756" x2="-1717.7373" y2="784.4756" gradientTransform="matrix(1312.8484 1312.8484 1312.8484 -1312.8484 1225143.625 3285650.5)">
		<stop  offset="0" style="stop-color:#009676"/>
		<stop  offset="1" style="stop-color:#0D5042"/>
		<stop  offset="1" style="stop-color:#FFF2E9"/>
	</linearGradient>
	<polygon clip-path="url(#SVGID_230_)" fill="url(#SVGID_231_)" points="-903.918,-765.428 -329.518,-191.026 -903.919,383.375 
		-1478.32,-191.026 	"/>
</g>
<g>
	<defs>
		<path id="SVGID_232_" d="M-813.624-286.094v129.586v60.548v79.143c0,9.289,7.53,16.817,16.818,16.817h358.504
			c95.586,0,174.77-70.651,188.644-162.434h-48.908c-13.278,64.981-70.886,114.015-139.735,114.015h-326.92V-95.96v-60.548v-112.767
			c0-9.289-7.529-16.819-16.817-16.819H-813.624z"/>
	</defs>
	<clipPath id="SVGID_233_">
		<use xlink:href="#SVGID_232_"  overflow="visible"/>
	</clipPath>
	
		<linearGradient id="SVGID_234_" gradientUnits="userSpaceOnUse" x1="-1718.8599" y1="784.7061" x2="-1717.8599" y2="784.7061" gradientTransform="matrix(-946.6027 1031.4398 1031.4398 946.6027 -2436711.25 1029654.875)">
		<stop  offset="0" style="stop-color:#2F6BB3"/>
		<stop  offset="1" style="stop-color:#273E7C"/>
	</linearGradient>
	<polygon clip-path="url(#SVGID_233_)" fill="url(#SVGID_234_)" points="-107.137,-155.294 -507.497,280.948 -956.146,-130.799 
		-555.785,-567.041 	"/>
</g>
<g>
	<defs>
		<path id="SVGID_235_" d="M-455.323-382.054c-9.289,0-16.818,7.529-16.818,16.818v31.601h33.84
			c71.9,0,131.381,53.523,141.08,122.784h48.907c-9.951-96.049-91.352-171.203-189.987-171.203H-455.323z"/>
	</defs>
	<clipPath id="SVGID_236_">
		<use xlink:href="#SVGID_235_"  overflow="visible"/>
	</clipPath>
	
		<linearGradient id="SVGID_237_" gradientUnits="userSpaceOnUse" x1="-1718.8599" y1="784.6768" x2="-1717.8599" y2="784.6768" gradientTransform="matrix(-946.6027 1031.4398 1031.4398 946.6027 -2436663.75 1029698.875)">
		<stop  offset="0" style="stop-color:#2F6BB3"/>
		<stop  offset="1" style="stop-color:#273E7C"/>
	</linearGradient>
	<polygon clip-path="url(#SVGID_236_)" fill="url(#SVGID_237_)" points="-163.027,-303.781 -350.646,-99.348 -557.429,-289.123 
		-369.811,-493.557 	"/>
</g>
<g>
	<defs>
		<path id="SVGID_238_" d="M-1262.007,594.777c-3.81,4.146-5.715,9.3-5.715,15.238c0,3.36,0.673,6.499,1.905,9.412h-10.196V632.2
			h47.508v-12.772h-23.979c-1.904-2.128-2.802-4.931-2.802-8.517c0-3.024,0.673-5.49,2.018-7.395c1.568-2.354,3.81-3.474,6.61-3.474
			c4.034,0,6.724,2.018,7.955,6.052l8.964-6.163c-3.138-7.171-9.748-11.43-17.479-11.43
			C-1253.155,588.502-1258.085,590.633-1262.007,594.777"/>
	</defs>
	<clipPath id="SVGID_239_">
		<use xlink:href="#SVGID_238_"  overflow="visible"/>
	</clipPath>
	
		<linearGradient id="SVGID_240_" gradientUnits="userSpaceOnUse" x1="-1718.7378" y1="784.501" x2="-1717.7378" y2="784.501" gradientTransform="matrix(1312.8484 1312.8484 1312.8484 -1312.8484 1224535.625 3286257.75)">
		<stop  offset="0" style="stop-color:#009676"/>
		<stop  offset="1" style="stop-color:#0D5042"/>
		<stop  offset="1" style="stop-color:#FFF2E9"/>
	</linearGradient>
	<polygon clip-path="url(#SVGID_239_)" fill="url(#SVGID_240_)" points="-1252.259,564.748 -1206.656,610.352 -1252.259,655.954 
		-1297.862,610.352 	"/>
</g>
<g>
	<defs>
		<rect id="SVGID_241_" x="-1216.851" y="559.818" width="12.436" height="72.382"/>
	</defs>
	<clipPath id="SVGID_242_">
		<use xlink:href="#SVGID_241_"  overflow="visible"/>
	</clipPath>
	
		<linearGradient id="SVGID_243_" gradientUnits="userSpaceOnUse" x1="-1718.7378" y1="784.499" x2="-1717.7378" y2="784.499" gradientTransform="matrix(1312.8484 1312.8484 1312.8484 -1312.8484 1224567.625 3286227)">
		<stop  offset="0" style="stop-color:#009676"/>
		<stop  offset="1" style="stop-color:#0D5042"/>
		<stop  offset="1" style="stop-color:#FFF2E9"/>
	</linearGradient>
	<polygon clip-path="url(#SVGID_242_)" fill="url(#SVGID_243_)" points="-1210.633,553.601 -1168.224,596.01 -1210.633,638.419 
		-1253.042,596.01 	"/>
</g>
<g>
	<defs>
		<path id="SVGID_244_" d="M-1181.333,606.653c0-7.618,4.37-14.005,10.98-14.005c7.172,0,11.877,5.826,11.877,14.565
			c0,7.395-4.595,13.67-11.316,13.67C-1176.627,620.884-1181.333,614.497-1181.333,606.653 M-1193.882,606.653
			c0,14.902,9.636,25.547,24.09,25.547c5.714,0,9.748-1.905,11.877-5.714c-0.224,8.74-4.146,14.006-11.989,14.23v9.972
			c16.247,0,24.313-6.723,24.313-20.057V606.99c0-14.79-9.411-25.771-24.201-25.771
			C-1183.91,581.22-1193.882,591.528-1193.882,606.653"/>
	</defs>
	<clipPath id="SVGID_245_">
		<use xlink:href="#SVGID_244_"  overflow="visible"/>
	</clipPath>
	
		<linearGradient id="SVGID_246_" gradientUnits="userSpaceOnUse" x1="-1718.7373" y1="784.4971" x2="-1717.7373" y2="784.4971" gradientTransform="matrix(1312.8484 1312.8484 1312.8484 -1312.8484 1224579.625 3286214)">
		<stop  offset="0" style="stop-color:#009676"/>
		<stop  offset="1" style="stop-color:#0D5042"/>
		<stop  offset="1" style="stop-color:#FFF2E9"/>
	</linearGradient>
	<polygon clip-path="url(#SVGID_245_)" fill="url(#SVGID_246_)" points="-1169.736,557.074 -1110.856,615.954 -1169.736,674.834 
		-1228.616,615.954 	"/>
</g>
<g>
	<defs>
		<path id="SVGID_247_" d="M-1122.844,592.761c4.034,0,7.843,0.224,11.315,1.008c11.318,2.466,17.032,10.98,17.032,25.659h-40.56
			V632.2h72.717v-12.772h-19.497c-0.111-19.16-7.618-31.262-22.632-36.303c-2.913-1.009-5.154-1.458-6.724-1.569
			c-1.568-0.112-5.489-0.225-11.652-0.225V592.761z"/>
	</defs>
	<clipPath id="SVGID_248_">
		<use xlink:href="#SVGID_247_"  overflow="visible"/>
	</clipPath>
	
		<linearGradient id="SVGID_249_" gradientUnits="userSpaceOnUse" x1="-1718.7314" y1="784.5059" x2="-1717.7417" y2="784.5059" gradientTransform="matrix(1312.8484 1312.8484 1312.8484 -1312.8484 1224607.625 3286186)">
		<stop  offset="0" style="stop-color:#009676"/>
		<stop  offset="1" style="stop-color:#0D5042"/>
		<stop  offset="1" style="stop-color:#FFF2E9"/>
	</linearGradient>
	<polygon clip-path="url(#SVGID_248_)" fill="url(#SVGID_249_)" points="-1098.697,544.973 -1036.904,606.766 -1098.697,668.559 
		-1160.49,606.766 	"/>
</g>
<g>
	<defs>
		<path id="SVGID_250_" d="M-1047.212,559.932v47.171c0,3.921-0.448,6.835-1.344,8.515c-1.346,2.577-3.811,3.811-7.507,3.811
			h-11.654V632.2h51.317v-12.772h-21.064c1.793-2.128,2.688-6.387,2.688-12.998v-46.498H-1047.212z"/>
	</defs>
	<clipPath id="SVGID_251_">
		<use xlink:href="#SVGID_250_"  overflow="visible"/>
	</clipPath>
	
		<linearGradient id="SVGID_252_" gradientUnits="userSpaceOnUse" x1="-1718.731" y1="784.502" x2="-1717.7412" y2="784.502" gradientTransform="matrix(1312.8484 1312.8484 1312.8484 -1312.8484 1224643.625 3286147.25)">
		<stop  offset="0" style="stop-color:#009676"/>
		<stop  offset="1" style="stop-color:#0D5042"/>
		<stop  offset="1" style="stop-color:#FFF2E9"/>
	</linearGradient>
	<polygon clip-path="url(#SVGID_251_)" fill="url(#SVGID_252_)" points="-1042.058,534.272 -980.265,596.065 -1042.058,657.859 
		-1103.852,596.066 	"/>
</g>
<g>
	<defs>
		<path id="SVGID_253_" d="M-1000.152,559.932v47.73c0,4.033-0.335,6.723-0.896,8.067c-1.232,2.465-3.811,3.698-7.955,3.698h-10.644
			V632.2h13.22c12.55,0,18.824-6.722,18.824-20.281v-51.987H-1000.152z"/>
	</defs>
	<clipPath id="SVGID_254_">
		<use xlink:href="#SVGID_253_"  overflow="visible"/>
	</clipPath>
	
		<linearGradient id="SVGID_255_" gradientUnits="userSpaceOnUse" x1="-1718.7378" y1="784.498" x2="-1717.7378" y2="784.498" gradientTransform="matrix(1312.8484 1312.8484 1312.8484 -1312.8484 1224667.625 3286123.5)">
		<stop  offset="0" style="stop-color:#009676"/>
		<stop  offset="1" style="stop-color:#0D5042"/>
		<stop  offset="1" style="stop-color:#FFF2E9"/>
	</linearGradient>
	<polygon clip-path="url(#SVGID_254_)" fill="url(#SVGID_255_)" points="-1003.625,543.909 -951.469,596.066 -1003.625,648.223 
		-1055.781,596.066 	"/>
</g>
<g>
	<defs>
		<path id="SVGID_256_" d="M-931.691,675.562h12.325v-12.438h-12.325V675.562z M-910.515,675.562h12.326v-12.438h-12.326V675.562z
			 M-902.448,594.44v11.429c0.673-0.111,1.346-0.111,2.018-0.111c7.17,0,11.316,4.93,11.316,11.877
			c0,11.428-10.98,21.064-25.547,21.064c-16.246,0-26.33-10.869-26.33-28.236V599.37h-12.55v12.549
			c0,22.074,17.031,38.881,38.544,38.881c18.263,0,33.277-10.98,36.863-28.459c5.154,7.73,9.075,9.859,22.856,9.859v-12.772h-4.706
			c-6.386,0-10.756-3.25-15.35-11.653c-4.93-8.852-12.325-13.334-22.185-13.334H-902.448z"/>
	</defs>
	<clipPath id="SVGID_257_">
		<use xlink:href="#SVGID_256_"  overflow="visible"/>
	</clipPath>
	
		<linearGradient id="SVGID_258_" gradientUnits="userSpaceOnUse" x1="-1718.7378" y1="784.499" x2="-1717.7378" y2="784.499" gradientTransform="matrix(1312.8484 1312.8484 1312.8484 -1312.8484 1224699.625 3286094.25)">
		<stop  offset="0" style="stop-color:#009676"/>
		<stop  offset="1" style="stop-color:#0D5042"/>
		<stop  offset="1" style="stop-color:#FFF2E9"/>
	</linearGradient>
	<polygon clip-path="url(#SVGID_257_)" fill="url(#SVGID_258_)" points="-904.409,545.309 -814.717,635.001 -904.409,724.693 
		-994.102,635.001 	"/>
</g>
<g>
	<defs>
		<path id="SVGID_259_" d="M-839.252,581.331v26.331c0,4.033-0.337,6.723-0.897,8.067c-1.232,2.465-3.81,3.698-7.954,3.698h-10.645
			V632.2h13.221c12.55,0,18.823-6.722,18.823-20.281v-30.588H-839.252z M-839.141,571.023h12.213v-12.438h-12.213V571.023z"/>
	</defs>
	<clipPath id="SVGID_260_">
		<use xlink:href="#SVGID_259_"  overflow="visible"/>
	</clipPath>
	
		<linearGradient id="SVGID_261_" gradientUnits="userSpaceOnUse" x1="-1718.7378" y1="784.498" x2="-1717.7378" y2="784.498" gradientTransform="matrix(1312.8484 1312.8484 1312.8484 -1312.8484 1224751.625 3286042.75)">
		<stop  offset="0" style="stop-color:#009676"/>
		<stop  offset="1" style="stop-color:#0D5042"/>
		<stop  offset="1" style="stop-color:#FFF2E9"/>
	</linearGradient>
	<polygon clip-path="url(#SVGID_260_)" fill="url(#SVGID_261_)" points="-842.726,542.564 -789.896,595.394 -842.726,648.223 
		-895.555,595.394 	"/>
</g>
<g>
	<defs>
		<path id="SVGID_262_" d="M-815.05,559.932v51.877c0,6.162,1.457,10.979,4.481,14.565c3.249,3.921,7.844,5.826,13.895,5.826h14.678
			v-12.772h-7.396c-4.706,0-7.955-0.673-9.636-1.904c-2.353-1.682-3.586-5.267-3.586-10.757v-46.835H-815.05z"/>
	</defs>
	<clipPath id="SVGID_263_">
		<use xlink:href="#SVGID_262_"  overflow="visible"/>
	</clipPath>
	
		<linearGradient id="SVGID_264_" gradientUnits="userSpaceOnUse" x1="-1718.7373" y1="784.5" x2="-1717.7373" y2="784.5" gradientTransform="matrix(1312.8484 1312.8484 1312.8484 -1312.8484 1224767.625 3286023.5)">
		<stop  offset="0" style="stop-color:#009676"/>
		<stop  offset="1" style="stop-color:#0D5042"/>
		<stop  offset="1" style="stop-color:#FFF2E9"/>
	</linearGradient>
	<polygon clip-path="url(#SVGID_263_)" fill="url(#SVGID_264_)" points="-798.523,543.404 -745.861,596.065 -798.523,648.728 
		-851.185,596.065 	"/>
</g>
<g>
	<defs>
		<path id="SVGID_265_" d="M-765.525,581.331v25.771c0,3.921-0.448,6.835-1.345,8.515c-1.345,2.577-3.81,3.811-7.507,3.811h-11.652
			V632.2h51.765v-12.772h-21.513c1.792-2.128,2.689-6.387,2.689-12.998v-25.099H-765.525z M-765.413,571.023h12.325v-12.438h-12.325
			V571.023z"/>
	</defs>
	<clipPath id="SVGID_266_">
		<use xlink:href="#SVGID_265_"  overflow="visible"/>
	</clipPath>
	
		<linearGradient id="SVGID_267_" gradientUnits="userSpaceOnUse" x1="-1718.7378" y1="784.5029" x2="-1717.7378" y2="784.5029" gradientTransform="matrix(1312.8484 1312.8484 1312.8484 -1312.8484 1224787.625 3286006.25)">
		<stop  offset="0" style="stop-color:#009676"/>
		<stop  offset="1" style="stop-color:#0D5042"/>
		<stop  offset="1" style="stop-color:#FFF2E9"/>
	</linearGradient>
	<polygon clip-path="url(#SVGID_266_)" fill="url(#SVGID_267_)" points="-760.147,532.704 -697.458,595.394 -760.146,658.082 
		-822.836,595.394 	"/>
</g>
<g>
	<defs>
		<path id="SVGID_268_" d="M-717.232,656.851h12.325v-12.549h-12.325V656.851z M-717.232,581.331v25.771
			c0,3.921-0.447,6.835-1.345,8.515c-1.344,2.577-3.81,3.811-7.507,3.811h-11.653V632.2h51.766v-12.772h-21.513
			c1.793-2.128,2.689-6.387,2.689-12.998v-25.099H-717.232z"/>
	</defs>
	<clipPath id="SVGID_269_">
		<use xlink:href="#SVGID_268_"  overflow="visible"/>
	</clipPath>
	
		<linearGradient id="SVGID_270_" gradientUnits="userSpaceOnUse" x1="-1718.73" y1="784.498" x2="-1717.74" y2="784.498" gradientTransform="matrix(1312.8484 1312.8484 1312.8484 -1312.8484 1224803.625 3285988.75)">
		<stop  offset="0" style="stop-color:#009676"/>
		<stop  offset="1" style="stop-color:#0D5042"/>
		<stop  offset="1" style="stop-color:#FFF2E9"/>
	</linearGradient>
	<polygon clip-path="url(#SVGID_269_)" fill="url(#SVGID_270_)" points="-711.854,555.449 -648.213,619.091 -711.854,682.733 
		-775.496,619.091 	"/>
</g>
<g>
	<defs>
		<path id="SVGID_271_" d="M-668.94,559.932v47.171c0,3.921-0.447,6.835-1.345,8.515c-1.344,2.577-3.809,3.811-7.507,3.811h-11.652
			V632.2h51.316v-12.772h-21.064c1.793-2.128,2.689-6.387,2.689-12.998v-46.498H-668.94z"/>
	</defs>
	<clipPath id="SVGID_272_">
		<use xlink:href="#SVGID_271_"  overflow="visible"/>
	</clipPath>
	
		<linearGradient id="SVGID_273_" gradientUnits="userSpaceOnUse" x1="-1718.7295" y1="784.501" x2="-1717.7397" y2="784.501" gradientTransform="matrix(1312.8484 1312.8484 1312.8484 -1312.8484 1224835.625 3285958.25)">
		<stop  offset="0" style="stop-color:#009676"/>
		<stop  offset="1" style="stop-color:#0D5042"/>
		<stop  offset="1" style="stop-color:#FFF2E9"/>
	</linearGradient>
	<polygon clip-path="url(#SVGID_272_)" fill="url(#SVGID_273_)" points="-663.786,534.273 -601.993,596.065 -663.786,657.858 
		-725.578,596.065 	"/>
</g>
<g>
	<defs>
		<path id="SVGID_274_" d="M-621.88,559.932v47.73c0,4.033-0.337,6.723-0.896,8.067c-1.231,2.465-3.81,3.698-7.954,3.698h-10.646
			V632.2h13.221c12.551,0,18.824-6.722,18.824-20.281v-51.987H-621.88z"/>
	</defs>
	<clipPath id="SVGID_275_">
		<use xlink:href="#SVGID_274_"  overflow="visible"/>
	</clipPath>
	
		<linearGradient id="SVGID_276_" gradientUnits="userSpaceOnUse" x1="-1718.7378" y1="784.499" x2="-1717.7378" y2="784.499" gradientTransform="matrix(1312.8484 1312.8484 1312.8484 -1312.8484 1224859.625 3285934.5)">
		<stop  offset="0" style="stop-color:#009676"/>
		<stop  offset="1" style="stop-color:#0D5042"/>
		<stop  offset="1" style="stop-color:#FFF2E9"/>
	</linearGradient>
	<polygon clip-path="url(#SVGID_275_)" fill="url(#SVGID_276_)" points="-625.354,543.909 -573.196,596.065 -625.354,648.223 
		-677.511,596.065 	"/>
</g>
<g>
	<defs>
		<rect id="SVGID_277_" x="-597.79" y="559.818" width="12.438" height="72.382"/>
	</defs>
	<clipPath id="SVGID_278_">
		<use xlink:href="#SVGID_277_"  overflow="visible"/>
	</clipPath>
	
		<linearGradient id="SVGID_279_" gradientUnits="userSpaceOnUse" x1="-1718.7378" y1="784.4971" x2="-1717.7378" y2="784.4971" gradientTransform="matrix(1312.8484 1312.8484 1312.8484 -1312.8484 1224875.625 3285917.5)">
		<stop  offset="0" style="stop-color:#009676"/>
		<stop  offset="1" style="stop-color:#0D5042"/>
		<stop  offset="1" style="stop-color:#FFF2E9"/>
	</linearGradient>
	<polygon clip-path="url(#SVGID_278_)" fill="url(#SVGID_279_)" points="-591.571,553.6 -549.162,596.01 -591.571,638.419 
		-633.981,596.01 	"/>
</g>
<g>
	<defs>
		<path id="SVGID_280_" d="M-493.14,559.932v51.092c0,15.798-9.412,27.788-22.634,27.788c-13.669,0-22.855-12.325-22.855-27.788
			V601.5h-12.661v10.98c0,21.063,16.021,38.319,35.517,38.319c12.326,0,23.867-6.946,30.253-18.6h23.305v-12.772h-18.935
			c0.448-2.354,0.673-4.595,0.673-6.947v-52.549H-493.14z"/>
	</defs>
	<clipPath id="SVGID_281_">
		<use xlink:href="#SVGID_280_"  overflow="visible"/>
	</clipPath>
	
		<linearGradient id="SVGID_282_" gradientUnits="userSpaceOnUse" x1="-1718.7437" y1="784.4971" x2="-1717.7365" y2="784.4971" gradientTransform="matrix(1312.8484 1312.8484 1312.8484 -1312.8484 1224915.625 3285879)">
		<stop  offset="0" style="stop-color:#009676"/>
		<stop  offset="1" style="stop-color:#0D5042"/>
		<stop  offset="1" style="stop-color:#FFF2E9"/>
	</linearGradient>
	<polygon clip-path="url(#SVGID_281_)" fill="url(#SVGID_282_)" points="-506.753,515.394 -416.781,605.365 -506.753,695.337 
		-596.724,605.365 	"/>
</g>
<g>
	<defs>
		<path id="SVGID_283_" d="M-467.929,656.738h12.326v-12.55h-12.326V656.738z M-446.751,656.738h12.324v-12.55h-12.324V656.738z
			 M-446.415,581.331v25.771c0,3.921-0.447,6.835-1.344,8.515c-1.344,2.577-3.922,3.811-7.619,3.811h-11.989V632.2h51.653v-12.772
			h-21.065c1.905-2.128,2.802-6.387,2.802-12.998v-25.099H-446.415z"/>
	</defs>
	<clipPath id="SVGID_284_">
		<use xlink:href="#SVGID_283_"  overflow="visible"/>
	</clipPath>
	
		<linearGradient id="SVGID_285_" gradientUnits="userSpaceOnUse" x1="-1718.7461" y1="784.501" x2="-1717.736" y2="784.501" gradientTransform="matrix(1312.8484 1312.8484 1312.8484 -1312.8484 1224935.625 3285858.75)">
		<stop  offset="0" style="stop-color:#009676"/>
		<stop  offset="1" style="stop-color:#0D5042"/>
		<stop  offset="1" style="stop-color:#FFF2E9"/>
	</linearGradient>
	<polygon clip-path="url(#SVGID_284_)" fill="url(#SVGID_285_)" points="-441.821,555.225 -378.011,619.035 -441.821,682.846 
		-505.632,619.035 	"/>
</g>
<g>
	<defs>
		<path id="SVGID_286_" d="M-399.468,559.932v47.73c0,4.033-0.334,6.723-0.896,8.067c-1.231,2.465-3.81,3.698-7.955,3.698h-10.644
			V632.2h13.222c12.548,0,18.822-6.722,18.822-20.281v-51.987H-399.468z"/>
	</defs>
	<clipPath id="SVGID_287_">
		<use xlink:href="#SVGID_286_"  overflow="visible"/>
	</clipPath>
	
		<linearGradient id="SVGID_288_" gradientUnits="userSpaceOnUse" x1="-1718.7271" y1="784.499" x2="-1717.7393" y2="784.499" gradientTransform="matrix(1312.8484 1312.8484 1312.8484 -1312.8484 1224967.625 3285823.25)">
		<stop  offset="0" style="stop-color:#009676"/>
		<stop  offset="1" style="stop-color:#0D5042"/>
		<stop  offset="1" style="stop-color:#FFF2E9"/>
	</linearGradient>
	<polygon clip-path="url(#SVGID_287_)" fill="url(#SVGID_288_)" points="-402.94,543.909 -350.784,596.066 -402.94,648.223 
		-455.097,596.066 	"/>
</g>
<g>
	<defs>
		<path id="SVGID_289_" d="M-364.171,592.761c4.033,0,7.842,0.224,11.316,1.008c11.316,2.466,17.03,10.98,17.03,25.659h-40.56V632.2
			h72.717v-12.772h-19.496c-0.112-19.16-7.619-31.262-22.633-36.303c-2.913-1.009-5.154-1.458-6.723-1.569
			c-1.569-0.112-5.49-0.225-11.652-0.225V592.761z"/>
	</defs>
	<clipPath id="SVGID_290_">
		<use xlink:href="#SVGID_289_"  overflow="visible"/>
	</clipPath>
	
		<linearGradient id="SVGID_291_" gradientUnits="userSpaceOnUse" x1="-1718.7378" y1="784.5059" x2="-1717.7378" y2="784.5059" gradientTransform="matrix(1312.8484 1312.8484 1312.8484 -1312.8484 1224987.625 3285806.75)">
		<stop  offset="0" style="stop-color:#009676"/>
		<stop  offset="1" style="stop-color:#0D5042"/>
		<stop  offset="1" style="stop-color:#FFF2E9"/>
	</linearGradient>
	<polygon clip-path="url(#SVGID_290_)" fill="url(#SVGID_291_)" points="-340.025,544.974 -278.232,606.767 -340.026,668.56 
		-401.819,606.767 	"/>
</g>
<g>
	<defs>
		<path id="SVGID_292_" d="M-289.772,559.932v47.73c0,4.033-0.336,6.723-0.896,8.067c-1.233,2.465-3.81,3.698-7.955,3.698h-10.646
			V632.2h13.222c12.55,0,18.824-6.722,18.824-20.281v-51.987H-289.772z"/>
	</defs>
	<clipPath id="SVGID_293_">
		<use xlink:href="#SVGID_292_"  overflow="visible"/>
	</clipPath>
	
		<linearGradient id="SVGID_294_" gradientUnits="userSpaceOnUse" x1="-1718.7378" y1="784.498" x2="-1717.7378" y2="784.498" gradientTransform="matrix(1312.8484 1312.8484 1312.8484 -1312.8484 1225023.625 3285768.25)">
		<stop  offset="0" style="stop-color:#009676"/>
		<stop  offset="1" style="stop-color:#0D5042"/>
		<stop  offset="1" style="stop-color:#FFF2E9"/>
	</linearGradient>
	<polygon clip-path="url(#SVGID_293_)" fill="url(#SVGID_294_)" points="-293.246,543.909 -241.089,596.066 -293.246,648.223 
		-345.403,596.066 	"/>
</g>
<g>
	<defs>
		<rect id="SVGID_295_" x="-265.682" y="559.818" width="12.438" height="72.382"/>
	</defs>
	<clipPath id="SVGID_296_">
		<use xlink:href="#SVGID_295_"  overflow="visible"/>
	</clipPath>
	
		<linearGradient id="SVGID_297_" gradientUnits="userSpaceOnUse" x1="-1718.7378" y1="784.499" x2="-1717.7378" y2="784.499" gradientTransform="matrix(1312.8484 1312.8484 1312.8484 -1312.8484 1225039.625 3285751.5)">
		<stop  offset="0" style="stop-color:#009676"/>
		<stop  offset="1" style="stop-color:#0D5042"/>
		<stop  offset="1" style="stop-color:#FFF2E9"/>
	</linearGradient>
	<polygon clip-path="url(#SVGID_296_)" fill="url(#SVGID_297_)" points="-259.463,553.601 -217.054,596.01 -259.463,638.419 
		-301.872,596.01 	"/>
</g>
</svg>
