<?xml version="1.0" encoding="utf-8"?>
<!-- Generator: Adobe Illustrator 16.0.0, SVG Export Plug-In . SVG Version: 6.00 Build 0)  -->
<!DOCTYPE svg PUBLIC "-//W3C//DTD SVG 1.1//EN" "http://www.w3.org/Graphics/SVG/1.1/DTD/svg11.dtd">
<svg version="1.1" id="Layer_1" xmlns="http://www.w3.org/2000/svg" xmlns:xlink="http://www.w3.org/1999/xlink" x="0px" y="0px"
	 width="1503.279px" height="1205.016px" viewBox="0 0 1503.279 1205.016" enable-background="new 0 0 1503.279 1205.016"
	 xml:space="preserve">
<rect x="-3477.05" y="-1459.366" fill="#FFFFFF" width="3094.32" height="2664.382"/>
<g>
	<defs>
		<polygon id="SVGID_1_" points="1599.13,1618.27 1599.13,1262.341 1656.585,1262.341 1708.962,1546.57 1760.817,1262.341 
			1818.776,1262.341 1818.776,1618.27 1780.652,1618.27 1780.652,1321.322 1724.2,1618.27 1690.653,1618.27 1634.201,1321.322 
			1634.201,1618.27 		"/>
	</defs>
	<clipPath id="SVGID_2_">
		<use xlink:href="#SVGID_1_"  overflow="visible"/>
	</clipPath>
	
		<linearGradient id="SVGID_3_" gradientUnits="userSpaceOnUse" x1="-171.3193" y1="1283.2871" x2="-170.3213" y2="1283.2871" gradientTransform="matrix(-919.8121 1437.7645 1437.7645 919.8121 -2000311.875 -933604)">
		<stop  offset="0" style="stop-color:#2F6BB3"/>
		<stop  offset="1" style="stop-color:#273E7C"/>
	</linearGradient>
	<polygon clip-path="url(#SVGID_2_)" fill="url(#SVGID_3_)" points="1980.353,1365.709 1754.986,1717.98 1437.554,1514.901 
		1662.919,1162.631 	"/>
</g>
<g>
	<defs>
		<path id="SVGID_4_" d="M1875.229,1436.234c0-30.003,12.206-44.748,37.12-44.748c25.434,0,38.142,14.745,38.142,44.748v28.478
			h-75.262V1436.234z M1836.582,1439.798v100.679c0,52.879,26.962,82.883,75.767,82.883c48.822,0,75.764-30.004,75.764-82.883
			v-4.073h-37.119v7.628c0,30.002-12.708,45.26-38.124,45.26c-24.914,0-37.641-15.258-37.641-45.26v-47.801h112.884v-56.433
			c0-52.888-26.941-82.379-75.764-82.379C1863.041,1357.419,1836.582,1386.91,1836.582,1439.798"/>
	</defs>
	<clipPath id="SVGID_5_">
		<use xlink:href="#SVGID_4_"  overflow="visible"/>
	</clipPath>
	
		<linearGradient id="SVGID_6_" gradientUnits="userSpaceOnUse" x1="-171.3203" y1="1283.2871" x2="-170.3203" y2="1283.2871" gradientTransform="matrix(-919.8121 1437.7645 1437.7645 919.8121 -2000144.875 -933496)">
		<stop  offset="0" style="stop-color:#2F6BB3"/>
		<stop  offset="1" style="stop-color:#273E7C"/>
	</linearGradient>
	<polygon clip-path="url(#SVGID_5_)" fill="url(#SVGID_6_)" points="2108.837,1434.653 1944.104,1692.147 1715.857,1546.125 
		1880.589,1288.631 	"/>
</g>
<g>
	<defs>
		<path id="SVGID_7_" d="M2039.969,1546.069v-111.871c0-28.469,10.68-42.712,32.543-42.712c24.411,0,41.193,20.347,41.193,56.955
			v83.895c0,36.609-16.782,56.955-41.193,56.955C2050.648,1589.291,2039.969,1575.048,2039.969,1546.069 M2113.705,1262.341v125.592
			c-11.702-20.346-29.491-30.514-52.879-30.514c-39.669,0-59.504,24.411-59.504,73.727v117.975
			c0,49.315,19.835,74.239,59.504,74.239c26.941,0,46.254-13.22,57.457-39.67c0.501,16.784,2.028,28.478,4.056,34.58h35.092
			c-3.555-15.76-5.602-38.645-5.602-69.662v-286.267H2113.705z"/>
	</defs>
	<clipPath id="SVGID_8_">
		<use xlink:href="#SVGID_7_"  overflow="visible"/>
	</clipPath>
	
		<linearGradient id="SVGID_9_" gradientUnits="userSpaceOnUse" x1="-171.3193" y1="1283.2676" x2="-170.3215" y2="1283.2676" gradientTransform="matrix(-919.8121 1437.7645 1437.7645 919.8121 -2000017.875 -933416)">
		<stop  offset="0" style="stop-color:#2F6BB3"/>
		<stop  offset="1" style="stop-color:#273E7C"/>
	</linearGradient>
	<polygon clip-path="url(#SVGID_8_)" fill="url(#SVGID_9_)" points="2321.316,1367.188 2112.094,1694.225 1837.437,1518.513 
		2046.659,1191.475 	"/>
</g>
<g>
	<defs>
		<polygon id="SVGID_10_" points="2175.237,1262.341 2175.237,1618.27 2316.589,1618.27 2316.589,1582.164 2214.887,1582.164 
			2214.887,1262.341 		"/>
	</defs>
	<clipPath id="SVGID_11_">
		<use xlink:href="#SVGID_10_"  overflow="visible"/>
	</clipPath>
	
		<linearGradient id="SVGID_12_" gradientUnits="userSpaceOnUse" x1="-171.3022" y1="1282.6738" x2="-170.3022" y2="1282.6738" gradientTransform="matrix(1071.6257 1098.4164 1098.4164 -1071.6257 -1223758.125 1563463.25)">
		<stop  offset="0" style="stop-color:#009676"/>
		<stop  offset="1" style="stop-color:#0D5042"/>
		<stop  offset="1" style="stop-color:#FFF2E9"/>
	</linearGradient>
	<polygon clip-path="url(#SVGID_11_)" fill="url(#SVGID_12_)" points="2247.658,1191.687 2494.499,1444.699 2244.168,1688.925 
		1997.327,1435.912 	"/>
</g>
<g>
	<defs>
		<path id="SVGID_13_" d="M2359.289,1436.234c0-30.003,12.206-44.748,37.121-44.748c25.436,0,38.144,14.745,38.144,44.748v28.478
			h-75.265V1436.234z M2320.645,1439.798v100.679c0,52.879,26.962,82.883,75.766,82.883c48.823,0,75.765-30.004,75.765-82.883
			v-4.073h-37.119v7.628c0,30.002-12.708,45.26-38.124,45.26c-24.914,0-37.643-15.258-37.643-45.26v-47.801h112.886v-56.433
			c0-52.888-26.941-82.379-75.765-82.379C2347.104,1357.419,2320.645,1386.91,2320.645,1439.798"/>
	</defs>
	<clipPath id="SVGID_14_">
		<use xlink:href="#SVGID_13_"  overflow="visible"/>
	</clipPath>
	
		<linearGradient id="SVGID_15_" gradientUnits="userSpaceOnUse" x1="-171.3003" y1="1282.6494" x2="-170.3028" y2="1282.6494" gradientTransform="matrix(1071.6257 1098.4164 1098.4164 -1071.6257 -1223682.125 1563386.75)">
		<stop  offset="0" style="stop-color:#009676"/>
		<stop  offset="1" style="stop-color:#0D5042"/>
		<stop  offset="1" style="stop-color:#FFF2E9"/>
	</linearGradient>
	<polygon clip-path="url(#SVGID_14_)" fill="url(#SVGID_15_)" points="2398.28,1281.677 2605.104,1493.672 2394.539,1699.102 
		2187.715,1487.106 	"/>
</g>
<g>
	<defs>
		<path id="SVGID_16_" d="M2526.579,1532.336v-83.895c0-36.608,16.783-56.955,41.195-56.955c21.862,0,33.045,14.243,33.045,42.712
			v111.871c0,28.979-11.183,43.222-33.045,43.222C2543.362,1589.291,2526.579,1568.945,2526.579,1532.336 M2488.456,1262.341
			v355.929h27.965l5.08-36.105c10.68,27.463,29.992,41.195,57.455,41.195c40.172,0,60.006-24.924,60.006-74.239v-117.975
			c0-49.315-19.834-73.727-60.006-73.727c-22.886,0-40.673,10.168-52.377,30.514v-125.592H2488.456z"/>
	</defs>
	<clipPath id="SVGID_17_">
		<use xlink:href="#SVGID_16_"  overflow="visible"/>
	</clipPath>
	
		<linearGradient id="SVGID_18_" gradientUnits="userSpaceOnUse" x1="-171.3037" y1="1282.6748" x2="-170.3017" y2="1282.6748" gradientTransform="matrix(1071.6257 1098.4164 1098.4164 -1071.6257 -1223598.125 1563307)">
		<stop  offset="0" style="stop-color:#009676"/>
		<stop  offset="1" style="stop-color:#0D5042"/>
		<stop  offset="1" style="stop-color:#FFF2E9"/>
	</linearGradient>
	<polygon clip-path="url(#SVGID_17_)" fill="url(#SVGID_18_)" points="2565.567,1187.111 2819.416,1447.307 2561.852,1698.589 
		2308.002,1438.394 	"/>
</g>
<g>
	<defs>
		<path id="SVGID_19_" d="M2138.087,762.924h-65.477h-268.503c-102.11,0-191.8,76.848-198.2,178.758
			c-6.966,110.866,81.248,203.296,190.637,203.296h210.846c9.29,0,16.82-7.53,16.82-16.818v-31.6c0-0.001-0.002-0.001-0.002-0.001
			h-227.664c-84.567,0-152.18-73.974-141.51-160.617c8.913-72.369,74.313-124.6,147.229-124.6l270.347,0.001h121.429
			c0.505,0,0.911,0.407,0.911,0.91v177.187v0.002h30.673c9.792,0,17.729-7.938,17.729-17.729V812.253c0-0.503,0.407-0.91,0.912-0.91
			h72.114c0.502,0,0.911,0.407,0.911,0.91v177.187c0,0.002,0.001,0.002,0.001,0.002h30.674c9.789,0,17.728-7.938,17.728-17.729
			V762.924H2138.087z"/>
	</defs>
	<clipPath id="SVGID_20_">
		<use xlink:href="#SVGID_19_"  overflow="visible"/>
	</clipPath>
	
		<linearGradient id="SVGID_21_" gradientUnits="userSpaceOnUse" x1="-171.3022" y1="1282.623" x2="-170.3013" y2="1282.623" gradientTransform="matrix(1071.6257 1098.4164 1098.4164 -1071.6257 -1223594.125 1563303)">
		<stop  offset="0" style="stop-color:#009676"/>
		<stop  offset="1" style="stop-color:#0D5042"/>
		<stop  offset="1" style="stop-color:#FFF2E9"/>
	</linearGradient>
	<polygon clip-path="url(#SVGID_20_)" fill="url(#SVGID_21_)" points="1991.781,379.666 2556.66,958.667 1972.852,1528.236 
		1407.973,949.235 	"/>
</g>
<g>
	<defs>
		<path id="SVGID_22_" d="M2072.611,858.884V988.47v60.548v79.143c0,9.289,7.53,16.817,16.818,16.817h358.506
			c95.584,0,174.768-70.651,188.642-162.434h-48.908c-13.278,64.981-70.886,114.015-139.733,114.015h-326.922v-47.541V988.47
			V875.703c0-9.289-7.529-16.819-16.818-16.819H2072.611z"/>
	</defs>
	<clipPath id="SVGID_23_">
		<use xlink:href="#SVGID_22_"  overflow="visible"/>
	</clipPath>
	
		<linearGradient id="SVGID_24_" gradientUnits="userSpaceOnUse" x1="-171.3203" y1="1283.3076" x2="-170.3203" y2="1283.3076" gradientTransform="matrix(-919.8121 1437.7645 1437.7645 919.8121 -2000082.875 -933456)">
		<stop  offset="0" style="stop-color:#2F6BB3"/>
		<stop  offset="1" style="stop-color:#273E7C"/>
	</linearGradient>
	<polygon clip-path="url(#SVGID_23_)" fill="url(#SVGID_24_)" points="2766.451,941.971 2472.791,1400.993 1942.737,1061.891 
		2236.397,602.868 	"/>
</g>
<g>
	<defs>
		<path id="SVGID_25_" d="M2430.911,762.924c-9.289,0-16.817,7.529-16.817,16.818v31.601h33.842
			c71.897,0,131.378,53.523,141.078,122.784h48.907c-9.949-96.049-91.353-171.203-189.985-171.203H2430.911z"/>
	</defs>
	<clipPath id="SVGID_26_">
		<use xlink:href="#SVGID_25_"  overflow="visible"/>
	</clipPath>
	
		<linearGradient id="SVGID_27_" gradientUnits="userSpaceOnUse" x1="-171.3203" y1="1283.2852" x2="-170.3203" y2="1283.2852" gradientTransform="matrix(-919.8121 1437.7645 1437.7645 919.8121 -1999997.875 -933400)">
		<stop  offset="0" style="stop-color:#2F6BB3"/>
		<stop  offset="1" style="stop-color:#273E7C"/>
	</linearGradient>
	<polygon clip-path="url(#SVGID_26_)" fill="url(#SVGID_27_)" points="2715.639,812.645 2572.917,1035.734 2336.375,884.406 
		2479.097,661.316 	"/>
</g>
<g>
	<defs>
		<polygon id="SVGID_28_" points="1599.13,1684.134 1599.13,1781.86 1637.939,1781.86 1637.939,1771.948 1610.019,1771.948 
			1610.019,1684.134 		"/>
	</defs>
	<clipPath id="SVGID_29_">
		<use xlink:href="#SVGID_28_"  overflow="visible"/>
	</clipPath>
	
		<linearGradient id="SVGID_30_" gradientUnits="userSpaceOnUse" x1="-171.3716" y1="1283.25" x2="-170.3716" y2="1283.25" gradientTransform="matrix(-1058.5797 1654.6732 1654.6732 1058.5797 -2302286.25 -1074473.25)">
		<stop  offset="0" style="stop-color:#2F6BB3"/>
		<stop  offset="1" style="stop-color:#273E7C"/>
	</linearGradient>
	<polygon clip-path="url(#SVGID_29_)" fill="url(#SVGID_30_)" points="1682.303,1712.516 1626.668,1799.479 1554.767,1753.479 
		1610.4,1666.516 	"/>
</g>
<g>
	<defs>
		<path id="SVGID_31_" d="M1649.664,1731.88c0-8.237,3.351-12.286,10.191-12.286c6.981,0,10.471,4.049,10.471,12.286v7.818h-20.662
			V1731.88z M1639.055,1732.856v27.644c0,14.52,7.397,22.756,20.801,22.756s20.802-8.236,20.802-22.756v-1.117h-10.191v2.093
			c0,8.238-3.49,12.427-10.471,12.427c-6.841,0-10.331-4.188-10.331-12.427v-13.122h30.993v-15.497
			c0-14.519-7.398-22.615-20.802-22.615C1646.313,1710.241,1639.055,1718.338,1639.055,1732.856"/>
	</defs>
	<clipPath id="SVGID_32_">
		<use xlink:href="#SVGID_31_"  overflow="visible"/>
	</clipPath>
	
		<linearGradient id="SVGID_33_" gradientUnits="userSpaceOnUse" x1="-171.3813" y1="1283.25" x2="-170.3699" y2="1283.25" gradientTransform="matrix(-1058.5797 1654.6732 1654.6732 1058.5797 -2302251.25 -1074453.25)">
		<stop  offset="0" style="stop-color:#2F6BB3"/>
		<stop  offset="1" style="stop-color:#273E7C"/>
	</linearGradient>
	<polygon clip-path="url(#SVGID_32_)" fill="url(#SVGID_33_)" points="1713.803,1731.446 1668.575,1802.142 1605.909,1762.051 
		1651.137,1691.355 	"/>
</g>
<g>
	<defs>
		<path id="SVGID_34_" d="M1695.593,1758.266v-23.035c0-10.052,4.607-15.637,11.309-15.637c6.003,0,9.074,3.91,9.074,11.729v30.713
			c0,7.958-3.071,11.867-9.074,11.867C1700.2,1773.902,1695.593,1768.318,1695.593,1758.266 M1685.122,1684.134v97.727h7.679
			l1.396-9.912c2.932,7.538,8.237,11.308,15.776,11.308c11.028,0,16.473-6.84,16.473-20.383v-32.389
			c0-13.543-5.444-20.243-16.473-20.243c-6.282,0-11.168,2.792-14.38,8.377v-34.484H1685.122z"/>
	</defs>
	<clipPath id="SVGID_35_">
		<use xlink:href="#SVGID_34_"  overflow="visible"/>
	</clipPath>
	
		<linearGradient id="SVGID_36_" gradientUnits="userSpaceOnUse" x1="-171.3716" y1="1283.251" x2="-170.3716" y2="1283.251" gradientTransform="matrix(-1058.5797 1654.6732 1654.6732 1058.5797 -2302227.25 -1074437.25)">
		<stop  offset="0" style="stop-color:#2F6BB3"/>
		<stop  offset="1" style="stop-color:#273E7C"/>
	</linearGradient>
	<polygon clip-path="url(#SVGID_35_)" fill="url(#SVGID_36_)" points="1771.442,1712.921 1714.444,1802.015 1640.126,1754.469 
		1697.124,1665.375 	"/>
</g>
<g>
	<defs>
		<path id="SVGID_37_" d="M1739.286,1764.409c0-5.864,3.351-10.472,9.911-13.822c5.724-2.931,9.075-5.025,10.192-6.562v14.102
			c0,10.051-4.328,15.914-11.448,15.914C1742.219,1774.041,1739.286,1770.83,1739.286,1764.409 M1730.63,1730.623v1.536h9.912
			v-2.094c0-6.842,3.631-10.751,9.772-10.751c6.004,0,9.075,3.49,9.075,10.472v1.675c0,2.373-0.698,4.329-2.234,5.585
			c-1.535,1.255-5.165,3.21-11.027,5.863c-12.705,6.003-17.451,12.285-17.451,23.035c0,10.609,6.003,17.312,15.635,17.312
			c7.958,0,13.402-3.63,16.334-10.89c0.28,4.887,0.699,7.958,1.117,9.494h9.634c-0.978-4.328-1.536-10.611-1.536-19.126v-31.273
			c0-14.1-6.422-21.22-19.406-21.22C1737.75,1710.241,1730.63,1717.64,1730.63,1730.623"/>
	</defs>
	<clipPath id="SVGID_38_">
		<use xlink:href="#SVGID_37_"  overflow="visible"/>
	</clipPath>
	
		<linearGradient id="SVGID_39_" gradientUnits="userSpaceOnUse" x1="-171.3809" y1="1283.248" x2="-170.3695" y2="1283.248" gradientTransform="matrix(-1058.5797 1654.6732 1654.6732 1058.5797 -2302183.25 -1074409.25)">
		<stop  offset="0" style="stop-color:#2F6BB3"/>
		<stop  offset="1" style="stop-color:#273E7C"/>
	</linearGradient>
	<polygon clip-path="url(#SVGID_38_)" fill="url(#SVGID_39_)" points="1804.542,1731.446 1758.989,1802.648 1695.53,1762.051 
		1741.083,1690.848 	"/>
</g>
<g>
	<defs>
		<path id="SVGID_40_" d="M1785.214,1720.851l-0.141-9.214h-9.074v70.224h10.471v-46.63c0-10.052,4.468-15.637,11.029-15.637
			c5.863,0,8.795,4.049,8.795,12.286v49.98h10.61v-51.376c0-13.543-5.445-20.243-16.194-20.243
			C1793.312,1710.241,1788.146,1713.73,1785.214,1720.851"/>
	</defs>
	<clipPath id="SVGID_41_">
		<use xlink:href="#SVGID_40_"  overflow="visible"/>
	</clipPath>
	
		<linearGradient id="SVGID_42_" gradientUnits="userSpaceOnUse" x1="-171.3716" y1="1283.25" x2="-170.3716" y2="1283.25" gradientTransform="matrix(-1058.5797 1654.6732 1654.6732 1058.5797 -2302154.25 -1074389.25)">
		<stop  offset="0" style="stop-color:#2F6BB3"/>
		<stop  offset="1" style="stop-color:#273E7C"/>
	</linearGradient>
	<polygon clip-path="url(#SVGID_41_)" fill="url(#SVGID_42_)" points="1849.416,1731.041 1805.024,1800.429 1743.487,1761.061 
		1787.879,1691.672 	"/>
</g>
<g>
	<defs>
		<path id="SVGID_43_" d="M1831.979,1731.88c0-8.237,3.351-12.286,10.192-12.286c6.979,0,10.471,4.049,10.471,12.286v7.818h-20.663
			V1731.88z M1821.368,1732.856v27.644c0,14.52,7.4,22.756,20.803,22.756s20.802-8.236,20.802-22.756v-1.117h-10.192v2.093
			c0,8.238-3.49,12.427-10.47,12.427c-6.841,0-10.332-4.188-10.332-12.427v-13.122h30.994v-15.497
			c0-14.519-7.399-22.615-20.802-22.615C1828.628,1710.241,1821.368,1718.338,1821.368,1732.856"/>
	</defs>
	<clipPath id="SVGID_44_">
		<use xlink:href="#SVGID_43_"  overflow="visible"/>
	</clipPath>
	
		<linearGradient id="SVGID_45_" gradientUnits="userSpaceOnUse" x1="-171.3716" y1="1283.249" x2="-170.3716" y2="1283.249" gradientTransform="matrix(-1058.5797 1654.6732 1654.6732 1058.5797 -2302121.25 -1074369.25)">
		<stop  offset="0" style="stop-color:#2F6BB3"/>
		<stop  offset="1" style="stop-color:#273E7C"/>
	</linearGradient>
	<polygon clip-path="url(#SVGID_44_)" fill="url(#SVGID_45_)" points="1896.118,1731.446 1850.89,1802.143 1788.223,1762.051 
		1833.451,1691.354 	"/>
</g>
<g>
	<defs>
		<path id="SVGID_46_" d="M1865.203,1728.948c0,6.143,1.675,10.75,5.584,14.239c1.954,1.816,3.63,3.071,4.886,3.909
			c1.258,0.838,3.352,1.955,6.144,3.49c5.166,2.653,7.818,4.049,10.192,7.54c1.256,1.675,1.953,3.629,1.953,5.724
			c0,6.841-3.211,10.19-9.633,10.19s-9.633-3.629-9.633-10.749v-2.653h-10.191v2.374c0,12.704,7.539,20.243,20.384,20.243
			c12.424,0,19.545-7.399,19.545-19.546c0-6.003-1.676-10.47-5.445-13.82c-3.769-3.489-5.864-4.747-11.029-7.399
			c-5.584-2.792-7.956-4.049-10.61-7.538c-1.256-1.816-1.954-3.91-1.954-6.144c0-6.143,3.77-9.494,8.935-9.494
			c6.003,0,8.936,3.352,8.936,10.192v1.675h9.913v-1.396c0-12.146-7.4-19.545-18.988-19.545
			C1872.323,1710.241,1865.203,1717.361,1865.203,1728.948"/>
	</defs>
	<clipPath id="SVGID_47_">
		<use xlink:href="#SVGID_46_"  overflow="visible"/>
	</clipPath>
	
		<linearGradient id="SVGID_48_" gradientUnits="userSpaceOnUse" x1="-171.3716" y1="1283.25" x2="-170.3716" y2="1283.25" gradientTransform="matrix(-1058.5797 1654.6732 1654.6732 1058.5797 -2302091.25 -1074349.25)">
		<stop  offset="0" style="stop-color:#2F6BB3"/>
		<stop  offset="1" style="stop-color:#273E7C"/>
	</linearGradient>
	<polygon clip-path="url(#SVGID_47_)" fill="url(#SVGID_48_)" points="1937.579,1731.446 1892.837,1801.382 1831.358,1762.051 
		1876.101,1692.115 	"/>
</g>
<g>
	<defs>
		<path id="SVGID_49_" d="M1916.994,1731.88c0-8.237,3.351-12.286,10.191-12.286c6.979,0,10.471,4.049,10.471,12.286v7.818h-20.662
			V1731.88z M1906.384,1732.856v27.644c0,14.52,7.399,22.756,20.802,22.756c13.403,0,20.802-8.236,20.802-22.756v-1.117h-10.191
			v2.093c0,8.238-3.49,12.427-10.471,12.427c-6.841,0-10.331-4.188-10.331-12.427v-13.122h30.993v-15.497
			c0-14.519-7.398-22.615-20.802-22.615C1913.645,1710.241,1906.384,1718.338,1906.384,1732.856"/>
	</defs>
	<clipPath id="SVGID_50_">
		<use xlink:href="#SVGID_49_"  overflow="visible"/>
	</clipPath>
	
		<linearGradient id="SVGID_51_" gradientUnits="userSpaceOnUse" x1="-171.3716" y1="1283.25" x2="-170.3716" y2="1283.25" gradientTransform="matrix(-1058.5797 1654.6732 1654.6732 1058.5797 -2302061.25 -1074329.25)">
		<stop  offset="0" style="stop-color:#2F6BB3"/>
		<stop  offset="1" style="stop-color:#273E7C"/>
	</linearGradient>
	<polygon clip-path="url(#SVGID_50_)" fill="url(#SVGID_51_)" points="1981.133,1731.446 1935.904,1802.143 1873.237,1762.051 
		1918.466,1691.354 	"/>
</g>
<g>
	<defs>
		<polygon id="SVGID_52_" points="2012.621,1684.134 1998.382,1762.175 1984.001,1684.134 1968.227,1684.134 1968.227,1781.86 
			1977.858,1781.86 1977.858,1700.329 1993.356,1781.86 2002.569,1781.86 2018.066,1700.329 2018.066,1781.86 2028.537,1781.86 
			2028.537,1684.134 		"/>
	</defs>
	<clipPath id="SVGID_53_">
		<use xlink:href="#SVGID_52_"  overflow="visible"/>
	</clipPath>
	
		<linearGradient id="SVGID_54_" gradientUnits="userSpaceOnUse" x1="-171.3716" y1="1283.25" x2="-170.3716" y2="1283.25" gradientTransform="matrix(-1058.5797 1654.6732 1654.6732 1058.5797 -2302017.25 -1074301.25)">
		<stop  offset="0" style="stop-color:#2F6BB3"/>
		<stop  offset="1" style="stop-color:#273E7C"/>
	</linearGradient>
	<polygon clip-path="url(#SVGID_53_)" fill="url(#SVGID_54_)" points="2072.9,1712.516 2011.021,1809.238 1923.863,1753.479 
		1985.741,1656.756 	"/>
</g>
<g>
	<defs>
		<path id="SVGID_55_" d="M2044.028,1731.88c0-8.237,3.352-12.286,10.192-12.286c6.979,0,10.471,4.049,10.471,12.286v7.818h-20.663
			V1731.88z M2033.419,1732.856v27.644c0,14.52,7.399,22.756,20.802,22.756s20.802-8.236,20.802-22.756v-1.117h-10.192v2.093
			c0,8.238-3.489,12.427-10.471,12.427c-6.84,0-10.331-4.188-10.331-12.427v-13.122h30.994v-15.497
			c0-14.519-7.399-22.615-20.802-22.615C2040.68,1710.241,2033.419,1718.338,2033.419,1732.856"/>
	</defs>
	<clipPath id="SVGID_56_">
		<use xlink:href="#SVGID_55_"  overflow="visible"/>
	</clipPath>
	
		<linearGradient id="SVGID_57_" gradientUnits="userSpaceOnUse" x1="-171.3638" y1="1283.25" x2="-170.3751" y2="1283.25" gradientTransform="matrix(-1058.5797 1654.6732 1654.6732 1058.5797 -2301971.25 -1074273.25)">
		<stop  offset="0" style="stop-color:#2F6BB3"/>
		<stop  offset="1" style="stop-color:#273E7C"/>
	</linearGradient>
	<polygon clip-path="url(#SVGID_56_)" fill="url(#SVGID_57_)" points="2108.168,1731.446 2062.939,1802.143 2000.272,1762.051 
		2045.501,1691.354 	"/>
</g>
<g>
	<defs>
		<path id="SVGID_58_" d="M2089.261,1762.035v-30.713c0-7.818,2.931-11.729,8.934-11.729c6.701,0,11.309,5.585,11.309,15.637v23.035
			c0,10.053-4.607,15.637-11.309,15.637C2092.191,1773.902,2089.261,1769.993,2089.261,1762.035 M2109.503,1684.134v34.484
			c-3.211-5.585-8.098-8.377-14.52-8.377c-10.889,0-16.334,6.7-16.334,20.243v32.389c0,13.543,5.445,20.383,16.334,20.383
			c7.398,0,12.704-3.63,15.775-10.89c0.14,4.606,0.56,7.818,1.117,9.494h9.633c-0.978-4.328-1.535-10.611-1.535-19.126v-78.601
			H2109.503z"/>
	</defs>
	<clipPath id="SVGID_59_">
		<use xlink:href="#SVGID_58_"  overflow="visible"/>
	</clipPath>
	
		<linearGradient id="SVGID_60_" gradientUnits="userSpaceOnUse" x1="-171.3716" y1="1283.2441" x2="-170.3716" y2="1283.2441" gradientTransform="matrix(-1058.5797 1654.6732 1654.6732 1058.5797 -2301936.25 -1074249.25)">
		<stop  offset="0" style="stop-color:#2F6BB3"/>
		<stop  offset="1" style="stop-color:#273E7C"/>
	</linearGradient>
	<polygon clip-path="url(#SVGID_59_)" fill="url(#SVGID_60_)" points="2166.505,1712.921 2109.062,1802.712 2033.652,1754.469 
		2091.097,1664.678 	"/>
</g>
<g>
	<defs>
		<path id="SVGID_61_" d="M2126.392,1781.86h10.47v-70.224h-10.47V1781.86z M2126.392,1701.585h10.47v-15.078h-10.47V1701.585z"/>
	</defs>
	<clipPath id="SVGID_62_">
		<use xlink:href="#SVGID_61_"  overflow="visible"/>
	</clipPath>
	
		<linearGradient id="SVGID_63_" gradientUnits="userSpaceOnUse" x1="-171.3716" y1="1283.25" x2="-170.3716" y2="1283.25" gradientTransform="matrix(-1058.5797 1654.6732 1654.6732 1058.5797 -2301922.25 -1074241.25)">
		<stop  offset="0" style="stop-color:#2F6BB3"/>
		<stop  offset="1" style="stop-color:#273E7C"/>
	</linearGradient>
	<polygon clip-path="url(#SVGID_62_)" fill="url(#SVGID_63_)" points="2180.147,1714.199 2133.82,1786.613 2083.105,1754.168 
		2129.432,1681.754 	"/>
</g>
<g>
	<defs>
		<path id="SVGID_64_" d="M2141.886,1732.578v28.201c0,14.519,7.119,22.477,20.522,22.477c13.263,0,20.104-8.098,20.104-22.477
			v-4.469h-10.191v5.445c0,8.098-3.351,12.146-9.912,12.146s-9.913-4.049-9.913-12.146v-30.155c0-7.958,3.352-12.007,9.913-12.007
			s9.912,4.049,9.912,12.007v4.048h10.191v-3.07c0-14.102-6.841-22.337-20.104-22.337
			C2149.005,1710.241,2141.886,1718.059,2141.886,1732.578"/>
	</defs>
	<clipPath id="SVGID_65_">
		<use xlink:href="#SVGID_64_"  overflow="visible"/>
	</clipPath>
	
		<linearGradient id="SVGID_66_" gradientUnits="userSpaceOnUse" x1="-171.3721" y1="1283.25" x2="-170.3721" y2="1283.25" gradientTransform="matrix(-1058.5797 1654.6732 1654.6732 1058.5797 -2301894.25 -1074225.25)">
		<stop  offset="0" style="stop-color:#2F6BB3"/>
		<stop  offset="1" style="stop-color:#273E7C"/>
	</linearGradient>
	<polygon clip-path="url(#SVGID_65_)" fill="url(#SVGID_66_)" points="2215.657,1731.446 2170.713,1801.698 2108.739,1762.051 
		2153.684,1691.799 	"/>
</g>
<g>
	<defs>
		<path id="SVGID_67_" d="M2186.417,1781.86h10.472v-70.224h-10.472V1781.86z M2186.417,1701.585h10.472v-15.078h-10.472V1701.585z"
			/>
	</defs>
	<clipPath id="SVGID_68_">
		<use xlink:href="#SVGID_67_"  overflow="visible"/>
	</clipPath>
	
		<linearGradient id="SVGID_69_" gradientUnits="userSpaceOnUse" x1="-171.3716" y1="1283.25" x2="-170.3716" y2="1283.25" gradientTransform="matrix(-1058.5797 1654.6732 1654.6732 1058.5797 -2301879.25 -1074213.25)">
		<stop  offset="0" style="stop-color:#2F6BB3"/>
		<stop  offset="1" style="stop-color:#273E7C"/>
	</linearGradient>
	<polygon clip-path="url(#SVGID_68_)" fill="url(#SVGID_69_)" points="2240.175,1714.199 2193.847,1786.613 2143.132,1754.168 
		2189.458,1681.754 	"/>
</g>
<g>
	<defs>
		<path id="SVGID_70_" d="M2212.522,1720.851l-0.141-9.214h-9.073v70.224h10.47v-46.63c0-10.052,4.468-15.637,11.03-15.637
			c5.862,0,8.795,4.049,8.795,12.286v49.98h10.61v-51.376c0-13.543-5.445-20.243-16.195-20.243
			C2220.619,1710.241,2215.453,1713.73,2212.522,1720.851"/>
	</defs>
	<clipPath id="SVGID_71_">
		<use xlink:href="#SVGID_70_"  overflow="visible"/>
	</clipPath>
	
		<linearGradient id="SVGID_72_" gradientUnits="userSpaceOnUse" x1="-171.3716" y1="1283.249" x2="-170.3716" y2="1283.249" gradientTransform="matrix(-1058.5797 1654.6732 1654.6732 1058.5797 -2301850.25 -1074197.25)">
		<stop  offset="0" style="stop-color:#2F6BB3"/>
		<stop  offset="1" style="stop-color:#273E7C"/>
	</linearGradient>
	<polygon clip-path="url(#SVGID_71_)" fill="url(#SVGID_72_)" points="2276.726,1731.041 2232.334,1800.429 2170.797,1761.061 
		2215.188,1691.672 	"/>
</g>
<g>
	<defs>
		<path id="SVGID_73_" d="M2259.288,1731.88c0-8.237,3.351-12.286,10.191-12.286c6.98,0,10.471,4.049,10.471,12.286v7.818h-20.662
			V1731.88z M2248.678,1732.856v27.644c0,14.52,7.399,22.756,20.802,22.756s20.801-8.236,20.801-22.756v-1.117h-10.191v2.093
			c0,8.238-3.489,12.427-10.47,12.427c-6.841,0-10.331-4.188-10.331-12.427v-13.122h30.992v-15.497
			c0-14.519-7.398-22.615-20.801-22.615C2255.938,1710.241,2248.678,1718.338,2248.678,1732.856"/>
	</defs>
	<clipPath id="SVGID_74_">
		<use xlink:href="#SVGID_73_"  overflow="visible"/>
	</clipPath>
	
		<linearGradient id="SVGID_75_" gradientUnits="userSpaceOnUse" x1="-171.3647" y1="1283.25" x2="-170.3761" y2="1283.25" gradientTransform="matrix(-1058.5797 1654.6732 1654.6732 1058.5797 -2301818.25 -1074173.25)">
		<stop  offset="0" style="stop-color:#2F6BB3"/>
		<stop  offset="1" style="stop-color:#273E7C"/>
	</linearGradient>
	<polygon clip-path="url(#SVGID_74_)" fill="url(#SVGID_75_)" points="2323.426,1731.446 2278.198,1802.143 2215.532,1762.051 
		2260.76,1691.355 	"/>
</g>
<g>
	<defs>
		<path id="SVGID_76_" d="M2321.408,1694.046h11.169c7.819,0,11.448,3.77,11.448,13.263v51.236c0,9.493-3.629,13.403-11.448,13.403
			h-11.169V1694.046z M2310.52,1684.134v97.727h22.337c14.659,0,22.058-7.958,22.058-23.733v-50.26
			c0-15.775-7.398-23.733-22.058-23.733H2310.52z"/>
	</defs>
	<clipPath id="SVGID_77_">
		<use xlink:href="#SVGID_76_"  overflow="visible"/>
	</clipPath>
	
		<linearGradient id="SVGID_78_" gradientUnits="userSpaceOnUse" x1="-171.3662" y1="1283.252" x2="-170.3752" y2="1283.252" gradientTransform="matrix(-1058.5797 1654.6732 1654.6732 1058.5797 -2301783.25 -1074153.25)">
		<stop  offset="0" style="stop-color:#2F6BB3"/>
		<stop  offset="1" style="stop-color:#273E7C"/>
	</linearGradient>
	<polygon clip-path="url(#SVGID_77_)" fill="url(#SVGID_78_)" points="2399.277,1712.516 2342.021,1802.014 2266.155,1753.479 
		2323.412,1663.98 	"/>
</g>
<g>
	<defs>
		<path id="SVGID_79_" d="M2360.216,1781.86h10.471v-70.224h-10.471V1781.86z M2360.216,1701.585h10.471v-15.078h-10.471V1701.585z"
			/>
	</defs>
	<clipPath id="SVGID_80_">
		<use xlink:href="#SVGID_79_"  overflow="visible"/>
	</clipPath>
	
		<linearGradient id="SVGID_81_" gradientUnits="userSpaceOnUse" x1="-171.3716" y1="1283.25" x2="-170.3716" y2="1283.25" gradientTransform="matrix(-1058.5797 1654.6732 1654.6732 1058.5797 -2301756.25 -1074133.25)">
		<stop  offset="0" style="stop-color:#2F6BB3"/>
		<stop  offset="1" style="stop-color:#273E7C"/>
	</linearGradient>
	<polygon clip-path="url(#SVGID_80_)" fill="url(#SVGID_81_)" points="2413.972,1714.199 2367.646,1786.613 2316.931,1754.168 
		2363.257,1681.754 	"/>
</g>
<g>
	<defs>
		<path id="SVGID_82_" d="M2386.321,1723.224l-0.14-11.587h-9.074v70.224h10.47v-40.905c0-13.543,4.607-20.244,13.682-20.244
			c1.676,0,3.072,0.279,4.328,0.698v-10.331c-1.116-0.56-2.652-0.837-4.607-0.837
			C2393.58,1710.241,2388.694,1714.568,2386.321,1723.224"/>
	</defs>
	<clipPath id="SVGID_83_">
		<use xlink:href="#SVGID_82_"  overflow="visible"/>
	</clipPath>
	
		<linearGradient id="SVGID_84_" gradientUnits="userSpaceOnUse" x1="-171.3716" y1="1283.2529" x2="-170.3716" y2="1283.2529" gradientTransform="matrix(-1058.5797 1654.6732 1654.6732 1058.5797 -2301738.25 -1074125.25)">
		<stop  offset="0" style="stop-color:#2F6BB3"/>
		<stop  offset="1" style="stop-color:#273E7C"/>
	</linearGradient>
	<polygon clip-path="url(#SVGID_83_)" fill="url(#SVGID_84_)" points="2438.099,1731.04 2397.315,1794.788 2344.596,1761.061 
		2385.378,1697.313 	"/>
</g>
<g>
	<defs>
		<path id="SVGID_85_" d="M2415.498,1731.88c0-8.237,3.352-12.286,10.192-12.286c6.979,0,10.469,4.049,10.469,12.286v7.818h-20.661
			V1731.88z M2404.889,1732.856v27.644c0,14.52,7.398,22.756,20.802,22.756c13.4,0,20.8-8.236,20.8-22.756v-1.117h-10.19v2.093
			c0,8.238-3.49,12.427-10.471,12.427c-6.841,0-10.331-4.188-10.331-12.427v-13.122h30.992v-15.497
			c0-14.519-7.399-22.615-20.8-22.615C2412.147,1710.241,2404.889,1718.338,2404.889,1732.856"/>
	</defs>
	<clipPath id="SVGID_86_">
		<use xlink:href="#SVGID_85_"  overflow="visible"/>
	</clipPath>
	
		<linearGradient id="SVGID_87_" gradientUnits="userSpaceOnUse" x1="-171.3716" y1="1283.25" x2="-170.3716" y2="1283.25" gradientTransform="matrix(-1058.5797 1654.6732 1654.6732 1058.5797 -2301707.25 -1074105.25)">
		<stop  offset="0" style="stop-color:#2F6BB3"/>
		<stop  offset="1" style="stop-color:#273E7C"/>
	</linearGradient>
	<polygon clip-path="url(#SVGID_86_)" fill="url(#SVGID_87_)" points="2479.636,1731.446 2434.408,1802.142 2371.743,1762.051 
		2416.971,1691.355 	"/>
</g>
<g>
	<defs>
		<path id="SVGID_88_" d="M2449.839,1732.578v28.201c0,14.519,7.119,22.477,20.522,22.477c13.262,0,20.103-8.098,20.103-22.477
			v-4.469h-10.19v5.445c0,8.098-3.351,12.146-9.912,12.146s-9.913-4.049-9.913-12.146v-30.155c0-7.958,3.352-12.007,9.913-12.007
			s9.912,4.049,9.912,12.007v4.048h10.19v-3.07c0-14.102-6.841-22.337-20.103-22.337
			C2456.958,1710.241,2449.839,1718.059,2449.839,1732.578"/>
	</defs>
	<clipPath id="SVGID_89_">
		<use xlink:href="#SVGID_88_"  overflow="visible"/>
	</clipPath>
	
		<linearGradient id="SVGID_90_" gradientUnits="userSpaceOnUse" x1="-171.3721" y1="1283.25" x2="-170.3721" y2="1283.25" gradientTransform="matrix(-1058.5797 1654.6732 1654.6732 1058.5797 -2301676.25 -1074085.25)">
		<stop  offset="0" style="stop-color:#2F6BB3"/>
		<stop  offset="1" style="stop-color:#273E7C"/>
	</linearGradient>
	<polygon clip-path="url(#SVGID_89_)" fill="url(#SVGID_90_)" points="2523.61,1731.445 2478.666,1801.698 2416.692,1762.051 
		2461.637,1691.799 	"/>
</g>
<g>
	<defs>
		<path id="SVGID_91_" d="M2500.095,1691.393l-1.117,20.244h-9.074v8.935h8.656v46.629c0,10.751,5.165,16.056,15.496,16.056
			c3.072,0,5.724-0.419,7.817-1.396v-9.074c-1.814,0.696-3.769,1.116-5.862,1.116c-5.027,0-6.842-2.234-6.842-7.818v-45.513h12.704
			v-8.935h-12.704v-20.244H2500.095z"/>
	</defs>
	<clipPath id="SVGID_92_">
		<use xlink:href="#SVGID_91_"  overflow="visible"/>
	</clipPath>
	
		<linearGradient id="SVGID_93_" gradientUnits="userSpaceOnUse" x1="-171.3716" y1="1283.248" x2="-170.3716" y2="1283.248" gradientTransform="matrix(-1058.5797 1654.6732 1654.6732 1058.5797 -2301651.25 -1074069.25)">
		<stop  offset="0" style="stop-color:#2F6BB3"/>
		<stop  offset="1" style="stop-color:#273E7C"/>
	</linearGradient>
	<polygon clip-path="url(#SVGID_92_)" fill="url(#SVGID_93_)" points="2563.575,1718.071 2512.589,1797.769 2448.201,1756.577 
		2499.188,1676.88 	"/>
</g>
<g>
	<defs>
		<path id="SVGID_94_" d="M2533.321,1761.476v-29.596c0-8.237,3.35-12.286,10.191-12.286c6.701,0,10.052,4.049,10.052,12.286v29.596
			c0,8.238-3.351,12.427-10.052,12.427C2536.671,1773.902,2533.321,1769.714,2533.321,1761.476 M2522.851,1732.856v27.644
			c0,14.52,7.259,22.756,20.662,22.756c13.263,0,20.662-8.236,20.662-22.756v-27.644c0-14.519-7.399-22.615-20.662-22.615
			C2530.109,1710.241,2522.851,1718.338,2522.851,1732.856"/>
	</defs>
	<clipPath id="SVGID_95_">
		<use xlink:href="#SVGID_94_"  overflow="visible"/>
	</clipPath>
	
		<linearGradient id="SVGID_96_" gradientUnits="userSpaceOnUse" x1="-171.3652" y1="1283.25" x2="-170.3766" y2="1283.25" gradientTransform="matrix(-1058.5797 1654.6732 1654.6732 1058.5797 -2301624.25 -1074049.25)">
		<stop  offset="0" style="stop-color:#2F6BB3"/>
		<stop  offset="1" style="stop-color:#273E7C"/>
	</linearGradient>
	<polygon clip-path="url(#SVGID_95_)" fill="url(#SVGID_96_)" points="2597.319,1731.446 2552.173,1802.016 2489.704,1762.051 
		2534.852,1691.481 	"/>
</g>
<g>
	<defs>
		<path id="SVGID_97_" d="M2578.271,1723.224l-0.14-11.587h-9.075v70.224h10.471v-40.905c0-13.543,4.606-20.244,13.681-20.244
			c1.676,0,3.072,0.279,4.328,0.698v-10.331c-1.115-0.56-2.652-0.837-4.606-0.837
			C2585.53,1710.241,2580.645,1714.568,2578.271,1723.224"/>
	</defs>
	<clipPath id="SVGID_98_">
		<use xlink:href="#SVGID_97_"  overflow="visible"/>
	</clipPath>
	
		<linearGradient id="SVGID_99_" gradientUnits="userSpaceOnUse" x1="-171.3716" y1="1283.2539" x2="-170.3716" y2="1283.2539" gradientTransform="matrix(-1058.5797 1654.6732 1654.6732 1058.5797 -2301602.25 -1074037.25)">
		<stop  offset="0" style="stop-color:#2F6BB3"/>
		<stop  offset="1" style="stop-color:#273E7C"/>
	</linearGradient>
	<polygon clip-path="url(#SVGID_98_)" fill="url(#SVGID_99_)" points="2630.048,1731.041 2589.265,1794.789 2536.544,1761.061 
		2577.327,1697.313 	"/>
</g>
<g>
	<defs>
		<path id="SVGID_100_" d="M2630.341,1711.637l-11.447,53.469l-12.704-53.469h-10.749l17.869,71.061l-1.256,5.585
			c-1.258,5.585-3.071,7.259-8.099,7.259c-2.232,0-4.048-0.418-5.584-1.116v9.074c1.675,0.978,4.05,1.396,7.121,1.396
			c9.632,0,14.519-4.326,16.892-15.078l2.933-12.844l14.798-65.336H2630.341z"/>
	</defs>
	<clipPath id="SVGID_101_">
		<use xlink:href="#SVGID_100_"  overflow="visible"/>
	</clipPath>
	
		<linearGradient id="SVGID_102_" gradientUnits="userSpaceOnUse" x1="-171.3716" y1="1283.2559" x2="-170.3716" y2="1283.2559" gradientTransform="matrix(-1058.5797 1654.6732 1654.6732 1058.5797 -2301575.25 -1074017.25)">
		<stop  offset="0" style="stop-color:#2F6BB3"/>
		<stop  offset="1" style="stop-color:#273E7C"/>
	</linearGradient>
	<polygon clip-path="url(#SVGID_101_)" fill="url(#SVGID_102_)" points="2682.449,1738.721 2627.14,1825.175 2553.105,1777.811 
		2608.415,1691.356 	"/>
</g>
<g>
	<defs>
		<rect id="SVGID_103_" x="-1447.218" y="-2909.151" width="1064.488" height="1064.488"/>
	</defs>
	<clipPath id="SVGID_104_">
		<use xlink:href="#SVGID_103_"  overflow="visible"/>
	</clipPath>
	
		<linearGradient id="SVGID_105_" gradientUnits="userSpaceOnUse" x1="-175.6309" y1="1282.2129" x2="-174.6309" y2="1282.2129" gradientTransform="matrix(645.1898 552.3568 552.3568 -645.1898 -596186.25 921604.875)">
		<stop  offset="0" style="stop-color:#009676"/>
		<stop  offset="1" style="stop-color:#0D5042"/>
		<stop  offset="1" style="stop-color:#FFF2E9"/>
	</linearGradient>
	<polygon clip-path="url(#SVGID_104_)" fill="url(#SVGID_105_)" points="-996.999,-3435.037 143.156,-2458.933 -832.948,-1318.777 
		-1973.104,-2294.882 	"/>
</g>
<g>
	<defs>
		<path id="SVGID_106_" d="M-904.707-2491.751h-45.783h-187.742c-71.398,0-134.111,53.734-138.588,124.992
			c-4.87,77.52,56.812,142.149,133.298,142.149h147.428c6.496,0,11.761-5.266,11.761-11.76v-22.094c0-0.001-0.001-0.001-0.001-0.001
			h-159.188c-59.131,0-106.408-51.725-98.946-112.308c6.232-50.603,51.961-87.123,102.946-87.123l189.032,0.001h84.905
			c0.353,0,0.639,0.285,0.639,0.636v123.895v0.001h21.446c6.847,0,12.396-5.55,12.396-12.397v-111.498
			c0-0.351,0.286-0.636,0.637-0.636h50.427c0.351,0,0.636,0.285,0.636,0.636v123.895c0,0.001,0.001,0.001,0.001,0.001h21.447
			c6.846,0,12.396-5.55,12.396-12.397v-145.99H-904.707z"/>
	</defs>
	<clipPath id="SVGID_107_">
		<use xlink:href="#SVGID_106_"  overflow="visible"/>
	</clipPath>
	
		<linearGradient id="SVGID_108_" gradientUnits="userSpaceOnUse" x1="-174.9268" y1="1282.1094" x2="-173.9268" y2="1282.1094" gradientTransform="matrix(731.339 711.024 711.024 -731.339 -784890.5625 1059483.5)">
		<stop  offset="0" style="stop-color:#FFFFFF"/>
		<stop  offset="8.073430e-008" style="stop-color:#FFFFFF"/>
		<stop  offset="1" style="stop-color:#898B8D"/>
	</linearGradient>
	<polygon clip-path="url(#SVGID_107_)" fill="url(#SVGID_108_)" points="-1021.176,-2759.71 -612.044,-2361.943 
		-1006.076,-1956.652 -1415.208,-2354.419 	"/>
</g>
<g>
	<defs>
		<path id="SVGID_109_" d="M-950.49-2424.653v90.609v42.336v55.339c0,6.494,5.266,11.759,11.761,11.759h250.674
			c66.836,0,122.203-49.402,131.904-113.577h-34.198c-9.285,45.436-49.564,79.722-97.706,79.722h-228.59v-33.243v-42.336v-78.849
			c0-6.495-5.265-11.76-11.76-11.76H-950.49z"/>
	</defs>
	<clipPath id="SVGID_110_">
		<use xlink:href="#SVGID_109_"  overflow="visible"/>
	</clipPath>
	
		<linearGradient id="SVGID_111_" gradientUnits="userSpaceOnUse" x1="-174.9268" y1="1282.165" x2="-173.9268" y2="1282.165" gradientTransform="matrix(731.339 711.024 711.024 -731.339 -784820.5625 1059412)">
		<stop  offset="0" style="stop-color:#FFFFFF"/>
		<stop  offset="8.073430e-008" style="stop-color:#FFFFFF"/>
		<stop  offset="1" style="stop-color:#898B8D"/>
	</linearGradient>
	<polygon clip-path="url(#SVGID_110_)" fill="url(#SVGID_111_)" points="-758.874,-2621.744 -456.17,-2327.449 -747.768,-2027.52 
		-1050.472,-2321.815 	"/>
</g>
<g>
	<defs>
		<path id="SVGID_112_" d="M-699.959-2491.751c-6.494,0-11.759,5.266-11.759,11.76v22.096h23.662
			c50.274,0,91.864,37.424,98.646,85.853h34.197c-6.957-67.159-63.875-119.709-132.843-119.709H-699.959z"/>
	</defs>
	<clipPath id="SVGID_113_">
		<use xlink:href="#SVGID_112_"  overflow="visible"/>
	</clipPath>
	
		<linearGradient id="SVGID_114_" gradientUnits="userSpaceOnUse" x1="-174.9268" y1="1282.1348" x2="-173.9268" y2="1282.1348" gradientTransform="matrix(731.339 711.024 711.024 -731.339 -784686.5625 1059274.25)">
		<stop  offset="0" style="stop-color:#FFFFFF"/>
		<stop  offset="8.073430e-008" style="stop-color:#FFFFFF"/>
		<stop  offset="1" style="stop-color:#898B8D"/>
	</linearGradient>
	<polygon clip-path="url(#SVGID_113_)" fill="url(#SVGID_114_)" points="-635.669,-2569.973 -495.382,-2433.583 -631.262,-2293.821 
		-771.549,-2430.211 	"/>
</g>
<g>
	<defs>
		<path id="SVGID_115_" d="M-632.799-2546.849h5.635c2.913,0,5.004,0.71,6.27,2.128c1.265,1.42,1.896,3.968,1.896,7.647v7.016
			c0,2.914-0.537,4.964-1.608,6.152c-1.075,1.19-2.724,1.783-4.945,1.783h-7.247V-2546.849z M-632.799-2579.624h6.098
			c2.223,0,3.851,0.652,4.888,1.956c1.034,1.304,1.551,3.412,1.551,6.324v4.486c0,3.067-0.632,5.252-1.897,6.554
			c-1.266,1.305-3.162,1.956-5.693,1.956h-4.945V-2579.624z M-645.447-2591.122v80.499h19.896c6.285,0,11.058-1.627,14.316-4.887
			c3.259-3.258,4.887-7.993,4.887-14.202v-6.901c0-9.045-3.144-14.642-9.428-16.789v-0.23c2.759-1.151,4.811-3.028,6.151-5.636
			c1.34-2.605,2.014-5.979,2.014-10.119v-3.22c0-6.286-1.496-10.944-4.486-13.973c-2.989-3.027-7.744-4.542-14.26-4.542H-645.447z"
			/>
	</defs>
	<clipPath id="SVGID_116_">
		<use xlink:href="#SVGID_115_"  overflow="visible"/>
	</clipPath>
	
		<linearGradient id="SVGID_117_" gradientUnits="userSpaceOnUse" x1="-181.4888" y1="1281.0293" x2="-180.4888" y2="1281.0293" gradientTransform="matrix(258.3246 221.6828 221.6828 -258.3246 -237782.375 368554.7188)">
		<stop  offset="0" style="stop-color:#FFFFFF"/>
		<stop  offset="8.073430e-008" style="stop-color:#FFFFFF"/>
		<stop  offset="1" style="stop-color:#898B8D"/>
	</linearGradient>
	<polygon clip-path="url(#SVGID_116_)" fill="url(#SVGID_117_)" points="-628.865,-2610.445 -566.565,-2556.982 -622.931,-2491.3 
		-685.23,-2544.764 	"/>
</g>
<g>
	<defs>
		<polygon id="SVGID_118_" points="-598.987,-2591.122 -598.987,-2510.624 -564.487,-2510.624 -564.487,-2522.122 
			-586.34,-2522.122 -586.34,-2546.849 -568.974,-2546.849 -568.974,-2558.348 -586.34,-2558.348 -586.34,-2579.624 
			-564.487,-2579.624 -564.487,-2591.122 		"/>
	</defs>
	<clipPath id="SVGID_119_">
		<use xlink:href="#SVGID_118_"  overflow="visible"/>
	</clipPath>
	
		<linearGradient id="SVGID_120_" gradientUnits="userSpaceOnUse" x1="-181.4888" y1="1281.0186" x2="-180.4888" y2="1281.0186" gradientTransform="matrix(258.3246 221.6828 221.6828 -258.3246 -237761.125 368530.1563)">
		<stop  offset="0" style="stop-color:#FFFFFF"/>
		<stop  offset="8.073430e-008" style="stop-color:#FFFFFF"/>
		<stop  offset="1" style="stop-color:#898B8D"/>
	</linearGradient>
	<polygon clip-path="url(#SVGID_119_)" fill="url(#SVGID_120_)" points="-584.356,-2608.172 -524.705,-2556.982 -579.119,-2493.573 
		-638.771,-2544.764 	"/>
</g>
<g>
	<defs>
		<polygon id="SVGID_121_" points="-560.578,-2591.122 -560.578,-2579.624 -547.354,-2579.624 -547.354,-2510.624 
			-534.703,-2510.624 -534.703,-2579.624 -521.479,-2579.624 -521.479,-2591.122 		"/>
	</defs>
	<clipPath id="SVGID_122_">
		<use xlink:href="#SVGID_121_"  overflow="visible"/>
	</clipPath>
	
		<linearGradient id="SVGID_123_" gradientUnits="userSpaceOnUse" x1="-181.4888" y1="1281.0068" x2="-180.4888" y2="1281.0068" gradientTransform="matrix(258.3246 221.6828 221.6828 -258.3246 -237741.125 368506.7813)">
		<stop  offset="0" style="stop-color:#FFFFFF"/>
		<stop  offset="8.073430e-008" style="stop-color:#FFFFFF"/>
		<stop  offset="1" style="stop-color:#898B8D"/>
	</linearGradient>
	<polygon clip-path="url(#SVGID_122_)" fill="url(#SVGID_123_)" points="-543.996,-2610.445 -481.697,-2556.982 -538.063,-2491.301 
		-600.361,-2544.764 	"/>
</g>
<g>
	<defs>
		<path id="SVGID_124_" d="M-502.963-2577.093h0.229l5.635,39.79h-11.384L-502.963-2577.093z M-510.896-2591.122l-13.112,80.499
			h11.731l2.3-15.754h14.375v-0.23l2.3,15.984h12.649l-13.108-80.499H-510.896z"/>
	</defs>
	<clipPath id="SVGID_125_">
		<use xlink:href="#SVGID_124_"  overflow="visible"/>
	</clipPath>
	
		<linearGradient id="SVGID_126_" gradientUnits="userSpaceOnUse" x1="-181.4888" y1="1281.0313" x2="-180.4888" y2="1281.0313" gradientTransform="matrix(258.3246 221.6828 221.6828 -258.3246 -237730.375 368494.1563)">
		<stop  offset="0" style="stop-color:#FFFFFF"/>
		<stop  offset="8.073430e-008" style="stop-color:#FFFFFF"/>
		<stop  offset="1" style="stop-color:#898B8D"/>
	</linearGradient>
	<polygon clip-path="url(#SVGID_125_)" fill="url(#SVGID_126_)" points="-505.622,-2612.548 -440.871,-2556.982 -499.041,-2489.197 
		-563.792,-2544.764 	"/>
</g>
<g>
	<defs>
		<rect id="SVGID_127_" y="-2076.164" width="3094.319" height="2664.382"/>
	</defs>
	<clipPath id="SVGID_128_">
		<use xlink:href="#SVGID_127_"  overflow="visible"/>
	</clipPath>
	
		<linearGradient id="SVGID_129_" gradientUnits="userSpaceOnUse" x1="-171.4341" y1="1284.1172" x2="-170.4341" y2="1284.1172" gradientTransform="matrix(622.112 0 0 -622.112 107042.2266 797232.6875)">
		<stop  offset="0" style="stop-color:#009676"/>
		<stop  offset="1" style="stop-color:#0D5042"/>
		<stop  offset="1" style="stop-color:#FFF2E9"/>
	</linearGradient>
	<path clip-path="url(#SVGID_128_)" fill="url(#SVGID_129_)" d="M939.349-1558.918L939.349-1558.918H463.967
		c-40.242,0-72.865-32.623-72.865-72.865c0-40.243,32.623-72.866,72.865-72.866h475.382c40.242,0,72.865,32.624,72.865,72.866
		C1012.214-1591.541,979.591-1558.918,939.349-1558.918L939.349-1558.918L939.349-1558.918c40.242,0,72.865-32.623,72.865-72.865
		c0-40.243-32.623-72.866-72.865-72.866H463.967c-40.242,0-72.865,32.624-72.865,72.866c0,40.243,32.623,72.865,72.865,72.865
		H939.349L939.349-1558.918z"/>
</g>
<g>
	<defs>
		<path id="SVGID_130_" d="M345.758-1808.64h6.637c6.826,0,9.385,2.749,9.385,9.955v5.688c0,6.352-2.465,8.912-7.869,8.912h-8.153
			V-1808.64z M345.758-1836.985h7.206c5.592,0,7.774,2.656,7.774,9.101v3.413c0,6.447-2.75,9.102-8.723,9.102h-6.257V-1836.985z
			 M338.364-1843.716v66.362h15.547c10.144,0,15.264-5.119,15.264-15.453v-5.689c0-7.678-2.844-12.324-8.437-13.936v-0.189
			c4.929-1.802,7.393-6.163,7.393-13.273v-2.748c0-10.334-4.454-15.074-14.978-15.074H338.364z"/>
	</defs>
	<clipPath id="SVGID_131_">
		<use xlink:href="#SVGID_130_"  overflow="visible"/>
	</clipPath>
	
		<linearGradient id="SVGID_132_" gradientUnits="userSpaceOnUse" x1="-173.4878" y1="1285.4863" x2="-172.49" y2="1285.4863" gradientTransform="matrix(232.7833 166.9967 166.9967 -232.7833 -173971.0625 326374.1563)">
		<stop  offset="0" style="stop-color:#009776"/>
		<stop  offset="1" style="stop-color:#0C5041"/>
		<stop  offset="1" style="stop-color:#FFF3E9"/>
	</linearGradient>
	<polygon clip-path="url(#SVGID_131_)" fill="url(#SVGID_132_)" points="348.833,-1858.309 400.606,-1821.167 358.706,-1762.76 
		306.933,-1799.902 	"/>
</g>
<g>
	<defs>
		<polygon id="SVGID_133_" points="376.472,-1843.716 376.472,-1777.354 403.68,-1777.354 403.68,-1784.085 383.866,-1784.085 
			383.866,-1808.64 399.982,-1808.64 399.982,-1815.37 383.866,-1815.37 383.866,-1836.985 403.68,-1836.985 403.68,-1843.716 		"/>
	</defs>
	<clipPath id="SVGID_134_">
		<use xlink:href="#SVGID_133_"  overflow="visible"/>
	</clipPath>
	
		<linearGradient id="SVGID_135_" gradientUnits="userSpaceOnUse" x1="-173.4878" y1="1285.4766" x2="-172.4878" y2="1285.4766" gradientTransform="matrix(232.7833 166.9967 166.9967 -232.7833 -173957.0625 326354.6563)">
		<stop  offset="0" style="stop-color:#009776"/>
		<stop  offset="1" style="stop-color:#0C5041"/>
		<stop  offset="1" style="stop-color:#FFF3E9"/>
	</linearGradient>
	<polygon clip-path="url(#SVGID_134_)" fill="url(#SVGID_135_)" points="385.717,-1856.602 435.111,-1821.167 394.435,-1764.467 
		345.041,-1799.902 	"/>
</g>
<g>
	<defs>
		<polygon id="SVGID_136_" points="407.28,-1843.716 407.28,-1836.985 419.035,-1836.985 419.035,-1777.354 426.43,-1777.354 
			426.43,-1836.985 438.186,-1836.985 438.186,-1843.716 		"/>
	</defs>
	<clipPath id="SVGID_137_">
		<use xlink:href="#SVGID_136_"  overflow="visible"/>
	</clipPath>
	
		<linearGradient id="SVGID_138_" gradientUnits="userSpaceOnUse" x1="-173.4878" y1="1285.4648" x2="-172.4878" y2="1285.4648" gradientTransform="matrix(232.7833 166.9967 166.9967 -232.7833 -173944.0625 326336.4063)">
		<stop  offset="0" style="stop-color:#009776"/>
		<stop  offset="1" style="stop-color:#0C5041"/>
		<stop  offset="1" style="stop-color:#FFF3E9"/>
	</linearGradient>
	<polygon clip-path="url(#SVGID_137_)" fill="url(#SVGID_138_)" points="417.781,-1858.354 469.617,-1821.167 427.685,-1762.715 
		375.849,-1799.902 	"/>
</g>
<g>
	<defs>
		<path id="SVGID_139_" d="M453.164-1835.278l6.636,37.353h-13.082L453.164-1835.278z M448.519-1843.716l-12.325,66.362h6.921
			l2.465-14.126h15.359l2.464,14.126h7.49l-12.419-66.362H448.519z"/>
	</defs>
	<clipPath id="SVGID_140_">
		<use xlink:href="#SVGID_139_"  overflow="visible"/>
	</clipPath>
	
		<linearGradient id="SVGID_141_" gradientUnits="userSpaceOnUse" x1="-173.4878" y1="1285.4902" x2="-172.4878" y2="1285.4902" gradientTransform="matrix(232.7833 166.9967 166.9967 -232.7833 -173937.5625 326327.5313)">
		<stop  offset="0" style="stop-color:#009776"/>
		<stop  offset="1" style="stop-color:#0C5041"/>
		<stop  offset="1" style="stop-color:#FFF3E9"/>
	</linearGradient>
	<polygon clip-path="url(#SVGID_140_)" fill="url(#SVGID_141_)" points="447.984,-1860.15 502.324,-1821.167 459.103,-1760.919 
		404.763,-1799.902 	"/>
</g>
<g>
	<defs>
		<polygon id="SVGID_142_" points="516.299,-1843.716 506.724,-1787.402 497.149,-1843.716 489.66,-1843.716 501.51,-1777.354 
			511.37,-1777.354 523.125,-1843.716 		"/>
	</defs>
	<clipPath id="SVGID_143_">
		<use xlink:href="#SVGID_142_"  overflow="visible"/>
	</clipPath>
	
		<linearGradient id="SVGID_144_" gradientUnits="userSpaceOnUse" x1="-173.4883" y1="1285.4658" x2="-172.4883" y2="1285.4658" gradientTransform="matrix(232.7833 166.9967 166.9967 -232.7833 -173915.5625 326296.7813)">
		<stop  offset="0" style="stop-color:#009776"/>
		<stop  offset="1" style="stop-color:#0C5041"/>
		<stop  offset="1" style="stop-color:#FFF3E9"/>
	</linearGradient>
	<polygon clip-path="url(#SVGID_143_)" fill="url(#SVGID_144_)" points="501.031,-1859.565 554.556,-1821.167 511.754,-1761.503 
		458.229,-1799.902 	"/>
</g>
<g>
	<defs>
		<polygon id="SVGID_145_" points="529.285,-1843.716 529.285,-1777.354 556.492,-1777.354 556.492,-1784.085 536.679,-1784.085 
			536.679,-1808.64 552.795,-1808.64 552.795,-1815.37 536.679,-1815.37 536.679,-1836.985 556.492,-1836.985 556.492,-1843.716 		
			"/>
	</defs>
	<clipPath id="SVGID_146_">
		<use xlink:href="#SVGID_145_"  overflow="visible"/>
	</clipPath>
	
		<linearGradient id="SVGID_147_" gradientUnits="userSpaceOnUse" x1="-173.4863" y1="1285.4775" x2="-172.4886" y2="1285.4775" gradientTransform="matrix(232.7833 166.9967 166.9967 -232.7833 -173905.0625 326282.2813)">
		<stop  offset="0" style="stop-color:#009776"/>
		<stop  offset="1" style="stop-color:#0C5041"/>
		<stop  offset="1" style="stop-color:#FFF3E9"/>
	</linearGradient>
	<polygon clip-path="url(#SVGID_146_)" fill="url(#SVGID_147_)" points="538.529,-1856.602 587.923,-1821.167 547.248,-1764.467 
		497.854,-1799.902 	"/>
</g>
<g>
	<defs>
		<path id="SVGID_148_" d="M570.425-1836.985h6.92c5.595,0,7.775,2.656,7.775,9.101v4.741c0,6.446-2.749,9.101-8.721,9.101h-5.974
			V-1836.985z M563.031-1843.716v66.362h7.394v-29.958h5.974c6.351,0,8.816,2.559,8.816,9.669v12.23
			c0,3.509,0.285,6.163,0.853,8.059h7.489c-0.663-1.802-0.948-4.456-0.948-8.059v-11.85c0-7.869-2.559-12.514-7.773-13.841v-0.096
			c5.119-1.61,7.679-6.067,7.679-13.366v-4.076c0-10.334-4.456-15.074-14.98-15.074H563.031z"/>
	</defs>
	<clipPath id="SVGID_149_">
		<use xlink:href="#SVGID_148_"  overflow="visible"/>
	</clipPath>
	
		<linearGradient id="SVGID_150_" gradientUnits="userSpaceOnUse" x1="-173.4863" y1="1285.4863" x2="-172.4885" y2="1285.4863" gradientTransform="matrix(232.7833 166.9967 166.9967 -232.7833 -173894.8125 326267.7813)">
		<stop  offset="0" style="stop-color:#009776"/>
		<stop  offset="1" style="stop-color:#0C5041"/>
		<stop  offset="1" style="stop-color:#FFF3E9"/>
	</linearGradient>
	<polygon clip-path="url(#SVGID_149_)" fill="url(#SVGID_150_)" points="573.403,-1858.174 624.988,-1821.167 583.185,-1762.896 
		531.6,-1799.902 	"/>
</g>
<g>
	<defs>
		<path id="SVGID_151_" d="M599.148-1828.832c0,3.791,0.853,7.205,2.654,10.238c1.801,3.034,5.025,6.447,9.575,10.144
			c3.887,3.224,6.541,5.973,7.964,8.343c1.516,2.37,2.275,5.024,2.275,8.059c0,5.971-2.56,8.91-7.774,8.91
			c-5.12,0-7.679-2.939-7.679-8.816v-4.266h-7.015v3.696c0,10.334,5.214,16.118,14.789,16.118c9.575,0,15.074-5.878,15.074-16.212
			c0-4.076-0.853-7.585-2.654-10.618c-1.708-3.128-4.836-6.541-9.386-10.333c-3.982-3.224-6.731-5.973-8.249-8.248
			c-1.515-2.276-2.274-4.74-2.274-7.49c0-5.782,2.56-8.627,7.584-8.627c5.024,0,7.584,2.94,7.584,8.817v3.129h7.015v-2.654
			c0-10.24-5.119-16.022-14.599-16.022S599.148-1838.787,599.148-1828.832"/>
	</defs>
	<clipPath id="SVGID_152_">
		<use xlink:href="#SVGID_151_"  overflow="visible"/>
	</clipPath>
	
		<linearGradient id="SVGID_153_" gradientUnits="userSpaceOnUse" x1="-173.4883" y1="1285.4775" x2="-172.4883" y2="1285.4775" gradientTransform="matrix(232.7833 166.9967 166.9967 -232.7833 -173881.0625 326248.6563)">
		<stop  offset="0" style="stop-color:#009776"/>
		<stop  offset="1" style="stop-color:#0C5041"/>
		<stop  offset="1" style="stop-color:#FFF3E9"/>
	</linearGradient>
	<polygon clip-path="url(#SVGID_152_)" fill="url(#SVGID_153_)" points="609.295,-1858.808 661.34,-1821.471 618.864,-1762.261 
		566.819,-1799.599 	"/>
</g>
<g>
	<defs>
		<rect id="SVGID_154_" x="636.024" y="-1843.716" width="7.395" height="66.362"/>
	</defs>
	<clipPath id="SVGID_155_">
		<use xlink:href="#SVGID_154_"  overflow="visible"/>
	</clipPath>
	
		<linearGradient id="SVGID_156_" gradientUnits="userSpaceOnUse" x1="-173.4878" y1="1285.4766" x2="-172.4878" y2="1285.4766" gradientTransform="matrix(232.7833 166.9967 166.9967 -232.7833 -173872.3125 326236.4063)">
		<stop  offset="0" style="stop-color:#009776"/>
		<stop  offset="1" style="stop-color:#0C5041"/>
		<stop  offset="1" style="stop-color:#FFF3E9"/>
	</linearGradient>
	<polygon clip-path="url(#SVGID_155_)" fill="url(#SVGID_156_)" points="638.537,-1847.218 674.851,-1821.167 640.906,-1773.851 
		604.593,-1799.902 	"/>
</g>
<g>
	<defs>
		<path id="SVGID_157_" d="M659.059-1792.333v-36.498c0-6.068,2.56-9.102,7.774-9.102s7.868,3.034,7.868,9.102v36.498
			c0,6.162-2.654,9.196-7.868,9.196S659.059-1786.172,659.059-1792.333 M651.664-1828.358v35.552
			c0,10.523,5.404,16.401,15.169,16.401c9.859,0,15.263-5.878,15.263-16.401v-35.552c0-10.523-5.404-16.305-15.263-16.305
			C657.068-1844.664,651.664-1838.882,651.664-1828.358"/>
	</defs>
	<clipPath id="SVGID_158_">
		<use xlink:href="#SVGID_157_"  overflow="visible"/>
	</clipPath>
	
		<linearGradient id="SVGID_159_" gradientUnits="userSpaceOnUse" x1="-173.4902" y1="1285.4766" x2="-172.4881" y2="1285.4766" gradientTransform="matrix(232.7833 166.9967 166.9967 -232.7833 -173863.0625 326223.5313)">
		<stop  offset="0" style="stop-color:#009776"/>
		<stop  offset="1" style="stop-color:#0C5041"/>
		<stop  offset="1" style="stop-color:#FFF3E9"/>
	</linearGradient>
	<polygon clip-path="url(#SVGID_158_)" fill="url(#SVGID_159_)" points="662.004,-1859.077 714.425,-1821.471 671.756,-1761.992 
		619.334,-1799.598 	"/>
</g>
<g>
	<defs>
		<polygon id="SVGID_160_" points="714.8,-1843.716 714.8,-1796.314 699.822,-1843.716 690.341,-1843.716 690.341,-1777.354 
			697.073,-1777.354 697.073,-1831.298 713.852,-1777.354 721.532,-1777.354 721.532,-1843.716 		"/>
	</defs>
	<clipPath id="SVGID_161_">
		<use xlink:href="#SVGID_160_"  overflow="visible"/>
	</clipPath>
	
		<linearGradient id="SVGID_162_" gradientUnits="userSpaceOnUse" x1="-173.4907" y1="1285.4766" x2="-172.4885" y2="1285.4766" gradientTransform="matrix(232.7833 166.9967 166.9967 -232.7833 -173849.8125 326205.0313)">
		<stop  offset="0" style="stop-color:#009776"/>
		<stop  offset="1" style="stop-color:#0C5041"/>
		<stop  offset="1" style="stop-color:#FFF3E9"/>
	</linearGradient>
	<polygon clip-path="url(#SVGID_161_)" fill="url(#SVGID_162_)" points="700.939,-1858.488 752.963,-1821.167 710.934,-1762.58 
		658.91,-1799.902 	"/>
</g>
<g>
	<defs>
		<rect id="SVGID_163_" x="708.468" y="-2267.226" width="3094.319" height="2664.382"/>
	</defs>
	<clipPath id="SVGID_164_">
		<use xlink:href="#SVGID_163_"  overflow="visible"/>
	</clipPath>
	
		<linearGradient id="SVGID_165_" gradientUnits="userSpaceOnUse" x1="-170.2949" y1="1284.4238" x2="-169.2954" y2="1284.4238" gradientTransform="matrix(622.112 0 0 -622.112 107041.4766 797435.1875)">
		<stop  offset="0" style="stop-color:#146BCA"/>
		<stop  offset="1" style="stop-color:#273E7C"/>
	</linearGradient>
	<path clip-path="url(#SVGID_164_)" fill="url(#SVGID_165_)" d="M1646.939-1547.599L1646.939-1547.599h-475.382
		c-40.242,0-72.865-32.623-72.865-72.865c0-40.243,32.623-72.866,72.865-72.866h475.382c40.242,0,72.865,32.623,72.865,72.866
		C1719.805-1580.221,1687.182-1547.599,1646.939-1547.599L1646.939-1547.599L1646.939-1547.599
		c40.242,0,72.865-32.623,72.865-72.865c0-40.243-32.623-72.866-72.865-72.866h-475.382c-40.242,0-72.865,32.623-72.865,72.866
		c0,40.242,32.623,72.865,72.865,72.865H1646.939L1646.939-1547.599z"/>
</g>
<g>
	<defs>
		<path id="SVGID_166_" d="M977.212-1798.907c0-6.658,3.435-11.095,9.019-11.095h7.228v10.379c0,6.083-3.149,10.95-8.374,10.95
			C980.29-1788.673,977.212-1793.397,977.212-1798.907 M984.083-1816.228c-9.162,0-14.816,6.656-14.816,17.392
			c0,9.949,5.654,16.82,14.816,16.82c3.579,0,6.656-1.789,9.161-5.369c1.646,6.37,6.729,10.594,12.955,10.594h8.661v-8.16h-5.082
			c-5.367,0-8.016-3.006-8.016-8.589v-22.688H984.083z M979.717-1822.026h7.873v-8.017h-7.873V-1822.026z M993.244-1822.026h7.874
			v-8.017h-7.874V-1822.026z"/>
	</defs>
	<clipPath id="SVGID_167_">
		<use xlink:href="#SVGID_166_"  overflow="visible"/>
	</clipPath>
	
		<linearGradient id="SVGID_168_" gradientUnits="userSpaceOnUse" x1="-171.2119" y1="1285.6719" x2="-170.2119" y2="1285.6719" gradientTransform="matrix(431.9991 184.1857 184.1857 -431.9991 -161875.4688 585128.5625)">
		<stop  offset="0" style="stop-color:#146BCA"/>
		<stop  offset="1" style="stop-color:#273E7C"/>
	</linearGradient>
	<polygon clip-path="url(#SVGID_167_)" fill="url(#SVGID_168_)" points="976.28,-1846.492 1034.072,-1821.852 1007.847,-1760.342 
		950.055,-1784.982 	"/>
</g>
<g>
	<defs>
		<path id="SVGID_169_" d="M1012.286-1761.116h7.874v-8.016h-7.874V-1761.116z M1025.813-1761.116h7.873v-8.016h-7.873V-1761.116z
			 M1026.028-1809.286v16.463c0,2.504-0.286,4.365-0.858,5.438c-0.86,1.647-2.506,2.434-4.868,2.434h-7.658v8.16h32.996v-8.16
			h-13.456c1.216-1.359,1.79-4.079,1.79-8.303v-16.032H1026.028z"/>
	</defs>
	<clipPath id="SVGID_170_">
		<use xlink:href="#SVGID_169_"  overflow="visible"/>
	</clipPath>
	
		<linearGradient id="SVGID_171_" gradientUnits="userSpaceOnUse" x1="-171.2124" y1="1285.6816" x2="-170.2124" y2="1285.6816" gradientTransform="matrix(431.9991 184.1857 184.1857 -431.9991 -161877.9688 585134.5625)">
		<stop  offset="0" style="stop-color:#146BCA"/>
		<stop  offset="1" style="stop-color:#273E7C"/>
	</linearGradient>
	<polygon clip-path="url(#SVGID_170_)" fill="url(#SVGID_171_)" points="1017.417,-1821.319 1063.019,-1801.876 1040.509,-1749.083 
		994.907,-1768.525 	"/>
</g>
<g>
	<defs>
		<path id="SVGID_172_" d="M1056.808-1761.044h7.873v-8.017h-7.873V-1761.044z M1056.808-1809.286v16.463
			c0,2.504-0.288,4.365-0.86,5.438c-0.859,1.647-2.433,2.434-4.795,2.434h-7.444v8.16h33.067v-8.16h-13.742
			c1.145-1.359,1.718-4.079,1.718-8.303v-16.032H1056.808z"/>
	</defs>
	<clipPath id="SVGID_173_">
		<use xlink:href="#SVGID_172_"  overflow="visible"/>
	</clipPath>
	
		<linearGradient id="SVGID_174_" gradientUnits="userSpaceOnUse" x1="-171.2124" y1="1285.6758" x2="-170.2124" y2="1285.6758" gradientTransform="matrix(431.9991 184.1857 184.1857 -431.9991 -161871.9688 585121.0625)">
		<stop  offset="0" style="stop-color:#146BCA"/>
		<stop  offset="1" style="stop-color:#273E7C"/>
	</linearGradient>
	<polygon clip-path="url(#SVGID_173_)" fill="url(#SVGID_174_)" points="1048.795,-1821.216 1094.18,-1801.866 1071.689,-1749.114 
		1026.304,-1768.465 	"/>
</g>
<g>
	<defs>
		<path id="SVGID_175_" d="M1073.844-1761.116h7.873v-8.016h-7.873V-1761.116z M1087.372-1761.116h7.873v-8.016h-7.873V-1761.116z
			 M1087.443-1809.286v16.82c0,2.577-0.215,4.295-0.573,5.154c-0.786,1.574-2.433,2.361-5.081,2.361h-6.729v8.16h8.447
			c7.944,0,11.952-4.295,11.952-12.955v-19.54H1087.443z"/>
	</defs>
	<clipPath id="SVGID_176_">
		<use xlink:href="#SVGID_175_"  overflow="visible"/>
	</clipPath>
	
		<linearGradient id="SVGID_177_" gradientUnits="userSpaceOnUse" x1="-171.2104" y1="1285.6777" x2="-170.2163" y2="1285.6777" gradientTransform="matrix(431.9991 184.1857 184.1857 -431.9991 -161868.4688 585112.5625)">
		<stop  offset="0" style="stop-color:#146BCA"/>
		<stop  offset="1" style="stop-color:#273E7C"/>
	</linearGradient>
	<polygon clip-path="url(#SVGID_176_)" fill="url(#SVGID_177_)" points="1077.168,-1817.084 1112.837,-1801.876 1092.134,-1753.318 
		1056.465,-1768.525 	"/>
</g>
<g>
	<defs>
		<path id="SVGID_178_" d="M1110.706-1809.286v27.341c0,6.871-3.292,10.164-9.949,10.164v6.871c9.735,0,16.248-4.223,17.464-11.881
			h12.812v-8.16h-12.311v-24.335H1110.706z"/>
	</defs>
	<clipPath id="SVGID_179_">
		<use xlink:href="#SVGID_178_"  overflow="visible"/>
	</clipPath>
	
		<linearGradient id="SVGID_180_" gradientUnits="userSpaceOnUse" x1="-171.2104" y1="1285.6816" x2="-170.2155" y2="1285.6816" gradientTransform="matrix(431.9991 184.1857 184.1857 -431.9991 -161863.9688 585101.8125)">
		<stop  offset="0" style="stop-color:#146BCA"/>
		<stop  offset="1" style="stop-color:#273E7C"/>
	</linearGradient>
	<polygon clip-path="url(#SVGID_179_)" fill="url(#SVGID_180_)" points="1105.414,-1820.209 1147.042,-1802.46 1126.376,-1753.987 
		1084.747,-1771.736 	"/>
</g>
<g>
	<defs>
		<path id="SVGID_181_" d="M1150.36-1761.116h7.874v-8.016h-7.874V-1761.116z M1144.992-1807.282
			c-2.935,1.289-5.439,3.006-7.659,5.082c1.79,2.72,3.078,4.796,3.866,6.299c1.718-1.933,3.864-3.436,6.441-4.509
			c2.219-0.931,4.223-1.36,6.013-1.36c5.224,0,9.376,1.789,12.31,5.439c2.506,3.149,3.723,6.943,3.723,11.38h-41.371v8.16h57.474
			v-8.16h-7.587c-0.643-9.948-4.223-16.891-10.736-20.899c-3.721-2.291-8.087-3.436-13.026-3.436
			C1151.291-1809.286,1148.141-1808.641,1144.992-1807.282"/>
	</defs>
	<clipPath id="SVGID_182_">
		<use xlink:href="#SVGID_181_"  overflow="visible"/>
	</clipPath>
	
		<linearGradient id="SVGID_183_" gradientUnits="userSpaceOnUse" x1="-171.2124" y1="1285.6777" x2="-170.2124" y2="1285.6777" gradientTransform="matrix(431.9991 184.1857 184.1857 -431.9991 -161857.4688 585087.0625)">
		<stop  offset="0" style="stop-color:#146BCA"/>
		<stop  offset="1" style="stop-color:#273E7C"/>
	</linearGradient>
	<polygon clip-path="url(#SVGID_182_)" fill="url(#SVGID_183_)" points="1137.155,-1830.021 1203.167,-1801.876 1176.948,-1740.381 
		1110.936,-1768.525 	"/>
</g>
<g>
	<defs>
		<path id="SVGID_184_" d="M1196.816-1809.286v16.463c0,2.504-0.287,4.365-0.859,5.438c-0.859,1.647-2.434,2.434-4.796,2.434h-7.443
			v8.16h33.066v-8.16h-13.742c1.145-1.359,1.718-4.079,1.718-8.303v-16.032H1196.816z M1183.288-1815.943h7.873v-7.945h-7.873
			V-1815.943z M1196.887-1815.943h7.873v-7.945h-7.873V-1815.943z"/>
	</defs>
	<clipPath id="SVGID_185_">
		<use xlink:href="#SVGID_184_"  overflow="visible"/>
	</clipPath>
	
		<linearGradient id="SVGID_186_" gradientUnits="userSpaceOnUse" x1="-171.2144" y1="1285.6816" x2="-170.2097" y2="1285.6816" gradientTransform="matrix(431.9991 184.1857 184.1857 -431.9991 -161845.9688 585060.0625)">
		<stop  offset="0" style="stop-color:#146BCA"/>
		<stop  offset="1" style="stop-color:#273E7C"/>
	</linearGradient>
	<polygon clip-path="url(#SVGID_185_)" fill="url(#SVGID_186_)" points="1188.44,-1835.973 1233.775,-1816.644 1211.631,-1764.707 
		1166.296,-1784.036 	"/>
</g>
<g>
	<defs>
		<path id="SVGID_187_" d="M1226.879-1822.956v30.49c0,2.577-0.215,4.295-0.573,5.154c-0.787,1.574-2.433,2.361-5.081,2.361h-6.8
			v8.16h8.445c8.017,0,12.025-4.295,12.025-12.955v-33.21H1226.879z"/>
	</defs>
	<clipPath id="SVGID_188_">
		<use xlink:href="#SVGID_187_"  overflow="visible"/>
	</clipPath>
	
		<linearGradient id="SVGID_189_" gradientUnits="userSpaceOnUse" x1="-171.2119" y1="1285.6758" x2="-170.2119" y2="1285.6758" gradientTransform="matrix(431.9991 184.1857 184.1857 -431.9991 -161841.4688 585049.5625)">
		<stop  offset="0" style="stop-color:#146BCA"/>
		<stop  offset="1" style="stop-color:#273E7C"/>
	</linearGradient>
	<polygon clip-path="url(#SVGID_188_)" fill="url(#SVGID_189_)" points="1217.573,-1830.341 1251.55,-1815.855 1231.746,-1769.406 
		1197.77,-1783.892 	"/>
</g>
<g>
	<defs>
		<rect id="SVGID_190_" x="1242.269" y="-1823.029" width="7.945" height="46.238"/>
	</defs>
	<clipPath id="SVGID_191_">
		<use xlink:href="#SVGID_190_"  overflow="visible"/>
	</clipPath>
	
		<linearGradient id="SVGID_192_" gradientUnits="userSpaceOnUse" x1="-171.2124" y1="1285.6768" x2="-170.2124" y2="1285.6768" gradientTransform="matrix(431.9991 184.1857 184.1857 -431.9991 -161838.4688 585041.8125)">
		<stop  offset="0" style="stop-color:#146BCA"/>
		<stop  offset="1" style="stop-color:#273E7C"/>
	</linearGradient>
	<polygon clip-path="url(#SVGID_191_)" fill="url(#SVGID_192_)" points="1243.491,-1825.896 1266.896,-1815.917 1248.992,-1773.925 
		1225.587,-1783.903 	"/>
</g>
<g>
	<defs>
		<path id="SVGID_193_" d="M1279.918-1798.907c0-6.658,3.436-11.095,9.019-11.095h7.229v10.379c0,6.083-3.15,10.95-8.374,10.95
			C1282.996-1788.673,1279.918-1793.397,1279.918-1798.907 M1286.789-1816.228c-9.161,0-14.816,6.656-14.816,17.392
			c0,9.949,5.655,16.82,14.816,16.82c3.579,0,6.657-1.789,9.162-5.369c1.646,6.37,6.728,10.594,12.955,10.594h8.661v-8.16h-5.082
			c-5.369,0-8.016-3.006-8.016-8.589v-22.688H1286.789z M1282.424-1822.026h7.872v-8.017h-7.872V-1822.026z M1295.951-1822.026
			h7.873v-8.017h-7.873V-1822.026z"/>
	</defs>
	<clipPath id="SVGID_194_">
		<use xlink:href="#SVGID_193_"  overflow="visible"/>
	</clipPath>
	
		<linearGradient id="SVGID_195_" gradientUnits="userSpaceOnUse" x1="-171.2124" y1="1285.6719" x2="-170.2124" y2="1285.6719" gradientTransform="matrix(431.9991 184.1857 184.1857 -431.9991 -161828.9688 585019.3125)">
		<stop  offset="0" style="stop-color:#146BCA"/>
		<stop  offset="1" style="stop-color:#273E7C"/>
	</linearGradient>
	<polygon clip-path="url(#SVGID_194_)" fill="url(#SVGID_195_)" points="1278.986,-1846.492 1336.779,-1821.852 1310.554,-1760.342 
		1252.761,-1784.982 	"/>
</g>
<g>
	<defs>
		<path id="SVGID_196_" d="M1332.17-1807.282c-2.934,1.289-5.439,3.006-7.658,5.082c1.79,2.72,3.078,4.796,3.865,6.299
			c1.718-1.933,3.865-3.436,6.441-4.509c2.22-0.931,4.223-1.36,6.013-1.36c5.225,0,9.377,1.789,12.311,5.439
			c2.505,3.149,3.722,6.943,3.722,11.38h-41.37v8.16h57.474v-8.16h-7.587c-0.644-9.948-4.223-16.891-10.736-20.899
			c-3.722-2.291-8.088-3.436-13.026-3.436C1338.469-1809.286,1335.32-1808.641,1332.17-1807.282 M1337.538-1816.014h7.873v-7.944
			h-7.873V-1816.014z"/>
	</defs>
	<clipPath id="SVGID_197_">
		<use xlink:href="#SVGID_196_"  overflow="visible"/>
	</clipPath>
	
		<linearGradient id="SVGID_198_" gradientUnits="userSpaceOnUse" x1="-171.2124" y1="1285.6875" x2="-170.2124" y2="1285.6875" gradientTransform="matrix(431.9991 184.1857 184.1857 -431.9991 -161824.9688 585011.0625)">
		<stop  offset="0" style="stop-color:#146BCA"/>
		<stop  offset="1" style="stop-color:#273E7C"/>
	</linearGradient>
	<polygon clip-path="url(#SVGID_197_)" fill="url(#SVGID_198_)" points="1324.334,-1844.693 1389.984,-1816.703 1364.127,-1756.056 
		1298.477,-1784.046 	"/>
</g>
<g>
	<defs>
		<path id="SVGID_199_" d="M1424.505-1809.286v16.463c0,5.224-2.004,7.872-6.084,7.872h-7.802c1.074-1.144,1.646-4.079,1.646-8.731
			v-15.604h-8.088v16.391c0,5.296-2.004,7.944-6.084,7.944h-7.443v-0.429c0.859-1.36,1.289-4.08,1.289-8.302v-15.604h-8.089v15.889
			c0,5.654-2.005,8.446-6.085,8.446h-7.3v8.16h72.577v-8.16h-12.239c1.216-2.577,1.789-5.511,1.789-8.875v-15.46H1424.505z"/>
	</defs>
	<clipPath id="SVGID_200_">
		<use xlink:href="#SVGID_199_"  overflow="visible"/>
	</clipPath>
	
		<linearGradient id="SVGID_201_" gradientUnits="userSpaceOnUse" x1="-171.2119" y1="1285.6816" x2="-170.2119" y2="1285.6816" gradientTransform="matrix(431.9991 184.1857 184.1857 -431.9991 -161816.9688 584991.5625)">
		<stop  offset="0" style="stop-color:#146BCA"/>
		<stop  offset="1" style="stop-color:#273E7C"/>
	</linearGradient>
	<polygon clip-path="url(#SVGID_200_)" fill="url(#SVGID_201_)" points="1381.629,-1835.47 1454.766,-1804.288 1431.879,-1750.607 
		1358.742,-1781.79 	"/>
</g>
<g>
	<defs>
		<path id="SVGID_202_" d="M1453.855-1809.286v16.463c0,2.504-0.287,4.365-0.859,5.438c-0.86,1.647-2.434,2.434-4.797,2.434h-7.442
			v8.16h33.065v-8.16h-13.741c1.145-1.359,1.718-4.079,1.718-8.303v-16.032H1453.855z M1453.925-1815.871h7.874v-7.945h-7.874
			V-1815.871z"/>
	</defs>
	<clipPath id="SVGID_203_">
		<use xlink:href="#SVGID_202_"  overflow="visible"/>
	</clipPath>
	
		<linearGradient id="SVGID_204_" gradientUnits="userSpaceOnUse" x1="-171.2124" y1="1285.6807" x2="-170.2124" y2="1285.6807" gradientTransform="matrix(431.9991 184.1857 184.1857 -431.9991 -161806.4688 584967.3125)">
		<stop  offset="0" style="stop-color:#146BCA"/>
		<stop  offset="1" style="stop-color:#273E7C"/>
	</linearGradient>
	<polygon clip-path="url(#SVGID_203_)" fill="url(#SVGID_204_)" points="1445.843,-1835.746 1490.788,-1816.583 1468.736,-1764.862 
		1423.791,-1784.024 	"/>
</g>
<g>
	<defs>
		<path id="SVGID_205_" d="M1483.918-1822.956v30.49c0,2.577-0.215,4.295-0.573,5.154c-0.787,1.574-2.433,2.361-5.082,2.361h-6.799
			v8.16h8.444c8.018,0,12.025-4.295,12.025-12.955v-33.21H1483.918z"/>
	</defs>
	<clipPath id="SVGID_206_">
		<use xlink:href="#SVGID_205_"  overflow="visible"/>
	</clipPath>
	
		<linearGradient id="SVGID_207_" gradientUnits="userSpaceOnUse" x1="-171.2119" y1="1285.6768" x2="-170.2119" y2="1285.6768" gradientTransform="matrix(431.9991 184.1857 184.1857 -431.9991 -161801.9688 584956.8125)">
		<stop  offset="0" style="stop-color:#146BCA"/>
		<stop  offset="1" style="stop-color:#273E7C"/>
	</linearGradient>
	<polygon clip-path="url(#SVGID_206_)" fill="url(#SVGID_207_)" points="1474.612,-1830.341 1508.589,-1815.855 1488.785,-1769.406 
		1454.809,-1783.892 	"/>
</g>
<g>
	<defs>
		<rect id="SVGID_208_" x="1499.308" y="-1823.029" width="7.944" height="46.238"/>
	</defs>
	<clipPath id="SVGID_209_">
		<use xlink:href="#SVGID_208_"  overflow="visible"/>
	</clipPath>
	
		<linearGradient id="SVGID_210_" gradientUnits="userSpaceOnUse" x1="-171.2124" y1="1285.6777" x2="-170.2124" y2="1285.6777" gradientTransform="matrix(431.9991 184.1857 184.1857 -431.9991 -161798.9688 584949.0625)">
		<stop  offset="0" style="stop-color:#146BCA"/>
		<stop  offset="1" style="stop-color:#273E7C"/>
	</linearGradient>
	<polygon clip-path="url(#SVGID_209_)" fill="url(#SVGID_210_)" points="1500.529,-1825.895 1523.934,-1815.917 1506.029,-1773.925 
		1482.626,-1783.903 	"/>
</g>
<g>
	<defs>
		<polygon id="SVGID_211_" points="432.093,615.862 380.849,896.741 329.089,615.862 272.31,615.862 272.31,967.597 
			306.968,967.597 306.968,674.149 362.755,967.597 395.906,967.597 451.693,674.149 451.693,967.597 489.368,967.597 
			489.368,615.862 		"/>
	</defs>
	<clipPath id="SVGID_212_">
		<use xlink:href="#SVGID_211_"  overflow="visible"/>
	</clipPath>
	
		<linearGradient id="SVGID_213_" gradientUnits="userSpaceOnUse" x1="-171.6997" y1="1283.1787" x2="-170.6997" y2="1283.1787" gradientTransform="matrix(-935.446 1019.2831 1019.2831 935.446 -1467379.25 -1025390.1875)">
		<stop  offset="0" style="stop-color:#2F6BB3"/>
		<stop  offset="1" style="stop-color:#273E7C"/>
	</linearGradient>
	<polygon clip-path="url(#SVGID_212_)" fill="url(#SVGID_213_)" points="664.589,776.672 390.131,1075.728 97.088,806.787 
		371.546,507.731 	"/>
</g>
<g>
	<defs>
		<path id="SVGID_214_" d="M545.154,787.707c0-29.649,12.062-44.221,36.682-44.221c25.137,0,37.694,14.571,37.694,44.221v28.142
			h-74.376V787.707z M506.965,791.229v99.492c0,52.256,26.643,81.905,74.871,81.905c48.249,0,74.872-29.649,74.872-81.905v-4.026
			h-36.682v7.538c0,29.648-12.558,44.726-37.674,44.726c-24.62,0-37.198-15.077-37.198-44.726v-47.237h111.554v-55.767
			c0-52.266-26.623-81.409-74.872-81.409C533.111,709.819,506.965,738.963,506.965,791.229"/>
	</defs>
	<clipPath id="SVGID_215_">
		<use xlink:href="#SVGID_214_"  overflow="visible"/>
	</clipPath>
	
		<linearGradient id="SVGID_216_" gradientUnits="userSpaceOnUse" x1="-171.6997" y1="1283.1777" x2="-170.6997" y2="1283.1777" gradientTransform="matrix(-935.446 1019.2831 1019.2831 935.446 -1467245.5 -1025267.1875)">
		<stop  offset="0" style="stop-color:#2F6BB3"/>
		<stop  offset="1" style="stop-color:#273E7C"/>
	</linearGradient>
	<polygon clip-path="url(#SVGID_215_)" fill="url(#SVGID_216_)" points="787.629,829.972 588.247,1047.223 376.044,852.474 
		575.426,635.223 	"/>
</g>
<g>
	<defs>
		<path id="SVGID_217_" d="M707.953,896.245V785.693c0-28.131,10.554-42.207,32.159-42.207c24.124,0,40.709,20.106,40.709,56.283
			v82.907c0,36.176-16.585,56.281-40.709,56.281C718.507,938.958,707.953,924.884,707.953,896.245 M780.821,615.862v124.112
			c-11.566-20.106-29.145-30.155-52.256-30.155c-39.201,0-58.802,24.124-58.802,72.859v116.583
			c0,48.733,19.601,73.364,58.802,73.364c26.624,0,45.709-13.064,56.778-39.202c0.496,16.586,2.005,28.142,4.009,34.173h34.678
			c-3.512-15.573-5.534-38.189-5.534-68.841V615.862H780.821z"/>
	</defs>
	<clipPath id="SVGID_218_">
		<use xlink:href="#SVGID_217_"  overflow="visible"/>
	</clipPath>
	
		<linearGradient id="SVGID_219_" gradientUnits="userSpaceOnUse" x1="-171.6997" y1="1283.1504" x2="-170.6997" y2="1283.1504" gradientTransform="matrix(-935.446 1019.2831 1019.2831 935.446 -1467150.5 -1025180.1875)">
		<stop  offset="0" style="stop-color:#2F6BB3"/>
		<stop  offset="1" style="stop-color:#273E7C"/>
	</linearGradient>
	<polygon clip-path="url(#SVGID_218_)" fill="url(#SVGID_219_)" points="1001.757,778.971 753.501,1049.477 492.036,809.518 
		740.292,539.012 	"/>
</g>
<g>
	<defs>
		<polygon id="SVGID_220_" points="841.627,615.862 841.627,967.597 981.313,967.597 981.313,931.916 880.81,931.916 
			880.81,615.862 		"/>
	</defs>
	<clipPath id="SVGID_221_">
		<use xlink:href="#SVGID_220_"  overflow="visible"/>
	</clipPath>
	
		<linearGradient id="SVGID_222_" gradientUnits="userSpaceOnUse" x1="-171.5776" y1="1283.0156" x2="-170.5776" y2="1283.0156" gradientTransform="matrix(1312.8484 1312.8484 1312.8484 -1312.8484 -1459113.875 1909578.625)">
		<stop  offset="0" style="stop-color:#009676"/>
		<stop  offset="1" style="stop-color:#0D5042"/>
		<stop  offset="1" style="stop-color:#FFF2E9"/>
	</linearGradient>
	<polygon clip-path="url(#SVGID_221_)" fill="url(#SVGID_222_)" points="911.47,546.02 1157.18,791.729 911.47,1037.439 
		665.76,791.729 	"/>
</g>
<g>
	<defs>
		<path id="SVGID_223_" d="M1023.511,787.707c0-29.649,12.063-44.221,36.684-44.221c25.135,0,37.692,14.571,37.692,44.221v28.142
			h-74.376V787.707z M985.321,791.229v99.492c0,52.256,26.643,81.905,74.873,81.905c48.246,0,74.871-29.649,74.871-81.905v-4.026
			h-36.683v7.538c0,29.648-12.558,44.726-37.675,44.726c-24.62,0-37.197-15.077-37.197-44.726v-47.237h111.555v-55.767
			c0-52.266-26.625-81.409-74.871-81.409C1011.469,709.819,985.321,738.963,985.321,791.229"/>
	</defs>
	<clipPath id="SVGID_224_">
		<use xlink:href="#SVGID_223_"  overflow="visible"/>
	</clipPath>
	
		<linearGradient id="SVGID_225_" gradientUnits="userSpaceOnUse" x1="-171.5776" y1="1282.9961" x2="-170.5776" y2="1282.9961" gradientTransform="matrix(1312.8484 1312.8484 1312.8484 -1312.8484 -1459037.875 1909503.875)">
		<stop  offset="0" style="stop-color:#009676"/>
		<stop  offset="1" style="stop-color:#0D5042"/>
		<stop  offset="1" style="stop-color:#FFF2E9"/>
	</linearGradient>
	<polygon clip-path="url(#SVGID_224_)" fill="url(#SVGID_225_)" points="1060.193,634.947 1266.47,841.223 1060.193,1047.499 
		853.918,841.223 	"/>
</g>
<g>
	<defs>
		<path id="SVGID_226_" d="M1188.829,882.677V799.77c0-36.177,16.585-56.283,40.71-56.283c21.604,0,32.653,14.076,32.653,42.207
			v110.552c0,28.639-11.049,42.713-32.653,42.713C1205.414,938.958,1188.829,918.853,1188.829,882.677 M1151.154,615.862v351.734
			h27.636l5.02-35.681c10.555,27.14,29.64,40.71,56.779,40.71c39.697,0,59.298-24.631,59.298-73.364V782.679
			c0-48.735-19.601-72.859-59.298-72.859c-22.615,0-40.193,10.049-51.76,30.155V615.862H1151.154z"/>
	</defs>
	<clipPath id="SVGID_227_">
		<use xlink:href="#SVGID_226_"  overflow="visible"/>
	</clipPath>
	
		<linearGradient id="SVGID_228_" gradientUnits="userSpaceOnUse" x1="-171.5796" y1="1283.0176" x2="-170.5771" y2="1283.0176" gradientTransform="matrix(1312.8484 1312.8484 1312.8484 -1312.8484 -1458957.875 1909424.375)">
		<stop  offset="0" style="stop-color:#009676"/>
		<stop  offset="1" style="stop-color:#0D5042"/>
		<stop  offset="1" style="stop-color:#FFF2E9"/>
	</linearGradient>
	<polygon clip-path="url(#SVGID_227_)" fill="url(#SVGID_228_)" points="1225.521,541.496 1478.269,794.244 1225.521,1046.993 
		972.772,794.244 	"/>
</g>
<g>
	<defs>
		<path id="SVGID_229_" d="M799.013,116.445h-65.477H465.033c-102.111,0-191.8,76.848-198.202,178.758
			c-6.964,110.866,81.249,203.296,190.637,203.296h210.848c9.29,0,16.818-7.53,16.818-16.818v-31.6c0-0.001-0.002-0.001-0.002-0.001
			H457.468c-84.566,0-152.179-73.974-141.509-160.617c8.913-72.369,74.313-124.6,147.23-124.6l270.347,0.001h121.428
			c0.504,0,0.912,0.407,0.912,0.91v177.187v0.002h30.673c9.791,0,17.729-7.938,17.729-17.729V165.774c0-0.503,0.408-0.91,0.911-0.91
			h72.115c0.502,0,0.91,0.407,0.91,0.91v177.187c0,0.002,0.001,0.002,0.001,0.002h30.673c9.79,0,17.729-7.938,17.729-17.729V116.445
			H799.013z"/>
	</defs>
	<clipPath id="SVGID_230_">
		<use xlink:href="#SVGID_229_"  overflow="visible"/>
	</clipPath>
	
		<linearGradient id="SVGID_231_" gradientUnits="userSpaceOnUse" x1="-171.5771" y1="1282.9746" x2="-170.5771" y2="1282.9746" gradientTransform="matrix(1312.8484 1312.8484 1312.8484 -1312.8484 -1458949.875 1909415.875)">
		<stop  offset="0" style="stop-color:#009676"/>
		<stop  offset="1" style="stop-color:#0D5042"/>
		<stop  offset="1" style="stop-color:#FFF2E9"/>
	</linearGradient>
	<polygon clip-path="url(#SVGID_230_)" fill="url(#SVGID_231_)" points="643.242,-266.929 1217.643,307.473 643.241,881.874 
		68.84,307.473 	"/>
</g>
<g>
	<defs>
		<path id="SVGID_232_" d="M733.536,212.405v129.586v60.548v79.143c0,9.289,7.53,16.817,16.818,16.817h358.504
			c95.586,0,174.77-70.651,188.644-162.434h-48.908c-13.278,64.981-70.886,114.015-139.735,114.015h-326.92v-47.541v-60.548V229.225
			c0-9.289-7.529-16.819-16.817-16.819H733.536z"/>
	</defs>
	<clipPath id="SVGID_233_">
		<use xlink:href="#SVGID_232_"  overflow="visible"/>
	</clipPath>
	
		<linearGradient id="SVGID_234_" gradientUnits="userSpaceOnUse" x1="-171.6997" y1="1283.2051" x2="-170.6997" y2="1283.2051" gradientTransform="matrix(-946.6027 1031.4398 1031.4398 946.6027 -1484790 -1037529.75)">
		<stop  offset="0" style="stop-color:#2F6BB3"/>
		<stop  offset="1" style="stop-color:#273E7C"/>
	</linearGradient>
	<polygon clip-path="url(#SVGID_233_)" fill="url(#SVGID_234_)" points="1440.023,343.205 1039.663,779.447 591.015,367.7 
		991.375,-68.542 	"/>
</g>
<g>
	<defs>
		<path id="SVGID_235_" d="M1091.837,116.445c-9.289,0-16.818,7.529-16.818,16.818v31.601h33.84
			c71.9,0,131.381,53.523,141.08,122.784h48.907c-9.951-96.049-91.352-171.203-189.987-171.203H1091.837z"/>
	</defs>
	<clipPath id="SVGID_236_">
		<use xlink:href="#SVGID_235_"  overflow="visible"/>
	</clipPath>
	
		<linearGradient id="SVGID_237_" gradientUnits="userSpaceOnUse" x1="-171.6997" y1="1283.1758" x2="-170.6997" y2="1283.1758" gradientTransform="matrix(-946.6027 1031.4398 1031.4398 946.6027 -1484742.5 -1037485.75)">
		<stop  offset="0" style="stop-color:#2F6BB3"/>
		<stop  offset="1" style="stop-color:#273E7C"/>
	</linearGradient>
	<polygon clip-path="url(#SVGID_236_)" fill="url(#SVGID_237_)" points="1384.133,194.718 1196.515,399.151 989.731,209.376 
		1177.35,4.942 	"/>
</g>
<g>
	<defs>
		<path id="SVGID_238_" d="M285.153,1093.276c-3.81,4.146-5.715,9.3-5.715,15.238c0,3.36,0.673,6.499,1.905,9.412h-10.196v12.772
			h47.508v-12.772h-23.979c-1.904-2.128-2.802-4.931-2.802-8.517c0-3.024,0.673-5.49,2.018-7.395c1.568-2.354,3.81-3.474,6.61-3.474
			c4.034,0,6.724,2.018,7.955,6.052l8.964-6.163c-3.138-7.171-9.748-11.43-17.479-11.43
			C294.005,1087.001,289.075,1089.132,285.153,1093.276"/>
	</defs>
	<clipPath id="SVGID_239_">
		<use xlink:href="#SVGID_238_"  overflow="visible"/>
	</clipPath>
	
		<linearGradient id="SVGID_240_" gradientUnits="userSpaceOnUse" x1="-171.5776" y1="1283" x2="-170.5776" y2="1283" gradientTransform="matrix(1312.8484 1312.8484 1312.8484 -1312.8484 -1459557.875 1910023.125)">
		<stop  offset="0" style="stop-color:#009676"/>
		<stop  offset="1" style="stop-color:#0D5042"/>
		<stop  offset="1" style="stop-color:#FFF2E9"/>
	</linearGradient>
	<polygon clip-path="url(#SVGID_239_)" fill="url(#SVGID_240_)" points="294.901,1063.247 340.504,1108.851 294.901,1154.453 
		249.298,1108.851 	"/>
</g>
<g>
	<defs>
		<rect id="SVGID_241_" x="330.31" y="1058.317" width="12.436" height="72.382"/>
	</defs>
	<clipPath id="SVGID_242_">
		<use xlink:href="#SVGID_241_"  overflow="visible"/>
	</clipPath>
	
		<linearGradient id="SVGID_243_" gradientUnits="userSpaceOnUse" x1="-171.5776" y1="1282.998" x2="-170.5776" y2="1282.998" gradientTransform="matrix(1312.8484 1312.8484 1312.8484 -1312.8484 -1459525.875 1909992.375)">
		<stop  offset="0" style="stop-color:#009676"/>
		<stop  offset="1" style="stop-color:#0D5042"/>
		<stop  offset="1" style="stop-color:#FFF2E9"/>
	</linearGradient>
	<polygon clip-path="url(#SVGID_242_)" fill="url(#SVGID_243_)" points="336.527,1052.1 378.937,1094.509 336.527,1136.918 
		294.118,1094.509 	"/>
</g>
<g>
	<defs>
		<path id="SVGID_244_" d="M365.827,1105.152c0-7.618,4.37-14.005,10.98-14.005c7.172,0,11.877,5.826,11.877,14.565
			c0,7.395-4.595,13.67-11.316,13.67C370.533,1119.383,365.827,1112.996,365.827,1105.152 M353.278,1105.152
			c0,14.902,9.636,25.547,24.09,25.547c5.714,0,9.748-1.905,11.877-5.714c-0.224,8.74-4.146,14.006-11.989,14.23v9.972
			c16.247,0,24.313-6.723,24.313-20.057v-23.642c0-14.79-9.411-25.771-24.201-25.771
			C363.25,1079.719,353.278,1090.027,353.278,1105.152"/>
	</defs>
	<clipPath id="SVGID_245_">
		<use xlink:href="#SVGID_244_"  overflow="visible"/>
	</clipPath>
	
		<linearGradient id="SVGID_246_" gradientUnits="userSpaceOnUse" x1="-171.5771" y1="1282.9961" x2="-170.5771" y2="1282.9961" gradientTransform="matrix(1312.8484 1312.8484 1312.8484 -1312.8484 -1459513.875 1909979.375)">
		<stop  offset="0" style="stop-color:#009676"/>
		<stop  offset="1" style="stop-color:#0D5042"/>
		<stop  offset="1" style="stop-color:#FFF2E9"/>
	</linearGradient>
	<polygon clip-path="url(#SVGID_245_)" fill="url(#SVGID_246_)" points="377.424,1055.573 436.304,1114.453 377.424,1173.333 
		318.544,1114.453 	"/>
</g>
<g>
	<defs>
		<path id="SVGID_247_" d="M424.316,1091.26c4.034,0,7.843,0.224,11.315,1.008c11.318,2.466,17.032,10.98,17.032,25.659h-40.56
			v12.772h72.717v-12.772h-19.497c-0.111-19.16-7.618-31.262-22.632-36.303c-2.913-1.009-5.154-1.458-6.724-1.569
			c-1.568-0.112-5.489-0.225-11.652-0.225V1091.26z"/>
	</defs>
	<clipPath id="SVGID_248_">
		<use xlink:href="#SVGID_247_"  overflow="visible"/>
	</clipPath>
	
		<linearGradient id="SVGID_249_" gradientUnits="userSpaceOnUse" x1="-171.5713" y1="1283.0049" x2="-170.5816" y2="1283.0049" gradientTransform="matrix(1312.8484 1312.8484 1312.8484 -1312.8484 -1459485.875 1909951.375)">
		<stop  offset="0" style="stop-color:#009676"/>
		<stop  offset="1" style="stop-color:#0D5042"/>
		<stop  offset="1" style="stop-color:#FFF2E9"/>
	</linearGradient>
	<polygon clip-path="url(#SVGID_248_)" fill="url(#SVGID_249_)" points="448.463,1043.472 510.256,1105.265 448.463,1167.058 
		386.67,1105.265 	"/>
</g>
<g>
	<defs>
		<path id="SVGID_250_" d="M499.948,1058.431v47.171c0,3.921-0.448,6.835-1.344,8.515c-1.346,2.577-3.811,3.811-7.507,3.811h-11.654
			v12.772h51.317v-12.772h-21.064c1.793-2.128,2.688-6.387,2.688-12.998v-46.498H499.948z"/>
	</defs>
	<clipPath id="SVGID_251_">
		<use xlink:href="#SVGID_250_"  overflow="visible"/>
	</clipPath>
	
		<linearGradient id="SVGID_252_" gradientUnits="userSpaceOnUse" x1="-171.5708" y1="1283.001" x2="-170.5811" y2="1283.001" gradientTransform="matrix(1312.8484 1312.8484 1312.8484 -1312.8484 -1459449.875 1909912.625)">
		<stop  offset="0" style="stop-color:#009676"/>
		<stop  offset="1" style="stop-color:#0D5042"/>
		<stop  offset="1" style="stop-color:#FFF2E9"/>
	</linearGradient>
	<polygon clip-path="url(#SVGID_251_)" fill="url(#SVGID_252_)" points="505.103,1032.771 566.896,1094.564 505.103,1156.358 
		443.309,1094.565 	"/>
</g>
<g>
	<defs>
		<path id="SVGID_253_" d="M547.008,1058.431v47.73c0,4.033-0.335,6.723-0.896,8.067c-1.232,2.465-3.811,3.698-7.955,3.698h-10.644
			v12.772h13.22c12.55,0,18.824-6.722,18.824-20.281v-51.987H547.008z"/>
	</defs>
	<clipPath id="SVGID_254_">
		<use xlink:href="#SVGID_253_"  overflow="visible"/>
	</clipPath>
	
		<linearGradient id="SVGID_255_" gradientUnits="userSpaceOnUse" x1="-171.5776" y1="1282.9971" x2="-170.5776" y2="1282.9971" gradientTransform="matrix(1312.8484 1312.8484 1312.8484 -1312.8484 -1459425.875 1909888.875)">
		<stop  offset="0" style="stop-color:#009676"/>
		<stop  offset="1" style="stop-color:#0D5042"/>
		<stop  offset="1" style="stop-color:#FFF2E9"/>
	</linearGradient>
	<polygon clip-path="url(#SVGID_254_)" fill="url(#SVGID_255_)" points="543.535,1042.408 595.691,1094.565 543.535,1146.722 
		491.379,1094.565 	"/>
</g>
<g>
	<defs>
		<path id="SVGID_256_" d="M615.469,1174.061h12.325v-12.438h-12.325V1174.061z M636.646,1174.061h12.326v-12.438h-12.326V1174.061z
			 M644.712,1092.939v11.429c0.673-0.111,1.346-0.111,2.018-0.111c7.17,0,11.316,4.93,11.316,11.877
			c0,11.428-10.98,21.064-25.547,21.064c-16.246,0-26.33-10.869-26.33-28.236v-11.093h-12.55v12.549
			c0,22.074,17.031,38.881,38.544,38.881c18.263,0,33.277-10.98,36.863-28.459c5.154,7.73,9.075,9.859,22.856,9.859v-12.772h-4.706
			c-6.386,0-10.756-3.25-15.35-11.653c-4.93-8.852-12.325-13.334-22.185-13.334H644.712z"/>
	</defs>
	<clipPath id="SVGID_257_">
		<use xlink:href="#SVGID_256_"  overflow="visible"/>
	</clipPath>
	
		<linearGradient id="SVGID_258_" gradientUnits="userSpaceOnUse" x1="-171.5776" y1="1282.998" x2="-170.5776" y2="1282.998" gradientTransform="matrix(1312.8484 1312.8484 1312.8484 -1312.8484 -1459393.875 1909859.625)">
		<stop  offset="0" style="stop-color:#009676"/>
		<stop  offset="1" style="stop-color:#0D5042"/>
		<stop  offset="1" style="stop-color:#FFF2E9"/>
	</linearGradient>
	<polygon clip-path="url(#SVGID_257_)" fill="url(#SVGID_258_)" points="642.751,1043.808 732.443,1133.5 642.751,1223.192 
		553.059,1133.5 	"/>
</g>
<g>
	<defs>
		<path id="SVGID_259_" d="M707.908,1079.83v26.331c0,4.033-0.337,6.723-0.897,8.067c-1.232,2.465-3.81,3.698-7.954,3.698h-10.645
			v12.772h13.221c12.55,0,18.823-6.722,18.823-20.281v-30.588H707.908z M708.02,1069.522h12.213v-12.438H708.02V1069.522z"/>
	</defs>
	<clipPath id="SVGID_260_">
		<use xlink:href="#SVGID_259_"  overflow="visible"/>
	</clipPath>
	
		<linearGradient id="SVGID_261_" gradientUnits="userSpaceOnUse" x1="-171.5776" y1="1282.9971" x2="-170.5776" y2="1282.9971" gradientTransform="matrix(1312.8484 1312.8484 1312.8484 -1312.8484 -1459341.875 1909808.125)">
		<stop  offset="0" style="stop-color:#009676"/>
		<stop  offset="1" style="stop-color:#0D5042"/>
		<stop  offset="1" style="stop-color:#FFF2E9"/>
	</linearGradient>
	<polygon clip-path="url(#SVGID_260_)" fill="url(#SVGID_261_)" points="704.435,1041.063 757.264,1093.893 704.435,1146.722 
		651.605,1093.893 	"/>
</g>
<g>
	<defs>
		<path id="SVGID_262_" d="M732.11,1058.431v51.877c0,6.162,1.457,10.979,4.481,14.565c3.249,3.921,7.844,5.826,13.895,5.826h14.678
			v-12.772h-7.396c-4.706,0-7.955-0.673-9.636-1.904c-2.353-1.682-3.586-5.267-3.586-10.757v-46.835H732.11z"/>
	</defs>
	<clipPath id="SVGID_263_">
		<use xlink:href="#SVGID_262_"  overflow="visible"/>
	</clipPath>
	
		<linearGradient id="SVGID_264_" gradientUnits="userSpaceOnUse" x1="-171.5771" y1="1282.999" x2="-170.5771" y2="1282.999" gradientTransform="matrix(1312.8484 1312.8484 1312.8484 -1312.8484 -1459325.875 1909788.875)">
		<stop  offset="0" style="stop-color:#009676"/>
		<stop  offset="1" style="stop-color:#0D5042"/>
		<stop  offset="1" style="stop-color:#FFF2E9"/>
	</linearGradient>
	<polygon clip-path="url(#SVGID_263_)" fill="url(#SVGID_264_)" points="748.637,1041.903 801.299,1094.564 748.637,1147.227 
		695.976,1094.564 	"/>
</g>
<g>
	<defs>
		<path id="SVGID_265_" d="M781.635,1079.83v25.771c0,3.921-0.448,6.835-1.345,8.515c-1.345,2.577-3.81,3.811-7.507,3.811h-11.652
			v12.772h51.765v-12.772h-21.513c1.792-2.128,2.689-6.387,2.689-12.998v-25.099H781.635z M781.747,1069.522h12.325v-12.438h-12.325
			V1069.522z"/>
	</defs>
	<clipPath id="SVGID_266_">
		<use xlink:href="#SVGID_265_"  overflow="visible"/>
	</clipPath>
	
		<linearGradient id="SVGID_267_" gradientUnits="userSpaceOnUse" x1="-171.5776" y1="1283.002" x2="-170.5776" y2="1283.002" gradientTransform="matrix(1312.8484 1312.8484 1312.8484 -1312.8484 -1459305.875 1909771.625)">
		<stop  offset="0" style="stop-color:#009676"/>
		<stop  offset="1" style="stop-color:#0D5042"/>
		<stop  offset="1" style="stop-color:#FFF2E9"/>
	</linearGradient>
	<polygon clip-path="url(#SVGID_266_)" fill="url(#SVGID_267_)" points="787.013,1031.203 849.702,1093.893 787.014,1156.581 
		724.324,1093.893 	"/>
</g>
<g>
	<defs>
		<path id="SVGID_268_" d="M829.928,1155.35h12.325v-12.549h-12.325V1155.35z M829.928,1079.83v25.771
			c0,3.921-0.447,6.835-1.345,8.515c-1.344,2.577-3.81,3.811-7.507,3.811h-11.653v12.772h51.766v-12.772h-21.513
			c1.793-2.128,2.689-6.387,2.689-12.998v-25.099H829.928z"/>
	</defs>
	<clipPath id="SVGID_269_">
		<use xlink:href="#SVGID_268_"  overflow="visible"/>
	</clipPath>
	
		<linearGradient id="SVGID_270_" gradientUnits="userSpaceOnUse" x1="-171.5698" y1="1282.9971" x2="-170.5798" y2="1282.9971" gradientTransform="matrix(1312.8484 1312.8484 1312.8484 -1312.8484 -1459289.875 1909754.125)">
		<stop  offset="0" style="stop-color:#009676"/>
		<stop  offset="1" style="stop-color:#0D5042"/>
		<stop  offset="1" style="stop-color:#FFF2E9"/>
	</linearGradient>
	<polygon clip-path="url(#SVGID_269_)" fill="url(#SVGID_270_)" points="835.306,1053.948 898.947,1117.59 835.306,1181.232 
		771.664,1117.59 	"/>
</g>
<g>
	<defs>
		<path id="SVGID_271_" d="M878.22,1058.431v47.171c0,3.921-0.447,6.835-1.345,8.515c-1.344,2.577-3.809,3.811-7.507,3.811h-11.652
			v12.772h51.316v-12.772h-21.064c1.793-2.128,2.689-6.387,2.689-12.998v-46.498H878.22z"/>
	</defs>
	<clipPath id="SVGID_272_">
		<use xlink:href="#SVGID_271_"  overflow="visible"/>
	</clipPath>
	
		<linearGradient id="SVGID_273_" gradientUnits="userSpaceOnUse" x1="-171.5693" y1="1283" x2="-170.5797" y2="1283" gradientTransform="matrix(1312.8484 1312.8484 1312.8484 -1312.8484 -1459257.875 1909723.625)">
		<stop  offset="0" style="stop-color:#009676"/>
		<stop  offset="1" style="stop-color:#0D5042"/>
		<stop  offset="1" style="stop-color:#FFF2E9"/>
	</linearGradient>
	<polygon clip-path="url(#SVGID_272_)" fill="url(#SVGID_273_)" points="883.374,1032.772 945.167,1094.564 883.374,1156.357 
		821.582,1094.564 	"/>
</g>
<g>
	<defs>
		<path id="SVGID_274_" d="M925.28,1058.431v47.73c0,4.033-0.337,6.723-0.896,8.067c-1.231,2.465-3.81,3.698-7.954,3.698h-10.646
			v12.772h13.221c12.551,0,18.824-6.722,18.824-20.281v-51.987H925.28z"/>
	</defs>
	<clipPath id="SVGID_275_">
		<use xlink:href="#SVGID_274_"  overflow="visible"/>
	</clipPath>
	
		<linearGradient id="SVGID_276_" gradientUnits="userSpaceOnUse" x1="-171.5776" y1="1282.998" x2="-170.5776" y2="1282.998" gradientTransform="matrix(1312.8484 1312.8484 1312.8484 -1312.8484 -1459233.875 1909699.875)">
		<stop  offset="0" style="stop-color:#009676"/>
		<stop  offset="1" style="stop-color:#0D5042"/>
		<stop  offset="1" style="stop-color:#FFF2E9"/>
	</linearGradient>
	<polygon clip-path="url(#SVGID_275_)" fill="url(#SVGID_276_)" points="921.807,1042.408 973.964,1094.564 921.807,1146.722 
		869.649,1094.564 	"/>
</g>
<g>
	<defs>
		<rect id="SVGID_277_" x="949.37" y="1058.317" width="12.438" height="72.382"/>
	</defs>
	<clipPath id="SVGID_278_">
		<use xlink:href="#SVGID_277_"  overflow="visible"/>
	</clipPath>
	
		<linearGradient id="SVGID_279_" gradientUnits="userSpaceOnUse" x1="-171.5776" y1="1282.9961" x2="-170.5776" y2="1282.9961" gradientTransform="matrix(1312.8484 1312.8484 1312.8484 -1312.8484 -1459217.875 1909682.875)">
		<stop  offset="0" style="stop-color:#009676"/>
		<stop  offset="1" style="stop-color:#0D5042"/>
		<stop  offset="1" style="stop-color:#FFF2E9"/>
	</linearGradient>
	<polygon clip-path="url(#SVGID_278_)" fill="url(#SVGID_279_)" points="955.589,1052.099 997.998,1094.509 955.589,1136.918 
		913.179,1094.509 	"/>
</g>
<g>
	<defs>
		<path id="SVGID_280_" d="M1054.021,1058.431v51.092c0,15.798-9.412,27.788-22.634,27.788c-13.669,0-22.855-12.325-22.855-27.788
			v-9.523H995.87v10.98c0,21.063,16.021,38.319,35.517,38.319c12.326,0,23.867-6.946,30.253-18.6h23.305v-12.772h-18.935
			c0.448-2.354,0.673-4.595,0.673-6.947v-52.549H1054.021z"/>
	</defs>
	<clipPath id="SVGID_281_">
		<use xlink:href="#SVGID_280_"  overflow="visible"/>
	</clipPath>
	
		<linearGradient id="SVGID_282_" gradientUnits="userSpaceOnUse" x1="-171.5835" y1="1282.9961" x2="-170.5764" y2="1282.9961" gradientTransform="matrix(1312.8484 1312.8484 1312.8484 -1312.8484 -1459177.875 1909644.375)">
		<stop  offset="0" style="stop-color:#009676"/>
		<stop  offset="1" style="stop-color:#0D5042"/>
		<stop  offset="1" style="stop-color:#FFF2E9"/>
	</linearGradient>
	<polygon clip-path="url(#SVGID_281_)" fill="url(#SVGID_282_)" points="1040.407,1013.893 1130.379,1103.864 1040.407,1193.836 
		950.437,1103.864 	"/>
</g>
<g>
	<defs>
		<path id="SVGID_283_" d="M1079.231,1155.237h12.326v-12.55h-12.326V1155.237z M1100.409,1155.237h12.324v-12.55h-12.324V1155.237z
			 M1100.745,1079.83v25.771c0,3.921-0.447,6.835-1.344,8.515c-1.344,2.577-3.922,3.811-7.619,3.811h-11.989v12.772h51.653v-12.772
			h-21.065c1.905-2.128,2.802-6.387,2.802-12.998v-25.099H1100.745z"/>
	</defs>
	<clipPath id="SVGID_284_">
		<use xlink:href="#SVGID_283_"  overflow="visible"/>
	</clipPath>
	
		<linearGradient id="SVGID_285_" gradientUnits="userSpaceOnUse" x1="-171.5859" y1="1283" x2="-170.5758" y2="1283" gradientTransform="matrix(1312.8484 1312.8484 1312.8484 -1312.8484 -1459157.875 1909624.125)">
		<stop  offset="0" style="stop-color:#009676"/>
		<stop  offset="1" style="stop-color:#0D5042"/>
		<stop  offset="1" style="stop-color:#FFF2E9"/>
	</linearGradient>
	<polygon clip-path="url(#SVGID_284_)" fill="url(#SVGID_285_)" points="1105.339,1053.724 1169.149,1117.534 1105.339,1181.345 
		1041.528,1117.534 	"/>
</g>
<g>
	<defs>
		<path id="SVGID_286_" d="M1147.692,1058.431v47.73c0,4.033-0.334,6.723-0.896,8.067c-1.231,2.465-3.81,3.698-7.955,3.698h-10.644
			v12.772h13.222c12.548,0,18.822-6.722,18.822-20.281v-51.987H1147.692z"/>
	</defs>
	<clipPath id="SVGID_287_">
		<use xlink:href="#SVGID_286_"  overflow="visible"/>
	</clipPath>
	
		<linearGradient id="SVGID_288_" gradientUnits="userSpaceOnUse" x1="-171.5669" y1="1282.998" x2="-170.5791" y2="1282.998" gradientTransform="matrix(1312.8484 1312.8484 1312.8484 -1312.8484 -1459125.875 1909588.625)">
		<stop  offset="0" style="stop-color:#009676"/>
		<stop  offset="1" style="stop-color:#0D5042"/>
		<stop  offset="1" style="stop-color:#FFF2E9"/>
	</linearGradient>
	<polygon clip-path="url(#SVGID_287_)" fill="url(#SVGID_288_)" points="1144.22,1042.408 1196.376,1094.565 1144.22,1146.722 
		1092.063,1094.565 	"/>
</g>
<g>
	<defs>
		<path id="SVGID_289_" d="M1182.989,1091.26c4.033,0,7.842,0.224,11.316,1.008c11.316,2.466,17.03,10.98,17.03,25.659h-40.56
			v12.772h72.717v-12.772h-19.496c-0.112-19.16-7.619-31.262-22.633-36.303c-2.913-1.009-5.154-1.458-6.723-1.569
			c-1.569-0.112-5.49-0.225-11.652-0.225V1091.26z"/>
	</defs>
	<clipPath id="SVGID_290_">
		<use xlink:href="#SVGID_289_"  overflow="visible"/>
	</clipPath>
	
		<linearGradient id="SVGID_291_" gradientUnits="userSpaceOnUse" x1="-171.5776" y1="1283.0049" x2="-170.5776" y2="1283.0049" gradientTransform="matrix(1312.8484 1312.8484 1312.8484 -1312.8484 -1459105.875 1909572.125)">
		<stop  offset="0" style="stop-color:#009676"/>
		<stop  offset="1" style="stop-color:#0D5042"/>
		<stop  offset="1" style="stop-color:#FFF2E9"/>
	</linearGradient>
	<polygon clip-path="url(#SVGID_290_)" fill="url(#SVGID_291_)" points="1207.135,1043.473 1268.928,1105.266 1207.134,1167.059 
		1145.341,1105.266 	"/>
</g>
<g>
	<defs>
		<path id="SVGID_292_" d="M1257.388,1058.431v47.73c0,4.033-0.336,6.723-0.896,8.067c-1.233,2.465-3.81,3.698-7.955,3.698h-10.646
			v12.772h13.222c12.55,0,18.824-6.722,18.824-20.281v-51.987H1257.388z"/>
	</defs>
	<clipPath id="SVGID_293_">
		<use xlink:href="#SVGID_292_"  overflow="visible"/>
	</clipPath>
	
		<linearGradient id="SVGID_294_" gradientUnits="userSpaceOnUse" x1="-171.5776" y1="1282.9971" x2="-170.5776" y2="1282.9971" gradientTransform="matrix(1312.8484 1312.8484 1312.8484 -1312.8484 -1459069.875 1909533.625)">
		<stop  offset="0" style="stop-color:#009676"/>
		<stop  offset="1" style="stop-color:#0D5042"/>
		<stop  offset="1" style="stop-color:#FFF2E9"/>
	</linearGradient>
	<polygon clip-path="url(#SVGID_293_)" fill="url(#SVGID_294_)" points="1253.914,1042.408 1306.071,1094.565 1253.914,1146.722 
		1201.757,1094.565 	"/>
</g>
<g>
	<defs>
		<rect id="SVGID_295_" x="1281.479" y="1058.317" width="12.438" height="72.382"/>
	</defs>
	<clipPath id="SVGID_296_">
		<use xlink:href="#SVGID_295_"  overflow="visible"/>
	</clipPath>
	
		<linearGradient id="SVGID_297_" gradientUnits="userSpaceOnUse" x1="-171.5776" y1="1282.998" x2="-170.5776" y2="1282.998" gradientTransform="matrix(1312.8484 1312.8484 1312.8484 -1312.8484 -1459053.875 1909516.875)">
		<stop  offset="0" style="stop-color:#009676"/>
		<stop  offset="1" style="stop-color:#0D5042"/>
		<stop  offset="1" style="stop-color:#FFF2E9"/>
	</linearGradient>
	<polygon clip-path="url(#SVGID_296_)" fill="url(#SVGID_297_)" points="1287.697,1052.1 1330.106,1094.509 1287.697,1136.918 
		1245.288,1094.509 	"/>
</g>
</svg>
