<?xml version="1.0" encoding="utf-8"?>
<!-- Generator: Adobe Illustrator 16.0.0, SVG Export Plug-In . SVG Version: 6.00 Build 0)  -->
<!DOCTYPE svg PUBLIC "-//W3C//DTD SVG 1.1//EN" "http://www.w3.org/Graphics/SVG/1.1/DTD/svg11.dtd">
<svg version="1.1" id="Layer_1" xmlns="http://www.w3.org/2000/svg" xmlns:xlink="http://www.w3.org/1999/xlink" x="0px" y="0px"
	 width="267.344px" height="299.939px" viewBox="0 0 267.344 299.939" enable-background="new 0 0 267.344 299.939"
	 xml:space="preserve">
<g>
	<defs>
		<rect id="SVGID_1_" x="1971.954" y="2266.836" width="2902.677" height="5612.598"/>
	</defs>
	<clipPath id="SVGID_2_">
		<use xlink:href="#SVGID_1_"  overflow="visible"/>
	</clipPath>
	
		<linearGradient id="SVGID_3_" gradientUnits="userSpaceOnUse" x1="1972.6978" y1="2334.3438" x2="1973.6978" y2="2334.3438" gradientTransform="matrix(3071.9939 5840.3604 5840.3604 -3071.9939 -19691652 -4348053)">
		<stop  offset="0" style="stop-color:#146BCA"/>
		<stop  offset="1" style="stop-color:#273E7C"/>
	</linearGradient>
	<polygon clip-path="url(#SVGID_2_)" fill="url(#SVGID_3_)" points="4245.586,1070.92 7187.048,6663.117 2600.999,9075.35 
		-340.463,3483.153 	"/>
</g>
<g>
	<defs>
		<rect id="SVGID_4_" x="-4985.199" y="-3609.249" width="2902.677" height="5612.599"/>
	</defs>
	<clipPath id="SVGID_5_">
		<use xlink:href="#SVGID_4_"  overflow="visible"/>
	</clipPath>
	<path clip-path="url(#SVGID_5_)" fill="#26A084" d="M-3372.497,1675.487c-5.657-5.665-13.206-8.788-21.259-8.788h-0.015
		c-8.05,0-15.598,3.123-21.262,8.779l-2.569,2.568c-1.848,1.849-1.848,4.843,0,6.69c1.847,1.848,4.847,1.848,6.69,0.005l2.569-2.569
		c3.879-3.877,9.054-6.012,14.581-6.012h0.005c5.521,0,10.695,2.135,14.566,6.012c7.748,7.748,7.562,17.793-0.558,29.833
		l-1.927,2.874l-3.438,4.187c-1.189,1.225-2.226,1.894-2.901,1.894c-2.023,0-6.162-4.26-10.17-8.38
		c-1.214-1.249-2.508-2.578-3.894-3.965l-5.17-5.174l-2.33-2.312l-22.417-22.431c-5.669-5.66-13.22-8.779-21.267-8.779h-0.01
		c-8.059,0.004-15.606,3.127-21.259,8.793c-11.721,11.726-11.721,30.804,0,42.525l30.036,30.115
		c5.869,5.867,13.576,8.797,21.273,8.797c7.701,0,15.394-2.93,21.25-8.788l9.036-8.999c1.853-1.844,1.857-4.839,0.014-6.692
		c-1.839-1.848-4.832-1.857-6.69-0.014l-9.047,9.006c-8.026,8.04-21.1,8.035-29.14,0.005l-30.038-30.121
		c-8.029-8.033-8.038-21.104,0-29.145c3.873-3.881,9.043-6.016,14.564-6.021h0.01c5.52,0,10.698,2.135,14.577,6.012l29.914,29.917
		c1.36,1.349,2.616,2.646,3.8,3.866c6.349,6.523,10.931,11.245,16.943,11.245h0.013c3.389,0,6.553-1.552,9.935-5.034l3.965-4.833
		l2.203-3.243C-3361.205,1701.416-3361.414,1686.567-3372.497,1675.487"/>
	<path clip-path="url(#SVGID_5_)" fill="#26A084" d="M-3431.153,1644.707v17.954c0,2.614,2.121,4.731,4.731,4.731
		s4.73-2.117,4.73-4.731v-17.954c16.684-1.757,29.751-15.922,29.751-33.04c0-0.606-0.042-1.198-0.111-2.167l-0.301-4.428
		l-4.434,0.02c-9.931,0.028-18.829,4.473-24.905,11.431v-13.694c0-2.611-2.12-4.731-4.73-4.731s-4.731,2.12-4.731,4.731v13.694
		c-6.076-6.963-14.976-11.402-24.899-11.431l-4.439,0.36l-0.32,4.398c-0.046,0.602-0.083,1.201-0.083,1.816
		C-3460.896,1628.785-3447.834,1642.95-3431.153,1644.707 M-3401.652,1615.071c-1.423,9.842-8.918,17.761-18.545,19.83
		C-3418.775,1625.061-3411.282,1617.132-3401.652,1615.071 M-3432.646,1634.901c-9.629-2.069-17.118-9.988-18.542-19.826
		C-3441.559,1617.137-3434.07,1625.061-3432.646,1634.901"/>
	<path clip-path="url(#SVGID_5_)" fill="#FFFFFF" d="M-3708.897,1741.826c-2.596,0-4.796,0.887-6.607,2.657
		c-1.801,1.77-2.707,3.919-2.707,6.441c0,2.681,0.887,4.901,2.657,6.676c1.77,1.793,3.969,2.688,6.584,2.688
		c2.642,0,4.874-0.877,6.694-2.633c1.807-1.775,2.708-3.97,2.708-6.588c0-2.6-0.896-4.788-2.694-6.567
		C-3704.079,1742.718-3706.292,1741.826-3708.897,1741.826 M-3705.112,1755.161c-0.947,1.017-2.204,1.524-3.785,1.524
		c-1.57,0-2.827-0.517-3.788-1.542c-0.934-1.018-1.396-2.403-1.396-4.149c0-1.626,0.476-2.953,1.433-3.984
		c0.961-1.025,2.208-1.543,3.751-1.543c1.567,0,2.828,0.518,3.785,1.543c0.946,1.018,1.418,2.374,1.418,4.077
		C-3703.694,1752.787-3704.167,1754.145-3705.112,1755.161"/>
	<path clip-path="url(#SVGID_5_)" fill="#FFFFFF" d="M-3684.409,1752.343c0,2.893-1.136,4.343-3.423,4.343
		c-2.288,0-3.429-1.45-3.429-4.343v-10.03h-4.033v10.122c0,1.599,0.166,2.81,0.499,3.623c0.346,0.905,0.942,1.728,1.774,2.458
		c1.368,1.184,3.096,1.773,5.189,1.773c2.102,0,3.839-0.59,5.202-1.773c0.827-0.73,1.41-1.553,1.742-2.458
		c0.346-1.018,0.518-2.229,0.518-3.623v-10.122h-4.039V1752.343z"/>
	<path clip-path="url(#SVGID_5_)" fill="#FFFFFF" d="M-3657.205,1741.826c-2.162,0-3.881,0.859-5.147,2.587
		c-1.15-1.728-2.712-2.587-4.685-2.587c-0.887,0-1.621,0.147-2.208,0.454c-0.551,0.285-1.211,0.832-1.991,1.644v-1.611h-4.034
		v17.479h4.034v-9.029c0-1.829,0.263-3.168,0.78-4.021c0.518-0.848,1.35-1.274,2.486-1.274c1.792,0,2.689,1.558,2.689,4.668v9.656
		h4.057v-9.029c0-1.853,0.254-3.195,0.762-4.039c0.509-0.834,1.317-1.256,2.435-1.256c0.952,0,1.644,0.357,2.061,1.063
		c0.407,0.692,0.61,1.877,0.61,3.549v9.712h4.056v-10.803C-3651.3,1744.209-3653.268,1741.826-3657.205,1741.826"/>
	<path clip-path="url(#SVGID_5_)" fill="#FFFFFF" d="M-3628.137,1741.826c-2.168,0-3.882,0.859-5.152,2.587
		c-1.146-1.728-2.707-2.587-4.681-2.587c-0.882,0-1.621,0.147-2.204,0.454c-0.555,0.285-1.219,0.832-1.995,1.644v-1.611h-4.039
		v17.479h4.039v-9.029c0-1.829,0.258-3.168,0.78-4.021c0.523-0.848,1.35-1.274,2.486-1.274c1.797,0,2.694,1.558,2.694,4.668v9.656
		h4.052v-9.029c0-1.853,0.254-3.195,0.762-4.039c0.509-0.834,1.322-1.256,2.43-1.256c0.961,0,1.646,0.357,2.066,1.063
		c0.407,0.692,0.609,1.877,0.609,3.549v9.712h4.053v-10.803C-3622.237,1744.209-3624.201,1741.826-3628.137,1741.826"/>
	<path clip-path="url(#SVGID_5_)" fill="#FFFFFF" d="M-3604.254,1744.34c-1.618-1.673-3.439-2.514-5.472-2.514
		c-2.36,0-4.324,0.873-5.885,2.619c-1.572,1.747-2.352,3.934-2.352,6.549c0,2.669,0.78,4.896,2.352,6.681
		c1.579,1.746,3.575,2.615,5.988,2.615c1.916,0,3.705-0.776,5.369-2.328v1.83h4.056v-17.479h-4.056V1744.34z M-3605.388,1755.143
		c-0.92,1.026-2.13,1.543-3.626,1.543c-1.396,0-2.561-0.535-3.479-1.599c-0.897-1.055-1.345-2.416-1.345-4.093
		c0-1.563,0.462-2.884,1.381-3.947c0.933-1.054,2.094-1.579,3.479-1.579c1.474,0,2.67,0.521,3.59,1.561
		c0.92,1.068,1.382,2.42,1.382,4.059C-3604.005,1752.727-3604.468,1754.08-3605.388,1755.143"/>
	<rect x="-3595.106" y="1729.479" clip-path="url(#SVGID_5_)" fill="#FFFFFF" width="4.037" height="30.313"/>
	<path clip-path="url(#SVGID_5_)" fill="#FFFFFF" d="M-3582.836,1755.3c-0.677,0-1.265,0.248-1.756,0.739
		c-0.489,0.489-0.732,1.072-0.732,1.737c0,0.721,0.234,1.319,0.713,1.798c0.481,0.475,1.075,0.715,1.775,0.715
		c0.699,0,1.286-0.24,1.76-0.715c0.496-0.491,0.737-1.087,0.737-1.779c0-0.679-0.241-1.267-0.737-1.756
		C-3581.564,1755.548-3582.151,1755.3-3582.836,1755.3"/>
	<path clip-path="url(#SVGID_5_)" fill="#FFFFFF" d="M-3566.126,1741.826c-2.599,0-4.798,0.887-6.609,2.657
		c-1.802,1.77-2.708,3.919-2.708,6.441c0,2.681,0.887,4.901,2.657,6.676c1.77,1.793,3.968,2.688,6.585,2.688
		c2.641,0,4.874-0.877,6.695-2.633c1.806-1.775,2.705-3.97,2.705-6.588c0-2.6-0.894-4.788-2.691-6.567
		C-3561.309,1742.718-3563.523,1741.826-3566.126,1741.826 M-3562.344,1755.161c-0.947,1.017-2.203,1.524-3.782,1.524
		c-1.573,0-2.831-0.517-3.79-1.542c-0.933-1.018-1.395-2.403-1.395-4.149c0-1.626,0.475-2.953,1.432-3.984
		c0.959-1.025,2.207-1.543,3.753-1.543c1.565,0,2.825,0.518,3.782,1.543c0.947,1.018,1.42,2.374,1.42,4.077
		C-3560.924,1752.787-3561.397,1754.145-3562.344,1755.161"/>
	<path clip-path="url(#SVGID_5_)" fill="#FFFFFF" d="M-3546.519,1742.28c-0.572,0.285-1.23,0.813-1.975,1.593v-1.561h-4.032v17.479
		h4.032v-9.065c0-3.326,1.105-4.984,3.306-4.984c0.727,0,1.478,0.271,2.24,0.827l1.846-3.697c-1.158-0.693-2.272-1.045-3.336-1.045
		C-3545.233,1741.826-3545.933,1741.974-3546.519,1742.28"/>
	<path clip-path="url(#SVGID_5_)" fill="#FFFFFF" d="M-3525.922,1742.313v1.971c-1.46-1.635-3.29-2.457-5.49-2.457
		c-2.513,0-4.532,0.947-6.062,2.837c-1.422,1.784-2.133,3.945-2.133,6.495c0,2.615,0.762,4.802,2.291,6.549
		c1.519,1.724,3.469,2.582,5.851,2.582c2.097,0,3.944-0.817,5.543-2.457v2.439c0,3.627-1.478,5.438-4.432,5.438
		c-1.604,0-2.821-0.546-3.659-1.63c-0.355-0.473-0.614-1.133-0.772-1.997h-4.056c0.241,2.286,1.135,4.075,2.694,5.369
		c1.506,1.256,3.424,1.883,5.761,1.883c2.763,0,4.937-0.912,6.511-2.728c0.836-0.948,1.399-2.076,1.687-3.392
		c0.098-0.477,0.172-1.03,0.223-1.66c0.056-0.628,0.081-1.354,0.081-2.181v-17.062H-3525.922z M-3526.994,1754.994
		c-0.901,1.128-2.119,1.691-3.662,1.691c-1.545,0-2.75-0.555-3.627-1.672c-0.8-1.018-1.203-2.319-1.203-3.908
		c0-1.619,0.403-2.93,1.203-3.947c0.887-1.137,2.096-1.71,3.627-1.71c1.436,0,2.614,0.526,3.535,1.563
		c0.909,1.016,1.365,2.374,1.365,4.075C-3525.756,1752.676-3526.173,1753.978-3526.994,1754.994"/>
	<path clip-path="url(#SVGID_5_)" fill="#FFFFFF" d="M-3528.796,1698.745h-25.864c-11.001,0-19.951-8.943-19.951-19.95
		c0-11.001,8.95-19.95,19.951-19.95c11.002,0,19.95,8.949,19.95,19.95c0,3.271,2.651,5.915,5.914,5.915
		c3.272,0,5.916-2.644,5.916-5.915c0-17.52-14.255-31.778-31.78-31.778c-17.521,0-31.778,14.259-31.778,31.778
		c0,7.56,2.661,14.494,7.076,19.95h-27.033c-11,0-19.955-8.943-19.955-19.95c0-0.129-0.064-0.23-0.073-0.359
		c-0.758-16.855-14.666-30.338-31.706-30.338c-17.034,0-30.942,13.482-31.705,30.338c-0.008,0.129-0.073,0.23-0.073,0.359
		c0,11.007-8.955,19.95-19.955,19.95h-4.732c-11.001,0-19.955-8.943-19.955-19.95v-71.236c0-3.262-2.643-5.913-5.914-5.913
		c-3.263,0-5.914,2.651-5.914,5.913v71.236c0,17.525,14.259,31.779,31.783,31.779h4.732c10.424,0,19.663-5.063,25.462-12.84
		c5.73,8.395,15.368,13.921,26.271,13.921c10.909,0,20.547-5.526,26.271-13.921c5.799,7.776,15.039,12.84,25.462,12.84h77.6
		c3.272,0,5.916-2.643,5.916-5.914C-3522.88,1701.397-3525.523,1698.745-3528.796,1698.745 M-3658.129,1699.827
		c-11,0-19.951-8.945-19.951-19.951c0-11.001,8.951-19.949,19.951-19.949c11.001,0,19.952,8.948,19.952,19.949
		C-3638.177,1690.882-3647.128,1699.827-3658.129,1699.827"/>
	<path clip-path="url(#SVGID_5_)" fill="#FFFFFF" d="M-3764.425,1601.645c-3.271,0-5.913,2.652-5.913,5.913v71.237
		c0,11.006-8.956,19.951-19.956,19.951h-19.235c-11.001,0-19.95-8.945-19.95-19.951c0-5.867,2.569-11.421,7.059-15.224
		c2.486-2.111,2.796-5.845,0.684-8.334c-2.107-2.491-5.845-2.791-8.335-0.686c-7.143,6.058-11.237,14.893-11.237,24.243
		c0,17.525,14.259,31.779,32.089,31.779h18.925c17.525,0,31.783-14.254,31.783-31.779v-71.237
		C-3758.511,1604.297-3761.162,1601.645-3764.425,1601.645"/>
	<path clip-path="url(#SVGID_5_)" fill="#FFFFFF" d="M-3667.84,1628.826c1.284,0.78,2.726,1.184,4.195,1.184
		c0.638,0,1.284-0.079,1.922-0.232c2.098-0.508,3.877-1.807,4.999-3.654c0.019-0.027,0.028-0.06,0.046-0.092
		c1.248,0.767,2.657,1.279,4.168,1.279c0.633,0,1.276-0.078,1.913-0.23c4.334-1.059,7.004-5.438,5.952-9.772
		c-0.49-2.027-1.738-3.77-3.512-4.897c-1.1-0.711-2.57-0.389-3.267,0.72c-0.702,1.101-0.384,2.56,0.72,3.263
		c0.74,0.473,1.261,1.196,1.465,2.033c0.435,1.797-0.674,3.618-2.476,4.057c-1.797,0.448-3.613-0.675-4.057-2.476
		c-0.309-1.266-1.594-2.048-2.855-1.737c-1.275,0.31-2.052,1.588-1.742,2.854c0.212,0.873,0.07,1.774-0.392,2.541
		c-0.472,0.767-1.207,1.303-2.08,1.516c-0.874,0.212-1.779,0.069-2.541-0.396c-0.767-0.463-1.303-1.202-1.515-2.08
		c-0.204-0.832-0.074-1.709,0.369-2.468c0.656-1.127,0.277-2.577-0.855-3.232c-1.128-0.657-2.578-0.278-3.234,0.854
		c-1.058,1.824-1.373,3.94-0.874,5.966C-3670.982,1625.925-3669.688,1627.704-3667.84,1628.826"/>
	<path clip-path="url(#SVGID_5_)" fill="#FFFFFF" d="M-3283.344,1715.23c-26.979,0-48.929-21.95-48.929-48.93
		s21.95-48.93,48.929-48.93c26.979,0,48.93,21.95,48.93,48.93S-3256.364,1715.23-3283.344,1715.23 M-3283.344,1623.682
		c-23.5,0-42.617,19.119-42.617,42.619c0,23.499,19.117,42.618,42.617,42.618s42.618-19.119,42.618-42.618
		C-3240.726,1642.801-3259.844,1623.682-3283.344,1623.682"/>
	<path clip-path="url(#SVGID_5_)" fill="#FFFFFF" d="M-3283.344,1635.85c-13.699,0-25.313,9.096-29.125,21.565h11.721
		c3.242-6.324,9.824-10.664,17.404-10.664c10.78,0,19.552,8.77,19.552,19.55c0,10.781-8.771,19.551-19.552,19.551
		c-7.58,0-14.164-4.341-17.404-10.665h-11.721c3.813,12.469,15.426,21.565,29.125,21.565c16.791,0,30.451-13.66,30.451-30.451
		C-3252.893,1649.511-3266.553,1635.85-3283.344,1635.85"/>
</g>
<g>
	<path fill="#FFFFFF" d="M-1535.735-4258.003v-61.214h9.882l9.007,48.884l8.919-48.884h9.969v61.214h-6.559v-51.07l-9.707,51.07
		h-5.772l-9.707-51.07v51.07H-1535.735z"/>
	<path fill="#FFFFFF" d="M-1490.44-4258.003v-61.214h6.821v61.214H-1490.44z"/>
	<path fill="#FFFFFF" d="M-1476.101-4258.003v-61.214h8.745l13.817,43.724v-43.724h6.208v61.214h-7.083l-15.479-49.758v49.758
		H-1476.101z"/>
	<path fill="#FFFFFF" d="M-1439.726-4258.003v-61.214h6.821v61.214H-1439.726z"/>
	<path fill="#FFFFFF" d="M-1427.135-4275.406h6.471v3.936c0,5.421,2.361,8.132,7.083,8.132c4.81,0,7.171-2.711,7.171-8.22
		c0-2.798-0.7-5.247-2.099-7.433c-1.312-2.187-3.76-4.723-7.346-7.696c-4.198-3.41-7.171-6.559-8.833-9.357
		s-2.448-5.946-2.448-9.444c0-9.182,4.984-14.604,13.729-14.604c8.745,0,13.467,5.334,13.467,14.779v2.449h-6.471v-2.886
		c0-5.422-2.361-8.133-6.996-8.133s-6.996,2.624-6.996,7.958c0,2.536,0.7,4.81,2.099,6.908c1.399,2.099,3.935,4.635,7.608,7.608
		c4.198,3.498,7.083,6.646,8.658,9.532c1.661,2.798,2.448,6.034,2.448,9.794c0,9.532-5.072,14.954-13.904,14.954
		c-8.832,0-13.642-5.334-13.642-14.866V-4275.406z"/>
	<path fill="#FFFFFF" d="M-1386.038-4258.003v-55.005h-10.843v-6.209h28.508v6.209h-10.843v55.005H-1386.038z"/>
	<path fill="#FFFFFF" d="M-1363.653-4258.003v-61.214h13.38c9.707,0,13.817,4.373,13.817,13.904v3.76
		c0,6.734-2.361,10.844-7.083,12.331v0.087c4.81,1.224,7.171,5.509,7.171,12.767v10.931c0,3.323,0.262,5.771,0.875,7.433h-6.909
		c-0.524-1.749-0.787-4.197-0.787-7.433v-11.281c0-6.559-2.273-8.92-8.132-8.92h-5.509v27.634H-1363.653z M-1356.832-4291.846h5.509
		c5.509,0,8.045-2.449,8.045-8.395v-4.373c0-5.946-2.011-8.395-7.17-8.395h-6.384V-4291.846z"/>
	<path fill="#FFFFFF" d="M-1321.332-4258.003v-26.847l-12.331-34.367h7.258l8.745,25.535l8.745-25.535h6.733l-12.33,34.367v26.847
		H-1321.332z"/>
	<path fill="#FFFFFF" d="M-1284.869-4272.257v-32.793c0-9.707,4.984-15.042,13.991-15.042c9.095,0,14.079,5.334,14.079,15.042
		v32.793c0,9.707-4.984,15.128-14.079,15.128C-1279.885-4257.129-1284.869-4262.551-1284.869-4272.257z M-1263.619-4271.82v-33.667
		c0-5.597-2.449-8.395-7.259-8.395s-7.17,2.798-7.17,8.395v33.667c0,5.684,2.36,8.482,7.17,8.482
		S-1263.619-4266.136-1263.619-4271.82z"/>
	<path fill="#FFFFFF" d="M-1249.98-4258.003v-61.214h24.311v6.209h-17.489v20.813h14.079v6.209h-14.079v27.983H-1249.98z"/>
	<path fill="#FFFFFF" d="M-1207.484-4258.003v-61.214h13.38c9.182,0,13.816,4.985,13.816,14.866v5.247
		c0,9.882-4.635,14.779-13.816,14.779h-6.559v26.322H-1207.484z M-1200.663-4290.534h6.559c4.897,0,6.996-2.273,6.996-8.22v-6.034
		c0-5.947-2.099-8.22-6.996-8.22h-6.559V-4290.534z"/>
	<path fill="#FFFFFF" d="M-1175.131-4272.257v-46.96h6.821v47.484c0,5.597,2.36,8.395,7.083,8.395s7.083-2.798,7.083-8.395v-47.484
		h6.646v46.96c0,9.794-4.81,15.128-13.817,15.128C-1170.408-4257.129-1175.131-4262.463-1175.131-4272.257z"/>
	<path fill="#FFFFFF" d="M-1140.329-4258.003v-61.214h13.643c9.706,0,13.816,4.373,13.816,13.904v2.536
		c0,6.559-2.273,10.581-6.821,12.243v0.175c5.16,1.487,7.783,5.772,7.783,12.855v5.247c0,9.532-4.723,14.254-14.079,14.254
		H-1140.329z M-1133.508-4293.07h5.771c5.509,0,8.045-2.448,8.045-8.395v-3.148c0-5.946-2.011-8.395-7.171-8.395h-6.646V-4293.07z
		 M-1133.508-4264.212h7.521c4.984,0,7.258-2.361,7.258-8.22v-5.247c0-6.646-2.36-9.182-8.657-9.182h-6.121V-4264.212z"/>
	<path fill="#FFFFFF" d="M-1106.052-4258.003v-61.214h6.821v55.005h17.489v6.209H-1106.052z"/>
	<path fill="#FFFFFF" d="M-1077.021-4258.003v-61.214h6.821v61.214H-1077.021z"/>
	<path fill="#FFFFFF" d="M-1063.381-4271.733v-33.755c0-9.182,4.896-14.604,13.642-14.604s13.642,5.422,13.642,14.604v6.296h-6.471
		v-6.733c0-5.16-2.711-7.958-6.996-7.958s-6.995,2.798-6.995,7.958v34.629c0,5.159,2.71,7.958,6.995,7.958s6.996-2.798,6.996-7.958
		v-8.57h6.471v8.132c0,9.182-4.896,14.604-13.642,14.604C-1058.396-4257.129-1063.381-4262.551-1063.381-4271.733z"/>
	<path fill="#FFFFFF" d="M-1016.601-4258.003v-61.214h6.821v26.147h14.517v-26.147h6.82v61.214h-6.82v-28.858h-14.517v28.858
		H-1016.601z"/>
	<path fill="#FFFFFF" d="M-980.837-4258.003v-61.214h25.098v6.209h-18.276v19.938h14.866v6.209h-14.866v22.649h18.276v6.209
		H-980.837z"/>
	<path fill="#FFFFFF" d="M-927.759-4258.003l-2.273-13.03h-14.167l-2.273,13.03h-6.384l11.368-61.214h9.183l11.455,61.214H-927.759z
		 M-943.149-4276.979h12.067l-6.121-34.455L-943.149-4276.979z"/>
	<path fill="#FFFFFF" d="M-915.956-4258.003v-61.214h6.821v55.005h17.489v6.209H-915.956z"/>
	<path fill="#FFFFFF" d="M-886.138-4258.003v-55.005h-10.844v-6.209h28.509v6.209h-10.844v55.005H-886.138z"/>
	<path fill="#FFFFFF" d="M-863.666-4258.003v-61.214h6.821v26.147h14.517v-26.147h6.82v61.214h-6.82v-28.858h-14.517v28.858
		H-863.666z"/>
</g>
<g>
	<path fill="#FFFFFF" d="M-1535.501-4336.175v-75.665h17.619c12.215,0,17.62,5.621,17.62,17.403v4.648
		c0,7.891-2.594,12.863-7.783,14.917v0.216c5.296,1.622,7.891,7.026,7.891,15.998v13.295c0,4.107,0.433,7.134,1.297,9.188h-12.106
		c-0.756-2.162-1.081-5.296-1.081-9.296v-13.836c0-6.918-1.946-9.296-7.458-9.296h-4.107v32.428H-1535.501z M-1523.61-4379.413
		h4.324c4.756,0,7.134-2.27,7.134-7.999v-5.837c0-5.188-2.054-7.783-6.053-7.783h-5.404V-4379.413z"/>
	<path fill="#FFFFFF" d="M-1493.019-4336.175v-75.665h32.428v10.809h-20.538v19.997h16.322v10.81h-16.322v23.24h20.538v10.81
		H-1493.019z"/>
	<path fill="#FFFFFF" d="M-1455.186-4336.175v-75.665h17.511c11.782,0,17.728,6.269,17.728,18.7v7.458
		c0,12.431-5.945,18.7-17.728,18.7h-5.621v30.807H-1455.186z M-1443.295-4377.791h5.621c3.892,0,5.837-1.946,5.837-7.134v-8.972
		c0-5.188-1.945-7.134-5.837-7.134h-5.621V-4377.791z"/>
	<path fill="#FFFFFF" d="M-1414.974-4411.84h11.89v58.586c0,4.864,2.054,7.35,6.053,7.35s6.053-2.486,6.053-7.35v-58.586h11.458
		v57.722c0,12.214-6.161,19.024-17.728,19.024c-11.566,0-17.727-6.81-17.727-19.024V-4411.84z"/>
	<path fill="#FFFFFF" d="M-1372.061-4336.175v-75.665h17.944c12.214,0,17.619,5.621,17.619,17.403v3.026
		c0,7.783-2.594,12.755-7.675,14.809v0.216c5.945,2.054,8.864,7.243,8.864,15.782v6.486c0,11.674-6.27,17.943-18.052,17.943
		H-1372.061z M-1360.17-4381.034h4.648c4.756,0,7.134-2.27,7.134-7.999v-4.216c0-5.188-2.054-7.783-6.053-7.783h-5.729V-4381.034z
		 M-1360.17-4346.985h6.81c4.216,0,6.162-1.945,6.162-7.458v-6.594c0-6.918-2.162-9.188-7.675-9.188h-5.296V-4346.985z"/>
	<path fill="#FFFFFF" d="M-1329.364-4336.175v-75.665h11.891v64.855h19.565v10.81H-1329.364z"/>
	<path fill="#FFFFFF" d="M-1293.26-4336.175v-75.665h11.891v75.665H-1293.26z"/>
	<path fill="#FFFFFF" d="M-1274.344-4394.33c0-11.782,6.161-18.592,17.511-18.592s17.511,6.81,17.511,18.592v7.999h-11.241v-8.755
		c0-4.648-1.945-7.026-5.945-7.026c-3.999,0-5.945,2.378-5.945,7.026v42.264c0,4.648,1.946,6.918,5.945,6.918
		c4,0,5.945-2.27,5.945-6.918v-11.025h11.241v10.161c0,11.782-6.161,18.592-17.511,18.592s-17.511-6.81-17.511-18.592V-4394.33z"/>
	<path fill="#FFFFFF" d="M-1217.811-4393.897c0-12.106,6.377-19.024,18.051-19.024c11.675,0,18.052,6.918,18.052,19.024v39.778
		c0,12.106-6.377,19.024-18.052,19.024c-11.674,0-18.051-6.918-18.051-19.024V-4393.897z M-1193.598-4394.654
		c0-4.972-2.054-7.458-6.162-7.458c-4.107,0-6.161,2.486-6.161,7.458v41.292c0,4.973,2.054,7.458,6.161,7.458
		c4.108,0,6.162-2.486,6.162-7.458V-4394.654z"/>
	<path fill="#FFFFFF" d="M-1174.682-4336.175v-75.665h31.455v10.809h-19.564v21.078h15.349v10.81h-15.349v32.968H-1174.682z"/>
	<path fill="#FFFFFF" d="M-1122.257-4336.175v-75.665h11.891v64.855h19.564v10.81H-1122.257z"/>
	<path fill="#FFFFFF" d="M-1086.045-4336.175v-75.665h32.428v10.809h-20.537v19.997h16.322v10.81h-16.322v23.24h20.537v10.81
		H-1086.045z"/>
	<path fill="#FFFFFF" d="M-1048.319-4336.175v-75.665h17.943c12.215,0,17.619,5.621,17.619,17.403v3.026
		c0,7.783-2.594,12.755-7.674,14.809v0.216c5.944,2.054,8.863,7.243,8.863,15.782v6.486c0,11.674-6.27,17.943-18.052,17.943
		H-1048.319z M-1036.429-4381.034h4.647c4.757,0,7.135-2.27,7.135-7.999v-4.216c0-5.188-2.054-7.783-6.054-7.783h-5.729V-4381.034z
		 M-1036.429-4346.985h6.81c4.216,0,6.161-1.945,6.161-7.458v-6.594c0-6.918-2.161-9.188-7.675-9.188h-5.296V-4346.985z"/>
	<path fill="#FFFFFF" d="M-980.112-4336.175l-2.054-14.809h-13.728l-2.054,14.809h-11.025l12.322-75.665h16.105l12.323,75.665
		H-980.112z M-994.381-4361.253h10.701l-5.404-38.157L-994.381-4361.253z"/>
	<path fill="#FFFFFF" d="M-963.574-4336.175v-75.665h14.701l11.998,45.291v-45.291h10.593v75.665h-11.998l-14.7-55.236v55.236
		H-963.574z"/>
	<path fill="#FFFFFF" d="M-919.256-4393.897c0-12.106,6.377-19.024,18.051-19.024c11.675,0,18.052,6.918,18.052,19.024v39.778
		c0,12.106-6.377,19.024-18.052,19.024c-11.674,0-18.051-6.918-18.051-19.024V-4393.897z M-895.043-4394.654
		c0-4.972-2.054-7.458-6.162-7.458c-4.107,0-6.161,2.486-6.161,7.458v41.292c0,4.973,2.054,7.458,6.161,7.458
		c4.108,0,6.162-2.486,6.162-7.458V-4394.654z"/>
	<path fill="#FFFFFF" d="M-876.126-4336.175v-75.665h14.701l11.998,45.291v-45.291h10.593v75.665h-11.998l-14.7-55.236v55.236
		H-876.126z"/>
</g>
<g>
	<defs>
		<rect id="SVGID_6_" x="-2743.104" y="-4765.567" width="2902.677" height="5612.599"/>
	</defs>
	<clipPath id="SVGID_7_">
		<use xlink:href="#SVGID_6_"  overflow="visible"/>
	</clipPath>
	<path clip-path="url(#SVGID_7_)" fill="#FFFFFF" d="M-1608.915-4389.051c2.465,0.122,4.955,0.245,7.009,0.346
		c3.108,4.14,7.306,6.019,11.721,7.791c-4.12,1.067-8.24,2.135-12.726,3.296c0.347,2.033,0.674,3.844,0.955,5.662
		c0.083,0.536,0.044,1.092,0.044,1.639c0.005,4.479,0.004,4.479,4.558,4.479c2.63,0,5.279-0.19,7.885,0.06
		c2.133,0.204,4.195,1.059,6.325,1.392c2.102,0.329,3.704,1.384,5.084,2.86c0.651,0.696,1.044,1.641,1.722,2.301
		c1.022,0.995,0.087,1.648-0.449,1.943c-2.49,1.371-5.018,2.702-7.638,3.796c-1.329,0.554-3.235,0.133-4.248,0.942
		c-1.448,1.156-2.848,0.713-4.265,0.767c-1.14,0.043-2.236-0.264-3.398-0.658c-2.086-0.708-4.631-0.755-6.682,0.802
		c-1.594,1.211-2.234,5.505-1.452,7.421c1.158,2.839,3.271,3.775,6.121,3.677c1.368-0.048,2.748-0.101,4.108,0.016
		c1.523,0.132,3.033,0.439,4.544,0.699c1.133,0.193,2.251,0.565,3.387,0.623c2.023,0.103,4.056-0.019,6.081,0.048
		c1.053,0.035,2.31-0.52,3.055,0.824c0.077,0.139,0.517,0.066,0.784,0.111c2.748,0.466,5.528,0.799,8.23,1.451
		c1.904,0.459,3.738,1.274,5.536,2.079c0.973,0.436,1.901,1.089,2.644,1.845c0.232,0.237-0.024,1.489-0.368,1.664
		c-1.621,0.824-3.185,1.582-5.147,1.872c-3.684,0.543-7.405,0.795-11.04,1.393c-3.156,0.52-6.233,0.332-9.339,0.467
		c-1.169,0.051-2.386-0.689-3.537-0.585c-2.908,0.263-5.794,0.747-8.17,2.737c-0.761,0.638-1.649,1.177-2.56,1.573
		c-1.524,0.662-2.083,1.93-1.684,3.292c0.37,1.261,1.366,2.14,3.003,2.161c1.687,0.021,3.37,0.624,5.054,0.619
		c1.459-0.005,3.044-0.231,4.352-0.838c3.463-1.607,7.043-2.259,10.808-1.929c1.029,0.091,2.031,0.478,3.05,0.709
		c1.018,0.231,2.034,0.544,3.067,0.633c3.533,0.303,7.119,0.27,10.592,0.886c1.607,0.286,3,1.776,4.49,2.72
		c-0.008,0.248-0.016,0.496-0.025,0.745c-1.126,0.466-2.257,1.339-3.378,1.328c-4.127-0.042-7.611,1.779-11.223,3.334
		c-1.378,0.594-2.344,1.532-3.297,2.629c-1.523,1.75-3.812,2.137-5.787,3.11c-3.113,1.533-6.23,0.466-9.315,0.808
		c-0.931,0.103-2.068,0.442-2.752-0.786c-0.118-0.211-0.836-0.041-1.254-0.142c-1.457-0.355-2.903-0.752-4.354-1.132
		c-1.11-0.291-2.211-0.621-3.332-0.863c-1.437-0.31-2.893-0.535-4.335-0.829c-0.507-0.103-0.99-0.322-1.494-0.444
		c-0.465-0.112-0.967-0.301-1.413-0.224c-2.542,0.442-5.075,0.939-7.605,1.446c-2.204,0.441-4.41,0.883-6.596,1.407
		c-0.695,0.166-1.328,0.593-2.213,1.005c-0.236,1.823-0.234,3.957-0.827,5.91c-1.008,3.314-0.024,6.735-0.718,9.948
		c-1.166,5.41-0.458,10.813-0.46,16.2c-0.001,1.891,1.455,3.825,2.397,5.663c1.268,2.475,2.687,4.872,4.031,7.309
		c0.389,0.706,0.771,1.419,1.102,2.154c0.289,0.64,0.503,1.316,0.766,2.018c-4.101,1.798-8.259,1.436-12.062,0.84
		c-4.965-0.78-10.019-1.054-14.716-0.24c-5.054,0.877-10.08,1.541-15.026,0.973c-6.802-0.782-13.571-0.245-20.344-0.56
		c-2.887-0.133-4.166-2.539-2.895-5.097c1.38-2.775,2.715-5.58,3.903-8.44c0.496-1.196,0.218-2.806,0.905-3.81
		c1.114-1.628-0.295-3.837,1.482-5.159c0.063-0.048,0.054-0.207,0.059-0.315c0.234-5.178,0.544-10.355,0.656-15.536
		c0.038-1.781-0.395-3.576-0.66-5.358c-0.154-1.036-1.51-1.597-2.448-1.206c-1.143,0.475-2.35,0.8-3.536,1.17
		c-1.427,0.446-2.835,1.067-4.297,1.252c-1.727,0.218-3.503,0.051-5.269-0.197c1.516-0.307,3.057-0.522,4.541-0.94
		c2.618-0.737,5.426-0.783,7.79-2.457c2.708-1.918,2.815-5.89,0.037-7.737c-0.366-0.243-0.925-0.266-1.396-0.272
		c-2.246-0.026-4.493-0.034-6.74-0.007c-4.639,0.055-9.109-3.547-11.055-7.343c-2.418-4.713-2.353-9.602-2.215-14.571
		c0.086-3.103,0.401-6.202,0.688-9.296c0.135-1.463,0.371-2.927,0.696-4.359c0.268-1.182,0.733-2.32,1.113-3.477
		c0.647-1.966,1.218-3.962,1.966-5.889c0.819-2.114,1.761-4.184,2.726-6.237c0.984-2.093,2.02-4.163,3.116-6.2
		c0.458-0.85,1.094-1.613,1.707-2.368c1.205-1.482,2.394-2.984,3.693-4.382c2.246-2.417,4.462-4.881,6.898-7.098
		c1.871-1.701,4.054-3.062,6.113-4.553c0.721-0.522,1.474-1.005,2.235-1.467c1.735-1.052,3.435-2.177,5.24-3.095
		c2.684-1.364,5.417-2.576,8.338-3.471c2.258-0.691,4.547-1.046,6.784-1.635c4.382-1.153,8.756-0.485,13.104-0.452
		c2.078,0.015,4.099,1.576,6.233,2.028c1.884,0.399,3.474,1.194,4.884,2.359c1.591,1.315,3.632,2.064,4.66,4.129
		c0.652,1.309,1.937,2.289,2.742,3.543c0.655,1.021,1.014,2.231,1.514,3.352c0.21,0.472,0.516,0.912,0.655,1.401
		c0.683,2.397,1.279,4.809,1.805,7.251c1.007,4.671,0.336,9.299,0.513,13.935c0.075,1.937-0.211,3.973-0.773,5.831
		c-1.013,3.347-2.525,6.545-3.518,9.897c-1.036,3.501-2.964,6.409-5.137,9.241c-1.537,2.003-3.022,4.053-4.403,6.164
		c-0.61,0.932,0.121,4.994,0.8,5.571c1.2,1.022,4.28,1.058,5.936,0.299c2.663-1.221,4.04-3.641,5.889-5.677
		c2.05-2.259,2.677-5.147,4.171-7.63c1.205-2.002,2.149-4.186,2.991-6.373c0.695-1.806,1.039-3.744,1.598-5.606
		c0.408-1.357,0.936-2.677,1.369-4.027c0.335-1.044,0.684-2.095,0.887-3.17c0.312-1.658,0.412-3.358,0.764-5.005
		c1.263-5.914,0.607-11.897,0.596-17.842c-0.006-3.226-0.895-6.427-2.181-9.438
		C-1607.186-4385.547-1608.14-4387.411-1608.915-4389.051 M-1661.456-4379.201c-1.68-0.222-4.18,1.732-4.449,3.609
		c-0.348,2.431-0.687,4.889-0.694,7.336c-0.007,2.337,0.376,4.682,0.661,7.014c0.279,2.287,0.62,4.569,0.995,6.842
		c0.178,1.084,0.419,2.171,0.771,3.209c0.615,1.814,1.382,3.578,2.003,5.39c0.648,1.89,1.193,3.815,1.796,5.721
		c0.637,2.012,1.304,4.016,1.934,6.032c0.531,1.701,0.991,3.425,1.552,5.116c0.711,2.143,1.659,4.221,2.201,6.402
		c0.644,2.592,1.042,5.253,1.404,7.904c0.339,2.481,0.675,4.986,0.693,7.483c0.062,8.298,0.273,16.605-0.657,24.878
		c-0.03,0.27-0.039,0.546-0.098,0.81c-0.426,1.879-0.856,3.757-1.296,5.633c-0.324,1.378-0.618,2.766-1.008,4.126
		c-0.409,1.426-0.903,2.829-1.385,4.233c-0.656,1.913-1.33,3.818-2.006,5.723c-0.469,1.321-1.097,2.609-1.357,3.968
		c-0.091,0.48,0.753,1.645,1.075,1.611c1.635-0.173,3.499-0.249,4.784-1.106c1.409-0.938,2.706-2.187,3.235-4.238
		c0.727-2.824,2.226-5.452,3.43-8.148c0.203-0.453,0.691-0.784,0.872-1.24c0.893-2.253,1.701-4.539,2.592-6.793
		c0.562-1.421,1.343-2.766,1.794-4.216c0.445-1.427,0.597-2.944,0.877-4.421c0.161-0.018,0.322-0.037,0.483-0.055
		c0.695,2.267,1.845,4.505,1.994,6.808c0.334,5.169,0.278,10.379-0.688,15.512c-0.222,1.174-0.576,2.351-1.059,3.443
		c-0.67,1.511-0.401,2.621,1.062,3.438c2.994,1.673,6.725-0.381,7.023-3.798c0.142-1.633,0.33-3.3,0.808-4.856
		c0.704-2.29,1.4-4.549,1.315-6.976c-0.009-0.265,0.066-0.534,0.11-0.801c0.187-1.132,0.328-2.275,0.581-3.393
		c0.255-1.127,0.868-2.221,0.899-3.342c0.111-4.046,0.227-8.108-0.007-12.144c-0.229-3.956,0.768-7.928-0.779-11.913
		c-0.805-2.074,0.103-4.642-0.753-6.971c-0.535-1.457-0.474-3.126-0.733-4.692c-0.464-2.807-1.107-5.593-1.409-8.417
		c-0.24-2.247-0.66-4.354-1.56-6.462c-0.809-1.894-1.125-4.015-1.524-6.063c-0.533-2.729-1.055-5.471-1.364-8.231
		c-0.364-3.252-0.548-6.528-0.708-9.798c-0.102-2.075-0.132-4.166,0.005-6.236c0.235-3.535-0.388-7.055,0.545-10.636
		c0.77-2.958,0.532-6.172,0.824-9.264c0.128-1.363-0.611-2.24-1.471-3.025c-1.022-0.933-2.946-0.193-3.168,1.157
		c-0.246,1.509-0.497,3.018-0.69,4.533c-0.261,2.057-0.455,4.121-0.7,6.179c-0.323,2.705,0.259,5.372-0.788,8.177
		c-0.99,2.654-0.583,5.816-0.876,8.746c-0.135,1.352-0.323,2.734-0.752,4.014c-0.899,2.684-2.005,5.299-2.969,7.962
		c-0.855,2.361-4.09,3.774-5.698,2.288c-1.164-1.076-2.39-2.362-2.906-3.798c-0.826-2.301-1.174-4.79-1.558-7.226
		c-0.297-1.886,0.008-3.772-0.611-5.73c-0.724-2.288-0.741-4.844-0.791-7.29C-1659.748-4369.94-1659.463-4374.727-1661.456-4379.201
		 M-1679.477-4361.635c-1.448,0.101-2.711-0.171-3.081,0.283c-1.053,1.294-2.227,2.807-2.473,4.372
		c-0.55,3.486-0.744,7.057-0.745,10.592c-0.001,3.536,0.316,7.082,0.68,10.604c0.175,1.683,0.756,3.328,1.201,4.978
		c0.329,1.218,0.764,2.407,1.098,3.624c0.32,1.162,0.511,2.363,0.866,3.513c0.614,1.987,1.356,3.935,1.959,5.925
		c0.348,1.151,0.426,2.386,0.813,3.521c0.388,1.137,1.16,2.152,1.495,3.298c0.783,2.689,1.568,5.397,2.046,8.15
		c0.434,2.502,0.569,5.012,1.626,7.418c0.616,1.401,0.711,3.104,0.738,4.676c0.091,5.355,0.279,10.722-0.668,16.036
		c-0.021,0.108,0.002,0.246-0.057,0.319c-1.498,1.852-1.297,4.284-2.174,6.376c-0.93,2.221-1.536,4.55-3.194,6.409
		c-1.203,1.349-1.759,2.889-1.14,4.682c2.79,0.331,4.754-0.477,5.723-2.293c1.41-2.643,2.913-5.239,4.225-7.929
		c0.799-1.641,1.358-3.406,1.94-5.144c0.377-1.126,0.6-2.303,0.893-3.458c0.197,0.035,0.395,0.07,0.592,0.105
		c-0.314,3.341-0.601,6.685-0.962,10.021c-0.1,0.918-0.431,1.811-0.642,2.718c-0.274,1.172-0.19,2.641-0.883,3.449
		c-0.966,1.126-0.729,2.088-0.595,3.349c1.128,0,2.168-0.077,3.191,0.017c1.894,0.174,3.103-0.626,3.65-2.4
		c0.337-1.097,0.475-2.26,0.862-3.336c0.633-1.759,1.587-3.422,2.052-5.217c0.474-1.833,0.526-3.776,0.757-5.671
		c0.033-0.271,0.01-0.549,0.058-0.816c0.443-2.477,1.306-4.956,1.273-7.424c-0.115-8.679,0.757-17.384-0.613-26.038
		c-0.375-2.365-0.497-4.769-0.738-7.155c-0.01-0.108-0.036-0.215-0.068-0.318c-0.515-1.645-1.163-3.261-1.512-4.94
		c-0.387-1.859-0.5-3.774-0.733-5.664c-0.027-0.216-0.033-0.438-0.09-0.646c-0.654-2.353-1.527-4.669-1.911-7.065
		c-0.343-2.131-0.721-4.154-1.59-6.178c-0.855-1.991-1.135-4.241-1.563-6.398c-0.329-1.66-0.41-3.37-0.762-5.024
		c-0.287-1.35-0.86-2.637-1.218-3.976c-0.41-1.533-0.709-3.096-1.081-4.64c-0.257-1.063-0.43-2.176-0.892-3.146
		c-0.208-0.434-1.309-0.947-1.53-0.783c-0.839,0.62-1.887,1.411-2.089,2.31c-0.201,0.901,0.611,1.988,0.805,3.027
		c0.311,1.661,0.463,3.351,0.708,5.025c0.477,3.249,0.981,6.493,1.455,9.743c0.259,1.782,0.549,3.563,0.702,5.354
		c0.286,3.371,0.564,6.746,0.671,10.125c0.035,1.108-0.301,2.312-0.769,3.334c-0.813,1.774-2.524,1.918-4.328,1.325
		c-2.945-0.969-2.662-3.786-3.481-5.777c-0.786-1.909-0.37-4.275-0.691-6.466c-0.675-4.623-0.631-9.355-0.817-14.045
		c-0.078-1.966-0.106-3.947,0.053-5.905C-1680.26-4356.964-1679.844-4359.1-1679.477-4361.635 M-1656.956-4358.329
		c0.198,1.014-0.5,2.691,0.757,4.3c0.889,1.139,0.985,2.864,1.697,4.187c0.299,0.553,1.281,1.035,1.942,1.022
		c0.798-0.016,2.022-0.384,2.296-0.962c0.955-2.019,1.962-4.144,2.246-6.32c0.479-3.667,0.175-7.384-1.379-10.846
		c-0.992-2.21-2.901-2.551-4.539-0.779C-1656.212-4365.265-1657.274-4362.316-1656.956-4358.329 M-1678.343-4333.922
		c0.279,2.015,0.268,3.887,0.867,5.539c0.372,1.027,0.622,2.649,2.518,2.629c2.548-0.027,4.417-1.983,4.02-4.535
		c-0.117-0.758-0.387-1.507-0.687-2.218c-0.528-1.253-1.032-2.535-1.732-3.693c-0.722-1.192-2.158-1.046-3.081-0.654
		C-1677.623-4336.35-1678.713-4335.34-1678.343-4333.922"/>
	<path clip-path="url(#SVGID_7_)" fill="#FFFFFF" d="M-1601.663-4402.796c-0.779,1.206-1.58,1.822-2.725,2.128
		c-2.202,0.591-4.377,1.287-6.577,1.889c-1.271,0.347-2.686,0.365-3.83,0.94c-1.873,0.941-3.171-0.33-4.563-0.929
		c-2.25-0.969-4.301-2.394-6.545-3.38c-1.646-0.723-3.462-1.068-5.211-1.552c-3.025-0.837-6.226-0.957-9.195-1.688
		c-2.432-0.599-4.767-0.746-7.093-0.605c-3.061,0.186-6.085,0.969-9.127,1.483c-1.662,0.281-3.335,0.507-4.992,0.816
		c-1.027,0.19-2.044,0.454-3.048,0.746c-1.437,0.417-2.89,0.809-4.273,1.367c-0.906,0.367-1.701,1.008-2.576,1.544
		c-0.468-2.23-2.257-3.669-4.45-3.668c-2.356,0-4.861-0.503-7.029,0.136c-2.832,0.834-5.586,0.29-8.356,0.553
		c-0.321,0.031-0.65-0.023-1.016-0.039c2.112-3.058,5.167-4.848,8.37-6.272c2.038-0.906,4.373-1.122,6.527-1.798
		c2.752-0.863,5.535-1.32,8.421-1.369c0.963-0.017,1.959-0.415,2.849-0.833c0.236-0.11,0.347-1.057,0.148-1.418
		c-0.724-1.315-1.633-2.528-2.408-3.817c-0.236-0.393-0.263-0.91-0.488-1.755c-1.303,0.269-2.621,0.542-3.939,0.813
		c-0.159,0.033-0.322,0.089-0.48,0.081c-2.292-0.124-4.264,1.014-6.385,1.574c-1.45,0.383-2.961,0.534-4.584,0.814
		c0.024-0.509-0.086-0.943,0.073-1.095c1.846-1.769,3.394-3.88,6.016-4.733c0.98-0.319,1.736-1.264,2.672-1.785
		c2.627-1.463,5.338-2.779,7.931-4.297c2.152-1.26,4.137-2.803,6.283-4.073c1.549-0.917,3.262-1.551,4.861-2.388
		c1.116-0.583,2.156-1.308,3.243-1.947c2.286-1.343,4.761-0.834,6.559,1.066c2.698,2.85,5.531,5.573,8.292,8.364
		c0.704,0.71,1.279,1.566,2.047,2.191c1.774,1.446,3.576,2.872,5.479,4.138c0.791,0.527,1.852,0.695,2.816,0.908
		c2.3,0.51,4.63,0.892,6.917,1.452c0.698,0.171,1.296,0.752,1.939,1.145c-0.203,0.332-0.355,0.901-0.617,0.957
		c-2.463,0.529-5.01,0.761-7.404,1.497c-2.392,0.735-4.654,1.912-6.939,2.97c-1.125,0.521-0.971,1.015,0.046,1.709
		c1.981,1.353,3.905,2.406,6.493,2.28c2.367-0.115,4.794,0.248,7.139,0.691c1.512,0.286,2.909,1.139,4.385,1.663
		c1.44,0.51,2.902,0.971,4.376,1.372c2.609,0.711,5.23,1.376,7.855,2.02C-1603.257-4402.803-1602.695-4402.855-1601.663-4402.796"/>
	<path clip-path="url(#SVGID_7_)" fill="#FFFFFF" d="M-1710.92-4307.385c-0.825,0.042-1.254,0.126-1.667,0.075
		c-1.577-0.197-3.147-0.606-4.724-0.631c-5.199-0.082-10.406,0.112-15.597-0.098c-2.178-0.089-4.314-0.986-6.49-1.4
		c-2.561-0.488-5.151-1.486-7.721-0.077c-0.447,0.245-0.717,0.794-1.132,1.124c-0.255,0.203-0.679,0.414-0.936,0.333
		c-0.242-0.076-0.51-0.528-0.517-0.82c-0.046-1.858-0.37-3.81,0.096-5.544c0.323-1.2,1.597-2.393,2.752-3.059
		c1.407-0.811,3.119-1.399,4.728-1.473c1.802-0.084,3.757,0.211,5.431,0.878c4.201,1.674,8.179,1.752,12.212-0.464
		c2.364-1.299,4.842-2.407,7.325-3.471c1.528-0.656,2.798,0.369,3.184,2.029c0.554,2.379,1.385,4.692,1.981,7.062
		C-1711.552-4311.156-1711.293-4309.345-1710.92-4307.385"/>
	<path clip-path="url(#SVGID_7_)" fill="#FFFFFF" d="M-1709.081-4356.771c-0.518,0.926-0.872,1.546-1.212,2.174
		c-0.075,0.139-0.114,0.302-0.146,0.458c-0.241,1.175-0.436,2.361-0.721,3.524c-0.474,1.933-0.965,3.863-1.53,5.77
		c-0.275,0.927-2.419,1.372-3.802,1.006c-1.16-0.306-2.373-0.65-3.549-0.609c-3.433,0.121-6.892,0.234-10.271,0.779
		c-1.004,0.162-2.354,1.362-3.121,0.701c-1.316-1.133-2.73-0.606-4.551-1.034c0.698-0.89,1.158-1.72,1.835-2.294
		c2.533-2.146,5.38-3.801,8.279-5.432c2.375-1.335,4.844-2.207,7.41-2.897c2.116-0.57,4.339-0.772,6.415-1.444
		c1.185-0.384,2.235-1.134,3.571-0.876C-1710.214-4356.894-1709.948-4356.876-1709.081-4356.771"/>
	<path clip-path="url(#SVGID_7_)" fill="#FFFFFF" d="M-1679.38-4395.879c-1.195,1.006-2.342,1.954-3.468,2.924
		c-2.062,1.775-4.101,3.577-6.18,5.332c-0.254,0.215-0.693,0.295-1.046,0.296c-7.336,0.016-14.672,0.013-22.008,0.002
		c-0.302-0.001-0.604-0.127-0.993-0.215c1.095-2.487,2.805-4.262,5.116-5.373c1.106-0.532,2.364-0.818,3.585-1.026
		c1.931-0.329,3.899-0.436,5.832-0.754c2.112-0.349,4.2-0.838,6.303-1.246c0.425-0.083,0.87-0.052,1.3-0.115
		c1.098-0.16,2.436,0.55,3.196-0.861c2.173,0.223,4.454-0.868,6.54,0.611C-1680.764-4395.993-1680.078-4396.029-1679.38-4395.879"/>
	<path clip-path="url(#SVGID_7_)" fill="#FFFFFF" d="M-1714.955-4328.083c-2.435,0-4.763,0.412-6.879-0.081
		c-5.241-1.22-10.5-0.243-15.732-0.61c-0.204-0.014-0.407-0.052-0.533-0.069c0.028-3.133,2.843-3.238,4.683-4.115
		c2.956-1.41,6.122-2.202,9.463-2.655c2.361-0.321,4.691-0.445,7.04-0.515c2.521-0.077,3.558,1.298,2.861,3.707
		c-0.194,0.669-0.724,1.25-0.868,1.921C-1715.073-4329.784-1714.955-4329.009-1714.955-4328.083"/>
	<path clip-path="url(#SVGID_7_)" fill="#FFFFFF" d="M-1702.616-4370.553c-6.266,0.55-8.785,0.165-10.401-1.731
		c0.81-0.5,1.54-1.183,2.396-1.435c2.337-0.686,4.73-1.18,7.095-1.772c0.955-0.24,1.888-0.578,2.849-0.787
		c0.37-0.08,1.015-0.055,1.135,0.152c0.171,0.298,0.116,0.895-0.085,1.21C-1700.566-4373.449-1701.589-4372.036-1702.616-4370.553"
		/>
</g>
<g>
	<defs>
		<path id="SVGID_8_" d="M-2082.522-3930.768c0,76.61,62.106,138.716,138.717,138.716c76.613,0,138.718-62.106,138.718-138.716
			c0-76.613-62.105-138.719-138.718-138.719C-2020.417-4069.487-2082.522-4007.381-2082.522-3930.768"/>
	</defs>
	<clipPath id="SVGID_9_">
		<use xlink:href="#SVGID_8_"  overflow="visible"/>
	</clipPath>
	
		<linearGradient id="SVGID_10_" gradientUnits="userSpaceOnUse" x1="1957.3267" y1="2330.1406" x2="1958.3263" y2="2330.1406" gradientTransform="matrix(240.7951 137.8912 137.8912 -240.7951 -794684.6875 287188.625)">
		<stop  offset="0" style="stop-color:#009776"/>
		<stop  offset="0.0061" style="stop-color:#009776"/>
		<stop  offset="0.0429" style="stop-color:#019474"/>
		<stop  offset="1" style="stop-color:#0C5041"/>
		<stop  offset="1" style="stop-color:#FFF3E9"/>
	</linearGradient>
	<polygon clip-path="url(#SVGID_9_)" fill="url(#SVGID_10_)" points="-2014.011,-4189.127 -1685.448,-4000.975 -1873.599,-3672.412 
		-2202.163,-3860.563 	"/>
</g>
<g>
	<defs>
		<rect id="SVGID_11_" x="-2183.75" y="-4188.759" width="2902.677" height="5612.599"/>
	</defs>
	<clipPath id="SVGID_12_">
		<use xlink:href="#SVGID_11_"  overflow="visible"/>
	</clipPath>
	<path clip-path="url(#SVGID_12_)" fill="#FFFFFF" d="M-1913.046-3924.663h-41.848c-16.479,0-24.731,6.975-24.731,20.771
		c0,12.34,9.529,19.8,24.731,19.8h28.384v17.577h-27.107c-25.038,0-42.947-14.895-42.947-37.862c0-19.647,11.727-34.235,29.79-37.25
		c-3.96-6.975-5.877-13.618-5.877-19.8c0-19.826,14.129-33.596,32.677-33.596c11.88,0,20.592,5.544,25.983,16.785l-13.311,6.336
		c-2.708-5.698-6.975-8.559-13.004-8.559c-9.836,0-16.019,7.767-16.019,18.702c0,8.405,5.084,17.449,10.935,19.493h32.344V-3924.663
		z"/>
</g>
<path d="M2940.176-1235.582c-0.645,0-0.961,0.27-0.961,0.434c0,0.609,0.428,1.734,0.75,2.965c0.035,0.135,0.07,0.352,0.07,0.521
	c0,0.299-0.064,0.58-0.135,0.861l-0.141-0.018c-0.012-0.691-0.48-1.869-0.855-3.094c-0.059-0.199-0.111-0.486-0.111-0.674
	c0-0.264,0.053-0.521,0.152-0.773c0.123-0.328,0.293-0.604,0.527-0.762c-0.047-0.258-0.088-0.551-0.088-0.762
	c0-0.24,0.17-0.563,0.328-0.703s0.34-0.24,0.545-0.24c0.27,0,0.516,0.076,0.738,0.258c0.363,0.305,0.662,0.686,0.896,1.143
	c0.047,0.1,0.076,0.258,0.076,0.375c0,0.193-0.105,0.445-0.199,0.621C2941.237-1235.511,2940.709-1235.582,2940.176-1235.582z
	 M2941.348-1236.25c-0.334-0.445-0.691-0.879-1.248-0.879c-0.117,0-0.24,0.023-0.357,0.064l0.018,0.305
	c-0.035,0.217-0.094,0.428-0.146,0.563c0.205-0.07,0.498-0.105,0.797-0.105c0.199,0,0.58,0.041,0.914,0.117L2941.348-1236.25z
	 M2947.511-1236.818c-0.111-0.498-0.281-0.732-0.445-0.732c-0.258,0-0.621,0.17-0.932,0.416c-0.328,0.258-0.574,0.545-0.574,0.756
	c0,0.521,1.523,0.457,1.934,0.791c0.152,0.141,0.258,0.328,0.258,0.656c0,0.311-0.211,0.826-0.48,1.084
	c-0.574,0.539-1.471,0.973-2.262,0.973c-1.365,0-2.027-0.92-2.027-2.15c0-0.545,0.123-1.014,0.311-1.447l0.229,0.076
	c-0.129,0.393-0.182,0.727-0.182,1.025c0,1.107,0.756,1.705,1.723,1.705c0.363,0,0.99-0.141,1.582-0.486
	c0.375-0.223,0.727-0.498,0.727-0.586c0-0.176-0.428-0.311-0.914-0.381c-0.516-0.076-0.92-0.188-1.072-0.357
	c-0.123-0.135-0.217-0.299-0.217-0.527c0-0.592,0.252-1.09,0.65-1.506c0.41-0.422,1.049-0.832,1.453-0.832
	c0.188,0,0.322,0.094,0.428,0.311c0.094,0.199,0.141,0.393,0.141,0.551c0,0.141-0.141,0.445-0.24,0.65L2947.511-1236.818z
	 M2944.751-1231.093c-0.24-0.229-0.451-0.416-0.686-0.609c0.152-0.211,0.316-0.404,0.463-0.557c0.24,0.188,0.439,0.381,0.668,0.627
	C2945.032-1231.398,2944.915-1231.246,2944.751-1231.093z M2945.882-1231.169c-0.24-0.229-0.451-0.416-0.686-0.609
	c0.152-0.211,0.316-0.404,0.463-0.557c0.24,0.188,0.439,0.381,0.668,0.627C2946.163-1231.474,2946.046-1231.322,2945.882-1231.169z
	 M2949.148-1236.167c0.018,0.504,0.229,0.902,0.961,0.902c0.457,0,0.844-0.141,1.271-0.381c0.076-0.041,0.117-0.094,0.117-0.141
	c0-0.316-0.205-0.732-0.551-1.113c-0.334-0.357-0.779-0.674-1.195-0.885c-0.141-0.07-0.188-0.146-0.188-0.217
	c0-0.146,0.164-0.451,0.299-0.668l0.047-0.006c0.475,0.293,1.008,0.727,1.4,1.213c0.357,0.445,0.58,0.896,0.58,1.389
	c0,0.363-0.094,0.709-0.246,1.025c-0.521,0.311-1.078,0.545-1.629,0.545c-0.668,0-1.125-0.369-1.125-1.236
	c0-0.094,0-0.24,0.029-0.428H2949.148z M2956.573-1240.574c0,0.416,0.182,0.873,0.492,1.354c-0.111,0.111-0.24,0.217-0.398,0.328
	c0.029,0.756,0.07,1.688,0.07,2.443c0,0.398,0,0.891-0.287,1.723c-0.182,0.293-0.41,0.492-0.668,0.656
	c-0.375,0.246-0.838,0.369-1.225,0.369c-0.51,0-0.932-0.176-1.219-0.504c-0.27-0.311-0.416-0.756-0.416-1.324
	c0-0.492,0.158-0.984,0.393-1.477l0.211,0.082c-0.146,0.334-0.246,0.68-0.246,1.02c0,0.346,0.094,0.645,0.299,0.908
	c0.24,0.316,0.598,0.475,1.014,0.475c0.393,0,0.727-0.111,1.014-0.281c0.293-0.152,0.521-0.334,0.639-0.551
	c0.012-0.123,0.018-0.246,0.018-0.363c0-0.885-0.059-1.969-0.152-3.275c-0.018-0.24-0.053-0.51-0.053-0.768
	c0-0.17,0.018-0.328,0.123-0.463c0.082-0.123,0.205-0.246,0.352-0.369L2956.573-1240.574z M2962.486-1236.818
	c-0.111-0.498-0.281-0.732-0.445-0.732c-0.258,0-0.621,0.17-0.932,0.416c-0.328,0.258-0.574,0.545-0.574,0.756
	c0,0.521,1.523,0.457,1.934,0.791c0.152,0.141,0.258,0.328,0.258,0.656c0,0.311-0.211,0.826-0.48,1.084
	c-0.574,0.539-1.471,0.973-2.262,0.973c-1.365,0-2.027-0.92-2.027-2.15c0-0.545,0.123-1.014,0.311-1.447l0.229,0.076
	c-0.129,0.393-0.182,0.727-0.182,1.025c0,1.107,0.756,1.705,1.723,1.705c0.363,0,0.99-0.141,1.582-0.486
	c0.375-0.223,0.727-0.498,0.727-0.586c0-0.176-0.428-0.311-0.914-0.381c-0.516-0.076-0.92-0.188-1.072-0.357
	c-0.123-0.135-0.217-0.299-0.217-0.527c0-0.592,0.252-1.09,0.65-1.506c0.41-0.422,1.049-0.832,1.453-0.832
	c0.188,0,0.322,0.094,0.428,0.311c0.094,0.199,0.141,0.393,0.141,0.551c0,0.141-0.141,0.445-0.24,0.65L2962.486-1236.818z
	 M2959.727-1231.093c-0.24-0.229-0.451-0.416-0.686-0.609c0.152-0.211,0.316-0.404,0.463-0.557c0.24,0.188,0.439,0.381,0.668,0.627
	C2960.008-1231.398,2959.891-1231.246,2959.727-1231.093z M2960.857-1231.169c-0.24-0.229-0.451-0.416-0.686-0.609
	c0.152-0.211,0.316-0.404,0.463-0.557c0.24,0.188,0.439,0.381,0.668,0.627C2961.139-1231.474,2961.021-1231.322,2960.857-1231.169z
	 M2966.767-1234.339c-1.623,0-2.871-0.598-2.871-2.039c0-0.475,0.094-0.943,0.346-1.418l0.234,0.1
	c-0.111,0.334-0.17,0.633-0.17,0.891c0,1.184,1.166,1.67,2.637,1.67c0.686,0,1.354-0.1,2.004-0.252
	c0.27-0.064,0.533-0.135,0.773-0.24c0.047-0.018,0.059-0.047,0.059-0.064c0-0.275-0.281-0.85-0.586-1.447
	c0.141-0.252,0.287-0.475,0.439-0.662h0.029c0.27,0.475,0.586,1.207,0.586,1.787c0,0.439-0.146,0.703-0.311,0.979
	C2969.427-1234.726,2967.927-1234.339,2966.767-1234.339z M2966.972-1233.285c0.24,0.176,0.475,0.387,0.703,0.627
	c-0.129,0.211-0.287,0.404-0.486,0.574c-0.229-0.217-0.457-0.404-0.691-0.604
	C2966.656-1232.898,2966.814-1233.103,2966.972-1233.285z"/>
<g>
	<defs>
		<path id="SVGID_13_" d="M-2117.497,502.307c-69.209,0-125.314,56.104-125.314,125.313s56.105,125.314,125.314,125.314h790.67
			c69.209,0,125.314-56.105,125.314-125.314s-56.105-125.313-125.314-125.313H-2117.497z"/>
	</defs>
	<clipPath id="SVGID_14_">
		<use xlink:href="#SVGID_13_"  overflow="visible"/>
	</clipPath>
	
		<linearGradient id="SVGID_15_" gradientUnits="userSpaceOnUse" x1="1972.2041" y1="2331.3926" x2="1973.2014" y2="2331.3926" gradientTransform="matrix(0 1348.4919 1348.4919 0 -3145586.5 -2659339.5)">
		<stop  offset="0" style="stop-color:#FFFFFF"/>
		<stop  offset="1" style="stop-color:#000000"/>
	</linearGradient>
	<rect x="-2242.811" y="502.307" clip-path="url(#SVGID_14_)" fill="url(#SVGID_15_)" width="1041.298" height="250.628"/>
</g>
<g>
	<defs>
		<path id="SVGID_16_" d="M37.394,545.643h-608.24h-182.43c-69.208,0-125.313,56.104-125.313,125.313
			s56.105,125.314,125.313,125.314h182.43h608.24h182.429c69.209,0,125.313-56.105,125.313-125.314s-56.104-125.313-125.313-125.313
			H37.394z"/>
	</defs>
	<clipPath id="SVGID_17_">
		<use xlink:href="#SVGID_16_"  overflow="visible"/>
	</clipPath>
	
		<linearGradient id="SVGID_18_" gradientUnits="userSpaceOnUse" x1="1972.2354" y1="2331.5908" x2="1973.2354" y2="2331.5908" gradientTransform="matrix(0 1348.4919 1348.4919 0 -3144397.5 -2659339.5)">
		<stop  offset="0" style="stop-color:#FFFFFF"/>
		<stop  offset="1" style="stop-color:#000000"/>
	</linearGradient>
	<rect x="-878.59" y="545.643" clip-path="url(#SVGID_17_)" fill="url(#SVGID_18_)" width="1223.726" height="250.628"/>
</g>
<g>
	<defs>
		<polygon id="SVGID_19_" points="-439.147,614.844 -439.147,725.747 -426.789,725.747 -426.789,675.049 -401.283,675.049 
			-401.283,663.799 -426.789,663.799 -426.789,626.094 -395.103,626.094 -395.103,614.844 		"/>
	</defs>
	<clipPath id="SVGID_20_">
		<use xlink:href="#SVGID_19_"  overflow="visible"/>
	</clipPath>
	
		<linearGradient id="SVGID_21_" gradientUnits="userSpaceOnUse" x1="1971.7061" y1="2334.1387" x2="1972.7061" y2="2334.1387" gradientTransform="matrix(3071.9939 5840.3604 5840.3604 -3071.9939 -19691652 -4348052.5)">
		<stop  offset="0" style="stop-color:#146BCA"/>
		<stop  offset="1" style="stop-color:#273E7C"/>
	</linearGradient>
	<polygon clip-path="url(#SVGID_20_)" fill="url(#SVGID_21_)" points="-404.648,596.697 -349.41,701.713 -429.603,743.895 
		-484.841,638.879 	"/>
</g>
<g>
	<defs>
		<path id="SVGID_22_" d="M-376.883,702.615v-33.588c0-9.347,3.803-13.942,11.567-13.942c7.603,0,11.404,4.596,11.404,13.942v33.588
			c0,9.347-3.802,14.102-11.404,14.102C-373.08,716.717-376.883,711.962-376.883,702.615 M-388.765,670.137v31.369
			c0,16.479,8.238,25.824,23.449,25.824c15.051,0,23.446-9.346,23.446-25.824v-31.369c0-16.477-8.396-25.666-23.446-25.666
			C-380.526,644.471-388.765,653.66-388.765,670.137"/>
	</defs>
	<clipPath id="SVGID_23_">
		<use xlink:href="#SVGID_22_"  overflow="visible"/>
	</clipPath>
	
		<linearGradient id="SVGID_24_" gradientUnits="userSpaceOnUse" x1="1971.6836" y1="2334.1387" x2="1972.718" y2="2334.1387" gradientTransform="matrix(3071.9939 5840.3604 5840.3604 -3071.9939 -19691620 -4348070.5)">
		<stop  offset="0" style="stop-color:#146BCA"/>
		<stop  offset="1" style="stop-color:#273E7C"/>
	</linearGradient>
	<polygon clip-path="url(#SVGID_23_)" fill="url(#SVGID_24_)" points="-352.032,625.148 -307.73,709.373 -378.603,746.652 
		-422.904,662.427 	"/>
</g>
<g>
	<defs>
		<path id="SVGID_25_" d="M-319.53,659.205l-0.16-13.149h-10.298v79.691h11.884v-46.422c0-15.367,5.229-22.972,15.526-22.972
			c1.902,0,3.485,0.316,4.91,0.793v-11.725c-1.268-0.635-3.008-0.951-5.228-0.951C-311.292,644.471-316.837,649.383-319.53,659.205"
			/>
	</defs>
	<clipPath id="SVGID_26_">
		<use xlink:href="#SVGID_25_"  overflow="visible"/>
	</clipPath>
	
		<linearGradient id="SVGID_27_" gradientUnits="userSpaceOnUse" x1="1971.7061" y1="2334.1387" x2="1972.7061" y2="2334.1387" gradientTransform="matrix(3071.9939 5840.3604 5840.3604 -3071.9939 -19691580 -4348092)">
		<stop  offset="0" style="stop-color:#146BCA"/>
		<stop  offset="1" style="stop-color:#273E7C"/>
	</linearGradient>
	<polygon clip-path="url(#SVGID_26_)" fill="url(#SVGID_27_)" points="-304.673,631.154 -264.182,708.134 -322.984,739.063 
		-363.475,662.084 	"/>
</g>
<g>
	<defs>
		<path id="SVGID_28_" d="M-245.701,656.194c-2.376-7.763-7.922-11.724-16.478-11.724c-8.079,0-13.783,3.961-17.11,12.041
			l-0.159-10.456h-10.298v79.691h11.883V672.83c0-11.406,4.911-17.745,12.042-17.745c6.338,0,9.506,4.12,9.506,12.518v58.145h12.041
			V672.83c0-11.406,4.91-17.745,12.039-17.745c6.339,0,9.507,4.12,9.507,12.518v58.145h11.883V666.81
			c0-14.893-6.021-22.339-17.903-22.339C-236.829,644.471-242.374,648.432-245.701,656.194"/>
	</defs>
	<clipPath id="SVGID_29_">
		<use xlink:href="#SVGID_28_"  overflow="visible"/>
	</clipPath>
	
		<linearGradient id="SVGID_30_" gradientUnits="userSpaceOnUse" x1="1971.7056" y1="2334.1387" x2="1972.7056" y2="2334.1387" gradientTransform="matrix(3071.9939 5840.3604 5840.3604 -3071.9939 -19691532 -4348116.5)">
		<stop  offset="0" style="stop-color:#146BCA"/>
		<stop  offset="1" style="stop-color:#273E7C"/>
	</linearGradient>
	<polygon clip-path="url(#SVGID_29_)" fill="url(#SVGID_30_)" points="-227.944,611.963 -177.36,708.134 -272.647,758.255 
		-323.232,662.084 	"/>
</g>
<g>
	<defs>
		<polygon id="SVGID_31_" points="-194.553,660.368 -140.627,714.293 -86.702,660.368 		"/>
	</defs>
	<clipPath id="SVGID_32_">
		<use xlink:href="#SVGID_31_"  overflow="visible"/>
	</clipPath>
	
		<linearGradient id="SVGID_33_" gradientUnits="userSpaceOnUse" x1="1971.7061" y1="2334.1367" x2="1972.7061" y2="2334.1367" gradientTransform="matrix(3071.9939 5840.3604 5840.3604 -3071.9939 -19691428 -4348168.5)">
		<stop  offset="0" style="stop-color:#146BCA"/>
		<stop  offset="1" style="stop-color:#273E7C"/>
	</linearGradient>
	<polygon clip-path="url(#SVGID_32_)" fill="url(#SVGID_33_)" points="-110.075,615.934 -64.485,702.607 -171.181,758.729 
		-216.771,672.055 	"/>
</g>
<g>
	<defs>
		<path id="SVGID_34_" d="M-1922.493,582.758h12.673c8.872,0,12.991,4.277,12.991,15.05v58.145c0,10.774-4.119,15.208-12.991,15.208
			h-12.673V582.758z M-1934.852,571.508v110.903h25.35c16.634,0,25.032-9.03,25.032-26.935v-57.035
			c0-17.903-8.398-26.934-25.032-26.934H-1934.852z"/>
	</defs>
	<clipPath id="SVGID_35_">
		<use xlink:href="#SVGID_34_"  overflow="visible"/>
	</clipPath>
	
		<linearGradient id="SVGID_36_" gradientUnits="userSpaceOnUse" x1="1971.6958" y1="2334.1055" x2="1972.6694" y2="2334.1055" gradientTransform="matrix(3071.9939 5840.3604 5840.3604 -3071.9939 -19692612 -4347545.5)">
		<stop  offset="0" style="stop-color:#146BCA"/>
		<stop  offset="1" style="stop-color:#273E7C"/>
	</linearGradient>
	<polygon clip-path="url(#SVGID_35_)" fill="url(#SVGID_36_)" points="-1895.388,550.751 -1838.777,658.377 -1923.934,703.169 
		-1980.544,595.543 	"/>
</g>
<g>
	<defs>
		<path id="SVGID_37_" d="M-1861.024,659.279v-33.588c0-9.347,3.804-13.942,11.568-13.942c7.605,0,11.406,4.596,11.406,13.942
			v33.588c0,9.347-3.801,14.102-11.406,14.102C-1857.221,673.381-1861.024,668.626-1861.024,659.279 M-1872.906,626.801v31.369
			c0,16.479,8.239,25.824,23.449,25.824c15.05,0,23.447-9.346,23.447-25.824v-31.369c0-16.477-8.397-25.666-23.447-25.666
			C-1864.667,601.135-1872.906,610.324-1872.906,626.801"/>
	</defs>
	<clipPath id="SVGID_38_">
		<use xlink:href="#SVGID_37_"  overflow="visible"/>
	</clipPath>
	
		<linearGradient id="SVGID_39_" gradientUnits="userSpaceOnUse" x1="1971.6812" y1="2334.1064" x2="1972.6812" y2="2334.1064" gradientTransform="matrix(3071.9939 5840.3604 5840.3604 -3071.9939 -19692572 -4347568.5)">
		<stop  offset="0" style="stop-color:#146BCA"/>
		<stop  offset="1" style="stop-color:#273E7C"/>
	</linearGradient>
	<polygon clip-path="url(#SVGID_38_)" fill="url(#SVGID_39_)" points="-1836.173,581.813 -1791.871,666.038 -1862.743,703.316 
		-1907.044,619.092 	"/>
</g>
<g>
	<defs>
		<path id="SVGID_40_" d="M-1816.663,622.364c0,6.971,1.9,12.199,6.337,16.161c2.218,2.059,4.119,3.485,5.545,4.436
			c1.426,0.95,3.803,2.219,6.971,3.959c5.862,3.013,8.874,4.596,11.565,8.557c1.427,1.9,2.219,4.12,2.219,6.496
			c0,7.763-3.645,11.565-10.932,11.565c-7.288,0-10.932-4.118-10.932-12.2v-3.01h-11.566v2.693c0,14.418,8.556,22.973,23.132,22.973
			c14.1,0,22.179-8.396,22.179-22.18c0-6.813-1.9-11.882-6.178-15.686c-4.278-3.962-6.654-5.387-12.515-8.396
			c-6.338-3.169-9.032-4.595-12.042-8.556c-1.425-2.06-2.217-4.436-2.217-6.97c0-6.972,4.277-10.774,10.139-10.774
			c6.813,0,10.14,3.803,10.14,11.565v1.902h11.248v-1.585c0-13.784-8.397-22.181-21.547-22.181
			C-1808.583,601.135-1816.663,609.215-1816.663,622.364"/>
	</defs>
	<clipPath id="SVGID_41_">
		<use xlink:href="#SVGID_40_"  overflow="visible"/>
	</clipPath>
	
		<linearGradient id="SVGID_42_" gradientUnits="userSpaceOnUse" x1="1971.6812" y1="2334.1064" x2="1972.6812" y2="2334.1064" gradientTransform="matrix(3071.9939 5840.3604 5840.3604 -3071.9939 -19692532 -4347591)">
		<stop  offset="0" style="stop-color:#146BCA"/>
		<stop  offset="1" style="stop-color:#273E7C"/>
	</linearGradient>
	<polygon clip-path="url(#SVGID_41_)" fill="url(#SVGID_42_)" points="-1781.964,582.467 -1738.006,666.038 -1807.636,702.663 
		-1851.595,619.092 	"/>
</g>
<g>
	<defs>
		<path id="SVGID_43_" d="M-1753.449,662.606c0-6.654,3.804-11.883,11.249-15.687c6.495-3.325,10.298-5.701,11.566-7.445v16.002
			c0,11.408-4.913,18.062-12.993,18.062C-1750.122,673.538-1753.449,669.895-1753.449,662.606 M-1763.271,624.267v1.742h11.249
			v-2.376c0-7.764,4.119-12.2,11.09-12.2c6.813,0,10.299,3.961,10.299,11.883v1.899c0,2.693-0.793,4.914-2.535,6.34
			c-1.744,1.425-5.863,3.642-12.517,6.653c-14.417,6.813-19.803,13.941-19.803,26.141c0,12.041,6.812,19.646,17.744,19.646
			c9.03,0,15.21-4.119,18.537-12.357c0.316,5.546,0.791,9.03,1.267,10.774h10.932c-1.11-4.912-1.744-12.042-1.744-21.707v-35.489
			c0-16-7.288-24.08-22.021-24.08C-1755.191,601.135-1763.271,609.531-1763.271,624.267"/>
	</defs>
	<clipPath id="SVGID_44_">
		<use xlink:href="#SVGID_43_"  overflow="visible"/>
	</clipPath>
	
		<linearGradient id="SVGID_45_" gradientUnits="userSpaceOnUse" x1="1971.6812" y1="2334.1055" x2="1972.6812" y2="2334.1055" gradientTransform="matrix(3071.9939 5840.3604 5840.3604 -3071.9939 -19692484 -4347612.5)">
		<stop  offset="0" style="stop-color:#146BCA"/>
		<stop  offset="1" style="stop-color:#273E7C"/>
	</linearGradient>
	<polygon clip-path="url(#SVGID_44_)" fill="url(#SVGID_45_)" points="-1727.515,581.16 -1682.87,666.038 -1754.982,703.969 
		-1799.627,619.091 	"/>
</g>
<g>
	<defs>
		<path id="SVGID_46_" d="M-1694.987,656.429v-31.371c0-8.872,3.486-13.309,10.298-13.309c7.446,0,12.674,6.339,12.674,17.745
			v22.655c0,11.408-5.228,17.745-12.674,17.745C-1691.5,669.895-1694.987,665.458-1694.987,656.429 M-1706.87,624.107v33.27
			c0,15.369,6.18,23.133,18.537,23.133c7.129,0,12.674-3.168,16.318-9.508v14.576c0,8.715-3.801,12.992-11.564,12.992
			c-7.447,0-11.25-3.327-11.25-9.98v-1.11h-11.407v0.633c0,13.31,7.764,20.439,22.815,20.439c16.476,0,23.289-8.08,23.289-23.765
			V602.72h-10.298l-0.159,10.614c-3.327-8.08-9.188-12.199-17.744-12.199C-1700.689,601.135-1706.87,608.739-1706.87,624.107"/>
	</defs>
	<clipPath id="SVGID_47_">
		<use xlink:href="#SVGID_46_"  overflow="visible"/>
	</clipPath>
	
		<linearGradient id="SVGID_48_" gradientUnits="userSpaceOnUse" x1="1971.6812" y1="2334.1055" x2="1972.6812" y2="2334.1055" gradientTransform="matrix(3071.9939 5840.3604 5840.3604 -3071.9939 -19692444 -4347636)">
		<stop  offset="0" style="stop-color:#146BCA"/>
		<stop  offset="1" style="stop-color:#273E7C"/>
	</linearGradient>
	<polygon clip-path="url(#SVGID_47_)" fill="url(#SVGID_48_)" points="-1670.26,581.878 -1615.875,685.272 -1696.741,727.808 
		-1751.126,624.413 	"/>
</g>
<g>
	<defs>
		<path id="SVGID_49_" d="M-1636.051,625.691c0-9.347,3.802-13.942,11.566-13.942c7.922,0,11.881,4.596,11.881,13.942v8.872h-23.447
			V625.691z M-1648.091,626.801v31.369c0,16.479,8.396,25.824,23.606,25.824c15.208,0,23.606-9.346,23.606-25.824v-1.267h-11.565
			v2.376c0,9.347-3.961,14.102-11.883,14.102c-7.763,0-11.724-4.755-11.724-14.102v-14.893h35.172v-17.586
			c0-16.477-8.398-25.666-23.606-25.666C-1639.853,601.135-1648.091,610.324-1648.091,626.801"/>
	</defs>
	<clipPath id="SVGID_50_">
		<use xlink:href="#SVGID_49_"  overflow="visible"/>
	</clipPath>
	
		<linearGradient id="SVGID_51_" gradientUnits="userSpaceOnUse" x1="1971.6812" y1="2334.1055" x2="1972.6812" y2="2334.1055" gradientTransform="matrix(3071.9939 5840.3604 5840.3604 -3071.9939 -19692396 -4347661.5)">
		<stop  offset="0" style="stop-color:#146BCA"/>
		<stop  offset="1" style="stop-color:#273E7C"/>
	</linearGradient>
	<polygon clip-path="url(#SVGID_50_)" fill="url(#SVGID_51_)" points="-1611.11,581.684 -1566.74,666.038 -1637.859,703.446 
		-1682.229,619.092 	"/>
</g>
<g>
	<defs>
		<polygon id="SVGID_52_" points="-1577.037,617.032 -1523.111,670.957 -1469.186,617.032 		"/>
	</defs>
	<clipPath id="SVGID_53_">
		<use xlink:href="#SVGID_52_"  overflow="visible"/>
	</clipPath>
	
		<linearGradient id="SVGID_54_" gradientUnits="userSpaceOnUse" x1="1971.6812" y1="2334.1055" x2="1972.6812" y2="2334.1055" gradientTransform="matrix(3071.9939 5840.3604 5840.3604 -3071.9939 -19692308 -4347708.5)">
		<stop  offset="0" style="stop-color:#146BCA"/>
		<stop  offset="1" style="stop-color:#273E7C"/>
	</linearGradient>
	<polygon clip-path="url(#SVGID_53_)" fill="url(#SVGID_54_)" points="-1492.559,572.598 -1446.969,659.271 -1553.664,715.393 
		-1599.254,628.719 	"/>
</g>
<g>
	<defs>
		<rect id="SVGID_55_" x="-2183.75" y="-3501.428" width="2902.677" height="5612.599"/>
	</defs>
	<clipPath id="SVGID_56_">
		<use xlink:href="#SVGID_55_"  overflow="visible"/>
	</clipPath>
	<polygon clip-path="url(#SVGID_56_)" fill="#FFFFFF" points="-1388.188,-1069.994 -1388.188,-1518.437 -1315.798,-1518.437 
		-1249.808,-1160.33 -1184.475,-1518.437 -1111.452,-1518.437 -1111.452,-1069.994 -1159.484,-1069.994 -1159.484,-1444.123 
		-1230.609,-1069.994 -1272.875,-1069.994 -1344,-1444.123 -1344,-1069.994 	"/>
	<path clip-path="url(#SVGID_56_)" fill="#FFFFFF" d="M-898.102-1294.854v71.1h-142.225v60.224
		c0,37.801,16.035,57.024,47.425,57.024c32.022,0,48.033-19.223,48.033-57.024v-9.612h46.767v5.135
		c0,66.623-33.944,104.424-95.457,104.424c-61.489,0-95.458-37.801-95.458-104.424v-126.847c0-66.636,33.336-103.792,95.458-103.792
		C-932.045-1398.646-898.102-1361.489-898.102-1294.854 M-1040.327-1263.465h94.825v-35.879c0-37.801-16.011-56.379-48.057-56.379
		c-31.39,0-46.768,18.578-46.768,56.379V-1263.465z"/>
	<path clip-path="url(#SVGID_56_)" fill="#FFFFFF" d="M-728.988-1069.994c-2.555-7.689-4.477-22.423-5.11-43.568
		c-14.113,33.324-38.446,49.979-72.39,49.979c-49.98,0-74.97-31.401-74.97-93.535v-148.637c0-62.134,24.99-92.891,74.97-92.891
		c29.467,0,51.877,12.812,66.623,38.446v-158.236h48.033v360.673c0,39.079,2.579,67.913,7.056,87.769H-728.988z M-739.865-1178.263
		v-105.702c0-46.123-21.145-71.757-51.902-71.757c-27.545,0-41.001,17.945-41.001,53.812v140.948
		c0,36.511,13.456,54.456,41.001,54.456C-761.01-1106.506-739.865-1132.14-739.865-1178.263"/>
	<polygon clip-path="url(#SVGID_56_)" fill="#FFFFFF" points="-662.34,-1069.994 -662.34,-1518.437 -612.385,-1518.437 
		-612.385,-1115.484 -484.249,-1115.484 -484.249,-1069.994 	"/>
	<path clip-path="url(#SVGID_56_)" fill="#FFFFFF" d="M-288.224-1294.854v71.1h-142.225v60.224
		c0,37.801,16.035,57.024,47.425,57.024c32.022,0,48.033-19.223,48.033-57.024v-9.612h46.767v5.135
		c0,66.623-33.943,104.424-95.457,104.424c-61.488,0-95.457-37.801-95.457-104.424v-126.847c0-66.636,33.336-103.792,95.457-103.792
		C-322.167-1398.646-288.224-1361.489-288.224-1294.854 M-430.449-1263.465h94.825v-35.879c0-37.801-16.011-56.379-48.058-56.379
		c-31.39,0-46.768,18.578-46.768,56.379V-1263.465z"/>
	<path clip-path="url(#SVGID_56_)" fill="#FFFFFF" d="M-78.085-1305.755v148.637c0,62.134-24.989,93.536-75.602,93.536
		c-34.602,0-58.935-17.301-72.391-51.902l-6.398,45.49h-35.234v-448.442h48.033v158.237c14.745-25.635,37.156-38.446,65.99-38.446
		C-103.075-1398.646-78.085-1367.889-78.085-1305.755 M-126.142-1301.91c0-35.867-14.09-53.812-41.633-53.812
		c-30.758,0-51.902,25.635-51.902,71.757v105.702c0,46.123,21.145,71.758,51.902,71.758c27.543,0,41.633-17.946,41.633-54.457
		V-1301.91z"/>
	<path clip-path="url(#SVGID_56_)" fill="#FFFFFF" d="M-709.146-2147.66h-82.494h-338.292c-128.651,0-241.652,96.822-249.717,225.22
		c-8.775,139.683,102.367,256.137,240.186,256.137h265.649c11.704,0,21.191-9.489,21.191-21.191v-39.812
		c0-0.001-0.001-0.001-0.001-0.001h-286.839c-106.547,0-191.733-93.203-178.289-202.364
		c11.229-91.181,93.628-156.986,185.496-156.986l340.616,0.002h152.989c0.634,0,1.147,0.514,1.147,1.147v223.241v0.002h38.646
		c12.336,0,22.336-10.001,22.336-22.338v-200.905c0-0.633,0.514-1.147,1.148-1.147h90.859c0.633,0,1.147,0.514,1.147,1.147v223.241
		c0,0.002,0.001,0.002,0.001,0.002h38.645c12.336,0,22.336-10.001,22.336-22.338v-263.056H-709.146z"/>
	<path clip-path="url(#SVGID_56_)" fill="#FFFFFF" d="M-318.763-1727.307h-411.895v-59.898v-76.285v-142.078
		c0-11.702-9.486-21.189-21.189-21.189h-39.793v163.267v76.285v99.713c0,11.703,9.487,21.189,21.189,21.189h451.688
		c120.429,0,220.192-89.016,237.674-204.653h-61.62C-159.44-1789.085-232.021-1727.307-318.763-1727.307"/>
	<path clip-path="url(#SVGID_56_)" fill="#FFFFFF" d="M-141.017-1931.958h61.62c-12.536-121.014-115.096-215.702-239.367-215.702
		h-21.446c-11.703,0-21.19,9.487-21.19,21.19v39.815h42.637C-228.177-2086.655-153.237-2019.221-141.017-1931.958"/>
	<polygon clip-path="url(#SVGID_56_)" fill="#FFFFFF" points="-1366.639,-860.081 -1366.639,-956.215 -1385.591,-956.215 
		-1385.591,-967.066 -1335.766,-967.066 -1335.766,-956.215 -1354.717,-956.215 -1354.717,-860.081 	"/>
	<path clip-path="url(#SVGID_56_)" fill="#FFFFFF" d="M-1288.848-916.325v56.244h-11.615v-54.716c0-9.017-3.21-13.449-9.629-13.449
		c-7.183,0-12.074,6.113-12.074,17.118v51.047h-11.463v-106.986h11.463v37.445c3.515-5.96,8.711-8.864,15.589-8.864
		C-1294.809-938.485-1288.848-931.149-1288.848-916.325"/>
	<path clip-path="url(#SVGID_56_)" fill="#FFFFFF" d="M-1238.415-913.728v16.966h-33.93v14.366c0,9.019,3.821,13.604,11.31,13.604
		c7.642,0,11.463-4.585,11.463-13.604v-2.292h11.157v1.223c0,15.896-8.1,24.913-22.773,24.913c-14.672,0-22.773-9.017-22.773-24.913
		v-30.263c0-15.894,7.948-24.759,22.773-24.759C-1246.515-938.486-1238.415-929.621-1238.415-913.728 M-1272.345-906.237h22.62
		v-8.559c0-9.018-3.821-13.45-11.463-13.45c-7.489,0-11.157,4.433-11.157,13.45V-906.237z"/>
	<polygon clip-path="url(#SVGID_56_)" fill="#FFFFFF" points="-1216.259,-860.081 -1216.259,-967.066 -1204.337,-967.066 
		-1204.337,-870.932 -1173.77,-870.932 -1173.77,-860.081 	"/>
	<path clip-path="url(#SVGID_56_)" fill="#FFFFFF" d="M-1127.005-913.728v16.966h-33.93v14.366c0,9.019,3.821,13.604,11.31,13.604
		c7.642,0,11.463-4.585,11.463-13.604v-2.292h11.157v1.223c0,15.896-8.101,24.913-22.773,24.913s-22.773-9.017-22.773-24.913
		v-30.263c0-15.894,7.948-24.759,22.773-24.759C-1135.106-938.486-1127.005-929.621-1127.005-913.728 M-1160.935-906.237h22.62
		v-8.559c0-9.018-3.821-13.45-11.463-13.45c-7.489,0-11.157,4.433-11.157,13.45V-906.237z"/>
	<path clip-path="url(#SVGID_56_)" fill="#FFFFFF" d="M-1076.877-916.324v35.458c0,14.825-5.961,22.314-18.035,22.314
		c-8.253,0-14.061-4.126-17.27-12.379l-1.529,10.852h-8.406v-106.986h11.463v37.751c3.515-6.114,8.864-9.17,15.742-9.17
		C-1082.838-938.485-1076.877-931.149-1076.877-916.324 M-1088.34-915.407c0-8.559-3.362-12.838-9.934-12.838
		c-7.336,0-12.38,6.113-12.38,17.117v25.218c0,11.005,5.044,17.118,12.38,17.118c6.572,0,9.934-4.279,9.934-12.991V-915.407z"/>
	<path clip-path="url(#SVGID_56_)" fill="#FFFFFF" d="M-1038.214-860.081c-0.458-1.681-0.917-5.043-1.223-10.393
		c-3.209,7.948-9.17,11.921-17.881,11.921c-10.546,0-17.118-7.336-17.118-18.951c0-11.769,5.197-18.646,19.104-25.218
		c6.42-2.904,10.394-5.044,12.075-6.419c1.681-1.376,2.445-3.516,2.445-6.114v-1.834c0-7.642-3.362-11.463-9.934-11.463
		c-6.725,0-10.699,4.279-10.699,11.769v2.292h-10.851v-1.681c0-14.214,7.794-22.313,21.702-22.313
		c14.214,0,21.245,7.794,21.245,23.23v34.235c0,9.324,0.611,16.201,1.681,20.939H-1038.214z M-1040.813-886.063V-901.5
		c-1.223,1.681-4.891,3.974-11.157,7.184c-7.183,3.668-10.852,8.711-10.852,15.13c0,7.031,3.21,10.546,9.476,10.546
		C-1045.55-868.64-1040.813-875.059-1040.813-886.063"/>
	<path clip-path="url(#SVGID_56_)" fill="#FFFFFF" d="M-977.848-916.325v56.244h-11.615v-54.716c0-9.017-3.21-13.449-9.629-13.449
		c-7.183,0-12.074,6.113-12.074,17.118v51.047h-11.463v-76.877h9.934l0.153,10.087c3.21-7.794,8.865-11.615,16.965-11.615
		C-983.809-938.485-977.848-931.149-977.848-916.325"/>
	<path clip-path="url(#SVGID_56_)" fill="#FFFFFF" d="M-927.415-913.728v16.966h-33.93v14.366c0,9.019,3.821,13.604,11.31,13.604
		c7.642,0,11.463-4.585,11.463-13.604v-2.292h11.157v1.223c0,15.896-8.1,24.913-22.773,24.913c-14.672,0-22.773-9.017-22.773-24.913
		v-30.263c0-15.894,7.948-24.759,22.773-24.759C-935.515-938.486-927.415-929.621-927.415-913.728 M-961.344-906.237h22.62v-8.559
		c0-9.018-3.821-13.45-11.463-13.45c-7.489,0-11.157,4.433-11.157,13.45V-906.237z"/>
	<path clip-path="url(#SVGID_56_)" fill="#FFFFFF" d="M-925.736-880.714v-2.599h11.157v2.905c0,7.794,3.515,11.768,10.546,11.768
		c7.03,0,10.546-3.668,10.546-11.157c0-2.292-0.765-4.432-2.14-6.266c-2.598-3.821-5.502-5.35-11.157-8.254
		c-3.057-1.681-5.35-2.903-6.725-3.821c-1.376-0.917-3.21-2.292-5.349-4.279c-4.28-3.821-6.114-8.865-6.114-15.589
		c0-12.686,7.795-20.479,20.786-20.479c12.686,0,20.786,8.1,20.786,21.396v1.528h-10.852v-1.834c0-7.489-3.209-11.157-9.781-11.157
		c-5.655,0-9.782,3.668-9.782,10.394c0,2.444,0.764,4.738,2.14,6.725c2.904,3.821,5.502,5.196,11.616,8.253
		c5.655,2.904,7.947,4.28,12.074,8.101c4.126,3.667,5.96,8.558,5.96,15.13c0,13.297-7.794,21.396-21.397,21.396
		C-917.483-858.553-925.736-866.806-925.736-880.714"/>
	<path clip-path="url(#SVGID_56_)" fill="#FFFFFF" d="M-834.344-913.728v16.966h-33.93v14.366c0,9.019,3.821,13.604,11.31,13.604
		c7.642,0,11.463-4.585,11.463-13.604v-2.292h11.157v1.223c0,15.896-8.1,24.913-22.773,24.913c-14.672,0-22.773-9.017-22.773-24.913
		v-30.263c0-15.894,7.948-24.759,22.773-24.759C-842.444-938.486-834.344-929.621-834.344-913.728 M-868.274-906.237h22.62v-8.559
		c0-9.018-3.821-13.45-11.463-13.45c-7.489,0-11.157,4.433-11.157,13.45V-906.237z"/>
	<polygon clip-path="url(#SVGID_56_)" fill="#FFFFFF" points="-812.188,-860.081 -812.188,-967.066 -794.917,-967.066 
		-779.174,-881.63 -763.585,-967.066 -746.162,-967.066 -746.162,-860.081 -757.625,-860.081 -757.625,-949.337 -774.589,-860.081 
		-784.676,-860.081 -801.642,-949.337 -801.642,-860.081 	"/>
	<path clip-path="url(#SVGID_56_)" fill="#FFFFFF" d="M-695.271-913.728v16.966h-33.931v14.366c0,9.019,3.821,13.604,11.311,13.604
		c7.642,0,11.463-4.585,11.463-13.604v-2.292h11.157v1.223c0,15.896-8.101,24.913-22.773,24.913
		c-14.672,0-22.773-9.017-22.773-24.913v-30.263c0-15.894,7.948-24.759,22.773-24.759
		C-703.372-938.486-695.271-929.621-695.271-913.728 M-729.202-906.237h22.62v-8.559c0-9.018-3.821-13.45-11.463-13.45
		c-7.489,0-11.157,4.433-11.157,13.45V-906.237z"/>
	<path clip-path="url(#SVGID_56_)" fill="#FFFFFF" d="M-654.926-860.08c-0.61-1.834-1.069-5.35-1.223-10.393
		c-3.362,7.947-9.17,11.921-17.271,11.921c-11.921,0-17.882-7.489-17.882-22.314v-35.459c0-14.825,5.961-22.161,17.882-22.161
		c7.031,0,12.381,3.058,15.896,9.17v-37.75h11.463v86.047c0,9.323,0.611,16.2,1.681,20.939H-654.926z M-657.524-885.91v-25.218
		c0-11.005-5.043-17.118-12.38-17.118c-6.572,0-9.781,4.28-9.781,12.839v33.624c0,8.712,3.209,12.991,9.781,12.991
		C-662.567-868.792-657.524-874.905-657.524-885.91"/>
	<path clip-path="url(#SVGID_56_)" fill="#FFFFFF" d="M-639.035-964.468h11.463v16.506h-11.463V-964.468z M-639.035-936.958h11.463
		v76.877h-11.463V-936.958z"/>
	<path clip-path="url(#SVGID_56_)" fill="#FFFFFF" d="M-622.073-883.159v-30.873c0-15.895,7.795-24.454,22.467-24.454
		c14.521,0,22.01,9.017,22.01,24.454v3.362h-11.157v-4.432c0-8.712-3.668-13.145-10.853-13.145c-7.183,0-10.851,4.433-10.851,13.145
		v33.013c0,8.864,3.668,13.297,10.851,13.297c7.185,0,10.853-4.433,10.853-13.297v-5.961h11.157v4.891
		c0,15.742-7.489,24.606-22.01,24.606C-614.278-858.553-622.073-867.264-622.073-883.159"/>
	<path clip-path="url(#SVGID_56_)" fill="#FFFFFF" d="M-573.321-964.468h11.463v16.506h-11.463V-964.468z M-573.321-936.958h11.463
		v76.877h-11.463V-936.958z"/>
	<path clip-path="url(#SVGID_56_)" fill="#FFFFFF" d="M-510.048-916.325v56.244h-11.615v-54.716c0-9.017-3.21-13.449-9.629-13.449
		c-7.184,0-12.074,6.113-12.074,17.118v51.047h-11.463v-76.877h9.934l0.153,10.087c3.21-7.794,8.864-11.615,16.965-11.615
		C-516.01-938.485-510.048-931.149-510.048-916.325"/>
	<path clip-path="url(#SVGID_56_)" fill="#FFFFFF" d="M-459.616-913.728v16.966h-33.93v14.366c0,9.019,3.82,13.604,11.31,13.604
		c7.643,0,11.463-4.585,11.463-13.604v-2.292h11.157v1.223c0,15.896-8.1,24.913-22.772,24.913s-22.773-9.017-22.773-24.913v-30.263
		c0-15.894,7.948-24.759,22.773-24.759C-467.715-938.486-459.616-929.621-459.616-913.728 M-493.545-906.237h22.62v-8.559
		c0-9.018-3.821-13.45-11.463-13.45c-7.489,0-11.157,4.433-11.157,13.45V-906.237z"/>
	<path clip-path="url(#SVGID_56_)" fill="#FFFFFF" d="M-437.459-860.081v-106.985h24.454c16.048,0,24.148,8.712,24.148,25.981
		v55.022c0,17.271-8.101,25.981-24.148,25.981H-437.459z M-425.539-870.932h12.228c8.559,0,12.533-4.279,12.533-14.672v-56.092
		c0-10.392-3.975-14.519-12.533-14.519h-12.228V-870.932z"/>
	<path clip-path="url(#SVGID_56_)" fill="#FFFFFF" d="M-383.053-964.468h11.463v16.506h-11.463V-964.468z M-383.053-936.958h11.463
		v76.877h-11.463V-936.958z"/>
	<path clip-path="url(#SVGID_56_)" fill="#FFFFFF" d="M-333.384-937.569v11.311c-1.375-0.459-2.903-0.764-4.737-0.764
		c-9.935,0-14.979,7.336-14.979,22.161v44.782h-11.463v-76.878h9.935l0.153,12.686c2.599-9.476,7.947-14.214,16.048-14.214
		C-336.288-938.486-334.606-938.181-333.384-937.569"/>
	<path clip-path="url(#SVGID_56_)" fill="#FFFFFF" d="M-288.603-913.728v16.966h-33.931v14.366c0,9.019,3.821,13.604,11.311,13.604
		c7.642,0,11.463-4.585,11.463-13.604v-2.292h11.157v1.223c0,15.896-8.102,24.913-22.773,24.913s-22.773-9.017-22.773-24.913
		v-30.263c0-15.894,7.948-24.759,22.773-24.759C-296.705-938.486-288.603-929.621-288.603-913.728 M-322.534-906.237h22.62v-8.559
		c0-9.018-3.821-13.45-11.463-13.45c-7.489,0-11.157,4.433-11.157,13.45V-906.237z"/>
	<path clip-path="url(#SVGID_56_)" fill="#FFFFFF" d="M-284.939-883.159v-30.873c0-15.895,7.795-24.454,22.467-24.454
		c14.521,0,22.009,9.017,22.009,24.454v3.362h-11.156v-4.432c0-8.712-3.669-13.145-10.853-13.145
		c-7.183,0-10.851,4.433-10.851,13.145v33.013c0,8.864,3.668,13.297,10.851,13.297c7.184,0,10.853-4.433,10.853-13.297v-5.961
		h11.156v4.891c0,15.742-7.488,24.606-22.009,24.606C-277.144-858.553-284.939-867.264-284.939-883.159"/>
	<path clip-path="url(#SVGID_56_)" fill="#FFFFFF" d="M-206.079-927.176h-13.907v49.825c0,6.113,1.986,8.559,7.488,8.559
		c2.293,0,4.433-0.459,6.419-1.223v9.934c-2.292,1.07-5.195,1.529-8.559,1.529c-11.31,0-16.965-5.808-16.965-17.576v-51.048h-9.477
		v-9.782h9.936l1.223-22.161h9.935v22.161h13.907V-927.176z"/>
	<path clip-path="url(#SVGID_56_)" fill="#FFFFFF" d="M-205.008-883.465v-30.262c0-15.896,7.946-24.759,22.62-24.759
		c14.519,0,22.618,8.864,22.618,24.759v30.262c0,15.896-8.1,24.913-22.618,24.913C-197.062-858.552-205.008-867.569-205.008-883.465
		 M-171.384-882.395v-32.402c0-9.016-3.668-13.449-11.004-13.449c-7.489,0-11.157,4.433-11.157,13.449v32.402
		c0,9.018,3.668,13.603,11.157,13.603C-175.052-868.792-171.384-873.377-171.384-882.395"/>
	<path clip-path="url(#SVGID_56_)" fill="#FFFFFF" d="M-123.246-937.569v11.311c-1.375-0.459-2.904-0.764-4.738-0.764
		c-9.934,0-14.978,7.336-14.978,22.161v44.782h-11.463v-76.878h9.935l0.153,12.686c2.598-9.476,7.947-14.214,16.048-14.214
		C-126.15-938.486-124.467-938.181-123.246-937.569"/>
	<path clip-path="url(#SVGID_56_)" fill="#FFFFFF" d="M-76.633-936.958l-16.201,71.528l-3.209,14.061
		c-2.599,11.769-7.948,16.506-18.494,16.506c-3.362,0-5.96-0.458-7.794-1.528v-9.935c1.681,0.765,3.668,1.223,6.113,1.223
		c5.502,0,7.488-1.834,8.864-7.947l1.375-6.114l-19.563-77.794h11.769l13.908,58.536l12.533-58.536H-76.633z"/>
	<path clip-path="url(#SVGID_56_)" fill="#FFFFFF" d="M-1911.065-465.088h695.354h966.602h695.354
		c84.363,0,152.755,68.392,152.755,152.757c0,84.364-68.392,152.756-152.755,152.756H-249.11h-966.602h-695.354
		c-84.365,0-152.756-68.392-152.756-152.756C-2063.822-396.696-1995.431-465.088-1911.065-465.088"/>
	
		<linearGradient id="SVGID_57_" gradientUnits="userSpaceOnUse" x1="1973.5146" y1="2334.8184" x2="1974.5142" y2="2334.8184" gradientTransform="matrix(-2663.8201 0 0 -2663.8201 5257687 6219225)">
		<stop  offset="0" style="stop-color:#009776"/>
		<stop  offset="1" style="stop-color:#0C5041"/>
		<stop  offset="1" style="stop-color:#FFF3E9"/>
	</linearGradient>
	<path clip-path="url(#SVGID_56_)" fill="url(#SVGID_57_)" d="M-1911.065-465.088L-1911.065-465.088h695.354h966.602h695.354
		c84.363,0,152.755,68.392,152.755,152.757s-68.392,152.756-152.755,152.756H-249.11h-966.602h-695.354
		c-84.365,0-152.756-68.392-152.756-152.756C-2063.822-396.696-1995.431-465.088-1911.065-465.088L-1911.065-465.088
		L-1911.065-465.088c-84.365,0-152.756,68.392-152.756,152.757s68.391,152.756,152.756,152.756h695.354h966.602h695.354
		c84.363,0,152.755-68.392,152.755-152.756c0-84.365-68.392-152.757-152.755-152.757H-249.11h-966.602H-1911.065L-1911.065-465.088z
		"/>
</g>
<g>
	<defs>
		<path id="SVGID_58_" d="M301.704,123.459c0-28.724,23.335-52.06,52.06-52.06s52.062,23.336,52.062,52.06
			c0,28.726-23.337,52.098-52.062,52.098S301.704,152.185,301.704,123.459 M313.59,60.203
			c-41.977,27.488-46.246,84.376-12.79,117.831c25.832,25.832,65.614,29.126,95.063,9.991l63.605,63.605l22.389-22.39
			l-63.605-63.604c22.345-34.385,14.107-82.86-24.886-106.765c-11.657-7.146-25.173-10.688-38.697-10.689
			C340.239,48.183,325.797,52.215,313.59,60.203"/>
	</defs>
	<clipPath id="SVGID_59_">
		<use xlink:href="#SVGID_58_"  overflow="visible"/>
	</clipPath>
	
		<linearGradient id="SVGID_60_" gradientUnits="userSpaceOnUse" x1="1951.5142" y1="2333.5938" x2="1952.5137" y2="2333.5938" gradientTransform="matrix(203.3118 0 0 -203.3118 -396487.25 474596.9375)">
		<stop  offset="0" style="stop-color:#146BCA"/>
		<stop  offset="1" style="stop-color:#273E7C"/>
	</linearGradient>
	<rect x="267.344" y="48.183" clip-path="url(#SVGID_59_)" fill="url(#SVGID_60_)" width="214.514" height="203.448"/>
</g>
<g>
	<defs>
		<rect id="SVGID_61_" x="-1914.38" y="171.669" width="11.725" height="11.727"/>
	</defs>
	<clipPath id="SVGID_62_">
		<use xlink:href="#SVGID_61_"  overflow="visible"/>
	</clipPath>
	
		<linearGradient id="SVGID_63_" gradientUnits="userSpaceOnUse" x1="2326.3691" y1="2314.9492" x2="2327.3691" y2="2314.9492" gradientTransform="matrix(-11.7255 0 0 -11.7255 25375.2695 27321.5469)">
		<stop  offset="0" style="stop-color:#146BCA"/>
		<stop  offset="1" style="stop-color:#273E7C"/>
	</linearGradient>
	<rect x="-1914.38" y="171.67" clip-path="url(#SVGID_62_)" fill="url(#SVGID_63_)" width="11.725" height="11.726"/>
</g>
<g>
	<defs>
		<rect id="SVGID_64_" x="-1848.212" y="104.131" width="18.761" height="18.761"/>
	</defs>
	<clipPath id="SVGID_65_">
		<use xlink:href="#SVGID_64_"  overflow="visible"/>
	</clipPath>
	
		<linearGradient id="SVGID_66_" gradientUnits="userSpaceOnUse" x1="2193.4639" y1="2322.3691" x2="2194.4639" y2="2322.3691" gradientTransform="matrix(-18.7608 0 0 -18.7608 39321.7773 43683.1055)">
		<stop  offset="0" style="stop-color:#146BCA"/>
		<stop  offset="1" style="stop-color:#273E7C"/>
	</linearGradient>
	<rect x="-1848.212" y="104.131" clip-path="url(#SVGID_65_)" fill="url(#SVGID_66_)" width="18.761" height="18.761"/>
</g>
<g>
	<defs>
		<path id="SVGID_67_" d="M-1920.948,165.104h24.859v24.856h-24.859V165.104z M-1836.546,173.369v14.657h-14.656v-14.657H-1836.546z
			 M-1836.546,158.713h14.658v14.655h-14.658V158.713z M-1889.662,162.113v-3.4v-14.774h14.657v14.774h23.802v14.656h-38.459
			V162.113z M-1851.203,143.938h14.656v14.658h-14.656V143.938z M-1908.518,123.596h19.097v-19.23h19.23v19.23h-19.097v19.229
			h-19.23V123.596z M-1859.468,92.874h41.273v41.274h-41.273V92.874z M-1926.89,84.549v58.394h20.285v16.769h-20.285v35.995h35.997
			v9.498h49.95v-13.366h17.237v13.366h14.187v-16.182h-12.311v-16.181h12.311V158.42h-12.311v-13.016h12.311V84.549H-1926.89z"/>
	</defs>
	<clipPath id="SVGID_68_">
		<use xlink:href="#SVGID_67_"  overflow="visible"/>
	</clipPath>
	
		<linearGradient id="SVGID_69_" gradientUnits="userSpaceOnUse" x1="2007.3608" y1="2332.7578" x2="2008.3608" y2="2332.7578" gradientTransform="matrix(-117.3707 0 0 -117.3707 233795.8438 273942.25)">
		<stop  offset="0" style="stop-color:#146BCA"/>
		<stop  offset="1" style="stop-color:#273E7C"/>
	</linearGradient>
	<rect x="-1926.89" y="84.55" clip-path="url(#SVGID_68_)" fill="url(#SVGID_69_)" width="117.371" height="120.655"/>
</g>
<g>
	<defs>
		<path id="SVGID_70_" d="M-1911.925,49.347c-27.904,0-50.603,22.698-50.603,50.591v6.439h12.572v-6.439
			c0-20.968,17.063-38.021,38.031-38.021h5.321V49.347H-1911.925z"/>
	</defs>
	<clipPath id="SVGID_71_">
		<use xlink:href="#SVGID_70_"  overflow="visible"/>
	</clipPath>
	
		<linearGradient id="SVGID_72_" gradientUnits="userSpaceOnUse" x1="2046.2666" y1="2330.5869" x2="2047.2666" y2="2330.5869" gradientTransform="matrix(-55.9227 0 0 -55.9227 112526.1719 130410.5859)">
		<stop  offset="0" style="stop-color:#146BCA"/>
		<stop  offset="1" style="stop-color:#273E7C"/>
	</linearGradient>
	<rect x="-1962.528" y="49.347" clip-path="url(#SVGID_71_)" fill="url(#SVGID_72_)" width="55.924" height="57.03"/>
</g>
<g>
	<defs>
		<path id="SVGID_73_" d="M-1829.605,49.347v12.569h5.332c20.968,0,38.02,17.054,38.02,38.021v6.439h12.57v-6.439
			c0-27.893-22.699-50.591-50.59-50.591H-1829.605z"/>
	</defs>
	<clipPath id="SVGID_74_">
		<use xlink:href="#SVGID_73_"  overflow="visible"/>
	</clipPath>
	
		<linearGradient id="SVGID_75_" gradientUnits="userSpaceOnUse" x1="2046.2661" y1="2330.5869" x2="2047.2661" y2="2330.5869" gradientTransform="matrix(-55.9227 0 0 -55.9227 112659.0781 130410.5859)">
		<stop  offset="0" style="stop-color:#146BCA"/>
		<stop  offset="1" style="stop-color:#273E7C"/>
	</linearGradient>
	<rect x="-1829.605" y="49.347" clip-path="url(#SVGID_74_)" fill="url(#SVGID_75_)" width="55.922" height="57.03"/>
</g>
<g>
	<defs>
		<path id="SVGID_76_" d="M-1962.528,183.375v4.213c0,27.892,22.699,50.592,50.603,50.592h5.321v-12.57h-5.321
			c-20.968,0-38.031-17.053-38.031-38.021v-4.213H-1962.528z"/>
	</defs>
	<clipPath id="SVGID_77_">
		<use xlink:href="#SVGID_76_"  overflow="visible"/>
	</clipPath>
	
		<linearGradient id="SVGID_78_" gradientUnits="userSpaceOnUse" x1="2046.2666" y1="2330.5869" x2="2047.2666" y2="2330.5869" gradientTransform="matrix(-55.9227 0 0 -55.9227 112526.1719 130543.5234)">
		<stop  offset="0" style="stop-color:#146BCA"/>
		<stop  offset="1" style="stop-color:#273E7C"/>
	</linearGradient>
	<rect x="-1962.528" y="183.376" clip-path="url(#SVGID_77_)" fill="url(#SVGID_78_)" width="55.924" height="54.804"/>
</g>
<g>
	<defs>
		<path id="SVGID_79_" d="M-1786.253,183.375v4.213c0,20.969-17.052,38.021-38.02,38.021h-5.332v12.57h5.332
			c27.891,0,50.59-22.7,50.59-50.592v-4.213H-1786.253z"/>
	</defs>
	<clipPath id="SVGID_80_">
		<use xlink:href="#SVGID_79_"  overflow="visible"/>
	</clipPath>
	
		<linearGradient id="SVGID_81_" gradientUnits="userSpaceOnUse" x1="2046.2661" y1="2330.5869" x2="2047.2661" y2="2330.5869" gradientTransform="matrix(-55.9227 0 0 -55.9227 112659.0781 130543.5234)">
		<stop  offset="0" style="stop-color:#146BCA"/>
		<stop  offset="1" style="stop-color:#273E7C"/>
	</linearGradient>
	<rect x="-1829.605" y="183.376" clip-path="url(#SVGID_80_)" fill="url(#SVGID_81_)" width="55.922" height="54.804"/>
</g>
<g>
	<defs>
		<rect id="SVGID_82_" x="-2183.75" y="-3045.865" width="2902.677" height="5612.599"/>
	</defs>
	<clipPath id="SVGID_83_">
		<use xlink:href="#SVGID_82_"  overflow="visible"/>
	</clipPath>
	<polygon clip-path="url(#SVGID_83_)" fill="#666666" points="213.362,95.833 196.786,79.257 141.352,134.691 85.917,79.257 
		69.342,95.833 124.776,151.268 69.342,206.701 85.917,223.277 141.352,167.843 196.786,223.277 213.362,206.701 157.927,151.268 	
		"/>
</g>
<g>
	<path fill="#666666" d="M-1406.102,183.376v-74.191h30.418v7.525h-22.151v24.165h18.018v7.525h-18.018v27.45h22.151v7.525
		H-1406.102z"/>
	<path fill="#666666" d="M-1365.723,183.376v-74.191h10.599l16.746,52.994v-52.994h7.525v74.191h-8.585l-18.76-60.307v60.307
		H-1365.723z"/>
	<path fill="#666666" d="M-1308.174,183.376V116.71h-13.143v-7.525h34.552v7.525h-13.142v66.666H-1308.174z"/>
	<path fill="#666666" d="M-1277.333,183.376v-74.191h30.418v7.525h-22.151v24.165h18.018v7.525h-18.018v27.45h22.151v7.525
		H-1277.333z"/>
	<path fill="#666666" d="M-1236.955,183.376v-74.191h16.216c11.765,0,16.746,5.3,16.746,16.853v4.557
		c0,8.161-2.861,13.143-8.585,14.944v0.106c5.83,1.483,8.691,6.677,8.691,15.474v13.249c0,4.027,0.318,6.995,1.06,9.009h-8.373
		c-0.636-2.12-0.954-5.087-0.954-9.009v-13.673c0-7.949-2.756-10.811-9.857-10.811h-6.677v33.492H-1236.955z M-1228.688,142.358
		h6.677c6.677,0,9.751-2.967,9.751-10.175v-5.299c0-7.207-2.438-10.175-8.691-10.175h-7.737V142.358z"/>
	<path fill="#666666" d="M-1162.026,183.376V116.71h-13.143v-7.525h34.552v7.525h-13.142v66.666H-1162.026z"/>
	<path fill="#666666" d="M-1131.185,183.376v-74.191h8.267v31.69h17.594v-31.69h8.267v74.191h-8.267V148.4h-17.594v34.976H-1131.185
		z"/>
	<path fill="#666666" d="M-1084.234,183.376v-74.191h30.418v7.525h-22.151v24.165h18.018v7.525h-18.018v27.45h22.151v7.525
		H-1084.234z"/>
	<path fill="#666666" d="M-1024.037,183.376v-74.191h16.534c11.765,0,16.746,5.3,16.746,16.853v3.073
		c0,7.949-2.756,12.824-8.267,14.838v0.212c6.253,1.802,9.433,6.996,9.433,15.581v6.358c0,11.553-5.723,17.276-17.064,17.276
		H-1024.037z M-1015.77,140.875h6.995c6.677,0,9.751-2.968,9.751-10.175v-3.815c0-7.207-2.438-10.175-8.691-10.175h-8.055V140.875z
		 M-1015.77,175.851h9.115c6.042,0,8.797-2.861,8.797-9.963v-6.359c0-8.055-2.861-11.128-10.493-11.128h-7.419V175.851z"/>
	<path fill="#666666" d="M-978.782,183.376v-74.191h16.216c11.765,0,16.746,5.3,16.746,16.853v4.557
		c0,8.161-2.861,13.143-8.585,14.944v0.106c5.83,1.483,8.691,6.677,8.691,15.474v13.249c0,4.027,0.318,6.995,1.06,9.009h-8.373
		c-0.636-2.12-0.954-5.087-0.954-9.009v-13.673c0-7.949-2.756-10.811-9.857-10.811h-6.677v33.492H-978.782z M-970.515,142.358h6.677
		c6.677,0,9.751-2.967,9.751-10.175v-5.299c0-7.207-2.438-10.175-8.691-10.175h-7.737V142.358z"/>
	<path fill="#666666" d="M-906.29,183.376l-2.756-15.792h-17.17l-2.755,15.792h-7.737l13.778-74.191h11.129l13.884,74.191H-906.29z
		 M-924.943,160.377h14.626l-7.419-41.76L-924.943,160.377z"/>
	<path fill="#666666" d="M-888.38,183.376v-74.191h10.599l16.746,52.994v-52.994h7.525v74.191h-8.585l-18.76-60.307v60.307H-888.38z
		"/>
	<path fill="#666666" d="M-840.688,183.376v-74.191h16.958c11.129,0,16.746,6.041,16.746,18.018v38.156
		c0,11.977-5.617,18.018-16.746,18.018H-840.688z M-832.421,175.851h8.479c5.935,0,8.691-2.968,8.691-10.175v-38.897
		c0-7.207-2.756-10.068-8.691-10.068h-8.479V175.851z"/>
	<path fill="#666666" d="M-775.191,183.376v-74.191h10.599l16.746,52.994v-52.994h7.525v74.191h-8.585l-18.76-60.307v60.307
		H-775.191z"/>
	<path fill="#666666" d="M-700.367,183.376l-2.755-15.792h-17.17l-2.756,15.792h-7.737l13.778-74.191h11.129l13.884,74.191H-700.367
		z M-719.02,160.377h14.626l-7.419-41.76L-719.02,160.377z"/>
	<path fill="#666666" d="M-682.457,183.376v-74.191h11.977l10.916,59.247l10.811-59.247h12.083v74.191h-7.949v-61.896
		l-11.765,61.896h-6.995l-11.765-61.896v61.896H-682.457z"/>
	<path fill="#666666" d="M-623.955,183.376v-74.191h30.419v7.525h-22.151v24.165h18.018v7.525h-18.018v27.45h22.151v7.525H-623.955z
		"/>
	<path fill="#666666" d="M-564.499,166.1v-39.745c0-11.765,6.042-18.229,16.958-18.229c11.023,0,17.064,6.465,17.064,18.229V166.1
		c0,11.765-6.041,18.336-17.064,18.336C-558.457,184.436-564.499,177.864-564.499,166.1z M-538.744,166.63v-40.805
		c0-6.783-2.968-10.175-8.797-10.175s-8.69,3.392-8.69,10.175v40.805c0,6.89,2.861,10.281,8.69,10.281
		S-538.744,173.52-538.744,166.63z"/>
	<path fill="#666666" d="M-518.607,183.376v-74.191h16.216c11.765,0,16.746,5.3,16.746,16.853v4.557
		c0,8.161-2.862,13.143-8.585,14.944v0.106c5.829,1.483,8.69,6.677,8.69,15.474v13.249c0,4.027,0.318,6.995,1.061,9.009h-8.373
		c-0.637-2.12-0.954-5.087-0.954-9.009v-13.673c0-7.949-2.756-10.811-9.857-10.811h-6.677v33.492H-518.607z M-510.34,142.358h6.677
		c6.678,0,9.751-2.967,9.751-10.175v-5.299c0-7.207-2.438-10.175-8.69-10.175h-7.737V142.358z"/>
	<path fill="#666666" d="M-453.642,183.376v-74.191h8.268v74.191H-453.642z"/>
	<path fill="#666666" d="M-432.658,183.376v-74.191h10.6l16.746,52.994v-52.994h7.524v74.191h-8.585l-18.76-60.307v60.307H-432.658z
		"/>
	<path fill="#666666" d="M-385.814,166.1v-39.745c0-11.765,5.829-18.229,16.746-18.229c11.022,0,16.853,6.359,16.853,18.229v6.041
		h-7.844v-6.57c0-6.783-2.968-10.175-8.797-10.175s-8.69,3.392-8.69,10.175v40.911c0,6.783,2.861,10.175,8.69,10.175
		s8.797-3.392,8.797-10.175v-16.641h-8.161v-7.525h16.005V166.1c0,11.871-5.83,18.336-16.853,18.336
		C-379.985,184.436-385.814,177.971-385.814,166.1z"/>
	<path fill="#666666" d="M-340.666,183.376v-74.191h16.217c11.765,0,16.746,5.3,16.746,16.853v4.557
		c0,8.161-2.862,13.143-8.585,14.944v0.106c5.829,1.483,8.69,6.677,8.69,15.474v13.249c0,4.027,0.318,6.995,1.061,9.009h-8.373
		c-0.637-2.12-0.954-5.087-0.954-9.009v-13.673c0-7.949-2.756-10.811-9.857-10.811h-6.677v33.492H-340.666z M-332.398,142.358h6.677
		c6.678,0,9.751-2.967,9.751-10.175v-5.299c0-7.207-2.438-10.175-8.69-10.175h-7.737V142.358z"/>
	<path fill="#666666" d="M-295.517,183.376v-74.191h30.418v7.525h-22.151v24.165h18.018v7.525h-18.018v27.45h22.151v7.525H-295.517z
		"/>
	<path fill="#666666" d="M-255.138,183.376v-74.191h16.957c11.129,0,16.746,6.041,16.746,18.018v38.156
		c0,11.977-5.617,18.018-16.746,18.018H-255.138z M-246.872,175.851h8.479c5.936,0,8.691-2.968,8.691-10.175v-38.897
		c0-7.207-2.756-10.068-8.691-10.068h-8.479V175.851z"/>
	<path fill="#666666" d="M-209.46,183.376v-74.191h8.267v74.191H-209.46z"/>
	<path fill="#666666" d="M-188.476,183.376v-74.191h30.418v7.525h-22.151v24.165h18.018v7.525h-18.018v27.45h22.151v7.525H-188.476z
		"/>
	<path fill="#666666" d="M-148.097,183.376v-74.191h10.599l16.746,52.994v-52.994h7.524v74.191h-8.585l-18.76-60.307v60.307
		H-148.097z"/>
	<path fill="#666666" d="M-90.549,183.376V116.71h-13.143v-7.525h34.552v7.525h-13.143v66.666H-90.549z"/>
</g>
<g>
	<defs>
		<path id="SVGID_84_" d="M-1667.818,78.344l41.173,31.548V89.874c32.743,3.807,58.334,31.384,58.334,65.132
			c0,36.338-29.56,65.912-65.897,65.912c-36.339,0-65.913-29.574-65.913-65.912c0-2.654,0.477-5.179,0.784-7.752h-18.567
			c-0.006,0.058-0.003,0.115-0.009,0.174h-4.248v7.578c0,48.489,39.447,87.953,87.937,87.953c48.491,0,87.952-39.464,87.952-87.953
			c0-45.933-35.424-83.691-80.373-87.554V46.795L-1667.818,78.344z"/>
	</defs>
	<clipPath id="SVGID_85_">
		<use xlink:href="#SVGID_84_"  overflow="visible"/>
	</clipPath>
	
		<linearGradient id="SVGID_86_" gradientUnits="userSpaceOnUse" x1="1961.6499" y1="2322.3887" x2="1962.6494" y2="2322.3887" gradientTransform="matrix(176.2657 189.0988 189.0988 -176.2657 -786650.1875 38467.7656)">
		<stop  offset="0" style="stop-color:#146BCA"/>
		<stop  offset="1" style="stop-color:#273E7C"/>
	</linearGradient>
	<polygon clip-path="url(#SVGID_85_)" fill="url(#SVGID_86_)" points="-1628.047,-40.933 -1448.433,151.759 -1640.387,330.687 
		-1820.001,137.995 	"/>
</g>
<g>
	<defs>
		<rect id="SVGID_87_" x="-1644.216" y="109.156" width="12.187" height="45.208"/>
	</defs>
	<clipPath id="SVGID_88_">
		<use xlink:href="#SVGID_87_"  overflow="visible"/>
	</clipPath>
	
		<linearGradient id="SVGID_89_" gradientUnits="userSpaceOnUse" x1="1961.6494" y1="2322.3623" x2="1962.6494" y2="2322.3623" gradientTransform="matrix(176.2657 189.0988 189.0988 -176.2657 -786640.6875 38458.8906)">
		<stop  offset="0" style="stop-color:#146BCA"/>
		<stop  offset="1" style="stop-color:#273E7C"/>
	</linearGradient>
	<polygon clip-path="url(#SVGID_88_)" fill="url(#SVGID_89_)" points="-1637.695,103.078 -1609.481,133.347 -1638.55,160.443 
		-1666.765,130.175 	"/>
</g>
<g>
	<defs>
		<rect id="SVGID_90_" x="-1637.983" y="150.459" width="66.726" height="7.813"/>
	</defs>
	<clipPath id="SVGID_91_">
		<use xlink:href="#SVGID_90_"  overflow="visible"/>
	</clipPath>
	
		<linearGradient id="SVGID_92_" gradientUnits="userSpaceOnUse" x1="1961.6494" y1="2322.3633" x2="1962.6494" y2="2322.3633" gradientTransform="matrix(176.2657 189.0988 189.0988 -176.2657 -786634.1875 38452.7031)">
		<stop  offset="0" style="stop-color:#146BCA"/>
		<stop  offset="1" style="stop-color:#273E7C"/>
	</linearGradient>
	<polygon clip-path="url(#SVGID_91_)" fill="url(#SVGID_92_)" points="-1602.28,117.179 -1567.361,154.641 -1606.961,191.553 
		-1641.88,154.092 	"/>
</g>
<g>
	<defs>
		<path id="SVGID_93_" d="M-1648.064,154.364c0,5.492,4.451,9.943,9.941,9.943c5.491,0,9.942-4.451,9.942-9.943
			c0-5.491-4.451-9.942-9.942-9.942C-1643.614,144.422-1648.064,148.873-1648.064,154.364"/>
	</defs>
	<clipPath id="SVGID_94_">
		<use xlink:href="#SVGID_93_"  overflow="visible"/>
	</clipPath>
	
		<linearGradient id="SVGID_95_" gradientUnits="userSpaceOnUse" x1="1961.6519" y1="2322.3623" x2="1962.6473" y2="2322.3623" gradientTransform="matrix(176.2657 189.0988 189.0988 -176.2657 -786651.9375 38469.3906)">
		<stop  offset="0" style="stop-color:#146BCA"/>
		<stop  offset="1" style="stop-color:#273E7C"/>
	</linearGradient>
	<polygon clip-path="url(#SVGID_94_)" fill="url(#SVGID_95_)" points="-1637.425,134.506 -1618.264,155.063 -1638.821,174.225 
		-1657.982,153.667 	"/>
</g>
</svg>
